<svg version="1.1" xmlns="http://www.w3.org/2000/svg" xmlns:xlink="http://www.w3.org/1999/xlink" width="141.94792" height="269.02725" viewBox="0,0,141.94792,269.02725"><defs><radialGradient cx="321.79299" cy="247.01066" r="87.00001" gradientUnits="userSpaceOnUse" id="color-1"><stop offset="0" stop-color="#ff0000"/><stop offset="1" stop-color="#460000"/></radialGradient><radialGradient cx="320.91403" cy="264.54648" r="105.50001" gradientUnits="userSpaceOnUse" id="color-2"><stop offset="0" stop-color="#00e6ff" stop-opacity="0.26667"/><stop offset="1" stop-color="#000da5" stop-opacity="0.56471"/></radialGradient><radialGradient cx="319.4491" cy="247.01066" r="106.3186" gradientUnits="userSpaceOnUse" id="color-3"><stop offset="0" stop-color="#ff0000" stop-opacity="0.15294"/><stop offset="1" stop-color="#450000" stop-opacity="0.67059"/></radialGradient></defs><g transform="translate(-249.02604,-88.90939)"><g stroke="none" stroke-width="0" stroke-miterlimit="10"><path d="M274.29299,357.93661v-221.85182c0,0 6.7773,32.28539 15.2038,69.68465c4.78591,21.24123 12.10381,-82.09395 17.0142,-62.5316c6.98961,27.84577 10.15351,99.94784 12.782,99.94784c5.08713,0 8.67656,-64.40221 15.36409,-88.26543c6.63167,-23.66391 17.35981,68.54716 22.8151,42.15848c6.94057,-33.57341 11.82081,-60.99391 11.82081,-60.99391v221.85182z" fill="url(#color-1)"/><path d="M253.37138,357.93661l-4.34534,-269.02721c0,0 5.60962,65.39227 10.3562,88.58265c1.08517,5.30184 -0.09614,-36.21057 1.1225,-30.56076c4.55113,21.0996 9.8843,43.50425 14.88856,58.83815c3.56886,10.93557 6.94508,-61.54631 7.20224,-80.36179c0.67636,-49.48754 12.40592,153.19325 17.15938,147.2936c6.3536,-7.88563 10.92351,-158.75144 12.89746,-153.32222c10.12409,27.84577 4.98884,141.65681 8.79607,141.65681c5.81018,0 -7.93688,-120.48719 -2.32251,-152.8116c0.84139,-4.84422 1.01238,51.92596 6.52769,67.80162c4.3549,12.53543 13.66221,-66.6053 14.56604,-68.83191c9.60563,-23.66391 25.73076,116.27348 33.63246,89.8848c1.77301,-5.92119 -8.89728,-76.54434 -7.40654,-84.2526c1.47854,-7.64519 12.15966,88.60168 14.22208,84.89856c7.64861,-13.73324 8.85784,-106.26524 8.85784,-106.26524l1.44845,266.47719z" fill="url(#color-2)"/><path d="M261.4016,357.93661v-221.85182c0,0 8.28222,32.28539 18.57984,69.68465c5.84863,21.24123 14.79149,-82.09395 20.79225,-62.5316c8.54167,27.84577 12.40812,99.94784 15.62028,99.94784c6.21674,0 10.60321,-64.40221 18.77573,-88.26543c8.10425,-23.66391 21.2146,68.54716 27.88125,42.15848c8.48174,-33.57341 14.44565,-60.99391 14.44565,-60.99391v221.85182z" fill="url(#color-3)"/></g></g></svg>