<svg version="1.1" xmlns="http://www.w3.org/2000/svg" xmlns:xlink="http://www.w3.org/1999/xlink" width="116.095" height="269.02727" viewBox="0,0,116.095,269.02727"><defs><radialGradient cx="291.58036" cy="255.01572" r="105.50001" gradientUnits="userSpaceOnUse" id="color-1"><stop offset="0" stop-color="#ff0000"/><stop offset="1" stop-color="#460000"/></radialGradient><radialGradient cx="319.707" cy="264.72829" r="98.44336" gradientUnits="userSpaceOnUse" id="color-2"><stop offset="0" stop-color="#00e6ff" stop-opacity="0.26667"/><stop offset="1" stop-color="#000da5" stop-opacity="0.56471"/></radialGradient><radialGradient cx="318.82804" cy="247.19249" r="66.60817" gradientUnits="userSpaceOnUse" id="color-3"><stop offset="0" stop-color="#ff0000" stop-opacity="0.15294"/><stop offset="1" stop-color="#450000" stop-opacity="0.67059"/></radialGradient></defs><g transform="translate(-260.78058,-89.09118)"><g stroke="none" stroke-width="0" stroke-miterlimit="10"><path d="M272.50001,358.11839l-3,-269.02721c0,0 9.7773,79.46078 18.2038,116.86004c4.78591,21.24123 11.10381,-69.34384 16.0142,-49.7815c6.98961,27.84577 13.15351,105.04788 15.782,105.04788c5.08713,0 6.67656,-78.42732 13.36409,-102.29054c6.63167,-23.66391 17.35981,64.72213 22.8151,38.33344c6.94057,-33.57341 10.82081,-105.61928 10.82081,-105.61928l1,266.47719z" fill="url(#color-1)"/><path d="M260.78058,358.11839l1.22205,-183.60151c0,0 7.06017,-5.96492 17.35779,31.43434c5.84863,21.24123 11.12534,-116.51923 17.12609,-96.95688c8.54167,27.84577 16.07428,97.39782 19.28644,97.39782c6.21674,0 10.60321,-64.40221 18.77573,-88.26543c8.10425,-23.66391 21.2146,105.52247 27.88125,79.13378c8.48174,-33.57341 14.44565,-35.4937 14.44565,-35.4937v196.35161z" fill="url(#color-2)"/><path d="M282.46155,358.11842v-221.85182c0,0 5.18878,32.28539 11.64019,69.68465c3.66414,21.24123 9.26681,-82.09395 13.02626,-62.5316c5.35132,27.84577 7.77364,99.94784 9.78604,99.94784c3.89476,0 6.64287,-64.40221 11.76292,-88.26543c5.07728,-23.66391 13.29086,68.54716 17.46749,42.15848c5.31378,-33.57341 9.05014,-60.99391 9.05014,-60.99391v221.85182z" fill="url(#color-3)"/></g></g></svg>