<svg xmlns="http://www.w3.org/2000/svg" width="32" height="32" viewBox="0 0 32 32" shape-rendering="crispEdges">
  <rect width="32" height="32" fill="#091015"/>
  <rect x="1" y="1" width="30" height="30" fill="#182129"/>
  <rect x="2" y="2" width="28" height="28" fill="#202b34"/>
  <rect x="3" y="3" width="26" height="26" fill="#28343e"/>
  <rect x="4" y="4" width="24" height="24" fill="#2f3c46"/>
  <rect x="5" y="5" width="22" height="22" fill="#374650"/>
  <rect x="6" y="6" width="20" height="20" fill="#3e4d57"/>
  <rect x="13" y="4" width="6" height="14" fill="#141d24"/>
  <rect x="14" y="15" width="14" height="2" fill="#4f6579"/>
  <rect x="15" y="4" width="2" height="4" fill="#8ea4b8"/>
  <rect x="15" y="10" width="2" height="4" fill="#8ea4b8"/>
  <rect x="15" y="16" width="4" height="2" fill="#8ea4b8"/>
  <rect x="21" y="16" width="4" height="2" fill="#8ea4b8"/>
  <rect x="13" y="3" width="6" height="1" fill="#748a9f"/>
  <rect x="14" y="13" width="14" height="1" fill="#748a9f"/>
</svg>
