<svg xmlns="http://www.w3.org/2000/svg" width="32" height="32" viewBox="0 0 32 32" shape-rendering="crispEdges">
  <rect width="32" height="32" fill="#160708"/>
  <rect x="1" y="1" width="30" height="30" fill="#ffd0d0"/>
  <rect x="2" y="2" width="28" height="28" fill="#3a1c20"/>
  <rect x="3" y="3" width="26" height="26" fill="#55282d"/>
  <rect x="4" y="4" width="24" height="24" fill="#79353a"/>
  <rect x="5" y="5" width="22" height="22" fill="#985055"/>
  <rect x="6" y="6" width="20" height="20" fill="#8e4a4f"/>
  <rect x="4" y="12" width="24" height="8" fill="#ffe2e2"/>
  <rect x="3" y="11" width="26" height="1" fill="#ffffff"/>
  <rect x="3" y="20" width="26" height="1" fill="#ff6767"/>
  <rect x="4" y="13" width="24" height="6" fill="#ffc2c2"/>
  <rect x="4" y="14" width="24" height="4" fill="#ffffff"/>
  <rect x="5" y="13" width="22" height="1" fill="#fff0f0"/>
  <rect x="5" y="18" width="22" height="1" fill="#ff7d7d"/>
  <rect x="8" y="12" width="2" height="8" fill="#ffffff"/>
  <rect x="14" y="12" width="2" height="8" fill="#ffffff"/>
  <rect x="20" y="12" width="2" height="8" fill="#ffffff"/>
</svg>
