<svg xmlns="http://www.w3.org/2000/svg" width="32" height="32" viewBox="0 0 32 32" shape-rendering="crispEdges">
  <rect width="32" height="32" fill="#120a0b"/>
  <rect x="1" y="1" width="30" height="30" fill="#22191b"/>
  <rect x="2" y="2" width="28" height="28" fill="#2c2225"/>
  <rect x="3" y="3" width="26" height="26" fill="#362a2e"/>
  <rect x="4" y="4" width="24" height="24" fill="#403236"/>
  <rect x="5" y="5" width="22" height="22" fill="#4b3b40"/>
  <rect x="6" y="6" width="20" height="20" fill="#554449"/>
  <rect x="4" y="13" width="24" height="6" fill="#1e1518"/>
  <rect x="4" y="15" width="4" height="2" fill="#7c6168"/>
  <rect x="10" y="15" width="4" height="2" fill="#7c6168"/>
  <rect x="16" y="15" width="4" height="2" fill="#7c6168"/>
  <rect x="22" y="15" width="4" height="2" fill="#7c6168"/>
  <rect x="3" y="12" width="26" height="1" fill="#b28c94"/>
  <rect x="3" y="19" width="26" height="1" fill="#110c0d"/>
  <rect x="6" y="14" width="2" height="4" fill="#d2b4bb"/>
  <rect x="18" y="14" width="2" height="4" fill="#d2b4bb"/>
</svg>
