<svg xmlns="http://www.w3.org/2000/svg" width="32" height="32" viewBox="0 0 32 32" shape-rendering="crispEdges">
  <rect width="32" height="32" fill="#0a0f14"/>
  <rect x="1" y="1" width="30" height="30" fill="#1a232d"/>
  <rect x="2" y="2" width="28" height="28" fill="#23303b"/>
  <rect x="3" y="3" width="26" height="26" fill="#2d3c47"/>
  <rect x="4" y="4" width="24" height="24" fill="#324451"/>
  <rect x="5" y="5" width="22" height="22" fill="#3b4f5c"/>
  <rect x="6" y="6" width="20" height="20" fill="#435865"/>
  <rect x="13" y="4" width="6" height="14" fill="#2a1315"/>
  <rect x="14" y="4" width="4" height="14" fill="#1c0d0f"/>
  <rect x="13" y="3" width="6" height="1" fill="#c2a09f"/>
  <rect x="19" y="4" width="1" height="14" fill="#12090a"/>
  <rect x="15" y="4" width="2" height="14" fill="#ff5a5a"/>
  <rect x="14" y="5" width="1" height="12" fill="#ff8f8f"/>
  <rect x="17" y="5" width="1" height="12" fill="#a82929"/>
  <rect x="14" y="13" width="14" height="6" fill="#2a1315"/>
  <rect x="14" y="14" width="14" height="4" fill="#1c0d0f"/>
  <rect x="14" y="13" width="14" height="1" fill="#c2a09f"/>
  <rect x="14" y="19" width="14" height="1" fill="#12090a"/>
  <rect x="14" y="15" width="14" height="2" fill="#ff5a5a"/>
  <rect x="15" y="14" width="12" height="1" fill="#ff8f8f"/>
  <rect x="15" y="17" width="12" height="1" fill="#a82929"/>
  <rect x="13" y="13" width="6" height="6" fill="#1c0d0f"/>
  <rect x="15" y="13" width="2" height="6" fill="#ff5a5a"/>
  <rect x="13" y="15" width="6" height="2" fill="#ff5a5a"/>
  <rect x="5" y="5" width="2" height="2" fill="#7a909d"/>
  <rect x="25" y="5" width="2" height="2" fill="#7a909d"/>
  <rect x="5" y="25" width="2" height="2" fill="#7a909d"/>
  <rect x="25" y="25" width="2" height="2" fill="#7a909d"/>
</svg>
