<svg version="1.1" xmlns="http://www.w3.org/2000/svg" xmlns:xlink="http://www.w3.org/1999/xlink" width="46.56309" height="26.78273" viewBox="0,0,46.56309,26.78273"><defs><linearGradient x1="222.25" y1="159.125" x2="222.25" y2="170" gradientUnits="userSpaceOnUse" id="color-1"><stop offset="0" stop-color="#d20000" stop-opacity="0.9098"/><stop offset="1" stop-color="#620000"/></linearGradient><linearGradient x1="241.875" y1="156.75" x2="241.875" y2="161.25" gradientUnits="userSpaceOnUse" id="color-2"><stop offset="0" stop-color="#d20000" stop-opacity="0.9098"/><stop offset="1" stop-color="#620000"/></linearGradient><linearGradient x1="230.17251" y1="160.60597" x2="230.17251" y2="183.53273" gradientUnits="userSpaceOnUse" id="color-3"><stop offset="0" stop-color="#d20000" stop-opacity="0.9098"/><stop offset="1" stop-color="#620000"/></linearGradient></defs><g transform="translate(-206.89097,-156.75)"><g stroke="none" stroke-width="0" stroke-miterlimit="10"><path d="M222.25,159.125c4.00406,0 7.25,2.43445 7.25,5.4375c0,3.00305 -3.24594,5.4375 -7.25,5.4375c-4.00406,0 -7.25,-2.43445 -7.25,-5.4375c0,-3.00305 3.24594,-5.4375 7.25,-5.4375z" fill="url(#color-1)"/><path d="M241.875,156.75c1.72589,0 3.125,1.00736 3.125,2.25c0,1.24264 -1.39911,2.25 -3.125,2.25c-1.72589,0 -3.125,-1.00736 -3.125,-2.25c0,-1.24264 1.39911,-2.25 3.125,-2.25z" fill="url(#color-2)"/><path d="M207.15601,163.63317c1.40252,-3.0634 7.81457,-6.9075 12.32295,5.89983c0.69759,1.9817 7.83674,-5.05624 9.94516,-4.09094c3.46619,1.58693 0.31313,6.66046 2.84682,8.52956c0.39742,0.29318 19.31786,4.06831 19.75488,4.3276c5.25327,3.11678 -5.5954,0.44462 -6.68183,2.8176c-1.75302,3.82896 -11.72279,3.01909 -22.26811,-1.80889c-10.54532,-4.82798 -17.67289,-11.84581 -15.91987,-15.67476z" fill="url(#color-3)"/></g></g></svg>