<svg version="1.1" xmlns="http://www.w3.org/2000/svg" xmlns:xlink="http://www.w3.org/1999/xlink" width="72.17258" height="53.50857" viewBox="0,0,72.17258,53.50857"><defs><linearGradient x1="200.49999" y1="128.375" x2="200.49999" y2="139.25" gradientUnits="userSpaceOnUse" id="color-1"><stop offset="0" stop-color="#d20000" stop-opacity="0.9098"/><stop offset="1" stop-color="#620000"/></linearGradient><linearGradient x1="241.62499" y1="137.25" x2="241.62499" y2="141.75" gradientUnits="userSpaceOnUse" id="color-2"><stop offset="0" stop-color="#d20000" stop-opacity="0.9098"/><stop offset="1" stop-color="#620000"/></linearGradient><linearGradient x1="212.20005" y1="141.40579" x2="212.20005" y2="181.88357" gradientUnits="userSpaceOnUse" id="color-3"><stop offset="0" stop-color="#d20000" stop-opacity="0.9098"/><stop offset="1" stop-color="#620000"/></linearGradient><linearGradient x1="231.24999" y1="145.75" x2="231.24999" y2="149.75" gradientUnits="userSpaceOnUse" id="color-4"><stop offset="0" stop-color="#d20000" stop-opacity="0.9098"/><stop offset="1" stop-color="#620000"/></linearGradient><linearGradient x1="240.25" y1="152.75" x2="240.25" y2="156.75" gradientUnits="userSpaceOnUse" id="color-5"><stop offset="0" stop-color="#d20000" stop-opacity="0.9098"/><stop offset="1" stop-color="#620000"/></linearGradient><linearGradient x1="183.375" y1="135.81574" x2="183.375" y2="140.93427" gradientUnits="userSpaceOnUse" id="color-6"><stop offset="0" stop-color="#d20000" stop-opacity="0.9098"/><stop offset="1" stop-color="#620000"/></linearGradient></defs><g transform="translate(-176.11376,-128.375)"><g stroke="none" stroke-width="0" stroke-miterlimit="10"><path d="M200.49999,128.375c4.00406,0 7.25,2.43445 7.25,5.4375c0,3.00305 -3.24594,5.4375 -7.25,5.4375c-4.00406,0 -7.25,-2.43445 -7.25,-5.4375c0,-3.00305 3.24594,-5.4375 7.25,-5.4375z" fill="url(#color-1)"/><path d="M241.62499,137.25c1.72589,0 3.125,1.00736 3.125,2.25c0,1.24264 -1.39911,2.25 -3.125,2.25c-1.72589,0 -3.125,-1.00736 -3.125,-2.25c0,-1.24264 1.39911,-2.25 3.125,-2.25z" fill="url(#color-2)"/><path d="M190.81998,159.81302c-10.56515,-5.58822 -3.58566,-10.02852 -1.91396,-13.67985c1.17333,-2.5628 -17.89508,-9.16676 -11.46348,-0.09244c0.51638,0.72857 24.49732,10.72763 24.93438,11.49444c0.62627,1.09877 16.66814,10.76518 17.10205,11.99783c0.42524,1.20801 -14.10848,-16.88794 -16.06452,-22.58935c-1.25277,-3.65151 -1.56348,-4.87846 -0.74032,-4.50159c0.41673,0.19079 6.21544,9.13435 6.86278,9.77038c4.73695,4.65419 20.50497,20.1148 22.73404,21.75918c0.20568,0.15173 4.82347,2.04862 10.01573,2.19099c2.40024,0.06582 -1.4295,-8.57001 -3.10244,-11.48114c-1.70079,-2.95959 -12.26471,-8.69532 -12.15841,-8.63225c1.39157,0.82563 10.80985,2.52172 13.18071,5.61705c1.69486,2.21276 7.73222,14.49627 7.67163,15.26502c-0.17461,2.21545 0.80873,-13.10949 0.21583,-11.81447c-0.60548,1.32248 -14.35574,-0.70035 -16.0885,3.82666c-0.87418,2.28386 11.93344,12.94412 9.49428,12.94009c-3.38166,-0.00559 -9.78811,-2.54238 -12.60308,-3.17073c-2.78242,-0.62109 -27.30275,-16.75206 -29.82081,-17.90491c-0.48918,-0.22396 -7.74198,-0.72307 -8.25591,-0.99491z" fill="url(#color-3)"/><path d="M231.24999,145.75c1.10457,0 2,0.89543 2,2c0,1.10457 -0.89543,2 -2,2c-1.10457,0 -2,-0.89543 -2,-2c0,-1.10457 0.89543,-2 2,-2z" fill="url(#color-4)"/><path d="M240.25,152.75c1.38071,0 2.5,0.89543 2.5,2c0,1.10457 -1.11929,2 -2.5,2c-1.38071,0 -2.5,-0.89543 -2.5,-2c0,-1.10457 1.11929,-2 2.5,-2z" fill="url(#color-5)"/><path d="M180.20618,136.61455c0.56995,-1.02591 2.45072,-1.0694 4.20081,-0.09713c1.75009,0.97227 2.70678,2.59213 2.13683,3.61804c-0.56995,1.02591 -2.45072,1.0694 -4.20081,0.09713c-1.75009,-0.97227 -2.70678,-2.59213 -2.13683,-3.61804z" fill="url(#color-6)"/></g></g></svg>