<svg version="1.1" xmlns="http://www.w3.org/2000/svg" xmlns:xlink="http://www.w3.org/1999/xlink" width="65.18534" height="41.2586" viewBox="0,0,65.18534,41.2586"><defs><linearGradient x1="211.25" y1="140.625" x2="211.25" y2="151.5" gradientUnits="userSpaceOnUse" id="color-1"><stop offset="0" stop-color="#d20000" stop-opacity="0.9098"/><stop offset="1" stop-color="#620000"/></linearGradient><linearGradient x1="239.125" y1="144.5" x2="239.125" y2="149" gradientUnits="userSpaceOnUse" id="color-2"><stop offset="0" stop-color="#d20000" stop-opacity="0.9098"/><stop offset="1" stop-color="#620000"/></linearGradient><linearGradient x1="221.28832" y1="144.40194" x2="221.28832" y2="181.8836" gradientUnits="userSpaceOnUse" id="color-3"><stop offset="0" stop-color="#d20000" stop-opacity="0.9098"/><stop offset="1" stop-color="#620000"/></linearGradient><linearGradient x1="238.75" y1="157.25" x2="238.75" y2="161.25" gradientUnits="userSpaceOnUse" id="color-4"><stop offset="0" stop-color="#d20000" stop-opacity="0.9098"/><stop offset="1" stop-color="#620000"/></linearGradient></defs><g transform="translate(-188.69565,-140.625)"><g stroke="none" stroke-width="0" stroke-miterlimit="10"><path d="M211.25,140.625c4.00406,0 7.25,2.43445 7.25,5.4375c0,3.00305 -3.24594,5.4375 -7.25,5.4375c-4.00406,0 -7.25,-2.43445 -7.25,-5.4375c0,-3.00305 3.24594,-5.4375 7.25,-5.4375z" fill="url(#color-1)"/><path d="M239.125,144.5c1.72589,0 3.125,1.00736 3.125,2.25c0,1.24264 -1.39911,2.25 -3.125,2.25c-1.72589,0 -3.125,-1.00736 -3.125,-2.25c0,-1.24264 1.39911,-2.25 3.125,-2.25z" fill="url(#color-2)"/><path d="M206.31998,168.56302c-10.56515,-5.58822 -19.08566,-18.77852 -17.41396,-22.42985c1.17333,-2.5628 3.60492,-3.41676 10.03652,5.65756c0.51638,0.72857 2.99732,4.97763 3.43438,5.74444c0.62627,1.09877 16.66814,10.76518 17.10205,11.99783c0.69759,1.9817 -7.91326,-19.05624 -5.80484,-18.09094c3.46619,1.58693 16.06313,20.66046 18.59682,22.52956c0.20568,0.15173 4.82347,2.04862 10.01573,2.19099c2.40024,0.06582 5.0705,-4.07001 3.39756,-6.98114c-1.70079,-2.95959 -7.76471,-4.69532 -7.65841,-4.63225c1.39157,0.82563 8.30985,0.02172 10.68071,3.11705c1.69486,2.21276 -0.76778,8.49627 -0.82837,9.26502c-0.17461,2.21545 6.55873,-1.85949 5.96583,-0.56447c-0.91094,1.98967 -5.07021,5.52877 -12.34422,5.51675c-3.38166,-0.00559 -9.78811,-2.54238 -12.60308,-3.17073c-2.78242,-0.62109 -3.55275,-1.75206 -6.07081,-2.90491c-0.48918,-0.22396 -15.99198,-6.97307 -16.50591,-7.24491z" fill="url(#color-3)"/><path d="M238.75,157.25c1.10457,0 2,0.89543 2,2c0,1.10457 -0.89543,2 -2,2c-1.10457,0 -2,-0.89543 -2,-2c0,-1.10457 0.89543,-2 2,-2z" fill="url(#color-4)"/></g></g></svg>