<svg version="1.1" xmlns="http://www.w3.org/2000/svg" xmlns:xlink="http://www.w3.org/1999/xlink" width="79.7206" height="50.3031" viewBox="0,0,79.7206,50.3031"><defs><linearGradient x1="189.38838" y1="111.58336" x2="189.38838" y2="114.70836" gradientUnits="userSpaceOnUse" id="color-1"><stop offset="0" stop-color="#d20000" stop-opacity="0.9098"/><stop offset="1" stop-color="#620000"/></linearGradient><linearGradient x1="189.46897" y1="132.89316" x2="189.46897" y2="160.84045" gradientUnits="userSpaceOnUse" id="color-2"><stop offset="0" stop-color="#d20000" stop-opacity="0.9098"/><stop offset="1" stop-color="#620000"/></linearGradient><linearGradient x1="220.46613" y1="152.13646" x2="220.46613" y2="153.88646" gradientUnits="userSpaceOnUse" id="color-3"><stop offset="0" stop-color="#d20000" stop-opacity="0.9098"/><stop offset="1" stop-color="#620000"/></linearGradient><linearGradient x1="221.15363" y1="160.76146" x2="221.15363" y2="161.88646" gradientUnits="userSpaceOnUse" id="color-4"><stop offset="0" stop-color="#d20000" stop-opacity="0.9098"/><stop offset="1" stop-color="#620000"/></linearGradient></defs><g transform="translate(-168.02935,-111.58336)"><g stroke="none" stroke-width="0" stroke-miterlimit="10"><path d="M189.0833,111.58336c1.15059,0 1.33333,0.44955 1.33333,1.3125c0,0.86294 -0.18274,1.8125 -1.33333,1.8125c-1.15059,0 -0.58333,-0.69956 -0.58333,-1.5625c0,-0.86295 -0.56726,-1.5625 0.58333,-1.5625z" fill="url(#color-1)"/><path d="M247.74996,127.94004c0,0.44735 0,-0.44735 0,0z" fill-opacity="0.9098" fill="#d20000"/><path d="M199.07589,160.80794c1.72996,0.79203 -3.28839,-13.19297 3.79684,-8.8867c3.22775,1.96177 -6.01353,2.43055 -5.1427,2.62494c2.81497,0.62835 9.05475,0.99847 12.43641,1.00406c4.14913,0.00691 -10.51915,-0.98179 -9.03594,-4.85677c1.73276,-4.52701 1.06635,2.95415 1.67183,1.63167c0.4952,-1.08162 -0.72949,-0.14542 -2.8712,-1.81236c-0.36026,-0.2804 0.86168,0.55615 0.64192,0.156c-2.30883,-4.20402 -3.7613,-1.73664 -5.24153,-3.66918c-2.14005,-2.79399 4.05748,-0.78622 5.81104,2.2652c1.67294,2.91113 6.21101,1.33863 3.81077,1.27281c-5.17303,-0.14184 -7.22507,-3.03164 -10.91643,-6.65851c-0.64734,-0.63603 -0.11272,-6.07959 -0.52945,-6.27038c-0.82316,-0.37687 4.82088,4.35008 6.07365,8.00159c0.09762,0.28454 1.55989,1.93327 1.71674,2.27561c2.98602,6.51726 -9.08154,-2.2052 -9.48556,-3.35292c-0.24477,-0.69533 13.37728,18.09234 8.76814,15.08141c-3.56171,-2.3267 2.06948,-1.60028 1.79648,-2.07924c-0.43706,-0.76681 -32.918,-22.76587 -33.43438,-23.49444c-3.40694,-4.80684 3.40519,6.90809 9.13744,9.02456c5.08904,1.87899 4.0445,-4.97069 3.49271,-3.76545c-1.37968,3.01351 -2.83622,4.90511 3.85914,6.57756c1.4171,0.35398 6.5426,-4.87387 8.38815,-3.89771c0.51393,0.27184 4.76673,18.60428 5.25591,18.82824z" fill="url(#color-2)"/><path d="" fill-opacity="0.9098" fill="#d20000"/><path d="" fill-opacity="0.9098" fill="#d20000"/><path d="M220.46613,152.13646c0.82843,0 1.5,0.39175 1.5,0.875c0,0.48325 -0.67157,0.875 -1.5,0.875c-0.82843,0 -1.5,-0.39175 -1.5,-0.875c0,-0.48325 0.67157,-0.875 1.5,-0.875z" fill="url(#color-3)"/><path d="M221.15363,160.76146c0.51777,0 0.9375,0.25184 0.9375,0.5625c0,0.31066 -0.41973,0.5625 -0.9375,0.5625c-0.51777,0 -0.9375,-0.25184 -0.9375,-0.5625c0,-0.31066 0.41973,-0.5625 0.9375,-0.5625z" fill="url(#color-4)"/></g></g></svg>