<svg version="1.1" xmlns="http://www.w3.org/2000/svg" xmlns:xlink="http://www.w3.org/1999/xlink" width="79.72062" height="49.70458" viewBox="0,0,79.72062,49.70458"><defs><linearGradient x1="190.83331" y1="120.45833" x2="190.83331" y2="123.58333" gradientUnits="userSpaceOnUse" id="color-1"><stop offset="0" stop-color="#d20000" stop-opacity="0.9098"/><stop offset="1" stop-color="#620000"/></linearGradient><linearGradient x1="246.62498" y1="127.13001" x2="246.62498" y2="128.75001" gradientUnits="userSpaceOnUse" id="color-2"><stop offset="0" stop-color="#d20000" stop-opacity="0.9098"/><stop offset="1" stop-color="#620000"/></linearGradient><linearGradient x1="203.53709" y1="132.89315" x2="203.53709" y2="170.16291" gradientUnits="userSpaceOnUse" id="color-3"><stop offset="0" stop-color="#d20000" stop-opacity="0.9098"/><stop offset="1" stop-color="#620000"/></linearGradient><linearGradient x1="245.26041" y1="145.68334" x2="245.26041" y2="147" gradientUnits="userSpaceOnUse" id="color-4"><stop offset="0" stop-color="#d20000" stop-opacity="0.9098"/><stop offset="1" stop-color="#620000"/></linearGradient></defs><g transform="translate(-168.02935,-120.45833)"><g stroke="none" stroke-width="0" stroke-miterlimit="10"><path d="M190.83331,120.45833c1.15059,0 2.08333,0.69955 2.08333,1.5625c0,0.86294 -0.93274,1.5625 -2.08333,1.5625c-1.15059,0 -2.08333,-0.69956 -2.08333,-1.5625c0,-0.86295 0.93274,-1.5625 2.08333,-1.5625z" fill="url(#color-1)"/><path d="M246.62498,127.13001c0.62132,0 1.125,0.36265 1.125,0.81c0,0.44735 -0.50368,0.81 -1.125,0.81c-0.62132,0 -1.125,-0.36265 -1.125,-0.81c0,-0.44735 0.50368,-0.81 1.125,-0.81z" fill="url(#color-2)"/><path d="M199.07587,160.80792c-0.48918,-0.22396 -4.74198,-18.5564 -5.25591,-18.82824c-1.84555,-0.97616 -6.97105,4.25169 -8.38815,3.89771c-6.69536,-1.67245 -5.23882,-3.56405 -3.85914,-6.57756c0.55179,-1.20524 1.59633,5.64444 -3.49271,3.76545c-5.73225,-2.11647 -12.54438,-13.8314 -9.13744,-9.02456c0.51638,0.72857 32.99732,22.72763 33.43438,23.49444c0.273,0.47896 -5.35819,-0.24746 -1.79648,2.07924c4.60914,3.01093 -9.01291,-15.77674 -8.76814,-15.08141c0.40402,1.14772 12.47158,9.87018 9.48556,3.35292c-0.15685,-0.34234 -1.61912,-1.99107 -1.71674,-2.27561c-1.25277,-3.65151 -6.89681,-8.37846 -6.07365,-8.00159c0.41673,0.19079 -0.11789,5.63435 0.52945,6.27038c4.73695,4.65419 34.17164,15.44814 36.40071,17.09252c0.20568,0.15173 -1.17654,9.04862 4.01572,9.19099c2.40024,0.06582 -2.76283,-10.23668 -4.43577,-13.14781c-1.70079,-2.95959 -12.43138,-5.19532 -12.32508,-5.13225c1.39157,0.82563 14.14318,0.02172 16.51404,3.11705c1.48023,1.93254 -5.3173,-2.53484 -3.00847,1.66918c0.33477,0.60957 7.85445,3.33182 7.84677,3.42917c-0.02877,0.36507 -7.28624,-1.28905 -6.86369,-0.96017c2.14171,1.66694 -2.7586,-5.26926 -3.2538,-4.18764c-0.60548,1.32248 4.81093,9.46632 3.07817,13.99333c-0.68473,1.7889 -7.64201,-12.28308 -5.44042,-9.36612c0.60915,0.80708 -15.87002,-4.02623 -16.39864,-4.02711c-3.38166,-0.00559 -9.62144,-0.37571 -12.43641,-1.00406c-0.87083,-0.19439 8.37045,-0.66317 5.1427,-2.62494c-7.08523,-4.30627 -2.06688,9.67873 -3.79684,8.8867z" fill="url(#color-3)"/><path d="M245.26041,145.68334c0.45449,0 0.82292,0.29474 0.82292,0.65833c0,0.36358 -0.36844,0.65833 -0.82292,0.65833c-0.45449,0 -0.82292,-0.29474 -0.82292,-0.65833c0,-0.36358 0.36844,-0.65833 0.82292,-0.65833z" fill="url(#color-4)"/><path d="" fill-opacity="0.9098" fill="#d20000"/></g></g></svg>