<svg version="1.1" xmlns="http://www.w3.org/2000/svg" xmlns:xlink="http://www.w3.org/1999/xlink" width="78.02599" height="50.63305" viewBox="0,0,78.02599,50.63305"><defs><linearGradient x1="193.99998" y1="125.625" x2="193.99998" y2="132.75" gradientUnits="userSpaceOnUse" id="color-1"><stop offset="0" stop-color="#d20000" stop-opacity="0.9098"/><stop offset="1" stop-color="#620000"/></linearGradient><linearGradient x1="244.87498" y1="130.38334" x2="244.87498" y2="133.08334" gradientUnits="userSpaceOnUse" id="color-2"><stop offset="0" stop-color="#d20000" stop-opacity="0.9098"/><stop offset="1" stop-color="#620000"/></linearGradient><linearGradient x1="209.10683" y1="137.58753" x2="209.10683" y2="176.25805" gradientUnits="userSpaceOnUse" id="color-3"><stop offset="0" stop-color="#d20000" stop-opacity="0.9098"/><stop offset="1" stop-color="#620000"/></linearGradient><linearGradient x1="226.08332" y1="141.54167" x2="226.08332" y2="143.375" gradientUnits="userSpaceOnUse" id="color-4"><stop offset="0" stop-color="#d20000" stop-opacity="0.9098"/><stop offset="1" stop-color="#620000"/></linearGradient><linearGradient x1="241.84374" y1="148.25" x2="241.84374" y2="150.5" gradientUnits="userSpaceOnUse" id="color-5"><stop offset="0" stop-color="#d20000" stop-opacity="0.9098"/><stop offset="1" stop-color="#620000"/></linearGradient><linearGradient x1="175.8519" y1="131.56574" x2="175.8519" y2="135.18427" gradientUnits="userSpaceOnUse" id="color-6"><stop offset="0" stop-color="#d20000" stop-opacity="0.9098"/><stop offset="1" stop-color="#620000"/></linearGradient></defs><g transform="translate(-170.09384,-125.625)"><g stroke="none" stroke-width="0" stroke-miterlimit="10"><path d="M193.99998,125.625c2.62335,0 4.75,1.59498 4.75,3.5625c0,1.96751 -2.12665,3.5625 -4.75,3.5625c-2.62335,0 -4.75,-1.59499 -4.75,-3.5625c0,-1.96752 2.12665,-3.5625 4.75,-3.5625z" fill="url(#color-1)"/><path d="M244.87498,130.38334c1.03554,0 1.875,0.60441 1.875,1.35c0,0.74559 -0.83946,1.35 -1.875,1.35c-1.03554,0 -1.875,-0.60441 -1.875,-1.35c0,-0.74558 0.83946,-1.35 1.875,-1.35z" fill="url(#color-2)"/><path d="M199.07588,160.80793c-0.48918,-0.22396 -4.74198,-18.5564 -5.25591,-18.82824c-10.56515,-5.58822 -6.58566,7.80481 -4.91396,4.15348c0.55179,-1.20524 -5.737,-1.18889 -10.82604,-3.06788c-5.73225,-2.11647 -10.21105,-5.8314 -6.80411,-1.02456c0.51638,0.72857 30.66399,14.72763 31.10105,15.49444c0.62627,1.09877 16.66814,10.76518 17.10205,11.99783c0.40402,1.14772 -15.19509,-15.12982 -18.18111,-21.64708c-0.15685,-0.34234 -1.61912,-1.99107 -1.71674,-2.27561c-1.25277,-3.65151 -6.89681,-8.37846 -6.07365,-8.00159c0.41673,0.19079 10.21544,10.80102 10.86278,11.43705c4.73695,4.65419 25.67164,23.28147 27.90071,24.92585c0.20568,0.15173 -3.00987,-3.95138 2.18239,-3.80901c2.40024,0.06582 -2.76283,-10.23668 -4.43577,-13.14781c-1.70079,-2.95959 -12.43138,-5.19532 -12.32508,-5.13225c1.39157,0.82563 14.14318,0.02172 16.51404,3.11705c1.48023,1.93254 5.34937,10.46516 7.6582,14.66918c0.33477,0.60957 -2.81222,-9.66818 -2.8199,-9.57083c-0.17461,2.21545 9.64207,3.72384 9.04917,5.01886c-0.60548,1.32248 -14.35574,-0.70035 -16.0885,3.82666c-0.68473,1.7889 -8.14201,-2.44975 -5.94042,0.46721c0.60915,0.80708 0.79665,1.3071 0.26803,1.30622c-3.38166,-0.00559 1.21189,6.12429 -1.60308,5.49594c-0.87083,-0.19439 -18.62955,-22.32984 -21.8573,-24.29161c-7.08523,-4.30627 -2.06688,9.67873 -3.79684,8.8867z" fill="url(#color-3)"/><path d="M226.08332,141.54167c0.50626,0 0.91667,0.41041 0.91667,0.91667c0,0.50626 -0.41041,0.91666 -0.91667,0.91666c-0.50626,0 -0.91667,-0.4104 -0.91667,-0.91666c0,-0.50626 0.41041,-0.91667 0.91667,-0.91667z" fill="url(#color-4)"/><path d="M241.84374,148.25c0.77665,0 1.40625,0.50368 1.40625,1.125c0,0.62132 -0.6296,1.125 -1.40625,1.125c-0.77665,0 -1.40625,-0.50368 -1.40625,-1.125c0,-0.62132 0.6296,-1.125 1.40625,-1.125z" fill="url(#color-5)"/><path d="M175.12233,134.68822c-1.23722,-0.68734 -1.91355,-1.83249 -1.51063,-2.55776c0.40293,-0.72527 1.73254,-0.75601 2.96976,-0.06867c1.23722,0.68734 1.91355,1.83249 1.51063,2.55776c-0.40293,0.72527 -1.73253,0.75601 -2.96975,0.06867z" fill="url(#color-6)"/></g></g></svg>