<svg version="1.1" xmlns="http://www.w3.org/2000/svg" xmlns:xlink="http://www.w3.org/1999/xlink" width="53.17651" height="31.42462" viewBox="0,0,53.17651,31.42462"><defs><linearGradient x1="219.25" y1="150.875" x2="219.25" y2="161.75" gradientUnits="userSpaceOnUse" id="color-1"><stop offset="0" stop-color="#d20000" stop-opacity="0.9098"/><stop offset="1" stop-color="#620000"/></linearGradient><linearGradient x1="239.125" y1="150.25" x2="239.125" y2="154.75" gradientUnits="userSpaceOnUse" id="color-2"><stop offset="0" stop-color="#d20000" stop-opacity="0.9098"/><stop offset="1" stop-color="#620000"/></linearGradient><linearGradient x1="223.82844" y1="152.30047" x2="223.82844" y2="181.67462" gradientUnits="userSpaceOnUse" id="color-3"><stop offset="0" stop-color="#d20000" stop-opacity="0.9098"/><stop offset="1" stop-color="#620000"/></linearGradient><linearGradient x1="243" y1="164.25" x2="243" y2="168.25" gradientUnits="userSpaceOnUse" id="color-4"><stop offset="0" stop-color="#d20000" stop-opacity="0.9098"/><stop offset="1" stop-color="#620000"/></linearGradient></defs><g transform="translate(-197.24018,-150.25)"><g stroke="none" stroke-width="0" stroke-miterlimit="10"><path d="M219.25,150.875c4.00406,0 7.25,2.43445 7.25,5.4375c0,3.00305 -3.24594,5.4375 -7.25,5.4375c-4.00406,0 -7.25,-2.43445 -7.25,-5.4375c0,-3.00305 3.24594,-5.4375 7.25,-5.4375z" fill="url(#color-1)"/><path d="M239.125,150.25c1.72589,0 3.125,1.00736 3.125,2.25c0,1.24264 -1.39911,2.25 -3.125,2.25c-1.72589,0 -3.125,-1.00736 -3.125,-2.25c0,-1.24264 1.39911,-2.25 3.125,-2.25z" fill="url(#color-2)"/><path d="M217.56997,172.81302c-10.56515,-5.58822 -21.83566,-15.02852 -20.16396,-18.67985c1.26753,-2.76856 6.59022,-3.66545 12.4709,6.652c0.62627,1.09877 9.16814,7.51518 9.60205,8.74783c0.69759,1.9817 1.33674,-10.05624 3.44516,-9.09094c3.46619,1.58693 6.81313,11.66046 9.34682,13.52956c0.20568,0.15173 4.82347,2.04862 10.01573,2.19099c4.84043,0.13273 7.0283,-6.73849 7.23915,-6.61339c2.38637,1.41584 -1.50232,5.53795 -1.64766,7.38207c-0.17461,2.21545 3.05873,2.14051 2.46583,3.43553c-1.33443,2.91467 -12.57729,0.32595 -21.4473,-1.65398c-2.78242,-0.62109 -3.55275,-1.75206 -6.07081,-2.90491c-0.48918,-0.22396 -4.74198,-2.72307 -5.25591,-2.99491z" fill="url(#color-3)"/><path d="M243,164.25c1.10457,0 2,0.89543 2,2c0,1.10457 -0.89543,2 -2,2c-1.10457,0 -2,-0.89543 -2,-2c0,-1.10457 0.89543,-2 2,-2z" fill="url(#color-4)"/></g></g></svg>