<svg version="1.1" xmlns="http://www.w3.org/2000/svg" xmlns:xlink="http://www.w3.org/1999/xlink" width="76.38728" height="36.81123" viewBox="0,0,76.38728,36.81123"><defs><linearGradient x1="182.65964" y1="114.07524" x2="182.65964" y2="116.36208" gradientUnits="userSpaceOnUse" id="color-1"><stop offset="0" stop-color="#d20000" stop-opacity="0.9098"/><stop offset="1" stop-color="#620000"/></linearGradient><linearGradient x1="180.27549" y1="130.50284" x2="180.27549" y2="142.121" gradientUnits="userSpaceOnUse" id="color-2"><stop offset="0" stop-color="#d20000" stop-opacity="0.9098"/><stop offset="1" stop-color="#620000"/></linearGradient><linearGradient x1="205.40196" y1="143.75154" x2="205.40196" y2="145.03216" gradientUnits="userSpaceOnUse" id="color-3"><stop offset="0" stop-color="#d20000" stop-opacity="0.9098"/><stop offset="1" stop-color="#620000"/></linearGradient><linearGradient x1="205.90506" y1="150.06321" x2="205.90506" y2="150.88647" gradientUnits="userSpaceOnUse" id="color-4"><stop offset="0" stop-color="#d20000" stop-opacity="0.9098"/><stop offset="1" stop-color="#620000"/></linearGradient></defs><g transform="translate(-171.36268,-114.07524)"><g stroke="none" stroke-width="0" stroke-miterlimit="10"><path d="M247.74995,127.94004c0,0.44735 0,-0.44735 0,0z" fill-opacity="0.9098" fill="#d20000"/><path d="" fill-opacity="0.9098" fill="#d20000"/><path d="" fill-opacity="0.9098" fill="#d20000"/><path d="M182.43637,114.07524c0.84199,0 0.97572,0.32897 0.97572,0.96047c0,0.63149 -0.13373,1.32637 -0.97572,1.32637c-0.84198,0 -0.42687,-0.51193 -0.42687,-1.14342c0,-0.6315 -0.41512,-1.14342 0.42687,-1.14342z" fill="url(#color-1)"/><path d="M184.26925,142.10749c0.71917,0.32926 -1.36704,-5.48454 1.57841,-3.69435c1.34183,0.81554 -2.49993,1.01042 -2.13791,1.09123c1.17023,0.26122 3.76422,0.41509 5.17003,0.41741c1.72486,0.00287 -4.373,-0.40814 -3.7564,-2.01904c0.72034,-1.88196 0.4433,1.22809 0.69501,0.67831c0.20586,-0.44965 -0.30326,-0.06045 -1.19361,-0.75343c-0.14976,-0.11657 0.35822,0.2312 0.26686,0.06485c-0.95981,-1.74768 -1.56363,-0.72195 -2.17899,-1.52534c-0.88965,-1.16151 1.68677,-0.32684 2.41575,0.94168c0.69547,1.21021 2.58202,0.55649 1.5842,0.52913c-2.15052,-0.05897 -3.00359,-1.26031 -4.53815,-2.76806c-0.26911,-0.26441 -0.04686,-2.52738 -0.2201,-2.6067c-0.3422,-0.15667 2.00412,1.80841 2.52492,3.3264c0.04059,0.11829 0.64848,0.80369 0.71368,0.94601c1.24134,2.70933 -3.77535,-0.91674 -3.94331,-1.39387c-0.10176,-0.28906 5.56115,7.52129 3.64506,6.2696c-1.48066,-0.96724 0.86032,-0.66526 0.74683,-0.86437c-0.1817,-0.31878 -13.68457,-9.46416 -13.89924,-9.76704c-1.41632,-1.99829 1.4156,2.87181 3.79859,3.75166c2.1156,0.78113 1.68137,-2.0664 1.45198,-1.56536c-0.57356,1.25276 -1.17907,2.03913 1.60431,2.7344c0.58912,0.14716 2.71987,-2.02614 3.4871,-1.62034c0.21365,0.11301 1.98161,7.73412 2.18497,7.82722z" fill="url(#color-2)"/><path d="M205.40196,143.75154c0.60623,0 1.09768,0.28667 1.09768,0.64031c0,0.35363 -0.49144,0.64031 -1.09768,0.64031c-0.60623,0 -1.09768,-0.28667 -1.09768,-0.64031c0,-0.35363 0.49144,-0.64031 1.09768,-0.64031z" fill="url(#color-3)"/><path d="M205.90506,150.06321c0.3789,0 0.68605,0.18429 0.68605,0.41163c0,0.22734 -0.30715,0.41163 -0.68605,0.41163c-0.3789,0 -0.68605,-0.18429 -0.68605,-0.41163c0,-0.22734 0.30715,-0.41163 0.68605,-0.41163z" fill="url(#color-4)"/></g></g></svg>