<svg xmlns="http://www.w3.org/2000/svg" width="32" height="32" viewBox="0 0 32 32" shape-rendering="crispEdges">
  <rect width="32" height="32" fill="#071017"/>
  <rect x="2" y="4" width="28" height="24" rx="3" fill="#0b1016"/>
  <rect x="3" y="5" width="26" height="22" fill="#1b232d"/>
  <rect x="4" y="6" width="24" height="20" fill="#2a3540"/>
  <rect x="5" y="7" width="22" height="18" fill="#32404c"/>
  <rect x="6" y="8" width="20" height="16" fill="#374652"/>
  <rect x="8" y="2" width="16" height="4" fill="#0d1721"/>
  <rect x="10" y="0" width="12" height="4" fill="#60a5fa"/>
  <rect x="9" y="10" width="14" height="10" fill="#0c1117"/>
  <rect x="10" y="11" width="12" height="8" fill="#06090d"/>
  <rect x="11" y="12" width="10" height="6" fill="#3a4a57"/>
  <rect x="12" y="13" width="8" height="4" fill="#7e8c98"/>
  <rect x="9" y="9" width="14" height="1" fill="#7ea8d7"/>
  <rect x="9" y="20" width="14" height="1" fill="#1b2732"/>
  <rect x="7" y="11" width="2" height="10" fill="#6888a4"/>
  <rect x="23" y="11" width="2" height="10" fill="#16202a"/>
  <rect x="13" y="13" width="6" height="1" fill="#b2c3d0"/>
  <rect x="13" y="16" width="6" height="1" fill="#202a31"/>
</svg>
