<svg xmlns="http://www.w3.org/2000/svg" width="32" height="32" viewBox="0 0 32 32" shape-rendering="crispEdges">
  <rect width="32" height="32" fill="#071017"/>
  <rect x="1" y="3" width="30" height="26" fill="#6ff1ff"/>
  <rect x="2" y="4" width="28" height="24" rx="3" fill="#0b1f2b"/>
  <rect x="3" y="5" width="26" height="22" fill="#16334f"/>
  <rect x="4" y="6" width="24" height="20" fill="#1e4d75"/>
  <rect x="5" y="7" width="22" height="18" fill="#21679f"/>
  <rect x="6" y="8" width="20" height="16" fill="#2493d8"/>
  <rect x="8" y="2" width="16" height="4" fill="#dffcff"/>
  <rect x="10" y="0" width="12" height="4" fill="#ffffff"/>
  <rect x="9" y="10" width="14" height="10" fill="#113047"/>
  <rect x="10" y="11" width="12" height="8" fill="#0d2232"/>
  <rect x="12" y="9" width="8" height="12" fill="#ffffff"/>
  <rect x="11" y="12" width="10" height="6" fill="#d8fbff"/>
  <rect x="14" y="7" width="4" height="18" fill="#ffffff"/>
  <rect x="7" y="9" width="2" height="14" fill="#cbf8ff"/>
  <rect x="23" y="9" width="2" height="14" fill="#0f8fc3"/>
  <rect x="5" y="25" width="22" height="1" fill="#ffffff"/>
</svg>
