<svg xmlns="http://www.w3.org/2000/svg" width="32" height="32" viewBox="0 0 32 32" shape-rendering="crispEdges">
  <rect width="32" height="32" fill="#12080a"/>
  <rect x="2" y="4" width="28" height="24" rx="3" fill="#0f0b0c"/>
  <rect x="3" y="5" width="26" height="22" fill="#241d22"/>
  <rect x="4" y="6" width="24" height="20" fill="#342d33"/>
  <rect x="5" y="7" width="22" height="18" fill="#40363d"/>
  <rect x="6" y="8" width="20" height="16" fill="#494047"/>
  <rect x="8" y="2" width="16" height="4" fill="#210d10"/>
  <rect x="10" y="0" width="12" height="4" fill="#f87171"/>
  <rect x="9" y="10" width="14" height="10" fill="#120d10"/>
  <rect x="10" y="11" width="12" height="8" fill="#0a0708"/>
  <rect x="11" y="12" width="10" height="6" fill="#564048"/>
  <rect x="12" y="13" width="8" height="4" fill="#99838a"/>
  <rect x="9" y="9" width="14" height="1" fill="#e09b9b"/>
  <rect x="9" y="20" width="14" height="1" fill="#311d23"/>
  <rect x="7" y="11" width="2" height="10" fill="#a37b86"/>
  <rect x="23" y="11" width="2" height="10" fill="#28171c"/>
  <rect x="13" y="13" width="6" height="1" fill="#d5c0c6"/>
  <rect x="13" y="16" width="6" height="1" fill="#33242a"/>
</svg>
