<svg xmlns="http://www.w3.org/2000/svg" width="32" height="32" viewBox="0 0 32 32" shape-rendering="crispEdges">
  <rect width="32" height="32" fill="#12080a"/>
  <rect x="2" y="4" width="28" height="24" rx="3" fill="#0f0b0c"/>
  <rect x="3" y="5" width="26" height="22" fill="#1d171a"/>
  <rect x="4" y="6" width="24" height="20" fill="#2f272b"/>
  <rect x="5" y="7" width="22" height="18" fill="#3a3035"/>
  <rect x="6" y="8" width="20" height="16" fill="#463d42"/>
  <rect x="8" y="2" width="16" height="4" fill="#7e4e58"/>
  <rect x="10" y="0" width="12" height="4" fill="#a46270"/>
  <rect x="9" y="10" width="14" height="10" fill="#100d0f"/>
  <rect x="10" y="11" width="12" height="8" fill="#090708"/>
  <rect x="11" y="12" width="10" height="6" fill="#403539"/>
  <rect x="12" y="13" width="8" height="4" fill="#7e7074"/>
  <rect x="11" y="11" width="10" height="1" fill="#d4b2b9"/>
  <rect x="11" y="18" width="10" height="1" fill="#181214"/>
  <rect x="13" y="12" width="1" height="6" fill="#d9c0c6"/>
  <rect x="18" y="12" width="1" height="6" fill="#2f2528"/>
  <rect x="7" y="11" width="2" height="10" fill="#8e6d76"/>
  <rect x="23" y="11" width="2" height="10" fill="#23181b"/>
</svg>
