<svg xmlns="http://www.w3.org/2000/svg" width="32" height="32" viewBox="0 0 32 32" shape-rendering="crispEdges">
  <rect width="32" height="32" fill="#12080a"/>
  <rect x="2" y="4" width="28" height="24" rx="3" fill="#17080a"/>
  <rect x="3" y="5" width="26" height="22" fill="#351018"/>
  <rect x="4" y="6" width="24" height="20" fill="#4c1622"/>
  <rect x="5" y="7" width="22" height="18" fill="#631924"/>
  <rect x="6" y="8" width="20" height="16" fill="#7d1d24"/>
  <rect x="8" y="2" width="16" height="4" fill="#210d10"/>
  <rect x="10" y="0" width="12" height="4" fill="#fca5a5"/>
  <rect x="9" y="10" width="14" height="10" fill="#1d090b"/>
  <rect x="10" y="11" width="12" height="8" fill="#1a0708"/>
  <rect x="12" y="9" width="8" height="12" fill="#ff6464"/>
  <rect x="11" y="12" width="10" height="6" fill="#ffaaaa"/>
  <rect x="14" y="7" width="4" height="18" fill="#ffe1e1"/>
  <rect x="7" y="9" width="2" height="14" fill="#ffb6b6"/>
  <rect x="23" y="9" width="2" height="14" fill="#8f2323"/>
  <rect x="6" y="24" width="20" height="1" fill="#12080a"/>
  <rect x="5" y="7" width="22" height="1" fill="#ffc3c3"/>
</svg>
