<svg version="1.1" xmlns="http://www.w3.org/2000/svg" xmlns:xlink="http://www.w3.org/1999/xlink" width="53.17651" height="31.42462" viewBox="0,0,53.17651,31.42462"><defs><linearGradient x1="260.75" y1="150.875" x2="260.75" y2="161.75" gradientUnits="userSpaceOnUse" id="color-1"><stop offset="0" stop-color="#d20000" stop-opacity="0.9098"/><stop offset="1" stop-color="#620000"/></linearGradient><linearGradient x1="240.875" y1="150.25" x2="240.875" y2="154.75" gradientUnits="userSpaceOnUse" id="color-2"><stop offset="0" stop-color="#d20000" stop-opacity="0.9098"/><stop offset="1" stop-color="#620000"/></linearGradient><linearGradient x1="256.17156" y1="152.30047" x2="256.17156" y2="181.67462" gradientUnits="userSpaceOnUse" id="color-3"><stop offset="0" stop-color="#d20000" stop-opacity="0.9098"/><stop offset="1" stop-color="#620000"/></linearGradient><linearGradient x1="237" y1="164.25" x2="237" y2="168.25" gradientUnits="userSpaceOnUse" id="color-4"><stop offset="0" stop-color="#d20000" stop-opacity="0.9098"/><stop offset="1" stop-color="#620000"/></linearGradient></defs><g transform="translate(-229.5833,-150.25)"><g stroke="none" stroke-width="0" stroke-miterlimit="10"><path d="M268,156.3125c0,3.00305 -3.24594,5.4375 -7.25,5.4375c-4.00406,0 -7.25,-2.43445 -7.25,-5.4375c0,-3.00305 3.24594,-5.4375 7.25,-5.4375c4.00406,0 7.25,2.43445 7.25,5.4375z" fill="url(#color-1)"/><path d="M244,152.5c0,1.24264 -1.39911,2.25 -3.125,2.25c-1.72589,0 -3.125,-1.00736 -3.125,-2.25c0,-1.24264 1.39911,-2.25 3.125,-2.25c1.72589,0 3.125,1.00736 3.125,2.25z" fill="url(#color-2)"/><path d="M257.17412,175.80793c-2.51806,1.15285 -3.28839,2.28382 -6.07081,2.90491c-8.87001,1.97993 -20.11287,4.56865 -21.4473,1.65398c-0.5929,-1.29502 2.64044,-1.22008 2.46583,-3.43553c-0.14534,-1.84412 -4.03403,-5.96623 -1.64766,-7.38207c0.21085,-0.1251 2.39872,6.74612 7.23915,6.61339c5.19226,-0.14237 9.81005,-2.03926 10.01573,-2.19099c2.53369,-1.8691 5.88063,-11.94263 9.34682,-13.52956c2.10842,-0.9653 2.74757,11.07264 3.44516,9.09094c0.43391,-1.23265 8.97578,-7.64906 9.60205,-8.74783c5.88068,-10.31745 11.20337,-9.42056 12.4709,-6.652c1.6717,3.65133 -9.59881,13.09163 -20.16396,18.67985c-0.51393,0.27184 -4.76673,2.77095 -5.25591,2.99491z" fill="url(#color-3)"/><path d="M239,166.25c0,1.10457 -0.89543,2 -2,2c-1.10457,0 -2,-0.89543 -2,-2c0,-1.10457 0.89543,-2 2,-2c1.10457,0 2,0.89543 2,2z" fill="url(#color-4)"/></g></g></svg>