<svg version="1.1" xmlns="http://www.w3.org/2000/svg" xmlns:xlink="http://www.w3.org/1999/xlink" width="46.56309" height="26.78273" viewBox="0,0,46.56309,26.78273"><defs><linearGradient x1="257.75" y1="159.125" x2="257.75" y2="170" gradientUnits="userSpaceOnUse" id="color-1"><stop offset="0" stop-color="#d20000" stop-opacity="0.9098"/><stop offset="1" stop-color="#620000"/></linearGradient><linearGradient x1="238.125" y1="156.75" x2="238.125" y2="161.25" gradientUnits="userSpaceOnUse" id="color-2"><stop offset="0" stop-color="#d20000" stop-opacity="0.9098"/><stop offset="1" stop-color="#620000"/></linearGradient><linearGradient x1="249.82749" y1="160.60597" x2="249.82749" y2="183.53273" gradientUnits="userSpaceOnUse" id="color-3"><stop offset="0" stop-color="#d20000" stop-opacity="0.9098"/><stop offset="1" stop-color="#620000"/></linearGradient></defs><g transform="translate(-226.54594,-156.75)"><g stroke="none" stroke-width="0" stroke-miterlimit="10"><path d="M265,164.5625c0,3.00305 -3.24594,5.4375 -7.25,5.4375c-4.00406,0 -7.25,-2.43445 -7.25,-5.4375c0,-3.00305 3.24594,-5.4375 7.25,-5.4375c4.00406,0 7.25,2.43445 7.25,5.4375z" fill="url(#color-1)"/><path d="M241.25,159c0,1.24264 -1.39911,2.25 -3.125,2.25c-1.72589,0 -3.125,-1.00736 -3.125,-2.25c0,-1.24264 1.39911,-2.25 3.125,-2.25c1.72589,0 3.125,1.00736 3.125,2.25z" fill="url(#color-2)"/><path d="M256.92412,179.30793c-10.54532,4.82798 -20.51509,5.63785 -22.26811,1.80889c-1.08643,-2.37298 -11.9351,0.29918 -6.68183,-2.8176c0.43702,-0.25929 19.35746,-4.03442 19.75488,-4.3276c2.53369,-1.8691 -0.61937,-6.94263 2.84682,-8.52956c2.10842,-0.9653 9.24757,6.07264 9.94516,4.09094c4.50838,-12.80733 10.92043,-8.96323 12.32295,-5.89983c1.75302,3.82895 -5.37455,10.84678 -15.91987,15.67476z" fill="url(#color-3)"/></g></g></svg>