<svg version="1.1" xmlns="http://www.w3.org/2000/svg" xmlns:xlink="http://www.w3.org/1999/xlink" width="79.72062" height="49.70458" viewBox="0,0,79.72062,49.70458"><defs><linearGradient x1="289.16669" y1="120.45833" x2="289.16669" y2="123.58333" gradientUnits="userSpaceOnUse" id="color-1"><stop offset="0" stop-color="#d20000" stop-opacity="0.9098"/><stop offset="1" stop-color="#620000"/></linearGradient><linearGradient x1="233.37502" y1="127.13001" x2="233.37502" y2="128.75001" gradientUnits="userSpaceOnUse" id="color-2"><stop offset="0" stop-color="#d20000" stop-opacity="0.9098"/><stop offset="1" stop-color="#620000"/></linearGradient><linearGradient x1="276.4629" y1="132.89315" x2="276.4629" y2="170.16292" gradientUnits="userSpaceOnUse" id="color-3"><stop offset="0" stop-color="#d20000" stop-opacity="0.9098"/><stop offset="1" stop-color="#620000"/></linearGradient><linearGradient x1="234.73959" y1="145.68334" x2="234.73959" y2="147" gradientUnits="userSpaceOnUse" id="color-4"><stop offset="0" stop-color="#d20000" stop-opacity="0.9098"/><stop offset="1" stop-color="#620000"/></linearGradient></defs><g transform="translate(-232.25002,-120.45833)"><g stroke="none" stroke-width="0" stroke-miterlimit="10"><path d="M291.25002,122.02083c0,0.86294 -0.93274,1.5625 -2.08333,1.5625c-1.15059,0 -2.08333,-0.69956 -2.08333,-1.5625c0,-0.86295 0.93274,-1.5625 2.08333,-1.5625c1.15059,0 2.08333,0.69955 2.08333,1.5625z" fill="url(#color-1)"/><path d="M234.50002,127.94001c0,0.44735 -0.50368,0.81 -1.125,0.81c-0.62132,0 -1.125,-0.36265 -1.125,-0.81c0,-0.44735 0.50368,-0.81 1.125,-0.81c0.62132,0 1.125,0.36265 1.125,0.81z" fill="url(#color-2)"/><path d="M280.92411,160.80793c-1.72996,0.79203 3.28839,-13.19297 -3.79684,-8.8867c-3.22775,1.96177 6.01353,2.43055 5.1427,2.62494c-2.81497,0.62835 -9.05475,0.99847 -12.43641,1.00406c-0.52862,0.00088 -17.00779,4.83419 -16.39864,4.02711c2.20159,-2.91696 -4.75569,11.15502 -5.44042,9.36612c-1.73276,-4.52701 3.68365,-12.67085 3.07817,-13.99333c-0.4952,-1.08162 -5.39551,5.85458 -3.2538,4.18764c0.42255,-0.32888 -6.83492,1.32524 -6.86369,0.96017c-0.00768,-0.09735 7.512,-2.8196 7.84677,-3.42917c2.30883,-4.20402 -4.4887,0.26336 -3.00847,-1.66918c2.37086,-3.09533 15.12247,-2.29142 16.51404,-3.11705c0.1063,-0.06307 -10.62429,2.17266 -12.32508,5.13225c-1.67294,2.91113 -6.83601,13.21363 -4.43577,13.14781c5.19226,-0.14237 3.81004,-9.03926 4.01572,-9.19099c2.22907,-1.64438 31.66376,-12.43833 36.40071,-17.09252c0.64734,-0.63603 0.11272,-6.07959 0.52945,-6.27038c0.82316,-0.37687 -4.82088,4.35008 -6.07365,8.00159c-0.09762,0.28454 -1.55989,1.93327 -1.71674,2.27561c-2.98602,6.51726 9.08154,-2.2052 9.48556,-3.35292c0.24477,-0.69533 -13.37728,18.09234 -8.76814,15.08141c3.56171,-2.3267 -2.06948,-1.60028 -1.79648,-2.07924c0.43706,-0.76681 32.918,-22.76587 33.43438,-23.49444c3.40694,-4.80684 -3.40519,6.90809 -9.13744,9.02456c-5.08904,1.87899 -4.0445,-4.97069 -3.49271,-3.76545c1.37968,3.01351 2.83622,4.90511 -3.85914,6.57756c-1.4171,0.35398 -6.5426,-4.87387 -8.38815,-3.89771c-0.51393,0.27184 -4.76673,18.60428 -5.25591,18.82824z" fill="url(#color-3)"/><path d="M235.56251,146.34167c0,0.36359 -0.36843,0.65833 -0.82292,0.65833c-0.45448,0 -0.82292,-0.29475 -0.82292,-0.65833c0,-0.36359 0.36843,-0.65833 0.82292,-0.65833c0.45448,0 0.82292,0.29475 0.82292,0.65833z" fill="url(#color-4)"/><path d="" fill-opacity="0.9098" fill="#d20000"/></g></g></svg>