<svg version="1.1" xmlns="http://www.w3.org/2000/svg" xmlns:xlink="http://www.w3.org/1999/xlink" width="78.02599" height="50.63305" viewBox="0,0,78.02599,50.63305"><defs><linearGradient x1="286.00002" y1="125.625" x2="286.00002" y2="132.75" gradientUnits="userSpaceOnUse" id="color-1"><stop offset="0" stop-color="#d20000" stop-opacity="0.9098"/><stop offset="1" stop-color="#620000"/></linearGradient><linearGradient x1="235.12502" y1="130.38334" x2="235.12502" y2="133.08334" gradientUnits="userSpaceOnUse" id="color-2"><stop offset="0" stop-color="#d20000" stop-opacity="0.9098"/><stop offset="1" stop-color="#620000"/></linearGradient><linearGradient x1="270.89317" y1="137.58753" x2="270.89317" y2="176.25805" gradientUnits="userSpaceOnUse" id="color-3"><stop offset="0" stop-color="#d20000" stop-opacity="0.9098"/><stop offset="1" stop-color="#620000"/></linearGradient><linearGradient x1="253.91668" y1="141.54167" x2="253.91668" y2="143.375" gradientUnits="userSpaceOnUse" id="color-4"><stop offset="0" stop-color="#d20000" stop-opacity="0.9098"/><stop offset="1" stop-color="#620000"/></linearGradient><linearGradient x1="238.15626" y1="148.25" x2="238.15626" y2="150.5" gradientUnits="userSpaceOnUse" id="color-5"><stop offset="0" stop-color="#d20000" stop-opacity="0.9098"/><stop offset="1" stop-color="#620000"/></linearGradient><linearGradient x1="304.1481" y1="131.56574" x2="304.1481" y2="135.18427" gradientUnits="userSpaceOnUse" id="color-6"><stop offset="0" stop-color="#d20000" stop-opacity="0.9098"/><stop offset="1" stop-color="#620000"/></linearGradient></defs><g transform="translate(-231.88018,-125.625)"><g stroke="none" stroke-width="0" stroke-miterlimit="10"><path d="M290.75002,129.1875c0,1.96751 -2.12665,3.5625 -4.75,3.5625c-2.62335,0 -4.75,-1.59499 -4.75,-3.5625c0,-1.96752 2.12665,-3.5625 4.75,-3.5625c2.62335,0 4.75,1.59498 4.75,3.5625z" fill="url(#color-1)"/><path d="M237.00002,131.73334c0,0.74559 -0.83946,1.35 -1.875,1.35c-1.03554,0 -1.875,-0.60441 -1.875,-1.35c0,-0.74559 0.83946,-1.35 1.875,-1.35c1.03554,0 1.875,0.60442 1.875,1.35z" fill="url(#color-2)"/><path d="M280.92411,160.80793c-1.72996,0.79203 3.28839,-13.19297 -3.79684,-8.8867c-3.22775,1.96177 -20.98647,24.09722 -21.8573,24.29161c-2.81497,0.62835 1.77858,-5.50153 -1.60308,-5.49594c-0.52862,0.00088 -0.34112,-0.49914 0.26803,-1.30622c2.20159,-2.91696 -5.25569,1.32169 -5.94042,-0.46721c-1.73276,-4.52701 -15.48302,-2.50418 -16.0885,-3.82666c-0.5929,-1.29502 9.22378,-2.80341 9.04917,-5.01886c-0.00768,-0.09735 -3.15467,10.1804 -2.8199,9.57083c2.30883,-4.20402 6.17797,-12.73664 7.6582,-14.66918c2.37086,-3.09533 15.12247,-2.29142 16.51404,-3.11705c0.1063,-0.06307 -10.62429,2.17266 -12.32508,5.13225c-1.67294,2.91113 -6.83601,13.21363 -4.43577,13.14781c5.19226,-0.14237 1.97671,3.96074 2.18239,3.80901c2.22907,-1.64438 23.16376,-20.27166 27.90071,-24.92585c0.64734,-0.63603 10.44605,-11.24626 10.86278,-11.43705c0.82316,-0.37687 -4.82088,4.35008 -6.07365,8.00159c-0.09762,0.28454 -1.55989,1.93327 -1.71674,2.27561c-2.98602,6.51726 -18.58513,22.7948 -18.18111,21.64708c0.43391,-1.23265 16.47578,-10.89906 17.10205,-11.99783c0.43706,-0.76681 30.58467,-14.76587 31.10105,-15.49444c3.40694,-4.80684 -1.07186,-1.09191 -6.80411,1.02456c-5.08904,1.87899 -11.37783,1.86264 -10.82604,3.06788c1.6717,3.65133 5.65119,-9.7417 -4.91396,-4.15348c-0.51393,0.27184 -4.76673,18.60428 -5.25591,18.82824z" fill="url(#color-3)"/><path d="M254.83335,142.45834c0,0.50626 -0.41041,0.91666 -0.91667,0.91666c-0.50626,0 -0.91667,-0.4104 -0.91667,-0.91666c0,-0.50626 0.41041,-0.91667 0.91667,-0.91667c0.50626,0 0.91667,0.41041 0.91667,0.91667z" fill="url(#color-4)"/><path d="M239.56251,149.375c0,0.62132 -0.6296,1.125 -1.40625,1.125c-0.77665,0 -1.40625,-0.50368 -1.40625,-1.125c0,-0.62132 0.6296,-1.125 1.40625,-1.125c0.77665,0 1.40625,0.50368 1.40625,1.125z" fill="url(#color-5)"/><path d="M304.87766,134.68822c-1.23722,0.68734 -2.56682,0.6566 -2.96975,-0.06867c-0.40292,-0.72527 0.27341,-1.87042 1.51063,-2.55776c1.23722,-0.68734 2.56683,-0.6566 2.96976,0.06867c0.40292,0.72527 -0.27341,1.87042 -1.51063,2.55776z" fill="url(#color-6)"/></g></g></svg>