<svg version="1.1" xmlns="http://www.w3.org/2000/svg" xmlns:xlink="http://www.w3.org/1999/xlink" width="65.18534" height="41.2586" viewBox="0,0,65.18534,41.2586"><defs><linearGradient x1="268.75" y1="140.625" x2="268.75" y2="151.5" gradientUnits="userSpaceOnUse" id="color-1"><stop offset="0" stop-color="#d20000" stop-opacity="0.9098"/><stop offset="1" stop-color="#620000"/></linearGradient><linearGradient x1="240.875" y1="144.5" x2="240.875" y2="149" gradientUnits="userSpaceOnUse" id="color-2"><stop offset="0" stop-color="#d20000" stop-opacity="0.9098"/><stop offset="1" stop-color="#620000"/></linearGradient><linearGradient x1="258.71169" y1="144.40194" x2="258.71169" y2="181.8836" gradientUnits="userSpaceOnUse" id="color-3"><stop offset="0" stop-color="#d20000" stop-opacity="0.9098"/><stop offset="1" stop-color="#620000"/></linearGradient><linearGradient x1="241.25" y1="157.25" x2="241.25" y2="161.25" gradientUnits="userSpaceOnUse" id="color-4"><stop offset="0" stop-color="#d20000" stop-opacity="0.9098"/><stop offset="1" stop-color="#620000"/></linearGradient></defs><g transform="translate(-226.11901,-140.625)"><g stroke="none" stroke-width="0" stroke-miterlimit="10"><path d="M276,146.0625c0,3.00305 -3.24594,5.4375 -7.25,5.4375c-4.00406,0 -7.25,-2.43445 -7.25,-5.4375c0,-3.00305 3.24594,-5.4375 7.25,-5.4375c4.00406,0 7.25,2.43445 7.25,5.4375z" fill="url(#color-1)"/><path d="M244,146.75c0,1.24264 -1.39911,2.25 -3.125,2.25c-1.72589,0 -3.125,-1.00736 -3.125,-2.25c0,-1.24264 1.39911,-2.25 3.125,-2.25c1.72589,0 3.125,1.00736 3.125,2.25z" fill="url(#color-2)"/><path d="M257.17411,175.80793c-2.51806,1.15285 -3.28839,2.28382 -6.07081,2.90491c-2.81497,0.62835 -9.22142,3.16514 -12.60308,3.17073c-7.27401,0.01202 -11.43328,-3.52708 -12.34422,-5.51675c-0.5929,-1.29502 6.14044,2.77992 5.96583,0.56447c-0.06059,-0.76875 -2.52323,-7.05226 -0.82837,-9.26502c2.37086,-3.09533 9.28914,-2.29142 10.68071,-3.11705c0.1063,-0.06307 -5.95762,1.67266 -7.65841,4.63225c-1.67294,2.91113 0.99732,7.04696 3.39756,6.98114c5.19226,-0.14237 9.81005,-2.03926 10.01573,-2.19099c2.53369,-1.8691 15.13063,-20.94263 18.59682,-22.52956c2.10842,-0.9653 -6.50243,20.07264 -5.80484,18.09094c0.43391,-1.23265 16.47578,-10.89906 17.10205,-11.99783c0.43706,-0.76681 2.918,-5.01587 3.43438,-5.74444c6.4316,-9.07432 8.86319,-8.22036 10.03652,-5.65756c1.6717,3.65133 -6.84881,16.84163 -17.41396,22.42985c-0.51393,0.27184 -16.01673,7.02095 -16.50591,7.24491z" fill="url(#color-3)"/><path d="M243.25,159.25c0,1.10457 -0.89543,2 -2,2c-1.10457,0 -2,-0.89543 -2,-2c0,-1.10457 0.89543,-2 2,-2c1.10457,0 2,0.89543 2,2z" fill="url(#color-4)"/></g></g></svg>