<svg version="1.1" xmlns="http://www.w3.org/2000/svg" xmlns:xlink="http://www.w3.org/1999/xlink" width="72.17258" height="53.50857" viewBox="0,0,72.17258,53.50857"><defs><linearGradient x1="279.50001" y1="128.375" x2="279.50001" y2="139.25" gradientUnits="userSpaceOnUse" id="color-1"><stop offset="0" stop-color="#d20000" stop-opacity="0.9098"/><stop offset="1" stop-color="#620000"/></linearGradient><linearGradient x1="238.37501" y1="137.25" x2="238.37501" y2="141.75" gradientUnits="userSpaceOnUse" id="color-2"><stop offset="0" stop-color="#d20000" stop-opacity="0.9098"/><stop offset="1" stop-color="#620000"/></linearGradient><linearGradient x1="267.79995" y1="141.40579" x2="267.79995" y2="181.88357" gradientUnits="userSpaceOnUse" id="color-3"><stop offset="0" stop-color="#d20000" stop-opacity="0.9098"/><stop offset="1" stop-color="#620000"/></linearGradient><linearGradient x1="248.75001" y1="145.75" x2="248.75001" y2="149.75" gradientUnits="userSpaceOnUse" id="color-4"><stop offset="0" stop-color="#d20000" stop-opacity="0.9098"/><stop offset="1" stop-color="#620000"/></linearGradient><linearGradient x1="239.75" y1="152.75" x2="239.75" y2="156.75" gradientUnits="userSpaceOnUse" id="color-5"><stop offset="0" stop-color="#d20000" stop-opacity="0.9098"/><stop offset="1" stop-color="#620000"/></linearGradient><linearGradient x1="296.625" y1="135.81574" x2="296.625" y2="140.93427" gradientUnits="userSpaceOnUse" id="color-6"><stop offset="0" stop-color="#d20000" stop-opacity="0.9098"/><stop offset="1" stop-color="#620000"/></linearGradient></defs><g transform="translate(-231.71366,-128.375)"><g stroke="none" stroke-width="0" stroke-miterlimit="10"><path d="M286.75001,133.8125c0,3.00305 -3.24594,5.4375 -7.25,5.4375c-4.00406,0 -7.25,-2.43445 -7.25,-5.4375c0,-3.00305 3.24594,-5.4375 7.25,-5.4375c4.00406,0 7.25,2.43445 7.25,5.4375z" fill="url(#color-1)"/><path d="M241.50001,139.5c0,1.24264 -1.39911,2.25 -3.125,2.25c-1.72589,0 -3.125,-1.00736 -3.125,-2.25c0,-1.24264 1.39911,-2.25 3.125,-2.25c1.72589,0 3.125,1.00736 3.125,2.25z" fill="url(#color-2)"/><path d="M280.92411,160.80793c-2.51806,1.15285 -27.03839,17.28382 -29.82081,17.90491c-2.81497,0.62835 -9.22142,3.16514 -12.60308,3.17073c-2.43916,0.00403 10.36846,-10.65623 9.49428,-12.94009c-1.73276,-4.52701 -15.48302,-2.50418 -16.0885,-3.82666c-0.5929,-1.29502 0.39044,14.02992 0.21583,11.81447c-0.06059,-0.76875 5.97677,-13.05226 7.67163,-15.26502c2.37086,-3.09533 11.78914,-4.79142 13.18071,-5.61705c0.1063,-0.06307 -10.45762,5.67266 -12.15841,8.63225c-1.67294,2.91113 -5.50268,11.54696 -3.10244,11.48114c5.19226,-0.14237 9.81005,-2.03926 10.01573,-2.19099c2.22907,-1.64438 17.99709,-17.10499 22.73404,-21.75918c0.64734,-0.63603 6.44605,-9.57959 6.86278,-9.77038c0.82316,-0.37687 0.51245,0.85008 -0.74032,4.50159c-1.95604,5.70141 -16.48976,23.79736 -16.06452,22.58935c0.43391,-1.23265 16.47578,-10.89906 17.10205,-11.99783c0.43706,-0.76681 24.418,-10.76587 24.93438,-11.49444c6.4316,-9.07432 -12.63681,-2.47036 -11.46348,0.09244c1.6717,3.65133 8.65119,8.09163 -1.91396,13.67985c-0.51393,0.27184 -7.76673,0.77095 -8.25591,0.99491z" fill="url(#color-3)"/><path d="M250.75001,147.75c0,1.10457 -0.89543,2 -2,2c-1.10457,0 -2,-0.89543 -2,-2c0,-1.10457 0.89543,-2 2,-2c1.10457,0 2,0.89543 2,2z" fill="url(#color-4)"/><path d="M242.25,154.75c0,1.10457 -1.11929,2 -2.5,2c-1.38071,0 -2.5,-0.89543 -2.5,-2c0,-1.10457 1.11929,-2 2.5,-2c1.38071,0 2.5,0.89543 2.5,2z" fill="url(#color-5)"/><path d="M297.65699,140.23259c-1.75009,0.97227 -3.63086,0.92878 -4.20081,-0.09713c-0.56995,-1.02591 0.38674,-2.64577 2.13683,-3.61804c1.75009,-0.97227 3.63086,-0.92878 4.20081,0.09713c0.56995,1.02591 -0.38674,2.64577 -2.13683,3.61804z" fill="url(#color-6)"/></g></g></svg>