<svg version="1.1" xmlns="http://www.w3.org/2000/svg" xmlns:xlink="http://www.w3.org/1999/xlink" width="79.72061" height="50.30311" viewBox="0,0,79.72061,50.30311"><defs><linearGradient x1="290.61162" y1="111.58336" x2="290.61162" y2="114.70836" gradientUnits="userSpaceOnUse" id="color-1"><stop offset="0" stop-color="#d20000" stop-opacity="0.9098"/><stop offset="1" stop-color="#620000"/></linearGradient><linearGradient x1="290.53103" y1="132.89316" x2="290.53103" y2="160.84045" gradientUnits="userSpaceOnUse" id="color-2"><stop offset="0" stop-color="#d20000" stop-opacity="0.9098"/><stop offset="1" stop-color="#620000"/></linearGradient><linearGradient x1="259.53387" y1="152.13646" x2="259.53387" y2="153.88646" gradientUnits="userSpaceOnUse" id="color-3"><stop offset="0" stop-color="#d20000" stop-opacity="0.9098"/><stop offset="1" stop-color="#620000"/></linearGradient><linearGradient x1="258.84637" y1="160.76146" x2="258.84637" y2="161.88646" gradientUnits="userSpaceOnUse" id="color-4"><stop offset="0" stop-color="#d20000" stop-opacity="0.9098"/><stop offset="1" stop-color="#620000"/></linearGradient></defs><g transform="translate(-232.25003,-111.58335)"><g stroke="none" stroke-width="0" stroke-miterlimit="10"><path d="M291.50003,113.14586c0,0.86294 0.56726,1.5625 -0.58333,1.5625c-1.15059,0 -1.33333,-0.94956 -1.33333,-1.8125c0,-0.86295 0.18274,-1.3125 1.33333,-1.3125c1.15059,0 0.58333,0.69955 0.58333,1.5625z" fill="url(#color-1)"/><path d="M232.25004,127.94004c0,0.44735 0,-0.44735 0,0z" fill-opacity="0.9098" fill="#d20000"/><path d="M280.92413,160.80793c0.48918,-0.22396 4.74198,-18.5564 5.25591,-18.82824c1.84555,-0.97616 6.97105,4.25169 8.38815,3.89771c6.69536,-1.67245 5.23882,-3.56405 3.85914,-6.57756c-0.55179,-1.20524 -1.59633,5.64444 3.49271,3.76545c5.73225,-2.11647 12.54438,-13.8314 9.13744,-9.02456c-0.51638,0.72857 -32.99732,22.72763 -33.43438,23.49444c-0.273,0.47896 5.35819,-0.24746 1.79648,2.07924c-4.60914,3.01093 9.01291,-15.77674 8.76814,-15.08141c-0.40402,1.14772 -12.47158,9.87018 -9.48556,3.35292c0.15685,-0.34234 1.61912,-1.99107 1.71674,-2.27561c1.25277,-3.65151 6.89681,-8.37846 6.07365,-8.00159c-0.41673,0.19079 0.11789,5.63435 -0.52945,6.27038c-3.69136,3.62687 -5.7434,6.51667 -10.91643,6.65851c-2.40024,0.06582 2.13783,1.63832 3.81077,-1.27281c1.75356,-3.05142 7.95109,-5.05919 5.81104,-2.2652c-1.48023,1.93254 -2.9327,-0.53484 -5.24153,3.66918c-0.21976,0.40015 1.00218,-0.4364 0.64192,-0.156c-2.14171,1.66694 -3.3664,0.73074 -2.8712,1.81236c0.60548,1.32248 -0.06093,-6.15868 1.67183,-1.63167c1.48321,3.87498 -13.18507,4.86368 -9.03594,4.85677c3.38166,-0.00559 9.62144,-0.37571 12.43641,-1.00406c0.87083,-0.19439 -8.37045,-0.66317 -5.1427,-2.62494c7.08523,-4.30627 2.06688,9.67873 3.79684,8.8867z" fill="url(#color-2)"/><path d="" fill-opacity="0.9098" fill="#d20000"/><path d="" fill-opacity="0.9098" fill="#d20000"/><path d="M261.03387,153.01146c0,0.48325 -0.67157,0.875 -1.5,0.875c-0.82843,0 -1.5,-0.39175 -1.5,-0.875c0,-0.48325 0.67157,-0.875 1.5,-0.875c0.82843,0 1.5,0.39175 1.5,0.875z" fill="url(#color-3)"/><path d="M259.78387,161.32396c0,0.31066 -0.41973,0.5625 -0.9375,0.5625c-0.51777,0 -0.9375,-0.25184 -0.9375,-0.5625c0,-0.31066 0.41973,-0.5625 0.9375,-0.5625c0.51777,0 0.9375,0.25184 0.9375,0.5625z" fill="url(#color-4)"/></g></g></svg>