<svg version="1.1" xmlns="http://www.w3.org/2000/svg" xmlns:xlink="http://www.w3.org/1999/xlink" width="76.38727" height="36.81123" viewBox="0,0,76.38727,36.81123"><defs><linearGradient x1="297.34037" y1="114.07524" x2="297.34037" y2="116.36208" gradientUnits="userSpaceOnUse" id="color-1"><stop offset="0" stop-color="#d20000" stop-opacity="0.9098"/><stop offset="1" stop-color="#620000"/></linearGradient><linearGradient x1="299.7245" y1="130.50284" x2="299.7245" y2="142.121" gradientUnits="userSpaceOnUse" id="color-2"><stop offset="0" stop-color="#d20000" stop-opacity="0.9098"/><stop offset="1" stop-color="#620000"/></linearGradient><linearGradient x1="274.59804" y1="143.75154" x2="274.59804" y2="145.03216" gradientUnits="userSpaceOnUse" id="color-3"><stop offset="0" stop-color="#d20000" stop-opacity="0.9098"/><stop offset="1" stop-color="#620000"/></linearGradient><linearGradient x1="274.09494" y1="150.06321" x2="274.09494" y2="150.88647" gradientUnits="userSpaceOnUse" id="color-4"><stop offset="0" stop-color="#d20000" stop-opacity="0.9098"/><stop offset="1" stop-color="#620000"/></linearGradient></defs><g transform="translate(-232.25005,-114.07524)"><g stroke="none" stroke-width="0" stroke-miterlimit="10"><path d="M232.25005,127.94004c0,-0.44735 0,0.44735 0,0z" fill-opacity="0.9098" fill="#d20000"/><path d="" fill-opacity="0.9098" fill="#d20000"/><path d="" fill-opacity="0.9098" fill="#d20000"/><path d="M297.99051,115.21866c0,0.63149 0.41511,1.14342 -0.42687,1.14342c-0.84199,0 -0.97572,-0.69488 -0.97572,-1.32637c0,-0.6315 0.13373,-0.96047 0.97572,-0.96047c0.84199,0 0.42687,0.51192 0.42687,1.14342z" fill="url(#color-1)"/><path d="M295.73076,142.10749c0.20336,-0.0931 1.97132,-7.71421 2.18497,-7.82722c0.76723,-0.4058 2.89798,1.7675 3.4871,1.62034c2.78338,-0.69527 2.17787,-1.48164 1.60431,-2.7344c-0.22939,-0.50104 -0.66362,2.34649 1.45198,1.56536c2.38299,-0.87985 5.21491,-5.74995 3.79859,-3.75166c-0.21467,0.30288 -13.71754,9.44826 -13.89924,9.76704c-0.11349,0.19911 2.22749,-0.10287 0.74683,0.86437c-1.91609,1.25169 3.74682,-6.55866 3.64506,-6.2696c-0.16796,0.47713 -5.18465,4.1032 -3.94331,1.39387c0.0652,-0.14232 0.67309,-0.82772 0.71368,-0.94601c0.5208,-1.51799 2.86712,-3.48307 2.52492,-3.3264c-0.17324,0.07932 0.04901,2.34229 -0.2201,2.6067c-1.53456,1.50775 -2.38763,2.70909 -4.53815,2.76806c-0.99782,0.02736 0.88873,0.68108 1.5842,-0.52913c0.72898,-1.26852 3.3054,-2.10319 2.41575,-0.94168c-0.61536,0.80339 -1.21918,-0.22234 -2.17899,1.52534c-0.09136,0.16635 0.41662,-0.18142 0.26686,-0.06485c-0.89035,0.69298 -1.39947,0.30378 -1.19361,0.75343c0.25171,0.54978 -0.02533,-2.56027 0.69501,-0.67831c0.6166,1.6109 -5.48126,2.02191 -3.7564,2.01904c1.40581,-0.00232 3.9998,-0.15619 5.17003,-0.41741c0.36202,-0.08081 -3.47974,-0.27569 -2.13791,-1.09123c2.94545,-1.79019 0.85924,4.02361 1.57841,3.69435z" fill="url(#color-2)"/><path d="M275.69573,144.39185c0,0.35364 -0.49145,0.64031 -1.09768,0.64031c-0.60624,0 -1.09768,-0.28668 -1.09768,-0.64031c0,-0.35364 0.49145,-0.64031 1.09768,-0.64031c0.60624,0 1.09768,0.28668 1.09768,0.64031z" fill="url(#color-3)"/><path d="M274.78099,150.47484c0,0.22734 -0.30715,0.41163 -0.68605,0.41163c-0.3789,0 -0.68605,-0.18429 -0.68605,-0.41163c0,-0.22734 0.30715,-0.41163 0.68605,-0.41163c0.3789,0 0.68605,0.18429 0.68605,0.41163z" fill="url(#color-4)"/></g></g></svg>