<svg version="1.1" xmlns="http://www.w3.org/2000/svg" xmlns:xlink="http://www.w3.org/1999/xlink" width="117.26695" height="254.91396" viewBox="0,0,117.26695,254.91396"><defs><radialGradient cx="336.70024" cy="225.05409" r="98.44336" gradientUnits="userSpaceOnUse" id="color-1"><stop offset="0" stop-color="#ff0000"/><stop offset="1" stop-color="#460000"/></radialGradient><radialGradient cx="316.19119" cy="244.0209" r="87.00001" gradientUnits="userSpaceOnUse" id="color-2"><stop offset="0" stop-color="#00e6ff" stop-opacity="0.26667"/><stop offset="1" stop-color="#000da5" stop-opacity="0.56471"/></radialGradient></defs><g transform="translate(-261.36653,-102.90783)"><g stroke="none" stroke-width="0" stroke-miterlimit="10"><path d="M272.50002,357.82175l1,-186.44024c0,0 5.7773,-6.05715 14.2038,31.92036c4.78591,21.56965 9.10381,-118.32078 14.0142,-98.45597c6.98961,28.2763 13.15351,98.90372 15.782,98.90372c5.08713,0 8.67656,-65.39795 15.36409,-89.63013c6.63167,-24.02979 17.35981,107.15399 22.8151,80.3573c6.94057,-34.0925 11.82081,-36.04248 11.82081,-36.04248v199.38748z" fill="url(#color-1)"/><path d="M261.36653,357.82176v-225.28195c0,0 8.36582,32.78457 18.7674,70.76207c5.90767,21.56965 14.94081,-83.36323 21.00214,-63.49842c8.6279,28.2763 12.53338,101.49317 15.77796,101.49317c6.2795,0 10.71025,-65.39795 18.96526,-89.63013c8.18606,-24.02979 21.42876,69.607 28.16271,42.8103c8.56736,-34.0925 14.59148,-61.93696 14.59148,-61.93696v225.28195z" fill="url(#color-2)"/></g></g></svg>