<svg version="1.1" xmlns="http://www.w3.org/2000/svg" xmlns:xlink="http://www.w3.org/1999/xlink" width="158.63044" height="198.44168" viewBox="0,0,158.63044,198.44168"><g transform="translate(-240.68478,-83.12746)"><g stroke-miterlimit="10"><path d="M399.31522,267.87442c0,7.56338 -35.51064,13.69472 -79.31522,13.69472c-43.80458,0 -79.31522,-6.13134 -79.31522,-13.69472c0,-7.56338 35.51064,-13.69471 79.31522,-13.69471c43.80458,0 79.31522,6.13133 79.31522,13.69471z" fill-opacity="0.59608" fill="#000000" stroke="#000000" stroke-width="0"/><path d="M341.384,93.005c0.834,-2.014 -0.752,-4.865 -2.509,-5.989c-2.054,-1.32 -5.294,-1.755 -7.719,-1.141c-1.332,0.337 -2.339,1.323 -3.405,2.127c-1.006,0.757 -1.534,0.72 -2.23,1.793c-0.4,0.616 -0.835,1.468 -1.349,1.949c-0.419,0.394 -0.546,1.128 -0.789,1.653c-0.345,0.746 -0.4,1.019 -0.369,1.602c0.037,0.639 -0.023,0.772 -0.023,1.414c0,1.11 0.64,2.46 0.795,3.525c0.074,0.511 0.114,0.655 0.34,1.114c0.295,0.596 0.119,0.56 0.807,1c0.452,0.29 0.73,0.348 1.068,0.735c0.289,0.331 0.561,0.703 0.827,1.112c0.527,0.812 0.513,1.724 0.836,2.515c0.596,-0.434 1.336,-1.995 1.267,-3.226c-0.065,-1.181 -0.974,-2.211 -1.373,-3.304c-0.407,-1.114 -0.906,-2.152 -0.635,-3.338c0.285,-1.236 0.827,-2.249 1.957,-2.957c1.701,-1.065 3.97,-1.689 6.286,-1.847c1.353,-0.091 6.218,1.263 6.218,1.263M325.283,83.59699c-1.727,1.003 -2.864,1.983 -4.122,3.515c-0.865,1.051 -1.907,2.659 -2.236,3.744c-0.394,1.306 -0.816,2.722 -0.463,4.001c0.198,0.722 0.303,1.569 0.64,2.272c0.261,0.547 0.534,1.001 0.744,1.569c0.252,0.686 0.889,1.079 1.185,1.752c0.319,0.726 0.865,1.221 1.318,1.807c-0.47,0.555 -0.115,0.714 -0.612,1.564c-0.37,0.627 -0.177,1.175 -0.042,1.829c0.19,0.93 0.377,1.298 0.997,2.081c0.468,0.588 1.358,0.92 1.331,1.772c-0.039,1.106 -0.294,2.551 -0.49,3.639c-0.216,1.212 -1.082,2.187 -1.732,3.21c-0.615,0.965 -1.927,1.688 -3.284,1.466c-1.68,-0.274 -1.296,-1.55 -0.864,-2.801c-0.891,0.917 -2.767,1.553 -3.475,0.294c-0.962,-1.711 0.059,-2.631 0.634,-3.648c-0.677,0.682 -1.211,1.518 -1.698,2.392c-0.241,0.431 -0.809,0.661 -1.162,1.015c-0.325,0.33 -0.577,0.427 -1.004,0.382c-0.94,-0.099 -1.797,-0.962 -1.641,-1.861c0.164,-0.959 0.195,-2.275 0.714,-3.196c-0.664,0.722 -1.835,1.485 -2.81,0.48c-0.84,-0.863 -0.637,-3.118 -0.331,-4.084c0.442,-1.38 1.325,-2.271 1.895,-3.588c0.268,-0.616 0.372,-0.943 0.682,-1.562c0.36,-0.715 1.821,-1.7 2.008,-2.414c-1.71,0.566 -3.955,4.768 -5.871,2.866c-0.901,-0.895 -0.16,-2.855 -0.032,-3.856c0.083,-0.65 0.251,-0.458 0.655,-0.978c0.289,-0.366 0.811,-0.783 0.788,-1.283c-1.296,0.346 -1.714,-2.189 -1.463,-3.096c0.974,-3.552 4.296,-6.067 7.592,-7.417c2.198,-0.9 4.627,-1.704 6.951,-2.066c1.083,-0.169 1.926,-0.134 3.007,-0.251c0.466,-0.049 2.131,0.535 2.479,0.354" fill="#ffbe00" stroke="none" stroke-width="1"/><path d="M332.758,85.411c-0.079,0.043 -0.158,0.083 -0.246,0.118c-0.676,0.267 -1.364,0.363 -2.013,0.706c-0.481,0.254 -0.976,0.593 -1.412,0.908c-0.464,0.336 -0.938,0.631 -1.397,0.984c-0.485,0.373 -0.883,0.735 -1.319,1.157c-0.902,0.874 -1.979,1.611 -2.511,2.807c-0.238,0.536 -0.33,1.1 -0.574,1.624c-0.228,0.486 -0.174,1 -0.186,1.535c-0.012,0.553 0.06,1.079 0.049,1.626c-0.014,0.578 0.181,1.038 0.252,1.574c0.145,1.094 0.584,2.303 0.842,3.162c-0.451,0.093 -1.036,-0.047 -1.451,0.214c-0.129,0.082 -0.423,0.417 -0.559,0.417c-0.229,0.001 -0.18,-0.237 -0.245,-0.376c-0.203,-0.445 -0.679,-0.745 -0.943,-1.167c-0.272,-0.434 -0.581,-0.831 -0.854,-1.257c-0.618,-0.968 -1.047,-2.167 -1.335,-3.276c-0.306,-1.171 -0.652,-2.425 -0.389,-3.666c0.139,-0.663 0.325,-1.358 0.508,-2.015c0.208,-0.737 0.619,-1.332 1.101,-1.91c0.417,-0.498 0.782,-1.033 1.132,-1.59c0.36,-0.577 0.897,-1.02 1.408,-1.481c0.597,-0.542 1.267,-0.915 1.883,-1.389c0.434,-0.334 0.894,-0.604 1.444,-0.625c0.618,-0.023 1.268,0.065 1.878,0.139c0.711,0.086 1.45,0.113 2.132,0.351c0.485,0.169 1.008,0.357 1.477,0.579c0.256,0.122 0.567,0.209 0.805,0.355c0.23,0.149 0.244,0.341 0.523,0.496" fill="#ff1f00" stroke="none" stroke-width="1"/><path d="M319.898,120.599c0.521,-0.281 0.331,-0.295 0.779,-0.695c0.505,-0.451 0.278,-0.325 0.736,-1.013c0.205,-0.307 0.381,-1.01 0.532,-1.339c0.147,-0.323 0.533,-0.875 0.637,-1.232c0.218,-0.75 0.343,-1.335 0.563,-2.094c0.433,-1.49 1.354,-3.527 0.66,-4.849c-0.242,-0.46 -0.786,-0.813 -1.158,-1.185c-0.448,-0.445 -0.581,-0.964 -0.769,-1.561c-0.169,-0.534 -0.406,-1.155 -0.321,-1.715c0.099,-0.642 0.057,-1.143 0.384,-1.675c0.317,-0.516 0.736,-1.369 1.375,-1.497c0.503,-0.101 1.125,0.089 1.546,0.33c0.653,0.371 1.78,1.731 2.089,2.442c0.196,0.449 0.57,0.85 0.687,1.322c0.102,0.41 -0.153,0.522 0.178,0.813c0.635,-0.606 0.856,-1.227 0.844,-2.021c0.178,-0.095 0.073,-0.269 0.068,-0.433c-0.005,-0.138 0.145,-1.233 -0.099,-1.291c-0.045,-0.299 -0.039,-0.604 -0.06,-0.907c-0.012,0.006 -0.022,0.012 -0.034,0.018c-0.01,-0.313 -0.35,-0.241 -0.377,-0.553c-0.141,-0.037 0.035,-0.41 -0.12,-0.418c-0.022,-0.15 -0.131,-0.263 -0.201,-0.398c-0.166,-0.317 -0.035,-1.318 -0.396,-1.286c-0.039,-0.301 -0.191,-0.294 -0.232,-0.595c-0.086,-0.087 -0.541,-0.504 -0.216,-0.521c-0.043,-0.302 -0.133,-0.168 -0.143,-0.471c-0.29,0.395 -0.025,-0.387 -0.046,-0.372c-0.047,-0.302 0.004,-0.488 -0.157,-0.741c0.049,-0.047 0.231,-0.157 0.282,-0.113c-0.034,-0.557 0.279,-0.68 0.283,-1.237c-0.087,0.533 0.61,-0.853 0.713,-0.91c0.288,-0.16 0.318,-0.38 0.59,-0.551c0.334,-0.209 0.504,-0.383 0.826,-0.598c0.371,-0.247 0.996,-0.517 1.413,-0.711c0.374,-0.175 1.004,-0.319 1.407,-0.4c0.631,-0.127 1.141,-0.163 1.777,-0.273c0.932,-0.16 2.042,-0.082 2.981,-0.122c0.348,-0.016 0.786,0.138 1.14,0.187c0.322,0.045 0.601,0.022 0.906,0.149c0.598,0.252 1.052,0.403 1.577,0.814c0.312,0.247 0.719,0.679 0.938,0.997c0.137,0.196 0.235,0.521 0.326,0.732c0.103,0.237 0.174,0.483 0.342,0.677c0.282,0.329 0.384,0.674 0.491,1.11c0.189,0.769 0.397,2.002 0.167,2.779c-0.048,0.162 -0.155,0.325 -0.215,0.495c-0.07,0.198 0.003,0.482 -0.042,0.69c-0.09,0.411 -0.284,0.774 -0.388,1.188c-0.17,0.674 -0.465,1.349 -0.39,2.094c0.074,0.746 0.058,1.299 0.532,1.88c0.216,0.263 0.176,0.705 0.413,0.94c0.231,0.231 0.473,0.837 0.71,1.057c0.442,0.413 0.813,0.49 1.107,1.083c0.129,0.26 0.357,0.916 0.2,1.148c-0.198,0.291 -0.579,0.608 -0.891,0.715c-0.44,0.152 -0.491,-0.107 -0.913,0.178c-0.313,0.211 -0.642,0.835 -0.544,1.197c0.107,0.404 0.401,1.093 0.379,1.545c-0.031,0.602 -0.731,0.672 -1.073,1.041c0.443,0.358 0.249,1.211 -0.092,1.545c-0.462,0.453 -1.178,-0.019 -1.604,0.447c-0.754,0.826 -0.385,1.984 -0.958,2.825c-1.132,1.66 -3.336,0.926 -4.104,0.695c-0.279,-0.043 -1.473,-0.546 -1.555,-0.597c-0.233,-0.143 -0.818,-0.388 -1.165,-0.463c-0.024,0.296 -0.463,0.369 -0.487,0.665c-0.232,0.02 0.09,0.21 -0.139,0.286c-0.028,0.304 -0.159,0.026 -0.17,0.331c-0.277,-0.252 -0.255,0.236 -0.264,0.198c-0.026,0.291 -0.477,0.472 -0.518,0.76c-0.075,-0.035 -0.142,0.2 0.054,0.342c-0.04,0.291 -0.292,0.137 -0.317,0.428c-0.061,-0.143 -0.026,0.565 -0.147,0.651c-0.052,0.037 -0.103,0.398 -0.131,0.437c-0.004,0.006 0.034,2.189 0.034,2.012c0,0.366 0.17,2.266 0.17,2.631c-0.206,0.532 -1.02,-0.961 -1.014,-1.008c-0.261,-0.283 -0.282,-0.547 -0.651,-0.735c-0.432,-0.219 -0.319,-0.473 -0.737,-0.719c-0.616,-0.362 -0.705,-0.607 -1.382,-0.871c-0.685,-0.268 -0.228,-0.261 -0.948,-0.325c-0.386,-0.034 -1.011,-0.44 -1.396,-0.479c-0.451,-0.047 -1.429,-0.754 -1.926,-1.052c-0.62,-0.371 -0.308,-0.233 -0.744,-0.484c-1.097,-0.631 -0.816,-0.656 -1.215,-0.945" fill="#ffe6c7" stroke="none" stroke-width="1"/><path d="M340.203,102.613c-0.151,0.121 -0.292,0.203 -0.479,0.268c-0.156,0.054 -0.308,0.121 -0.461,0.181c-0.09,0.034 -0.149,0.061 -0.211,0.141c-0.063,0.083 -0.072,0.24 -0.11,0.345c-0.047,0.128 -0.017,0.223 -0.01,0.356c0.01,0.219 0.105,0.417 0.151,0.627c0.024,0.114 0.059,0.193 0.127,0.292c0.061,0.089 0.119,0.16 0.194,0.236c0.046,0.046 0.076,0.09 0.137,0.122c0.042,0.021 0.14,0.025 0.16,0.072c0.045,0.097 -0.224,0.051 -0.271,0.049c-0.354,-0.018 -0.688,-0.095 -1.03,-0.177c-0.197,-0.047 -0.395,-0.1 -0.586,-0.16c-0.208,-0.065 -0.398,-0.164 -0.609,-0.237c-0.248,-0.085 -0.477,-0.167 -0.697,-0.307c-0.074,-0.047 -0.17,-0.11 -0.174,-0.209c-0.004,-0.073 0.043,-0.103 0.082,-0.16c0.044,-0.059 0.064,-0.137 0.105,-0.194c0.074,-0.099 0.22,-0.168 0.329,-0.221c0.371,-0.179 0.773,-0.301 1.169,-0.414c0.375,-0.106 0.756,-0.191 1.127,-0.308c0.215,-0.069 0.438,-0.104 0.655,-0.171c0.131,-0.041 0.265,-0.104 0.397,-0.136" fill="#ffffff" stroke="none" stroke-width="1"/><path d="M339.006,103.127c0.1,-0.011 0.175,-0.101 0.258,-0.149c0.088,-0.051 0.183,-0.083 0.282,-0.11c0.186,-0.053 0.398,-0.089 0.591,-0.102c0.104,-0.007 0.163,0.016 0.225,0.107c0.097,0.141 0.198,0.265 0.263,0.425c0.054,0.127 0.117,0.242 0.146,0.378c0.029,0.128 0.017,0.264 0.017,0.396c0,0.317 -0.164,0.576 -0.329,0.837c-0.152,0.238 -0.332,0.315 -0.606,0.301c-0.091,-0.004 -0.175,-0.029 -0.261,-0.064c-0.13,-0.056 -0.2,-0.173 -0.316,-0.244c-0.074,-0.045 -0.108,-0.053 -0.142,-0.136c-0.037,-0.087 -0.08,-0.175 -0.101,-0.265c-0.088,-0.347 -0.216,-0.754 -0.122,-1.112c0.025,-0.106 0.052,-0.186 0.116,-0.27" fill="#371e10" stroke="none" stroke-width="1"/><path d="M325.218,166.144c0,0.497 -0.006,0.959 0.104,1.419c0.154,0.629 0.174,1.51 0.345,2.129c0.385,1.401 0.659,3.145 1.088,4.553c0.525,1.721 0.907,2.979 1.434,4.717c0.445,1.469 0.761,2.878 1.066,4.377c0.462,2.267 1.73,3.942 2.984,5.821c0.508,0.761 1.284,1.535 1.422,2.425c0.154,0.984 -0.174,2.059 0.06,3.004c0.155,0.632 1.292,2.013 1.079,2.189c-1.298,1.059 -2.097,-0.231 -2.546,0.943c-0.376,0.979 -0.97,1.943 -1.374,2.958c-0.346,0.864 -0.902,1.832 -1.641,2.427c-0.403,0.326 -0.718,0.535 -1.241,0.535c-0.227,0 -0.383,-0.092 -0.651,-0.06c-0.261,0.026 -0.437,0.167 -0.709,0.175c-1.108,0.028 -0.987,-1.425 -1.226,-2.189c-0.665,-2.112 -1.139,-3.912 -1.035,-6.194c0.048,-1.072 -0.223,-1.984 -0.223,-3.031c0,-1.042 -0.041,-1.967 0.157,-2.954c0.233,-1.162 0.463,-1.694 -0.111,-2.784c-0.528,-1.003 -0.857,-2.013 -1.422,-3.016c-1.176,-2.092 -2.283,-4.247 -3.428,-6.342c-1.298,-2.378 -2.516,-4.852 -3.594,-7.319c-0.457,-1.051 -1.101,-1.994 -1.49,-3.076c-0.173,-0.479 -0.991,-2.508 0.028,-2.026c0.705,0.337 1.253,1.112 1.995,1.479c0.889,0.44 1.735,0.687 2.72,0.784c1.1,0.11 2.061,-0.013 3.157,-0.169c0.524,-0.076 1.21,-0.218 1.695,-0.413c0.377,-0.15 0.959,-0.276 1.356,-0.306" fill="#ffe6c7" stroke="none" stroke-width="1"/><path d="M328.762,181.459c-0.057,0.611 0.215,0.846 0.49,1.332c0.258,0.458 0.394,1.068 0.516,1.562c0.143,0.572 0.203,2.331 0.997,2.42c0.057,-1.096 0.732,-1.825 0.837,-2.889c0.127,-1.256 -0.966,-1.573 -1.941,-2.021c-0.084,-0.367 -0.592,-0.358 -0.896,-0.462M324.626,188.261c0.105,0.298 -0.055,1.141 -0.166,1.489c-0.269,0.855 -0.324,1.778 -0.367,2.709c-0.02,0.429 0.006,0.908 -0.282,1.198c-0.25,0.253 -0.838,0.462 -1.151,0.678c-1.736,1.193 -3.593,1.593 -5.713,1.487c-0.003,-0.078 0.023,-0.278 -0.01,-0.346c-0.213,-0.439 -0.79,-2.066 -0.535,-2.363c0.255,-0.298 1.119,-0.411 1.482,-0.578c0.509,-0.235 1.012,-0.538 1.538,-0.769c1.927,-0.843 3.223,-2.694 5.143,-3.444" fill="#ff1f00" stroke="none" stroke-width="1"/><path d="M330.21,127.508c0.072,-0.279 0.019,-0.594 0.473,-0.774c0.716,-0.284 1.506,1.038 1.693,1.381c0.55,1.012 0.793,2.264 1.068,3.358c0.288,1.147 0.646,2.178 0.973,3.321c0.353,1.228 1.139,2.558 1.574,3.781c0.726,2.042 1.276,3.835 1.489,5.979c0.239,2.418 -0.708,4.184 -1.705,6.278c-0.95,1.997 -2.314,3.905 -2.908,6.028c-0.285,1.016 0.001,2.221 -0.057,3.325c-0.07,1.311 -0.141,2.362 0.213,3.631c0.31,1.108 0.179,2.417 0.292,3.537c0.115,1.112 -0.264,2.205 -0.062,3.305c0.101,0.548 0.309,1.025 0.527,1.52c0.3,0.675 0.368,0.86 0.892,1.322c0.793,0.699 0.417,2.066 0.063,2.859c-0.925,2.086 -3.236,2.589 -5.266,3.203c-1.544,0.469 -1.316,-0.74 -1.654,-1.833c-0.157,-0.508 -0.44,-0.941 -0.63,-1.454c-0.196,-0.528 -0.145,-1.113 -0.279,-1.652c-0.338,-1.374 -0.67,-2.624 -0.938,-4.03c-0.14,-0.732 -0.224,-1.398 -0.464,-2.115c-0.22,-0.654 -0.566,-1.326 -0.523,-2.04c-1.035,-0.212 -1.839,0.245 -2.813,0.48c-0.944,0.228 -2.405,0.148 -3.458,-0.023c-0.89,-0.143 -1.848,-0.481 -2.707,-0.862c-0.896,-0.398 -1.483,-1.288 -2.313,-1.645c-0.307,0.394 0.108,1.134 0.199,1.578c0.115,0.571 0.467,0.889 0.711,1.404c0.245,0.511 0.546,1.216 0.754,1.729c0.22,0.543 0.236,0.932 0.532,1.432c0.536,0.912 1.191,1.854 1.623,2.853c0.415,0.959 0.725,1.931 1.253,2.842c0.799,1.38 1.81,2.641 1.726,4.334c-2.7,0.307 -4.678,-0.288 -6.96,-1.143c-1.862,-0.697 -5.153,-3.116 -4.467,-5.489c0.287,-0.985 0.849,-1.627 0.943,-2.678c-0.19,-0.422 -0.665,-2.007 -0.86,-2.458c-0.189,-0.437 -0.331,-1.003 -0.214,-1.503c0.122,-0.528 0.59,-0.916 0.841,-1.386c0.53,-0.991 0.348,-2.207 0.348,-3.306c-0.004,-1.12 0.482,-2.003 0.528,-3.103c0.053,-1.208 -0.277,-2.208 -0.396,-3.359c-0.13,-1.259 -0.138,-2.503 -0.216,-3.78c-0.141,-2.347 -0.14,-4.773 -0.25,-7.137c-0.104,-2.277 -0.095,-4.349 0.328,-6.557c0.127,-0.651 0.367,-1.235 0.402,-1.902c0.026,-0.573 0.041,-1.1 0.13,-1.652c0.184,-1.16 0.665,-2.27 1.104,-3.37c0.441,-1.102 0.949,-2.175 1.358,-3.289c0.379,-1.028 1.105,-1.854 1.64,-2.793c0.474,-0.838 0.987,-1.59 1.45,-2.458c0.563,-1.059 1.889,-1.197 2.597,-2.017c1.096,-1.271 1.494,-0.167 2.188,0.458c0.83,0.747 1.87,1.106 2.849,1.707c0.904,0.552 2.165,0.64 3.077,1.057c0.815,0.374 1.575,1.148 2.097,1.85c0.399,0.536 0.944,0.856 1.336,1.388" fill="#ff1f00" stroke="none" stroke-width="1"/><path d="M328.296,179.715c1.174,-0.149 3.651,-0.784 5.033,-1.672c0.373,1.923 0.845,3.689 1.305,5.618c0.458,1.919 0.42,2.994 0.887,4.855c0.5,2.002 2.02,4.918 2.417,6.934c0.406,2.068 0.925,4.39 1.439,6.433c0.933,3.713 3.952,9.008 1.772,12.854c-2.414,4.26 -4.726,7.3 -6.515,11.462c-0.936,2.174 -1.844,4.669 -1.957,7.036c-0.108,2.245 -1.083,3.998 -1.077,6.216c0.005,2.159 -0.368,3.646 -0.047,5.863c0.244,1.688 2.027,4.653 1.077,6.53c-0.362,0.714 -2.415,1.152 -1.727,2.02c0.401,0.504 1.748,1.018 2.298,1.938c0.804,1.341 -0.05,4.215 -0.972,5.189c-1.669,1.767 -4.434,2.353 -6.652,2.656c-3.032,0.417 -6.566,0.363 -9.574,1.082c-4.219,1.009 -8.146,2.596 -9.627,3.821c-0.715,0.591 -4.705,-1.407 -4.749,-2.8c-0.045,-1.391 0.384,-1.971 1.307,-2.513c0.66,-0.386 1.693,-0.725 2.031,-1.413c0.483,-0.991 -0.455,-1.946 -0.783,-2.811c-0.491,-1.295 -0.198,-3.811 0.753,-4.999c0.917,-1.146 2.412,-2.457 3.515,-3.705c-1.738,-0.536 -2.641,-3.178 -3.317,-4.643c-0.393,-0.848 -0.893,-1.92 -1.028,-2.779c-0.206,-1.329 -0.105,-2.059 -0.975,-3.063c-1.544,-1.781 -3.492,-1.307 -3.833,-3.754c-0.122,-0.887 -0.266,-2.777 0.291,-3.555c0.662,-0.931 4.411,-1.701 5.316,-2.343c1.051,-0.745 -0.769,-2.344 0.34,-4.075c1.387,-2.161 5.222,-3.688 7.16,-5.542c2.265,-2.166 1.166,-3.635 1.172,-6.24c0.005,-2.602 -0.541,-4.507 -1.145,-7.007c-0.266,-1.096 -0.458,-2.542 -0.85,-3.604c-0.46,-1.255 -0.797,-2.728 -1.163,-4.03c-0.643,-2.297 -1.993,-4.312 -2.449,-6.612c-0.467,-2.372 -0.544,-5.772 -0.167,-8.194c0.168,-1.081 0.109,-2.45 0.555,-3.466c0.23,-0.531 1.988,-3.332 2.146,-3.874c0.085,-0.291 1.449,1.053 1.666,1.211c0.894,0.644 3.46,1.307 4.623,1.676c1.458,0.462 3.817,-0.486 4.788,0.989c0.298,0.453 0.413,1.091 0.629,1.488c0.271,0.5 0.616,1.657 0.996,2.103c0.621,0.728 0.981,1.39 1.305,2.249c0.476,1.272 -0.632,1.604 -1.768,2.578c-0.812,0.694 -2.738,1.628 -3.65,2.215c-1.209,0.779 -1.911,0.712 -3.209,1.314c0.755,0.744 0.773,1.515 1.065,2.474c2.516,0.193 5.396,-0.933 7.354,-2.353c0.051,0.951 -0.33,2.054 -0.104,3.026c0.169,0.734 1.121,5.586 1.457,6.297c0.835,1.772 0.564,0.657 1.428,0.908c2.814,0.814 4.511,-4.545 5.33,-6.527c0.825,0.274 1.725,0.272 2.389,-0.396c-0.618,-1.237 -1.226,-1.615 -1.22,-3.059c0.006,-1.783 0.478,-1.943 -0.727,-3.535c-0.519,-0.684 -2.016,-2.564 -2.154,-3.363c-0.222,-1.285 1.166,-2.365 0.897,-3.85c-0.777,-0.194 -1.099,-0.89 -2.116,-1.346c-1.147,-0.518 -0.495,-0.962 -1.056,-1.916" fill="#a7deff" stroke="none" stroke-width="1"/><path d="M303.842,243.68c0.543,-0.561 1.222,1.83 1.503,2.318c0.523,0.906 0.866,1.818 1.354,2.769c0.467,0.91 1.615,1.47 0.844,2.449c-0.513,0.651 -1.292,1.654 -2.046,2.064c-0.795,0.431 -1.662,-0.574 -2.433,-0.96c-0.981,-0.491 -1.547,-0.922 -1.984,-1.966c-0.386,-0.926 -0.774,-2.197 -0.263,-3.169c0.473,-0.902 1.521,-1.708 2.219,-2.46c0.303,-0.328 0.613,-0.655 0.806,-1.045" fill="#ff1f00" stroke="none" stroke-width="1"/><path d="M304.968,253.592c0.276,0.229 -0.571,2.086 -0.995,2.204c-0.33,0.094 -1.312,-0.862 -1.863,-1.259c-0.845,-0.608 -1.681,-1.139 -2.479,-1.817c-0.427,-0.362 -0.916,-0.679 -1.011,-1.239c-0.094,-0.574 0.133,-1.144 0.267,-1.652c0.138,-0.518 0.179,-0.982 0.473,-1.449c0.328,-0.523 0.921,-0.822 1.232,-1.319c-0.576,0.953 0.179,3.396 0.818,4.206c0.469,0.592 1.211,0.855 1.832,1.223c0.466,0.268 1.759,0.564 1.722,1.171" fill="#bfb3d8" stroke="none" stroke-width="1"/><path d="M329.658,262.757c-0.171,0.511 3.889,1.097 4.36,1.146c0.882,0.086 1.711,0.09 2.601,0.043c0.523,-0.028 1.898,-0.139 1.895,0.615c-0.001,0.304 -0.378,0.787 -0.529,1.058c-0.179,0.322 -0.241,0.732 -0.44,1.013c-0.301,0.422 -0.861,0.73 -1.235,1.098c-0.455,0.451 -0.843,0.832 -1.439,1.093c-1.231,0.537 -2.38,1.248 -3.67,1.651c-1.399,0.438 -2.905,0.99 -4.354,1.179c-1.24,0.162 -2.719,0.336 -3.973,0.134c-0.946,-0.153 -1.704,-0.166 -2.642,-0.298c-1.303,-0.184 -2.868,-0.694 -4.129,-1.113c-1.033,-0.346 -2.062,-0.81 -3.138,-1.005c-0.923,-0.166 -1.848,-0.258 -2.678,-0.702c-0.641,-0.344 -1.639,-0.484 -1.858,-1.29c2.522,-1.288 5.257,-2.223 8.055,-2.761c1.578,-0.305 3.024,-0.644 4.628,-0.715c1.469,-0.067 2.994,-0.091 4.449,-0.266c0.881,-0.106 1.722,-0.371 2.565,-0.607c0.541,-0.151 1.146,-0.332 1.708,-0.186" fill="#ff1f00" stroke="none" stroke-width="1"/><path d="M338.47,264.343c-0.145,0.06 0.507,0.824 0.617,1.099c0.141,0.353 0.201,0.814 0.22,1.191c0.034,0.728 0.206,1.834 -0.056,2.515c-0.356,0.922 -1.228,1.726 -2.026,2.252c-1.325,0.878 -3.009,1.359 -4.47,2.006c-3.1,1.377 -7.68,1.994 -10.6,1.529c-1.75,-0.28 -2.891,-0.782 -4.483,-1.519c-1.392,-0.645 -2.92,-1.104 -4.401,-1.488c-1.613,-0.418 -3.228,-1.011 -4.805,-1.565c-0.404,-0.138 -0.971,-0.266 -1.176,-0.657c-0.17,-0.323 -0.099,-0.778 -0.099,-1.135c0,-0.59 0.004,-0.592 0.531,-0.848c0.414,-0.203 0.635,-0.532 0.97,-0.166c0.485,0.528 1.249,1.047 2.071,1.232c1.34,0.299 2.733,0.6 4.097,0.914c1.331,0.303 2.593,0.938 3.921,1.278c1.349,0.346 2.233,0.706 3.616,0.843c1.57,0.156 3.83,0 5.384,-0.314c1.5,-0.302 3.004,-0.628 4.444,-1.173c1.079,-0.413 2.208,-1.043 3.212,-1.6c0.364,-0.202 0.544,-0.545 0.877,-0.794c0.367,-0.272 0.698,-0.577 1.013,-0.914c0.676,-0.721 0.893,-1.342 1.132,-2.249c0.036,-0.13 0.114,-0.257 0.145,-0.393" fill="#bfb3d8" stroke="none" stroke-width="1"/><path d="M324.868,102.242c-1.682,-1.41 -2.722,0.801 -3.057,1.899c-0.258,0.85 -0.084,1.745 0.222,2.551c0.35,0.923 1.087,1.675 1.804,2.322c0.469,0.424 1.171,0.92 1.851,0.717c0.493,-0.145 0.757,-0.737 0.964,-1.152c0.057,-0.116 0.427,0.013 0.383,0.102c-1.322,2.661 -4.003,0.438 -5.029,-1.368c-0.969,-1.703 -0.88,-3.51 0.354,-5.063c0.803,-1.01 1.943,-0.775 2.809,-0.049c0.162,0.136 -0.22,0.108 -0.301,0.041zM326.562,108.68c0.504,-1.02 -1.43,-0.669 -1.996,-0.742c-0.82,-0.107 -1.521,-0.666 -1.772,-1.45c-0.036,-0.111 0.343,-0.059 0.379,0.056c0.48,1.502 1.886,1.086 3.073,1.252c0.572,0.081 0.991,0.394 0.698,0.987c-0.056,0.116 -0.427,-0.011 -0.382,-0.103zM322.383,104.076c0.13,-0.907 1.059,-0.967 1.795,-0.806c1.293,0.283 1.732,1.794 2.517,2.684c0.097,0.111 -0.282,0.073 -0.353,-0.008c-0.554,-0.63 -0.916,-1.393 -1.449,-2.038c-0.569,-0.689 -1.974,-0.802 -2.126,0.269c-0.015,0.109 -0.402,0.023 -0.384,-0.101zM341.463,93.601c1.199,1.85 1.964,3.856 1.612,6.08c-0.326,2.044 -1.837,4.523 -0.387,6.49c0.093,0.125 -0.289,0.079 -0.353,-0.008c-1.01,-1.369 -0.588,-3.214 -0.14,-4.703c0.428,-1.419 0.764,-2.754 0.498,-4.246c-0.231,-1.3 -0.874,-2.527 -1.583,-3.621c-0.086,-0.132 0.293,-0.082 0.353,0.008zM342.654,106.123c0.503,1.208 2.253,2.041 2.262,3.392c0.004,0.54 -0.591,0.889 -1.003,1.085c-0.216,0.102 -0.512,0.119 -0.741,0.142c-0.863,0.095 -0.594,1.145 -0.558,1.648c0.01,0.134 -0.371,0.054 -0.38,-0.057c-0.034,-0.48 -0.108,-0.961 0.039,-1.427c0.14,-0.443 1.069,-0.404 1.332,-0.477c2.437,-0.682 -0.89,-3.3 -1.331,-4.362c-0.044,-0.099 0.331,-0.057 0.38,0.056zM342.561,110.245c-0.587,0.154 -1.169,0.501 -1.787,0.272c-0.592,-0.22 -0.77,-0.736 -0.365,-1.241c0.071,-0.089 0.438,0.04 0.357,0.141c-0.339,0.422 -0.251,1.053 0.431,0.978c0.363,-0.038 0.703,-0.228 1.053,-0.32c0.104,-0.026 0.449,0.134 0.311,0.17zM339.124,113.415c0.757,-0.894 2.113,-1.106 3.221,-1.148c0.126,-0.006 0.413,0.179 0.157,0.189c-1.048,0.039 -2.307,0.259 -3.02,1.1c-0.075,0.088 -0.44,-0.043 -0.358,-0.141zM342.612,112.39c1.568,2.926 -3.678,2.473 -4.992,1.325c-0.159,-0.139 0.221,-0.11 0.301,-0.041c1.228,1.072 5.721,1.292 4.31,-1.34c-0.045,-0.087 0.322,-0.052 0.381,0.056zM341.842,114.384c1.082,2.052 -1.849,2.326 -3.118,1.601c-0.225,-0.127 0.122,-0.147 0.23,-0.085c0.596,0.34 1.407,0.359 2.048,0.143c0.832,-0.278 0.813,-1.046 0.46,-1.716c-0.047,-0.087 0.322,-0.053 0.38,0.057zM340.426,116.379c-1.605,0.617 -0.284,3.42 -2.373,3.916c-1.657,0.393 -3.34,-0.356 -4.861,-0.941c-3.994,-1.54 -8.275,-4.88 -8.345,-9.58c-0.001,-0.093 0.381,-0.029 0.384,0.103c0.068,4.579 4.225,7.839 8.104,9.351c1.574,0.613 4.592,1.999 5.606,-0.112c0.44,-0.914 0.015,-2.458 1.176,-2.905c0.102,-0.04 0.451,0.115 0.309,0.168zM324.171,109.501c0.023,2.038 -0.667,4.253 -1.207,6.21c-0.516,1.881 -1.324,3.734 -2.896,4.959c-0.097,0.074 -0.444,-0.076 -0.357,-0.141c1.578,-1.228 2.324,-3.053 2.87,-4.92c0.567,-1.932 1.229,-4.192 1.207,-6.21c-0.001,-0.095 0.382,-0.03 0.383,0.102zM330.201,127.056c-0.239,-1.546 -0.397,-3.054 -0.154,-4.611c0.239,-1.542 1.17,-2.399 1.989,-3.625c0.061,-0.091 0.433,0.029 0.357,0.141c-0.815,1.218 -1.638,2.102 -1.964,3.585c-0.329,1.492 -0.079,3.08 0.152,4.566c0.02,0.129 -0.362,0.057 -0.38,-0.056zM334.444,101.763c0.985,-0.586 1.925,-1.191 3.049,-1.462c1.157,-0.278 2.467,0.174 3.63,0.161c0.127,-0.002 0.414,0.187 0.156,0.19c-0.918,0.009 -1.807,-0.154 -2.721,-0.224c-1.389,-0.107 -2.634,0.81 -3.755,1.476c-0.106,0.064 -0.44,-0.093 -0.359,-0.141z" fill="#010101" stroke="none" stroke-width="1"/><path d="M332.73,85.536c-2.091,-1.598 -4.491,-1.908 -7.038,-1.961c-0.076,-0.002 -0.434,-0.157 -0.249,-0.154c2.768,0.06 5.38,0.422 7.634,2.146c0.078,0.061 -0.276,0.024 -0.347,-0.031zM324.057,101.577c-0.899,-2.569 -1.706,-6.013 -0.715,-8.659c1.177,-3.145 4.741,-5.404 7.465,-7.037c0.094,-0.057 0.409,0.101 0.361,0.129c-2.843,1.704 -6.061,3.867 -7.443,7.01c-1.11,2.524 -0.15,6.171 0.709,8.626c0.023,0.069 -0.345,0.028 -0.377,-0.069zM322.118,102.345c-2.479,-3.025 -4.554,-6.808 -3.607,-10.823c0.735,-3.121 3.856,-6.987 6.9,-8.097c0.083,-0.03 0.424,0.106 0.315,0.146c-3.159,1.152 -5.927,4.92 -6.832,8.053c-1.126,3.89 1.227,7.891 3.601,10.789c0.022,0.027 -0.306,0.02 -0.377,-0.068z" fill="#010101" stroke="none" stroke-width="1"/><path d="M341.238,93.648c-1.347,-1.891 -4.554,-1.781 -6.618,-1.687c-2.408,0.108 -4.725,0.72 -6.423,2.538c-2.184,2.335 -0.403,4.686 0.448,7.124c0.747,2.136 0.435,4.134 -1.251,5.693c-0.127,0.118 -0.458,-0.07 -0.295,-0.222c2.925,-2.71 0.859,-5.719 -0.223,-8.714c-0.851,-2.355 0.978,-4.448 2.874,-5.551c1.886,-1.099 4.205,-1.205 6.334,-1.174c1.83,0.025 4.316,0.249 5.475,1.878c0.143,0.199 -0.217,0.26 -0.321,0.115zM325.146,102.131c1.708,1.212 2.733,2.886 2.467,5.022c-0.022,0.179 -0.405,0.086 -0.384,-0.102c0.251,-2.019 -0.727,-3.597 -2.339,-4.741c-0.212,-0.151 0.1,-0.288 0.256,-0.179zM330.722,87.739c2.287,-0.935 5.072,-0.695 7.313,0.244c1.156,0.484 2.219,1.272 2.944,2.294c0.746,1.052 0.377,2.159 0.613,3.326c0.039,0.192 -0.353,0.144 -0.388,-0.028c-0.172,-0.858 0.029,-1.691 -0.23,-2.544c-0.376,-1.239 -1.653,-2.049 -2.717,-2.629c-2.101,-1.146 -5.106,-1.307 -7.315,-0.402c-0.164,0.068 -0.446,-0.168 -0.22,-0.261zM330.877,85.815c2.362,-0.956 5.481,-0.302 7.669,0.836c0.991,0.514 2.055,1.355 2.604,2.347c0.863,1.566 0.331,3.118 0.456,4.806c0.015,0.201 -0.374,0.147 -0.389,-0.029c-0.079,-1.068 0.128,-2.12 0.082,-3.187c-0.062,-1.439 -1.219,-2.553 -2.311,-3.333c-2.023,-1.446 -5.551,-2.124 -7.89,-1.179c-0.164,0.067 -0.448,-0.17 -0.221,-0.261zM307.491,95.587c-1.591,1.24 -2.183,-1.347 -2.037,-2.509c0.411,-3.309 3.236,-5.427 5.979,-6.914c2.269,-1.229 4.798,-2.05 7.321,-2.57c1.278,-0.264 2.614,-0.45 3.921,-0.452c0.82,-0.001 1.927,-0.105 2.691,0.258c0.235,0.112 0.025,0.323 -0.172,0.229c-0.618,-0.296 -1.586,-0.187 -2.254,-0.201c-1.15,-0.022 -2.311,0.148 -3.445,0.334c-1.728,0.283 -3.434,0.814 -5.073,1.419c-2.471,0.915 -4.83,2.238 -6.692,4.12c-0.86,0.87 -1.448,1.891 -1.767,3.073c-0.138,0.504 -0.322,4.198 1.232,2.988c0.138,-0.104 0.473,0.088 0.296,0.225zM323.676,108.797c0.331,0.894 0.573,1.597 0.435,2.564c-0.146,0.989 -0.61,2.008 -1.006,2.921c-0.675,1.553 -1.71,2.919 -3.316,3.554c-0.93,0.368 -2.034,0.339 -2.578,-0.577c-0.894,-1.505 0.64,-3.392 1.607,-4.362c0.124,-0.125 0.486,0.033 0.349,0.17c-0.973,0.98 -1.748,1.98 -1.751,3.423c-0.004,2.556 3.257,0.607 4.033,-0.243c0.782,-0.854 1.261,-1.973 1.668,-3.039c0.192,-0.504 0.359,-1.016 0.511,-1.532c0.318,-1.071 0.055,-1.828 -0.319,-2.831c-0.077,-0.211 0.306,-0.21 0.367,-0.048zM319.213,113.064c-1.13,1.456 -3.431,4.767 -5.248,2.239c-1.449,-2.022 1.564,-5.13 3.077,-6.155c0.144,-0.097 0.477,0.099 0.296,0.223c-1.488,1.008 -2.925,2.697 -3.273,4.491c-0.144,0.752 0.179,1.41 0.749,1.886c0.71,0.59 1.569,-0.089 2.098,-0.535c0.77,-0.651 1.337,-1.529 1.95,-2.319c0.107,-0.14 0.473,0.013 0.351,0.17zM313.528,97.917c-1.199,0.678 -2.337,1.469 -3.422,2.319c-0.854,0.671 -1.47,1.592 -2.468,2.068c-1.536,0.734 -2.775,-0.434 -2.606,-1.963c0.335,-3.045 2.215,-5.099 4.277,-7.18c1.66,-1.675 3.852,-2.919 6.199,-3.303c0.192,-0.03 0.39,0.24 0.133,0.282c-1.969,0.324 -3.912,1.31 -5.4,2.627c-1.687,1.491 -3.256,3.163 -4.197,5.23c-0.438,0.968 -0.699,2.097 -0.617,3.158c0.174,2.221 2.746,0.435 3.459,-0.3c1.229,-1.27 2.82,-2.292 4.348,-3.161c0.148,-0.084 0.482,0.117 0.294,0.223zM314.059,105.991c-0.761,0.813 -1.574,1.435 -2.246,2.361c-0.76,1.045 -1.488,2.165 -2.576,2.897c-1.423,0.957 -2.699,-0.473 -2.793,-1.82c-0.129,-1.893 0.879,-3.945 1.688,-5.599c1.092,-2.237 2.635,-4.683 4.89,-5.891c0.149,-0.08 0.484,0.121 0.295,0.223c-3.17,1.699 -5.168,5.836 -6.154,9.171c-0.227,0.767 -0.366,1.562 -0.309,2.362c0.026,0.414 0.177,0.78 0.43,1.104c0.825,1.055 2.046,0.004 2.656,-0.648c0.765,-0.814 1.361,-1.764 2.031,-2.65c0.503,-0.668 1.177,-1.076 1.742,-1.68c0.117,-0.129 0.48,0.028 0.346,0.17zM316.328,110.176c-1.448,0.503 -2.12,1.919 -2.829,3.163c-0.476,0.835 -1.262,2.213 -2.357,2.34c-2.934,0.339 -1.935,-3.961 -1.199,-5.412c0.08,-0.154 0.443,-0.013 0.349,0.171c-0.616,1.209 -1.063,2.797 -0.616,4.121c0.394,1.176 1.826,0.735 2.476,0.066c0.337,-0.347 0.591,-0.78 0.841,-1.191c0.833,-1.371 1.489,-2.957 3.116,-3.519c0.165,-0.058 0.448,0.182 0.219,0.261zM332.302,90.941c3.188,-0.491 6.645,-0.264 9.084,2.073c0.173,0.167 -0.197,0.236 -0.321,0.117c-2.315,-2.216 -5.626,-2.369 -8.631,-1.908c-0.191,0.028 -0.389,-0.243 -0.132,-0.282zM315.782,101.408c1.152,-1.431 2.639,-1.977 4.439,-2.109c0.191,-0.014 0.392,0.262 0.133,0.282c-1.722,0.126 -3.121,0.631 -4.223,1.997c-0.111,0.139 -0.474,-0.016 -0.349,-0.17zM316.7,89.434c0.875,-0.67 1.947,-0.642 2.947,-0.281c0.227,0.081 0.162,0.35 -0.07,0.266c-0.893,-0.32 -1.799,-0.36 -2.581,0.238c-0.138,0.105 -0.473,-0.088 -0.296,-0.223zM315.087,96.622c0.695,-1.349 1.966,-2.167 3.499,-1.843c0.24,0.052 0.165,0.317 -0.072,0.267c-1.383,-0.294 -2.47,0.571 -3.078,1.745c-0.078,0.155 -0.443,0.012 -0.349,-0.169zM322.438,107.579c-0.204,1.153 -0.653,2.329 -1.762,2.878c-0.16,0.079 -0.439,-0.154 -0.219,-0.262c1.026,-0.506 1.411,-1.667 1.599,-2.718c0.032,-0.181 0.415,-0.082 0.382,0.102z" fill="#000000" stroke="none" stroke-width="1"/><path d="M341.285,102.271c-0.608,0.522 -1.245,0.694 -2.013,0.878c-0.621,0.148 -1.252,0.247 -1.874,0.392c-0.084,0.02 -1.255,0.313 -0.961,0.606c0.157,0.158 -0.22,0.143 -0.306,0.059c-0.494,-0.495 0.455,-0.704 0.822,-0.808c1.326,-0.373 2.891,-0.339 3.976,-1.274c0.101,-0.087 0.457,0.06 0.356,0.147zM340.903,105.277c-1.393,0.785 -3.443,-0.393 -4.648,-1.085c-0.224,-0.128 0.115,-0.176 0.236,-0.107c1.065,0.611 2.896,1.693 4.108,1.011c0.104,-0.06 0.457,0.094 0.304,0.181zM340.119,105.457c-1.272,0.02 -1.683,-1.599 -1.042,-2.52c0.072,-0.103 0.443,0.023 0.356,0.147c-0.387,0.558 -0.433,2.177 0.535,2.162c0.138,-0.001 0.41,0.208 0.151,0.211zM340.54,102.756c0.661,0.867 0.72,2.124 -0.343,2.685c-0.108,0.056 -0.461,-0.099 -0.307,-0.181c0.992,-0.524 0.9,-1.707 0.294,-2.501c-0.102,-0.132 0.282,-0.099 0.356,-0.003zM337.519,103.565c-0.471,-0.023 -0.879,-0.206 -1.28,-0.447c-0.049,-0.03 -0.119,-0.107 -0.034,-0.145c0.083,-0.037 0.198,-0.007 0.271,0.038c0.276,0.166 0.561,0.328 0.892,0.344c0.087,0.004 0.198,0.026 0.254,0.102c0.049,0.073 -0.044,0.111 -0.103,0.108zM338.313,103.416c-0.465,0.065 -1.02,-0.182 -1.417,-0.404c-0.051,-0.029 -0.117,-0.108 -0.035,-0.145c0.084,-0.039 0.196,-0.005 0.271,0.037c0.245,0.139 0.653,0.351 0.945,0.31c0.091,-0.013 0.2,0.011 0.27,0.072c0.061,0.05 0.047,0.118 -0.034,0.13zM337.392,104.732c-0.784,0.058 -1.629,-0.4 -2.096,-1.014c-0.058,-0.076 0.048,-0.104 0.102,-0.108c0.429,-0.029 0.855,-0.082 1.283,-0.112c0.142,-0.01 0.409,0.192 0.151,0.211c-0.43,0.03 -0.855,0.084 -1.284,0.112c0.035,-0.034 0.068,-0.07 0.102,-0.106c0.361,0.472 0.984,0.853 1.592,0.809c0.141,-0.013 0.409,0.189 0.15,0.208zM336.227,104.047c0.22,0.211 0.474,0.399 0.758,0.496c-0.034,0.055 -0.066,0.11 -0.099,0.167c-0.098,-0.039 -0.192,-0.077 -0.288,-0.115c0.063,-0.042 0.129,-0.085 0.191,-0.128c0.08,0.045 0.16,0.09 0.239,0.135c-0.077,0.034 -0.156,0.07 -0.235,0.106c-0.054,-0.027 -0.108,-0.055 -0.162,-0.082c-0.208,-0.093 -0.074,-0.212 0.1,-0.168c0.094,0.025 0.176,0.053 0.27,0.087c-0.05,0.05 -0.098,0.1 -0.149,0.149c-0.067,-0.022 -0.137,-0.043 -0.204,-0.065c0.018,-0.061 0.033,-0.123 0.05,-0.184c0.097,0.032 0.19,0.067 0.287,0.099c-0.047,0.05 -0.095,0.099 -0.143,0.146c-0.06,-0.026 -0.119,-0.055 -0.179,-0.081c0.077,-0.034 0.153,-0.068 0.228,-0.103c0.035,0.021 0.069,0.044 0.103,0.066c0.205,0.123 -0.075,0.183 -0.192,0.129c-0.121,-0.057 -0.195,-0.101 -0.301,-0.182c-0.177,-0.134 0.196,-0.122 0.271,-0.083c0.108,0.057 0.21,0.11 0.31,0.179c0.219,0.153 -0.12,0.17 -0.236,0.107c-0.115,-0.063 -0.228,-0.131 -0.343,-0.194c-0.214,-0.117 0.078,-0.175 0.192,-0.129c0.172,0.07 0.343,0.137 0.51,0.216c-0.063,0.044 -0.129,0.088 -0.192,0.13c-0.257,-0.133 -0.5,-0.203 -0.696,-0.426c-0.111,-0.128 0.242,-0.094 0.298,-0.056c0.331,0.232 0.7,0.393 1.046,0.598c0.182,0.106 -0.022,0.179 -0.141,0.145c-0.665,-0.192 -1.288,-0.53 -1.822,-0.967c0.1,-0.02 0.203,-0.04 0.305,-0.059c0.261,0.258 0.588,0.374 0.917,0.521c-0.05,0.05 -0.099,0.099 -0.149,0.15c-0.316,-0.153 -0.627,-0.303 -0.902,-0.525c-0.169,-0.137 0.191,-0.131 0.271,-0.083c0.217,0.134 0.45,0.239 0.669,0.373c0.205,0.126 -0.075,0.181 -0.192,0.129c-0.316,-0.144 -0.629,-0.291 -0.901,-0.509c-0.173,-0.139 0.195,-0.125 0.271,-0.082c0.225,0.125 0.45,0.239 0.654,0.4c0.168,0.134 -0.189,0.136 -0.271,0.082c-0.248,-0.159 -0.51,-0.29 -0.756,-0.449c0.079,-0.035 0.157,-0.071 0.236,-0.107c0.138,0.091 0.284,0.152 0.436,0.215c-0.064,0.043 -0.13,0.086 -0.193,0.129c-0.173,-0.108 -0.344,-0.195 -0.485,-0.344c-0.14,-0.148 0.145,-0.139 0.228,-0.104c0.132,0.056 0.241,0.124 0.354,0.212c0.17,0.133 -0.192,0.13 -0.271,0.083c-0.122,-0.072 -0.236,-0.149 -0.346,-0.237c-0.166,-0.132 0.186,-0.142 0.27,-0.083c0.075,0.052 0.123,0.094 0.183,0.16c0.117,0.128 -0.244,0.087 -0.296,0.056c-0.093,-0.058 -0.17,-0.112 -0.259,-0.177c0.111,-0.011 0.221,-0.02 0.33,-0.031c0.059,0.059 0.114,0.118 0.171,0.177c0.159,0.156 -0.192,0.132 -0.271,0.083c-0.097,-0.06 -0.193,-0.11 -0.293,-0.165c-0.213,-0.116 0.078,-0.176 0.193,-0.129c0.141,0.058 0.282,0.115 0.424,0.173c-0.049,0.051 -0.098,0.1 -0.149,0.15c-0.146,-0.072 -0.254,-0.137 -0.347,-0.273c-0.082,-0.12 0.148,-0.105 0.202,-0.094c0.117,0.027 0.226,0.055 0.337,0.099c0.168,0.064 0.125,0.197 -0.048,0.177c-0.124,-0.015 -0.237,-0.036 -0.354,-0.074c-0.165,-0.055 -0.235,-0.222 -0.002,-0.194c0.095,0.013 0.189,0.021 0.285,0.025c0.035,0.069 0.068,0.139 0.102,0.208c-0.123,-0.01 -0.244,-0.023 -0.368,-0.043c-0.074,-0.011 -0.352,-0.17 -0.144,-0.204c0.176,-0.027 0.334,-0.058 0.502,-0.122c0.091,0.063 0.18,0.128 0.271,0.192c-0.168,0.018 -0.327,0.055 -0.491,0.097c-0.064,-0.07 -0.129,-0.139 -0.193,-0.207c0.225,-0.02 0.449,-0.056 0.674,-0.075c0.097,-0.009 0.405,0.158 0.193,0.207c-0.221,0.051 -0.434,0.119 -0.647,0.197c-0.1,0.037 -0.469,-0.103 -0.306,-0.181c0.511,-0.244 1.066,-0.422 1.626,-0.507c0.079,0.068 0.157,0.137 0.237,0.203c-0.623,0.072 -1.216,0.291 -1.844,0.332c-0.14,0.01 -0.409,-0.193 -0.15,-0.21c0.598,-0.039 1.164,-0.255 1.757,-0.324c0.112,-0.012 0.455,0.17 0.237,0.203c-0.538,0.082 -1.066,0.252 -1.557,0.486c-0.102,-0.059 -0.205,-0.121 -0.306,-0.181c0.237,-0.086 0.473,-0.161 0.717,-0.218c0.064,0.069 0.129,0.138 0.193,0.207c-0.226,0.02 -0.449,0.056 -0.675,0.076c-0.098,0.008 -0.404,-0.152 -0.193,-0.207c0.163,-0.043 0.322,-0.079 0.491,-0.098c0.07,-0.007 0.447,0.126 0.271,0.192c-0.189,0.073 -0.374,0.113 -0.573,0.143c-0.049,-0.068 -0.097,-0.137 -0.145,-0.204c0.122,0.02 0.243,0.034 0.367,0.044c0.13,0.012 0.339,0.212 0.103,0.208c-0.128,-0.003 -0.253,-0.017 -0.381,-0.032c-0.001,-0.064 -0.002,-0.13 -0.002,-0.194c0.08,0.031 0.163,0.05 0.25,0.054c-0.017,0.059 -0.031,0.117 -0.048,0.177c-0.078,-0.026 -0.157,-0.048 -0.237,-0.063c0.068,-0.032 0.137,-0.064 0.202,-0.096c0.047,0.043 0.095,0.086 0.142,0.128c0.242,0.119 0.021,0.218 -0.149,0.149c-0.141,-0.058 -0.283,-0.114 -0.424,-0.172c0.063,-0.043 0.129,-0.086 0.191,-0.128c0.1,0.054 0.196,0.105 0.293,0.164c-0.091,0.027 -0.18,0.056 -0.271,0.083c-0.079,-0.077 -0.145,-0.147 -0.22,-0.23c-0.121,-0.133 0.272,-0.073 0.332,-0.03c0.061,0.042 0.127,0.084 0.189,0.126c-0.099,0.019 -0.197,0.038 -0.296,0.057c-0.02,-0.019 -0.041,-0.039 -0.062,-0.058c0.091,-0.028 0.18,-0.056 0.27,-0.082c0.087,0.071 0.178,0.133 0.277,0.187c-0.091,0.026 -0.18,0.055 -0.271,0.082c-0.065,-0.04 -0.132,-0.079 -0.197,-0.119c0.076,-0.035 0.152,-0.07 0.228,-0.104c0.119,0.127 0.27,0.204 0.416,0.295c0.207,0.13 -0.077,0.177 -0.193,0.13c-0.182,-0.075 -0.356,-0.148 -0.521,-0.257c-0.218,-0.142 0.118,-0.183 0.236,-0.106c0.247,0.159 0.51,0.29 0.756,0.449c-0.092,0.027 -0.18,0.056 -0.271,0.083c-0.18,-0.143 -0.385,-0.241 -0.584,-0.351c0.091,-0.028 0.18,-0.056 0.271,-0.083c0.224,0.18 0.485,0.297 0.745,0.417c-0.064,0.042 -0.129,0.085 -0.193,0.128c-0.219,-0.134 -0.45,-0.239 -0.669,-0.373c0.09,-0.027 0.18,-0.055 0.27,-0.083c0.228,0.184 0.484,0.307 0.747,0.433c0.242,0.115 0.02,0.226 -0.148,0.15c-0.384,-0.174 -0.769,-0.311 -1.074,-0.614c-0.162,-0.162 0.22,-0.127 0.306,-0.058c0.46,0.375 0.996,0.676 1.567,0.841c-0.048,0.049 -0.095,0.098 -0.144,0.145c-0.347,-0.204 -0.716,-0.365 -1.046,-0.597c0.1,-0.019 0.197,-0.037 0.297,-0.056c0.141,0.16 0.387,0.226 0.575,0.323c0.209,0.108 -0.073,0.185 -0.192,0.129c-0.167,-0.08 -0.338,-0.147 -0.511,-0.218c0.064,-0.041 0.13,-0.085 0.193,-0.128c0.115,0.063 0.228,0.132 0.342,0.194c-0.078,0.035 -0.157,0.071 -0.235,0.106c-0.1,-0.07 -0.203,-0.123 -0.309,-0.179c0.09,-0.028 0.18,-0.056 0.271,-0.083c0.048,0.029 0.096,0.059 0.145,0.088c-0.063,0.042 -0.13,0.086 -0.192,0.129c-0.062,-0.037 -0.116,-0.073 -0.174,-0.115c-0.167,-0.123 0.159,-0.133 0.229,-0.104c0.093,0.04 0.172,0.078 0.264,0.124c0.185,0.096 -0.025,0.183 -0.143,0.145c-0.097,-0.031 -0.191,-0.067 -0.287,-0.099c-0.223,-0.072 -0.182,-0.239 0.05,-0.184c0.119,0.027 0.191,0.054 0.302,0.1c0.251,0.106 0.02,0.213 -0.148,0.151c-0.057,-0.019 -0.112,-0.036 -0.17,-0.054c0.034,-0.056 0.065,-0.111 0.099,-0.167c0.088,0.039 0.162,0.077 0.247,0.125c0.227,0.127 -0.114,0.175 -0.235,0.107c-0.08,-0.045 -0.161,-0.09 -0.241,-0.135c-0.212,-0.119 0.079,-0.175 0.192,-0.128c0.098,0.038 0.193,0.075 0.29,0.115c0.209,0.085 0.073,0.222 -0.1,0.167c-0.388,-0.124 -0.73,-0.338 -1.024,-0.62c-0.159,-0.158 0.219,-0.146 0.307,-0.062zM337.984,105.027c-0.188,-0.003 -0.37,-0.038 -0.557,-0.06c-0.183,-0.02 -0.322,-0.228 -0.055,-0.204c0.19,0.017 0.376,0.049 0.564,0.088c0.179,0.038 0.226,0.226 0.002,0.195c-0.141,-0.02 -0.282,-0.043 -0.424,-0.062c-0.18,-0.024 -0.323,-0.234 -0.054,-0.204c0.183,0.019 0.362,0.052 0.541,0.089c-0.017,0.061 -0.032,0.123 -0.05,0.185c-0.127,-0.035 -0.254,-0.07 -0.38,-0.109c0.034,-0.057 0.067,-0.111 0.099,-0.167c0.116,0.045 0.234,0.083 0.355,0.112c0.119,0.032 0.264,0.192 0.052,0.198c-0.236,0.006 -0.441,-0.025 -0.662,-0.109c-0.17,-0.066 -0.125,-0.197 0.048,-0.179c0.155,0.018 0.302,0.041 0.454,0.074c0.12,0.026 0.26,0.208 0.051,0.197c-0.887,-0.043 -1.652,-0.441 -2.236,-1.105c-0.109,-0.123 0.277,-0.094 0.356,-0.005c0.449,0.512 1.037,0.865 1.729,0.899c0.017,0.066 0.034,0.133 0.05,0.198c-0.116,-0.026 -0.231,-0.043 -0.349,-0.054c0.017,-0.059 0.03,-0.118 0.048,-0.177c0.12,0.016 0.24,0.031 0.361,0.048c0.018,0.065 0.035,0.132 0.052,0.197c-0.156,-0.042 -0.307,-0.09 -0.456,-0.146c-0.213,-0.08 -0.074,-0.22 0.099,-0.167c0.125,0.039 0.254,0.073 0.381,0.108c0.232,0.062 0.18,0.232 -0.049,0.183c-0.147,-0.029 -0.291,-0.052 -0.439,-0.068c-0.018,-0.068 -0.035,-0.138 -0.054,-0.205c0.141,0.02 0.282,0.043 0.423,0.062c0,0.064 0,0.13 0.001,0.193c-0.153,-0.031 -0.304,-0.053 -0.46,-0.067c-0.019,-0.068 -0.036,-0.138 -0.056,-0.205c0.155,0.018 0.308,0.051 0.462,0.054c0.14,0.005 0.412,0.217 0.153,0.213zM336.403,104.118c0.029,0.037 0.066,0.068 0.096,0.103c-0.123,-0.018 -0.246,-0.033 -0.369,-0.05c0.003,-0.037 0.013,-0.073 0.016,-0.111c0.007,-0.078 0.175,-0.054 0.216,-0.04c0.206,0.061 0.378,0.164 0.47,0.363c0.059,0.126 -0.273,0.054 -0.31,0.029c-0.151,-0.105 -0.324,-0.201 -0.378,-0.391c-0.037,-0.134 0.347,-0.076 0.382,0.05c0.032,0.117 0.138,0.168 0.232,0.232c-0.103,0.01 -0.205,0.02 -0.308,0.029c-0.029,-0.06 -0.074,-0.109 -0.136,-0.129c0.072,-0.014 0.144,-0.027 0.217,-0.04c-0.003,0.037 -0.014,0.073 -0.016,0.11c-0.012,0.139 -0.327,0.007 -0.37,-0.049c-0.03,-0.037 -0.067,-0.066 -0.095,-0.104c-0.056,-0.072 0.047,-0.105 0.102,-0.106c0.086,0 0.196,0.032 0.251,0.104zM338.312,105.209c-0.639,-0.217 -1.315,-0.306 -1.927,-0.602c-0.399,-0.191 -0.658,-0.587 -0.998,-0.856c-0.171,-0.135 0.213,-0.131 0.305,-0.058c0.465,0.368 0.74,0.763 1.338,0.964c0.471,0.156 0.96,0.243 1.43,0.403c0.255,0.086 0.021,0.206 -0.148,0.149z" fill="#000000" stroke="none" stroke-width="1"/><path d="M325.239,166.213c0.892,6.541 3.362,12.701 4.733,19.137c0.021,0.102 -0.477,0.026 -0.502,-0.093c-1.376,-6.451 -3.847,-12.625 -4.74,-19.181c-0.009,-0.05 0.489,-0.012 0.509,0.137zM324.51,187.77c-1.963,-3.74 -3.979,-7.456 -5.867,-11.233c-1.238,-2.477 -2.441,-4.972 -3.562,-7.501c-0.676,-1.528 -1.752,-3.405 -1.811,-5.118c-0.002,-0.067 0.507,-0.006 0.511,0.137c0.06,1.776 1.214,3.746 1.917,5.329c1.119,2.523 2.329,5.008 3.563,7.477c1.848,3.7 3.828,7.341 5.753,11.004c0.029,0.059 -0.439,0.03 -0.504,-0.095zM333.55,191.989c-0.876,-2.603 -3.256,-4.421 -4.132,-7.043c-0.03,-0.086 0.46,-0.031 0.501,0.095c0.878,2.622 3.257,4.438 4.133,7.043c0.03,0.084 -0.46,0.03 -0.502,-0.095zM324.008,195.709c0.044,-2.625 -0.567,-5.462 0.499,-7.963c0.05,-0.115 0.546,0.055 0.51,0.139c-1.064,2.5 -0.453,5.337 -0.497,7.962c-0.002,0.074 -0.515,0 -0.512,-0.138zM334.011,191.923c0.299,2.196 -1.032,4.476 -1.855,6.433c-0.049,0.117 -0.546,-0.052 -0.511,-0.137c0.824,-1.957 2.153,-4.238 1.856,-6.435c-0.008,-0.048 0.49,-0.01 0.51,0.139zM332.453,196.444c-2.696,0.791 -5.315,0.095 -7.884,-0.822c-0.343,-0.122 -0.014,-0.17 0.175,-0.102c2.391,0.853 4.781,1.469 7.287,0.734c0.113,-0.034 0.562,0.149 0.422,0.19zM332.215,198.248c-0.595,1.558 -1.43,3.08 -2.437,4.407c-0.524,0.693 -1.244,1.471 -2.142,0.959c-0.214,-0.121 0.301,-0.054 0.389,-0.004c0.495,0.281 1.867,-1.981 2.064,-2.295c0.63,-1.011 1.19,-2.092 1.615,-3.204c0.043,-0.116 0.545,0.046 0.511,0.137zM329.948,197.911c-0.463,1.981 -0.679,4.501 -2.116,6.064c-0.082,0.09 -0.552,-0.097 -0.481,-0.173c1.419,-1.544 1.63,-4.077 2.086,-6.029c0.023,-0.1 0.535,0.026 0.511,0.138zM327.339,203.843c-1.276,-1.608 -0.171,-4.424 0.106,-6.209c0.013,-0.093 0.529,0.017 0.51,0.138c-0.275,1.762 -1.362,4.593 -0.113,6.166c0.026,0.03 -0.409,0.023 -0.503,-0.095zM334.378,196.603c-0.44,-0.937 -0.774,-1.859 -0.923,-2.884c-0.008,-0.049 0.49,-0.013 0.511,0.137c0.149,1.014 0.482,1.918 0.916,2.842c0.032,0.066 -0.443,0.031 -0.504,-0.095zM335.079,196.751c-0.575,0.944 -2.081,0.881 -2.866,0.249c-0.102,-0.082 0.367,-0.027 0.46,0.047c0.573,0.46 1.534,0.16 1.895,-0.432c0.073,-0.121 0.547,0.078 0.511,0.136zM325.296,202.25c-0.72,-2.165 -1.324,-4.396 -1.34,-6.707c-0.001,-0.07 0.509,-0.002 0.511,0.139c0.017,2.279 0.622,4.529 1.331,6.663c0.03,0.086 -0.461,0.03 -0.502,-0.095zM327.566,203.549c-0.717,0.719 -1.599,0.713 -1.975,-0.313c-0.665,-1.806 0.161,-3.988 0.106,-5.855c-0.003,-0.067 0.507,-0.004 0.51,0.137c0.033,1.092 -0.174,2.108 -0.249,3.187c-0.05,0.738 -0.253,4.056 1.125,2.676c0.09,-0.093 0.551,0.098 0.483,0.168z" fill="#010101" stroke="none" stroke-width="1"/><path d="M310.773,160.127c-0.339,0.662 -0.298,1.601 -0.354,2.323c-0.079,1.009 -0.122,2.026 -0.311,3.022c-0.176,0.924 -1.124,1.334 -1.029,2.353c0.095,1.052 1.092,1.895 1.25,2.987c0.036,0.248 -0.484,0.172 -0.516,-0.045c-0.161,-1.119 -0.978,-1.914 -1.25,-2.986c-0.256,-0.998 0.83,-1.569 1.035,-2.445c0.396,-1.692 -0.095,-3.864 0.709,-5.427c0.094,-0.191 0.585,-0.012 0.466,0.218zM309.214,175.9c-1.078,-1.8 0.504,-3.446 0.599,-5.278c0.016,-0.259 0.53,-0.168 0.516,0.044c-0.091,1.758 -1.654,3.473 -0.629,5.187c0.141,0.237 -0.378,0.228 -0.486,0.047zM330.412,127.492c-0.21,-0.101 -0.331,0.205 -0.277,-0.149c0.056,-0.362 0.188,-0.541 0.407,-0.829c0.077,-0.102 0.243,-0.069 0.344,-0.03c1.018,0.403 1.661,1.096 2.006,2.135c0.486,1.46 0.783,3.006 1.226,4.485c1.271,4.233 3.735,8.113 3.509,12.677c-0.195,3.969 -3.227,6.782 -4.279,10.459c-0.576,2.015 -0.231,4.164 -0.169,6.22c0.063,2.023 0.641,3.816 0.36,5.857c-0.031,0.222 -0.542,0.097 -0.512,-0.137c0.279,-2.014 -0.28,-3.776 -0.365,-5.765c-0.077,-1.819 -0.257,-3.625 -0.008,-5.437c0.518,-3.767 3.637,-6.571 4.345,-10.318c0.851,-4.49 -1.774,-8.628 -3.126,-12.722c-0.533,-1.615 -1.023,-3.26 -1.379,-4.924c-0.133,-0.627 -0.389,-1.167 -0.816,-1.648c-1.082,-1.217 -0.707,0.014 -1.047,0.419c-0.08,0.097 -0.243,0.079 -0.345,0.031c-0.033,-0.016 -0.064,-0.03 -0.095,-0.046c-0.315,-0.151 -0.032,-0.4 0.221,-0.278zM333.574,168.077c-0.188,1.301 -0.226,3.694 0.742,4.691c0.904,0.931 1.319,2.128 0.822,3.376c-0.934,2.344 -4.467,3.327 -6.65,3.87c-0.204,0.049 -0.604,-0.254 -0.298,-0.33c2.318,-0.575 6.117,-1.643 6.643,-4.375c0.302,-1.568 -1.337,-2.385 -1.629,-3.78c-0.238,-1.122 -0.304,-2.452 -0.14,-3.589c0.031,-0.22 0.543,-0.096 0.51,0.137zM327.25,159.255c0.139,1.165 0.2,2.321 0.114,3.494c-0.044,0.624 -0.248,2.639 -0.938,2.96c-2.535,1.183 -5.179,1.839 -7.978,1.406c-1.96,-0.304 -3.974,-1.302 -5.091,-2.993c-1.191,-1.802 -1.584,-3.973 -2.215,-6.005c-0.068,-0.227 0.453,-0.164 0.516,0.044c0.5,1.616 0.864,3.284 1.565,4.828c0.914,2.018 2.68,3.151 4.78,3.688c1.324,0.337 2.717,0.274 4.054,0.069c1.181,-0.18 3.684,-0.704 4.266,-1.893c0.828,-1.692 0.631,-3.836 0.412,-5.644c-0.033,-0.25 0.488,-0.172 0.515,0.046zM330.049,127.121c2.136,2.944 2.198,7.415 1.304,10.817c-0.315,1.194 -0.838,2.335 -1.338,3.462c-0.624,1.407 -1.622,3.111 -1.082,4.685c0.329,0.958 1.105,1.316 0.988,2.421c-0.035,0.332 -0.294,0.689 -0.461,0.971c-0.597,1.015 -0.62,1.827 -0.072,2.884c0.13,0.248 -0.386,0.234 -0.485,0.047c-0.443,-0.853 -0.602,-1.528 -0.276,-2.451c0.456,-1.293 1.216,-1.778 0.217,-3.198c-1.408,-2.005 0.194,-4.418 1.036,-6.347c1.698,-3.886 2.413,-9.477 -0.254,-13.154c-0.189,-0.262 0.293,-0.315 0.423,-0.137zM329.323,152.24c0.235,1.355 1.04,2.378 0.75,3.796c-0.186,0.909 -0.853,1.776 -1.557,2.344c-1.581,1.276 -3.751,1.993 -5.748,1.383c-0.309,-0.094 -0.224,-0.423 0.087,-0.329c1.918,0.585 4.023,-0.223 5.464,-1.518c0.681,-0.613 1.121,-1.422 1.302,-2.312c0.24,-1.173 -0.619,-2.277 -0.814,-3.409c-0.043,-0.243 0.479,-0.169 0.516,0.045zM314.241,141.074c-0.683,-2.726 -1.218,-5.489 -0.841,-8.304c0.373,-2.765 1.966,-5.199 4.11,-6.924c1.816,-1.462 4.292,-2.309 6.627,-2.215c1.098,0.044 2.062,0.281 3.033,0.806c1.181,0.639 1.945,1.759 2.878,2.682c0.225,0.222 -0.272,0.284 -0.423,0.135c-0.802,-0.792 -1.47,-1.676 -2.384,-2.351c-1.229,-0.907 -2.763,-0.979 -4.224,-0.862c-2.541,0.204 -4.862,1.604 -6.555,3.444c-3.524,3.827 -2.865,9.009 -1.705,13.633c0.06,0.234 -0.461,0.167 -0.516,-0.044zM311.3,158.268c-0.466,-1.197 -0.141,-2.13 0.73,-3.038c0.599,-0.625 1.145,-0.725 0.939,-1.759c-0.194,-0.968 -0.4,-1.933 -0.572,-2.906c-0.622,-3.558 -0.046,-6.662 1.87,-9.714c0.115,-0.183 0.607,0.003 0.468,0.218c-1.292,2.062 -2.078,4.152 -2.109,6.607c-0.03,2.29 0.617,4.566 1.042,6.799c0.011,0.05 -0.021,0.093 -0.06,0.12c-1.279,0.851 -2.474,1.965 -1.823,3.625c0.105,0.266 -0.407,0.245 -0.485,0.048zM315.884,157.718c-1.498,-0.771 -2.549,-1.858 -2.616,-3.609c-0.009,-0.257 0.508,-0.173 0.516,0.044c0.059,1.593 0.947,2.578 2.322,3.285c0.309,0.16 0.028,0.408 -0.222,0.28zM315.896,123.146c0.948,-1.361 2.403,-1.815 3.593,-2.884c0.142,-0.128 0.376,-0.064 0.477,0.086c1.063,1.564 3.515,2.848 5.283,3.391c0.307,0.095 0.223,0.423 -0.089,0.329c-1.937,-0.595 -4.514,-1.961 -5.679,-3.672c0.159,0.029 0.319,0.058 0.477,0.086c-1.183,1.06 -2.651,1.531 -3.594,2.882c-0.124,0.179 -0.613,-0.01 -0.468,-0.218zM320.975,180.512c-1.947,0.862 -4.487,0.061 -6.395,-0.545c-2.314,-0.735 -4.132,-1.885 -5.367,-4.066c-0.138,-0.242 0.382,-0.231 0.485,-0.048c1.156,2.039 2.833,3.077 4.974,3.785c1.787,0.59 4.189,1.351 6.005,0.545c0.198,-0.088 0.591,0.2 0.298,0.329zM310.282,159.994c-0.03,-5.261 -0.941,-10.493 -0.947,-15.759c-0.01,-7.312 2.13,-15.222 6.562,-21.09c0.132,-0.176 0.619,0.018 0.468,0.218c-4.479,5.931 -6.583,13.962 -6.512,21.349c0.048,5.12 0.915,10.208 0.945,15.326c0.002,0.258 -0.515,0.171 -0.516,-0.044z" fill="#010101" stroke="none" stroke-width="1"/><path d="M315.884,193.151c3.329,-1.156 6.382,-2.674 8.699,-5.403c0.066,-0.078 0.429,0.054 0.36,0.136c-2.329,2.744 -5.405,4.263 -8.746,5.425c-0.094,0.031 -0.438,-0.114 -0.313,-0.158zM324.362,193.341c-0.998,0.706 -1.978,1.462 -3.118,1.929c-1.343,0.55 -2.91,0.61 -4.333,0.729c-0.091,0.008 -0.445,-0.152 -0.247,-0.169c1.436,-0.119 2.906,-0.216 4.268,-0.717c1.125,-0.416 2.105,-1.223 3.072,-1.908c0.092,-0.063 0.426,0.088 0.358,0.136zM328.7,181.103c0.982,0.707 2.219,1.067 3.066,1.96c0.09,0.094 -0.282,0.051 -0.348,-0.02c-0.829,-0.873 -2.051,-1.223 -3.014,-1.917c-0.161,-0.115 0.222,-0.076 0.296,-0.023zM316.274,193.306c0.401,0.774 0.822,1.682 0.75,2.575c-0.006,0.086 -0.391,0.012 -0.382,-0.101c0.072,-0.877 -0.353,-1.777 -0.747,-2.537c-0.036,-0.069 0.325,-0.038 0.379,0.063zM331.788,183.024c-0.094,1.417 -0.601,2.633 -0.881,4.008c-0.02,0.094 -0.403,0.001 -0.383,-0.103c0.28,-1.374 0.786,-2.593 0.881,-4.007c0.006,-0.084 0.391,-0.013 0.383,0.102z" fill="#000000" stroke="none" stroke-width="1"/><path d="M314.308,220.842c0.966,1.521 3.529,1.339 4.634,0.08c0.131,-0.146 0.617,0.043 0.472,0.209c-1.347,1.529 -4.452,1.527 -5.588,-0.26c-0.135,-0.217 0.383,-0.185 0.482,-0.029zM318.707,224.868c-1.533,-0.197 -3.278,-0.179 -4.55,-1.181c-0.711,-0.563 -1.481,-2.835 0.07,-2.677c0.263,0.026 0.416,0.348 0.062,0.313c-0.787,-0.08 -0.363,1.333 -0.237,1.617c0.287,0.655 0.996,0.976 1.634,1.173c0.952,0.297 1.976,0.311 2.958,0.439c0.261,0.035 0.415,0.363 0.063,0.316zM310.759,199.752c1.703,5.992 3.135,12.108 3.315,18.362c0.071,2.483 0.021,5.004 -0.186,7.48c-0.138,1.62 -0.522,3.208 -0.859,4.793c-0.164,0.779 -0.263,1.53 -0.536,2.287c-0.347,0.957 -0.635,1.739 -0.371,2.775c0.055,0.209 -0.463,0.136 -0.511,-0.056c-0.368,-1.426 0.364,-2.58 0.7,-3.933c0.412,-1.645 0.701,-3.371 0.96,-5.047c0.408,-2.64 0.346,-5.417 0.297,-8.082c-0.111,-6.337 -1.596,-12.57 -3.321,-18.635c-0.06,-0.204 0.457,-0.132 0.512,0.056zM330.559,253.626c1.295,0.629 2.589,1.472 3.252,2.792c0.742,1.473 -0.633,3.52 -1.48,4.66c-1.107,1.484 -3.132,2.044 -4.848,2.431c-1.952,0.441 -3.992,0.539 -5.984,0.441c-0.267,-0.015 -0.413,-0.334 -0.061,-0.314c3.181,0.158 6.782,-0.151 9.536,-1.887c1.316,-0.829 2.157,-2.74 2.485,-4.19c0.395,-1.739 -1.822,-3.062 -3.11,-3.688c-0.317,-0.156 -0.029,-0.361 0.21,-0.245zM331.856,239.853c-0.028,2.807 -0.421,5.595 0.616,8.282c0.413,1.068 0.668,2.069 0.342,3.188c-0.136,0.473 -0.442,0.876 -0.815,1.182c-0.343,0.281 -1.326,0.756 -0.864,1.403c0.146,0.207 -0.374,0.178 -0.479,0.028c-0.395,-0.552 -0.045,-0.947 0.446,-1.32c1.451,-1.1 1.562,-2.475 1.011,-4.121c-0.495,-1.485 -0.836,-2.822 -0.887,-4.4c-0.045,-1.432 0.103,-2.864 0.118,-4.298c0.002,-0.232 0.515,-0.13 0.512,0.056zM333.491,177.908c1.622,5.65 2.734,11.312 2.455,17.206c-0.127,2.659 -0.444,5.309 -0.695,7.957c-0.158,1.685 -0.291,3.368 -0.401,5.056c-0.074,1.125 0.083,2.136 -0.119,3.243c-0.036,0.195 -0.547,0.067 -0.51,-0.14c0.152,-0.834 0.022,-1.51 0.065,-2.332c0.089,-1.731 0.231,-3.462 0.383,-5.188c0.241,-2.707 0.558,-5.41 0.73,-8.123c0.385,-6.074 -0.753,-11.915 -2.423,-17.733c-0.057,-0.206 0.46,-0.136 0.515,0.054zM334.732,211.328c0.088,1.709 0.489,3.437 0.736,5.126c0.256,1.752 0.729,3.527 0.205,5.248c-0.993,3.26 -2.06,6.502 -2.51,9.886c-0.37,2.77 -0.7,5.577 -1.308,8.307c-0.045,0.197 -0.556,0.064 -0.512,-0.139c0.562,-2.521 0.873,-5.104 1.221,-7.66c0.451,-3.316 1.316,-6.496 2.328,-9.685c0.323,-1.013 0.591,-1.771 0.485,-2.812c-0.11,-1.069 -0.271,-2.135 -0.425,-3.199c-0.244,-1.689 -0.646,-3.419 -0.735,-5.126c-0.009,-0.233 0.506,-0.137 0.515,0.054zM311.975,234.99c-0.025,5.816 -0.949,12.494 -4.765,17.129c-0.123,0.15 -0.615,-0.036 -0.471,-0.209c3.769,-4.58 4.699,-11.227 4.722,-16.976c0.002,-0.234 0.516,-0.132 0.514,0.056zM304.797,261.221c-0.375,-1.765 -1.143,-3.383 -0.965,-5.221c0.177,-1.795 1.601,-3.038 2.908,-4.087c0.153,-0.124 0.629,0.082 0.471,0.209c-1.25,1 -2.329,1.98 -2.785,3.575c-0.533,1.865 0.5,3.789 0.882,5.58c0.048,0.214 -0.47,0.133 -0.511,-0.056zM306.656,268.715c-1.887,-0.055 -4.259,-0.853 -5.084,-2.7c-1.286,-2.881 3.186,-2.865 3.354,-5.093c0.016,-0.189 0.529,-0.076 0.511,0.139c-0.13,1.731 -2.081,1.866 -3.088,2.936c-0.865,0.919 -0.307,2.302 0.456,3.045c0.919,0.893 2.41,1.321 3.663,1.357c0.204,0.003 0.532,0.325 0.188,0.316zM306.323,268.452c1.902,-1.694 4.519,-2.414 6.925,-3.06c2.783,-0.75 5.603,-1.691 8.509,-1.738c0.211,-0.004 0.536,0.312 0.19,0.318c-2.757,0.045 -5.387,0.941 -8.032,1.625c-2.453,0.634 -5.182,1.337 -7.119,3.063c-0.148,0.131 -0.629,-0.069 -0.473,-0.208zM310.406,199.766c-2.046,-3.214 -3.45,-7.294 -3.33,-11.118c0.12,-3.902 0.982,-8.035 3.334,-11.223c0.116,-0.156 0.61,0.025 0.471,0.209c-2.255,3.057 -3.098,6.993 -3.279,10.73c-0.196,3.93 1.182,8.079 3.283,11.377c0.136,0.214 -0.38,0.182 -0.479,0.025zM307.612,250.346c-2.244,-2.811 -3.673,-5.958 -4.23,-9.515c-0.032,-0.22 0.485,-0.138 0.513,0.057c0.55,3.525 1.974,6.651 4.197,9.433c0.153,0.189 -0.366,0.167 -0.48,0.025zM304.902,229.858c-0.121,-1.235 -0.535,-2.564 0.03,-3.749c0.383,-0.787 1.366,-1.259 2.072,-1.688c1.353,-0.82 2.594,-1.894 3.803,-2.907c1.019,-0.85 2.53,-1.856 2.885,-3.196c0.052,-0.199 0.563,-0.061 0.508,0.138c-0.272,1.034 -1.095,1.668 -1.869,2.35c-1.06,0.933 -2.147,1.827 -3.271,2.684c-0.901,0.693 -1.852,1.269 -2.787,1.91c-1.594,1.093 -1.018,2.895 -0.86,4.513c0.025,0.228 -0.49,0.137 -0.511,-0.055zM303.449,240.896c-0.465,-1.722 -2.543,-2.16 -3.716,-3.29c-0.861,-0.833 -0.736,-2.25 -0.63,-3.354c0.131,-1.342 0.532,-2.302 1.814,-2.859c1.195,-0.518 3.211,-0.374 3.945,-1.609c0.096,-0.164 0.587,0.01 0.469,0.211c-0.535,0.904 -1.747,1.066 -2.683,1.284c-1.736,0.403 -2.704,1.011 -2.998,2.823c-0.124,0.768 -0.128,1.552 -0.02,2.322c0.136,0.963 0.889,1.451 1.662,1.926c1.106,0.679 2.306,1.262 2.672,2.605c0.055,0.202 -0.463,0.13 -0.515,-0.059zM335.52,186.956c1.368,4.125 2.23,8.328 3.396,12.507c0.816,2.921 1.766,5.806 2.542,8.738c0.708,2.673 0.924,5.103 -0.427,7.611c-0.103,0.187 -0.599,0.025 -0.511,-0.138c1.335,-2.481 1.105,-4.892 0.425,-7.529c-0.756,-2.936 -1.714,-5.82 -2.542,-8.738c-1.185,-4.175 -2.03,-8.382 -3.398,-12.507c-0.063,-0.198 0.453,-0.13 0.515,0.056zM332.943,229.359c1.981,-4.934 4.802,-9.476 7.797,-13.85c0.109,-0.158 0.604,0.021 0.473,0.21c-2.981,4.348 -5.79,8.873 -7.76,13.779c-0.078,0.195 -0.584,0.044 -0.51,-0.139z" fill="#000000" stroke="none" stroke-width="1"/><path d="M304.21,243.694c-1.504,1.408 -3.2,2.564 -3.47,4.767c-0.199,1.623 0.93,2.983 2.242,3.759c0.795,0.469 1.608,0.658 2.216,1.399c0.126,0.149 -0.379,0.093 -0.468,-0.016c-0.788,-0.951 -2.132,-1.126 -3.035,-1.962c-0.864,-0.803 -1.41,-1.701 -1.48,-2.895c-0.142,-2.381 1.989,-3.81 3.515,-5.24c0.116,-0.106 0.591,0.086 0.48,0.188zM303.736,256.182c-1.138,-1.873 -3.501,-2.294 -4.883,-3.93c-1.711,-2.031 0.273,-4.403 1.904,-5.674c0.126,-0.098 0.588,0.101 0.478,0.187c-1.998,1.56 -3.636,4.064 -1.296,6.131c1.386,1.226 3.259,1.642 4.269,3.3c0.106,0.177 -0.399,0.105 -0.472,-0.014z" fill="#010101" stroke="none" stroke-width="1"/><path d="M327.206,271.735c-3.767,0.688 -7.452,-0.018 -10.996,-1.35c-1.668,-0.627 -3.287,-0.842 -5.014,-1.235c-1.213,-0.275 -2.277,-0.856 -3.064,-1.83c-0.126,-0.154 0.381,-0.096 0.468,0.013c1.71,2.118 4.523,1.616 6.833,2.5c3.741,1.435 7.426,2.391 11.448,1.66c0.137,-0.024 0.599,0.194 0.325,0.242zM337.685,271.129c-2.192,1.533 -4.692,2.385 -7.197,3.263c-2.27,0.793 -4.74,0.715 -7.115,0.737c-2.301,0.024 -4.656,-1.287 -6.734,-2.119c-3.064,-1.227 -6.345,-1.747 -9.392,-3.02c-0.336,-0.139 -0.022,-0.25 0.186,-0.162c2.51,1.046 5.166,1.526 7.726,2.402c2.475,0.85 4.858,2.189 7.458,2.606c1.169,0.189 2.505,0.031 3.682,-0.026c1.283,-0.062 2.562,-0.212 3.777,-0.646c2.481,-0.888 4.95,-1.699 7.131,-3.227c0.133,-0.089 0.585,0.116 0.478,0.192zM338.875,264.235c0.864,2.527 1.546,5.327 -1.189,6.892c-0.141,0.082 -0.582,-0.129 -0.478,-0.187c2.705,-1.55 2.011,-4.298 1.159,-6.779c-0.047,-0.14 0.455,-0.072 0.508,0.074zM338.569,264.079c0.486,0.524 -0.56,2.048 -0.902,2.518c-0.798,1.11 -1.814,1.954 -2.978,2.661c-2.25,1.37 -4.911,2.045 -7.486,2.479c-0.134,0.022 -0.596,-0.195 -0.322,-0.242c2.34,-0.395 4.634,-1.02 6.756,-2.102c1.102,-0.561 2.097,-1.307 2.943,-2.207c0.339,-0.363 2.044,-2.555 1.52,-3.118c-0.13,-0.141 0.372,-0.092 0.469,0.011zM338.65,264.152c-3.119,0.08 -6.177,0.011 -9.089,-1.226c-0.331,-0.14 -0.023,-0.253 0.19,-0.163c2.782,1.182 5.713,1.216 8.688,1.141c0.165,-0.006 0.553,0.238 0.211,0.248zM307.025,269.876c-0.092,-0.739 -0.435,-1.514 0.08,-2.17c0.092,-0.114 0.58,0.057 0.478,0.187c-0.479,0.611 -0.137,1.376 -0.053,2.059c0.022,0.17 -0.486,0.071 -0.505,-0.076z" fill="#010101" stroke="none" stroke-width="1"/><path d="M335.384,103.03c0.134,1.011 0.414,1.954 0.909,2.847c0.138,0.25 -0.382,0.245 -0.488,0.054c-0.51,-0.923 -0.799,-1.899 -0.938,-2.943c-0.034,-0.256 0.488,-0.183 0.517,0.042zM342.063,105.402c-1.649,1.194 -4.085,1.171 -5.994,0.752c-0.32,-0.07 -0.224,-0.411 0.091,-0.341c1.755,0.383 3.995,0.393 5.507,-0.702c0.179,-0.13 0.629,0.12 0.396,0.291zM335.101,102.762c2.115,-0.449 4.238,-1.337 6.407,-1.417c0.242,-0.01 0.524,0.351 0.18,0.364c-2.155,0.078 -4.299,0.97 -6.408,1.417c-0.245,0.052 -0.517,-0.293 -0.179,-0.364zM341.856,101.547c0.207,1.202 0.351,2.41 0.3,3.632c-0.011,0.264 -0.526,0.18 -0.517,-0.041c0.051,-1.222 -0.092,-2.43 -0.3,-3.632c-0.043,-0.252 0.479,-0.183 0.517,0.041z" fill="#010101" stroke="none" stroke-width="1"/><path d="M335.058,103.512c-1.491,0.003 -2.98,0.034 -4.47,0.024c-0.754,-0.005 -1.502,-0.007 -2.248,-0.118c-0.912,-0.136 -1.776,-0.464 -2.701,-0.521c-0.507,-0.03 -0.845,-0.612 -0.139,-0.57c1.592,0.096 3.071,0.605 4.691,0.625c1.49,0.02 2.981,-0.021 4.471,-0.023c0.384,0 1.087,0.583 0.396,0.583z" fill="#010101" stroke="none" stroke-width="1"/></g></g></svg>