<svg version="1.1" xmlns="http://www.w3.org/2000/svg" xmlns:xlink="http://www.w3.org/1999/xlink" width="158.63044" height="195.61835" viewBox="0,0,158.63044,195.61835"><g transform="translate(-240.68478,-85.95079)"><g stroke-miterlimit="10"><path d="M399.31522,267.87442c0,7.56338 -35.51064,13.69472 -79.31522,13.69472c-43.80458,0 -79.31522,-6.13134 -79.31522,-13.69472c0,-7.56338 35.51064,-13.69471 79.31522,-13.69471c43.80458,0 79.31522,6.13133 79.31522,13.69471z" fill-opacity="0.59608" fill="#000000" stroke="#000000" stroke-width="0"/><path d="M306.89235,95.9031c1.6824,-1.2179 2.9184,-1.4516 4.9827,-1.5627c2.2971,-0.1245 5.2155,0.5899 6.9141,1.6235c1.1286,0.6878 2.3285,1.7537 2.4292,3.25c0.0817,1.2036 -0.3848,2.4671 -0.7743,3.5777c-0.3819,1.0887 -1.2673,2.1194 -1.3195,3.2908c-0.0532,1.2207 0.6992,2.7578 1.2967,3.1806c0.3088,-0.7876 0.2841,-1.692 0.7961,-2.5023c0.2594,-0.4095 0.5235,-0.7819 0.8075,-1.1125c0.3297,-0.3876 0.6052,-0.4484 1.0488,-0.7419c0.5691,-0.3772 0.5007,-0.4066 0.7847,-1.0023c0.2166,-0.4588 0.3677,-0.8075 0.4342,-1.3157c0.1377,-1.0574 0.7153,-2.4254 0.7001,-3.5245c-0.0085,-0.6384 -0.114,-0.2299 -0.0247,-0.8579c0.1055,-0.7467 -0.0836,-1.7299 -0.4332,-2.4643c-0.2479,-0.5177 -0.3287,-1.4288 -0.7505,-1.8145c-0.5149,-0.4702 -0.6707,-0.4949 -1.0754,-1.101c-0.702,-1.0555 -1.7499,-1.6977 -2.7578,-2.4349c-1.0678,-0.7818 -2.2572,-1.7727 -3.5825,-2.089c-2.4111,-0.5757 -5.6097,0.3762 -7.6275,1.7109c-1.7243,1.1391 -2.2221,3.8266 -1.92,5.8245M322.66995,86.2502c0.3458,0.1757 1.5209,-0.1501 1.9817,-0.1064c1.0725,0.1026 1.9076,0.0579 2.9839,0.2099c2.3047,0.3306 4.7253,1.0944 6.9132,1.9589c3.2851,1.2968 6.611,3.7468 7.6199,7.2542c0.2575,0.8959 -0.1216,3.4153 -1.4098,3.0875c-0.0161,0.495 0.5073,0.9016 0.7952,1.2607c0.4085,0.5101 0.569,0.3182 0.6621,0.9614c0.1406,0.9899 0.8997,2.9222 0.019,3.8218c-1.8734,1.9105 -4.1543,-2.2268 -5.8558,-2.7645c0.1948,0.7049 1.3861,1.6198 1.7528,2.3228c0.3163,0.6099 0.6925,0.9728 0.968,1.5827c0.5824,1.2958 1.1552,2.4424 1.6103,3.8066c0.3163,0.9529 0.6992,2.7826 0.0408,3.7772c-1.0298,1.5495 -2.1242,0.267 -2.792,-0.4408c0.5263,0.9082 0.3363,2.3199 0.513,3.268c0.1634,0.8902 -0.4351,1.6464 -1.3652,1.7575c-0.4218,0.0494 -1.0649,0.0713 -1.3936,-0.2508c-0.3553,-0.3467 -0.5273,-0.6849 -0.7714,-1.1067c-0.495,-0.8607 -1.0355,-1.6825 -1.7138,-2.3494c0.0313,1.1543 1.3347,1.9247 0.4056,3.6338c-0.6859,1.2568 -2.2866,0.6241 -3.1796,-0.2727c0.0703,1.1514 0.8417,2.4938 -0.8208,2.7883c-1.3405,0.2365 -2.6515,-0.4617 -3.2718,-1.4108c-0.6574,-1.0041 -1.5267,-1.9589 -1.7604,-3.1587c-0.2109,-1.0764 -0.4788,-2.5033 -0.5339,-3.5996c-0.0399,-0.8445 0.8398,-1.1846 1.2949,-1.7717c0.6051,-0.7838 0.7856,-1.1514 0.9623,-2.0767c0.1245,-0.6489 0.3088,-1.1961 -0.0627,-1.8117c-0.5044,-0.836 -0.1539,-0.9994 -0.6279,-1.5428c0.4417,-0.5842 0.9737,-1.083 1.2825,-1.805c0.285,-0.6707 0.911,-1.0697 1.1533,-1.7527c0.1995,-0.5662 0.4636,-1.0194 0.7153,-1.5647c0.3259,-0.7001 0.4199,-1.5418 0.609,-2.2591c0.3334,-1.273 0.1833,-2.83 -0.2242,-4.1192c-0.3392,-1.0697 -1.4317,-2.7132 -2.299,-3.742c-1.2683,-1.502 -2.4016,-2.5489 -4.1278,-3.5198" fill="#371e10" stroke="none" stroke-width="0.95"/><path d="M315.72825,87.888c0.2803,-0.1416 0.4418,-0.2328 0.6802,-0.3686c0.2404,-0.1368 0.4123,-0.3116 0.6698,-0.4218c0.474,-0.2024 0.9975,-0.3677 1.4848,-0.5159c0.6812,-0.208 1.4146,-0.2071 2.1233,-0.265c0.608,-0.0494 1.2521,-0.1102 1.8658,-0.0637c0.5434,0.0418 0.9889,0.3278 1.405,0.6755c0.5909,0.4921 1.2407,0.8863 1.8098,1.4459c0.4854,0.4788 1.0022,0.9376 1.3366,1.5228c0.324,0.5653 0.665,1.1077 1.0583,1.6179c0.4541,0.5899 0.8398,1.196 1.0146,1.9332c0.1568,0.6574 0.3126,1.3528 0.4266,2.0159c0.2109,1.2369 -0.1796,2.4662 -0.5282,3.6148c-0.3306,1.0858 -0.799,2.2572 -1.4497,3.191c-0.286,0.4114 -0.608,0.7942 -0.8921,1.2113c-0.2783,0.4085 -0.4341,0.6127 -0.6536,1.045c-0.0684,0.1368 -0.3572,0.4493 -0.5842,0.4389c-0.133,-0.0076 -0.4133,-0.3487 -0.5358,-0.4342c-0.4,-0.2764 -0.7068,-0.1605 -1.1514,-0.2698c0.1624,-1.0925 0.6412,-1.805 0.8255,-2.8842c0.0912,-0.5272 0.3135,-1.1181 0.3259,-1.69c0.0104,-0.5425 0.0817,-1.0545 0.0921,-1.6036c0.0095,-0.5301 -0.0617,-1.1144 -0.2688,-1.6046c-0.2195,-0.5291 -0.2888,-1.0906 -0.5045,-1.6311c-0.4807,-1.2027 -1.5181,-1.976 -2.3797,-2.8766c-0.4152,-0.4351 -0.7961,-0.8104 -1.2597,-1.1961c-0.4437,-0.3686 -0.8636,-0.493 -1.312,-0.8436c-0.4199,-0.3315 -0.8122,-0.6175 -1.2806,-0.8892c-0.6298,-0.3648 -1.5855,-0.6488 -2.2448,-0.9405c-0.0798,-0.0361 0.0019,-0.1691 -0.0732,-0.2137" fill="#bd5da4" stroke="none" stroke-width="0.95"/><path d="M327.31255,122.4385c-0.3771,0.3116 1.2122,-0.2166 0.2242,0.7049c-0.5928,0.5501 -1.0402,0.836 -1.5162,1.0707c-0.3572,0.1767 -0.3163,0.1938 -0.7619,0.2641c-0.3771,0.0608 -0.5405,0.1919 -0.9215,0.2489c-0.7087,0.1016 -0.6536,0.2403 -1.3148,0.5443c-0.6536,0.2993 -0.6764,0.4228 -1.2663,0.8161c-0.4,0.2669 -0.2594,0.4417 -0.6755,0.6849c-0.3553,0.2062 -0.569,0.6156 -0.8113,0.9111c0.0095,0.0465 -0.2565,0.5272 -0.2403,0.5785c-0.02,-0.361 -0.4019,0.8113 -0.4209,0.4503c0.0105,0.1748 -0.3306,0.2974 -0.551,0.476c-0.037,0.0285 -0.684,0.4256 -0.7381,0.455c-0.7353,0.3905 -0.9624,0.1159 -1.0165,0.2622c0.38,-0.5177 0.1862,-5.5736 0.1311,-5.8586c0.1852,-0.152 -0.1254,-0.608 -0.1967,-0.5681c-0.0579,-0.2831 -0.2422,-0.0998 -0.285,-0.3848c-0.0057,0.0361 -0.0142,0.0713 -0.0266,0.1064c-0.0285,-0.3002 -0.2137,-0.3106 -0.2574,-0.6089c-0.2309,-0.0618 -0.209,-0.3525 -0.438,-0.3591c-0.0408,-0.2907 -0.018,-0.2936 -0.0579,-0.5843c-0.2328,-0.0047 -0.3012,-0.1168 -0.4741,-0.3277c-0.1187,-0.1454 -1.7698,0.4959 -1.8753,0.5956c-1.4516,0.3515 -3.7525,1.5523 -4.8497,-0.3648c-0.5007,-0.8759 -0.0827,-1.976 -0.8759,-2.7512c-0.4475,-0.436 -1.1343,-0.1776 -1.6169,-0.5994c-0.3572,-0.3116 -0.4883,-1.14 -0.0703,-1.5191c-0.4522,-0.1083 -1.0051,-0.531 -1.0707,-1.1248c-0.0484,-0.4455 0.2309,-0.7932 0.3145,-1.1989c0.075,-0.3638 0.1491,-0.5405 0.0152,-0.8892c-0.1767,-0.4607 -0.5852,-0.4598 -1.0308,-0.5852c-0.3144,-0.0902 -0.6612,-0.3686 -0.873,-0.645c-0.1701,-0.2204 -0.3981,-0.5073 -0.4294,-0.7952c-0.0722,-0.6802 0.7989,-0.9813 1.2112,-1.4136c0.2223,-0.2327 0.4608,-0.6412 0.6774,-0.8816c0.2204,-0.247 0.3087,-0.6393 0.5063,-0.9139c0.4361,-0.6013 0.5786,-1.1096 0.609,-1.8525c0.0304,-0.74 -0.2983,-1.3927 -0.5054,-2.0482c-0.1283,-0.4037 -0.1549,-0.8417 -0.267,-1.2445c-0.057,-0.2033 -0.1843,-0.398 -0.265,-0.5909c-0.0694,-0.1653 0.0712,-0.3144 0.0142,-0.4721c-0.2707,-0.7572 -0.1415,-1.7803 0,-2.5517c0.0817,-0.438 0.1672,-0.8484 0.4266,-1.1894c0.1558,-0.2024 0.208,-0.4769 0.2954,-0.7173c0.0789,-0.2156 0.2546,-0.5405 0.3762,-0.7429c0.1986,-0.3277 0.2328,-0.8996 0.5311,-1.1609c0.4949,-0.436 0.9595,-0.5044 1.5342,-0.7866c0.2945,-0.1453 0.5064,-0.2232 0.8218,-0.2859c0.3486,-0.0675 0.8179,-0.2689 1.1628,-0.2736c0.931,-0.0133 2.0957,-0.0466 3.0286,0.0589c0.6346,0.0712 1.0697,-0.0295 1.7024,0.0608c0.4047,0.0579 1.0364,0.1643 1.4145,0.3163c0.4247,0.1682 1.0583,0.4 1.4402,0.6223c0.3316,0.1928 0.5092,0.3562 0.8522,0.5434c0.2793,0.1529 0.3211,0.3714 0.6137,0.5111c0.1045,0.0503 0.873,1.3822 0.7571,0.8597c0.0361,0.551 0.6099,0.3439 0.609,0.8959c0.0465,-0.0466 -0.0228,0.3638 0.0294,0.4075c-0.1444,0.2594 0.1644,0.4988 0.1368,0.7999c-0.0228,-0.0133 0.3097,0.7714 0.001,0.3971c0.0095,0.3012 -0.0779,0.2328 -0.1036,0.533c0.3211,-0.0019 -0.018,0.4151 -0.0988,0.5054c-0.0228,0.3002 0.0665,0.3135 0.0466,0.6137c-0.0751,0.247 -0.4636,0.7999 -0.609,1.1238c-0.0617,0.1387 -0.2603,0.4437 -0.2736,0.5947c-0.1529,0.0181 -0.1843,0.2242 -0.3211,0.2689c-0.0095,0.3106 -0.1007,0.4655 -0.095,0.7771c-0.0104,-0.0076 -0.0912,0.0133 -0.1016,0.0085c-0.0048,0.2993 -0.1587,0.3696 -0.1853,0.6698c-0.2394,0.0722 -0.0266,1.1466 -0.0228,1.2834c0.0048,0.1625 -0.0902,0.3411 0.0931,0.4247c0.0333,0.7866 0.1349,1.9731 0.799,2.5365c0.3097,-0.3069 0.4161,-0.951 0.494,-1.3623c0.0893,-0.4741 0.6184,-0.9206 0.7866,-1.3747c0.2669,-0.7201 1.0906,-1.2739 1.7157,-1.6805c0.4047,-0.2622 0.8559,-0.4874 1.3604,-0.4161c0.6403,0.0912 0.6175,0.1833 0.9595,0.6754c0.3543,0.5073 0.6355,0.9073 0.7704,1.5371c0.1159,0.5482 0.077,1.141 -0.0589,1.6768c-0.151,0.6023 -0.0988,1.348 -0.5158,1.8145c-0.3477,0.3895 -0.6622,0.7429 -0.989,1.1419c-1.2568,1.5352 -0.5453,3.3839 -0.0313,4.8326c0.2641,0.7382 0.1567,1.3585 0.4161,2.0891c0.1216,0.3458 0.3724,1.2188 0.5358,1.5295c0.1681,0.3182 0.2907,0.4845 0.3401,0.8483c0.0874,0.6346 0.2688,0.9614 0.7951,1.3794c0.4617,0.3762 0.0238,0.3686 0.5567,0.6175" fill="#a16235" stroke="none" stroke-width="0.95"/><path d="M307.88415,105.0877c0.132,0.0323 0.2641,0.0941 0.3952,0.1349c0.2147,0.0665 0.436,0.1026 0.6498,0.1691c0.3676,0.115 0.7448,0.2005 1.1162,0.305c0.3914,0.113 0.7904,0.2327 1.159,0.4113c0.1074,0.0513 0.4551,0.076 0.5273,0.1758c0.0408,0.056 -0.1397,0.1767 -0.0979,0.2356c0.0399,0.057 0.0855,0.0864 0.0817,0.1596c-0.0047,0.0978 -0.0988,0.1615 -0.1719,0.2071c-0.2195,0.1387 -0.2318,0.0741 -0.4769,0.1586c-0.2081,0.0722 -0.4969,0.2052 -0.7002,0.2689c-0.1909,0.0598 -0.5035,0.2223 -0.7001,0.2698c-0.3373,0.0817 -0.6688,0.1577 -1.0194,0.1748c-0.0446,0.0019 -0.3106,0.0475 -0.2669,-0.0494c0.019,-0.0447 0.1178,-0.0494 0.1577,-0.0703c0.0598,-0.0314 0.0902,-0.0751 0.1368,-0.1216c0.0741,-0.0751 0.133,-0.1444 0.1919,-0.2337c0.0665,-0.0988 0.1026,-0.1767 0.1254,-0.2888c0.0456,-0.2081 0.1396,-0.4047 0.151,-0.6223c0.0057,-0.133 0.0342,-0.2261 -0.0114,-0.3534c-0.038,-0.1035 -0.0456,-0.2584 -0.1083,-0.341c-0.0598,-0.0798 -0.1216,-0.1055 -0.2099,-0.1397c-0.152,-0.0589 -0.3012,-0.1254 -0.456,-0.1786c-0.1862,-0.0646 -0.3259,-0.1463 -0.4769,-0.266" fill="#ffffff" stroke="none" stroke-width="0.95"/><path d="M309.04785,105.5931c0.0627,0.0846 0.0884,0.1634 0.115,0.2679c0.0912,0.3544 -0.0352,0.7581 -0.1216,1.1011c-0.0219,0.0902 -0.0646,0.1786 -0.0998,0.2631c-0.0342,0.0827 -0.0684,0.0903 -0.1406,0.1349c-0.1159,0.0713 -0.1843,0.1872 -0.3135,0.2413c-0.0845,0.0352 -0.1681,0.0608 -0.2584,0.0646c-0.2726,0.0143 -0.4503,-0.0627 -0.6004,-0.2983c-0.1653,-0.2574 -0.3258,-0.5158 -0.3258,-0.8293c0,-0.1311 -0.0133,-0.2651 0.0142,-0.3933c0.0295,-0.1359 0.0922,-0.2489 0.1444,-0.3762c0.0637,-0.1587 0.1653,-0.2812 0.2594,-0.4209c0.0617,-0.0902 0.1206,-0.113 0.2232,-0.1045c0.1919,0.0124 0.4009,0.0475 0.5852,0.0988c0.0988,0.0276 0.1929,0.0589 0.2803,0.1102c0.0817,0.0475 0.1577,0.1359 0.2555,0.1482" fill="#371e10" stroke="none" stroke-width="0.95"/><path d="M314.17405,178.8951c3.0514,1.1514 3.9197,1.9124 7.6589,2.1784c0.9272,0.0655 5.5205,0.0152 6.3717,-0.2138c1.6207,-0.4341 3.2651,-0.588 4.8497,-1.3433c1.198,-0.57 1.7993,-0.5424 3.3222,-1.3794c0.7144,-0.3923 1.2074,-1.0383 2.0007,-1.2464c-0.0238,1.1258 0.9699,1.768 1.6625,3.1407c0.5576,1.103 0.3771,3.8333 0.8474,4.9676c0.9424,2.2762 0.6916,3.5245 0.76,5.9346c0.0807,2.8006 0.6061,5.1756 0.7343,7.9354c0.1862,3.9263 0.8645,8.9167 1.5333,11.6859c0.666,2.7607 1.1163,5.8197 2.2012,8.4199c0.9158,2.1954 0.4256,2.8642 1.7347,4.92c1.5124,1.7423 0.2745,3.3364 0.5709,3.2718c0.7619,0.6004 1.8202,1.7053 2.1337,2.053c0.646,0.7172 1.2835,1.4031 1.9675,2.1194c0.9699,1.0137 1.9019,1.4725 2.8614,2.4833c0.9471,0.9985 2.3503,1.5685 3.2775,2.4985c1.6311,1.6321 2.4006,2.205 3.8693,3.9587c1.2977,1.5485 -0.6821,1.8211 0.3525,2.5355c1.8686,1.2901 1.8667,2.679 1.8686,3.2205c0.665,0.2157 1.6597,2.7826 2.0501,3.4542c0.1311,0.2252 0.2356,0.2451 0.3107,0.7562c0.0817,0.552 0.3363,0.4522 0.2726,0.9985c-0.1833,1.5238 -2.9117,1.0925 -4.503,2.5156c-1.9874,0.589 0.2024,0.3866 -1.8772,1.4402c-1.2236,0.6184 0.0228,0.5358 -1.1457,1.5c-1.2882,1.064 -1.2426,1.368 -2.5355,1.6426c-4.731,1.0013 0.1653,0.0456 -2.8006,0.7115c-0.7249,0.1644 -0.57,0.4285 -1.2464,0.1349c-1.3424,0.1625 -1.3424,0.1625 -2.4016,0.1625c-1.0365,0 -1.0745,0.1254 -2.1622,-0.0922c-5.5119,-1.0934 -5.8007,-2.375 -6.4819,-3.382c-0.9177,-1.3547 -0.4313,-0.9158 -1.3661,-2.052c-2.3968,-2.9108 -0.9414,-3.1302 -0.4911,-4.9333c0.9006,-3.6015 -0.3173,-5.0787 -1.7746,-6.4306c-1.9532,-1.8116 -3.8219,-4.4783 -5.3039,-6.6234c-0.2204,-0.3211 -1.2445,-1.367 -1.5238,-1.7955c-0.3686,-0.5652 -0.2479,-0.722 -0.6916,-1.2369c-0.7229,-0.8388 -1.596,-1.4658 -2.2239,-2.4006c-0.5244,-0.779 -2.0368,-1.8943 -2.2563,-2.813c-0.2432,-1.0079 -0.2156,-2.1489 -0.2679,-3.1863c-0.0475,-0.949 0.228,-1.8563 -0.1586,-2.6714c-0.1824,-0.3904 0.0389,-2.2097 -0.1644,-2.3522c-0.1814,-0.1292 -2.0795,4.4736 -2.1536,4.5097c-0.2822,1.2929 -1.0555,1.9294 -1.5485,2.9887c-0.3126,0.6716 0.5985,1.0383 0.4066,1.9589c-0.5007,2.4025 -1.7043,-0.2157 -1.9105,4.1885c-0.056,1.1894 0.2195,2.3133 -0.0152,3.515c-0.2802,1.4317 -0.0114,2.4719 0.0646,3.9131c0.1549,2.9364 -0.2517,4.3054 -0.2536,6.8143c-0.001,1.3196 -0.533,3.4799 -0.8769,4.5895c-0.5291,1.7043 -1.3024,2.9611 -1.4297,4.1771c-0.2043,1.9903 0.8759,0.4304 1.1647,2.9279c-1.2721,0.0798 -2.4529,8.2413 -3.8323,8.3629c-1.8069,0.1577 -2.5679,-0.894 -4.3425,-1.6929c-1.7793,-0.8018 -4.6873,-0.2404 -7.5325,-0.6242c-1.2863,-0.1748 -5.3248,-2.4738 -5.5262,-3.7591c-1.6245,-0.5035 -1.3936,-1.7889 -2.5099,-2.4681c-0.3087,-1.0963 -1.5304,-1.9352 -2.1802,-3.7373c-0.5016,-1.3927 -0.4085,-1.0336 -0.5634,-2.5356c-0.1273,-1.2188 0.2698,-1.4297 0.7401,-2.7122c0.2337,-0.6384 0.7676,-4.0014 1.2293,-4.5125c0.5244,-0.5767 0.9082,0.3391 1.4354,-0.2765c0.6441,-0.7571 -0.1586,-2.4082 0.2252,-3.3497c0.4294,-1.0497 1.6929,-1.101 2.5374,-1.8259c0.8417,-0.7191 1.2331,-0.6925 1.749,-1.6539c0.5956,-1.1096 0.6412,-4.0546 0.7733,-5.2497c0.2432,-2.1888 0.8122,-3.1037 0.8056,-5.6411c-0.0038,-1.311 0.8103,-6.3147 1.0849,-8.4522c-0.0513,-5.6012 2.0833,-5.8244 2.7018,-8.1814c0.7524,-2.868 0.5168,-3.8997 1.1172,-6.9853c0.5035,-2.5888 0.2935,-5.5053 0.8911,-8.1843c0.2983,-1.3471 0.9015,-3.3487 1.0668,-4.7148c0.1767,-1.463 0.6099,-2.2401 1.2008,-3.5587c0.7885,-1.7566 0.7847,-3.0904 1.5343,-4.4498c0.741,-1.3433 1.1248,-2.3674 1.8857,-3.4599" fill="#a17456" stroke="none" stroke-width="0.95"/><path d="M316.45505,182.9108c0.2954,0.1957 0.0741,1.3262 0.075,1.6824c0.001,0.8911 0.7429,1.7034 1.1039,2.4919c0.4171,0.912 0.8066,1.557 1.5219,2.2762c0.3601,0.361 0.6555,0.6811 0.9614,1.0896c0.3525,0.4712 0.7847,0.7211 1.2417,1.0536c0.664,0.4835 1.2796,0.9044 2.014,1.273c0.4807,0.2413 1.0108,0.3999 1.4867,0.6336c0.6869,0.3373 1.4431,0.5358 2.109,0.8902c0.5529,0.2926 1.1628,0.3828 1.7376,0.6137c-0.0114,0.9291 -0.8208,1.671 -0.7819,2.641c-0.893,-0.1007 -1.8116,-0.057 -2.6913,-0.3401c-0.6432,-0.2071 -1.2008,-0.2841 -1.8383,-0.5187c-0.3097,-0.114 -0.7837,-0.2955 -1.0887,-0.4199c-0.4265,-0.1748 -1.0098,-0.5482 -1.3927,-0.8085c-0.247,-0.1681 -0.4389,-0.0874 -0.6745,-0.2755c-0.2793,-0.2223 -0.664,-0.4484 -0.9576,-0.6536c-0.399,-0.2783 -0.5633,-0.303 -0.8664,-0.6973c-0.2042,-0.2641 -0.7068,-0.6412 -0.9272,-0.8968c-0.5177,-0.6004 -0.8464,-1.1628 -1.4126,-1.7128c-0.4874,-0.4731 -0.9225,-1.33 -1.2512,-1.9076c-0.3724,-0.6517 -0.7058,-1.3775 -0.9937,-2.0786c-0.2698,-0.6555 -0.2099,-1.1999 -0.2546,-1.9057c-0.0304,-0.4874 -0.1776,-0.6308 0.2622,-0.9282c0.2632,-0.1786 0.5843,-0.3249 0.8588,-0.5006c0.5558,-0.3563 1.1324,-0.7847 1.7566,-0.9643" fill="#4e3a78" stroke="none" stroke-width="0.95"/><path d="M286.18235,257.9313c0.399,-0.0826 0.8721,0.1349 1.2502,0.247c0.4921,0.1454 1.0231,0.2052 1.5266,0.3344c0.9861,0.247 2.0216,0.4247 3.0381,0.5339c2.8358,0.304 3.3165,-0.8597 4.5828,0.6251c0.2689,0.3135 0.6479,0.7771 0.9614,1.0479c0.3363,0.2897 0.6384,0.4398 0.8626,0.7818c0.2223,0.3392 0.798,0.4579 1.0127,0.8341c0.2375,0.4133 1.1581,0.6755 1.4279,1.0669c0.5196,0.7505 1.3651,0.988 2.2724,1.3623c0.95,0.3895 1.9161,0.4598 2.9383,0.5633c1.2645,0.1292 2.4615,-0.3496 3.7012,-0.0674c0.9567,0.2185 0.8569,0.4474 1.8098,0.5158c0.2964,0.02 1.1029,0.4836 1.3604,0.6204c0.3933,0.2118 0.246,0.6821 0.2669,1.0326c0.0447,0.7619 0.2641,1.4364 0.02,2.2031c-0.3002,0.9481 -0.9928,2.8509 -2.5318,2.4386c-0.6061,-0.1615 -1.3442,-0.4208 -1.8781,-0.7419c-0.3012,-0.1805 -0.7733,-0.6251 -1.0906,-0.7847c-0.438,-0.2195 -0.8769,-0.5064 -1.1733,-0.8902c0.0086,-0.0427 -0.2166,-0.19 -0.209,-0.227c-0.2859,-0.4028 -0.3847,-0.2499 -0.8141,-0.4342c-0.6432,-0.2755 -2.1546,-0.493 -2.8339,-0.6669c-1.3034,-0.3372 -2.7483,-0.4826 -4.0717,-0.76c-1.2093,-0.2555 -2.1954,-0.4674 -3.3839,-0.8407c-1.3575,-0.4247 -1.9503,-0.9282 -3.2148,-1.54c-1.5314,-0.7438 -3.0941,-1.8088 -4.0641,-3.2262c-0.3933,-0.5728 -0.8464,-1.2331 -1.1647,-1.8591c-0.1102,-0.2185 -0.1444,-0.4845 -0.2774,-0.6907c-0.1349,-0.2109 -0.2869,-0.2793 -0.36,-0.5225c-0.0637,-0.2166 -0.1872,-0.7134 -0.0228,-0.8863c0.0028,-0.0038 0.2014,-0.0998 0.1909,-0.0969" fill="#4e3a78" stroke="none" stroke-width="0.95"/><path d="M285.60565,258.6115c0.076,0.02 0.5368,-0.1064 0.6128,-0.0703c-0.0618,0.5491 0.3714,0.9975 0.5139,1.4991c0.1653,0.5738 0.1416,0.8911 0.5814,1.3728c0.8275,0.9063 1.692,1.6976 2.718,2.489c1.7252,1.3309 3.7411,2.3531 5.8567,2.8196c0.6574,0.1453 1.2227,0.494 1.8877,0.6707c0.5386,0.1425 1.0915,0.227 1.6283,0.36c1.2654,0.3088 2.6001,0.4551 3.8912,0.6622c0.8816,0.1425 2.2486,0.5871 3.0381,1.0089c0.8198,0.4389 1.2236,0.6811 1.7983,1.3955c0.722,0.8987 2.0463,0.9633 2.9175,1.3063c0.9281,0.3667 0.0541,0.7771 -0.3221,1.4715c-0.2451,0.4551 -0.2327,1.3956 -0.7533,1.4554c-0.3268,0.039 -0.7277,-0.19 -1.0422,-0.2574c-0.4522,-0.095 -0.8721,-0.1663 -1.311,-0.2964c-1.919,-0.571 -3.6632,-1.5666 -5.4292,-2.5717c-2.1347,-1.2131 -3.5644,-2.3683 -5.9328,-3.1207c-1.0364,-0.3297 -2.2287,-0.5748 -3.287,-0.7828c-1.3205,-0.2584 -2.6571,-0.4095 -3.8646,-1.0146c-1.0507,-0.5254 -2.2363,-1.0232 -3.0846,-1.8639c-0.2936,-0.2936 -0.8275,-0.8256 -0.8959,-1.2417c-0.057,-0.3467 -0.2479,-0.6555 -0.3401,-1.0136c-0.1111,-0.4218 -0.1928,-0.704 -0.2147,-1.1495c-0.019,-0.4114 0.2983,-1.3386 0.4085,-1.7328c0.2423,-0.8721 0.6479,-0.8617 1.14,-1.616" fill="#bfb3d8" stroke="none" stroke-width="0.95"/><path d="M348.71415,259.2623c1.6977,-0.0912 2.5736,0.3895 4.2218,-0.001c1.4184,-0.3363 2.851,-0.342 4.6113,-0.9965c0.7154,-0.2651 1.3063,-0.5643 1.768,-1.1467c0.323,-0.4075 0.8065,-0.8863 1.1134,-1.31c0.3144,-0.4294 0.6355,-0.7258 1.0089,-1.0802c0.379,-0.36 0.7049,-0.7923 1.1856,-1.0488c0.4788,-0.2555 0.7752,-0.2156 1.2787,-0.4417c0.6374,-0.2869 0.0959,-0.2537 0.8531,0c0.4683,0.1567 0.9177,0.4655 1.2074,0.835c0.2822,0.361 0.6869,0.4627 0.6175,0.9168c-0.1311,0.8512 0.2613,0.1254 -0.1786,0.8569c-0.9025,1.501 -1.6093,2.3265 -2.9089,3.5036c-1.5257,1.3822 -2.5773,2.5441 -4.3206,3.647c-0.7201,0.456 -2.2249,1.3101 -2.9934,1.6872c-0.76,0.3762 -1.7072,0.8721 -2.5175,1.1106c-1.2588,0.3676 -2.072,0.4018 -3.344,0.7847c-0.7353,0.2213 -1.6682,0.1415 -2.4273,0.228c-0.9851,0.1111 -1.7679,0.285 -2.7398,0.1586c-0.8531,-0.1073 -1.7024,-0.3192 -2.5526,-0.5624c-0.5795,-0.1643 -1.1495,-0.5149 -1.6825,-0.8122c-0.3306,-0.1853 -1.1504,-0.6964 -1.0915,-1.1837c0.0342,-0.2926 0.0532,-0.362 0.3201,-0.4931c0.9662,-0.4664 2.1242,-0.7201 3.0571,-1.2578c0.7325,-0.4199 2.1271,-0.7267 2.8225,-1.1884c0.5481,-0.3648 1.7299,-0.8522 2.2866,-1.8335" fill="#4e3a78" stroke="none" stroke-width="0.95"/><path d="M339.55525,264.7485c0.2774,0.3544 0.5738,0.2575 0.9471,0.4769c0.2708,0.1587 0.5111,0.3088 0.7923,0.438c0.4332,0.1995 0.8465,0.4788 1.2654,0.6593c1.8411,0.7885 3.9767,0.7343 5.9204,0.5253c1.236,-0.1349 2.4738,-0.2375 3.6623,-0.5614c0.8768,-0.2385 2.4947,-0.8123 3.2433,-1.2075c2.3883,-1.254 4.3139,-1.8696 6.1199,-3.8988c0.4075,-0.4598 1.1666,-0.9348 1.5732,-1.3803c0.4408,-0.4864 0.9281,-0.9453 1.3965,-1.4184c0.4009,-0.4037 1.0754,-1.2958 1.4525,-1.7242c0.4152,-0.4722 0.2081,-1.1077 0.6204,-1.5875c0.3325,-0.38 0.1719,0.1131 0.3325,-0.38c0.1178,-0.3667 0.2356,0.7173 0.4208,0.3971c0.3363,-0.5757 0.3572,0.3696 0.6213,0.817c0.2299,0.3895 0.2964,0.2727 0.2964,0.722c-0.0028,1.1068 0.133,0.6641 -0.7106,1.4849c-0.2983,0.2897 -0.247,0.3182 -0.5671,0.5776c-0.3734,0.303 -0.7961,0.778 -1.1324,1.1248c-0.6232,0.6365 -1.3443,1.3803 -2.0026,1.9256c-1.0811,0.8911 -1.7167,1.3462 -2.451,2.5622c-0.3116,0.5158 -1.1885,0.969 -1.4516,1.4896c-0.2926,0.5728 -0.5786,0.8369 -1.0878,1.1837c-1.3813,0.9481 -2.3161,1.443 -3.9349,1.8876c-1.6995,0.4674 -3.9558,0.7714 -5.7133,0.9538c-1.7109,0.1786 -3.762,-0.0266 -5.4786,-0.1662c-0.9747,-0.0798 -1.9846,-0.1653 -2.5869,-0.9785c-0.3971,-0.5368 -0.8151,-1.1543 -1.12,-1.7509c-0.2014,-0.3961 -0.3202,-0.8341 -0.4133,-1.2654c-0.0598,-0.2774 -0.1548,-0.9367 0.057,-1.1096" fill="#bfb3d8" stroke="none" stroke-width="0.95"/><path d="M337.79865,162.215c0.8332,1.255 0.2147,1.6986 0.3325,3.0201c0.114,1.2416 0.3401,2.1992 0.7629,3.1825c0.9405,2.1935 -1.8696,2.9744 -0.6774,5.0587c0.4627,0.8113 1.2417,1.7908 0.7239,2.7208c-0.3486,0.627 -1.8411,1.3234 -2.4595,1.7034c-2.0482,1.2644 -3.3459,1.5456 -5.6259,2.356c-4.7671,1.691 -10.1802,0.9699 -15.2048,-0.7448c-2.1812,-0.7439 -3.6983,-2.2021 -2.4111,-4.2826c0.6593,-1.065 1.5675,-1.6749 1.6321,-3.0609c0.0523,-1.1134 -0.0655,-2.8377 -0.0665,-3.952c-0.0038,-3.4295 0.3914,-6.7659 0.2138,-10.2125c-1.3272,1.1789 -2.7142,2.9583 -4.2095,4.0403c-0.7714,0.5577 -1.3518,1.3661 -2.5954,1.5533c-0.8008,0.1206 -1.8335,0.8654 -2.4092,1.5789c-1.5143,1.8715 -4.4346,1.3955 -6.2529,-0.2128c-1.5884,-1.4032 -4.0897,-2.205 -3.5036,-4.5762c0.2869,-1.1533 0.6774,-1.7385 0.7505,-3.02c0.0646,-1.1058 0.1425,-1.7737 0.6831,-2.7018c1.1818,-2.0273 3.039,-2.6771 5.2003,-3.6889c1.8021,-0.8436 4.6987,-1.6102 5.0255,-3.1369c0.4398,-2.0596 1.102,-3.9681 1.2008,-6.0154c0.1102,-2.2904 0.8046,-4.3985 1.3556,-6.5949c0.5349,-2.1375 1.8924,-3.1293 4.0679,-3.8199c1.1533,0.475 1.1533,-2.9764 3.1455,-2.8386c-0.0513,0.5538 0.0589,1.0155 -0.3259,1.329c0.779,-0.151 1.8012,-0.2726 2.7351,-1.5399c0.5795,-0.7876 0.9196,-1.2179 1.6273,-1.9979c1.2873,-1.4183 3.5663,-1.6349 5.0464,-2.4956c0.8759,-0.5102 1.3072,-1.5675 1.9551,-1.5903c0.2005,-0.0057 1.0602,1.0431 1.2711,1.2055c0.4446,0.3458 0.6299,0.5776 1.1001,0.8484c0.9196,0.5272 2.4738,1.4392 3.3051,2.222c0.8949,0.8436 0.9756,1.3443 1.8088,2.2534c1.5732,1.7205 2.1679,2.8434 2.431,4.9486c0.4902,3.951 2.8348,3.9377 4.0974,5.6202c1.2616,1.6824 1.9294,3.3706 2.4253,5.3561c0.2223,0.8949 0.1549,1.937 0.6888,2.679c0.6992,0.9699 1.7366,0.8588 2.6666,1.4639c1.1457,0.7477 0.8522,1.5466 1.0194,2.7313c0.1396,0.9832 0.5728,1.881 0.7818,2.8813c0.5187,2.4567 -0.2166,3.3668 -1.2616,4.8678c-1.8525,2.6676 -3.0789,3.0799 -5.5565,3.3222c-1.73,0.1691 -3.9169,0.2156 -5.4939,-0.4608" fill="#4e3a78" stroke="none" stroke-width="0.95"/><path d="M295.81345,161.6716c0.4123,-0.0826 0.8065,0.6394 1.0222,0.931c0.3477,0.4655 0.7134,0.8161 1.1561,1.178c0.4342,0.3553 0.8531,0.7344 1.2863,1.0887c0.1967,0.1606 1.2198,0.6137 1.2151,0.8674c-0.0048,0.2432 -1.4307,0.5757 -1.6426,0.6583c-1.082,0.4161 -2.1593,1.0203 -3.135,1.6426c-1.5988,1.0184 -3.4779,1.8411 -4.882,3.0675c-0.5083,0.4437 -0.9405,0.9234 -1.1229,1.5827c-0.2299,0.836 -0.7249,1.3861 -1.5029,1.7366c-1.4659,0.6631 -2.8196,0.5738 -4.4375,0.5738c-1.0155,0 -2.0909,-0.0855 -3.0675,0.1891c-0.4285,0.1197 -0.8911,0.2555 -1.2863,0.4607c-0.3078,0.1606 -0.7315,0.4408 -0.989,0.0428c-0.4446,-0.6907 0.7144,-1.2398 1.1961,-1.445c0.3866,-0.1653 0.7334,-0.3885 1.1153,-0.5728c0.474,-0.228 1.0089,-0.3373 1.4734,-0.5833c-0.8597,0.1406 -1.805,-0.0665 -2.6609,-0.1055c-1.0517,-0.0475 -1.6255,0.4598 -2.376,1.0887c-0.5044,0.4218 -1.3756,0.7819 -2.014,0.9804c-0.3078,0.0979 -1.994,0.2347 -1.9399,-0.379c0.0152,-0.1805 0.4646,-0.4788 0.5862,-0.6004c0.3068,-0.3059 0.6783,-0.5586 1.0146,-0.8322c0.6897,-0.5605 1.4383,-1.0545 2.0957,-1.6426c0.3287,-0.2935 0.7068,-0.5291 1.0488,-0.816c0.2593,-0.2176 0.399,-0.4427 0.5833,-0.704c0.0532,-0.0731 0.1007,-0.1833 0.1738,-0.2289c0.2043,-0.1292 0.7762,-0.152 1.0241,-0.1881c0.5225,-0.0751 1.0317,-0.1074 1.5495,-0.2138c2.0273,-0.4189 4.027,-0.8749 6.0372,-1.3119c0.7619,-0.1672 1.2597,-0.4465 1.9057,-0.9244c0.8978,-0.665 1.6103,-1.4706 2.4168,-2.2116c0.7534,-0.6925 1.6825,-1.2255 2.4491,-1.88c0.3164,-0.2708 0.7078,-0.6983 1.065,-0.894c0.2593,-0.1415 0.7723,-0.3705 0.7742,-0.6906" fill="#a16235" stroke="none" stroke-width="0.95"/><path d="M348.51845,159.8267c-0.0019,0.248 0.3553,0.5615 0.5168,0.7657c0.323,0.4076 0.818,0.76 1.0792,1.1989c0.362,0.6023 0.3686,1.4488 0.4646,2.1138c0.1168,0.7999 0.3572,1.6083 0.5282,2.4092c0.2422,1.1295 0.1358,2.3398 0.2441,3.4922c0.1131,1.1894 0.2831,2.3949 0.3354,3.5853c0.0266,0.5605 -0.0095,1.0906 0.0855,1.6425c0.113,0.6593 0.3106,1.3025 0.3458,1.9684c0.0522,0.9804 0.0342,2.0283 0.493,2.9232c0.4551,0.8835 1.3908,1.5143 2.0976,2.2059c0.6745,0.6602 1.3319,1.3509 1.8098,2.1584c0.4721,0.797 0.8018,1.5922 1.2122,2.3949c0.4075,0.8018 0.5728,1.6065 0.7704,2.4463c0.1701,0.721 0.5463,1.3281 0.4294,2.1137c-0.0627,0.4209 -0.2631,0.6926 -0.1558,1.1039c0.1007,0.3876 0.2784,0.7372 0.3582,1.1391c0.1833,0.9348 -0.1064,1.1647 -1.0289,1.1286c-0.114,-0.0057 -0.1596,-0.0599 -0.2745,-0.0523c-0.0817,0.0057 -0.1986,0.1482 -0.2907,0.172c-0.1929,0.0494 -0.4408,0.0066 -0.6242,-0.0276c-0.5035,-0.0921 -0.9376,-0.3306 -1.2606,-0.7163c-0.6878,-0.8217 -1.4298,-1.6435 -2.1575,-2.4491c-0.7077,-0.7837 -1.5808,-1.3528 -2.2895,-2.1318c-0.2213,-0.2422 -0.7486,-0.7723 -1.1542,-0.6992c-0.3905,0.0713 -0.3544,0.6536 -0.3354,0.9985c0.0475,0.8512 0.4798,1.577 0.4798,2.4462c0,0.3905 0.0788,0.8626 -0.1558,1.2008c-0.1102,0.1625 -0.5349,0.5757 -0.703,0.6593c-0.5073,0.2546 -0.57,-0.1102 -0.589,-0.5177c-0.0247,-0.4912 -0.115,-0.8759 -0.266,-1.3566c-0.2736,-0.874 -0.4228,-1.5504 -0.9244,-2.337c-0.8987,-1.4041 -1.1362,-3.1892 -1.0526,-4.846c0.0447,-0.892 0.3895,-1.7641 0.5282,-2.6372c0.1302,-0.8151 -0.0579,-1.5979 -0.0969,-2.3978c-0.0912,-1.9228 -1.1124,-3.7506 -1.8116,-5.528c-0.9082,-2.3085 -1.7034,-3.7126 -2.7275,-6.7916c-0.2907,-0.8806 -0.4816,-1.3604 -0.7391,-2.2249c-0.1102,-0.3667 -0.6944,-1.1656 -0.8113,-1.5238c-0.1368,-0.4218 -0.6564,-0.7134 -0.5681,-1.1951c1.0289,-0.0522 2.0729,0.1482 3.1094,0.0428c0.7514,-0.077 1.4563,-0.3439 2.1489,-0.6375c1.272,-0.5377 2.621,-1.0336 3.1283,-2.3864" fill="#a16235" stroke="none" stroke-width="0.95"/><path d="M323.15725,104.836c-0.0826,0.0684 -0.4617,0.0921 -0.2973,-0.0428c0.7733,-0.6412 1.8316,-0.9509 2.6163,-0.094c1.272,1.3889 1.4601,3.2053 0.645,4.8706c-0.9196,1.8763 -3.856,4.4128 -5.1955,1.6217c-0.0466,-0.0941 0.322,-0.2185 0.3781,-0.1007c0.3923,0.8179 0.9813,1.6739 2.0795,0.9804c0.3363,-0.2138 0.6536,-0.4513 0.9481,-0.7249c0.7068,-0.6631 1.4241,-1.4506 1.71,-2.4035c0.248,-0.8293 0.3316,-1.7394 0.0067,-2.565c-0.4085,-1.0374 -1.3633,-2.8082 -2.8909,-1.5418zM321.39215,111.1924c0.0447,0.095 -0.3239,0.2185 -0.379,0.1026c-0.2812,-0.589 0.133,-0.9025 0.703,-0.9747c1.1751,-0.1491 2.5678,0.2879 3.0637,-1.196c0.039,-0.115 0.4152,-0.1672 0.3772,-0.0561c-0.2584,0.7733 -0.9614,1.3234 -1.7746,1.4184c-0.5596,0.0665 -2.4719,-0.3031 -1.9903,0.7058zM325.59305,106.6847c0.0171,0.1273 -0.3638,0.2109 -0.379,0.1016c-0.1378,-1.0602 -1.5333,-0.9709 -2.1043,-0.2973c-0.5348,0.6327 -0.9044,1.3832 -1.462,1.9988c-0.0732,0.0817 -0.4484,0.1168 -0.3496,0.0057c0.8322,-0.9215 1.2359,-2.2686 2.527,-2.6315c0.721,-0.2014 1.6568,-0.039 1.7679,0.8227zM306.82485,96.0551c0.0608,-0.0912 0.4389,-0.1387 0.3477,-0.0076c-0.7182,1.0764 -1.3699,2.28 -1.6159,3.5663c-0.2841,1.4773 0.0313,2.8016 0.437,4.2161c0.4237,1.4801 0.817,3.3165 -0.1995,4.6588c-0.0656,0.0884 -0.4446,0.1302 -0.3496,0.0057c1.463,-1.9275 0,-4.4042 -0.2974,-6.4353c-0.3211,-2.2078 0.4627,-4.1857 1.6777,-6.004zM305.48065,108.4507c0.0494,-0.113 0.4208,-0.1548 0.3762,-0.0551c-0.4627,1.0697 -3.7753,3.5986 -1.3775,4.3045c0.2612,0.076 1.1808,0.0494 1.3157,0.4911c0.1397,0.4627 0.0599,0.9396 0.02,1.4146c-0.0086,0.113 -0.3886,0.1909 -0.3762,0.056c0.0427,-0.4978 0.323,-1.5361 -0.5292,-1.6406c-0.228,-0.0276 -0.5206,-0.0466 -0.7334,-0.1511c-0.4056,-0.1985 -0.9899,-0.5529 -0.9794,-1.0877c0.0247,-1.3481 1.767,-2.1375 2.2838,-3.3317zM305.51865,112.5376c-0.1397,-0.0389 0.2004,-0.1995 0.3049,-0.171c0.3458,0.0969 0.6802,0.2888 1.0393,0.3325c0.6707,0.0798 0.7743,-0.5339 0.4427,-0.9585c-0.0817,-0.1045 0.2831,-0.2328 0.3544,-0.1416c0.3942,0.5054 0.2147,1.0184 -0.3762,1.2303c-0.6166,0.2204 -1.1847,-0.1302 -1.7651,-0.2917zM308.88165,115.7182c0.0836,0.1017 -0.2793,0.2309 -0.3544,0.1416c-0.6954,-0.8417 -1.9408,-1.0773 -2.9782,-1.1305c-0.2556,-0.0133 0.0247,-0.1986 0.1539,-0.1919c1.0963,0.0551 2.4386,0.2859 3.1787,1.1808zM305.43785,114.6609c0.0599,-0.1083 0.4256,-0.1416 0.3762,-0.0561c-1.4307,2.5888 3.0258,2.4339 4.2551,1.387c0.0817,-0.0693 0.4588,-0.0931 0.2983,0.0447c-1.3177,1.1229 -6.5246,1.5067 -4.9296,-1.3756zM306.17605,116.6473c0.0589,-0.1092 0.4246,-0.1425 0.3771,-0.056c-0.3591,0.6583 -0.3876,1.4193 0.4313,1.7052c0.6308,0.2214 1.4393,0.2176 2.034,-0.1111c0.1102,-0.0608 0.4522,-0.0333 0.2289,0.0902c-1.2682,0.7021 -4.1714,0.3943 -3.0713,-1.6283zM307.55355,118.6461c-0.1435,-0.0579 0.2042,-0.2109 0.3059,-0.17c1.3214,0.5282 0.5367,2.4006 1.3623,3.2917c1.3737,1.482 3.7458,0.3781 5.3219,-0.2118c3.8627,-1.4478 8.0246,-4.6189 8.1567,-9.1561c0.0019,-0.134 0.38,-0.1967 0.3771,-0.1007c-0.1368,4.7899 -4.5571,7.9515 -8.6041,9.4658c-1.3129,0.4921 -3.021,1.2426 -4.4536,0.8379c-0.6688,-0.1891 -1.3196,-0.6118 -1.4763,-1.3395c-0.1758,-0.8104 -0.0703,-2.2496 -0.9899,-2.6173zM323.75105,112.0427c0.0038,-0.1349 0.3819,-0.1976 0.3819,-0.1007c-0.0504,2.051 0.6023,4.3937 1.216,6.346c0.6156,1.9665 1.4896,3.8408 3.1587,5.1262c0.0893,0.0674 -0.2565,0.2166 -0.3553,0.1406c-1.6625,-1.2806 -2.602,-3.1863 -3.1853,-5.1661c-0.5833,-1.9817 -1.2664,-4.2722 -1.216,-6.346zM317.54375,129.3564c-0.019,0.115 -0.399,0.1824 -0.3762,0.0542c0.2479,-1.4697 0.5168,-3.041 0.2118,-4.522c-0.303,-1.4744 -1.1058,-2.3608 -1.9,-3.5787c-0.075,-0.1159 0.2955,-0.2346 0.3544,-0.1415c0.798,1.2264 1.7071,2.0881 1.9247,3.6185c0.2175,1.5457 0.0427,3.0391 -0.2147,4.5695zM313.67055,104.2318c0.0855,0.0522 -0.2479,0.2061 -0.3543,0.1415c-1.102,-0.6745 -2.3256,-1.6017 -3.7012,-1.5124c-0.9073,0.0589 -1.7908,0.2081 -2.7009,0.1862c-0.2565,-0.0066 0.0257,-0.1957 0.1539,-0.1928c1.1524,0.0275 2.4567,-0.4028 3.5996,-0.1102c1.1115,0.2821 2.0349,0.8958 3.0029,1.4877z" fill="#010101" stroke="none" stroke-width="0.95"/><path d="M315.58385,88.1739c-0.0703,0.0532 -0.417,0.0903 -0.342,0.0342c2.2563,-1.6786 4.8498,-2.0064 7.5915,-2.0292c0.1814,-0.0019 -0.1739,0.1463 -0.248,0.1463c-2.5232,0.0209 -4.9096,0.2926 -7.0015,1.8487zM323.96955,104.1862c-0.0352,0.0921 -0.3962,0.1301 -0.3743,0.0703c0.8835,-2.4206 1.8819,-6.023 0.816,-8.5396c-1.3281,-3.135 -4.4878,-5.32 -7.2846,-7.0461c-0.0418,-0.0266 0.2689,-0.1824 0.3582,-0.1264c2.6761,1.6521 6.1788,3.9387 7.3036,7.0699c0.949,2.6363 0.1064,6.0373 -0.8189,8.5719zM325.87995,104.9718c-0.0712,0.0855 -0.3904,0.0893 -0.3733,0.0703c2.3883,-2.8405 4.7718,-6.7763 3.7078,-10.6457c-0.8607,-3.135 -3.5596,-6.8932 -6.687,-8.0816c-0.0238,-0.0105 0.2574,-0.1653 0.3591,-0.1264c2.9915,1.1362 6.0249,5.0208 6.7089,8.1054c0.8873,3.9929 -1.2208,7.7131 -3.7155,10.678z" fill="#010101" stroke="none" stroke-width="0.95"/><path d="M307.06525,96.0513c-0.077,0.1036 -0.4608,0.1321 -0.3563,-0.0133c1.0707,-1.4611 3.2034,-1.7366 4.883,-1.7974c2.1461,-0.0779 4.617,0.001 6.5503,1.0498c1.9589,1.064 3.9985,3.2129 3.0827,5.642c-1.1295,3.0049 -3.211,5.9508 -0.3163,8.7125c0.1073,0.1016 -0.2518,0.2489 -0.3515,0.152c-1.8145,-1.7309 -1.8601,-3.9292 -0.9291,-6.156c0.9367,-2.2363 2.2971,-4.3681 0.3296,-6.5294c-1.6682,-1.8325 -3.9377,-2.4804 -6.3374,-2.621c-2.0273,-0.1169 -5.2051,-0.2831 -6.555,1.5608zM322.88845,104.7533c0.1263,-0.0864 0.4503,-0.0228 0.2384,0.1226c-1.6188,1.1181 -2.5954,2.6856 -2.375,4.6939c0.0181,0.1501 -0.3638,0.2366 -0.3781,0.0998c-0.2365,-2.1176 0.8161,-3.7449 2.5147,-4.9163zM317.58455,90.4207c0.1644,0.0693 -0.1805,0.2394 -0.2983,0.19c-2.279,-0.9671 -5.4368,-0.7819 -7.5686,0.4873c-1.0222,0.6099 -2.2458,1.4554 -2.4776,2.7275c-0.1349,0.7324 -0.0019,1.4658 -0.1606,2.1964c-0.0294,0.1358 -0.4123,0.1957 -0.38,0.0446c0.2955,-1.3594 -0.0237,-2.3474 0.8512,-3.5501c0.6384,-0.8778 1.7642,-1.5533 2.7512,-1.9523c2.2477,-0.9053 5.0179,-1.1058 7.2827,-0.1434zM317.45635,88.5112c0.1643,0.0693 -0.1805,0.2394 -0.3002,0.1881c-2.3,-0.9671 -5.7884,-0.3316 -7.8014,1.0687c-1.0973,0.7638 -2.2506,1.8649 -2.3304,3.2908c-0.0598,1.0583 0.1311,2.1024 0.039,3.1597c-0.0124,0.1349 -0.3943,0.2071 -0.38,0.0447c0.1358,-1.5561 -0.4665,-3.3573 0.5168,-4.7472c0.6783,-0.9576 1.5599,-1.748 2.6125,-2.279c2.1935,-1.1039 5.3067,-1.7072 7.6437,-0.7258zM340.43585,98.4368c-0.1111,-0.0893 0.2413,-0.2394 0.3534,-0.1511c1.4801,1.1866 1.33,-2.5868 1.2322,-2.9754c-0.3021,-1.1732 -0.8702,-2.2021 -1.7119,-3.0761c-1.7338,-1.8021 -3.9159,-3.1112 -6.2273,-4.0422c-1.6368,-0.6603 -3.3525,-1.2341 -5.0929,-1.5685c-1.1467,-0.2185 -2.3313,-0.4284 -3.5017,-0.4322c-0.7306,-0.0019 -1.7442,-0.1444 -2.4206,0.1672c-0.1729,0.0798 -0.3924,-0.058 -0.153,-0.1682c0.7068,-0.3248 1.73,-0.2261 2.4871,-0.2232c1.3661,0.0038 2.7702,0.208 4.104,0.5016c2.6049,0.5738 5.2383,1.4791 7.544,2.8319c2.6875,1.577 5.3504,3.7744 5.4824,7.1174c0.0485,1.2056 -0.721,3.1217 -2.0957,2.0188zM324.24405,111.3957c0.0504,-0.1292 0.4304,-0.1757 0.3781,-0.0437c-0.627,1.6188 -0.4617,2.7693 0.1226,4.3719c0.3904,1.0669 0.8493,2.185 1.6131,3.0429c0.7761,0.8702 3.9672,2.8661 3.9966,0.2973c0.0181,-1.4326 -0.7324,-2.4405 -1.6938,-3.4314c-0.1036,-0.1092 0.2555,-0.2508 0.3515,-0.151c0.9481,0.9794 2.4339,2.8433 1.5295,4.3196c-0.5738,0.9377 -1.6283,0.8256 -2.5612,0.5358c-1.4649,-0.455 -2.4871,-1.8895 -3.0904,-3.2224c-0.4018,-0.8939 -0.7999,-1.8553 -1.0117,-2.8167c-0.248,-1.1334 -0.0504,-1.8326 0.3657,-2.9023zM328.61785,115.6289c-0.0959,-0.1273 0.2689,-0.2603 0.3525,-0.1529c0.5462,0.7248 1.0526,1.5048 1.709,2.1375c0.5643,0.5434 1.5989,1.5057 2.4586,0.6127c0.4579,-0.4721 0.6926,-1.0716 0.5738,-1.7299c-0.3182,-1.786 -1.7214,-3.4884 -3.1863,-4.5106c-0.1567,-0.1083 0.1929,-0.2632 0.2993,-0.1891c1.6568,1.1533 4.3918,4.1658 2.83,6.2786c-1.7176,2.3237 -4.1068,-1.2151 -5.0369,-2.4463zM334.44805,100.6845c-0.1606,-0.0941 0.1871,-0.2556 0.3002,-0.1872c1.6207,0.9472 3.2043,2.0691 4.503,3.4295c0.4151,0.4361 0.8939,0.9709 1.5276,1.0669c1.5171,0.227 1.7698,-0.7315 1.6796,-1.6815c-0.0969,-0.9776 -0.3278,-1.9371 -0.7629,-2.8234c-1.7252,-3.5074 -5.3523,-6.86 -9.2853,-7.5563c-0.2194,-0.039 0.1045,-0.2366 0.2309,-0.2157c2.5118,0.4456 4.597,1.8525 6.3498,3.6366c1.8354,1.8658 3.7591,4.0765 3.8475,6.8562c0.056,1.6853 -1.0213,2.3949 -2.6144,1.8924c-0.8835,-0.2793 -1.4535,-1.2445 -2.1233,-1.8212c-1.1314,-0.9709 -2.3664,-1.843 -3.6527,-2.5963zM333.81915,108.6882c-0.1055,-0.114 0.2565,-0.2555 0.3496,-0.1501c0.55,0.6023 1.216,1.0203 1.7071,1.6853c0.6527,0.8902 1.2312,1.8373 1.9741,2.6553c0.6194,0.6792 1.9912,1.7736 2.7322,0.5662c0.1834,-0.2964 0.3078,-0.6242 0.3363,-0.9738c0.0646,-0.7942 -0.0608,-1.5884 -0.2774,-2.3522c-0.9376,-3.3259 -2.8519,-7.4565 -5.9821,-9.1865c-0.1625,-0.0912 0.1843,-0.2536 0.2983,-0.19c2.1546,1.1904 3.6613,3.5483 4.6901,5.7238c0.8028,1.6967 1.8288,3.7905 1.6711,5.7218c-0.1093,1.3101 -1.4089,2.7199 -2.7892,1.7642c-1.0707,-0.7401 -1.7756,-1.8506 -2.5147,-2.8985c-0.6612,-0.9319 -1.4478,-1.5428 -2.1954,-2.3655zM331.47545,112.7789c-0.1624,-0.0589 0.1805,-0.2337 0.304,-0.19c1.7955,0.6498 2.3323,2.5603 3.3108,4.0119c0.2527,0.3762 0.5253,0.7818 0.893,1.0592c0.9281,0.6973 2.1479,0.1406 2.2344,-1.0013c0.0902,-1.2217 -0.2014,-2.4462 -0.7391,-3.5387c-0.0589,-0.1188 0.3125,-0.2385 0.38,-0.1017c0.7353,1.502 1.5789,5.6601 -1.3243,5.2849c-1.0707,-0.1397 -1.8164,-1.5276 -2.2715,-2.3513c-0.6954,-1.2568 -1.3442,-2.6533 -2.7873,-3.173zM315.98475,93.5699c0.2185,0.0371 -0.1035,0.2356 -0.2308,0.2147c-2.9678,-0.4959 -6.2187,-0.3743 -8.5339,1.7841c-0.0959,0.0893 -0.4702,0.0827 -0.3059,-0.0703c2.4539,-2.2895 5.9138,-2.4567 9.0706,-1.9285zM332.17275,104.1358c0.0988,0.1254 -0.2669,0.2594 -0.3524,0.1501c-1.0726,-1.367 -2.452,-1.9057 -4.161,-2.0539c-0.2575,-0.0218 -0.0067,-0.2384 0.1444,-0.2242c1.7803,0.1549 3.2452,0.6954 4.369,2.128zM331.44795,92.2836c0.1092,0.0874 -0.2423,0.2375 -0.3515,0.152c-0.7572,-0.5947 -1.6568,-0.57 -2.5337,-0.2698c-0.228,0.0779 -0.2745,-0.1254 -0.056,-0.2014c1.0108,-0.3467 2.0729,-0.3629 2.9412,0.3192zM332.93845,99.4267c0.0589,0.1178 -0.3116,0.2375 -0.3771,0.0997c-0.5776,-1.1561 -1.6587,-2.0406 -3.0191,-1.7689c-0.2299,0.0456 -0.2898,-0.1548 -0.0551,-0.2033c1.5333,-0.3049 2.774,0.5111 3.4513,1.8725zM325.49425,110.1607c-0.0228,-0.1482 0.3572,-0.2394 0.3791,-0.1026c0.1767,1.0726 0.5576,2.224 1.5893,2.7512c0.1634,0.0827 -0.1843,0.248 -0.3002,0.1891c-1.0697,-0.5463 -1.4848,-1.7195 -1.6682,-2.8377z" fill="#000000" stroke="none" stroke-width="0.95"/><path d="M328.87435,194.915c0.1207,0.0418 -0.2213,0.1862 -0.3106,0.1548c-2.9659,-1.0174 -6.0515,-2.0482 -8.3163,-4.3282c-1.9846,-1.9997 -4.1183,-4.6939 -4.0356,-7.6589c0.0028,-0.1178 0.38,-0.17 0.3781,-0.1007c-0.0808,2.9203 2.013,5.6877 4.0147,7.6257c2.3123,2.2391 5.2839,3.2841 8.2697,4.3073zM313.19935,184.9181c0.0038,-0.1159 0.3819,-0.1691 0.38,-0.0988c-0.0969,3.1075 2.3465,6.4325 4.4688,8.4978c2.717,2.64 6.328,3.9197 10.0501,4.255c0.1938,0.019 -0.1577,0.1729 -0.2442,0.1634c-3.6974,-0.3353 -7.4993,-1.5808 -10.1631,-4.2873c-2.1118,-2.1461 -4.5894,-5.3666 -4.4916,-8.5301zM316.16715,182.9782c0.0713,-0.0503 0.4532,-0.095 0.2936,0.02c-0.9548,0.6878 -2.1651,1.0364 -2.9859,1.9009c-0.0655,0.0694 -0.4313,0.1131 -0.3448,0.0228c0.8398,-0.8844 2.0643,-1.2416 3.0371,-1.9437zM328.48675,195.0679c0.0523,-0.0997 0.4095,-0.1282 0.3734,-0.0627c-0.3895,0.7524 -0.8085,1.6454 -0.7363,2.5137c0.0086,0.1093 -0.3733,0.1805 -0.379,0.0998c-0.0741,-0.8845 0.3448,-1.7841 0.7419,-2.5508z" fill="#000000" stroke="none" stroke-width="0.95"/><path d="M306.88475,104.6412c-0.0551,-0.0475 0.2831,-0.1928 0.3581,-0.1273c1.0517,0.9301 2.5432,0.9272 3.8361,1.2996c0.3173,0.0912 1.3899,0.3069 0.9111,0.7733c-0.0627,0.0608 -0.4209,0.1055 -0.343,0.0295c0.4693,-0.456 -2.3693,-0.988 -2.5042,-1.0203c-0.8455,-0.2109 -1.5903,-0.3639 -2.2581,-0.9548zM307.19825,107.609c-0.0456,-0.0247 0.265,-0.1814 0.3591,-0.1282c1.1837,0.6887 2.9592,-0.3268 4.028,-0.9196c0.0674,-0.038 0.4503,-0.0817 0.2897,0.0076c-1.2027,0.6669 -3.3003,1.8401 -4.6768,1.0402zM307.95345,107.7933c-0.1862,-0.0047 0.1691,-0.1529 0.247,-0.152c0.5681,0.0171 0.76,-0.7742 0.7581,-1.2027c0,-0.3467 -0.0608,-0.6887 -0.2574,-0.9794c-0.0285,-0.0418 0.3182,-0.1938 0.38,-0.1007c0.646,0.9585 0.1187,2.4709 -1.1277,2.4348zM307.60865,105.177c0.0693,-0.0874 0.3971,-0.0959 0.3762,-0.0684c-0.6327,0.8066 -0.7325,1.9979 0.2726,2.5451c0.0437,0.0228 -0.2612,0.1795 -0.3581,0.1282c-1.0213,-0.5576 -0.9377,-1.7803 -0.2907,-2.6049zM310.55455,105.9551c-0.075,0.0019 -0.0798,-0.0456 -0.0209,-0.0817c0.0798,-0.0504 0.1767,-0.0684 0.2679,-0.0713c0.2993,-0.0114 0.5596,-0.1596 0.8113,-0.3068c0.0779,-0.0456 0.1777,-0.0741 0.2679,-0.0713c0.0703,0.0019 0.0827,0.0428 0.0209,0.0798c-0.4208,0.248 -0.8521,0.4332 -1.3471,0.4513zM309.77845,105.7964c-0.0874,-0.0142 0.0218,-0.0836 0.0484,-0.0969c0.0798,-0.037 0.1777,-0.0627 0.2651,-0.0494c0.2679,0.0418 0.645,-0.1453 0.874,-0.2698c0.0807,-0.0437 0.1757,-0.0741 0.2679,-0.0712c0.0684,0.0019 0.0864,0.0437 0.0209,0.0798c-0.4114,0.2242 -0.9975,0.4826 -1.4763,0.4075zM310.66385,107.1122c-0.1881,-0.0171 0.1681,-0.1577 0.2479,-0.1511c0.5824,0.0494 1.178,-0.322 1.5276,-0.7695c0.0209,0.0143 0.0437,0.0266 0.0637,0.0418c-0.4247,-0.0342 -0.8465,-0.094 -1.2711,-0.1301c-0.1881,-0.0152 0.1681,-0.1587 0.247,-0.1511c0.4246,0.0352 0.8483,0.095 1.2711,0.1292c0.0114,0.001 0.0912,0.0076 0.0636,0.0418c-0.4826,0.6166 -1.3566,1.0574 -2.1498,0.989zM311.85415,106.5213c0.0656,-0.0618 0.4218,-0.1055 0.3496,-0.0304c-0.303,0.284 -0.6536,0.4921 -1.0507,0.6127c-0.1558,0.0475 -0.2907,-0.0171 -0.0807,-0.0988c0.0969,-0.037 0.1919,-0.0722 0.2878,-0.1092c0.0494,-0.019 0.3715,-0.0418 0.2119,0.0456c-0.0798,0.0437 -0.1596,0.0864 -0.2413,0.1301c-0.0665,0.0361 -0.4513,0.0798 -0.2898,-0.0085c0.0836,-0.0466 0.153,-0.0808 0.2404,-0.1188c0.0418,0.0257 0.0826,0.0532 0.1244,0.0798c-0.056,0.0171 -0.1111,0.0323 -0.1691,0.0504c-0.0864,0.0313 -0.3914,0.0256 -0.1738,-0.0637c0.1368,-0.056 0.2527,-0.0931 0.3971,-0.1244c0.1653,-0.0371 0.189,0.057 0.0275,0.1083c-0.095,0.0323 -0.189,0.0617 -0.2859,0.094c-0.0846,0.0285 -0.3895,0.0428 -0.1748,-0.0627c0.0902,-0.0465 0.17,-0.0788 0.265,-0.1159c0.0494,-0.0199 0.361,-0.0617 0.21,0.0447c-0.0437,0.0332 -0.0893,0.0627 -0.1387,0.0883c-0.0846,-0.0085 -0.1691,-0.018 -0.2537,-0.0266c0.0532,-0.0313 0.1064,-0.0617 0.1606,-0.0931c0.094,0.0029 0.1862,0.0057 0.2802,0.0076c-0.094,0.0456 -0.1852,0.0969 -0.2726,0.1549c-0.0846,-0.0086 -0.1701,-0.0181 -0.2546,-0.0276c0.1149,-0.0589 0.227,-0.1263 0.342,-0.1862c0.0589,0.02 0.1159,0.0428 0.1748,0.0637c-0.1558,0.0608 -0.3116,0.1197 -0.4646,0.19c-0.0855,0.0389 -0.4436,0.0655 -0.2175,-0.0466c0.1966,-0.0988 0.4199,-0.1577 0.5728,-0.3249c0.1045,-0.0038 0.2109,-0.0076 0.3164,-0.0123c-0.3316,0.2251 -0.6992,0.38 -1.046,0.5776c-0.0541,-0.02 -0.1064,-0.0399 -0.1596,-0.0589c0.5577,-0.153 1.083,-0.4446 1.5343,-0.8037c0.0598,-0.0475 0.4265,-0.1121 0.342,-0.0295c-0.3012,0.2917 -0.6774,0.4209 -1.0555,0.5862c-0.0855,0.037 -0.4465,0.0598 -0.2175,-0.0466c0.265,-0.1235 0.5282,-0.2432 0.76,-0.4246c0.1054,-0.0038 0.2118,-0.0076 0.3163,-0.0114c-0.2175,0.1292 -0.4493,0.2308 -0.6669,0.36c-0.0845,-0.0076 -0.1691,-0.0171 -0.2546,-0.0256c0.2641,-0.1159 0.5311,-0.2299 0.76,-0.4095c0.1045,-0.0038 0.2109,-0.0076 0.3164,-0.0114c-0.2014,0.1074 -0.4104,0.2033 -0.5919,0.3439c-0.1054,0.0038 -0.2109,0.0076 -0.3163,0.0114c0.246,-0.1548 0.5082,-0.2812 0.7552,-0.436c0.0665,-0.0409 0.4484,-0.0922 0.2898,0.0085c-0.1767,0.1121 -0.362,0.1862 -0.5567,0.2632c-0.0485,0.019 -0.3677,0.0513 -0.21,-0.0456c0.1482,-0.0912 0.3002,-0.1663 0.4228,-0.2926c0.094,0.0028 0.1862,0.0057 0.2802,0.0085c-0.0712,0.0399 -0.1415,0.0817 -0.2128,0.1226c-0.1045,0.0038 -0.2118,0.0076 -0.3163,0.0114c0.1007,-0.0532 0.1947,-0.1159 0.285,-0.1872c0.1045,-0.0038 0.2118,-0.0076 0.3163,-0.0114c-0.0323,0.0285 -0.0646,0.058 -0.0969,0.0865c-0.1054,0.0038 -0.2118,0.0076 -0.3163,0.0114c0.0779,-0.0437 0.1529,-0.0922 0.2242,-0.1463c0.0475,-0.0333 0.4028,-0.1045 0.3163,-0.0124c-0.0608,0.0703 -0.1273,0.1378 -0.1957,0.1986c-0.1054,0.0038 -0.2118,0.0085 -0.3163,0.0133c0.1073,-0.0646 0.2175,-0.1197 0.3277,-0.1786c0.0589,0.0209 0.115,0.0427 0.1748,0.0636c-0.1406,0.0561 -0.2831,0.1083 -0.4227,0.1653c-0.0874,0.0352 -0.3867,0.0371 -0.1748,-0.0636c0.057,-0.0466 0.1102,-0.0922 0.1672,-0.1387c0.0503,0.0123 0.0997,0.0218 0.1501,0.0342c-0.0608,0.0171 -0.1235,0.0323 -0.1834,0.0503c0.0067,-0.0389 0.0124,-0.0769 0.0181,-0.1159c0.0522,-0.0076 0.1016,-0.0161 0.152,-0.0247c-0.0057,0.038 -0.0114,0.076 -0.0181,0.115c-0.1254,0.0133 -0.246,0.0247 -0.3714,0.0247c-0.1853,0.0019 0.1434,-0.1454 0.2071,-0.1501c0.1045,-0.0057 0.2118,-0.0152 0.3163,-0.0314c-0.0627,0.0466 -0.1292,0.0941 -0.1909,0.1406c-0.1938,-0.0332 -0.3743,-0.0741 -0.5548,-0.1472c-0.0599,-0.0238 0.2726,-0.1454 0.3353,-0.1368c0.1672,0.0199 0.324,0.057 0.4855,0.1007c0.1197,0.0323 -0.2185,0.1548 -0.2793,0.1482c-0.2223,-0.0228 -0.4446,-0.0618 -0.666,-0.0836c0.0931,-0.0485 0.1853,-0.0988 0.2793,-0.1473c0.2385,0.0589 0.4665,0.1359 0.6954,0.2223c-0.1197,0.0428 -0.2394,0.0855 -0.3581,0.1283c-0.4864,-0.2404 -1.0118,-0.4152 -1.5485,-0.5035c-0.1036,-0.0171 0.2289,-0.1558 0.3125,-0.1435c0.5909,0.0751 1.1524,0.2964 1.7471,0.343c0.1881,0.0142 -0.1682,0.1577 -0.247,0.151c-0.6175,-0.0484 -1.1989,-0.2717 -1.8117,-0.3505c0.1036,-0.0475 0.2081,-0.096 0.3116,-0.1435c0.5501,0.0903 1.0944,0.2727 1.5941,0.5206c0.0485,0.0238 -0.2669,0.1625 -0.3581,0.1283c-0.2157,-0.0817 -0.4285,-0.1511 -0.6508,-0.2071c-0.1187,-0.0285 0.2176,-0.1539 0.2793,-0.1482c0.2214,0.0237 0.4437,0.0617 0.6669,0.0836c-0.094,0.0494 -0.1862,0.0988 -0.2793,0.1482c-0.1624,-0.0437 -0.3201,-0.0817 -0.4864,-0.1017c0.1121,-0.0456 0.2242,-0.0912 0.3363,-0.1377c0.1701,0.0693 0.3306,0.0997 0.5083,0.1311c0.1235,0.0209 -0.1634,0.1368 -0.1919,0.1396c-0.1387,0.02 -0.2727,0.0352 -0.4123,0.0447c0.0684,-0.0504 0.1387,-0.0998 0.2071,-0.1501c0.0978,-0.0019 0.1928,-0.0105 0.2897,-0.0219c0.1644,-0.018 0.0865,0.0836 -0.019,0.115c-0.1491,0.0484 -0.2916,0.0769 -0.4474,0.094c-0.1653,0.0171 -0.0855,-0.0817 0.018,-0.1149c0.1311,-0.0437 0.2499,-0.0751 0.3848,-0.1036c0.0123,-0.0028 0.19,-0.0209 0.151,0.0333c-0.0883,0.1273 -0.1843,0.1871 -0.323,0.2527c-0.0589,-0.02 -0.1149,-0.0428 -0.1738,-0.0627c0.1396,-0.057 0.2821,-0.1093 0.4218,-0.1653c0.0883,-0.0352 0.3828,-0.0456 0.1748,0.0627c-0.0865,0.0437 -0.172,0.0912 -0.2565,0.1396c-0.0456,0.0276 -0.4085,0.0988 -0.3164,0.0114c0.0694,-0.0608 0.1359,-0.1292 0.1957,-0.1985c0.1055,-0.0038 0.2119,-0.0076 0.3164,-0.0114c-0.0713,0.0532 -0.1454,0.1016 -0.2242,0.1453c-0.0437,0.0276 -0.4066,0.1083 -0.3164,0.0124c0.0542,-0.0589 0.0855,-0.0808 0.1492,-0.1245c0.0589,-0.0408 0.4028,-0.0779 0.3163,-0.0133c-0.1083,0.0855 -0.2166,0.1568 -0.3363,0.2261c-0.0541,0.0304 -0.4085,0.0798 -0.3163,0.0114c0.1073,-0.0817 0.2118,-0.1463 0.3363,-0.1985c0.0304,-0.0124 0.3762,-0.0903 0.2802,0.0076c-0.1387,0.1444 -0.3059,0.228 -0.4769,0.3315c-0.0703,-0.0161 -0.1396,-0.0294 -0.2099,-0.0446c0.1387,-0.0513 0.2707,-0.1131 0.3961,-0.19c0.0969,0.0028 0.1938,0.0057 0.2907,0.0085c-0.247,0.1549 -0.5092,0.2812 -0.7552,0.4351c-0.0561,0.0352 -0.4057,0.0798 -0.3164,0.0124c0.2005,-0.1549 0.4218,-0.2622 0.646,-0.3819c0.0485,-0.0266 0.4104,-0.0846 0.3164,-0.0124c-0.2698,0.21 -0.5748,0.3487 -0.8854,0.4864c-0.0532,0.0219 -0.418,0.0713 -0.2546,-0.0266c0.2175,-0.1301 0.4493,-0.2318 0.6669,-0.361c0.0532,-0.0313 0.4075,-0.0826 0.3173,-0.0114c-0.2727,0.2119 -0.5748,0.3572 -0.8873,0.5007c-0.0722,-0.0162 -0.1444,-0.0295 -0.2176,-0.0466c0.3306,-0.1425 0.666,-0.2527 0.9301,-0.5101c0.114,-0.0105 0.228,-0.02 0.3429,-0.0295c-0.5443,0.4313 -1.1761,0.7619 -1.8477,0.9443c-0.0466,0.0143 -0.3088,0.0247 -0.1606,-0.0589c0.3477,-0.1966 0.7144,-0.3534 1.0469,-0.5776c0.0466,-0.0313 0.4038,-0.1073 0.3164,-0.0114c-0.191,0.2109 -0.4494,0.2774 -0.6973,0.4009c-0.0722,-0.0152 -0.1444,-0.0304 -0.2176,-0.0465c0.1805,-0.0836 0.3677,-0.152 0.552,-0.2252c0.0893,-0.0342 0.3828,-0.0465 0.1757,0.0646c-0.1149,0.0589 -0.227,0.1264 -0.3429,0.1862c-0.0551,0.0295 -0.4104,0.0798 -0.2537,-0.0266c0.1102,-0.075 0.2242,-0.132 0.3439,-0.1928c0.0428,-0.02 0.3762,-0.0599 0.2812,0.0085c-0.1073,0.077 -0.1672,0.115 -0.2878,0.1701c-0.0532,0.0237 -0.4171,0.0674 -0.2537,-0.0266c0.0485,-0.0257 0.095,-0.0561 0.1387,-0.0884c0.0703,0.0152 0.1397,0.0285 0.2109,0.0447c-0.0589,0.0256 -0.1178,0.0541 -0.1786,0.0807c-0.0579,-0.0209 -0.1159,-0.0427 -0.1738,-0.0636c0.095,-0.0323 0.19,-0.0618 0.2859,-0.0941c0.0095,0.0361 0.02,0.0722 0.0295,0.1093c-0.0361,0.0114 -0.0722,0.0209 -0.1074,0.0332c-0.0589,-0.0199 -0.1159,-0.0427 -0.1748,-0.0627c0.0912,-0.0323 0.1729,-0.0589 0.267,-0.0817c0.0912,-0.0218 0.3192,-0.0038 0.1254,0.0798c-0.057,0.0257 -0.1121,0.0542 -0.1701,0.0808c-0.0959,-0.0029 -0.1928,-0.0057 -0.2897,-0.0086c0.0798,-0.0427 0.1596,-0.0874 0.2403,-0.1311c0.0703,0.0171 0.1397,0.0304 0.21,0.0456c-0.096,0.0371 -0.191,0.0722 -0.2879,0.1093c-0.0266,-0.0333 -0.0541,-0.0646 -0.0798,-0.0979c0.2869,-0.0902 0.532,-0.2736 0.7429,-0.4721zM310.07295,107.3953c-0.1843,0.0019 0.17,-0.1501 0.2489,-0.1511c0.1396,-0.0009 0.3201,-0.0323 0.4664,-0.0484c-0.056,0.0494 -0.1102,0.0988 -0.1653,0.1491c-0.1558,0.0114 -0.3087,0.0342 -0.4617,0.0627c0.0399,-0.0465 0.0789,-0.094 0.1188,-0.1406c0.1387,-0.019 0.2793,-0.0389 0.4199,-0.057c-0.057,0.0504 -0.1102,0.0988 -0.1672,0.1482c-0.1473,0.0133 -0.2945,0.038 -0.4399,0.0656c-0.2232,0.0437 -0.1349,-0.0855 0.02,-0.1245c0.1263,-0.0323 0.2536,-0.0655 0.379,-0.1026c0.1549,-0.0446 0.2945,0.0209 0.0798,0.0979c-0.1491,0.056 -0.2983,0.0997 -0.4541,0.1387c0.0371,-0.0437 0.0722,-0.0884 0.1083,-0.1321c0.1064,-0.0133 0.2147,-0.0237 0.3211,-0.0361c-0.0057,0.038 -0.0133,0.077 -0.019,0.115c-0.1187,0.0085 -0.2356,0.0247 -0.3515,0.0513c0.0399,-0.0466 0.0789,-0.0941 0.1188,-0.1416c0.7001,-0.0256 1.2644,-0.3686 1.7233,-0.8778c0.0589,-0.0655 0.4189,-0.1159 0.3429,-0.0304c-0.5785,0.6413 -1.368,1.026 -2.2334,1.0564c-0.2385,0.0095 0.0294,-0.1235 0.1187,-0.1406c0.1482,-0.0304 0.2955,-0.0503 0.4456,-0.0636c0.1681,-0.0181 0.0826,0.0779 -0.0181,0.1149c-0.2318,0.0855 -0.4512,0.115 -0.6973,0.1045c-0.17,-0.0066 0.0589,-0.1197 0.1083,-0.133c0.1197,-0.0275 0.2375,-0.0617 0.3534,-0.1064c0.0257,0.0333 0.0532,0.0656 0.0798,0.0988c-0.1254,0.0371 -0.2527,0.0703 -0.38,0.1026c0.0076,-0.0427 0.0143,-0.0845 0.0209,-0.1263c0.1777,-0.0342 0.3544,-0.0608 0.5339,-0.0789c0.2518,-0.0228 -0.0731,0.1378 -0.1662,0.1482c-0.1387,0.019 -0.2793,0.039 -0.419,0.058c-0.2346,0.0285 0.0285,-0.1254 0.1188,-0.1425c0.1833,-0.0361 0.3686,-0.0627 0.5557,-0.0779c0.2508,-0.02 -0.0712,0.1387 -0.1653,0.1491c-0.1814,0.019 -0.3581,0.0494 -0.5443,0.0504zM311.68985,106.583c0.0494,-0.0617 0.1463,-0.0883 0.2213,-0.1007c0.0086,-0.0019 0.1929,-0.0199 0.1511,0.0342c-0.0295,0.0371 -0.0675,0.0646 -0.096,0.1007c-0.0342,0.0447 -0.3695,0.1796 -0.3762,0.0865c-0.0028,-0.0371 -0.0104,-0.0732 -0.0142,-0.1102c0.0674,0.0019 0.1368,0.0038 0.2052,0.0057c-0.0637,0.0171 -0.1055,0.095 -0.1311,0.1491c-0.1112,0.0095 -0.2214,0.019 -0.3325,0.0285c0.1102,-0.0722 0.2251,-0.1311 0.265,-0.266c0.0276,-0.094 0.3952,-0.1406 0.3743,-0.0674c-0.0494,0.1672 -0.2128,0.2517 -0.3496,0.3429c-0.0323,0.02 -0.3724,0.1112 -0.3325,0.0285c0.0922,-0.189 0.2822,-0.2755 0.475,-0.3306c0.0228,-0.0066 0.2005,-0.0494 0.2052,0.0057c0.0029,0.0371 0.0114,0.0732 0.0152,0.1102c-0.1263,0.0285 -0.2517,0.057 -0.3762,0.0855c0.0295,-0.037 0.0665,-0.0655 0.096,-0.1026zM309.78695,107.5663c-0.1425,0.0475 -0.3876,0.0019 -0.1301,-0.0817c0.5149,-0.1682 1.064,-0.2375 1.5703,-0.4275c0.5073,-0.19 0.7562,-0.5662 1.1628,-0.8788c0.0703,-0.0532 0.4218,-0.0893 0.343,-0.0304c-0.3933,0.3012 -0.6774,0.6869 -1.1353,0.8987c-0.5681,0.2632 -1.2179,0.3268 -1.8107,0.5197z" fill="#000000" stroke="none" stroke-width="0.95"/><path d="M337.89655,177.0911c-0.0637,-0.0656 0.3952,-0.2537 0.4769,-0.1682c1.5694,1.634 2.2581,3.8922 2.4367,6.1152c0.1283,1.5846 0.2299,3.5216 -0.3724,5.0397c-1.4126,3.5663 -2.6666,7.1953 -4.0688,10.7654c-1.0137,2.5774 -2.1622,5.1034 -3.535,7.5098c-1.3423,2.3484 -2.8481,4.6027 -4.1401,6.9806c-2.432,4.4726 -3.9064,9.347 -6.1427,13.9089c-0.0598,0.1226 -0.5225,0.153 -0.4968,0.0969c2.2382,-4.559 3.6765,-9.4553 6.1446,-13.9089c2.6438,-4.7785 5.6012,-9.2131 7.6114,-14.3289c1.3879,-3.5311 2.431,-7.2941 4.047,-10.7255c0.6612,-1.405 0.5975,-3.3839 0.475,-4.8887c-0.1881,-2.317 -0.7838,-4.6768 -2.4358,-6.3963zM313.92325,178.9436c0.0637,-0.1226 0.5254,-0.1473 0.4978,-0.0969c-2.7702,5.3485 -5.0331,10.8395 -5.9099,16.8292c-0.3905,2.6553 -0.6308,5.3295 -0.9272,7.9971c-0.1881,1.6825 -0.3762,3.364 -0.6232,5.0388c-0.1387,0.9415 -0.438,1.7499 -0.4551,2.7113c-0.0028,0.1349 -0.5073,0.1967 -0.5063,0.1378c0.0199,-1.1115 0.3705,-2.0691 0.5177,-3.1702c0.2214,-1.6511 0.4228,-3.305 0.6033,-4.9599c0.2878,-2.641 0.5177,-5.2934 0.93,-7.9192c0.9272,-5.8919 3.1417,-11.2917 5.8729,-16.568zM316.98895,227.404c-0.0209,-0.0237 0.4075,-0.2479 0.5054,-0.1349c1.1067,1.2578 3.6014,1.4621 4.5666,-0.0541c0.0751,-0.1197 0.5216,-0.1359 0.4959,-0.0969c-1.1143,1.7546 -4.2531,1.7803 -5.5679,0.2859zM317.62925,231.0796c-0.3287,0.0418 0.1064,-0.1701 0.2242,-0.1824c1.0991,-0.1435 2.3503,-0.1102 3.363,-0.6052c0.608,-0.2964 1.0687,-0.7448 1.2492,-1.405c0.0931,-0.3363 0.2252,-1.3937 -0.4598,-1.3243c-0.3306,0.0351 0.1055,-0.1701 0.2252,-0.1824c0.7495,-0.077 0.8835,0.5595 0.7856,1.2131c-0.0959,0.6327 -0.5453,1.2103 -1.0944,1.5238c-1.311,0.7467 -2.8367,0.7733 -4.293,0.9624zM318.15745,256.6526c-0.0751,0.1207 -0.5235,0.1368 -0.4969,0.0979c1.0678,-1.7195 1.6454,-3.9226 2.0957,-5.8815c0.5795,-2.5279 0.7933,-5.1091 0.836,-7.6988c0.0703,-4.2094 -0.284,-8.4379 0.1663,-12.634c0.0152,-0.1416 0.5111,-0.1824 0.5054,-0.1368c-0.4674,4.3624 -0.0428,8.7495 -0.1767,13.1223c-0.0751,2.4263 -0.2394,4.8868 -0.8341,7.2495c-0.495,1.9693 -1.0156,4.141 -2.0957,5.8814zM316.06935,267.2831c-0.0599,0.1226 -0.5254,0.152 -0.4969,0.096c0.5453,-1.1077 1.1951,-2.2249 1.521,-3.4238c0.2384,-0.8826 0.2831,-1.8364 0.6146,-2.6923c0.2974,-0.7714 0.7192,-1.3994 1.273,-2.0121c0.6346,-0.7002 -1.0193,-2.2952 -1.425,-2.6895c-0.0617,-0.0608 0.3905,-0.2527 0.4779,-0.1672c0.7362,0.7173 1.2863,1.5238 1.7366,2.4501c0,0.0199 -0.0095,0.0332 -0.0257,0.0437c-1.215,1.2274 -1.5979,2.3883 -1.9361,4.0489c-0.3173,1.5551 -1.0431,2.9326 -1.7394,4.3462zM292.71925,253.3371c-0.0323,-0.0722 0.456,-0.247 0.5083,-0.1339c1.1276,2.5089 1.975,5.0198 4.0337,6.9682c1.7347,1.6397 3.7202,3.4314 5.9194,4.4242c1.673,0.7552 3.2414,0.6251 5.0208,0.5035c0.8673,-0.058 1.9541,-0.1007 2.7806,0.209c0.7325,0.2755 1.4174,0.6735 2.1185,1.0174c0.3762,0.1824 2.1613,1.2369 2.5413,0.893c0.0855,-0.0769 0.551,-0.1377 0.455,-0.0513c-0.9671,0.875 -2.8709,-0.3724 -3.7306,-0.8056c-1.2179,-0.6137 -2.224,-1.1219 -3.6433,-1.102c-1.4088,0.019 -2.9146,0.3591 -4.3168,0.0627c-2.8072,-0.5899 -5.3371,-2.8262 -7.3682,-4.7452c-2.1774,-2.0587 -3.1169,-4.5686 -4.3187,-7.24zM299.05385,244.561c0.3297,-0.0399 -0.1054,0.1701 -0.2242,0.1824c-1.0003,0.1197 -1.9969,0.2727 -2.9915,0.4256c-0.9139,0.1387 -0.8427,0.4693 -1.1125,1.3794c-0.6355,2.1537 -0.9053,4.4118 -1.6416,6.5284c-0.0418,0.1207 -0.5225,0.171 -0.4959,0.096c0.5339,-1.5419 0.7439,-3.1654 1.1476,-4.7424c0.2261,-0.8835 0.3772,-2.4957 1.0336,-3.1654c0.2109,-0.2176 0.7933,-0.2043 1.0441,-0.2413c1.0782,-0.1634 2.1555,-0.3325 3.2404,-0.4627zM300.61945,238.2692c0.0827,-0.0789 0.5501,-0.1387 0.4532,-0.0494c-0.6641,0.6317 -1.35,1.2407 -2.0796,1.7964c-0.551,0.4199 -2.0406,1.1182 -2.2591,1.7889c-0.3543,1.0915 0.494,2.1289 0.0409,3.2262c-0.0504,0.1216 -0.5244,0.1605 -0.4969,0.0959c0.4104,-0.9927 -0.7286,-2.7236 0.1378,-3.4874c1.349,-1.1875 2.888,-2.1223 4.2037,-3.3706zM307.64095,209.887c0.0817,-0.0798 0.55,-0.1416 0.455,-0.0513c-1.7356,1.6948 -3.9301,3.419 -4.1277,5.9897c-0.21,2.7503 -0.3202,5.4967 -0.6622,8.2365c-0.3353,2.6553 -1.1001,5.245 -1.3243,7.9202c-0.0978,1.1742 -0.2403,2.3332 -0.284,3.5083c-0.0333,0.8949 -0.1729,1.9095 -0.6033,2.7047c-0.0655,0.1216 -0.5244,0.1463 -0.4978,0.0959c0.6916,-1.2739 0.4161,-2.6828 0.6612,-4.0451c0.2347,-1.3053 0.2774,-2.6486 0.4693,-3.9653c0.3914,-2.6733 1.0023,-5.2829 1.2569,-7.979c0.1377,-1.4554 0.2945,-2.8994 0.361,-4.3615c0.0494,-1.0554 0.0408,-2.1612 0.3306,-3.1872c0.5405,-1.919 2.5726,-3.5055 3.9653,-4.8659zM296.01955,247.3559c-0.0332,-0.0161 0.3468,-0.2242 0.4788,-0.1653c2.4216,1.0783 3.4808,3.6537 5.3998,5.3238c0.4988,0.4342 3.3868,2.4007 3.3659,0.7591c-0.0162,-1.1514 -0.8009,-2.1537 -1.5599,-2.9488c-0.0618,-0.0665 0.3961,-0.2546 0.4788,-0.1672c0.6488,0.6802 2.0748,2.2695 1.5114,3.343c-0.2764,0.5282 -0.9842,0.7078 -1.5466,0.6004c-3.799,-0.7315 -4.8022,-5.262 -8.1282,-6.745zM340.50905,184.3909c-0.0209,-0.1083 0.4883,-0.2252 0.5044,-0.1368c1.1324,5.927 1.2597,11.9975 1.786,17.993c0.6441,7.3121 2.7094,14.6775 5.1386,21.5754c0.0304,0.0874 -0.4693,0.2404 -0.5045,0.1368c-2.4206,-6.8675 -4.5676,-14.2794 -5.1376,-21.5745c-0.4693,-5.9926 -0.6555,-12.0745 -1.7869,-17.9939zM343.74755,227.4639c-0.2432,-0.0133 0.2356,-0.1957 0.3344,-0.1891c1.5637,0.0884 3.1084,-1.7974 2.7332,-3.3117c-0.0266,-0.1016 0.4826,-0.2327 0.5054,-0.1377c0.4835,1.9456 -1.767,3.7392 -3.573,3.6385zM346.91015,229.342c-0.0874,0.1159 -0.5187,0.1235 -0.495,0.0931c0.5871,-0.7837 1.3082,-1.5352 1.7148,-2.4386c0.2346,-0.5206 0.4664,-1.1628 0.2679,-1.7357c-0.0703,-0.1995 -0.6584,-1.4668 -1.0023,-1.0896c-0.0978,0.1102 -0.5101,0.1121 -0.4949,0.095c0.7315,-0.8056 1.8183,-0.0979 2.0035,0.8607c0.3202,1.6511 -1.0858,3.0077 -1.994,4.2151zM362.98315,243.1056c-0.0266,0.1169 -0.5187,0.1843 -0.4968,0.095c0.9044,-3.7126 -3.3193,-6.0876 -5.7817,-7.9838c-3.0771,-2.3702 -6.0515,-5.2858 -8.5348,-8.2669c-0.0247,-0.0294 0.4104,-0.2498 0.5054,-0.1377c2.7502,3.3003 6.0657,6.4248 9.5133,8.9908c2.3056,1.7176 5.6059,3.9805 4.7946,7.3026zM367.69805,251.3364c0.0304,0.0855 -0.4674,0.2404 -0.5026,0.133c-0.3382,-0.9471 -0.6289,-1.9389 -1.0953,-2.831c-0.3838,-0.7305 -0.913,-1.3395 -1.3253,-2.0453c-0.3353,-0.5748 -0.6222,-1.1866 -0.7096,-1.8563c-0.0855,-0.646 0.0655,-1.1828 -0.9234,-1.3775c-0.5995,-0.1178 -1.1894,-0.1786 -1.8012,-0.1634c-0.2394,0.0057 0.2365,-0.1872 0.3325,-0.19c0.9737,-0.0219 1.8753,0.1368 2.8006,0.437c0.0047,0.0057 0.0085,0.0104 0.0133,0.0161c0.0304,1.3671 0.3809,2.5147 1.2093,3.6157c0.9719,1.2873 1.4649,2.755 2.0017,4.2617zM343.14335,257.6093c-0.0237,-0.0095 0.3411,-0.2176 0.4807,-0.1672c2.394,0.8683 4.6113,1.918 7.2295,1.7964c2.5897,-0.1197 6.2539,-0.2318 8.2365,-2.1099c1.2246,-1.1609 2.1812,-3.021 3.8048,-3.6974c0.892,-0.3686 4.1847,-0.9795 4.2379,-2.0805c0.0067,-0.1378 0.5092,-0.1929 0.5064,-0.1368c-0.058,1.1675 -3.1331,1.767 -3.9387,2.0624c-1.5295,0.5634 -2.3817,1.8915 -3.4276,3.0543c-0.7914,0.8787 -1.6435,1.5124 -2.7455,1.9456c-2.1537,0.8493 -4.7158,1.0782 -7.0063,1.1514c-2.6837,0.0883 -4.9181,-0.9272 -7.3777,-1.8183zM341.25575,248.058c0.0893,-0.1159 0.5196,-0.1235 0.4987,-0.0979c-0.5671,0.7486 -1.1096,1.5124 -1.6549,2.2762c-0.4664,0.6536 -0.5453,0.7971 -0.133,1.5447c1.0716,1.9466 2.4862,3.6984 3.4894,5.6763c0.0323,0.0646 -0.4475,0.2489 -0.5064,0.1358c-1.0649,-2.1014 -2.7863,-3.876 -3.6974,-6.061c-0.2356,-0.5662 0.001,-0.7058 0.3496,-1.1989c0.5415,-0.7647 1.0849,-1.5285 1.654,-2.2752zM340.39785,249.8886c-0.0228,0.1435 -0.512,0.1729 -0.5063,0.1368c0.2546,-1.5494 0.4417,-3.0951 0.455,-4.6664c0.0019,-0.133 0.5064,-0.1985 0.5064,-0.1377c-0.0124,1.5722 -0.1995,3.1169 -0.4551,4.6673zM325.38975,219.4525c-0.0332,-0.0617 0.4456,-0.2489 0.5045,-0.1377c0.8464,1.5941 0.6469,3.8342 0.7077,5.585c0.0409,1.1495 -0.0009,2.281 0.6926,3.2661c0.8854,1.2559 2.0349,2.2829 3.0324,3.4476c1.9931,2.3208 3.6993,4.7813 5.5537,7.2019c0.873,1.14 1.7993,2.2297 2.6989,3.345c0.8009,0.9927 1.8744,1.7936 2.2734,3.0609c0.0285,0.0931 -0.4741,0.2394 -0.5054,0.1377c-0.4009,-1.2749 -1.5267,-2.0206 -2.2743,-3.0618c-0.8313,-1.16 -1.8354,-2.204 -2.698,-3.345c-1.8402,-2.4329 -3.5169,-4.9191 -5.5528,-7.2019c-0.9937,-1.1163 -2.2467,-2.1613 -3.0343,-3.4476c-0.6365,-1.0412 -0.6526,-2.0814 -0.6925,-3.2661c-0.0551,-1.748 0.1368,-3.9938 -0.7059,-5.5841zM336.68815,234.2355c0.0503,0.0332 -0.3648,0.2413 -0.4788,0.1672c-2.413,-1.5922 -4.8887,-3.1122 -7.6665,-3.971c-0.0181,-0.0067 0.3382,-0.2109 0.4778,-0.1672c2.7797,0.8597 5.2545,2.3797 7.6675,3.971zM334.36445,229.21c-0.0751,0.1206 -0.5235,0.1377 -0.4978,0.0959c0.6488,-1.0459 1.1485,-2.4377 0.7961,-3.6774c-0.1302,-0.4674 -0.798,-1.5257 -1.2179,-0.6099c-0.2423,0.5301 -0.3848,1.0374 -0.4665,1.6264c-0.17,1.2435 -0.1615,3.3668 -1.3984,4.0964c-0.0826,0.0484 -0.5909,0.1235 -0.3828,0.0009c1.2844,-0.7552 1.0621,-3.1749 1.3575,-4.4222c0.153,-0.6622 0.3781,-1.7252 1.1695,-1.9171c2.4871,-0.6042 1.2986,3.7439 0.6403,4.807z" fill="#000000" stroke="none" stroke-width="0.95"/><path d="M311.17115,272.3913c-0.3154,0.0722 -0.418,-0.2964 -0.0988,-0.3686c2.0045,-0.457 2.4776,-3.7668 1.785,-5.4264c-0.0978,-0.2318 0.4066,-0.3753 0.5054,-0.1359c0.8132,1.9466 0.1045,5.4093 -2.1916,5.9309zM285.73865,257.8534c0.1112,-0.2109 0.6251,-0.1919 0.4864,0.0703c-1.1827,2.2354 -2.3151,4.7833 0.0437,6.6871c0.2347,0.189 -0.1995,0.4541 -0.3857,0.3021c-2.4804,-2.0007 -1.4183,-4.6541 -0.1444,-7.0595zM285.45935,264.5927c-0.1805,-0.1985 0.2974,-0.4104 0.4617,-0.2289c1.6511,1.8268 3.9786,3.0941 6.4334,3.3839c2.1356,0.2489 4.1876,0.7495 6.0762,1.8107c2.0843,1.1713 4.0746,2.5346 6.2187,3.6014c0.9966,0.4969 2.0188,0.9614 3.0875,1.2863c0.6945,0.2119 1.6293,0.247 2.2658,0.5919c-0.1368,0.0209 -0.2708,0.0456 -0.4076,0.0674c0.7372,-0.9015 1.1267,-1.7185 1.2702,-2.8804c0.0285,-0.2451 0.5472,-0.304 0.5139,-0.0323c-0.152,1.2322 -0.5738,2.1233 -1.3566,3.0799c-0.1007,0.1235 -0.2736,0.1397 -0.4075,0.0675c-0.4674,-0.2537 -1.2246,-0.2527 -1.7537,-0.4142c-0.5434,-0.1644 -1.0868,-0.3363 -1.6131,-0.5529c-0.913,-0.3724 -1.8031,-0.7914 -2.6686,-1.2673c-2.1042,-1.1562 -4.0916,-2.6306 -6.2804,-3.6243c-1.3405,-0.6099 -2.7474,-1.0488 -4.2104,-1.2359c-0.9852,-0.1273 -1.9846,-0.2299 -2.926,-0.5662c-1.7984,-0.6403 -3.4191,-1.6663 -4.7035,-3.0866zM286.11105,257.6834c0.2081,-0.1644 0.6118,0.038 0.3401,0.2517c-0.5092,0.4 0.8626,2.8671 1.0811,3.1835c0.5795,0.836 1.2664,1.5884 2.0682,2.2173c1.652,1.2958 3.5378,2.2648 5.5043,2.9953c2.3332,0.8664 4.7785,1.3025 7.2295,1.7015c1.5086,0.246 3.2423,0.4379 4.4564,1.4582c0.2299,0.1929 -0.2023,0.4579 -0.3866,0.3031c-0.9956,-0.837 -2.3627,-1.065 -3.611,-1.2711c-1.3423,-0.2204 -2.6894,-0.4456 -4.0223,-0.7154c-2.2496,-0.4588 -4.4526,-1.1761 -6.4951,-2.2344c-1.7794,-0.9234 -3.5863,-2.0586 -4.8089,-3.6822c-0.6175,-0.8198 -1.1258,-1.7185 -1.3718,-2.7236c-0.1235,-0.4988 -0.4589,-1.1096 0.0161,-1.4839zM285.99805,257.9266c-0.3373,-0.0656 -0.0931,-0.4389 0.171,-0.3867c2.9944,0.5805 6.2234,1.8848 9.2938,1.1685c0.3154,-0.0741 0.4161,0.2964 0.0988,0.3715c-3.1939,0.7438 -6.4514,-0.5482 -9.5636,-1.1533zM306.13995,269.6724c-0.2499,-0.1587 0.1852,-0.4313 0.3866,-0.3031c1.4982,0.9472 2.7845,2.2848 4.6075,2.5565c0.3401,0.0513 0.0931,0.4256 -0.17,0.3866c-1.9162,-0.285 -3.2481,-1.6416 -4.8241,-2.64z" fill="#010101" stroke="none" stroke-width="0.95"/><path d="M364.66755,253.4302c-0.3344,-0.0769 -0.0903,-0.4474 0.1681,-0.3866c0.9738,0.2213 1.6036,1.2464 1.9979,2.0871c0.1045,0.2252 -0.3971,0.3705 -0.5054,0.1378c-0.3135,-0.6707 -0.8807,-1.6597 -1.6606,-1.8383zM352.32605,266.3683c-0.3154,0.0779 -0.4161,-0.2926 -0.1007,-0.3696c3.4105,-0.8398 6.6006,-2.6714 9.2008,-5.0236c1.7936,-1.6226 4.655,-3.6537 4.9637,-6.2339c0.0285,-0.2441 0.5472,-0.303 0.514,-0.0313c-0.3221,2.6809 -3.2348,4.8573 -5.1348,6.5141c-2.7265,2.3798 -5.9109,4.275 -9.443,5.1443zM343.14815,269.8472c-0.3363,-0.0637 -0.0931,-0.437 0.171,-0.3895c2.6315,0.4968 5.4672,0.3087 8.1139,-0.0646c2.1784,-0.3059 5.2858,-0.7344 6.954,-2.2981c0.912,-0.855 1.6245,-1.8838 2.4976,-2.7759c0.9224,-0.9376 1.8629,-1.8544 2.8129,-2.7635c1.1533,-1.1039 2.318,-2.1993 3.4267,-3.3507c0.7448,-0.7733 1.0659,-1.2084 0.474,-2.2296c-0.3154,-0.5434 -0.6726,-0.9605 -1.2112,-1.3006c-0.2508,-0.1586 0.1852,-0.4313 0.3866,-0.303c0.7819,0.4949 1.9247,1.8135 1.824,2.8424c-0.0418,0.4218 -1.0858,1.2036 -1.3841,1.5029c-0.4712,0.474 -0.9443,0.9443 -1.4241,1.4069c-1.4962,1.4497 -3.0324,2.8605 -4.4773,4.3624c-0.8845,0.9215 -1.6027,2.0368 -2.585,2.8605c-1.8449,1.5485 -4.6844,2.0681 -7.0062,2.3949c-2.8044,0.3933 -5.776,0.6337 -8.5728,0.1055zM339.37945,264.3695c-0.0228,-0.2565 0.4845,-0.3819 0.5083,-0.1349c0.2109,2.3275 0.6137,4.9685 3.4304,5.225c0.3401,0.0304 0.0903,0.4113 -0.171,0.3876c-2.9839,-0.2698 -3.5359,-2.9403 -3.7677,-5.4777zM339.58375,264.0522c0.0769,-0.229 0.5833,-0.2176 0.4873,0.0684c-0.2175,0.6431 2.3009,1.9028 2.699,2.0491c1.0079,0.3677 2.0624,0.5814 3.135,0.6232c2.1422,0.0836 4.2541,-0.2593 6.3232,-0.797c0.3163,-0.0827 0.4142,0.2888 0.0988,0.3705c-2.5726,0.6716 -5.4122,1.1675 -8.0579,0.6536c-1.1847,-0.2309 -2.4045,-0.6042 -3.3754,-1.3538c-0.4199,-0.3249 -1.5276,-0.9747 -1.31,-1.614zM339.74715,264.2887c-0.267,0.1102 -0.5491,-0.1881 -0.229,-0.3211c3.0077,-1.2416 6.6738,-2.2847 8.9804,-4.7006c0.1691,-0.1738 0.6517,-0.0665 0.4275,0.1653c-2.3845,2.4985 -6.0715,3.5739 -9.1789,4.8564z" fill="#010101" stroke="none" stroke-width="0.95"/><path d="M339.81835,162.786c-0.1529,-0.1995 0.3325,-0.3924 0.4636,-0.2185c1.8392,2.4006 2.3788,5.491 3.4837,8.2498c0.6697,1.6691 1.5703,3.2651 2.1536,4.9647c0.4617,1.3414 1.3025,2.5849 1.4051,4.0251c0.0171,0.2356 -0.4912,0.3553 -0.5064,0.1378c-0.1016,-1.4079 -0.8873,-2.7351 -1.405,-4.0271c-0.608,-1.5219 -1.3604,-2.983 -1.9684,-4.5049c-1.1429,-2.8557 -1.7319,-6.1531 -3.6262,-8.6269zM350.47075,161.9775c0.0503,0.228 -0.456,0.3591 -0.5045,0.1349c-0.2033,-0.9329 -1.0469,-1.4478 -1.4791,-2.26c-0.1216,-0.2271 0.3638,-0.4066 0.4636,-0.2176c0.4493,0.8417 1.31,1.3718 1.52,2.3427zM352.81155,179.9563c0.0503,0.2299 -0.457,0.36 -0.5035,0.1377c-1.2863,-6.0059 -0.7952,-12.216 -2.3418,-18.1678c-0.0589,-0.2251 0.4465,-0.3591 0.5045,-0.1368c1.5475,5.9546 1.0564,12.161 2.3408,18.1669zM346.89875,187.961c0.0294,0.2337 -0.4788,0.3572 -0.5064,0.1377c-0.1852,-1.4934 -0.2014,-3.0485 0.0808,-4.5324c0.2907,-1.52 0.8113,-3.1236 0.0788,-4.6009c-0.0969,-0.1957 0.4019,-0.3477 0.5064,-0.1358c0.6156,1.2416 0.3771,2.6505 0.0807,3.951c-0.3866,1.7005 -0.4569,3.4514 -0.2403,5.1804zM348.83105,193.8548c0.0332,0.2337 -0.475,0.3581 -0.5064,0.1368c-0.1634,-1.1999 -0.0304,-2.5327 -0.684,-3.6119c-0.4683,-0.7724 -1.063,-1.4535 -1.2226,-2.3655c-0.0409,-0.2318 0.4664,-0.3591 0.5054,-0.1368c0.1776,1.0241 0.9661,1.6786 1.3452,2.6058c0.4493,1.0963 0.4056,2.2173 0.5624,3.3716zM348.36365,194.1578c-0.2964,-0.1159 0.0912,-0.4085 0.2935,-0.3306c1.1153,0.4313 1.6331,-1.0953 1.4336,-1.8753c-0.1349,-0.5225 -0.3354,-1.0231 -0.4798,-1.5418c-0.1852,-0.665 -0.4446,-1.5447 0.2347,-2.0026c0.1966,-0.133 0.6184,0.0237 0.3344,0.2166c-0.6964,0.4702 0.0551,2.0073 0.2413,2.5925c0.1909,0.5985 0.2755,1.0488 0.1206,1.6682c-0.2574,1.0279 -1.1704,1.6635 -2.1783,1.273zM349.83995,188.7647c-0.2983,-0.1102 0.0921,-0.4057 0.2964,-0.3297c1.4174,0.5206 2.4158,1.6863 3.3449,2.8272c0.5064,0.6194 1.0365,1.2208 1.5457,1.8364c0.3477,0.4199 0.7372,0.9718 1.2302,1.2302c0.1159,0.0608 1.6825,0.551 1.4602,-0.2812c-0.0589,-0.2242 0.4484,-0.36 0.5063,-0.1358c0.3715,1.3879 -2.0415,0.9291 -2.6362,0.4959c-2.1746,-1.5808 -3.0695,-4.6588 -5.7475,-5.643zM358.78225,189.9503c0.0029,0.2147 -0.5073,0.2992 -0.5111,0.0418c-0.0313,-2.1404 -0.8958,-4.2798 -2.2695,-5.9242c-1.1543,-1.3813 -2.5669,-2.5137 -3.6746,-3.9349c-0.1539,-0.1976 0.3268,-0.3914 0.4636,-0.2176c1.3556,1.7376 3.2756,3.0343 4.388,4.96c0.9329,1.6131 1.578,3.1853 1.6036,5.0749zM358.26645,193.9241c0.0589,0.2252 -0.4475,0.3601 -0.5035,0.1359c-0.1796,-0.6774 -0.7847,-1.2512 -1.2056,-1.7946c-0.5396,-0.6944 -1.0915,-1.3775 -1.6425,-2.0615c-1.1419,-1.4126 -2.2943,-2.8082 -3.2253,-4.3719c-0.1311,-0.2204 0.3534,-0.4047 0.4646,-0.2175c1.0032,1.6862 2.2648,3.1863 3.4941,4.7091c0.8198,1.0156 2.2781,2.3095 2.6182,3.6005zM357.47035,194.667c-0.2451,-0.1149 0.2042,-0.3733 0.3933,-0.2831c1.938,0.912 1.0583,-1.2815 0.8227,-1.6663c-0.1663,-0.2736 -0.3392,-0.5415 -0.5206,-0.8056c-0.4665,-0.6716 -0.8617,-1.3822 -1.2949,-2.0757c-1.1162,-1.7908 -2.3113,-3.5293 -3.4551,-5.301c-0.1397,-0.2147 0.3448,-0.4009 0.4626,-0.2185c1.8079,2.7977 3.8219,5.5356 5.4226,8.4578c0.7619,1.3918 -0.4189,2.5565 -1.8306,1.8924zM358.90575,192.3443c-0.095,0.1909 -0.607,0.2033 -0.4797,-0.0494c0.7799,-1.5685 -0.8123,-3.5958 -1.6312,-4.8412c-0.5842,-0.8883 -1.0231,-1.8212 -1.6739,-2.6705c-0.1529,-0.1976 0.3287,-0.3923 0.4617,-0.2175c0.9719,1.2673 1.8449,2.7616 2.6135,4.1591c0.6004,1.0906 1.3176,2.4006 0.7096,3.6195z" fill="#000000" stroke="none" stroke-width="0.95"/><path d="M337.55925,162.4212c-0.0446,-0.0903 0.4418,-0.267 0.5064,-0.1368c0.7438,1.5124 -0.38,3.5178 0.3258,5.0369c0.3496,0.7505 1.1951,1.1922 0.8151,2.1726c-0.3667,0.9396 -1.0288,1.6825 -1.177,2.7094c-0.0181,0.1264 -0.5197,0.2195 -0.4997,0.0865c0.1501,-1.0412 0.9281,-1.7328 1.177,-2.7104c0.2964,-1.1599 -0.7761,-1.4763 -0.9101,-2.4785c-0.1909,-1.426 0.4085,-3.3678 -0.2375,-4.6797zM337.99725,177.1908c-0.1235,0.0637 -0.5938,0.0751 -0.2926,-0.0769c2.5555,-1.3015 -0.0646,-3.1122 -0.1786,-4.9419c-0.0086,-0.1463 0.5006,-0.2347 0.5063,-0.1359c0.0732,1.1866 1.0783,2.0102 1.2968,3.1407c0.1985,1.0317 -0.4807,1.5818 -1.3319,2.014zM320.04505,127.9846c0.0798,-0.095 0.5681,-0.1624 0.4589,-0.0332c-0.6242,0.7429 -1.3642,1.5095 -2.3066,1.842c-0.2299,0.0798 -0.4522,0.1425 -0.6897,0.1881c-0.0779,0.0152 -0.5073,0.0903 -0.2765,-0.0009c-0.0247,0.0095 -0.399,0.0883 -0.3382,-0.02c0.285,-0.5177 0.4864,-0.8445 0.1102,-1.4212c0.114,-0.0009 0.228,-0.0028 0.3411,-0.0047c-1.6188,0.6384 -1.7452,2.1489 -2.1109,3.5957c-0.4579,1.8117 -1.0089,3.6376 -1.7157,5.3685c-1.4972,3.6689 -3.4029,7.7463 -2.2287,11.7857c0.9889,3.3943 3.8161,6.117 4.1629,9.7128c0.17,1.7632 0.0275,3.5796 -0.0903,5.3456c-0.1216,1.8278 -0.5966,3.4609 -0.3391,5.3153c0.019,0.1387 -0.4921,0.246 -0.5064,0.1358c-0.2964,-2.1479 0.3078,-4.065 0.3743,-6.2035c0.0599,-1.918 0.3544,-3.8845 -0.1824,-5.7655c-1.083,-3.7877 -4.2389,-6.6662 -4.2626,-10.8025c-0.0257,-4.3386 2.2904,-8.0579 3.5045,-12.1058c0.4503,-1.5001 0.6926,-3.1654 1.2721,-4.6142c0.38,-0.9519 1.0051,-1.519 1.9465,-1.8905c0.076,-0.0294 0.2822,-0.095 0.3411,-0.0047c0.3876,0.5956 0.1976,0.9006 -0.1169,1.4706c-0.113,-0.0067 -0.2251,-0.0133 -0.3382,-0.02c0.1691,-0.0655 0.2898,-0.0446 0.4665,-0.0627c1.0611,-0.1149 1.8838,-1.0469 2.5241,-1.8107zM314.48565,169.5595c-0.0199,-0.1378 0.4912,-0.2461 0.5073,-0.1349c0.1463,1.0146 0.0523,2.1251 -0.0836,3.1359c-0.0608,0.4513 -0.1073,0.97 -0.4018,1.3395c-0.4114,0.5121 -0.9234,0.9177 -1.1286,1.5713c-0.818,2.6068 1.995,3.9235 4.0346,4.5705c6.6538,2.1109 14.7554,0.9908 20.5267,-3.0448c0.0931,-0.0646 0.6023,-0.1254 0.3904,0.0228c-5.623,3.9311 -13.756,5.3609 -20.3376,3.5207c-1.7489,-0.4892 -5.0977,-1.4174 -5.281,-3.6746c-0.0437,-0.532 0.0209,-1.1143 0.2802,-1.5922c0.2955,-0.5386 0.9614,-0.9889 1.1657,-1.5456c0.4465,-1.216 0.512,-2.888 0.3277,-4.1686zM319.15205,130.7719c0.0228,-0.1292 0.5235,-0.2166 0.4969,-0.0874c-0.8142,4.5524 2.3056,9.273 5.5812,12.0698c1.5238,1.3015 3.915,2.7502 3.5008,5.0568c-0.2964,1.6635 0.5804,1.8316 1.5855,2.8054c0.665,0.6441 0.8275,1.3224 0.7952,2.2382c-0.0067,0.1558 -0.5092,0.2232 -0.5064,0.1368c0.0504,-1.3433 -0.4617,-1.9998 -1.538,-2.7607c-0.7068,-0.4988 -1.0612,-1.0631 -0.8987,-1.9713c0.2831,-1.576 -0.2518,-2.5963 -1.445,-3.6461c-0.9699,-0.8512 -1.9921,-1.6492 -2.9288,-2.5403c-2.8719,-2.7246 -5.3742,-7.2114 -4.6427,-11.3012zM330.60715,152.8129c-0.0332,-0.1188 0.4693,-0.2584 0.5054,-0.1359c0.2679,0.9054 0.0409,2.014 0.4503,2.8652c0.3753,0.7809 0.9776,1.4241 1.7727,1.7917c1.9124,0.8807 4.4555,0.8085 6.0534,-0.6726c0.0912,-0.0855 0.5738,-0.1387 0.4589,-0.0323c-1.3585,1.2597 -3.4732,1.7148 -5.2744,1.4051c-1.178,-0.2024 -2.2325,-0.6479 -3.0343,-1.559c-0.9073,-1.0279 -0.5719,-2.4405 -0.932,-3.6622zM339.33105,136.4805c0.0275,0.1292 -0.4817,0.2517 -0.5064,0.1339c-0.8388,-4.0831 -2.1384,-8.5139 -5.9916,-10.7521c-2.6876,-1.5627 -6.0316,-2.1052 -8.969,-0.8683c-1.2426,0.5235 -2.4225,1.2825 -3.0723,2.5128c-0.5339,1.0155 -0.7581,2.1071 -1.139,3.1796c-0.0466,0.1349 -0.5368,0.191 -0.4988,0.0874c0.4636,-1.3024 0.6717,-2.716 1.5685,-3.8218c0.7049,-0.8674 1.5504,-1.444 2.5574,-1.9105c2.1935,-1.0174 4.8649,-1.2426 7.1896,-0.5681c5.7009,1.654 7.7615,6.6529 8.8616,12.0071zM349.34975,150.5177c0.0095,0.1453 -0.4997,0.2365 -0.5073,0.1377c-0.1169,-1.7784 -1.6568,-2.3294 -3.2091,-2.5403c-0.0276,-0.0038 -0.0808,-0.0047 -0.0903,-0.0399c-0.5956,-2.2258 -1.007,-4.5875 -2.0605,-6.6566c-1.0887,-2.129 -2.7028,-3.6452 -4.7035,-4.9011c-0.0779,-0.0494 0.3506,-0.2555 0.476,-0.1767c3.1644,1.9846 4.9438,4.6237 5.9175,8.2166c0.2689,0.9842 0.5026,1.9769 0.7667,2.963c0.1691,0.6327 1.1067,0.5282 1.5874,0.7201c1.0783,0.4304 1.7442,1.0802 1.8231,2.2772zM345.08705,151.8619c-0.0912,0.1216 -0.5396,0.1406 -0.4968,0.0874c0.9566,-1.2815 1.3642,-2.5878 0.7163,-4.1144c-0.0428,-0.1007 0.4493,-0.266 0.5044,-0.1378c0.6546,1.5476 0.2508,2.8605 -0.7239,4.1648zM332.31245,125.2372c0.0864,0.0922 -0.3857,0.2736 -0.475,0.1767c-1.1239,-1.2274 -2.642,-1.9342 -3.8627,-3.0457c0.1624,-0.0437 0.3249,-0.0874 0.4873,-0.1311c-0.7856,1.2113 -1.8135,1.901 -3.1739,2.3209c-0.2955,0.0902 -0.3363,-0.0789 -0.0456,-0.1691c1.2359,-0.3819 2.0358,-1.0156 2.7198,-2.0672c0.0637,-0.0988 0.3848,-0.2252 0.4874,-0.1311c1.2207,1.1124 2.7379,1.8192 3.8627,3.0466zM314.85425,131.3438c0.3553,-0.0627 0.115,0.1615 -0.0931,0.2005c-2.1175,0.3771 -3.7743,1.7917 -4.2978,3.9045c-0.5529,2.2287 -1.0089,4.4811 -1.3737,6.7478c-0.1881,1.1638 -0.3638,2.3266 -0.5196,3.4941c-0.1112,0.836 -0.1805,1.7661 -0.6631,2.4909c-0.5178,0.7771 -1.2179,1.2208 -2.0615,1.5903c-2.5175,1.0973 -5.6212,2.147 -7.5421,4.18c-0.8084,0.856 -2.0662,3.0533 -0.7362,4.0347c0.9072,0.6697 1.9674,0.9025 2.7787,1.7451c0.0855,0.0893 -0.3819,0.2736 -0.4759,0.1767c-0.5339,-0.5548 -1.1372,-0.9072 -1.8316,-1.2226c-0.4237,-0.1929 -0.9804,-0.4009 -1.2293,-0.8284c-0.6688,-1.1533 -0.0152,-2.7598 0.8265,-3.6499c1.8924,-2.0036 4.7633,-3.2253 7.2779,-4.2532c0.7686,-0.3135 1.6597,-0.608 2.1974,-1.2806c0.6859,-0.8569 0.816,-1.843 0.9614,-2.8984c0.3619,-2.6515 0.779,-5.3001 1.3528,-7.9154c0.3952,-1.8041 0.703,-3.8656 2.2277,-5.111c0.9434,-0.7714 2.0064,-1.1913 3.2015,-1.4051zM300.24325,162.1533c-0.0864,-0.0836 0.3772,-0.2708 0.4769,-0.1758c1.9884,1.938 6.0648,2.4672 8.4161,1.0488c2.0149,-1.2141 4.2132,-2.9117 5.4235,-4.978c0.0751,-0.1301 0.5425,-0.1596 0.4988,-0.0864c-0.8056,1.3727 -2.0663,2.5241 -3.2984,3.5083c-1.0849,0.8674 -2.2762,1.7908 -3.6053,2.2515c-2.3759,0.8246 -6.0933,0.2024 -7.9116,-1.5684zM335.65165,161.4769c-0.0712,-0.039 0.3449,-0.247 0.4779,-0.1748c3.4979,1.881 9.9417,2.2325 12.2683,-1.5514c0.9139,-1.4848 2.0301,-3.5881 1.5285,-5.3798c-0.2403,-0.8541 -0.5728,-1.672 -0.8512,-2.5128c-0.1197,-0.3619 -0.3524,-0.8436 -0.2289,-1.2312c0.0427,-0.133 0.5348,-0.1957 0.4997,-0.0855c-0.2233,0.6973 0.5111,1.9266 0.7305,2.5679c0.2803,0.8113 0.6137,1.6615 0.4456,2.5327c-0.3933,2.0577 -1.4744,4.75 -3.3801,5.8757c-3.2291,1.9095 -8.2403,1.7091 -11.4903,-0.0408zM335.85595,158.0474c0.0408,-0.134 0.5358,-0.1967 0.4987,-0.0865c-0.3667,1.1676 -0.1349,2.262 -0.1187,3.4542c0.0019,0.152 -0.5045,0.2299 -0.5054,0.1359c-0.0124,-1.2141 -0.2461,-2.319 0.1254,-3.5036zM296.98575,157.8726c0.0855,-0.1245 0.5415,-0.1463 0.5006,-0.0846c-0.5044,0.7382 -1.9589,2.8386 -1.2055,3.7411c0.7666,0.9187 1.5561,1.844 2.4776,2.6144c0.9956,0.8313 2.1261,1.6122 3.4133,1.8981c2.3608,0.5235 3.268,-0.7087 4.5771,-2.1118c0.0846,-0.0922 0.571,-0.152 0.4589,-0.0323c-0.8332,0.892 -1.6682,2.0425 -2.9213,2.3569c-1.2445,0.3116 -2.5222,0.1368 -3.6841,-0.418c-1.7033,-0.8141 -3.0751,-2.1014 -4.2902,-3.5292c-0.6146,-0.7239 -0.9053,-0.8332 -0.6146,-1.7879c0.2916,-0.9595 0.7229,-1.8183 1.2882,-2.6467z" fill="#010101" stroke="none" stroke-width="0.95"/><path d="M290.87435,171.0861c-0.0855,0.0618 -0.5928,0.134 -0.3876,-0.0123c3.1749,-2.242 6.5997,-4.0527 10.2543,-5.378c0.1919,-0.0684 0.514,-0.0123 0.1748,0.1112c-3.5805,1.2986 -6.9321,3.0818 -10.0415,5.2791zM287.91035,168.2238c-0.0902,0.0494 -0.6023,0.1054 -0.3866,-0.0133c1.6539,-0.9196 2.9792,-2.1926 4.3709,-3.4476c1.2569,-1.1333 2.5736,-2.1945 3.9026,-3.2414c0.0941,-0.0731 0.5634,-0.1244 0.457,-0.0399c-1.577,1.2426 -3.116,2.5137 -4.5857,3.8836c-1.1561,1.0792 -2.3712,2.0872 -3.7582,2.8586zM278.70015,169.9642c-0.3316,0.038 0.0931,-0.1862 0.2213,-0.1995c2.9887,-0.3363 5.8672,-1.2369 8.8236,-1.7537c0.3563,-0.0618 0.1045,0.1482 -0.0959,0.1824c-2.9982,0.5244 -5.9166,1.4307 -8.949,1.7708zM278.71915,175.9454c-0.1169,0.0551 -0.5938,0.0769 -0.2898,-0.0637c1.6758,-0.7714 3.6376,-0.9424 5.4559,-0.9614c1.7394,-0.0171 4.3196,0.1273 5.3399,-1.5741c0.4427,-0.7401 0.5985,-1.6122 1.179,-2.261c0.0798,-0.0893 0.5605,-0.1549 0.4569,-0.0409c-0.7809,0.874 -0.7989,2.2211 -1.7898,2.9612c-0.494,0.3686 -1.0336,0.6336 -1.6378,0.7714c-2.8576,0.6526 -5.9793,-0.0922 -8.7143,1.1685zM283.44345,172.5729c0.0874,-0.0817 0.5634,-0.1397 0.4579,-0.0409c-0.8046,0.7515 -6.7782,1.6122 -5.1889,3.2652c0.076,0.0788 -0.3866,0.2641 -0.4769,0.1719c-1.7717,-1.8439 4.5249,-2.7578 5.2079,-3.3962zM278.71915,173.1277c-0.1178,0.0513 -0.5966,0.0674 -0.2926,-0.0627c0.475,-0.2033 0.9566,-0.1615 1.4601,-0.0988c1.1191,0.1387 2.1869,-0.1691 3.3022,-0.1739c0.2461,-0.0019 -0.2261,0.2033 -0.3306,0.2033c-0.8607,0.0048 -1.7052,0.2622 -2.5659,0.2404c-0.4484,-0.0105 -1.1761,-0.2784 -1.5732,-0.1083zM273.15305,175.1645c-0.1425,-0.0371 0.3002,-0.2233 0.4171,-0.1938c1.9237,0.4987 3.382,-0.7315 4.6911,-1.9342c0.0874,-0.0808 0.5633,-0.1378 0.4569,-0.0399c-1.557,1.4297 -3.3497,2.7417 -5.5651,2.1679zM278.60705,169.7609c0.0912,-0.1178 0.5301,-0.1321 0.4978,-0.0922c-0.9063,1.1695 -1.9855,2.1803 -3.1464,3.0942c-0.551,0.4351 -1.1096,0.8597 -1.6806,1.272c-0.2479,0.1796 -1.4772,0.7923 -0.6954,0.8864c0.1321,0.0152 -0.2973,0.208 -0.4161,0.1938c-0.19,-0.0228 -0.3809,-0.0466 -0.5738,-0.0684c-0.0883,-0.0105 -0.019,-0.0798 0.0152,-0.1017c2.1537,-1.5276 4.3691,-3.078 5.9993,-5.1841z" fill="#010101" stroke="none" stroke-width="0.95"/><path d="M312.58945,105.5086c0.02,-0.1463 0.513,-0.1843 0.5054,-0.1359c-0.1377,1.0241 -0.4189,1.9836 -0.9205,2.8909c-0.0694,0.1244 -0.5301,0.151 -0.4978,0.0931c0.4959,-0.894 0.7761,-1.8354 0.9129,-2.8481zM305.92235,107.7515c-0.0617,-0.0437 0.3677,-0.2479 0.4788,-0.1691c1.5172,1.0992 3.7459,1.103 5.5072,0.7182c0.3543,-0.0769 0.095,0.1321 -0.0979,0.1748c-1.8686,0.4076 -4.2731,0.4446 -5.8881,-0.7239zM312.98565,105.2815c0.1339,0.0266 -0.3031,0.2128 -0.4161,0.1891c-2.0786,-0.4418 -4.1819,-1.3243 -6.308,-1.4022c-0.2451,-0.0086 0.2308,-0.2005 0.3315,-0.1967c2.1613,0.0798 4.2807,0.9605 6.3926,1.4098zM306.17315,104.0389c0.0257,-0.1501 0.514,-0.1795 0.5064,-0.1358c-0.2043,1.1913 -0.3477,2.3883 -0.2974,3.5986c0.0067,0.1339 -0.5016,0.2137 -0.5054,0.1368c-0.0513,-1.2103 0.0912,-2.4083 0.2964,-3.5996z" fill="#010101" stroke="none" stroke-width="0.95"/><path d="M312.90295,105.9228c-0.683,-0.0019 0.0437,-0.5453 0.4028,-0.5453c1.6112,0.0028 3.2253,0.0465 4.8374,0.0199c1.5913,-0.0275 3.097,-0.55 4.6807,-0.5766c0.6821,-0.0124 -0.0456,0.5367 -0.4019,0.5434c-1.7128,0.0285 -3.3506,0.569 -5.0863,0.5804c-1.4782,0.0114 -2.9535,-0.0199 -4.4327,-0.0218z" fill="#010101" stroke="none" stroke-width="0.95"/></g></g></svg>