<svg version="1.1" xmlns="http://www.w3.org/2000/svg" xmlns:xlink="http://www.w3.org/1999/xlink" width="648.62134" height="368.08709" viewBox="0,0,648.62134,368.08709"><defs><linearGradient x1="18.7535" y1="16.58623" x2="18.7535" y2="115.43854" gradientUnits="userSpaceOnUse" id="color-1"><stop offset="0" stop-color="#ffffff"/><stop offset="1" stop-color="#cccccc"/></linearGradient><radialGradient cx="114.16981" cy="65.91215" r="93.22821" gradientUnits="userSpaceOnUse" id="color-2"><stop offset="0" stop-color="#ffffff"/><stop offset="1" stop-color="#cccccc"/></radialGradient><linearGradient x1="302.10001" y1="138.43606" x2="302.10001" y2="159.39753" gradientUnits="userSpaceOnUse" id="color-3"><stop offset="0" stop-color="#ff4d00"/><stop offset="1" stop-color="#ff0070"/></linearGradient><linearGradient x1="266.80674" y1="139.84108" x2="266.80674" y2="158.36162" gradientTransform="translate(-625.37994,-383.06739) scale(2.49178,2.49178)" gradientUnits="userSpaceOnUse" id="color-4"><stop offset="0" stop-color="#98ff00"/><stop offset="1" stop-color="#ff3400"/></linearGradient></defs><g transform="translate(4.31067,4.04351)"><g data-paper-data="{&quot;isPaintingLayer&quot;:true}" fill-rule="nonzero" stroke-linejoin="miter" stroke-miterlimit="10" stroke-dasharray="" stroke-dashoffset="0" style="mix-blend-mode: normal"><path d="M-4.31067,364.04358v-368.08709h648.62134v368.08709z" fill="#43dfff" stroke="none" stroke-width="0" stroke-linecap="butt"/><path d="M100.15932,19.68644c13.89705,-3.45045 29.79279,-5.06839 43.53877,0.80729c4.83009,2.34615 -1.61363,14.20885 1.70076,19.21423c1.82725,2.75776 6.44512,-4.41275 8.77577,-1.69541c9.32542,9.39076 22.79803,19.7309 22.8579,34.55335c0.06255,15.23254 -10.77868,30.87356 -22.53002,37.38216c-16.45494,9.09526 -36.35078,4.44503 -54.47935,3.14528c-16.94065,-1.21425 -33.39826,-7.13674 -50.13764,-10.49518c-8.3023,-1.29497 -17.68759,1.33852 -25.03481,-3.47141c-4.47227,-2.92735 -7.02738,-10.75036 -5.78249,-16.87309c1.81503,-7.11566 13.07531,-6.79431 15.10256,-13.96659c2.07219,-7.34174 -7.1308,-16.05439 -4.62603,-23.89662c1.89667,-5.32346 9.30096,-4.90859 14.55828,-5.81277c9.00989,-1.53549 18.59109,2.7707 27.34787,0c10.54583,-3.38265 18.00871,-16.23516 28.70842,-18.89124z" fill="url(#color-1)" stroke="none" stroke-width="1.28185" stroke-linecap="round"/><path d="M102.67995,27.70269c6.00764,-2.12065 12.63656,-2.33858 17.15565,1.5137c3.81384,2.76103 1.32781,9.98886 3.0613,14.53136c1.3355,3.50728 3.24487,7.95452 6.25002,10.52022c2.8011,1.8467 6.36999,1.37592 9.88531,1.74071c5.60336,0.53741 12.04347,-3.50414 16.90058,-0.52984c8.01159,4.6895 19.4785,11.43897 18.8139,21.79717c-0.92854,14.45566 -15.58557,22.35112 -22.89553,34.05798c-1.55866,3.00773 4.28323,0.75989 1.77426,0.98689c-10.02811,0.90373 -18.53332,3.01075 -27.98616,2.57025c-11.63662,-0.85376 -22.80374,-2.51724 -34.94924,-6.43312c-8.74887,-2.92141 -15.4019,-12.31695 -24.42623,-14.53148c-9.12893,-2.24166 -19.61246,4.14603 -27.99769,0.52984c-3.88267,-1.68923 -7.47452,-9.29106 -5.22959,-13.39609c3.11861,-5.59463 13.6238,-0.81439 17.47457,-6.35754c2.45284,-3.6813 -2.69511,-8.79756 -2.29594,-13.39609c-0.52286,-5.39486 -2.28185,-13.63684 1.91333,-15.89377c7.76793,-4.1869 17.42866,2.59751 25.63792,0c9.8866,-3.17114 17.09707,-14.2226 26.91355,-17.71019z" fill="url(#color-2)" stroke="none" stroke-width="1.20171" stroke-linecap="round"/><path d="M239.21061,101.36939c-1.44281,-10.14518 8.0711,-25.02486 24.12309,-25.02486c23.22131,0 42.65507,27.64012 93.20079,22.13909l10.14518,13.34665l-17.8105,3.78755l-26.42264,1.488h-25.43064c0,0 -22.00383,-1.71348 -33.50174,-1.488c-18.8025,0.36074 -22.68027,-6.08711 -24.30353,-14.24843z" fill="#ffffff" stroke="#e3deee" stroke-width="0.30736" stroke-linecap="butt"/><path d="M441.39351,107.41147c-6.67318,5.81659 -23.53686,9.60414 -38.91255,9.60414c-7.48488,0 -43.5567,0.04504 -79.94421,0.04504c11.45273,-3.96785 22.18413,-13.75243 26.78338,-17.17924c5.7714,-4.32859 14.78947,-14.78947 22.04887,-17.40458c8.11614,-2.88577 11.5431,0.27052 17.72028,0.58607c5.50103,0.27052 14.06813,-7.5751 30.61612,-7.84562c10.7314,-0.1803 18.57702,2.79555 23.80738,9.60414c5.81659,7.5751 4.50903,16.8185 -2.11926,22.59005z" fill="#e3deee" stroke="none" stroke-width="0.30736" stroke-linecap="butt"/><path d="M268.24851,103.12791c11.2274,6.13229 18.03598,11.40769 28.76738,13.97791c-28.90264,0 -53.47654,0 -57.53475,-0.04518c-8.11614,-0.09008 -18.44176,-5.81659 -13.93273,-12.48991c6.13229,-9.01792 26.73834,-10.19021 42.7001,-1.44281z" fill="#e3deee" stroke="none" stroke-width="0.30736" stroke-linecap="butt"/><path d="M316.97791,63.5307c5.56807,-3.11536 13.98627,-7.22507 23.13373,-9.67764c10.14165,-2.71765 18.16229,-3.712 22.86849,-3.91078c3.11551,-2.65149 34.20342,-30.95544 75.69822,-30.42511c36.32444,0.39771 60.05465,15.37818 66.61693,19.75313c25.85138,-8.74975 41.1634,-10.07549 60.51867,-6.82751c26.97835,4.57373 23.53144,19.35542 24.06176,20.08453c0.6628,0.92804 10.87076,-2.91658 23.2662,3.57953c7.55662,3.97709 11.20231,10.67198 6.62858,10.67198c-3.57938,0 -296.8268,-0.46402 -303.98571,0c-2.12116,0 -1.78962,-1.59098 1.19313,-3.24813z" fill="#ffffff" stroke="#e3deee" stroke-width="0.45184" stroke-linecap="butt"/><path d="M362.98013,49.94228c3.11551,-2.65149 34.20342,-30.95544 75.69822,-30.42511c36.32444,0.39771 60.05465,15.37818 66.61693,19.75313c-19.09018,6.09825 -35.26393,16.43884 -51.90155,17.23425c-21.21149,0.9942 -61.38055,-7.35769 -90.4136,-6.56227z" fill="#e3deee" stroke="none" stroke-width="0.45184" stroke-linecap="butt"/><path d="M247.03084,159.39753v-20.96145h110.13835v20.96145z" fill="url(#color-3)" stroke="#c10000" stroke-width="5" stroke-linecap="butt"/><text transform="translate(250.97753,153.73264) scale(0.40132,0.40132)" font-size="40" xml:space="preserve" fill="url(#color-4)" fill-rule="nonzero" stroke="#000000" stroke-width="1" stroke-linecap="butt" stroke-linejoin="miter" stroke-miterlimit="10" stroke-dasharray="" stroke-dashoffset="0" font-family="&quot;Moonlit Free&quot;, Sans Serif" font-weight="normal" text-anchor="start" style="mix-blend-mode: normal"><tspan x="0" dy="0">PERSONAL BEST:</tspan></text></g></g></svg>