<svg version="1.1" xmlns="http://www.w3.org/2000/svg" xmlns:xlink="http://www.w3.org/1999/xlink" width="34.87719" height="18.66667" viewBox="0,0,34.87719,18.66667"><g transform="translate(-302.5614,-170.66667)"><g data-paper-data="{&quot;isPaintingLayer&quot;:true}" fill="#ffffff" fill-rule="nonzero" stroke="none" stroke-width="0" stroke-linecap="butt" stroke-linejoin="miter" stroke-miterlimit="10" stroke-dasharray="" stroke-dashoffset="0" style="mix-blend-mode: normal"><path d="M337.4386,180c0,2.94054 -9.17237,0.65119 -13.14305,2.36195c-2.98977,1.28813 -0.15864,6.97139 -4.29554,6.97139c-3.35884,0 -5.02221,-5.17491 -7.68364,-6.05553c-4.9699,-1.64447 -9.75496,0.07917 -9.75496,-3.2778c0,-3.01857 4.11423,0.46853 8.48564,-0.69179c0.8075,-0.21434 0.91208,-4.85746 1.77239,-5.10181c1.19124,-0.33835 3.72427,0.67595 4.33898,-0.70894c0.64203,-1.44646 1.33487,-2.83079 2.84158,-2.83079c4.59408,0 3.86097,4.14378 6.97573,5.69776c3.41505,1.7038 10.46286,0.93972 10.46286,3.63557z"/></g></g></svg>