<svg version="1.1" xmlns="http://www.w3.org/2000/svg" xmlns:xlink="http://www.w3.org/1999/xlink" width="158.63044" height="197.58998" viewBox="0,0,158.63044,197.58998"><g transform="translate(-240.68478,-83.97916)"><g stroke-miterlimit="10"><path d="M399.31522,267.87442c0,7.56338 -35.51064,13.69472 -79.31522,13.69472c-43.80458,0 -79.31522,-6.13134 -79.31522,-13.69472c0,-7.56338 35.51064,-13.69471 79.31522,-13.69471c43.80458,0 79.31522,6.13133 79.31522,13.69471z" fill-opacity="0.59608" fill="#000000" stroke="#000000" stroke-width="0"/><g stroke="none" stroke-width="1"><g><path d="M336.029,274.201c-0.059,0.016 -0.059,0.053 -0.034,0.098c-2.065,0.877 -4.434,1.102 -6.592,0.497c-1.851,-0.515 -3.754,-0.855 -5.676,-0.653c-2.281,0.238 -4.526,0.737 -6.808,0.959c-1.23,0.12 -2.482,0.196 -3.717,0.081c-0.628,-0.052 -1.328,-0.283 -1.971,-0.306c-0.272,-1.012 -0.311,-1.858 -0.025,-2.925c0,-0.006 -0.004,-0.01 -0.004,-0.016c1.435,0.332 2.791,-0.05 4.177,-0.383c0.304,0.002 0.597,-0.02 0.805,-0.144c0.003,-0.015 -0.003,-0.023 -0.008,-0.03c0.087,-0.022 0.173,-0.039 0.259,-0.055c0.051,-0.009 0.065,-0.035 0.047,-0.067c1.206,-0.269 2.481,0.047 3.661,0.317c1.198,0.279 2.4,0.549 3.61,0.779c2.059,0.392 4.152,0.555 6.249,0.408c1.98,-0.139 4.077,-0.469 5.837,-1.455c0.746,-0.413 1.469,-0.911 2.033,-1.566c0.178,-0.212 0.545,-0.558 0.778,-0.914c0.156,2.279 -0.05,4.61 -2.621,5.375z" fill="#bfb3d8"/><path d="M311.544,266.112l1.884,-1.964c0,0 1.978,4.238 7.587,1.123l0.889,-1.295c0,0 3.937,-1.183 8.106,1.517c-0.184,-0.125 -0.496,-0.07 -0.215,0.132c2.471,1.77 5.666,1.898 8.578,2.421c0.111,0.649 -1.531,2.052 -1.869,2.303c-0.699,0.51 -1.453,0.928 -2.266,1.221c-1.974,0.713 -4.091,0.963 -6.18,0.943c-2.398,-0.026 -4.674,-0.506 -7.011,-0.987c-1.669,-0.345 -3.54,-1.025 -5.238,-0.486c-0.038,0.015 -0.048,0.036 -0.049,0.059c-1.587,0.331 -3.128,0.942 -4.76,0.546c-0.03,-0.007 -0.051,-0.008 -0.071,-0.011c-0.003,-0.001 -0.004,-0.002 -0.008,-0.001c-1.418,-1.269 -0.348,-4.114 0.814,-5.266c0.073,-0.076 -0.055,-0.195 -0.191,-0.255z" fill="#ff1f00"/><path d="M336.872,274.319c0.007,0.027 0.005,0.045 -0.016,0.058c-1.671,0.805 -3.5,1.126 -5.343,1.04c-0.966,-0.044 -1.901,-0.319 -2.829,-0.573c-1.368,-0.367 -2.781,-0.492 -4.194,-0.435c-2.281,0.084 -4.558,0.661 -6.823,0.942c-0.98,0.121 -1.964,0.176 -2.947,0.181c-0.57,0.004 -1.139,-0.039 -1.706,-0.09c-0.519,-0.053 -1.282,-0.337 -1.792,-0.281c-0.144,0.023 -0.354,-0.085 -0.4,-0.229c-0.333,-1.117 -0.372,-2.031 -0.087,-3.142c-1.706,-1.396 -0.804,-4.323 0.589,-5.698c0.04,-0.04 0.131,-0.023 0.219,0.018c0.135,0.061 0.264,0.18 0.19,0.257c-1.162,1.15 -2.231,3.997 -0.813,5.265c0.001,-0.001 0,0 0.004,0.001l0.003,0.001c0.018,0.001 0.041,0.002 0.071,0.01c1.633,0.396 3.174,-0.213 4.76,-0.546c0.002,-0.026 0.011,-0.043 0.049,-0.059c1.697,-0.539 3.569,0.142 5.238,0.486c2.337,0.481 4.614,0.962 7.011,0.987c2.087,0.02 4.204,-0.23 6.18,-0.942c0.814,-0.294 1.568,-0.712 2.266,-1.222c0.338,-0.249 1.978,-1.656 1.869,-2.303c-2.911,-0.522 -6.107,-0.651 -8.578,-2.421c-0.281,-0.202 0.031,-0.259 0.215,-0.132c0.31,0.22 0.63,0.414 0.964,0.585c0.003,0 0.003,0.001 0.005,0.003c2.337,1.192 5.221,1.265 7.739,1.77c0.137,0.029 0.373,0.257 0.249,0.287c0.048,0.035 0.083,0.075 0.087,0.115c0.234,2.441 0.245,5.038 -2.18,6.067zM336.022,274.204c2.575,-0.769 2.781,-3.098 2.625,-5.377c-0.233,0.356 -0.599,0.702 -0.78,0.914c-0.56,0.655 -1.285,1.153 -2.031,1.566c-1.76,0.986 -3.858,1.317 -5.837,1.454c-2.097,0.149 -4.19,-0.015 -6.249,-0.407c-1.21,-0.23 -2.411,-0.5 -3.611,-0.779c-1.179,-0.269 -2.454,-0.586 -3.659,-0.318c0.016,0.033 0.005,0.057 -0.047,0.068c-0.084,0.016 -0.171,0.034 -0.259,0.055c-0.268,0.053 -0.534,0.114 -0.799,0.175c-1.385,0.332 -2.742,0.716 -4.179,0.384c0,0.006 0.007,0.009 0.007,0.016c-0.287,1.066 -0.248,1.913 0.024,2.924c0.642,0.025 1.341,0.253 1.969,0.307c1.236,0.115 2.488,0.038 3.719,-0.081c2.28,-0.224 4.527,-0.72 6.807,-0.96c1.923,-0.201 3.825,0.138 5.676,0.654c2.158,0.606 4.528,0.381 6.593,-0.498c-0.026,-0.044 -0.026,-0.082 0.031,-0.097z" fill="#000000"/></g><g><path d="M302.416,185.812c0.618,-1.559 3.509,-7.911 9.709,-8.351c7.074,-0.503 13.264,2.407 15.907,7.364c-0.053,-0.129 -0.47,-0.23 -0.451,-0.188c1.167,3.049 2.028,6.109 2.296,9.381c0.298,3.631 0.36,7.285 0.248,10.933c-0.232,7.473 -0.49,15.107 -1.785,22.482c-0.023,0.131 0.442,0.289 0.45,0.23c0.05,-0.282 0.088,-0.567 0.138,-0.849c0.438,1.524 0.142,2.947 -0.609,4.438c-0.789,1.572 -1.067,3.313 -1.122,5.065c-0.101,3.475 1.105,6.852 2.395,10.016c0.012,0.027 0.047,0.056 0.084,0.078c0.28,1.104 -0.273,2.153 -0.287,3.276c-0.007,0.831 0.717,1.77 1.211,2.386c0.717,0.899 1.548,1.717 2.23,2.641c0.831,1.133 1.006,2.071 1.258,3.388c-0.459,1.396 -1.065,2.747 -1.327,4.193c-0.235,1.309 -0.473,2.806 -1.545,3.706c-1.193,-0.541 -2.586,-1.008 -3.871,-0.532c-1.587,0.589 -2.486,2.002 -3.886,2.86c-1.309,0.809 -2.614,0.45 -4.03,0.104c-1.193,-0.295 -2.395,-0.531 -3.586,-0.827c-1.656,-0.419 -3.968,-0.763 -5.282,-1.944c-0.727,-0.648 -1.355,-1.394 -2.041,-2.084c-0.021,-0.021 -0.088,-0.055 -0.158,-0.083c0.865,-1.726 1.42,-3.555 1.414,-5.497c-0.007,-1.882 -0.884,-4.191 -0.026,-5.949c0.129,0.061 0.275,0.099 0.275,0.04c0.001,-1.258 0.347,-2.418 0.523,-3.651c0.162,-1.138 0.154,-2.287 0.162,-3.438c0.014,-2.098 -0.034,-4.21 -0.096,-6.308c-0.059,-1.801 -0.51,-3.576 -0.412,-5.37c0.072,-1.289 0.179,-2.614 0.476,-3.877c0.001,-0.006 -0.01,-0.015 -0.01,-0.021c0.002,0 0.01,0.001 0.009,0c-0.561,-1.196 0.013,-2.287 -0.213,-3.536c-0.279,-1.526 -0.585,-3.14 -0.474,-4.702c-6.58,-21.927 -7.256,-34.928 -7.256,-34.928c-0.054,-0.209 -0.183,-0.346 -0.318,-0.446z" fill="#a7deff"/><path d="M309.171,220.845c0,0 -5.902,-24.327 -6.983,-32.697c-0.156,-1.204 -0.214,-2.077 -0.139,-2.503c0,0 0.188,0.043 0.372,0.174c0.131,0.095 0.259,0.232 0.314,0.44c0,0 0.676,13.001 7.256,34.927c-0.111,1.563 0.195,3.177 0.474,4.703c0.226,1.249 -0.348,2.34 0.213,3.536c0.001,0.001 -0.007,0 -0.009,0c0,0.007 0.011,0.015 0.01,0.021c-0.297,1.263 -0.403,2.588 -0.475,3.877c-0.098,1.794 0.353,3.569 0.412,5.37c0.062,2.098 0.11,4.21 0.097,6.308c-0.008,1.151 0,2.3 -0.162,3.438c-0.175,1.233 -0.522,2.392 -0.523,3.651c0,0.058 -0.146,0.021 -0.275,-0.04c-0.858,1.758 0.019,4.067 0.025,5.949c0.007,1.942 -0.549,3.771 -1.414,5.497c0.07,0.028 0.137,0.062 0.158,0.083c0.686,0.69 1.314,1.436 2.041,2.084c1.314,1.181 3.626,1.525 5.281,1.944c1.191,0.296 2.393,0.532 3.586,0.827c1.416,0.346 2.72,0.705 4.03,-0.104c1.4,-0.858 2.299,-2.271 3.886,-2.86c1.285,-0.476 2.678,-0.009 3.871,0.532c1.072,-0.9 1.31,-2.397 1.545,-3.705c0.262,-1.447 0.868,-2.799 1.327,-4.193c-0.252,-1.318 -0.427,-2.256 -1.258,-3.389c-0.682,-0.924 -1.512,-1.742 -2.23,-2.641c-0.494,-0.617 -1.218,-1.555 -1.211,-2.386c0.014,-1.123 0.566,-2.172 0.287,-3.275c-0.037,-0.023 -0.072,-0.052 -0.083,-0.078c-1.291,-3.165 -2.497,-6.542 -2.396,-10.017c0.055,-1.751 0.333,-3.493 1.122,-5.065c0.751,-1.491 1.047,-2.914 0.609,-4.438c-0.05,0.282 -0.088,0.567 -0.138,0.85c-0.008,0.058 -0.473,-0.1 -0.451,-0.231c1.296,-7.375 1.554,-15.01 1.786,-22.481c0.112,-3.648 0.05,-7.303 -0.249,-10.934c-0.268,-3.272 -1.128,-6.333 -2.295,-9.38c-0.019,-0.042 0.398,0.058 0.451,0.188c1.175,3.057 2.009,6.112 2.297,9.382c0.306,3.494 0.346,7.006 0.258,10.515c-0.172,7.106 -0.451,14.382 -1.559,21.426c0.031,0.022 0.065,0.049 0.072,0.067c0.683,1.522 0.686,3.012 0.03,4.553c-0.714,1.682 -1.289,3.09 -1.445,4.943c-0.312,3.652 0.908,7.24 2.257,10.57c0.06,0.031 0.109,0.064 0.126,0.105c0.338,0.967 0.006,1.855 -0.187,2.827c-0.28,1.403 0.783,2.6 1.617,3.597c0.741,0.885 1.535,1.709 2.186,2.67c0.549,0.808 0.648,1.666 0.809,2.591c0.059,0.04 0.101,0.081 0.091,0.117c-0.017,0.043 -0.031,0.087 -0.047,0.132c0.004,0.015 0.005,0.024 0.008,0.036c0.001,0.006 -0.019,0.003 -0.021,0.006c-0.453,1.387 -1.058,2.727 -1.313,4.163c-0.237,1.327 -0.479,2.852 -1.588,3.746c-0.043,0.036 -0.131,0.006 -0.212,-0.039c-0.021,-0.007 -0.028,-0.005 -0.046,-0.016c-2.692,-1.257 -4.342,-0.4 -6.349,1.437c-0.706,0.648 -1.446,1.249 -2.4,1.457c-0.88,0.191 -2.076,-0.237 -2.919,-0.437c-2.57,-0.625 -5.195,-1.11 -7.695,-1.997c-1.622,-0.573 -2.686,-1.998 -3.852,-3.18c-0.007,-0.007 -0.009,-0.01 -0.013,-0.017c-0.135,-0.059 -0.271,-0.151 -0.247,-0.204c1.03,-2.051 1.483,-4.094 1.408,-6.392c-0.058,-1.777 -0.889,-3.642 0.086,-5.3c0.022,-0.034 0.102,-0.014 0.188,0.022c0.059,-1.962 0.628,-3.869 0.667,-5.847c0.057,-2.573 -0.023,-5.158 -0.101,-7.727c-0.05,-1.565 -0.448,-3.085 -0.409,-4.649c0.035,-1.381 0.169,-2.818 0.484,-4.164c-0.568,-1.212 -0.043,-2.242 -0.213,-3.531c-0.178,-1.357 -0.467,-2.713 -0.474,-4.089zM323.552,254.513c0.035,-0.035 -0.356,-0.329 -0.452,-0.233c-0.729,0.705 -2.139,1.912 -1.938,3.073c0.1,0.587 0.485,1.136 1.13,1.16c0.72,0.03 1.668,-0.608 2.267,-0.954c0.77,-0.443 1.51,-0.922 2.247,-1.415c1.27,-0.846 2.493,-1.893 3.968,-2.335c0.051,-0.015 -0.29,-0.293 -0.42,-0.251c-2.281,0.684 -4.13,2.619 -6.213,3.746c-0.546,0.299 -1.277,0.807 -1.898,0.898c-0.865,0.133 -0.641,-1.117 -0.449,-1.509c0.427,-0.853 1.076,-1.523 1.758,-2.18z" fill="#000000"/></g></g><g stroke="none"><g stroke-width="1"><path d="M298.625,254.224c-0.28,0.354 0.022,1.353 0.069,1.811c0.254,2.503 2.034,3.746 3.11,5.801c0.618,1.179 1.8,2.558 2.85,3.422c0.881,0.727 1.792,1.54 2.694,2.279c1.179,0.964 2.546,2.013 3.95,2.624c1.521,0.664 3.102,1.18 4.66,1.712c1.428,0.488 3.187,0.824 4.742,0.604c1.332,-0.188 2.714,-0.875 3.968,-1.369c0.032,0.716 -0.504,1.999 -0.926,2.54c-0.233,0.299 -0.528,0.66 -0.792,0.941c-0.286,0.307 -0.576,0.412 -0.944,0.674c-1.726,1.216 -4.498,0.399 -6.412,-0.207c-1.942,-0.612 -4.324,-1.256 -6.192,-2.044c-1.081,-0.455 -1.747,-0.922 -2.803,-1.433c-0.646,-0.313 -1.155,-0.702 -1.667,-1.234c-0.626,-0.65 -1.19,-1.644 -1.661,-2.418c-0.616,-1.012 -1.087,-2.075 -1.675,-3.088c-0.653,-1.122 -1.482,-2.184 -2.321,-3.223c-0.415,-0.512 -0.711,-0.741 -0.913,-1.338c-0.174,-0.505 -0.625,-1.079 -0.983,-1.52c-0.688,-0.846 -1.383,-1.465 -1.112,-2.719c0.248,-1.132 1.108,-1.921 2.285,-1.881" fill="#bfb3d8"/><path d="M324.008,271.377c-2.093,1.302 -4.742,1.342 -7.083,0.89c-2.309,-0.451 -4.379,-1.872 -6.565,-2.735c-1.432,-0.57 -2.388,-1.317 -3.466,-2.413c-0.526,-0.53 -1.071,-0.849 -1.624,-1.31c-0.485,-0.402 -0.909,-1.048 -1.347,-1.498c-1.664,-1.718 -2.971,-3.975 -4.245,-6.021c-0.631,-1.014 -1.166,-1.86 -1.085,-3.117c0.071,-1.072 1.064,-1.6 1.979,-2.11l0.062,-0.068c0.078,0.018 0.15,0.056 0.227,0.077l-0.103,-0.18l2.441,0.273c0,0 2.823,7.295 9.531,6.354c0,0 4.711,2.105 5.415,3.876v0.274c0.067,0.093 0.142,0.212 0.255,0.379c0.306,0.452 0.532,0.926 0.844,1.354c0.569,0.773 1.246,1.315 1.854,1.969c0.389,0.425 0.673,0.915 1.121,1.314c0.42,0.376 0.87,0.53 1.314,0.853c0.237,0.173 0.864,0.651 1.002,0.851c0.356,0.529 -0.03,0.675 -0.527,0.988z" fill="#ff1f00"/><path d="M325.159,270.839c0.024,0.038 0.037,0.08 0.021,0.127c-0.853,2.653 -2.093,5.406 -5.352,4.969c-0.003,0 -0.004,0.002 -0.006,0.002c-3.116,-0.103 -6.224,-1.081 -9.13,-2.173c-2.469,-0.923 -5.465,-2.213 -7.026,-4.432c-0.845,-1.205 -1.399,-2.611 -2.176,-3.865c-1.144,-1.85 -2.38,-3.641 -3.574,-5.461c-0.474,-0.721 -0.937,-1.451 -1.391,-2.184c-0.15,-0.249 -0.92,-1.167 -0.764,-1.457c0.618,-1.136 1.361,-2.09 2.612,-2.528c0.11,-0.04 0.261,0.02 0.345,0.104c0.563,-0.566 1.256,-1.041 2.038,-1.051c0.3,-0.006 0.395,0.382 0.045,0.386c-0.859,0.013 -1.663,0.891 -2.163,1.525c0.039,2.646 2.403,5.294 3.823,7.312c2.216,3.144 5.19,5.887 8.643,7.603c0.016,0.004 0.024,0.014 0.036,0.023c1.907,0.977 3.882,1.773 5.981,2.244c1.297,0.293 2.63,0.363 3.945,0.203c0.51,-0.062 3.482,-0.757 3.433,-1.569c-2.69,-1.963 -5.163,-4.262 -6.853,-7.16c-0.15,-0.252 0.38,-0.266 0.498,-0.062c1.707,2.934 4.256,5.236 6.994,7.198c0.138,0.098 0.112,0.192 0.021,0.246zM324.463,271.447c-0.417,0.26 -0.956,0.452 -1.249,0.59c-1.251,0.578 -2.692,0.67 -4.046,0.611c-2.898,-0.118 -5.753,-1.302 -8.295,-2.608c-0.008,-0.004 -0.013,-0.01 -0.02,-0.017c-3.552,-1.771 -6.495,-4.559 -8.823,-7.746c-1.494,-2.043 -3.808,-4.767 -3.901,-7.476c-0.039,-0.051 -0.049,-0.111 -0.004,-0.171c0,-0.064 0.005,-0.128 0.008,-0.191c-0.429,0.236 -0.788,0.549 -1.126,0.947c-0.585,0.685 -0.728,1.126 -0.248,1.941c0.94,1.58 1.972,3.106 2.99,4.635c0.847,1.282 1.695,2.565 2.502,3.876c0.738,1.194 1.262,2.5 2.068,3.653c1.395,1.98 4.426,3.105 6.601,3.962c2.766,1.098 5.871,1.998 8.849,2.098c0.006,0 0.007,-0.004 0.012,-0.003c2.786,0.375 3.909,-1.869 4.682,-4.101z" fill="#010101"/></g><g stroke-width="1"><path d="M305.157,180.188c0.916,-0.8 10.356,-8.55 22.826,-0.052c-0.094,0.013 -0.167,0.064 -0.147,0.167c0.47,2.525 0.889,5.056 1.157,7.61c0.126,1.193 0.214,2.395 0.484,3.566c0.755,3.292 2.045,6.613 3.552,9.626c1.754,3.508 3.592,6.972 5.394,10.454c0.905,1.753 1.81,3.498 2.687,5.264c0.435,0.876 0.959,1.771 1.251,2.707c0.001,0.003 0.003,0.004 0.004,0.007c0.866,1.921 0.234,4.648 -0.765,6.442c-1,1.79 -2.131,3.677 -3.376,5.302c-1.993,2.59 -3.673,5.339 -5.57,7.995c-0.64,0.893 -1.286,1.871 -1.997,2.748c-0.085,0.019 -0.155,0.059 -0.156,0.157c0,0.006 -0.001,0.014 -0.001,0.023c-0.167,0.196 -0.329,0.395 -0.502,0.577c-0.784,0.825 -1.599,1.798 -1.901,2.921c-0.005,0.018 0,0.032 0.001,0.049c0,0.003 -0.004,0.004 -0.004,0.007c0.06,1.094 0.169,2.184 0.358,3.263c0.122,0.675 0.714,2.116 0.217,2.71c-0.574,0.677 -1.443,0.966 -1.932,1.668c-0.418,-0.534 -0.828,-1.071 -1.261,-1.59c-0.153,-0.184 -0.649,-0.094 -0.438,0.161c0.504,0.608 0.987,1.228 1.471,1.848c-0.004,0.007 -0.008,0.015 -0.012,0.024c-0.049,0.128 0.086,0.229 0.231,0.252c0.042,0.055 0.084,0.105 0.125,0.157c0.192,0.247 0.372,0.498 0.564,0.739c0.343,0.429 -0.46,1.43 -0.662,1.808c-0.988,1.896 -2.273,3.641 -3.158,5.587c-2.89,0.497 -5.539,1.18 -8.473,0.479c-2.497,-0.597 -5.766,-1.299 -7.708,-3.099c-1.68,-1.565 -2.208,-4.318 -4.162,-5.593c-0.649,-0.42 -1.336,-0.774 -2.006,-1.161c-0.482,-0.28 -2.354,-1.136 -2.245,-1.886c0.001,-0.01 -0.008,-0.014 -0.008,-0.021c0.536,-0.949 1.045,-1.94 1.725,-2.794c0.592,-0.744 1.355,-1.323 1.942,-2.068c0.432,-0.545 0.813,-1.141 1.017,-1.812c0.189,-0.62 0.216,-1.096 0.981,-1.125c0.037,-0.001 0.068,0.002 0.104,0.001c0.104,0.189 0.53,0.229 0.502,0.012c0.482,0.011 0.945,0.05 1.446,0.154c0.321,0.065 0.427,-0.297 0.099,-0.366c-0.541,-0.113 -1.074,-0.169 -1.605,-0.181c-0.238,-1.527 0.37,-2.824 1.346,-3.953c0.063,-0.022 0.108,-0.063 0.113,-0.125c1.291,-1.44 3.14,-2.611 4.477,-3.642c3.065,-2.36 6.043,-5.267 8.547,-8.231c0.161,0.382 0.384,0.717 0.601,0.892c1.302,1.024 3.062,1.002 4.625,1.205c0.353,0.049 0.248,-0.347 -0.043,-0.383c-0.996,-0.134 -2.039,-0.151 -3.004,-0.451c-0.638,-0.199 -1.374,-0.519 -1.667,-1.177c-0.097,-0.224 -0.407,-1.195 -0.077,-1.495c0.005,0.014 0.013,0.025 0.021,0.039c0.077,0.158 0.392,0.193 0.489,0.091c1.422,1.087 3.835,0.892 5.012,-0.443c0.174,-0.201 -0.317,-0.411 -0.476,-0.229c-1.107,1.259 -3.744,1.432 -4.709,-0.09c-0.039,-0.063 -0.123,-0.101 -0.212,-0.121c-1.527,-2.927 -3.309,-5.589 -5.123,-8.356c-1.433,-2.189 -2.693,-4.48 -4.374,-6.5c-1.63,-1.962 -3.338,-3.864 -4.504,-6.159c-1.126,-2.207 -1.992,-4.571 -2.961,-6.854c-0.642,-1.514 -1.668,-3.182 -1.706,-4.868c-0.079,-3.851 0.922,-8.787 3.681,-11.63c0.089,-0.093 0.017,-0.192 -0.105,-0.257z" fill="#a7deff"/><path d="M301.049,191.609c-0.008,-3.526 0.89,-7.892 3.194,-10.746c0.179,-0.219 0.346,-0.452 0.541,-0.652c0.086,-0.087 0.255,-0.072 0.377,-0.015c0.118,0.059 0.188,0.156 0.1,0.25c-2.76,2.843 -3.76,7.779 -3.681,11.629c0.038,1.687 1.065,3.354 1.707,4.869c0.967,2.285 1.835,4.647 2.961,6.854c1.166,2.296 2.874,4.197 4.504,6.159c1.681,2.021 2.941,4.311 4.374,6.5c1.815,2.767 3.596,5.429 5.124,8.356c0.089,0.02 0.172,0.058 0.212,0.121c0.965,1.522 3.602,1.349 4.709,0.09c0.159,-0.182 0.65,0.028 0.476,0.229c-1.176,1.335 -3.59,1.529 -5.012,0.443c-0.097,0.102 -0.412,0.066 -0.489,-0.091c-0.008,-0.014 -0.016,-0.025 -0.021,-0.039c-0.33,0.3 -0.02,1.271 0.078,1.495c0.293,0.658 1.028,0.978 1.667,1.177c0.965,0.299 2.008,0.317 3.004,0.451c0.291,0.036 0.396,0.432 0.043,0.383c-1.563,-0.203 -3.323,-0.181 -4.625,-1.205c-0.217,-0.175 -0.44,-0.51 -0.6,-0.892c-2.504,2.966 -5.483,5.871 -8.548,8.231c-1.337,1.031 -3.185,2.202 -4.477,3.642c-0.005,0.062 -0.049,0.103 -0.113,0.125c-0.976,1.129 -1.584,2.426 -1.346,3.953c0.532,0.012 1.064,0.068 1.605,0.181c0.328,0.069 0.222,0.431 -0.099,0.367c-0.501,-0.105 -0.964,-0.144 -1.446,-0.155c0.027,0.217 -0.398,0.177 -0.504,-0.012c-0.035,0.001 -0.066,-0.003 -0.103,-0.002c-0.765,0.03 -0.792,0.506 -0.981,1.126c-0.204,0.671 -0.585,1.267 -1.017,1.812c-0.587,0.744 -1.35,1.324 -1.941,2.068c-0.68,0.854 -1.19,1.845 -1.726,2.794c0,0.006 0.009,0.011 0.008,0.021c-0.108,0.75 1.763,1.606 2.245,1.886c0.67,0.387 1.356,0.741 2.006,1.161c1.953,1.275 2.482,4.028 4.162,5.593c1.941,1.8 5.211,2.502 7.708,3.099c2.934,0.701 5.583,0.018 8.473,-0.479c0.886,-1.947 2.17,-3.691 3.159,-5.587c0.201,-0.378 1.004,-1.379 0.661,-1.808c-0.192,-0.241 -0.372,-0.492 -0.564,-0.739c-0.041,-0.053 -0.083,-0.102 -0.126,-0.157c-0.143,-0.023 -0.279,-0.124 -0.23,-0.252c0.004,-0.009 0.009,-0.017 0.012,-0.024c-0.484,-0.62 -0.967,-1.24 -1.471,-1.848c-0.21,-0.255 0.285,-0.345 0.438,-0.161c0.433,0.519 0.843,1.056 1.261,1.59c0.49,-0.702 1.358,-0.991 1.932,-1.668c0.497,-0.594 -0.094,-2.035 -0.217,-2.71c-0.189,-1.079 -0.298,-2.169 -0.358,-3.263c0,-0.003 0.004,-0.004 0.004,-0.007c-0.001,-0.018 -0.006,-0.031 -0.001,-0.049c0.302,-1.123 1.117,-2.096 1.901,-2.921c0.173,-0.183 0.335,-0.381 0.502,-0.577c0,-0.009 0.001,-0.017 0.001,-0.023c0.001,-0.099 0.07,-0.138 0.156,-0.157c0.711,-0.877 1.357,-1.855 1.997,-2.749c1.897,-2.655 3.577,-5.404 5.57,-7.995c1.246,-1.624 2.376,-3.512 3.376,-5.301c0.999,-1.794 1.631,-4.521 0.765,-6.442c-0.001,-0.003 -0.003,-0.004 -0.004,-0.007c-0.292,-0.936 -0.816,-1.831 -1.251,-2.707c-0.877,-1.766 -1.782,-3.51 -2.687,-5.265c-1.802,-3.481 -3.64,-6.945 -5.394,-10.453c-1.507,-3.013 -2.797,-6.334 -3.552,-9.626c-0.27,-1.171 -0.359,-2.373 -0.484,-3.566c-0.268,-2.554 -0.686,-5.085 -1.156,-7.61c-0.021,-0.103 0.052,-0.155 0.145,-0.167c0.147,-0.021 0.356,0.059 0.381,0.205c0.125,0.672 0.233,1.348 0.35,2.022c0.307,1.784 0.588,3.576 0.785,5.377c0.136,1.208 0.22,2.423 0.469,3.618c0.7,3.368 2.104,6.768 3.641,9.84c1.726,3.454 3.538,6.864 5.312,10.297c0.875,1.686 1.744,3.376 2.59,5.075c0.468,0.932 1.033,1.893 1.347,2.892c0.001,0.001 0.002,0.002 0.002,0.005c1.769,3.888 -1.479,7.354 -3.131,10.493c-0.666,1.264 -1.658,2.352 -2.53,3.474c-1.098,1.414 -1.949,2.984 -2.949,4.467c-0.961,1.432 -2.02,2.767 -3.057,4.139l-1.047,1.269v0.005c-0.646,0.766 -1.267,1.57 -1.52,2.506c0.059,1.086 0.178,2.157 0.356,3.232c0.131,0.801 0.449,1.636 0.369,2.45c-0.105,1.091 -1.77,1.396 -2.255,2.342c0.116,0.149 0.236,0.293 0.353,0.443c0.254,0.332 0.683,0.652 0.563,1.096c-0.701,2.593 -2.824,4.766 -3.919,7.19c-0.029,0.064 -0.092,0.099 -0.162,0.11c-0.021,0.039 -0.068,0.071 -0.15,0.088c-2.85,0.488 -5.496,1.151 -8.395,0.532c-2.708,-0.569 -5.711,-1.423 -7.998,-3.04c-2.294,-1.628 -2.655,-4.821 -5.156,-6.26c-0.804,-0.462 -3.452,-1.492 -3.726,-2.697c-0.089,-0.058 -0.144,-0.149 -0.086,-0.249c0.802,-1.394 1.549,-2.803 2.69,-3.951c1.204,-1.216 1.99,-2.243 2.336,-3.964c0.018,-0.075 0.101,-0.112 0.174,-0.121c0.359,-0.051 0.713,-0.076 1.066,-0.089c-0.262,-1.562 0.349,-2.896 1.314,-4.055l0.023,0.003l0.522,-0.606c0.977,-0.992 2.161,-1.849 3.168,-2.599c3.532,-2.629 6.915,-5.821 9.73,-9.198c0.02,-0.021 0.044,-0.041 0.073,-0.052c-0.13,-0.57 -0.067,-1.118 0.376,-1.295c-1.655,-3.225 -3.651,-6.113 -5.614,-9.159c-1.544,-2.392 -2.997,-4.736 -4.844,-6.912c-0.995,-1.169 -1.899,-2.365 -2.711,-3.628l-0.637,-1.023c-0.333,-0.579 -0.651,-1.172 -0.937,-1.791c-1,-2.185 -1.863,-4.448 -2.804,-6.663c-0.612,-1.456 -1.293,-2.742 -1.296,-4.346zM317.683,252.719c0.352,-0.017 0.078,-0.397 -0.177,-0.383c-1.344,0.069 -5.395,1.265 -2.85,2.956c3.201,2.13 7.302,-0.556 10.708,0.627c0.316,0.112 0.407,-0.256 0.098,-0.362c-2.28,-0.797 -4.604,-0.021 -6.923,0.118c-0.699,0.038 -5.302,-0.374 -4.021,-1.864c0.753,-0.878 2.079,-1.036 3.165,-1.092z" fill="#000000"/></g><g><path d="M323.303,184.351c0.876,0.561 1.898,0.939 2.651,1.668c0,0.001 -0.003,0.001 -0.003,0.002c0.097,3.127 -2.347,6.453 -4.488,8.532c-2.641,2.568 -6.126,3.843 -9.739,4.231c0.036,-0.863 -0.359,-1.727 -0.744,-2.469c-0.003,-0.006 -0.014,-0.008 -0.019,-0.013c2.961,-1.018 6.034,-2.057 8.293,-4.333c1.974,-1.99 4.092,-4.673 4.049,-7.618z" fill="#4e3a78" stroke-width="1"/><path d="M326.329,186.175c0.07,3.157 -2.404,6.378 -4.509,8.519c-2.675,2.716 -6.491,3.979 -10.207,4.312c-0.097,0.006 -0.443,-0.158 -0.242,-0.177c0.002,0 0.004,-0.001 0.006,-0.001c-0.011,-0.016 -0.033,-0.028 -0.032,-0.048c0.071,-0.872 -0.353,-1.767 -0.744,-2.522c-0.004,-0.008 0.013,-0.013 0.015,-0.018c-0.044,-0.028 -0.072,-0.059 -0.022,-0.078c2.993,-1.03 5.983,-2.078 8.306,-4.329c2.007,-1.949 4.109,-4.725 4.022,-7.659c-0.001,-0.026 0.044,-0.034 0.099,-0.033c0.035,-0.044 0.269,-0.022 0.328,0.023c0.98,0.705 2.211,1.064 3.054,1.953c0.042,0.04 -0.007,0.053 -0.074,0.058zM325.948,186.01c-0.751,-0.729 -1.773,-1.105 -2.651,-1.667c0.047,2.948 -2.071,5.633 -4.045,7.621c-2.261,2.276 -5.332,3.317 -8.294,4.333c0.005,0.005 0.017,0.008 0.019,0.013c0.387,0.742 0.781,1.608 0.744,2.469c3.613,-0.387 7.098,-1.661 9.739,-4.23c2.142,-2.08 4.586,-5.406 4.488,-8.533c0,-0.001 0.003,-0.001 0,-0.006z" fill="#000000" stroke-width="1"/><path d="M325.98819,185.98625c0.098,3.127 -2.35073,6.51799 -4.49273,8.59799c-2.641,2.569 -6.19557,3.84431 -9.80857,4.23131c0.037,-0.861 -0.3651,-1.73676 -0.7521,-2.47876c-0.002,-0.005 0.07048,-0.06151 0.06548,-0.06651c2.962,-1.016 5.9461,-2.05284 8.2071,-4.32884c1.974,-1.988 4.16448,-4.69197 4.11748,-7.63997c0.878,0.562 1.91232,0.94976 2.66332,1.67876c0.003,0.005 0.00002,0.00502 0.00002,0.00602z" fill="#ff1f00" stroke-width="0.5"/></g></g><g stroke="none" stroke-width="1"><path d="M320.29,110.314c9.649,0.707 8.562,9.061 8.562,9.061c-2.326,3.028 -1.737,5.558 -1.737,5.558c-6.735,1.765 -10.708,-3.03 -10.708,-3.03c4,-3.913 3.883,-11.591 3.883,-11.589z" fill="#ffe6c7"/><path d="M320.437,110.453c0.157,2.252 -0.505,4.778 -1.174,6.919c-0.624,1.996 -1.629,3.987 -3.389,5.197c-0.129,0.086 -0.469,-0.092 -0.297,-0.211c1.844,-1.269 2.768,-3.365 3.414,-5.433c0.621,-1.989 1.205,-4.425 1.061,-6.506c-0.014,-0.185 0.374,-0.124 0.385,0.034zM326.932,124.756c-0.023,-0.69 -0.159,-1.382 0.036,-2.058c0.376,-1.273 1.026,-2.216 1.667,-3.354c0.078,-0.134 0.443,-0.002 0.351,0.163c-0.588,1.041 -1.178,1.953 -1.572,3.099c-0.248,0.729 -0.123,1.425 -0.102,2.184c0.012,0.187 -0.375,0.123 -0.38,-0.034z" fill="#010101"/></g><g stroke="none"><path d="M303.81,179.319c-0.003,-0.035 -0.027,-0.073 -0.095,-0.112c-2.487,-1.365 -0.083,-3.25 0.16,-5.164c0.006,-0.013 0.023,-0.02 0.021,-0.042c-0.002,-0.015 -0.009,-0.03 -0.011,-0.046c0.002,-0.027 0.009,-0.053 0.01,-0.079c0.002,-0.042 -0.02,-0.078 -0.056,-0.108c-0.287,-1.126 -1.512,-2.506 -1.174,-3.57c0.499,-1.553 2.138,-1.858 3,-3.075c0.036,-0.051 0.003,-0.099 -0.051,-0.138c0.819,-1.063 0.982,-2.486 0.943,-3.856c-0.052,-1.924 -0.252,-3.836 -0.344,-5.755c-0.107,-2.46 -0.121,-4.929 -0.104,-7.392c0.007,-2.372 -0.002,-4.826 0.412,-7.165c0.759,-4.223 2.539,-8.162 4.111,-12.086c1.362,-3.403 3.064,-6.309 5.813,-8.57c0.413,0.443 1.004,0.484 1.6,0.483c2.167,0.156 2.451,0.32 4.627,1.401c2.177,1.079 4.618,1.396 4.618,1.396l0.801,1.396c1.934,3.195 3.464,6.781 4.503,10.427c0.875,3.068 1.949,7.259 0.238,10.218c-1.747,4.864 -6.396,23.456 -6.396,23.456c-0.264,1.271 -0.734,2.611 0.012,3.801c0.706,1.123 1.977,2.145 2.001,3.621c0.055,2.647 -3.04,3.737 -4.954,4.313c-6.395,1.932 -14.108,0.674 -19.685,-3.354z" fill="#4e3a78" stroke-width="1"/><path d="M315.463,183.759c-1.964,-0.166 -3.925,-0.58 -5.804,-1.213c-2.328,-0.783 -4.529,-1.902 -6.434,-3.34c-0.017,-0.014 -0.011,-0.023 -0.022,-0.035c-0.685,-0.445 -1.167,-1.029 -0.996,-1.999c0.216,-1.189 1.165,-2.067 1.29,-3.292c-0.194,-1.158 -1.412,-2.345 -1.255,-3.522c0.226,-1.639 1.876,-2.085 2.83,-3.127c-0.051,-0.038 -0.084,-0.081 -0.045,-0.122c1.279,-1.353 1.204,-3.396 1.092,-5.186c-0.128,-2.073 -0.283,-4.143 -0.355,-6.222c-0.155,-4.422 -0.316,-9.143 0.465,-13.507c0.743,-4.149 2.622,-8.081 4.166,-11.939c1.333,-3.326 3.097,-6.172 5.813,-8.364c0.007,-0.005 0.023,-0.003 0.032,-0.006c-0.086,-0.166 0.289,-0.131 0.356,-0.013c0.305,0.532 0.778,0.528 1.3,0.527c0,0 1.804,-0.199 4.953,1.229c3.147,1.429 4.294,1.493 4.647,1.493l0.95,1.696c1.951,3.229 3.444,6.825 4.53,10.493c0.915,3.09 1.934,7.352 0.209,10.333c0,0 -5.455,18.123 -6.366,23.399c0,0 -0.002,0.009 -0.005,0.02c-0.182,0.865 -0.451,1.722 -0.38,2.623c0.078,1.007 0.943,1.853 1.51,2.581c0.763,0.972 1.131,2.206 0.68,3.421c-0.773,2.065 -3.596,2.84 -5.371,3.358c-2.452,0.715 -5.119,0.938 -7.79,0.714zM303.806,179.313c5.579,4.033 13.292,5.291 19.687,3.357c1.915,-0.577 5.011,-1.666 4.954,-4.314c-0.024,-1.477 -1.295,-2.499 -2.001,-3.621c-0.746,-1.19 -0.277,-2.53 -0.012,-3.801c0,0 4.651,-18.592 6.396,-23.456c1.711,-2.957 0.638,-7.148 -0.238,-10.218c-1.04,-3.646 -2.57,-7.231 -4.503,-10.427l-0.8,-1.396c0,0 -2.443,-0.317 -4.619,-1.396c-2.175,-1.081 -2.46,-1.244 -4.627,-1.401c-0.596,0.001 -1.187,-0.039 -1.6,-0.482c-2.749,2.262 -4.451,5.169 -5.813,8.57c-1.572,3.923 -3.35,7.861 -4.111,12.086c-0.414,2.338 -0.403,4.792 -0.412,7.165c-0.017,2.463 -0.003,4.933 0.104,7.392c0.091,1.918 0.291,3.83 0.344,5.754c0.039,1.37 -0.124,2.793 -0.943,3.856c0.052,0.039 0.088,0.088 0.051,0.138c-0.863,1.218 -2.502,1.523 -3,3.075c-0.337,1.065 0.888,2.445 1.174,3.57c0.037,0.03 0.059,0.066 0.056,0.108c-0.001,0.027 -0.008,0.053 -0.01,0.079c0.002,0.015 0.009,0.031 0.011,0.046c0.003,0.022 -0.013,0.028 -0.021,0.042c-0.243,1.914 -2.649,3.799 -0.16,5.164c0.069,0.039 0.092,0.078 0.093,0.11z" fill="#000000" stroke-width="1"/><path d="M303.68895,179.24683c-2.489,-1.365 -0.08692,-3.25239 0.15608,-5.16639c0.008,-0.014 0.02399,-0.02001 0.02099,-0.04201c-0.002,-0.015 -0.00906,-0.03104 -0.01106,-0.04604c0.002,-0.026 0.00894,-0.05204 0.00994,-0.07904c0.003,-0.042 -0.01917,-0.07812 -0.05617,-0.10812c-0.286,-1.125 -1.51606,-2.50897 -1.17906,-3.57397c0.498,-1.552 2.2033,-1.93186 3.0663,-3.14986c0.037,-0.05 -0.06519,-0.02404 -0.11719,-0.06304c0.819,-1.063 0.97776,-2.49025 0.93876,-3.86025c-0.053,-1.924 -0.26232,-3.85146 -0.35332,-5.76946c-0.107,-2.459 -0.12285,-4.95827 -0.10585,-7.42127c0.009,-2.373 0.00877,-4.84804 0.42277,-7.18604c0.761,-4.225 2.56075,-8.17768 4.13275,-12.10068c1.362,-3.401 3.07732,-6.31059 5.82632,-8.57259c0.413,0.443 1.0066,0.48292 1.6026,0.48192c2.167,0.157 2.45992,0.3206 4.63492,1.4016c2.176,1.079 4.62706,1.39796 4.62706,1.39796l0.80203,1.39672c1.933,3.196 3.47914,6.79101 4.51914,10.43701c0.876,3.07 1.96199,7.28048 0.25099,10.23748c-1.745,4.864 -6.42214,23.51869 -6.42214,23.51869c-0.265,1.271 -0.7725,2.51877 -0.0265,3.70877c0.706,1.122 2.0134,2.23713 2.0374,3.71413c0.057,2.648 -3.0489,3.73985 -4.9639,4.31685c-6.395,1.934 -14.14065,0.67072 -19.71965,-3.36228c-0.001,-0.032 -0.0242,-0.07111 -0.0932,-0.11011z" fill="#ff1f00" stroke-width="0.5"/></g><g stroke="none"><g><path d="M329.315,120.146c-3.882,-1.584 -8.027,-4.832 -8.047,-9.45c0.727,0.154 1.437,-0.125 1.989,-1.18c0.076,-0.14 -0.294,-0.281 -0.371,-0.128c-0.854,1.636 -2.262,1.021 -3.314,-0.071c-0.191,-0.249 -0.4,-0.5 -0.618,-0.749c-0.283,-0.403 -0.508,-0.815 -0.636,-1.175c-0.332,-0.925 -0.446,-1.947 -0.039,-2.881c0.503,-1.172 1.528,-2.692 2.976,-1.409c0.129,0.117 0.451,0.037 0.257,-0.138c-0.885,-0.785 -2.02,-0.925 -2.831,0.097c-0.394,0.498 -0.691,1.063 -0.866,1.657c-3.531,-4.082 -1.815,-8.343 -1.815,-8.343c3.522,-9.162 11.428,-7.172 11.428,-7.172c6.415,0.556 9.149,4.12 9.973,5.491c-0.015,0.027 -0.016,0.063 0.013,0.11c0.74,1.195 1.479,2.649 1.559,4.079c0.089,1.482 -0.369,2.802 -0.807,4.192c-0.412,1.32 -0.642,2.928 0.143,4.153c0,0.001 -0.002,0.002 -0.001,0.004c0.285,0.729 0.726,1.254 1.265,1.811c0.386,0.397 1.178,1.039 0.87,1.692c-0.303,0.636 -0.829,0.851 -1.521,0.909c-1.003,0.08 -0.831,1.013 -0.793,1.791c0.001,0.006 0.008,0.012 0.01,0.016c0.002,0.008 -0.006,0.01 -0.002,0.018c0.545,1.068 0.11,1.629 -0.669,1.853c-0.063,-0.005 -0.108,0.009 -0.129,0.039c-1.139,0.261 -2.887,-0.124 -3.551,-0.727c-0.126,-0.116 -0.446,-0.04 -0.257,0.134c0.722,0.657 2.585,1.092 3.886,0.871c0.246,0.645 0.122,1.274 -0.666,1.465c-0.639,0.155 -1.407,0.106 -1.98,-0.237c-0.178,-0.106 -0.404,0.053 -0.178,0.189c0.301,0.181 0.671,0.296 1.053,0.358c-0.895,0.665 -0.391,2.297 -1.166,3.079c-0.637,0.64 -1.467,0.745 -2.321,0.614c-0.732,-0.157 -1.478,-0.43 -2.109,-0.656c-0.259,-0.106 -0.505,-0.211 -0.735,-0.306z" fill="#a16235" stroke-width="1"/><path d="M340.86,110.561c-0.002,0.023 0.005,0.048 0.001,0.072c-0.105,0.509 -0.377,0.79 -0.813,1.058c-0.165,0.1 -0.495,0.192 -0.673,0.202c-1.002,0.081 -0.937,0.769 -0.884,1.38c0.009,0.076 0.016,0.151 0.021,0.223c0.144,0.287 0.223,0.539 0.248,0.765c0.006,0.043 0.003,0.082 0.004,0.124c0.002,0.018 0,0.031 0.001,0.049c-0.003,0.597 -0.411,0.957 -1.019,1.131c0.342,0.779 0.175,1.48 -0.707,1.774c-0.245,0.083 -0.519,0.113 -0.799,0.118c-0.002,0.002 0,0.003 -0.002,0.004c-0.691,0.247 -0.848,0.918 -0.976,1.637c-0.087,0.485 -0.164,0.99 -0.38,1.402c-0.19,0.37 -0.496,0.663 -1.03,0.796c-1.654,0.407 -3.329,-0.387 -4.828,-0.997c-0.279,-0.115 -0.561,-0.24 -0.841,-0.372c-3.679,-1.738 -7.314,-5 -7.302,-9.35c-0.305,-0.124 -0.609,-0.32 -0.903,-0.555c-0.772,-0.621 -1.464,-1.531 -1.871,-2.28c-0.198,-0.364 -0.327,-0.746 -0.395,-1.129c-0.076,-0.411 -0.086,-0.828 -0.031,-1.239c-0.515,-0.616 -3.596,-4.514 -2.254,-8.472c1.463,-4.311 4.249,-8.931 12.03,-8.078c7.497,0.822 10.021,4.909 10.432,6.177c0.161,0.268 0.314,0.548 0.462,0.833c0.21,0.41 0.4,0.833 0.561,1.268c0.032,0.083 0.063,0.17 0.09,0.255c0.332,0.992 0.492,2.027 0.307,3.053c-0.37,2.076 -2.04,4.843 -0.612,6.861c0.004,0.007 -0.001,0.009 0.003,0.014c0.366,0.896 1.036,1.5 1.674,2.205c0.199,0.218 0.425,0.52 0.487,0.833c0.016,0.079 0.009,0.158 -0.001,0.238zM329.318,120.151c0.229,0.095 0.477,0.2 0.733,0.306c0.658,0.271 1.392,0.546 2.11,0.656c0.853,0.132 1.682,0.028 2.321,-0.614c0.774,-0.784 0.27,-2.414 1.165,-3.079c-0.381,-0.064 -0.751,-0.179 -1.052,-0.359c-0.227,-0.134 0,-0.295 0.178,-0.189c0.574,0.344 1.339,0.392 1.98,0.237c0.788,-0.191 0.912,-0.819 0.665,-1.464c-1.3,0.22 -3.163,-0.215 -3.885,-0.872c-0.191,-0.174 0.129,-0.25 0.259,-0.134c0.663,0.602 2.411,0.988 3.549,0.728c0.025,-0.031 0.069,-0.045 0.13,-0.039c0.778,-0.224 1.214,-0.785 0.668,-1.852c-0.003,-0.009 0.007,-0.011 0.002,-0.018c-0.002,-0.006 -0.008,-0.012 -0.009,-0.017c-0.039,-0.778 -0.208,-1.711 0.792,-1.791c0.694,-0.057 1.219,-0.272 1.521,-0.909c0.309,-0.652 -0.484,-1.295 -0.869,-1.692c-0.54,-0.557 -0.982,-1.084 -1.265,-1.811c-0.001,-0.002 0.001,-0.003 0.001,-0.005c-0.786,-1.224 -0.555,-2.832 -0.143,-4.152c0.436,-1.388 0.895,-2.71 0.807,-4.192c-0.08,-1.431 -0.821,-2.885 -1.559,-4.079c-0.032,-0.048 -0.032,-0.082 -0.014,-0.11c-0.825,-1.373 -3.56,-4.937 -9.974,-5.494c0,0 -7.908,-1.991 -11.428,7.172c0,0 -1.716,4.261 1.815,8.343c0.175,-0.594 0.472,-1.16 0.866,-1.657c0.812,-1.023 1.948,-0.883 2.833,-0.097c0.192,0.175 -0.128,0.256 -0.259,0.138c-1.448,-1.282 -2.474,0.238 -2.976,1.409c-0.407,0.936 -0.293,1.957 0.039,2.881c0.127,0.36 0.354,0.773 0.636,1.175c0.185,0.261 0.392,0.515 0.618,0.749c1.051,1.092 2.46,1.707 3.314,0.071c0.076,-0.153 0.446,-0.01 0.37,0.128c-0.551,1.055 -1.261,1.335 -1.989,1.18c0.019,4.616 4.165,7.865 8.05,9.453zM322.792,109.485c0.492,-0.954 -1.464,-0.649 -1.995,-0.732c-0.806,-0.126 -1.477,-0.711 -1.708,-1.485c-0.061,-0.202 0.319,-0.153 0.362,-0.003c0.442,1.489 1.82,1.137 2.99,1.292c0.61,0.077 1.04,0.448 0.724,1.059c-0.079,0.154 -0.446,0.012 -0.373,-0.131zM318.727,104.817c0.143,-0.846 1.043,-1.017 1.77,-0.803c1.295,0.381 1.661,1.782 2.459,2.734c0.153,0.178 -0.219,0.189 -0.321,0.07c-0.537,-0.638 -0.877,-1.405 -1.398,-2.057c-0.536,-0.684 -1.957,-0.875 -2.14,0.191c-0.024,0.157 -0.4,0.036 -0.37,-0.135zM338.453,111.411c-0.606,0.145 -1.158,0.461 -1.785,0.214c-0.587,-0.233 -0.654,-0.831 -0.271,-1.285c0.102,-0.123 0.449,0.046 0.334,0.189c-0.363,0.428 -0.213,0.929 0.392,0.931c0.377,0 0.765,-0.22 1.128,-0.308c0.151,-0.037 0.434,0.202 0.202,0.259zM335.024,114.434c0.777,-0.878 2.13,-1.076 3.241,-1.097c0.174,-0.003 0.371,0.263 0.116,0.269c-1.034,0.014 -2.295,0.198 -3.019,1.014c-0.107,0.124 -0.459,-0.051 -0.338,-0.186z" fill="#010101" stroke-width="1"/><path d="M321.22946,110.72985c0.728,0.155 1.4398,-0.12294 1.9908,-1.17794c0.076,-0.138 -0.29569,-0.28293 -0.37169,-0.12993c-0.854,1.636 -2.26932,1.01132 -3.32032,-0.08068c-0.226,-0.234 -0.43496,-0.49245 -0.61996,-0.75345c-0.282,-0.402 -0.51095,-0.82134 -0.63795,-1.18134c-0.332,-0.924 -0.44726,-1.95947 -0.04026,-2.89547c0.502,-1.171 1.52993,-2.70208 2.97793,-1.42008c0.131,0.118 0.45144,0.03557 0.25944,-0.13943c-0.885,-0.786 -1.92459,-0.89994 -2.73659,0.12306c-0.394,0.497 -0.78983,1.0506 -0.96483,1.6446c-3.531,-4.082 -1.80555,-8.37049 -1.80555,-8.37049c3.52,-9.163 11.46656,-7.19266 11.46656,-7.19266c6.414,0.557 9.1844,4.1338 10.0094,5.5068c-0.018,0.028 -0.01778,0.0622 0.01422,0.1102c0.738,1.194 1.48881,2.66027 1.56881,4.09127c0.088,1.482 -0.36544,2.81894 -0.80144,4.20694c-0.412,1.32 -0.64309,2.94796 0.14291,4.17196c0,0.002 -0.002,0.00302 -0.001,0.00502c0.283,0.727 0.72335,1.26 1.26335,1.817c0.385,0.397 1.17621,1.0445 0.86721,1.6965c-0.302,0.637 -0.82968,0.85709 -1.52368,0.91409c-1,0.08 -0.83531,1.01907 -0.79631,1.79707c0.001,0.005 0.00698,0.01102 0.00898,0.01702c0.005,0.007 -0.00504,0.00904 -0.00204,0.01804c0.546,1.067 0.10541,1.63283 -0.67259,1.85683c-0.061,-0.006 -0.10533,0.0083 -0.13033,0.0393c-1.138,0.26 -2.89376,-0.12024 -3.55676,-0.72224c-0.13,-0.116 -0.50042,-0.12635 -0.30942,0.04765c0.722,0.657 2.57645,1.09811 3.87645,0.87811c0.247,0.645 0.18553,1.35088 -0.60247,1.54188c-0.641,0.155 -1.41054,0.10993 -1.98454,-0.23407c-0.178,-0.106 -0.45378,-0.03229 -0.22678,0.10171c0.301,0.18 0.72123,0.38143 1.10223,0.44543c-0.895,0.665 -0.39797,2.29857 -1.17197,3.08257c-0.639,0.642 -1.47484,0.74829 -2.32784,0.61629c-0.718,-0.11 -1.45797,-0.38385 -2.11597,-0.65485c-0.256,-0.106 -0.50626,-0.21076 -0.73526,-0.30576c-3.885,-1.588 -8.07374,-4.85497 -8.09274,-9.47097z" fill="#ffe6c7" stroke-width="0.5"/></g><g stroke-width="1"><path d="M334.632,104.418c0.29,-0.047 0.579,-0.092 0.865,-0.152c-0.031,0.017 -0.062,0.035 -0.088,0.068c-0.073,0.077 -0.092,0.232 -0.138,0.334c-0.056,0.123 -0.035,0.219 -0.037,0.353c-0.006,0.218 0.07,0.421 0.101,0.635c0.012,0.115 0.043,0.196 0.103,0.297c0.052,0.101 0.107,0.172 0.176,0.252c0.042,0.053 0.068,0.099 0.126,0.136c0.034,0.019 0.103,0.034 0.134,0.065c-0.383,-0.013 -0.782,-0.113 -1.177,-0.263c-0.015,-0.005 -0.019,-0.015 -0.035,-0.02c-0.021,-0.008 -0.038,-0.013 -0.058,-0.019c-0.086,-0.035 -0.171,-0.071 -0.255,-0.11c-0.023,-0.023 -0.055,-0.044 -0.098,-0.056c-0.005,-0.002 -0.013,-0.005 -0.022,-0.007c-0.047,-0.032 -0.097,-0.058 -0.141,-0.059c-0.004,-0.001 -0.006,-0.002 -0.009,-0.002c-0.135,-0.063 -0.263,-0.131 -0.39,-0.2c-0.038,-0.031 -0.087,-0.054 -0.136,-0.074c-0.221,-0.125 -0.427,-0.246 -0.618,-0.362c-0.041,-0.035 -0.083,-0.064 -0.132,-0.088c-0.002,-0.006 -0.009,-0.01 -0.012,-0.018c-0.007,-0.04 -0.051,-0.071 -0.103,-0.097c0.06,-0.107 0.249,-0.197 0.449,-0.267c0.002,0 0.006,0 0.009,0c0.011,-0.001 0.007,-0.006 0.015,-0.007c0.213,-0.073 0.419,-0.119 0.461,-0.131c0.018,-0.007 0.033,-0.007 0.049,-0.011c0.04,0.004 0.077,0.018 0.121,0.02c0.05,0.004 0.121,-0.017 0.118,-0.069c0.113,-0.026 0.227,-0.049 0.342,-0.071c0.114,0.019 0.228,0.025 0.333,0.012c0.082,-0.011 0.077,-0.049 0.047,-0.089z" fill="#ffffff"/><g><path d="M335.371,104.253c0.096,-0.002 0.179,-0.082 0.265,-0.124c0.092,-0.045 0.19,-0.072 0.29,-0.087c0.19,-0.039 0.401,-0.06 0.594,-0.057c0.105,0.001 0.16,0.031 0.216,0.124c0.086,0.146 0.173,0.28 0.228,0.444c0.04,0.128 0.096,0.247 0.111,0.384c0.019,0.13 -0.003,0.263 -0.014,0.395c-0.026,0.315 -0.208,0.561 -0.396,0.807c-0.17,0.226 -0.353,0.289 -0.624,0.25c-0.087,-0.011 -0.171,-0.045 -0.255,-0.083c-0.124,-0.067 -0.184,-0.188 -0.294,-0.269c-0.068,-0.051 -0.101,-0.062 -0.127,-0.146c-0.029,-0.089 -0.063,-0.181 -0.079,-0.272c-0.06,-0.35 -0.155,-0.765 -0.035,-1.111c0.037,-0.104 0.067,-0.181 0.137,-0.259" fill="#371e10"/><path d="M335.648,104.18c-0.448,0.614 -0.434,2.184 0.588,2.188c0.121,0 0.248,0.188 0.074,0.186c-1.229,-0.005 -1.491,-1.665 -0.883,-2.502c0.063,-0.089 0.297,0.024 0.221,0.128zM336.751,103.86c0.639,0.873 0.69,2.14 -0.388,2.68c-0.095,0.054 -0.311,-0.092 -0.186,-0.156c0.999,-0.498 0.943,-1.663 0.356,-2.471c-0.094,-0.128 0.153,-0.142 0.218,-0.053z" fill="#000000"/></g><path d="M337.126,106.416c-0.739,0.395 -1.656,0.23 -2.531,-0.113c-0.001,0 -0.001,0 -0.001,0c-0.167,-0.06 -0.341,-0.109 -0.515,-0.158c-0.104,-0.014 -0.206,-0.038 -0.307,-0.074c-0.169,-0.036 -0.332,-0.09 -0.49,-0.154c-0.169,-0.056 -0.336,-0.118 -0.493,-0.199c-0.15,-0.076 -0.278,-0.174 -0.397,-0.278c-0.248,-0.145 -0.468,-0.331 -0.654,-0.542c0,0 0,0 -0.001,0c-0.005,-0.003 -0.009,-0.004 -0.013,-0.006c0,-0.001 0.001,-0.002 0.002,-0.003c-0.066,-0.039 -0.085,-0.07 -0.087,-0.096c-0.017,-0.023 -0.04,-0.041 -0.06,-0.065c-0.021,-0.032 -0.007,-0.055 0.016,-0.076c-0.004,-0.02 0.014,-0.039 0.07,-0.04c0.447,-0.019 0.875,-0.132 1.306,-0.215c-0.148,-0.073 -0.295,-0.154 -0.438,-0.245c-0.049,-0.028 -0.105,-0.113 -0.023,-0.144c0.09,-0.033 0.194,0.01 0.266,0.057c0.183,0.115 0.374,0.209 0.575,0.271c0.035,-0.005 0.069,-0.012 0.104,-0.015c0.036,-0.003 0.088,0.016 0.143,0.042c0.044,-0.008 0.087,-0.02 0.132,-0.028c-0.182,-0.076 -0.356,-0.165 -0.501,-0.249c-0.23,-0.133 -0.003,-0.234 0.161,-0.14c0.191,0.112 0.462,0.263 0.718,0.319c1.099,-0.185 2.242,-0.288 3.12,-1.011c0.102,-0.085 0.445,0.085 0.341,0.175c-0.61,0.503 -1.263,0.666 -2.024,0.83c-0.016,0.003 -0.031,0.004 -0.046,0.008c-0.286,0.059 -0.575,0.105 -0.865,0.152c0.029,0.039 0.034,0.077 -0.048,0.089c-0.106,0.012 -0.22,0.008 -0.334,-0.012c-0.114,0.022 -0.229,0.045 -0.341,0.071c0.003,0.051 -0.069,0.073 -0.118,0.069c-0.045,-0.002 -0.079,-0.016 -0.121,-0.02c-0.017,0.003 -0.032,0.006 -0.049,0.011c-0.042,0.011 -0.247,0.058 -0.46,0.131c-0.01,0.001 -0.005,0.006 -0.016,0.007c-0.003,0 -0.007,0 -0.01,0c-0.199,0.07 -0.389,0.16 -0.448,0.267c0.05,0.027 0.094,0.057 0.103,0.097c0.002,0.009 0.01,0.012 0.012,0.018c0.049,0.026 0.091,0.053 0.131,0.088c0.192,0.115 0.398,0.238 0.621,0.362c0.047,0.019 0.096,0.043 0.134,0.074c0.127,0.069 0.255,0.138 0.389,0.2c0.004,0.001 0.006,0.002 0.01,0.002c0.042,0 0.092,0.028 0.141,0.059c0.005,0.003 0.014,0.005 0.021,0.007c0.042,0.012 0.077,0.034 0.099,0.058c0.084,0.036 0.168,0.073 0.255,0.108c0.02,0.006 0.037,0.012 0.057,0.018c0.015,0.005 0.02,0.014 0.036,0.021c0.395,0.15 0.793,0.248 1.177,0.263c0.338,0.013 0.669,-0.037 0.964,-0.196c0.104,-0.06 0.444,0.118 0.287,0.205z" fill="#000000"/></g><path d="M330.814,102.733c0.995,-0.567 1.948,-1.145 3.071,-1.39c1.151,-0.248 2.423,0.227 3.58,0.238c0.175,0.002 0.376,0.27 0.116,0.269c-1.051,-0.014 -2.073,-0.268 -3.122,-0.288c-1.191,-0.018 -2.371,0.84 -3.367,1.403c-0.135,0.074 -0.463,-0.129 -0.278,-0.232z" fill="#010101" stroke-width="1"/><path d="M338.214,106.539c-0.002,0.02 -0.025,0.022 -0.038,0.035c0.013,0.043 -0.001,0.085 -0.059,0.121c-1.729,1.054 -4.146,0.83 -6.001,0.267c-0.111,-0.033 -0.153,-0.09 -0.167,-0.149c-0.036,-0.024 -0.068,-0.051 -0.085,-0.084c-0.353,-0.77 -0.552,-1.569 -0.646,-2.398c-1.634,-0.125 -3.269,-0.224 -4.9,-0.372c-0.749,-0.067 -1.438,-0.178 -2.16,-0.389c-0.98,-0.289 -1.791,-0.9 -2.841,-0.749c-0.41,0.058 -1.446,-0.529 -0.832,-0.618c1.436,-0.206 2.856,0.437 4.208,0.833c1.95,0.569 4.268,0.426 6.291,0.582c0.074,0.005 0.147,0.032 0.215,0.067c0.016,-0.019 0.017,-0.047 0.039,-0.056c0.005,-0.033 0.036,-0.059 0.109,-0.069c2.155,-0.282 4.347,-1.001 6.526,-0.911c0.017,0.001 0.032,0.007 0.053,0.011c0.132,0.024 0.272,0.103 0.282,0.209c0.112,1.224 0.155,2.445 0.006,3.67zM337.736,106.398c-0.003,-0.015 -0.019,-0.024 -0.016,-0.037c0.138,-1.118 0.096,-2.245 0.001,-3.368c-2.007,-0.012 -4.06,0.622 -6.045,0.891c0.055,0.984 0.253,1.914 0.657,2.815c1.699,0.494 3.847,0.644 5.403,-0.301z" fill="#000000" stroke-width="1"/><g stroke-width="1"><g><path d="M323.975,107.167c-0.028,-1.185 -0.484,-2.214 -1.231,-3.093c-1.192,-0.721 -1.23,-1.746 -2.964,-1.689c0,0 -1.879,0.365 -2.118,3.887c0,0 0.009,0.743 0.671,1.846c-0.03,0.011 -0.056,0.026 -0.062,0.059c-0.211,1.061 -0.628,2.204 -1.67,2.691c-0.231,0.106 0.214,0.369 0.379,0.292c1,-0.47 1.465,-1.475 1.715,-2.5c0.215,0.295 0.49,0.61 0.809,0.938c0.27,0.803 0.577,1.5 0.353,2.375c-0.168,0.657 -0.393,1.295 -0.646,1.927c-0.424,1.051 -0.921,2.161 -1.713,2.991c-0.767,0.804 -3.966,2.702 -3.908,0.224c0.016,-0.674 0.199,-1.243 0.491,-1.761c0.554,-0.582 1.031,-1.203 1.36,-1.609c0.125,-0.153 -0.229,-0.338 -0.399,-0.278c-0.039,0.004 -0.072,0.014 -0.097,0.036c-0.464,0.448 -1.05,1.091 -1.457,1.801c-0.097,0.098 -0.189,0.198 -0.29,0.289c-0.48,0.43 -1.484,1.339 -2.208,0.71c-0.555,-0.48 -0.843,-1.136 -0.686,-1.87c0.292,-1.367 1.222,-2.659 2.318,-3.625c0.01,-0.004 0.018,-0.01 0.031,-0.013c0.045,-0.014 0.061,-0.037 0.061,-0.065c0.299,-0.257 0.609,-0.496 0.922,-0.698c0.219,-0.144 -0.227,-0.392 -0.379,-0.292c-0.317,0.205 -0.67,0.472 -1.028,0.784c-1.591,0.542 -2.273,2.108 -3.118,3.433c-0.293,0.461 -0.61,0.966 -1.034,1.324c-1.175,0.991 -2.369,-0.028 -2.312,-1.194c0.053,-1.116 0.346,-2.189 0.873,-3.171c0.022,-0.038 0.006,-0.076 -0.019,-0.113c0.565,-0.588 1.055,-1.251 1.549,-1.902c0.694,-0.914 1.507,-1.5 2.286,-2.3c0.155,-0.158 -0.318,-0.381 -0.452,-0.241c-0.572,0.586 -1.255,0.982 -1.77,1.633c-0.684,0.871 -1.297,1.802 -2.073,2.599c-0.616,0.63 -2.115,1.764 -2.736,0.372c-0.139,-0.316 -0.223,-0.651 -0.225,-0.998c0,-0.786 0.161,-1.56 0.408,-2.305c1.075,-3.259 3.095,-7.257 6.256,-8.868c0.073,-0.038 0.074,-0.087 0.046,-0.138c0.061,-0.032 0.119,-0.072 0.177,-0.103c0.23,-0.12 -0.215,-0.379 -0.378,-0.293c-1.663,0.902 -3.295,1.971 -4.648,3.299c-0.427,0.414 -0.923,0.933 -1.551,1.006c-1.132,0.132 -1.619,-0.406 -1.56,-1.288c0.071,-1.112 0.357,-2.198 0.883,-3.183c0.363,-0.677 0.804,-1.346 1.3,-1.992c0.01,-0.007 0.019,-0.011 0.029,-0.018c0.023,-0.019 0.032,-0.039 0.032,-0.059c2.029,-2.591 5.038,-4.731 8.186,-5.18c0.301,-0.043 -0.101,-0.347 -0.282,-0.32c-2.547,0.361 -4.692,1.706 -6.52,3.443c-0.628,0.595 -1.221,1.206 -1.761,1.845c-0.04,0.002 -0.078,0.008 -0.105,0.028c-1.446,1.078 -1.122,-2.635 -1.026,-2.961c0.342,-1.163 0.942,-2.173 1.817,-3.02c1.799,-1.745 4.029,-2.984 6.375,-3.843c1.669,-0.605 3.402,-1.121 5.158,-1.396c1.149,-0.181 2.348,-0.348 3.509,-0.316c0.668,0.022 1.638,-0.068 2.278,0.202c0.032,0.01 0.072,0.014 0.099,0.028c0.069,0.034 0.142,0.041 0.206,0.034c0.765,0.132 3.536,0.709 5.313,2.389c0.015,0.02 0.038,0.039 0.062,0.059c0.103,0.073 0.261,0.127 0.347,0.094c2.313,-0.879 5.758,-0.15 7.706,1.308c1.068,0.8 2.186,1.92 2.213,3.347c0.003,0.071 -0.005,0.143 -0.005,0.217c-0.085,-0.249 -0.201,-0.498 -0.376,-0.758c-0.622,-0.912 -1.737,-1.648 -2.726,-2.085c-2.254,-1.001 -5.048,-1.315 -7.383,-0.413c-0.232,0.092 0.209,0.357 0.381,0.292c2.181,-0.842 5.136,-0.63 7.164,0.532c1.108,0.634 2.502,1.585 2.707,2.97c0.069,0.471 0.034,0.938 0.031,1.407c-2.399,-2.111 -5.689,-2.397 -8.772,-1.987c-0.3,0.037 0.102,0.341 0.28,0.316c2.542,-0.333 5.28,-0.215 7.417,1.225c-0.308,-0.141 -0.634,-0.249 -0.965,-0.342c-0.658,-0.201 -1.605,-0.188 -2.641,-0.227c-2.145,-0.141 -4.47,-0.274 -6.413,0.726c-1.673,0.865 -3.367,2.454 -3.398,4.391c-0.002,0.025 -0.002,0.06 -0.001,0.102c0.004,0.347 0.058,0.705 0.18,1.072c0.108,0.329 0.231,0.654 0.355,0.98c0.158,0.453 0.363,0.996 0.626,1.643c0.666,1.851 1.047,3.652 -0.253,5.341zM313.737,90.376c0.791,-0.253 1.555,-0.508 2.36,-0.227c0.041,0.017 0.083,0.025 0.124,0.042c0.296,0.116 0.391,-0.163 0.097,-0.277c-0.018,-0.008 -0.037,-0.014 -0.056,-0.02c-1.004,-0.374 -2.076,-0.422 -2.974,0.237c-0.163,0.122 0.297,0.359 0.449,0.245zM315.114,95.787c0.01,0.002 0.011,-0.001 0.019,0c0.315,0.062 0.193,-0.254 -0.056,-0.313c-1.529,-0.361 -2.819,0.453 -3.537,1.786c-0.09,0.17 0.398,0.364 0.497,0.176c0.62,-1.151 1.728,-1.97 3.077,-1.649zM316.651,100.007c-0.021,0.001 -0.043,0.004 -0.062,0.005c-1.776,0.105 -3.259,0.595 -4.431,1.991c-0.147,0.171 0.327,0.39 0.45,0.244c1.115,-1.325 2.505,-1.822 4.21,-1.913c0.002,0 0.003,0 0.005,0c0.334,-0.021 0.044,-0.338 -0.172,-0.327z" fill="#ffbe00"/><path d="M315.114,95.787c0.01,0.002 0.011,-0.001 0.019,0c0.315,0.062 0.193,-0.254 -0.056,-0.313c-1.529,-0.361 -2.819,0.453 -3.537,1.786c-0.09,0.17 0.398,0.364 0.497,0.176c0.62,-1.151 1.728,-1.97 3.077,-1.649zM338.127,95.037c0,0.014 -0.016,0.016 -0.021,0.03c-0.053,0.163 -0.474,0.052 -0.483,-0.127c-0.003,-0.056 0.002,-0.107 0.001,-0.162c-1.269,-1.854 -4.462,-1.776 -6.449,-1.726c-2.345,0.059 -4.566,0.604 -6.298,2.287c-0.889,0.858 -1.331,1.998 -1.269,3.223c0.063,1.261 0.967,2.559 1.381,3.747c0.735,2.106 0.524,4.091 -1.059,5.649c-0.003,0.028 -0.001,0.056 -0.006,0.083c-0.005,0.059 -0.07,0.073 -0.143,0.073c-0.021,0.018 -0.034,0.037 -0.054,0.055c-0.148,0.128 -0.61,-0.103 -0.453,-0.244c0.061,-0.055 0.105,-0.108 0.161,-0.163c0.249,-1.942 -0.673,-3.501 -2.214,-4.644c-0.097,-0.072 -0.105,-0.126 -0.067,-0.162c0.069,-0.068 0.292,-0.07 0.401,0.011c0.454,0.335 0.847,0.706 1.189,1.105c0.747,0.879 1.207,1.909 1.231,3.094c1.301,-1.685 0.922,-3.486 0.256,-5.336c-0.196,-0.545 -0.416,-1.093 -0.626,-1.643c-0.124,-0.327 -0.247,-0.652 -0.355,-0.981c-0.121,-0.366 -0.175,-0.724 -0.18,-1.072c0,-0.034 0,-0.068 0.001,-0.102c0.031,-1.937 1.724,-3.526 3.398,-4.391c1.943,-1.001 4.388,-1.025 6.534,-0.882c0.061,0.003 0.125,0.005 0.184,0.01c0.743,0.05 1.559,0.156 2.334,0.373c0.33,0.092 0.658,0.201 0.966,0.343c-2.137,-1.441 -4.875,-1.559 -7.417,-1.226c-0.18,0.026 -0.58,-0.278 -0.28,-0.316c3.083,-0.41 6.372,-0.124 8.772,1.987c0.003,-0.469 0.038,-0.936 -0.031,-1.407c-0.205,-1.384 -1.599,-2.337 -2.707,-2.97c-2.029,-1.162 -4.983,-1.373 -7.164,-0.532c-0.17,0.065 -0.614,-0.2 -0.38,-0.292c2.336,-0.902 5.128,-0.587 7.381,0.413c0.99,0.437 2.107,1.173 2.726,2.085c0.174,0.26 0.289,0.509 0.377,0.757c0,-0.074 0.008,-0.146 0.005,-0.217c-0.029,-1.426 -1.145,-2.547 -2.212,-3.347c-1.951,-1.458 -5.394,-2.188 -7.707,-1.308c-0.087,0.032 -0.244,-0.021 -0.347,-0.094c-0.025,-0.019 -0.044,-0.039 -0.062,-0.059c-1.777,-1.68 -4.548,-2.257 -5.313,-2.389c-0.066,0.008 -0.137,0.001 -0.206,-0.034c-0.03,-0.012 -0.07,-0.016 -0.099,-0.028c-0.638,-0.27 -1.61,-0.18 -2.278,-0.201c-1.162,-0.034 -2.361,0.134 -3.509,0.315c-1.756,0.275 -3.49,0.789 -5.158,1.396c-2.346,0.86 -4.575,2.098 -6.375,3.843c-0.875,0.848 -1.477,1.857 -1.818,3.02c-0.095,0.327 -0.42,4.039 1.026,2.961c0.027,-0.021 0.064,-0.027 0.105,-0.029c0.539,-0.639 1.133,-1.249 1.76,-1.845c1.83,-1.738 3.973,-3.083 6.52,-3.444c0.181,-0.027 0.582,0.277 0.282,0.32c-3.147,0.449 -6.156,2.589 -8.186,5.18c-0.001,0.022 -0.009,0.039 -0.032,0.059c-0.009,0.007 -0.017,0.011 -0.029,0.018c-0.496,0.643 -0.937,1.313 -1.3,1.992c-0.525,0.985 -0.812,2.072 -0.884,3.183c-0.06,0.881 0.427,1.421 1.56,1.288c0.629,-0.073 1.124,-0.592 1.551,-1.006c1.353,-1.325 2.984,-2.397 4.647,-3.299c0.163,-0.086 0.608,0.172 0.378,0.293c-0.059,0.032 -0.117,0.072 -0.176,0.103c0.028,0.051 0.026,0.101 -0.046,0.138c-3.161,1.612 -5.18,5.61 -6.256,8.869c-0.246,0.743 -0.408,1.518 -0.408,2.304c0.002,0.349 0.086,0.683 0.225,0.998c0.621,1.392 2.12,0.259 2.736,-0.372c0.776,-0.797 1.387,-1.727 2.073,-2.599c0.515,-0.651 1.199,-1.047 1.77,-1.633c0.133,-0.14 0.606,0.084 0.453,0.241c-0.78,0.799 -1.594,1.385 -2.287,2.301c-0.494,0.651 -0.985,1.314 -1.549,1.901c0.027,0.036 0.04,0.075 0.02,0.113c-0.527,0.981 -0.82,2.052 -0.874,3.17c-0.056,1.166 1.137,2.186 2.312,1.194c0.425,-0.359 0.741,-0.864 1.034,-1.324c0.846,-1.324 1.527,-2.891 3.119,-3.433c0.359,-0.314 0.712,-0.579 1.028,-0.784c0.152,-0.102 0.597,0.148 0.378,0.291c-0.314,0.202 -0.622,0.444 -0.922,0.698c0,0.026 -0.015,0.048 -0.061,0.065c-0.012,0.004 -0.02,0.01 -0.031,0.013c-1.096,0.968 -2.027,2.259 -2.319,3.626c-0.157,0.734 0.132,1.389 0.686,1.869c0.724,0.629 1.727,-0.28 2.207,-0.71c0.103,-0.091 0.194,-0.192 0.291,-0.289c0.406,-0.71 0.993,-1.351 1.456,-1.801c0.025,-0.023 0.058,-0.032 0.098,-0.036c0.17,-0.059 0.524,0.125 0.399,0.279c-0.327,0.405 -0.806,1.025 -1.36,1.608c-0.29,0.518 -0.474,1.088 -0.491,1.761c-0.059,2.478 3.142,0.581 3.908,-0.224c0.791,-0.831 1.288,-1.94 1.713,-2.991c0.252,-0.632 0.478,-1.269 0.646,-1.927c0.224,-0.874 -0.085,-1.572 -0.353,-2.375c-0.004,-0.012 -0.007,-0.02 -0.011,-0.033c-0.037,-0.107 0.047,0.012 0.151,0.012c0.127,0.002 0.261,0.161 0.293,0.258c0.237,0.71 0.612,1.118 0.486,1.899c-0.177,1.035 -0.571,2.018 -0.982,2.979c-0.408,0.942 -0.946,1.833 -1.653,2.549c-0.516,0.521 -1.121,0.95 -1.848,1.22c-0.969,0.361 -2.14,0.3 -2.686,-0.667c-0.286,-0.503 -0.304,-1.04 -0.166,-1.568c-0.978,0.721 -2.046,0.979 -2.9,-0.267c-0.515,-0.747 -0.51,-1.58 -0.226,-2.402c-0.657,1.122 -1.327,2.219 -2.636,2.6c-0.806,0.232 -1.514,-0.455 -1.847,-1.08c-0.533,-0.985 -0.18,-2.43 0.287,-3.547c-0.078,0.058 -0.146,0.124 -0.229,0.179c-1.422,0.912 -2.752,-0.52 -2.842,-1.859c-0.131,-1.971 1.011,-4.092 1.887,-5.788c0.599,-1.16 1.347,-2.364 2.249,-3.405c-0.159,0.121 -0.329,0.228 -0.485,0.354c-0.698,0.562 -1.308,1.51 -2.219,1.765c-1.572,0.437 -2.874,-0.317 -2.647,-2.068c0.115,-0.871 0.368,-1.656 0.704,-2.391c0.046,-0.101 0.091,-0.207 0.141,-0.309c0.283,-0.565 0.628,-1.098 1.01,-1.605c-1.033,0.002 -1.363,-1.895 -1.29,-2.879c0.228,-3.13 3.227,-5.245 5.735,-6.601c2.37,-1.286 5.043,-2.103 7.687,-2.593c1.358,-0.25 2.77,-0.405 4.15,-0.363c0.623,0.02 1.4,-0.004 2.054,0.166l-0.047,-0.07c3.668,0.291 5.547,2.147 6.021,2.687c2.377,-0.821 5.418,-0.112 7.552,1.054c1.053,0.578 1.918,1.413 2.57,2.413c0.91,1.38 0.33,3.085 0.36,4.616c0.001,0.059 -0.003,0.119 0.002,0.185zM318.268,108.172c0.006,-0.033 0.033,-0.047 0.062,-0.06c0.04,-0.014 0.091,-0.018 0.149,-0.008c0.149,0.027 0.31,0.122 0.286,0.245c-0.009,0.045 -0.02,0.086 -0.029,0.128c-0.015,0.058 -0.029,0.121 -0.044,0.179c-0.249,1.023 -0.715,2.029 -1.715,2.5c-0.164,0.077 -0.611,-0.188 -0.379,-0.292c1.043,-0.486 1.46,-1.63 1.67,-2.692zM313.291,90.131c0.898,-0.659 1.971,-0.611 2.974,-0.237c0.017,0.008 0.037,0.013 0.056,0.02c0.293,0.112 0.196,0.392 -0.097,0.277c-0.041,-0.017 -0.082,-0.025 -0.124,-0.042c-0.806,-0.281 -1.569,-0.027 -2.36,0.227c-0.155,0.114 -0.615,-0.123 -0.449,-0.245zM316.822,100.335c-0.001,-0.001 -0.002,0 -0.004,0c-1.705,0.092 -3.095,0.588 -4.21,1.913c-0.123,0.145 -0.596,-0.073 -0.45,-0.244c1.172,-1.395 2.655,-1.886 4.431,-1.991c0.019,-0.002 0.042,-0.004 0.062,-0.005c0.216,-0.012 0.506,0.305 0.171,0.327z" fill="#000000"/></g><g><path d="M329.325,86.432c-0.079,0.045 -0.158,0.083 -0.244,0.12c-0.672,0.26 -1.359,0.353 -2.009,0.687c-0.479,0.251 -0.973,0.58 -1.413,0.892c-0.464,0.333 -0.936,0.624 -1.394,0.973c-0.487,0.364 -0.883,0.724 -1.318,1.139c-0.91,0.863 -1.987,1.591 -2.523,2.776c-0.239,0.532 -0.334,1.093 -0.58,1.613c-0.23,0.483 -0.182,0.997 -0.196,1.527c-0.02,0.549 0.052,1.075 0.038,1.619c-0.018,0.577 0.172,1.035 0.238,1.572c0.137,1.089 0.686,2.024 0.539,3.137c-0.451,0.093 -0.753,-0.04 -1.168,0.218c-0.127,0.082 -0.425,0.412 -0.562,0.41c-0.226,-0.001 -0.177,-0.235 -0.238,-0.376c-0.201,-0.442 -0.672,-0.746 -0.931,-1.166c-0.269,-0.435 -0.577,-0.831 -0.844,-1.257c-0.61,-0.971 -1.029,-2.167 -1.307,-3.273c-0.296,-1.168 -0.633,-2.417 -0.363,-3.65c0.146,-0.66 0.332,-1.35 0.522,-2.002c0.21,-0.732 0.627,-1.323 1.111,-1.894c0.417,-0.497 0.785,-1.024 1.137,-1.578c0.365,-0.572 0.901,-1.008 1.41,-1.466c0.601,-0.53 1.27,-0.9 1.884,-1.365c0.434,-0.33 0.894,-0.598 1.441,-0.612c0.613,-0.017 1.26,0.076 1.868,0.15c0.706,0.091 1.442,0.127 2.116,0.364c0.482,0.176 1.002,0.365 1.468,0.586c0.252,0.123 0.562,0.213 0.798,0.36c0.231,0.147 0.244,0.341 0.52,0.496" fill="#ff1f00"/><path d="M329.455,86.651c-2.074,-1.655 -4.501,-2.021 -7.069,-2.128c-0.14,-0.005 -0.394,-0.227 -0.136,-0.215c2.713,0.113 5.268,0.52 7.446,2.26c0.201,0.162 -0.133,0.168 -0.241,0.083zM320.439,102.371c-0.838,-2.563 -1.541,-5.91 -0.57,-8.527c1.165,-3.168 4.857,-5.391 7.619,-6.97c0.114,-0.062 0.445,0.12 0.343,0.172c-2.842,1.623 -5.95,3.65 -7.473,6.655c-1.259,2.479 -0.358,6.261 0.458,8.752c0.037,0.118 -0.334,0.043 -0.377,-0.082zM318.508,103.123c-2.341,-2.979 -4.278,-6.642 -3.469,-10.532c0.396,-1.879 1.591,-3.514 2.807,-4.943c1.155,-1.356 2.608,-2.749 4.328,-3.335c0.111,-0.038 0.448,0.145 0.291,0.201c-3.134,1.068 -5.951,4.741 -6.934,7.777c-1.252,3.86 1.021,7.913 3.331,10.856c0.092,0.126 -0.283,0.071 -0.354,-0.024z" fill="#010101"/></g></g></g><g stroke="none"><g stroke-width="1"><path d="M330.619,199.713c-1.319,1.078 -2.134,-0.233 -2.589,0.961c-0.38,0.993 -0.983,1.975 -1.396,3.002c-0.352,0.878 -0.914,1.862 -1.666,2.467c-0.413,0.329 -0.732,0.541 -1.264,0.541c-0.227,0.001 -0.389,-0.092 -0.658,-0.061c-0.269,0.03 -0.448,0.171 -0.725,0.178c-1.125,0.029 -0.999,-1.449 -1.245,-2.223c-0.676,-2.15 -1.155,-3.98 -1.049,-6.296c0.049,-1.09 -0.227,-2.018 -0.227,-3.079c0,-1.06 -0.041,-1.999 0.16,-3.002c0.239,-1.182 0.471,-1.723 -0.111,-2.829c-0.536,-1.018 -0.872,-2.046 -1.444,-3.065c-1.194,-2.128 -2.321,-4.319 -3.482,-6.447c-1.319,-2.416 -2.559,-4.93 -3.653,-7.437c-0.467,-1.065 -1.117,-2.025 -1.513,-3.125c-0.117,-0.32 -0.515,-1.321 -0.478,-1.829c-0.115,-0.316 -0.204,-0.656 -0.254,-1.028c0,0 7.103,-1.408 11.634,2.223c0.079,-0.008 0.158,-0.021 0.225,-0.025c-0.001,0.482 -0.005,0.934 0.104,1.385c0.156,0.639 0.176,1.535 0.349,2.163c0.391,1.424 0.671,3.197 1.107,4.629c0.534,1.751 0.924,3.026 1.456,4.793c0.45,1.493 0.773,2.927 1.084,4.452c0.47,2.306 1.758,4.007 3.032,5.917c0.515,0.768 1.308,1.556 1.445,2.461c0.156,0.999 -0.177,2.094 0.059,3.052c0.158,0.645 1.314,2.047 1.099,2.222z" fill="#ffe6c7"/><path d="M330.899,199.682c-0.495,0.807 -1.655,0.92 -2.486,0.537c-0.151,0.327 -0.296,0.653 -0.432,0.97c0,0.005 0.009,0.008 0.007,0.012c-0.582,1.524 -1.397,3.002 -2.354,4.321c-0.44,0.612 -1.134,1.491 -1.945,1.305c-0.054,0.069 -0.098,0.144 -0.157,0.207c-0.079,0.087 -0.384,-0.001 -0.475,-0.101c-0.002,-0.001 -0.005,-0.003 -0.007,-0.005c-0.024,-0.033 -0.042,-0.066 -0.063,-0.097c-0.673,0.493 -1.39,0.379 -1.735,-0.553c-0.11,-0.296 -0.168,-0.607 -0.208,-0.922c-0.04,-0.022 -0.079,-0.048 -0.091,-0.078c-0.728,-2.197 -1.341,-4.48 -1.358,-6.825c0,-0.017 0.029,-0.023 0.051,-0.033c0.013,-2.602 -0.542,-5.398 0.503,-7.871c-1.994,-3.794 -4.039,-7.568 -5.954,-11.4c-1.258,-2.519 -2.48,-5.053 -3.621,-7.625c-0.688,-1.556 -1.78,-3.463 -1.84,-5.209c-0.003,-0.115 0.514,-0.037 0.521,0.14c0.061,1.802 1.238,3.803 1.948,5.407c1.137,2.562 2.369,5.088 3.623,7.598c1.878,3.76 3.892,7.461 5.846,11.185c0.003,0.004 -0.007,0.005 -0.007,0.009c0,0.007 0.011,0.012 0.009,0.019c-1.03,2.421 -0.519,5.154 -0.509,7.716c0.069,-0.012 0.161,-0.011 0.239,0.015c2.421,0.868 4.852,1.512 7.402,0.764c0.1,-0.031 0.36,0.068 0.438,0.147c0.651,-1.472 1.237,-3.038 1.059,-4.56c-0.864,-2.449 -3.002,-4.229 -3.981,-6.637c-0.066,-0.027 -0.115,-0.061 -0.126,-0.104c-1.392,-6.549 -3.903,-12.816 -4.81,-19.473c-0.021,-0.167 0.496,-0.066 0.516,0.08c0.889,6.54 3.325,12.706 4.733,19.13c0.006,0.007 0.022,0.012 0.025,0.025c0.863,2.578 3.147,4.396 4.1,6.913c0.023,0.018 0.053,0.037 0.055,0.058c0.004,0.027 0.001,0.058 0.004,0.085c0.015,0.034 0.03,0.065 0.043,0.1c0.009,0.025 -0.016,0.032 -0.035,0.044c0.051,0.56 0.007,1.121 -0.106,1.68c0.019,0.018 0.048,0.033 0.051,0.053c0.147,1.001 0.469,1.898 0.889,2.808c0.142,0.036 0.278,0.114 0.238,0.165zM325.963,204.103c0.559,-0.925 1.058,-1.905 1.454,-2.911c0,-0.006 -0.008,-0.01 -0.006,-0.014c0.17,-0.404 0.363,-0.824 0.557,-1.252c-0.006,-0.02 0.001,-0.033 0.021,-0.044c0.073,-0.16 0.145,-0.324 0.218,-0.489c-2.739,0.795 -5.381,0.105 -7.994,-0.829c-0.021,-0.007 -0.029,-0.015 -0.047,-0.021c0,0.073 0.002,0.148 0.002,0.221c0,0.015 -0.026,0.019 -0.046,0.028c0.041,1.751 0.408,3.465 0.9,5.132c0.091,-1.215 0.377,-2.465 0.342,-3.599c-0.001,-0.116 0.516,-0.037 0.521,0.138c0.029,1.007 -0.128,1.934 -0.23,2.929c-0.084,0.804 -0.101,1.624 -0.003,2.431c0.032,0.261 0.108,0.511 0.2,0.76c0.233,0.635 0.667,0.097 0.9,-0.148c-0.804,-1.687 0.13,-4.185 0.392,-5.852c0.023,-0.137 0.543,-0.019 0.52,0.138c-0.251,1.625 -1.205,4.197 -0.382,5.823c1.22,-1.579 1.453,-3.955 1.887,-5.817c0.036,-0.148 0.555,-0.015 0.52,0.137c-0.434,1.859 -0.665,4.173 -1.844,5.773c0.683,-0.045 1.958,-2.263 2.118,-2.534zM330.318,199.638c-0.062,-0.026 -0.107,-0.056 -0.125,-0.092c-0.3,-0.637 -0.544,-1.267 -0.723,-1.922c-0.256,0.809 -0.6,1.604 -0.948,2.372c0.561,0.361 1.399,0.167 1.796,-0.358z" fill="#010101"/></g><g><path d="M314.011,169.288c-0.076,-0.015 -0.152,-0.03 -0.23,-0.048c-0.145,-0.032 -0.289,-0.07 -0.432,-0.109c-0.347,-0.095 -0.694,-0.21 -1.037,-0.34c-1.681,-0.683 -3.003,-1.862 -3.745,-3.645c-0.605,-1.456 -0.962,-2.998 -1.423,-4.503c0.065,-0.004 0.112,-0.018 0.099,-0.048c-0.629,-1.606 0.363,-2.726 1.588,-3.597c0.284,1.358 1.234,2.247 2.529,2.914c0.124,0.065 0.606,0.077 0.3,-0.081c-1.411,-0.723 -2.338,-1.759 -2.4,-3.392c-0.003,-0.067 -0.101,-0.114 -0.208,-0.144c-0.491,-2.432 -1.178,-4.945 -0.935,-7.434c0.204,-2.07 0.957,-3.884 2.035,-5.636c0.059,-0.006 0.103,-0.022 0.094,-0.059c-0.006,-0.023 -0.012,-0.048 -0.017,-0.072c0.007,-0.014 0.015,-0.025 0.023,-0.041c0.013,-0.018 -0.011,-0.047 -0.052,-0.075c-1.148,-4.659 -1.751,-9.865 1.791,-13.708c1.478,-1.603 3.382,-2.893 5.543,-3.348c1.772,-0.375 3.836,-0.49 5.376,0.647c0.936,0.695 1.612,1.594 2.431,2.402c0,0.001 0.001,0.001 0.001,0.001c2.472,3.443 2.177,8.831 0.642,12.58c-0.726,1.787 -2.99,5.032 -1.64,6.946c0.392,0.55 1.059,1.259 0.804,2.013c-0.156,0.464 -0.426,0.831 -0.633,1.269c-0.468,0.982 -0.421,1.686 0.025,2.603v0c0.198,1.152 1.068,2.281 0.823,3.485c-0.186,0.914 -0.629,1.742 -1.331,2.374c-1.461,1.308 -3.61,2.198 -5.567,1.598c-0.303,-0.09 -0.347,0.083 -0.047,0.176c1.299,0.396 2.756,0.259 4.034,-0.264c0.208,1.779 0.354,3.874 -0.45,5.516c-0.555,1.127 -2.356,1.536 -3.517,1.803c-1.454,0.334 -2.991,0.508 -4.474,0.217z" fill="#4e3a78" stroke-width="1"/><path d="M321.694,168.297c-0.445,0.208 -0.904,0.386 -1.364,0.549c-2.023,0.716 -4.164,0.98 -6.311,0.646c-1.814,-0.28 -3.734,-1.156 -4.892,-2.627c-0.041,-0.049 -0.086,-0.095 -0.124,-0.146c-1.353,-1.855 -1.757,-4.167 -2.424,-6.313c-0.009,-0.034 0.035,-0.05 0.094,-0.055c-0.367,-1.104 -0.015,-1.988 0.791,-2.835c0.623,-0.651 1.179,-0.762 0.964,-1.83c-0.195,-0.984 -0.401,-1.965 -0.576,-2.953c-0.626,-3.571 -0.062,-6.697 1.846,-9.763c-0.677,-2.724 -1.207,-5.484 -0.832,-8.297c0.393,-2.928 2.132,-5.49 4.465,-7.231c2.017,-1.502 4.615,-2.164 7.101,-1.94c0.012,0.002 0.024,0.001 0.036,0.002c0.766,0.072 1.413,0.303 2.003,0.619c0.575,0.307 1.091,0.696 1.58,1.145c0.593,0.542 1.153,1.15 1.754,1.744c0.008,0.007 0.007,0.014 0.01,0.019c0.003,0.004 0.015,0.006 0.018,0.009c0.048,0.068 0.09,0.14 0.136,0.207c2.17,3.202 2.031,8.061 0.863,11.571c-0.726,2.187 -3.268,5.485 -1.98,7.78c0.483,0.857 1.044,1.351 0.698,2.384c-0.148,0.449 -0.485,0.862 -0.686,1.289c-0.36,0.763 -0.162,1.497 0.181,2.203c0.001,0.001 0.004,0.002 0.004,0.003c0,0.003 0,0.006 0.001,0.008c0.024,0.052 0.051,0.105 0.078,0.159c0.008,0.012 -0.015,0.019 -0.035,0.026c0.274,1.265 0.999,2.292 0.723,3.642c-0.211,1.038 -0.998,1.889 -1.791,2.532c-0.345,0.277 -0.729,0.514 -1.132,0.714c0.015,0.014 0.041,0.026 0.043,0.042c0.214,1.742 0.731,5.775 -1.242,6.697zM313.778,169.247c0.053,0.012 0.099,0.029 0.151,0.039c0.026,0.006 0.054,0.006 0.079,0.01c1.484,0.288 3.02,0.112 4.475,-0.221c1.161,-0.266 2.961,-0.676 3.516,-1.803c0.804,-1.641 0.66,-3.734 0.45,-5.516c-1.279,0.521 -2.735,0.66 -4.034,0.264c-0.299,-0.093 -0.256,-0.268 0.047,-0.176c1.958,0.599 4.106,-0.288 5.568,-1.598c0.701,-0.633 1.144,-1.46 1.33,-2.374c0.245,-1.203 -0.625,-2.332 -0.823,-3.485v0c-0.444,-0.917 -0.493,-1.621 -0.025,-2.603c0.208,-0.439 0.477,-0.807 0.633,-1.268c0.253,-0.756 -0.414,-1.464 -0.803,-2.014c-1.35,-1.914 0.913,-5.161 1.639,-6.946c1.535,-3.748 1.83,-9.136 -0.642,-12.58c0,-0.001 -0.001,-0.001 -0.001,-0.001c-0.82,-0.81 -1.495,-1.709 -2.431,-2.402c-1.54,-1.138 -3.604,-1.021 -5.376,-0.647c-2.161,0.456 -4.066,1.745 -5.543,3.348c-3.541,3.843 -2.939,9.049 -1.791,13.708c0.042,0.029 0.067,0.056 0.052,0.076c-0.007,0.015 -0.015,0.026 -0.023,0.04c0.006,0.024 0.012,0.05 0.017,0.072c0.008,0.038 -0.036,0.053 -0.094,0.059c-1.077,1.752 -1.831,3.566 -2.035,5.636c-0.242,2.489 0.444,5.002 0.935,7.433c0.107,0.03 0.205,0.077 0.208,0.145c0.064,1.633 0.989,2.668 2.4,3.392c0.308,0.158 -0.174,0.146 -0.299,0.081c-1.296,-0.666 -2.245,-1.556 -2.529,-2.914c-1.223,0.87 -2.218,1.99 -1.588,3.597c0.012,0.03 -0.035,0.044 -0.098,0.048c0.462,1.503 0.817,3.048 1.423,4.503c0.744,1.782 2.066,2.962 3.745,3.645c0.331,0.133 0.679,0.244 1.037,0.34c0.144,0.039 0.286,0.078 0.43,0.112z" fill="#010101" stroke-width="1"/><path d="M313.33942,169.18425c-0.358,-0.096 -0.70843,-0.20749 -1.03943,-0.34049c-1.679,-0.683 -3.01182,-1.86679 -3.75582,-3.64879c-0.606,-1.455 -0.96945,-3.00519 -1.43145,-4.50819c0.063,-0.004 0.11012,-0.01791 0.09812,-0.04791c-0.63,-1.607 0.4281,-2.80449 1.6511,-3.67449c0.284,1.358 1.22113,2.24027 2.51713,2.90627c0.125,0.065 0.56565,0.16804 0.25765,0.01004c-1.411,-0.724 -2.34882,-1.76722 -2.41282,-3.40022c-0.003,-0.068 -0.10179,-0.11571 -0.20879,-0.14571c-0.491,-2.431 -1.1926,-4.97355 -0.9506,-7.46255c0.204,-2.07 0.96501,-3.91761 2.04201,-5.66961c0.058,-0.006 0.10233,-0.02152 0.09433,-0.05952c-0.005,-0.022 -0.01083,-0.04826 -0.01683,-0.07226c0.008,-0.014 0.01615,-0.02524 0.02315,-0.04024c0.015,-0.02 -0.00988,-0.04718 -0.05188,-0.07618c-1.148,-4.659 -1.72178,-9.88556 1.81922,-13.72856c1.477,-1.603 3.39646,-2.89384 5.55746,-3.34984c1.772,-0.374 3.84834,-0.4892 5.38834,0.6488c0.936,0.693 1.61793,1.59448 2.43793,2.40448c0,0 0.001,0 0.001,0.001c2.472,3.444 2.19817,8.84972 0.66317,12.59772c-0.726,1.785 -2.98085,5.0665 -1.63085,6.9805c0.389,0.55 1.05334,1.26879 0.80034,2.02479c-0.156,0.461 -0.4285,0.83651 -0.6365,1.27551c-0.468,0.982 -0.42561,1.69504 0.01839,2.61204v0c0.198,1.153 1.06243,2.2872 0.81743,3.4902c-0.186,0.914 -0.63629,1.74585 -1.33729,2.37885c-1.462,1.31 -3.62922,2.20288 -5.58722,1.60388c-0.303,-0.092 -0.35523,-0.01657 -0.05623,0.07643c1.299,0.396 2.7419,0.26 4.0209,-0.261c0.21,1.782 0.38365,3.97033 -0.42035,5.61133c-0.555,1.127 -2.36385,1.53837 -3.52485,1.80437c-1.455,0.333 -3.00125,0.5086 -4.48525,0.2206c-0.025,-0.004 -0.05318,-0.00403 -0.07918,-0.01003c-0.052,-0.01 -0.09835,-0.02705 -0.15135,-0.03905c-0.144,-0.034 -0.287,-0.07316 -0.431,-0.11216z" fill="#ff1f00" stroke-width="0.5"/></g></g></g></g></svg>