<svg version="1.1" xmlns="http://www.w3.org/2000/svg" xmlns:xlink="http://www.w3.org/1999/xlink" width="158.63044" height="195.61835" viewBox="0,0,158.63044,195.61835"><g transform="translate(-240.68478,-85.95079)"><g stroke-miterlimit="10"><path d="M399.31522,267.87442c0,7.56338 -35.51064,13.69472 -79.31522,13.69472c-43.80458,0 -79.31522,-6.13134 -79.31522,-13.69472c0,-7.56338 35.51064,-13.69471 79.31522,-13.69471c43.80458,0 79.31522,6.13133 79.31522,13.69471z" fill-opacity="0.59608" fill="#000000" stroke="#000000" stroke-width="0"/><path d="M334.3323,95.8376c0.3021,-1.9979 -0.1957,-4.6854 -1.92,-5.8245c-2.0178,-1.3347 -5.2164,-2.2866 -7.6275,-1.7109c-1.3253,0.3163 -2.5147,1.3072 -3.5825,2.089c-1.0079,0.7372 -2.0558,1.3794 -2.7578,2.4349c-0.4047,0.6061 -0.5605,0.6308 -1.0754,1.101c-0.4218,0.3857 -0.5026,1.2968 -0.7505,1.8145c-0.3496,0.7344 -0.5387,1.7176 -0.4332,2.4643c0.0893,0.628 -0.0162,0.2195 -0.0247,0.8579c-0.0152,1.0991 0.5624,2.4671 0.7001,3.5245c0.0665,0.5082 0.2176,0.8569 0.4342,1.3157c0.284,0.5957 0.2156,0.6251 0.7847,1.0023c0.4436,0.2935 0.7191,0.3543 1.0488,0.7419c0.284,0.3306 0.5481,0.703 0.8075,1.1125c0.512,0.8103 0.4873,1.7147 0.7961,2.5023c0.5975,-0.4228 1.3499,-1.9599 1.2967,-3.1806c-0.0522,-1.1714 -0.9376,-2.2021 -1.3195,-3.2908c-0.3895,-1.1106 -0.856,-2.3741 -0.7743,-3.5777c0.1007,-1.4963 1.3006,-2.5622 2.4292,-3.25c1.6986,-1.0336 4.617,-1.748 6.9141,-1.6235c2.0643,0.1111 3.3003,0.3448 4.9827,1.5627M318.4103,86.3157c-1.7262,0.9709 -2.8595,2.0178 -4.1278,3.5198c-0.8673,1.0288 -1.9598,2.6723 -2.299,3.742c-0.4075,1.2892 -0.5576,2.8462 -0.2242,4.1192c0.1891,0.7173 0.2831,1.559 0.609,2.2591c0.2517,0.5453 0.5158,0.9985 0.7153,1.5647c0.2423,0.683 0.8683,1.082 1.1533,1.7527c0.3088,0.722 0.8408,1.2208 1.2825,1.805c-0.474,0.5434 -0.1235,0.7068 -0.6279,1.5428c-0.3715,0.6156 -0.1872,1.1628 -0.0627,1.8117c0.1767,0.9253 0.3572,1.2929 0.9623,2.0767c0.4551,0.5871 1.3348,0.9272 1.2949,1.7717c-0.0551,1.0963 -0.323,2.5232 -0.5339,3.5996c-0.2337,1.1998 -1.103,2.1546 -1.7604,3.1587c-0.6203,0.9491 -1.9313,1.6473 -3.2718,1.4108c-1.6625,-0.2945 -0.8911,-1.6369 -0.8208,-2.7883c-0.893,0.8968 -2.4937,1.5295 -3.1796,0.2727c-0.9291,-1.7091 0.3743,-2.4795 0.4056,-3.6338c-0.6783,0.6669 -1.2188,1.4887 -1.7138,2.3494c-0.2441,0.4218 -0.4161,0.76 -0.7714,1.1067c-0.3287,0.3221 -0.9718,0.3002 -1.3936,0.2508c-0.9301,-0.1111 -1.5286,-0.8673 -1.3652,-1.7575c0.1767,-0.9481 -0.0133,-2.3598 0.513,-3.268c-0.6678,0.7078 -1.7622,1.9903 -2.792,0.4408c-0.6584,-0.9946 -0.2755,-2.8243 0.0408,-3.7772c0.4551,-1.3642 1.0279,-2.5108 1.6103,-3.8066c0.2755,-0.6099 0.6517,-0.9728 0.968,-1.5827c0.3667,-0.703 1.558,-1.6179 1.7528,-2.3228c-1.7015,0.5377 -3.9824,4.675 -5.8558,2.7645c-0.8807,-0.8996 -0.1216,-2.8319 0.019,-3.8218c0.0931,-0.6432 0.2536,-0.4513 0.6621,-0.9614c0.2879,-0.3591 0.8113,-0.7657 0.7952,-1.2607c-1.2882,0.3278 -1.6673,-2.1916 -1.4098,-3.0875c1.0089,-3.5074 4.3348,-5.9574 7.6199,-7.2542c2.1879,-0.8645 4.6085,-1.6283 6.9132,-1.9589c1.0763,-0.152 1.9114,-0.1073 2.9839,-0.2099c0.4608,-0.0437 1.6359,0.2821 1.9817,0.1064" fill="#371e10" stroke="none" stroke-width="0.95"/><path d="M325.4251,87.888c-0.0751,0.0446 0.0066,0.1776 -0.0732,0.2137c-0.6593,0.2917 -1.615,0.5757 -2.2448,0.9405c-0.4684,0.2717 -0.8607,0.5577 -1.2806,0.8892c-0.4484,0.3506 -0.8683,0.475 -1.312,0.8436c-0.4636,0.3857 -0.8445,0.761 -1.2597,1.1961c-0.8616,0.9006 -1.899,1.6739 -2.3797,2.8766c-0.2157,0.5405 -0.285,1.102 -0.5045,1.6311c-0.2071,0.4902 -0.2783,1.0745 -0.2688,1.6046c0.0104,0.5491 0.0817,1.0611 0.0921,1.6036c0.0124,0.5719 0.2347,1.1628 0.3259,1.69c0.1843,1.0792 0.6631,1.7917 0.8255,2.8842c-0.4446,0.1093 -0.7514,-0.0066 -1.1514,0.2698c-0.1225,0.0855 -0.4028,0.4266 -0.5358,0.4342c-0.227,0.0104 -0.5158,-0.3021 -0.5842,-0.4389c-0.2195,-0.4323 -0.3753,-0.6365 -0.6536,-1.045c-0.2841,-0.4171 -0.6061,-0.7999 -0.8921,-1.2113c-0.6507,-0.9338 -1.1191,-2.1052 -1.4497,-3.191c-0.3486,-1.1486 -0.7391,-2.3779 -0.5282,-3.6148c0.114,-0.6631 0.2698,-1.3585 0.4266,-2.0159c0.1748,-0.7372 0.5605,-1.3433 1.0146,-1.9332c0.3933,-0.5102 0.7343,-1.0526 1.0583,-1.6179c0.3344,-0.5852 0.8512,-1.044 1.3366,-1.5228c0.5691,-0.5596 1.2189,-0.9538 1.8098,-1.4459c0.4161,-0.3477 0.8616,-0.6337 1.405,-0.6755c0.6137,-0.0465 1.2578,0.0143 1.8658,0.0637c0.7087,0.0579 1.4421,0.057 2.1233,0.265c0.4873,0.1482 1.0108,0.3135 1.4848,0.5159c0.2575,0.1102 0.4294,0.285 0.6698,0.4218c0.2384,0.1358 0.3999,0.227 0.6802,0.3686" fill="#bd5da4" stroke="none" stroke-width="0.95"/><path d="M313.8408,122.4385c0.5329,-0.2489 0.095,-0.2413 0.5567,-0.6175c0.5263,-0.418 0.7077,-0.7448 0.7951,-1.3794c0.0494,-0.3638 0.172,-0.5301 0.3401,-0.8483c0.1634,-0.3107 0.4142,-1.1837 0.5358,-1.5295c0.2594,-0.7306 0.152,-1.3509 0.4161,-2.0891c0.514,-1.4487 1.2255,-3.2974 -0.0313,-4.8326c-0.3268,-0.399 -0.6413,-0.7524 -0.989,-1.1419c-0.417,-0.4665 -0.3648,-1.2122 -0.5158,-1.8145c-0.1359,-0.5358 -0.1748,-1.1286 -0.0589,-1.6768c0.1349,-0.6298 0.4161,-1.0298 0.7704,-1.5371c0.342,-0.4921 0.3192,-0.5842 0.9595,-0.6754c0.5045,-0.0713 0.9557,0.1539 1.3604,0.4161c0.6251,0.4066 1.4488,0.9604 1.7157,1.6805c0.1682,0.4541 0.6973,0.9006 0.7866,1.3747c0.0779,0.4113 0.1843,1.0554 0.494,1.3623c0.6641,-0.5634 0.7657,-1.7499 0.799,-2.5365c0.1833,-0.0836 0.0883,-0.2622 0.0931,-0.4247c0.0038,-0.1368 0.2166,-1.2112 -0.0228,-1.2834c-0.0266,-0.3002 -0.1805,-0.3705 -0.1853,-0.6698c-0.0104,0.0048 -0.0912,-0.0161 -0.1016,-0.0085c0.0057,-0.3116 -0.0855,-0.4665 -0.095,-0.7771c-0.1368,-0.0447 -0.1682,-0.2508 -0.3211,-0.2689c-0.0133,-0.151 -0.2119,-0.456 -0.2736,-0.5947c-0.1454,-0.3239 -0.5339,-0.8768 -0.609,-1.1238c-0.0199,-0.3002 0.0694,-0.3135 0.0466,-0.6137c-0.0808,-0.0903 -0.4199,-0.5073 -0.0988,-0.5054c-0.0257,-0.3002 -0.1131,-0.2318 -0.1036,-0.533c-0.3087,0.3743 0.0238,-0.4104 0.001,-0.3971c-0.0276,-0.3011 0.2812,-0.5405 0.1368,-0.7999c0.0522,-0.0437 -0.0171,-0.4541 0.0294,-0.4075c-0.0009,-0.552 0.5729,-0.3449 0.609,-0.8959c-0.1159,0.5225 0.6526,-0.8094 0.7571,-0.8597c0.2926,-0.1397 0.3344,-0.3582 0.6137,-0.5111c0.343,-0.1872 0.5206,-0.3506 0.8522,-0.5434c0.3819,-0.2223 1.0155,-0.4541 1.4402,-0.6223c0.3781,-0.152 1.0098,-0.2584 1.4145,-0.3163c0.6327,-0.0903 1.0678,0.0104 1.7024,-0.0608c0.9329,-0.1055 2.0976,-0.0722 3.0286,-0.0589c0.3449,0.0047 0.8142,0.2061 1.1628,0.2736c0.3154,0.0627 0.5273,0.1406 0.8218,0.2859c0.5747,0.2822 1.0393,0.3506 1.5342,0.7866c0.2983,0.2613 0.3325,0.8332 0.5311,1.1609c0.1216,0.2024 0.2973,0.5273 0.3762,0.7429c0.0874,0.2404 0.1396,0.5149 0.2954,0.7173c0.2594,0.341 0.3449,0.7514 0.4266,1.1894c0.1415,0.7714 0.2707,1.7945 0,2.5517c-0.057,0.1577 0.0836,0.3068 0.0142,0.4721c-0.0807,0.1929 -0.208,0.3876 -0.265,0.5909c-0.1121,0.4028 -0.1387,0.8408 -0.267,1.2445c-0.2071,0.6555 -0.5358,1.3082 -0.5054,2.0482c0.0304,0.7429 0.1729,1.2512 0.609,1.8525c0.1976,0.2746 0.2859,0.6669 0.5063,0.9139c0.2166,0.2404 0.4551,0.6489 0.6774,0.8816c0.4123,0.4323 1.2834,0.7334 1.2112,1.4136c-0.0313,0.2879 -0.2593,0.5748 -0.4294,0.7952c-0.2118,0.2764 -0.5586,0.5548 -0.873,0.645c-0.4456,0.1254 -0.8541,0.1245 -1.0308,0.5852c-0.1339,0.3487 -0.0598,0.5254 0.0152,0.8892c0.0836,0.4057 0.3629,0.7534 0.3145,1.1989c-0.0656,0.5938 -0.6185,1.0165 -1.0707,1.1248c0.418,0.3791 0.2869,1.2075 -0.0703,1.5191c-0.4826,0.4218 -1.1694,0.1634 -1.6169,0.5994c-0.7932,0.7752 -0.3752,1.8753 -0.8759,2.7512c-1.0972,1.9171 -3.3981,0.7163 -4.8497,0.3648c-0.1055,-0.0997 -1.7566,-0.741 -1.8753,-0.5956c-0.1729,0.2109 -0.2413,0.323 -0.4741,0.3277c-0.0399,0.2907 -0.0171,0.2936 -0.0579,0.5843c-0.229,0.0066 -0.2071,0.2973 -0.438,0.3591c-0.0437,0.2983 -0.2289,0.3087 -0.2574,0.6089c-0.0124,-0.0351 -0.0209,-0.0703 -0.0266,-0.1064c-0.0428,0.285 -0.2271,0.1017 -0.285,0.3848c-0.0713,-0.0399 -0.3819,0.4161 -0.1967,0.5681c-0.0551,0.285 -0.2489,5.3409 0.1311,5.8586c-0.0541,-0.1463 -0.2812,0.1283 -1.0165,-0.2622c-0.0541,-0.0294 -0.7011,-0.4265 -0.7381,-0.455c-0.2204,-0.1786 -0.5615,-0.3012 -0.551,-0.476c-0.019,0.361 -0.4009,-0.8113 -0.4209,-0.4503c0.0162,-0.0513 -0.2498,-0.532 -0.2403,-0.5785c-0.2423,-0.2955 -0.456,-0.7049 -0.8113,-0.9111c-0.4161,-0.2432 -0.2755,-0.418 -0.6755,-0.6849c-0.5899,-0.3933 -0.6127,-0.5168 -1.2663,-0.8161c-0.6612,-0.304 -0.6061,-0.4427 -1.3148,-0.5443c-0.381,-0.057 -0.5444,-0.1881 -0.9215,-0.2489c-0.4456,-0.0703 -0.4047,-0.0874 -0.7619,-0.2641c-0.476,-0.2347 -0.9234,-0.5206 -1.5162,-1.0707c-0.988,-0.9215 0.6013,-0.3933 0.2242,-0.7049" fill="#a16235" stroke="none" stroke-width="0.95"/><path d="M333.273,105.0934c-0.151,0.1197 -0.2907,0.2014 -0.4769,0.266c-0.1548,0.0532 -0.304,0.1197 -0.456,0.1786c-0.0883,0.0342 -0.1501,0.0599 -0.2099,0.1397c-0.0627,0.0826 -0.0703,0.2375 -0.1083,0.341c-0.0456,0.1273 -0.0171,0.2204 -0.0114,0.3534c0.0114,0.2176 0.1054,0.4142 0.151,0.6223c0.0228,0.1121 0.0589,0.19 0.1254,0.2888c0.0589,0.0893 0.1178,0.1586 0.1919,0.2337c0.0466,0.0465 0.077,0.0902 0.1368,0.1216c0.0399,0.0209 0.1387,0.0256 0.1577,0.0703c0.0437,0.0969 -0.2223,0.0513 -0.2669,0.0494c-0.3506,-0.0171 -0.6821,-0.0931 -1.0194,-0.1748c-0.1966,-0.0475 -0.5092,-0.21 -0.7001,-0.2698c-0.2033,-0.0637 -0.4921,-0.1967 -0.7002,-0.2689c-0.2451,-0.0845 -0.2574,-0.0199 -0.4769,-0.1586c-0.0731,-0.0456 -0.1672,-0.1093 -0.1719,-0.2071c-0.0038,-0.0732 0.0418,-0.1026 0.0817,-0.1596c0.0418,-0.0589 -0.1387,-0.1796 -0.0979,-0.2356c0.0722,-0.0998 0.4199,-0.1245 0.5273,-0.1758c0.3686,-0.1786 0.7676,-0.2983 1.159,-0.4113c0.3714,-0.1045 0.7486,-0.19 1.1162,-0.305c0.2138,-0.0665 0.4351,-0.1026 0.6498,-0.1691c0.1311,-0.0408 0.2632,-0.1026 0.3952,-0.1349" fill="#ffffff" stroke="none" stroke-width="0.95"/><path d="M332.0884,105.6007c0.0978,-0.0123 0.1738,-0.1007 0.2555,-0.1482c0.0874,-0.0513 0.1815,-0.0826 0.2803,-0.1102c0.1843,-0.0513 0.3933,-0.0864 0.5852,-0.0988c0.1026,-0.0085 0.1615,0.0143 0.2232,0.1045c0.0941,0.1397 0.1957,0.2622 0.2594,0.4209c0.0522,0.1273 0.1149,0.2403 0.1444,0.3762c0.0275,0.1282 0.0142,0.2622 0.0142,0.3933c0,0.3135 -0.1605,0.5719 -0.3258,0.8293c-0.1501,0.2356 -0.3278,0.3126 -0.6004,0.2983c-0.0903,-0.0038 -0.1739,-0.0294 -0.2584,-0.0646c-0.1292,-0.0541 -0.1976,-0.17 -0.3135,-0.2413c-0.0722,-0.0446 -0.1064,-0.0522 -0.1406,-0.1349c-0.0352,-0.0845 -0.0779,-0.1729 -0.0998,-0.2631c-0.0864,-0.343 -0.2128,-0.7467 -0.1216,-1.1011c0.0266,-0.1045 0.0523,-0.1833 0.115,-0.2679" fill="#371e10" stroke="none" stroke-width="0.95"/><path d="M327.2054,179.3027c0.7609,1.0925 1.1447,2.1166 1.8857,3.4599c0.7496,1.3594 0.7458,2.6932 1.5343,4.4498c0.5909,1.3186 1.0241,2.0957 1.2008,3.5587c0.1653,1.3661 0.7685,3.3677 1.0668,4.7148c0.5976,2.679 0.3876,5.5955 0.8911,8.1843c0.6004,3.0856 0.3648,4.1173 1.1172,6.9853c0.6185,2.357 2.7531,2.5802 2.7018,8.1814c0.2746,2.1375 1.0887,7.1412 1.0849,8.4522c-0.0066,2.5374 0.5624,3.4523 0.8056,5.6411c0.1321,1.1951 0.1777,4.1401 0.7733,5.2497c0.5159,0.9614 0.9073,0.9348 1.749,1.6539c0.8445,0.7249 2.108,0.7762 2.5374,1.8259c0.3838,0.9415 -0.4189,2.5926 0.2252,3.3497c0.5272,0.6156 0.911,-0.3002 1.4354,0.2765c0.4617,0.5111 0.9956,3.8741 1.2293,4.5125c0.4703,1.2825 0.8674,1.4934 0.7401,2.7122c-0.1549,1.502 -0.0618,1.1429 -0.5634,2.5356c-0.6498,1.8021 -1.8715,2.641 -2.1802,3.7373c-1.1163,0.6792 -0.8854,1.9646 -2.5099,2.4681c-0.2014,1.2853 -4.2399,3.5843 -5.5262,3.7591c-2.8452,0.3838 -5.7532,-0.1776 -7.5325,0.6242c-1.7746,0.7989 -2.5356,1.8506 -4.3425,1.6929c-1.3794,-0.1216 -2.5602,-8.2831 -3.8323,-8.3629c0.2888,-2.4975 1.369,-0.9376 1.1647,-2.9279c-0.1273,-1.216 -0.9006,-2.4728 -1.4297,-4.1771c-0.3439,-1.1096 -0.8759,-3.2699 -0.8769,-4.5895c-0.0019,-2.5089 -0.4085,-3.8779 -0.2536,-6.8143c0.076,-1.4412 0.3448,-2.4814 0.0646,-3.9131c-0.2347,-1.2017 0.0408,-2.3256 -0.0152,-3.515c-0.2062,-4.4042 -1.4098,-1.786 -1.9105,-4.1885c-0.1919,-0.9206 0.7192,-1.2873 0.4066,-1.9589c-0.493,-1.0593 -1.2663,-1.6958 -1.5485,-2.9887c-0.0741,-0.0361 -1.9722,-4.6389 -2.1536,-4.5097c-0.2033,0.1425 0.018,1.9618 -0.1644,2.3522c-0.3866,0.8151 -0.1111,1.7224 -0.1586,2.6714c-0.0523,1.0374 -0.0247,2.1784 -0.2679,3.1863c-0.2195,0.9187 -1.7319,2.034 -2.2563,2.813c-0.6279,0.9348 -1.501,1.5618 -2.2239,2.4006c-0.4437,0.5149 -0.323,0.6717 -0.6916,1.2369c-0.2793,0.4285 -1.3034,1.4744 -1.5238,1.7955c-1.482,2.1451 -3.3507,4.8118 -5.3039,6.6234c-1.4573,1.3519 -2.6752,2.8291 -1.7746,6.4306c0.4503,1.8031 1.9057,2.0225 -0.4911,4.9333c-0.9348,1.1362 -0.4484,0.6973 -1.3661,2.052c-0.6812,1.007 -0.97,2.2886 -6.4819,3.382c-1.0877,0.2176 -1.1257,0.0922 -2.1622,0.0922c-1.0592,0 -1.0592,0 -2.4016,-0.1625c-0.6764,0.2936 -0.5215,0.0295 -1.2464,-0.1349c-2.9659,-0.6659 1.9304,0.2898 -2.8006,-0.7115c-1.2929,-0.2746 -1.2473,-0.5786 -2.5355,-1.6426c-1.1685,-0.9642 0.0779,-0.8816 -1.1457,-1.5c-2.0796,-1.0536 0.1102,-0.8512 -1.8772,-1.4402c-1.5913,-1.4231 -4.3197,-0.9918 -4.503,-2.5156c-0.0637,-0.5463 0.1909,-0.4465 0.2726,-0.9985c0.0751,-0.5111 0.1796,-0.531 0.3107,-0.7562c0.3904,-0.6716 1.3851,-3.2385 2.0501,-3.4542c0.0019,-0.5415 0,-1.9304 1.8686,-3.2205c1.0346,-0.7144 -0.9452,-0.987 0.3525,-2.5355c1.4687,-1.7537 2.2382,-2.3266 3.8693,-3.9587c0.9272,-0.93 2.3304,-1.5 3.2775,-2.4985c0.9595,-1.0108 1.8915,-1.4696 2.8614,-2.4833c0.684,-0.7163 1.3215,-1.4022 1.9675,-2.1194c0.3135,-0.3477 1.3718,-1.4526 2.1337,-2.053c0.2964,0.0646 -0.9415,-1.5295 0.5709,-3.2718c1.3091,-2.0558 0.8189,-2.7246 1.7347,-4.92c1.0849,-2.6002 1.5352,-5.6592 2.2012,-8.4199c0.6688,-2.7692 1.3471,-7.7596 1.5333,-11.6859c0.1282,-2.7598 0.6536,-5.1348 0.7343,-7.9354c0.0684,-2.4101 -0.1824,-3.6584 0.76,-5.9346c0.4703,-1.1343 0.2898,-3.8646 0.8474,-4.9676c0.6926,-1.3727 1.6863,-2.0149 1.6625,-3.1407c0.7933,0.2081 1.2863,0.8541 2.0007,1.2464c1.5229,0.837 2.1242,0.8094 3.3222,1.3794c1.5846,0.7553 3.229,0.9092 4.8497,1.3433c0.8512,0.229 5.4445,0.2793 6.3717,0.2138c3.7392,-0.266 4.6075,-1.027 7.6589,-2.1784" fill="#a17456" stroke="none" stroke-width="0.95"/><path d="M324.7002,182.9478c0.6242,0.1796 1.2008,0.608 1.7566,0.9643c0.2745,0.1757 0.5956,0.322 0.8588,0.5006c0.4398,0.2974 0.2926,0.4408 0.2622,0.9282c-0.0447,0.7058 0.0152,1.2502 -0.2546,1.9057c-0.2879,0.7011 -0.6213,1.4269 -0.9937,2.0786c-0.3287,0.5776 -0.7638,1.4345 -1.2512,1.9076c-0.5662,0.55 -0.8949,1.1124 -1.4126,1.7128c-0.2204,0.2556 -0.723,0.6327 -0.9272,0.8968c-0.3031,0.3943 -0.4674,0.419 -0.8664,0.6973c-0.2936,0.2052 -0.6783,0.4313 -0.9576,0.6536c-0.2356,0.1881 -0.4275,0.1074 -0.6745,0.2755c-0.3829,0.2603 -0.9662,0.6337 -1.3927,0.8085c-0.305,0.1244 -0.779,0.3059 -1.0887,0.4199c-0.6375,0.2346 -1.1951,0.3116 -1.8383,0.5187c-0.8797,0.2831 -1.7983,0.2394 -2.6913,0.3401c0.0389,-0.97 -0.7705,-1.7119 -0.7819,-2.641c0.5748,-0.2309 1.1847,-0.3211 1.7376,-0.6137c0.6659,-0.3544 1.4221,-0.5529 2.109,-0.8902c0.4759,-0.2337 1.006,-0.3923 1.4867,-0.6336c0.7344,-0.3686 1.35,-0.7895 2.014,-1.273c0.457,-0.3325 0.8892,-0.5824 1.2417,-1.0536c0.3059,-0.4085 0.6013,-0.7286 0.9614,-1.0896c0.7153,-0.7192 1.1048,-1.3642 1.5219,-2.2762c0.361,-0.7885 1.1029,-1.6008 1.1039,-2.4919c0.0009,-0.3562 -0.2204,-1.4867 0.075,-1.6824" fill="#4e3a78" stroke="none" stroke-width="0.95"/><path d="M354.839,257.9038c-0.0105,-0.0029 0.1881,0.0931 0.1909,0.0969c0.1644,0.1729 0.0409,0.6697 -0.0228,0.8863c-0.0731,0.2432 -0.2251,0.3116 -0.36,0.5225c-0.133,0.2062 -0.1672,0.4722 -0.2774,0.6907c-0.3183,0.626 -0.7714,1.2863 -1.1647,1.8591c-0.97,1.4174 -2.5327,2.4824 -4.0641,3.2262c-1.2645,0.6118 -1.8573,1.1153 -3.2148,1.54c-1.1885,0.3733 -2.1746,0.5852 -3.3839,0.8407c-1.3234,0.2774 -2.7683,0.4228 -4.0717,0.76c-0.6793,0.1739 -2.1907,0.3914 -2.8339,0.6669c-0.4294,0.1843 -0.5282,0.0314 -0.8141,0.4342c0.0076,0.037 -0.2176,0.1843 -0.209,0.227c-0.2964,0.3838 -0.7353,0.6707 -1.1733,0.8902c-0.3173,0.1596 -0.7894,0.6042 -1.0906,0.7847c-0.5339,0.3211 -1.272,0.5804 -1.8781,0.7419c-1.539,0.4123 -2.2316,-1.4905 -2.5318,-2.4386c-0.2441,-0.7667 -0.0247,-1.4412 0.02,-2.2031c0.0209,-0.3505 -0.1264,-0.8208 0.2669,-1.0326c0.2575,-0.1368 1.064,-0.6004 1.3604,-0.6204c0.9529,-0.0684 0.8531,-0.2973 1.8098,-0.5158c1.2397,-0.2822 2.4367,0.1966 3.7012,0.0674c1.0222,-0.1035 1.9883,-0.1738 2.9383,-0.5633c0.9073,-0.3743 1.7528,-0.6118 2.2724,-1.3623c0.2698,-0.3914 1.1904,-0.6536 1.4279,-1.0669c0.2147,-0.3762 0.7904,-0.4949 1.0127,-0.8341c0.2242,-0.342 0.5263,-0.4921 0.8626,-0.7818c0.3135,-0.2708 0.6925,-0.7344 0.9614,-1.0479c1.2663,-1.4848 1.747,-0.3211 4.5828,-0.6251c1.0165,-0.1092 2.052,-0.2869 3.0381,-0.5339c0.5035,-0.1292 1.0345,-0.189 1.5266,-0.3344c0.3781,-0.1121 0.8512,-0.3296 1.2502,-0.247" fill="#4e3a78" stroke="none" stroke-width="0.95"/><path d="M355.0328,258.3911c0.4921,0.7543 0.8977,0.7439 1.14,1.616c0.1102,0.3942 0.4275,1.3214 0.4085,1.7328c-0.0219,0.4455 -0.1036,0.7277 -0.2147,1.1495c-0.0922,0.3581 -0.2831,0.6669 -0.3401,1.0136c-0.0684,0.4161 -0.6023,0.9481 -0.8959,1.2417c-0.8483,0.8407 -2.0339,1.3385 -3.0846,1.8639c-1.2075,0.6051 -2.5441,0.7562 -3.8646,1.0146c-1.0583,0.208 -2.2506,0.4531 -3.287,0.7828c-2.3684,0.7524 -3.7981,1.9076 -5.9328,3.1207c-1.766,1.0051 -3.5102,2.0007 -5.4292,2.5717c-0.4389,0.1301 -0.8588,0.2014 -1.311,0.2964c-0.3145,0.0674 -0.7154,0.2964 -1.0422,0.2574c-0.5206,-0.0598 -0.5082,-1.0003 -0.7533,-1.4554c-0.3762,-0.6944 -1.2502,-1.1048 -0.3221,-1.4715c0.8712,-0.343 2.1955,-0.4076 2.9175,-1.3063c0.5747,-0.7144 0.9785,-0.9566 1.7983,-1.3955c0.7895,-0.4218 2.1565,-0.8664 3.0381,-1.0089c1.2911,-0.2071 2.6258,-0.3534 3.8912,-0.6622c0.5368,-0.133 1.0897,-0.2175 1.6283,-0.36c0.665,-0.1767 1.2303,-0.5254 1.8877,-0.6707c2.1156,-0.4665 4.1315,-1.4887 5.8567,-2.8196c1.026,-0.7914 1.8905,-1.5827 2.718,-2.489c0.4398,-0.4817 0.4161,-0.799 0.5814,-1.3728c0.1425,-0.5016 0.5757,-0.95 0.5139,-1.4991c0.076,-0.0361 0.5368,0.0903 0.6128,0.0703" fill="#bfb3d8" stroke="none" stroke-width="0.95"/><path d="M292.8439,259.6347c0.5567,0.9813 1.7385,1.4687 2.2866,1.8335c0.6954,0.4617 2.09,0.7685 2.8225,1.1884c0.9329,0.5377 2.0909,0.7914 3.0571,1.2578c0.2669,0.1311 0.2859,0.2005 0.3201,0.4931c0.0589,0.4873 -0.7609,0.9984 -1.0915,1.1837c-0.533,0.2973 -1.103,0.6479 -1.6825,0.8122c-0.8502,0.2432 -1.6995,0.4551 -2.5526,0.5624c-0.9719,0.1264 -1.7547,-0.0475 -2.7398,-0.1586c-0.7591,-0.0865 -1.692,-0.0067 -2.4273,-0.228c-1.272,-0.3829 -2.0852,-0.4171 -3.344,-0.7847c-0.8103,-0.2385 -1.7575,-0.7344 -2.5175,-1.1106c-0.7685,-0.3771 -2.2733,-1.2312 -2.9934,-1.6872c-1.7433,-1.1029 -2.7949,-2.2648 -4.3206,-3.647c-1.2996,-1.1771 -2.0064,-2.0026 -2.9089,-3.5036c-0.4399,-0.7315 -0.0475,-0.0057 -0.1786,-0.8569c-0.0694,-0.4541 0.3353,-0.5558 0.6175,-0.9168c0.2897,-0.3695 0.7391,-0.6783 1.2074,-0.835c0.7572,-0.2537 0.2157,-0.2869 0.8531,0c0.5035,0.2261 0.7999,0.1862 1.2787,0.4417c0.4807,0.2565 0.8066,0.6888 1.1856,1.0488c0.3734,0.3544 0.6945,0.6508 1.0089,1.0802c0.3069,0.4237 0.7904,0.9025 1.1134,1.31c0.4617,0.5824 1.0526,0.8816 1.768,1.1467c1.7603,0.6545 3.1929,0.6602 4.6113,0.9965c1.6482,0.3905 2.5241,-0.0902 4.2218,0.001" fill="#4e3a78" stroke="none" stroke-width="0.95"/><path d="M301.5269,264.5452c0.2118,0.1729 0.1168,0.8322 0.057,1.1096c-0.0931,0.4313 -0.2119,0.8693 -0.4133,1.2654c-0.3049,0.5966 -0.7229,1.2141 -1.12,1.7509c-0.6023,0.8132 -1.6122,0.8987 -2.5869,0.9785c-1.7166,0.1396 -3.7677,0.3448 -5.4786,0.1662c-1.7575,-0.1824 -4.0138,-0.4864 -5.7133,-0.9538c-1.6188,-0.4446 -2.5536,-0.9395 -3.9349,-1.8876c-0.5092,-0.3468 -0.7952,-0.6109 -1.0878,-1.1837c-0.2631,-0.5206 -1.14,-0.9738 -1.4516,-1.4896c-0.7343,-1.216 -1.3699,-1.6711 -2.451,-2.5622c-0.6583,-0.5453 -1.3794,-1.2891 -2.0026,-1.9256c-0.3363,-0.3468 -0.759,-0.8218 -1.1324,-1.1248c-0.3201,-0.2594 -0.2688,-0.2879 -0.5671,-0.5776c-0.8436,-0.8208 -0.7078,-0.3781 -0.7106,-1.4849c0,-0.4493 0.0665,-0.3325 0.2964,-0.722c0.2641,-0.4474 0.285,-1.3927 0.6213,-0.817c0.1852,0.3202 0.303,-0.7638 0.4208,-0.3971c0.1606,0.4931 0,0 0.3325,0.38c0.4123,0.4798 0.2052,1.1153 0.6204,1.5875c0.3771,0.4284 1.0516,1.3205 1.4525,1.7242c0.4684,0.4731 0.9557,0.932 1.3965,1.4184c0.4066,0.4455 1.1657,0.9205 1.5732,1.3803c1.806,2.0292 3.7316,2.6448 6.1199,3.8988c0.7486,0.3952 2.3665,0.969 3.2433,1.2075c1.1885,0.3239 2.4263,0.4265 3.6623,0.5614c1.9437,0.209 4.0793,0.2632 5.9204,-0.5253c0.4189,-0.1805 0.8322,-0.4598 1.2654,-0.6593c0.2812,-0.1292 0.5215,-0.2793 0.7923,-0.438c0.3733,-0.2194 0.6697,-0.1225 0.9471,-0.4769" fill="#bfb3d8" stroke="none" stroke-width="0.95"/><path d="M303.3547,162.215c-1.577,0.6764 -3.7639,0.6299 -5.4939,0.4608c-2.4776,-0.2423 -3.704,-0.6546 -5.5565,-3.3222c-1.045,-1.501 -1.7803,-2.4111 -1.2616,-4.8678c0.209,-1.0003 0.6422,-1.8981 0.7818,-2.8813c0.1672,-1.1847 -0.1263,-1.9836 1.0194,-2.7313c0.93,-0.6051 1.9674,-0.494 2.6666,-1.4639c0.5339,-0.742 0.4665,-1.7841 0.6888,-2.679c0.4959,-1.9855 1.1637,-3.6737 2.4253,-5.3561c1.2626,-1.6825 3.6072,-1.6692 4.0974,-5.6202c0.2631,-2.1052 0.8578,-3.2281 2.431,-4.9486c0.8332,-0.9091 0.9139,-1.4098 1.8088,-2.2534c0.8313,-0.7828 2.3855,-1.6948 3.3051,-2.222c0.4702,-0.2708 0.6555,-0.5026 1.1001,-0.8484c0.2109,-0.1624 1.0706,-1.2112 1.2711,-1.2055c0.6479,0.0228 1.0792,1.0801 1.9551,1.5903c1.4801,0.8607 3.7591,1.0773 5.0464,2.4956c0.7077,0.78 1.0478,1.2103 1.6273,1.9979c0.9339,1.2673 1.9561,1.3889 2.7351,1.5399c-0.3848,-0.3135 -0.2746,-0.7752 -0.3259,-1.329c1.9922,-0.1378 1.9922,3.3136 3.1455,2.8386c2.1755,0.6906 3.533,1.6824 4.0679,3.8199c0.551,2.1964 1.2454,4.3045 1.3556,6.5949c0.0988,2.0473 0.761,3.9558 1.2008,6.0154c0.3268,1.5267 3.2234,2.2933 5.0255,3.1369c2.1613,1.0118 4.0185,1.6616 5.2003,3.6889c0.5406,0.9281 0.6185,1.596 0.6831,2.7018c0.0731,1.2815 0.4636,1.8667 0.7505,3.02c0.5861,2.3712 -1.9152,3.173 -3.5036,4.5762c-1.8183,1.6083 -4.7386,2.0843 -6.2529,0.2128c-0.5757,-0.7135 -1.6084,-1.4583 -2.4092,-1.5789c-1.2436,-0.1872 -1.824,-0.9956 -2.5954,-1.5533c-1.4953,-1.082 -2.8823,-2.8614 -4.2095,-4.0403c-0.1776,3.4466 0.2176,6.783 0.2138,10.2125c-0.001,1.1143 -0.1188,2.8386 -0.0665,3.952c0.0646,1.386 0.9728,1.9959 1.6321,3.0609c1.2872,2.0805 -0.2299,3.5387 -2.4111,4.2826c-5.0246,1.7147 -10.4377,2.4358 -15.2048,0.7448c-2.28,-0.8104 -3.5777,-1.0916 -5.6259,-2.356c-0.6184,-0.38 -2.1109,-1.0764 -2.4595,-1.7034c-0.5178,-0.93 0.2612,-1.9095 0.7239,-2.7208c1.1922,-2.0843 -1.6179,-2.8652 -0.6774,-5.0587c0.4228,-0.9833 0.6489,-1.9409 0.7629,-3.1825c0.1178,-1.3215 -0.5007,-1.7651 0.3325,-3.0201" fill="#4e3a78" stroke="none" stroke-width="0.95"/><path d="M345.2079,161.5358c0.0019,0.3201 0.5149,0.5491 0.7742,0.6906c0.3572,0.1957 0.7486,0.6232 1.065,0.894c0.7666,0.6545 1.6957,1.1875 2.4491,1.88c0.8065,0.741 1.519,1.5466 2.4168,2.2116c0.646,0.4779 1.1438,0.7572 1.9057,0.9244c2.0102,0.437 4.0099,0.893 6.0372,1.3119c0.5178,0.1064 1.027,0.1387 1.5495,0.2138c0.2479,0.0361 0.8198,0.0589 1.0241,0.1881c0.0731,0.0456 0.1206,0.1558 0.1738,0.2289c0.1843,0.2613 0.324,0.4864 0.5833,0.704c0.342,0.2869 0.7201,0.5225 1.0488,0.816c0.6574,0.5881 1.406,1.0821 2.0957,1.6426c0.3363,0.2736 0.7078,0.5263 1.0146,0.8322c0.1216,0.1216 0.571,0.4199 0.5862,0.6004c0.0541,0.6137 -1.6321,0.4769 -1.9399,0.379c-0.6384,-0.1985 -1.5096,-0.5586 -2.014,-0.9804c-0.7505,-0.6289 -1.3243,-1.1362 -2.376,-1.0887c-0.8559,0.039 -1.8012,0.2461 -2.6609,0.1055c0.4645,0.246 0.9994,0.3553 1.4734,0.5833c0.3819,0.1843 0.7287,0.4075 1.1153,0.5728c0.4817,0.2052 1.6407,0.7543 1.1961,1.445c-0.2575,0.398 -0.6812,0.1178 -0.989,-0.0428c-0.3952,-0.2052 -0.8578,-0.341 -1.2863,-0.4607c-0.9766,-0.2746 -2.052,-0.1891 -3.0675,-0.1891c-1.6179,0 -2.9716,0.0893 -4.4375,-0.5738c-0.778,-0.3505 -1.273,-0.9006 -1.5029,-1.7366c-0.1824,-0.6593 -0.6146,-1.139 -1.1229,-1.5827c-1.4041,-1.2264 -3.2832,-2.0491 -4.882,-3.0675c-0.9757,-0.6223 -2.053,-1.2265 -3.135,-1.6426c-0.2119,-0.0826 -1.6378,-0.4151 -1.6426,-0.6583c-0.0047,-0.2537 1.0184,-0.7068 1.2151,-0.8674c0.4332,-0.3543 0.8521,-0.7334 1.2863,-1.0887c0.4427,-0.3619 0.8084,-0.7125 1.1561,-1.178c0.2157,-0.2916 0.6099,-1.0136 1.0222,-0.931" fill="#a16235" stroke="none" stroke-width="0.95"/><path d="M292.4867,159.6804c0.5073,1.3528 1.8563,1.8487 3.1283,2.3864c0.6926,0.2936 1.3975,0.5605 2.1489,0.6375c1.0365,0.1054 2.0805,-0.095 3.1094,-0.0428c0.0883,0.4817 -0.4313,0.7733 -0.5681,1.1951c-0.1169,0.3582 -0.7011,1.1571 -0.8113,1.5238c-0.2575,0.8645 -0.4484,1.3443 -0.7391,2.2249c-1.0241,3.079 -1.8193,4.4831 -2.7275,6.7916c-0.6992,1.7774 -1.7204,3.6052 -1.8116,5.528c-0.039,0.7999 -0.2271,1.5827 -0.0969,2.3978c0.1387,0.8731 0.4835,1.7452 0.5282,2.6372c0.0836,1.6568 -0.1539,3.4419 -1.0526,4.846c-0.5016,0.7866 -0.6508,1.463 -0.9244,2.337c-0.151,0.4807 -0.2413,0.8654 -0.266,1.3566c-0.019,0.4075 -0.0817,0.7723 -0.589,0.5177c-0.1681,-0.0836 -0.5928,-0.4968 -0.703,-0.6593c-0.2346,-0.3382 -0.1558,-0.8103 -0.1558,-1.2008c0,-0.8692 0.4323,-1.595 0.4798,-2.4462c0.019,-0.3449 0.0551,-0.9272 -0.3354,-0.9985c-0.4056,-0.0731 -0.9329,0.457 -1.1542,0.6992c-0.7087,0.779 -1.5818,1.3481 -2.2895,2.1318c-0.7277,0.8056 -1.4697,1.6274 -2.1575,2.4491c-0.323,0.3857 -0.7571,0.6242 -1.2606,0.7163c-0.1834,0.0342 -0.4313,0.077 -0.6242,0.0276c-0.0921,-0.0238 -0.209,-0.1663 -0.2907,-0.172c-0.1149,-0.0076 -0.1605,0.0466 -0.2745,0.0523c-0.9225,0.0361 -1.2122,-0.1938 -1.0289,-1.1286c0.0798,-0.4019 0.2575,-0.7515 0.3582,-1.1391c0.1073,-0.4113 -0.0931,-0.683 -0.1558,-1.1039c-0.1169,-0.7856 0.2593,-1.3927 0.4294,-2.1137c0.1976,-0.8398 0.3629,-1.6445 0.7704,-2.4463c0.4104,-0.8027 0.7401,-1.5979 1.2122,-2.3949c0.4779,-0.8075 1.1353,-1.4982 1.8098,-2.1584c0.7068,-0.6916 1.6425,-1.3224 2.0976,-2.2059c0.4588,-0.8949 0.4408,-1.9428 0.493,-2.9232c0.0352,-0.6659 0.2328,-1.3091 0.3458,-1.9684c0.095,-0.5519 0.0589,-1.082 0.0855,-1.6425c0.0523,-1.1904 0.2223,-2.3959 0.3354,-3.5853c0.1083,-1.1524 0.0019,-2.3627 0.2441,-3.4922c0.171,-0.8009 0.4114,-1.6093 0.5282,-2.4092c0.096,-0.665 0.1026,-1.5115 0.4646,-2.1138c0.2612,-0.4389 0.7562,-0.7913 1.0792,-1.1989c0.1615,-0.2042 0.5187,-0.5177 0.5168,-0.7657" fill="#a16235" stroke="none" stroke-width="0.95"/><path d="M317.9961,104.836c-1.5276,-1.2664 -2.4824,0.5044 -2.8909,1.5418c-0.3249,0.8256 -0.2413,1.7357 0.0067,2.565c0.2859,0.9529 1.0032,1.7404 1.71,2.4035c0.2945,0.2736 0.6118,0.5111 0.9481,0.7249c1.0982,0.6935 1.6872,-0.1625 2.0795,-0.9804c0.0561,-0.1178 0.4247,0.0066 0.3781,0.1007c-1.3395,2.7911 -4.2759,0.2546 -5.1955,-1.6217c-0.8151,-1.6653 -0.627,-3.4817 0.645,-4.8706c0.7847,-0.8569 1.843,-0.5472 2.6163,0.094c0.1644,0.1349 -0.2147,0.1112 -0.2973,0.0428zM319.7612,111.1924c0.4816,-1.0089 -1.4307,-0.6393 -1.9903,-0.7058c-0.8132,-0.095 -1.5162,-0.6451 -1.7746,-1.4184c-0.038,-0.1111 0.3382,-0.0589 0.3772,0.0561c0.4959,1.4839 1.8886,1.0469 3.0637,1.196c0.57,0.0722 0.9842,0.3857 0.703,0.9747c-0.0551,0.1159 -0.4237,-0.0076 -0.379,-0.1026zM315.5603,106.6847c0.1111,-0.8617 1.0469,-1.0241 1.7679,-0.8227c1.2911,0.3629 1.6948,1.71 2.527,2.6315c0.0988,0.1111 -0.2764,0.076 -0.3496,-0.0057c-0.5576,-0.6156 -0.9272,-1.3661 -1.462,-1.9988c-0.571,-0.6736 -1.9665,-0.7629 -2.1043,0.2973c-0.0152,0.1093 -0.3961,0.0257 -0.379,-0.1016zM334.3285,96.0551c1.215,1.8183 1.9988,3.7962 1.6777,6.004c-0.2974,2.0311 -1.7604,4.5078 -0.2974,6.4353c0.095,0.1245 -0.284,0.0827 -0.3496,-0.0057c-1.0165,-1.3423 -0.6232,-3.1787 -0.1995,-4.6588c0.4057,-1.4145 0.7211,-2.7388 0.437,-4.2161c-0.246,-1.2863 -0.8977,-2.4899 -1.6159,-3.5663c-0.0912,-0.1311 0.2869,-0.0836 0.3477,0.0076zM335.6727,108.4507c0.5168,1.1942 2.2591,1.9836 2.2838,3.3317c0.0105,0.5348 -0.5738,0.8892 -0.9794,1.0877c-0.2128,0.1045 -0.5054,0.1235 -0.7334,0.1511c-0.8522,0.1045 -0.5719,1.1428 -0.5292,1.6406c0.0124,0.1349 -0.3676,0.057 -0.3762,-0.056c-0.0399,-0.475 -0.1197,-0.9519 0.02,-1.4146c0.1349,-0.4417 1.0545,-0.4151 1.3157,-0.4911c2.3978,-0.7059 -0.9148,-3.2348 -1.3775,-4.3045c-0.0446,-0.0997 0.3268,-0.0579 0.3762,0.0551zM335.6347,112.5376c-0.5804,0.1615 -1.1485,0.5121 -1.7651,0.2917c-0.5909,-0.2119 -0.7704,-0.7249 -0.3762,-1.2303c0.0713,-0.0912 0.4361,0.0371 0.3544,0.1416c-0.3316,0.4246 -0.228,1.0383 0.4427,0.9585c0.3591,-0.0437 0.6935,-0.2356 1.0393,-0.3325c0.1045,-0.0285 0.4446,0.1321 0.3049,0.171zM332.2717,115.7182c0.7401,-0.8949 2.0824,-1.1257 3.1787,-1.1808c0.1292,-0.0067 0.4095,0.1786 0.1539,0.1919c-1.0374,0.0532 -2.2828,0.2888 -2.9782,1.1305c-0.0751,0.0893 -0.438,-0.0399 -0.3544,-0.1416zM335.7155,114.6609c1.595,2.8823 -3.6119,2.4985 -4.9296,1.3756c-0.1605,-0.1378 0.2166,-0.114 0.2983,-0.0447c1.2293,1.0469 5.6858,1.2018 4.2551,-1.387c-0.0494,-0.0855 0.3163,-0.0522 0.3762,0.0561zM334.9773,116.6473c1.1001,2.0226 -1.8031,2.3304 -3.0713,1.6283c-0.2233,-0.1235 0.1187,-0.151 0.2289,-0.0902c0.5947,0.3287 1.4032,0.3325 2.034,0.1111c0.8189,-0.2859 0.7904,-1.0469 0.4313,-1.7052c-0.0475,-0.0865 0.3182,-0.0532 0.3771,0.056zM333.5998,118.6461c-0.9196,0.3677 -0.8141,1.8069 -0.9899,2.6173c-0.1567,0.7277 -0.8075,1.1504 -1.4763,1.3395c-1.4326,0.4047 -3.1407,-0.3458 -4.4536,-0.8379c-4.047,-1.5143 -8.4673,-4.6759 -8.6041,-9.4658c-0.0029,-0.096 0.3752,-0.0333 0.3771,0.1007c0.1321,4.5372 4.294,7.7083 8.1567,9.1561c1.5761,0.5899 3.9482,1.6938 5.3219,0.2118c0.8256,-0.8911 0.0409,-2.7635 1.3623,-3.2917c0.1017,-0.0409 0.4494,0.1121 0.3059,0.17zM317.4023,112.0427c0.0504,2.0738 -0.6327,4.3643 -1.216,6.346c-0.5833,1.9798 -1.5228,3.8855 -3.1853,5.1661c-0.0988,0.076 -0.4446,-0.0732 -0.3553,-0.1406c1.6691,-1.2854 2.5431,-3.1597 3.1587,-5.1262c0.6137,-1.9523 1.2664,-4.295 1.216,-6.346c0,-0.0969 0.3781,-0.0342 0.3819,0.1007zM323.6096,129.3564c-0.2574,-1.5304 -0.4322,-3.0238 -0.2147,-4.5695c0.2176,-1.5304 1.1267,-2.3921 1.9247,-3.6185c0.0589,-0.0931 0.4294,0.0256 0.3544,0.1415c-0.7942,1.2179 -1.597,2.1043 -1.9,3.5787c-0.305,1.481 -0.0361,3.0523 0.2118,4.522c0.0228,0.1282 -0.3572,0.0608 -0.3762,-0.0542zM327.4828,104.2318c0.968,-0.5919 1.8914,-1.2056 3.0029,-1.4877c1.1429,-0.2926 2.4472,0.1377 3.5996,0.1102c0.1282,-0.0029 0.4104,0.1862 0.1539,0.1928c-0.9101,0.0219 -1.7936,-0.1273 -2.7009,-0.1862c-1.3756,-0.0893 -2.5992,0.8379 -3.7012,1.5124c-0.1064,0.0646 -0.4398,-0.0893 -0.3543,-0.1415z" fill="#010101" stroke="none" stroke-width="0.95"/><path d="M325.5695,88.1739c-2.0919,-1.5561 -4.4783,-1.8278 -7.0015,-1.8487c-0.0741,0 -0.4294,-0.1482 -0.248,-0.1463c2.7417,0.0228 5.3352,0.3506 7.5915,2.0292c0.075,0.0561 -0.2717,0.019 -0.342,-0.0342zM317.1838,104.1862c-0.9253,-2.5346 -1.7679,-5.9356 -0.8189,-8.5719c1.1248,-3.1312 4.6275,-5.4178 7.3036,-7.0699c0.0893,-0.056 0.4,0.0998 0.3582,0.1264c-2.7968,1.7261 -5.9565,3.9111 -7.2846,7.0461c-1.0659,2.5166 -0.0675,6.119 0.816,8.5396c0.0219,0.0598 -0.3391,0.0218 -0.3743,-0.0703zM315.2734,104.9718c-2.4947,-2.9649 -4.6028,-6.6851 -3.7155,-10.678c0.684,-3.0846 3.7174,-6.9692 6.7089,-8.1054c0.1017,-0.0389 0.3829,0.1159 0.3591,0.1264c-3.1274,1.1884 -5.8263,4.9466 -6.687,8.0816c-1.064,3.8694 1.3195,7.8052 3.7078,10.6457c0.0171,0.019 -0.3021,0.0152 -0.3733,-0.0703z" fill="#010101" stroke="none" stroke-width="0.95"/><path d="M334.0881,96.0513c-1.3499,-1.8439 -4.5277,-1.6777 -6.555,-1.5608c-2.3997,0.1406 -4.6692,0.7885 -6.3374,2.621c-1.9675,2.1613 -0.6071,4.2931 0.3296,6.5294c0.931,2.2268 0.8854,4.4251 -0.9291,6.156c-0.0997,0.0969 -0.4588,-0.0504 -0.3515,-0.152c2.8947,-2.7617 0.8132,-5.7076 -0.3163,-8.7125c-0.9158,-2.4291 1.1238,-4.578 3.0827,-5.642c1.9333,-1.0488 4.4042,-1.1277 6.5503,-1.0498c1.6796,0.0608 3.8123,0.3363 4.883,1.7974c0.1045,0.1454 -0.2793,0.1169 -0.3563,0.0133zM318.2649,104.7533c1.6986,1.1714 2.7512,2.7987 2.5147,4.9163c-0.0143,0.1368 -0.3962,0.0503 -0.3781,-0.0998c0.2204,-2.0083 -0.7562,-3.5758 -2.375,-4.6939c-0.2119,-0.1454 0.1121,-0.209 0.2384,-0.1226zM323.5688,90.4207c2.2648,-0.9624 5.035,-0.7619 7.2827,0.1434c0.987,0.399 2.1128,1.0745 2.7512,1.9523c0.8749,1.2027 0.5557,2.1907 0.8512,3.5501c0.0323,0.1511 -0.3506,0.0912 -0.38,-0.0446c-0.1587,-0.7306 -0.0257,-1.464 -0.1606,-2.1964c-0.2318,-1.2721 -1.4554,-2.1176 -2.4776,-2.7275c-2.1318,-1.2692 -5.2896,-1.4544 -7.5686,-0.4873c-0.1178,0.0494 -0.4627,-0.1207 -0.2983,-0.19zM323.697,88.5112c2.337,-0.9814 5.4502,-0.3781 7.6437,0.7258c1.0526,0.531 1.9342,1.3214 2.6125,2.279c0.9833,1.3899 0.381,3.1911 0.5168,4.7472c0.0143,0.1624 -0.3676,0.0902 -0.38,-0.0447c-0.0921,-1.0573 0.0988,-2.1014 0.039,-3.1597c-0.0798,-1.4259 -1.2331,-2.527 -2.3304,-3.2908c-2.013,-1.4003 -5.5014,-2.0358 -7.8014,-1.0687c-0.1197,0.0513 -0.4645,-0.1188 -0.3002,-0.1881zM300.7175,98.4368c-1.3747,1.1029 -2.1442,-0.8132 -2.0957,-2.0188c0.132,-3.343 2.7949,-5.5404 5.4824,-7.1174c2.3057,-1.3528 4.9391,-2.2581 7.544,-2.8319c1.3338,-0.2936 2.7379,-0.4978 4.104,-0.5016c0.7571,-0.0029 1.7803,-0.1016 2.4871,0.2232c0.2394,0.1102 0.0199,0.248 -0.153,0.1682c-0.6764,-0.3116 -1.69,-0.1691 -2.4206,-0.1672c-1.1704,0.0038 -2.355,0.2137 -3.5017,0.4322c-1.7404,0.3344 -3.4561,0.9082 -5.0929,1.5685c-2.3114,0.931 -4.4935,2.2401 -6.2273,4.0422c-0.8417,0.874 -1.4098,1.9029 -1.7119,3.0761c-0.0978,0.3886 -0.2479,4.162 1.2322,2.9754c0.1121,-0.0883 0.4645,0.0618 0.3534,0.1511zM316.9093,111.3957c0.4161,1.0697 0.6137,1.7689 0.3657,2.9023c-0.2118,0.9614 -0.6099,1.9228 -1.0117,2.8167c-0.6033,1.3329 -1.6255,2.7674 -3.0904,3.2224c-0.9329,0.2898 -1.9874,0.4019 -2.5612,-0.5358c-0.9044,-1.4763 0.5814,-3.3402 1.5295,-4.3196c0.096,-0.0998 0.4551,0.0418 0.3515,0.151c-0.9614,0.9909 -1.7119,1.9988 -1.6938,3.4314c0.0294,2.5688 3.2205,0.5729 3.9966,-0.2973c0.7638,-0.8579 1.2227,-1.976 1.6131,-3.0429c0.5843,-1.6026 0.7496,-2.7531 0.1226,-4.3719c-0.0523,-0.132 0.3277,-0.0855 0.3781,0.0437zM312.5355,115.6289c-0.9301,1.2312 -3.3193,4.77 -5.0369,2.4463c-1.5618,-2.1128 1.1732,-5.1253 2.83,-6.2786c0.1064,-0.0741 0.456,0.0808 0.2993,0.1891c-1.4649,1.0222 -2.8681,2.7246 -3.1863,4.5106c-0.1188,0.6583 0.1159,1.2578 0.5738,1.7299c0.8597,0.893 1.8943,-0.0693 2.4586,-0.6127c0.6564,-0.6327 1.1628,-1.4127 1.709,-2.1375c0.0836,-0.1074 0.4484,0.0256 0.3525,0.1529zM306.7053,100.6845c-1.2863,0.7533 -2.5213,1.6254 -3.6527,2.5963c-0.6698,0.5767 -1.2398,1.5419 -2.1233,1.8212c-1.5931,0.5025 -2.6704,-0.2071 -2.6144,-1.8924c0.0884,-2.7797 2.0121,-4.9904 3.8475,-6.8562c1.7528,-1.7841 3.838,-3.191 6.3498,-3.6366c0.1264,-0.0209 0.4503,0.1767 0.2309,0.2157c-3.933,0.6963 -7.5601,4.0489 -9.2853,7.5563c-0.4351,0.8863 -0.666,1.8458 -0.7629,2.8234c-0.0902,0.95 0.1625,1.9085 1.6796,1.6815c0.6337,-0.096 1.1125,-0.6308 1.5276,-1.0669c1.2987,-1.3604 2.8823,-2.4823 4.503,-3.4295c0.1131,-0.0684 0.4608,0.0931 0.3002,0.1872zM307.3342,108.6882c-0.7476,0.8227 -1.5342,1.4336 -2.1954,2.3655c-0.7391,1.0479 -1.444,2.1584 -2.5147,2.8985c-1.3803,0.9557 -2.6799,-0.4541 -2.7892,-1.7642c-0.1577,-1.9313 0.8683,-4.0251 1.6711,-5.7218c1.0288,-2.1755 2.5355,-4.5334 4.6901,-5.7238c0.114,-0.0636 0.4608,0.0988 0.2983,0.19c-3.1302,1.73 -5.0445,5.8606 -5.9821,9.1865c-0.2166,0.7638 -0.342,1.558 -0.2774,2.3522c0.0285,0.3496 0.1529,0.6774 0.3363,0.9738c0.741,1.2074 2.1128,0.113 2.7322,-0.5662c0.7429,-0.818 1.3214,-1.7651 1.9741,-2.6553c0.4911,-0.665 1.1571,-1.083 1.7071,-1.6853c0.0931,-0.1054 0.4551,0.0361 0.3496,0.1501zM309.6779,112.7789c-1.4431,0.5197 -2.0919,1.9162 -2.7873,3.173c-0.4551,0.8237 -1.2008,2.2116 -2.2715,2.3513c-2.9032,0.3752 -2.0596,-3.7829 -1.3243,-5.2849c0.0675,-0.1368 0.4389,-0.0171 0.38,0.1017c-0.5377,1.0925 -0.8293,2.317 -0.7391,3.5387c0.0865,1.1419 1.3063,1.6986 2.2344,1.0013c0.3677,-0.2774 0.6403,-0.683 0.893,-1.0592c0.9785,-1.4516 1.5153,-3.3621 3.3108,-4.0119c0.1235,-0.0437 0.4664,0.1311 0.304,0.19zM325.1686,93.5699c3.1568,-0.5282 6.6167,-0.361 9.0706,1.9285c0.1643,0.153 -0.21,0.1596 -0.3059,0.0703c-2.3152,-2.1584 -5.5661,-2.28 -8.5339,-1.7841c-0.1273,0.0209 -0.4493,-0.1776 -0.2308,-0.2147zM308.9806,104.1358c1.1238,-1.4326 2.5887,-1.9731 4.369,-2.128c0.1511,-0.0142 0.4019,0.2024 0.1444,0.2242c-1.709,0.1482 -3.0884,0.6869 -4.161,2.0539c-0.0855,0.1093 -0.4512,-0.0247 -0.3524,-0.1501zM309.7054,92.2836c0.8683,-0.6821 1.9304,-0.6659 2.9412,-0.3192c0.2185,0.076 0.172,0.2793 -0.056,0.2014c-0.8769,-0.3002 -1.7765,-0.3249 -2.5337,0.2698c-0.1092,0.0855 -0.4607,-0.0646 -0.3515,-0.152zM308.2149,99.4267c0.6773,-1.3614 1.918,-2.1774 3.4513,-1.8725c0.2347,0.0485 0.1748,0.2489 -0.0551,0.2033c-1.3604,-0.2717 -2.4415,0.6128 -3.0191,1.7689c-0.0655,0.1378 -0.436,0.0181 -0.3771,-0.0997zM315.6591,110.1607c-0.1834,1.1182 -0.5985,2.2914 -1.6682,2.8377c-0.1159,0.0589 -0.4636,-0.1064 -0.3002,-0.1891c1.0317,-0.5272 1.4126,-1.6786 1.5893,-2.7512c0.0219,-0.1368 0.4019,-0.0456 0.3791,0.1026z" fill="#000000" stroke="none" stroke-width="0.95"/><path d="M312.279,194.915c2.9858,-1.0232 5.9574,-2.0682 8.2697,-4.3073c2.0017,-1.938 4.0955,-4.7054 4.0147,-7.6257c-0.0019,-0.0693 0.3753,-0.0171 0.3781,0.1007c0.0827,2.965 -2.051,5.6592 -4.0356,7.6589c-2.2648,2.28 -5.3504,3.3108 -8.3163,4.3282c-0.0893,0.0314 -0.4313,-0.113 -0.3106,-0.1548zM327.954,184.9181c0.0978,3.1635 -2.3798,6.384 -4.4916,8.5301c-2.6638,2.7065 -6.4657,3.952 -10.1631,4.2873c-0.0865,0.0095 -0.438,-0.1444 -0.2442,-0.1634c3.7221,-0.3353 7.3331,-1.615 10.0501,-4.255c2.1223,-2.0653 4.5657,-5.3903 4.4688,-8.4978c-0.0019,-0.0703 0.3762,-0.0171 0.38,0.0988zM324.9862,182.9782c0.9728,0.7021 2.1973,1.0593 3.0371,1.9437c0.0865,0.0903 -0.2793,0.0466 -0.3448,-0.0228c-0.8208,-0.8645 -2.0311,-1.2131 -2.9859,-1.9009c-0.1596,-0.115 0.2223,-0.0703 0.2936,-0.02zM312.6666,195.0679c0.3971,0.7667 0.816,1.6663 0.7419,2.5508c-0.0057,0.0807 -0.3876,0.0095 -0.379,-0.0998c0.0722,-0.8683 -0.3468,-1.7613 -0.7363,-2.5137c-0.0361,-0.0655 0.3211,-0.037 0.3734,0.0627z" fill="#000000" stroke="none" stroke-width="0.95"/><path d="M334.2686,104.6412c-0.6678,0.5909 -1.4126,0.7439 -2.2581,0.9548c-0.1349,0.0323 -2.9735,0.5643 -2.5042,1.0203c0.0779,0.076 -0.2803,0.0313 -0.343,-0.0295c-0.4788,-0.4664 0.5938,-0.6821 0.9111,-0.7733c1.2929,-0.3724 2.7844,-0.3695 3.8361,-1.2996c0.075,-0.0655 0.4132,0.0798 0.3581,0.1273zM333.9551,107.609c-1.3765,0.7999 -3.4741,-0.3733 -4.6768,-1.0402c-0.1606,-0.0893 0.2223,-0.0456 0.2897,-0.0076c1.0688,0.5928 2.8443,1.6083 4.028,0.9196c0.0941,-0.0532 0.4047,0.1035 0.3591,0.1282zM333.1999,107.7933c-1.2464,0.0361 -1.7737,-1.4763 -1.1277,-2.4348c0.0618,-0.0931 0.4085,0.0589 0.38,0.1007c-0.1966,0.2907 -0.2574,0.6327 -0.2574,0.9794c-0.0019,0.4285 0.19,1.2198 0.7581,1.2027c0.0779,-0.0009 0.4332,0.1473 0.247,0.152zM333.5447,105.177c0.647,0.8246 0.7306,2.0473 -0.2907,2.6049c-0.0969,0.0513 -0.4018,-0.1054 -0.3581,-0.1282c1.0051,-0.5472 0.9053,-1.7385 0.2726,-2.5451c-0.0209,-0.0275 0.3069,-0.019 0.3762,0.0684zM330.5988,105.9551c-0.495,-0.0181 -0.9263,-0.2033 -1.3471,-0.4513c-0.0618,-0.037 -0.0494,-0.0779 0.0209,-0.0798c0.0902,-0.0028 0.19,0.0257 0.2679,0.0713c0.2517,0.1472 0.512,0.2954 0.8113,0.3068c0.0912,0.0029 0.1881,0.0209 0.2679,0.0713c0.0589,0.0361 0.0541,0.0836 -0.0209,0.0817zM331.3749,105.7964c-0.4788,0.0751 -1.0649,-0.1833 -1.4763,-0.4075c-0.0655,-0.0361 -0.0475,-0.0779 0.0209,-0.0798c0.0922,-0.0029 0.1872,0.0275 0.2679,0.0712c0.229,0.1245 0.6061,0.3116 0.874,0.2698c0.0874,-0.0133 0.1853,0.0124 0.2651,0.0494c0.0266,0.0133 0.1358,0.0827 0.0484,0.0969zM330.4895,107.1122c-0.7932,0.0684 -1.6672,-0.3724 -2.1498,-0.989c-0.0276,-0.0342 0.0522,-0.0408 0.0636,-0.0418c0.4228,-0.0342 0.8465,-0.094 1.2711,-0.1292c0.0789,-0.0076 0.4351,0.1359 0.247,0.1511c-0.4246,0.0361 -0.8464,0.0959 -1.2711,0.1301c0.02,-0.0152 0.0428,-0.0275 0.0637,-0.0418c0.3496,0.4475 0.9452,0.8189 1.5276,0.7695c0.0798,-0.0066 0.436,0.134 0.2479,0.1511zM329.2992,106.5213c0.2109,0.1985 0.456,0.3819 0.7429,0.4721c-0.0257,0.0333 -0.0532,0.0646 -0.0798,0.0979c-0.0969,-0.0371 -0.1919,-0.0722 -0.2879,-0.1093c0.0703,-0.0152 0.1397,-0.0285 0.21,-0.0456c0.0807,0.0437 0.1605,0.0884 0.2403,0.1311c-0.0969,0.0029 -0.1938,0.0057 -0.2897,0.0086c-0.058,-0.0266 -0.1131,-0.0551 -0.1701,-0.0808c-0.1938,-0.0836 0.0342,-0.1016 0.1254,-0.0798c0.0941,0.0228 0.1758,0.0494 0.267,0.0817c-0.0589,0.02 -0.1159,0.0428 -0.1748,0.0627c-0.0352,-0.0123 -0.0713,-0.0218 -0.1074,-0.0332c0.0095,-0.0371 0.02,-0.0732 0.0295,-0.1093c0.0959,0.0323 0.1909,0.0618 0.2859,0.0941c-0.0579,0.0209 -0.1159,0.0427 -0.1738,0.0636c-0.0608,-0.0266 -0.1197,-0.0551 -0.1786,-0.0807c0.0712,-0.0162 0.1406,-0.0295 0.2109,-0.0447c0.0437,0.0323 0.0902,0.0627 0.1387,0.0884c0.1634,0.094 -0.2005,0.0503 -0.2537,0.0266c-0.1206,-0.0551 -0.1805,-0.0931 -0.2878,-0.1701c-0.095,-0.0684 0.2384,-0.0285 0.2812,-0.0085c0.1197,0.0608 0.2337,0.1178 0.3439,0.1928c0.1567,0.1064 -0.1986,0.0561 -0.2537,0.0266c-0.1159,-0.0598 -0.228,-0.1273 -0.3429,-0.1862c-0.2071,-0.1111 0.0864,-0.0988 0.1757,-0.0646c0.1843,0.0732 0.3715,0.1416 0.552,0.2252c-0.0732,0.0161 -0.1454,0.0313 -0.2176,0.0465c-0.2479,-0.1235 -0.5063,-0.19 -0.6973,-0.4009c-0.0874,-0.0959 0.2698,-0.0199 0.3164,0.0114c0.3325,0.2242 0.6992,0.381 1.0469,0.5776c0.1482,0.0836 -0.114,0.0732 -0.1606,0.0589c-0.6716,-0.1824 -1.3034,-0.513 -1.8477,-0.9443c0.1149,0.0095 0.2289,0.019 0.3429,0.0295c0.2641,0.2574 0.5995,0.3676 0.9301,0.5101c-0.0732,0.0171 -0.1454,0.0304 -0.2176,0.0466c-0.3125,-0.1435 -0.6146,-0.2888 -0.8873,-0.5007c-0.0902,-0.0712 0.2641,-0.0199 0.3173,0.0114c0.2176,0.1292 0.4494,0.2309 0.6669,0.361c0.1634,0.0979 -0.2014,0.0485 -0.2546,0.0266c-0.3106,-0.1377 -0.6156,-0.2764 -0.8854,-0.4864c-0.094,-0.0722 0.2679,-0.0142 0.3164,0.0124c0.2242,0.1197 0.4455,0.227 0.646,0.3819c0.0893,0.0674 -0.2603,0.0228 -0.3164,-0.0124c-0.246,-0.1539 -0.5082,-0.2802 -0.7552,-0.4351c0.0969,-0.0028 0.1938,-0.0057 0.2907,-0.0085c0.1254,0.0769 0.2574,0.1387 0.3961,0.19c-0.0703,0.0152 -0.1396,0.0285 -0.2099,0.0446c-0.171,-0.1035 -0.3382,-0.1871 -0.4769,-0.3315c-0.096,-0.0979 0.2498,-0.02 0.2802,-0.0076c0.1245,0.0522 0.229,0.1168 0.3363,0.1985c0.0922,0.0684 -0.2622,0.019 -0.3163,-0.0114c-0.1197,-0.0693 -0.228,-0.1406 -0.3363,-0.2261c-0.0865,-0.0646 0.2574,-0.0275 0.3163,0.0133c0.0637,0.0437 0.095,0.0656 0.1492,0.1245c0.0902,0.0959 -0.2727,0.0152 -0.3164,-0.0124c-0.0788,-0.0437 -0.1529,-0.0921 -0.2242,-0.1453c0.1045,0.0038 0.2109,0.0076 0.3164,0.0114c0.0598,0.0693 0.1263,0.1377 0.1957,0.1985c0.0921,0.0874 -0.2708,0.0162 -0.3164,-0.0114c-0.0845,-0.0484 -0.17,-0.0959 -0.2565,-0.1396c-0.208,-0.1083 0.0865,-0.0979 0.1748,-0.0627c0.1397,0.056 0.2822,0.1083 0.4218,0.1653c-0.0589,0.0199 -0.1149,0.0427 -0.1738,0.0627c-0.1387,-0.0656 -0.2347,-0.1254 -0.323,-0.2527c-0.039,-0.0542 0.1387,-0.0361 0.151,-0.0333c0.1349,0.0285 0.2537,0.0599 0.3848,0.1036c0.1035,0.0332 0.1833,0.132 0.018,0.1149c-0.1558,-0.0171 -0.2983,-0.0456 -0.4474,-0.094c-0.1055,-0.0314 -0.1834,-0.133 -0.019,-0.115c0.0969,0.0114 0.1919,0.02 0.2897,0.0219c0.0684,0.0503 0.1387,0.0997 0.2071,0.1501c-0.1396,-0.0095 -0.2736,-0.0247 -0.4123,-0.0447c-0.0285,-0.0028 -0.3154,-0.1187 -0.1919,-0.1396c0.1777,-0.0314 0.3382,-0.0618 0.5083,-0.1311c0.1121,0.0465 0.2242,0.0921 0.3363,0.1377c-0.1663,0.02 -0.324,0.058 -0.4864,0.1017c-0.0931,-0.0494 -0.1853,-0.0988 -0.2793,-0.1482c0.2232,-0.0219 0.4455,-0.0599 0.6669,-0.0836c0.0617,-0.0057 0.398,0.1197 0.2793,0.1482c-0.2223,0.056 -0.4351,0.1254 -0.6508,0.2071c-0.0912,0.0342 -0.4066,-0.1045 -0.3581,-0.1283c0.4997,-0.2479 1.044,-0.4303 1.5941,-0.5206c0.1035,0.0475 0.208,0.096 0.3116,0.1435c-0.6128,0.0788 -1.1942,0.3021 -1.8117,0.3505c-0.0788,0.0067 -0.4351,-0.1368 -0.247,-0.151c0.5947,-0.0466 1.1562,-0.2679 1.7471,-0.343c0.0836,-0.0123 0.4161,0.1264 0.3125,0.1435c-0.5367,0.0883 -1.0621,0.2631 -1.5485,0.5035c-0.1187,-0.0428 -0.2384,-0.0855 -0.3581,-0.1283c0.2289,-0.0864 0.4569,-0.1634 0.6954,-0.2223c0.094,0.0485 0.1862,0.0988 0.2793,0.1473c-0.2214,0.0218 -0.4437,0.0608 -0.666,0.0836c-0.0608,0.0066 -0.399,-0.1159 -0.2793,-0.1482c0.1615,-0.0437 0.3183,-0.0808 0.4855,-0.1007c0.0627,-0.0086 0.3952,0.113 0.3353,0.1368c-0.1805,0.0731 -0.361,0.114 -0.5548,0.1472c-0.0617,-0.0465 -0.1282,-0.094 -0.1909,-0.1406c0.1045,0.0162 0.2118,0.0257 0.3163,0.0314c0.0637,0.0047 0.3924,0.152 0.2071,0.1501c-0.1254,0 -0.246,-0.0114 -0.3714,-0.0247c-0.0067,-0.039 -0.0124,-0.077 -0.0181,-0.115c0.0504,0.0086 0.0998,0.0171 0.152,0.0247c0.0057,0.039 0.0114,0.077 0.0181,0.1159c-0.0599,-0.018 -0.1226,-0.0332 -0.1834,-0.0503c0.0504,-0.0124 0.0998,-0.0219 0.1501,-0.0342c0.057,0.0465 0.1102,0.0921 0.1672,0.1387c0.2119,0.1007 -0.0874,0.0988 -0.1748,0.0636c-0.1396,-0.057 -0.2821,-0.1092 -0.4227,-0.1653c0.0598,-0.0209 0.1159,-0.0427 0.1748,-0.0636c0.1102,0.0589 0.2204,0.114 0.3277,0.1786c-0.1045,-0.0048 -0.2109,-0.0095 -0.3163,-0.0133c-0.0684,-0.0608 -0.1349,-0.1283 -0.1957,-0.1986c-0.0865,-0.0921 0.2688,-0.0209 0.3163,0.0124c0.0713,0.0541 0.1463,0.1026 0.2242,0.1463c-0.1045,-0.0038 -0.2109,-0.0076 -0.3163,-0.0114c-0.0323,-0.0285 -0.0646,-0.058 -0.0969,-0.0865c0.1045,0.0038 0.2118,0.0076 0.3163,0.0114c0.0903,0.0713 0.1843,0.134 0.285,0.1872c-0.1045,-0.0038 -0.2118,-0.0076 -0.3163,-0.0114c-0.0713,-0.0409 -0.1416,-0.0827 -0.2128,-0.1226c0.094,-0.0028 0.1862,-0.0057 0.2802,-0.0085c0.1226,0.1263 0.2746,0.2014 0.4228,0.2926c0.1577,0.0969 -0.1615,0.0646 -0.21,0.0456c-0.1947,-0.077 -0.38,-0.1511 -0.5567,-0.2632c-0.1586,-0.1007 0.2233,-0.0494 0.2898,-0.0085c0.247,0.1548 0.5092,0.2812 0.7552,0.436c-0.1054,-0.0038 -0.2109,-0.0076 -0.3163,-0.0114c-0.1815,-0.1406 -0.3905,-0.2365 -0.5919,-0.3439c0.1055,0.0038 0.2119,0.0076 0.3164,0.0114c0.2289,0.1796 0.4959,0.2936 0.76,0.4095c-0.0855,0.0085 -0.1701,0.018 -0.2546,0.0256c-0.2176,-0.1292 -0.4494,-0.2308 -0.6669,-0.36c0.1045,0.0038 0.2109,0.0076 0.3163,0.0114c0.2318,0.1814 0.495,0.3011 0.76,0.4246c0.229,0.1064 -0.132,0.0836 -0.2175,0.0466c-0.3781,-0.1653 -0.7543,-0.2945 -1.0555,-0.5862c-0.0845,-0.0826 0.2822,-0.018 0.342,0.0295c0.4513,0.3591 0.9766,0.6507 1.5343,0.8037c-0.0532,0.019 -0.1055,0.0389 -0.1596,0.0589c-0.3468,-0.1976 -0.7144,-0.3525 -1.046,-0.5776c0.1055,0.0047 0.2119,0.0085 0.3164,0.0123c0.1529,0.1672 0.3762,0.2261 0.5728,0.3249c0.2261,0.1121 -0.132,0.0855 -0.2175,0.0466c-0.153,-0.0703 -0.3088,-0.1292 -0.4646,-0.19c0.0589,-0.0209 0.1159,-0.0437 0.1748,-0.0637c0.115,0.0599 0.2271,0.1273 0.342,0.1862c-0.0845,0.0095 -0.17,0.019 -0.2546,0.0276c-0.0874,-0.058 -0.1786,-0.1093 -0.2726,-0.1549c0.094,-0.0019 0.1862,-0.0047 0.2802,-0.0076c0.0542,0.0314 0.1074,0.0618 0.1606,0.0931c-0.0846,0.0086 -0.1691,0.0181 -0.2537,0.0266c-0.0494,-0.0256 -0.095,-0.0551 -0.1387,-0.0883c-0.151,-0.1064 0.1606,-0.0646 0.21,-0.0447c0.095,0.0371 0.1748,0.0694 0.265,0.1159c0.2147,0.1055 -0.0902,0.0912 -0.1748,0.0627c-0.0969,-0.0323 -0.1909,-0.0617 -0.2859,-0.094c-0.1615,-0.0513 -0.1378,-0.1454 0.0275,-0.1083c0.1444,0.0313 0.2603,0.0684 0.3971,0.1244c0.2176,0.0893 -0.0874,0.095 -0.1738,0.0637c-0.058,-0.0181 -0.1131,-0.0333 -0.1691,-0.0504c0.0418,-0.0266 0.0826,-0.0541 0.1244,-0.0798c0.0874,0.038 0.1568,0.0722 0.2404,0.1188c0.1615,0.0883 -0.2233,0.0446 -0.2898,0.0085c-0.0817,-0.0437 -0.1615,-0.0864 -0.2413,-0.1301c-0.1596,-0.0874 0.1625,-0.0646 0.2119,-0.0456c0.0959,0.037 0.1909,0.0722 0.2878,0.1092c0.21,0.0817 0.0751,0.1463 -0.0807,0.0988c-0.3971,-0.1206 -0.7477,-0.3287 -1.0507,-0.6127c-0.0722,-0.0751 0.284,-0.0314 0.3496,0.0304zM331.0804,107.3953c-0.1862,-0.001 -0.3629,-0.0314 -0.5443,-0.0504c-0.0941,-0.0104 -0.4161,-0.1691 -0.1653,-0.1491c0.1871,0.0152 0.3724,0.0418 0.5557,0.0779c0.0903,0.0171 0.3534,0.171 0.1188,0.1425c-0.1397,-0.019 -0.2803,-0.039 -0.419,-0.058c-0.0931,-0.0104 -0.418,-0.171 -0.1662,-0.1482c0.1795,0.0181 0.3562,0.0447 0.5339,0.0789c0.0066,0.0418 0.0133,0.0836 0.0209,0.1263c-0.1273,-0.0323 -0.2546,-0.0655 -0.38,-0.1026c0.0266,-0.0332 0.0541,-0.0655 0.0798,-0.0988c0.1159,0.0447 0.2337,0.0789 0.3534,0.1064c0.0494,0.0133 0.2783,0.1264 0.1083,0.133c-0.2461,0.0105 -0.4655,-0.019 -0.6973,-0.1045c-0.1007,-0.037 -0.1862,-0.133 -0.0181,-0.1149c0.1501,0.0133 0.2974,0.0332 0.4456,0.0636c0.0893,0.0171 0.3572,0.1501 0.1187,0.1406c-0.8654,-0.0304 -1.6549,-0.4151 -2.2334,-1.0564c-0.076,-0.0855 0.284,-0.0351 0.3429,0.0304c0.4589,0.5092 1.0232,0.8522 1.7233,0.8778c0.0399,0.0475 0.0789,0.095 0.1188,0.1416c-0.1159,-0.0266 -0.2328,-0.0428 -0.3515,-0.0513c-0.0057,-0.038 -0.0133,-0.077 -0.019,-0.115c0.1064,0.0124 0.2147,0.0228 0.3211,0.0361c0.0361,0.0437 0.0712,0.0884 0.1083,0.1321c-0.1558,-0.039 -0.305,-0.0827 -0.4541,-0.1387c-0.2147,-0.077 -0.0751,-0.1425 0.0798,-0.0979c0.1254,0.0371 0.2527,0.0703 0.379,0.1026c0.1549,0.039 0.2432,0.1682 0.02,0.1245c-0.1454,-0.0276 -0.2926,-0.0523 -0.4399,-0.0656c-0.057,-0.0494 -0.1102,-0.0978 -0.1672,-0.1482c0.1406,0.0181 0.2812,0.038 0.4199,0.057c0.0399,0.0466 0.0789,0.0941 0.1188,0.1406c-0.153,-0.0285 -0.3059,-0.0513 -0.4617,-0.0627c-0.0551,-0.0503 -0.1093,-0.0997 -0.1653,-0.1491c0.1463,0.0161 0.3268,0.0475 0.4664,0.0484c0.0789,0.001 0.4332,0.153 0.2489,0.1511zM329.4635,106.583c0.0295,0.0371 0.0665,0.0656 0.096,0.1026c-0.1245,-0.0285 -0.2499,-0.057 -0.3762,-0.0855c0.0038,-0.037 0.0123,-0.0731 0.0152,-0.1102c0.0047,-0.0551 0.1824,-0.0123 0.2052,-0.0057c0.1928,0.0551 0.3828,0.1416 0.475,0.3306c0.0399,0.0827 -0.3002,-0.0085 -0.3325,-0.0285c-0.1368,-0.0912 -0.3002,-0.1757 -0.3496,-0.3429c-0.0209,-0.0732 0.3467,-0.0266 0.3743,0.0674c0.0399,0.1349 0.1548,0.1938 0.265,0.266c-0.1111,-0.0095 -0.2213,-0.019 -0.3325,-0.0285c-0.0256,-0.0541 -0.0674,-0.132 -0.1311,-0.1491c0.0684,-0.0019 0.1378,-0.0038 0.2052,-0.0057c-0.0038,0.037 -0.0114,0.0731 -0.0142,0.1102c-0.0067,0.0931 -0.342,-0.0418 -0.3762,-0.0865c-0.0285,-0.0361 -0.0665,-0.0636 -0.096,-0.1007c-0.0418,-0.0541 0.1425,-0.0361 0.1511,-0.0342c0.075,0.0124 0.1719,0.039 0.2213,0.1007zM331.3664,107.5663c-0.5928,-0.1929 -1.2426,-0.2565 -1.8107,-0.5197c-0.4579,-0.2118 -0.742,-0.5975 -1.1353,-0.8987c-0.0788,-0.0589 0.2727,-0.0228 0.343,0.0304c0.4066,0.3126 0.6555,0.6888 1.1628,0.8788c0.5063,0.19 1.0554,0.2593 1.5703,0.4275c0.2575,0.0836 0.0124,0.1292 -0.1301,0.0817z" fill="#000000" stroke="none" stroke-width="0.95"/><path d="M303.2568,177.0911c-1.652,1.7195 -2.2477,4.0793 -2.4358,6.3963c-0.1225,1.5048 -0.1862,3.4837 0.475,4.8887c1.616,3.4314 2.6591,7.1944 4.047,10.7255c2.0102,5.1158 4.9676,9.5504 7.6114,14.3289c2.4681,4.4536 3.9064,9.3499 6.1446,13.9089c0.0257,0.0561 -0.437,0.0257 -0.4968,-0.0969c-2.2363,-4.5619 -3.7107,-9.4363 -6.1427,-13.9089c-1.292,-2.3779 -2.7978,-4.6322 -4.1401,-6.9806c-1.3728,-2.4064 -2.5213,-4.9324 -3.535,-7.5098c-1.4022,-3.5701 -2.6562,-7.1991 -4.0688,-10.7654c-0.6023,-1.5181 -0.5007,-3.4551 -0.3724,-5.0397c0.1786,-2.223 0.8673,-4.4812 2.4367,-6.1152c0.0817,-0.0855 0.5406,0.1026 0.4769,0.1682zM327.2301,178.9436c2.7312,5.2763 4.9457,10.6761 5.8729,16.568c0.4123,2.6258 0.6422,5.2782 0.93,7.9192c0.1805,1.6549 0.3819,3.3088 0.6033,4.9599c0.1472,1.1011 0.4978,2.0587 0.5177,3.1702c0.001,0.0589 -0.5035,-0.0029 -0.5063,-0.1378c-0.0171,-0.9614 -0.3164,-1.7698 -0.4551,-2.7113c-0.247,-1.6748 -0.4351,-3.3563 -0.6232,-5.0388c-0.2964,-2.6676 -0.5367,-5.3418 -0.9272,-7.9971c-0.8768,-5.9897 -3.1397,-11.4807 -5.9099,-16.8292c-0.0276,-0.0504 0.4341,-0.0257 0.4978,0.0969zM324.1644,227.404c-1.3148,1.4944 -4.4536,1.4687 -5.5679,-0.2859c-0.0257,-0.039 0.4208,-0.0228 0.4959,0.0969c0.9652,1.5162 3.4599,1.3119 4.5666,0.0541c0.0979,-0.113 0.5263,0.1112 0.5054,0.1349zM323.5241,231.0796c-1.4563,-0.1891 -2.982,-0.2157 -4.293,-0.9624c-0.5491,-0.3135 -0.9985,-0.8911 -1.0944,-1.5238c-0.0979,-0.6536 0.0361,-1.2901 0.7856,-1.2131c0.1197,0.0123 0.5558,0.2175 0.2252,0.1824c-0.685,-0.0694 -0.5529,0.988 -0.4598,1.3243c0.1805,0.6602 0.6412,1.1086 1.2492,1.405c1.0127,0.495 2.2639,0.4617 3.363,0.6052c0.1178,0.0123 0.5529,0.2242 0.2242,0.1824zM322.9959,256.6526c-1.0801,-1.7404 -1.6007,-3.9121 -2.0957,-5.8814c-0.5947,-2.3627 -0.759,-4.8232 -0.8341,-7.2495c-0.1339,-4.3728 0.2907,-8.7599 -0.1767,-13.1223c-0.0057,-0.0456 0.4902,-0.0048 0.5054,0.1368c0.4503,4.1961 0.096,8.4246 0.1663,12.634c0.0427,2.5897 0.2565,5.1709 0.836,7.6988c0.4503,1.9589 1.0279,4.162 2.0957,5.8815c0.0266,0.0389 -0.4218,0.0228 -0.4969,-0.0979zM325.084,267.2831c-0.6963,-1.4136 -1.4221,-2.7911 -1.7394,-4.3462c-0.3382,-1.6606 -0.7211,-2.8215 -1.9361,-4.0489c-0.0162,-0.0105 -0.0257,-0.0238 -0.0257,-0.0437c0.4503,-0.9263 1.0004,-1.7328 1.7366,-2.4501c0.0874,-0.0855 0.5396,0.1064 0.4779,0.1672c-0.4057,0.3943 -2.0596,1.9893 -1.425,2.6895c0.5538,0.6127 0.9756,1.2407 1.273,2.0121c0.3315,0.8559 0.3762,1.8097 0.6146,2.6923c0.3259,1.1989 0.9757,2.3161 1.521,3.4238c0.0285,0.056 -0.437,0.0266 -0.4969,-0.096zM348.4341,253.3371c-1.2018,2.6714 -2.1413,5.1813 -4.3187,7.24c-2.0311,1.919 -4.561,4.1553 -7.3682,4.7452c-1.4022,0.2964 -2.908,-0.0437 -4.3168,-0.0627c-1.4193,-0.0199 -2.4254,0.4883 -3.6433,1.102c-0.8597,0.4332 -2.7635,1.6806 -3.7306,0.8056c-0.096,-0.0864 0.3695,-0.0256 0.455,0.0513c0.38,0.3439 2.1651,-0.7106 2.5413,-0.893c0.7011,-0.3439 1.386,-0.7419 2.1185,-1.0174c0.8265,-0.3097 1.9133,-0.267 2.7806,-0.209c1.7794,0.1216 3.3478,0.2517 5.0208,-0.5035c2.1992,-0.9928 4.1847,-2.7845 5.9194,-4.4242c2.0587,-1.9484 2.9061,-4.4593 4.0337,-6.9682c0.0523,-0.1131 0.5406,0.0617 0.5083,0.1339zM342.0995,244.561c1.0849,0.1302 2.1622,0.2993 3.2404,0.4627c0.2508,0.037 0.8332,0.0237 1.0441,0.2413c0.6564,0.6697 0.8075,2.2819 1.0336,3.1654c0.4037,1.577 0.6137,3.2005 1.1476,4.7424c0.0266,0.075 -0.4541,0.0247 -0.4959,-0.096c-0.7363,-2.1166 -1.0061,-4.3747 -1.6416,-6.5284c-0.2698,-0.9101 -0.1986,-1.2407 -1.1125,-1.3794c-0.9946,-0.1529 -1.9912,-0.3059 -2.9915,-0.4256c-0.1188,-0.0123 -0.5539,-0.2223 -0.2242,-0.1824zM340.5339,238.2692c1.3157,1.2483 2.8547,2.1831 4.2037,3.3706c0.8664,0.7638 -0.2726,2.4947 0.1378,3.4874c0.0275,0.0646 -0.4465,0.0257 -0.4969,-0.0959c-0.4531,-1.0973 0.3952,-2.1347 0.0409,-3.2262c-0.2185,-0.6707 -1.7081,-1.369 -2.2591,-1.7889c-0.7296,-0.5557 -1.4155,-1.1647 -2.0796,-1.7964c-0.0969,-0.0893 0.3705,-0.0295 0.4532,0.0494zM333.5124,209.887c1.3927,1.3604 3.4248,2.9469 3.9653,4.8659c0.2898,1.026 0.2812,2.1318 0.3306,3.1872c0.0665,1.4621 0.2233,2.9061 0.361,4.3615c0.2546,2.6961 0.8655,5.3057 1.2569,7.979c0.1919,1.3167 0.2346,2.66 0.4693,3.9653c0.2451,1.3623 -0.0304,2.7712 0.6612,4.0451c0.0266,0.0504 -0.4323,0.0257 -0.4978,-0.0959c-0.4304,-0.7952 -0.57,-1.8098 -0.6033,-2.7047c-0.0437,-1.1751 -0.1862,-2.3341 -0.284,-3.5083c-0.2242,-2.6752 -0.989,-5.2649 -1.3243,-7.9202c-0.342,-2.7398 -0.4522,-5.4862 -0.6622,-8.2365c-0.1976,-2.5707 -2.3921,-4.2949 -4.1277,-5.9897c-0.095,-0.0903 0.3733,-0.0285 0.455,0.0513zM345.1338,247.3559c-3.326,1.483 -4.3292,6.0135 -8.1282,6.745c-0.5624,0.1074 -1.2702,-0.0722 -1.5466,-0.6004c-0.5634,-1.0735 0.8626,-2.6628 1.5114,-3.343c0.0827,-0.0874 0.5406,0.1007 0.4788,0.1672c-0.759,0.7951 -1.5437,1.7974 -1.5599,2.9488c-0.0209,1.6416 2.8671,-0.3249 3.3659,-0.7591c1.919,-1.6701 2.9782,-4.2455 5.3998,-5.3238c0.132,-0.0589 0.512,0.1492 0.4788,0.1653zM300.6443,184.3909c-1.1314,5.9194 -1.3176,12.0013 -1.7869,17.9939c-0.57,7.2951 -2.717,14.707 -5.1376,21.5745c-0.0352,0.1036 -0.5349,-0.0494 -0.5045,-0.1368c2.4292,-6.8979 4.4945,-14.2633 5.1386,-21.5754c0.5263,-5.9955 0.6536,-12.066 1.786,-17.993c0.0161,-0.0884 0.5253,0.0285 0.5044,0.1368zM297.4058,227.4639c-1.806,0.1007 -4.0565,-1.6929 -3.573,-3.6385c0.0228,-0.095 0.532,0.0361 0.5054,0.1377c-0.3752,1.5143 1.1695,3.4001 2.7332,3.3117c0.0988,-0.0066 0.5776,0.1758 0.3344,0.1891zM294.2432,229.342c-0.9082,-1.2074 -2.3142,-2.564 -1.994,-4.2151c0.1852,-0.9586 1.272,-1.6663 2.0035,-0.8607c0.0152,0.0171 -0.3971,0.0152 -0.4949,-0.095c-0.3439,-0.3772 -0.932,0.8901 -1.0023,1.0896c-0.1985,0.5729 0.0333,1.2151 0.2679,1.7357c0.4066,0.9034 1.1277,1.6549 1.7148,2.4386c0.0237,0.0304 -0.4076,0.0228 -0.495,-0.0931zM278.1702,243.1056c-0.8113,-3.3221 2.489,-5.585 4.7946,-7.3026c3.4476,-2.566 6.7631,-5.6905 9.5133,-8.9908c0.095,-0.1121 0.5301,0.1083 0.5054,0.1377c-2.4833,2.9811 -5.4577,5.8967 -8.5348,8.2669c-2.4624,1.8962 -6.6861,4.2712 -5.7817,7.9838c0.0219,0.0893 -0.4702,0.0219 -0.4968,-0.095zM273.4553,251.3364c0.5368,-1.5067 1.0298,-2.9744 2.0017,-4.2617c0.8284,-1.101 1.1789,-2.2486 1.2093,-3.6157c0.0048,-0.0057 0.0086,-0.0104 0.0133,-0.0161c0.9253,-0.3002 1.8269,-0.4589 2.8006,-0.437c0.096,0.0028 0.5719,0.1957 0.3325,0.19c-0.6118,-0.0152 -1.2017,0.0456 -1.8012,0.1634c-0.9889,0.1947 -0.8379,0.7315 -0.9234,1.3775c-0.0874,0.6697 -0.3743,1.2815 -0.7096,1.8563c-0.4123,0.7058 -0.9415,1.3148 -1.3253,2.0453c-0.4664,0.8921 -0.7571,1.8839 -1.0953,2.831c-0.0352,0.1074 -0.533,-0.0475 -0.5026,-0.133zM298.01,257.6093c-2.4596,0.8911 -4.694,1.9066 -7.3777,1.8183c-2.2905,-0.0732 -4.8526,-0.3021 -7.0063,-1.1514c-1.102,-0.4332 -1.9541,-1.0669 -2.7455,-1.9456c-1.0459,-1.1628 -1.8981,-2.4909 -3.4276,-3.0543c-0.8056,-0.2954 -3.8807,-0.8949 -3.9387,-2.0624c-0.0028,-0.0561 0.4997,-0.001 0.5064,0.1368c0.0532,1.101 3.3459,1.7119 4.2379,2.0805c1.6236,0.6764 2.5802,2.5365 3.8048,3.6974c1.9826,1.8781 5.6468,1.9902 8.2365,2.1099c2.6182,0.1216 4.8355,-0.9281 7.2295,-1.7964c0.1396,-0.0504 0.5044,0.1577 0.4807,0.1672zM299.8976,248.058c0.5691,0.7467 1.1125,1.5105 1.654,2.2752c0.3486,0.4931 0.5852,0.6327 0.3496,1.1989c-0.9111,2.185 -2.6325,3.9596 -3.6974,6.061c-0.0589,0.1131 -0.5387,-0.0712 -0.5064,-0.1358c1.0032,-1.9779 2.4178,-3.7297 3.4894,-5.6763c0.4123,-0.7476 0.3334,-0.8911 -0.133,-1.5447c-0.5453,-0.7638 -1.0878,-1.5276 -1.6549,-2.2762c-0.0209,-0.0256 0.4094,-0.018 0.4987,0.0979zM300.7555,249.8886c-0.2556,-1.5504 -0.4427,-3.0951 -0.4551,-4.6673c0,-0.0608 0.5045,0.0047 0.5064,0.1377c0.0133,1.5713 0.2004,3.117 0.455,4.6664c0.0057,0.0361 -0.4835,0.0067 -0.5063,-0.1368zM315.7636,219.4525c-0.8427,1.5903 -0.6508,3.8361 -0.7059,5.5841c-0.0399,1.1847 -0.056,2.2249 -0.6925,3.2661c-0.7876,1.2863 -2.0406,2.3313 -3.0343,3.4476c-2.0359,2.2828 -3.7126,4.769 -5.5528,7.2019c-0.8626,1.141 -1.8667,2.185 -2.698,3.345c-0.7476,1.0412 -1.8734,1.7869 -2.2743,3.0618c-0.0313,0.1017 -0.5339,-0.0446 -0.5054,-0.1377c0.399,-1.2673 1.4725,-2.0682 2.2734,-3.0609c0.8996,-1.1153 1.8259,-2.205 2.6989,-3.345c1.8544,-2.4206 3.5606,-4.8811 5.5537,-7.2019c0.9975,-1.1647 2.147,-2.1917 3.0324,-3.4476c0.6935,-0.9851 0.6517,-2.1166 0.6926,-3.2661c0.0608,-1.7508 -0.1387,-3.9909 0.7077,-5.585c0.0589,-0.1112 0.5377,0.076 0.5045,0.1377zM304.4652,234.2355c2.413,-1.5913 4.8878,-3.1113 7.6675,-3.971c0.1396,-0.0437 0.4959,0.1605 0.4778,0.1672c-2.7778,0.8588 -5.2535,2.3788 -7.6665,3.971c-0.114,0.0741 -0.5291,-0.134 -0.4788,-0.1672zM306.7889,229.21c-0.6583,-1.0631 -1.8468,-5.4112 0.6403,-4.807c0.7914,0.1919 1.0165,1.2549 1.1695,1.9171c0.2954,1.2473 0.0731,3.667 1.3575,4.4222c0.2081,0.1226 -0.3002,0.0475 -0.3828,-0.0009c-1.2369,-0.7296 -1.2284,-2.8529 -1.3984,-4.0964c-0.0817,-0.589 -0.2242,-1.0963 -0.4665,-1.6264c-0.4199,-0.9158 -1.0877,0.1425 -1.2179,0.6099c-0.3524,1.2397 0.1473,2.6315 0.7961,3.6774c0.0257,0.0418 -0.4227,0.0247 -0.4978,-0.0959z" fill="#000000" stroke="none" stroke-width="0.95"/><path d="M329.9822,272.3913c-2.2961,-0.5216 -3.0048,-3.9843 -2.1916,-5.9309c0.0988,-0.2394 0.6032,-0.0959 0.5054,0.1359c-0.6926,1.6596 -0.2195,4.9694 1.785,5.4264c0.3192,0.0722 0.2166,0.4408 -0.0988,0.3686zM355.4147,257.8534c1.2739,2.4054 2.336,5.0588 -0.1444,7.0595c-0.1862,0.152 -0.6204,-0.1131 -0.3857,-0.3021c2.3588,-1.9038 1.2264,-4.4517 0.0437,-6.6871c-0.1387,-0.2622 0.3752,-0.2812 0.4864,-0.0703zM355.694,264.5927c-1.2844,1.4203 -2.9051,2.4463 -4.7035,3.0866c-0.9414,0.3363 -1.9408,0.4389 -2.926,0.5662c-1.463,0.1871 -2.8699,0.626 -4.2104,1.2359c-2.1888,0.9937 -4.1762,2.4681 -6.2804,3.6243c-0.8655,0.4759 -1.7556,0.8949 -2.6686,1.2673c-0.5263,0.2166 -1.0697,0.3885 -1.6131,0.5529c-0.5291,0.1615 -1.2863,0.1605 -1.7537,0.4142c-0.1339,0.0722 -0.3068,0.056 -0.4075,-0.0675c-0.7828,-0.9566 -1.2046,-1.8477 -1.3566,-3.0799c-0.0333,-0.2717 0.4854,-0.2128 0.5139,0.0323c0.1435,1.1619 0.533,1.9789 1.2702,2.8804c-0.1368,-0.0218 -0.2708,-0.0465 -0.4076,-0.0674c0.6365,-0.3449 1.5713,-0.38 2.2658,-0.5919c1.0687,-0.3249 2.0909,-0.7894 3.0875,-1.2863c2.1441,-1.0668 4.1344,-2.4301 6.2187,-3.6014c1.8886,-1.0612 3.9406,-1.5618 6.0762,-1.8107c2.4548,-0.2898 4.7823,-1.5571 6.4334,-3.3839c0.1643,-0.1815 0.6422,0.0304 0.4617,0.2289zM355.0423,257.6834c0.475,0.3743 0.1396,0.9851 0.0161,1.4839c-0.246,1.0051 -0.7543,1.9038 -1.3718,2.7236c-1.2226,1.6236 -3.0295,2.7588 -4.8089,3.6822c-2.0425,1.0583 -4.2455,1.7756 -6.4951,2.2344c-1.3329,0.2698 -2.68,0.495 -4.0223,0.7154c-1.2483,0.2061 -2.6154,0.4341 -3.611,1.2711c-0.1843,0.1548 -0.6165,-0.1102 -0.3866,-0.3031c1.2141,-1.0203 2.9478,-1.2122 4.4564,-1.4582c2.451,-0.399 4.8963,-0.8351 7.2295,-1.7015c1.9665,-0.7305 3.8523,-1.6995 5.5043,-2.9953c0.8018,-0.6289 1.4887,-1.3813 2.0682,-2.2173c0.2185,-0.3164 1.5903,-2.7835 1.0811,-3.1835c-0.2717,-0.2137 0.132,-0.4161 0.3401,-0.2517zM355.1553,257.9266c-3.1122,0.6051 -6.3697,1.8971 -9.5636,1.1533c-0.3173,-0.0751 -0.2166,-0.4456 0.0988,-0.3715c3.0704,0.7163 6.2994,-0.588 9.2938,-1.1685c0.2641,-0.0522 0.5083,0.3211 0.171,0.3867zM335.0134,269.6724c-1.576,0.9984 -2.9079,2.355 -4.8241,2.64c-0.2631,0.039 -0.5101,-0.3353 -0.17,-0.3866c1.823,-0.2717 3.1093,-1.6093 4.6075,-2.5565c0.2014,-0.1282 0.6365,0.1444 0.3866,0.3031z" fill="#010101" stroke="none" stroke-width="0.95"/><path d="M276.4858,253.4302c-0.7799,0.1786 -1.3471,1.1676 -1.6606,1.8383c-0.1083,0.2327 -0.6099,0.0874 -0.5054,-0.1378c0.3943,-0.8407 1.0241,-1.8658 1.9979,-2.0871c0.2584,-0.0608 0.5025,0.3097 0.1681,0.3866zM288.8273,266.3683c-3.5321,-0.8693 -6.7165,-2.7645 -9.443,-5.1443c-1.9,-1.6568 -4.8127,-3.8332 -5.1348,-6.5141c-0.0332,-0.2717 0.4855,-0.2128 0.514,0.0313c0.3087,2.5802 3.1701,4.6113 4.9637,6.2339c2.6002,2.3522 5.7903,4.1838 9.2008,5.0236c0.3154,0.077 0.2147,0.4475 -0.1007,0.3696zM298.0052,269.8472c-2.7968,0.5282 -5.7684,0.2878 -8.5728,-0.1055c-2.3218,-0.3268 -5.1613,-0.8464 -7.0062,-2.3949c-0.9823,-0.8237 -1.7005,-1.939 -2.585,-2.8605c-1.4449,-1.5019 -2.9811,-2.9127 -4.4773,-4.3624c-0.4798,-0.4626 -0.9529,-0.9329 -1.4241,-1.4069c-0.2983,-0.2993 -1.3423,-1.0811 -1.3841,-1.5029c-0.1007,-1.0289 1.0421,-2.3475 1.824,-2.8424c0.2014,-0.1283 0.6374,0.1444 0.3866,0.303c-0.5386,0.3401 -0.8958,0.7572 -1.2112,1.3006c-0.5919,1.0212 -0.2708,1.4563 0.474,2.2296c1.1087,1.1514 2.2734,2.2468 3.4267,3.3507c0.95,0.9091 1.8905,1.8259 2.8129,2.7635c0.8731,0.8921 1.5856,1.9209 2.4976,2.7759c1.6682,1.5637 4.7756,1.9922 6.954,2.2981c2.6467,0.3733 5.4824,0.5614 8.1139,0.0646c0.2641,-0.0475 0.5073,0.3258 0.171,0.3895zM301.7739,264.3695c-0.2318,2.5374 -0.7838,5.2079 -3.7677,5.4777c-0.2613,0.0237 -0.5111,-0.3572 -0.171,-0.3876c2.8167,-0.2565 3.2195,-2.8975 3.4304,-5.225c0.0238,-0.247 0.5311,-0.1216 0.5083,0.1349zM301.5696,264.0522c0.2176,0.6393 -0.8901,1.2891 -1.31,1.614c-0.9709,0.7496 -2.1907,1.1229 -3.3754,1.3538c-2.6457,0.5139 -5.4853,0.018 -8.0579,-0.6536c-0.3154,-0.0817 -0.2175,-0.4532 0.0988,-0.3705c2.0691,0.5377 4.181,0.8806 6.3232,0.797c1.0726,-0.0418 2.1271,-0.2555 3.135,-0.6232c0.3981,-0.1463 2.9165,-1.406 2.699,-2.0491c-0.096,-0.286 0.4104,-0.2974 0.4873,-0.0684zM301.4062,264.2887c-3.1074,-1.2825 -6.7944,-2.3579 -9.1789,-4.8564c-0.2242,-0.2318 0.2584,-0.3391 0.4275,-0.1653c2.3066,2.4159 5.9727,3.459 8.9804,4.7006c0.3201,0.133 0.038,0.4313 -0.229,0.3211z" fill="#010101" stroke="none" stroke-width="0.95"/><path d="M301.335,162.786c-1.8943,2.4738 -2.4833,5.7712 -3.6262,8.6269c-0.608,1.5219 -1.3604,2.983 -1.9684,4.5049c-0.5177,1.292 -1.3034,2.6192 -1.405,4.0271c-0.0152,0.2175 -0.5235,0.0978 -0.5064,-0.1378c0.1026,-1.4402 0.9434,-2.6837 1.4051,-4.0251c0.5833,-1.6996 1.4839,-3.2956 2.1536,-4.9647c1.1049,-2.7588 1.6445,-5.8492 3.4837,-8.2498c0.1311,-0.1739 0.6165,0.019 0.4636,0.2185zM290.6826,161.9775c0.21,-0.9709 1.0707,-1.501 1.52,-2.3427c0.0998,-0.189 0.5852,-0.0095 0.4636,0.2176c-0.4322,0.8122 -1.2758,1.3271 -1.4791,2.26c-0.0485,0.2242 -0.5548,0.0931 -0.5045,-0.1349zM288.3418,179.9563c1.2844,-6.0059 0.7933,-12.2123 2.3408,-18.1669c0.058,-0.2223 0.5634,-0.0883 0.5045,0.1368c-1.5466,5.9518 -1.0555,12.1619 -2.3418,18.1678c-0.0465,0.2223 -0.5538,0.0922 -0.5035,-0.1377zM294.2546,187.961c0.2166,-1.729 0.1463,-3.4799 -0.2403,-5.1804c-0.2964,-1.3005 -0.5349,-2.7094 0.0807,-3.951c0.1045,-0.2119 0.6033,-0.0599 0.5064,0.1358c-0.7325,1.4773 -0.2119,3.0809 0.0788,4.6009c0.2822,1.4839 0.266,3.039 0.0808,4.5324c-0.0276,0.2195 -0.5358,0.096 -0.5064,-0.1377zM292.3223,193.8548c0.1568,-1.1543 0.1131,-2.2753 0.5624,-3.3716c0.3791,-0.9272 1.1676,-1.5817 1.3452,-2.6058c0.039,-0.2223 0.5463,-0.095 0.5054,0.1368c-0.1596,0.912 -0.7543,1.5931 -1.2226,2.3655c-0.6536,1.0792 -0.5206,2.412 -0.684,3.6119c-0.0314,0.2213 -0.5396,0.0969 -0.5064,-0.1368zM292.7897,194.1578c-1.0079,0.3905 -1.9209,-0.2451 -2.1783,-1.273c-0.1549,-0.6194 -0.0703,-1.0697 0.1206,-1.6682c0.1862,-0.5852 0.9377,-2.1223 0.2413,-2.5925c-0.284,-0.1929 0.1378,-0.3496 0.3344,-0.2166c0.6793,0.4579 0.4199,1.3376 0.2347,2.0026c-0.1444,0.5187 -0.3449,1.0193 -0.4798,1.5418c-0.1995,0.78 0.3183,2.3066 1.4336,1.8753c0.2023,-0.0779 0.5899,0.2147 0.2935,0.3306zM291.3134,188.7647c-2.678,0.9842 -3.5729,4.0622 -5.7475,5.643c-0.5947,0.4332 -3.0077,0.892 -2.6362,-0.4959c0.0579,-0.2242 0.5652,-0.0884 0.5063,0.1358c-0.2223,0.8322 1.3443,0.342 1.4602,0.2812c0.493,-0.2584 0.8825,-0.8103 1.2302,-1.2302c0.5092,-0.6156 1.0393,-1.217 1.5457,-1.8364c0.9291,-1.1409 1.9275,-2.3066 3.3449,-2.8272c0.2043,-0.076 0.5947,0.2195 0.2964,0.3297zM282.3711,189.9503c0.0256,-1.8896 0.6707,-3.4618 1.6036,-5.0749c1.1124,-1.9257 3.0324,-3.2224 4.388,-4.96c0.1368,-0.1738 0.6175,0.02 0.4636,0.2176c-1.1077,1.4212 -2.5203,2.5536 -3.6746,3.9349c-1.3737,1.6444 -2.2382,3.7838 -2.2695,5.9242c-0.0038,0.2574 -0.514,0.1729 -0.5111,-0.0418zM282.8869,193.9241c0.3401,-1.291 1.7984,-2.5849 2.6182,-3.6005c1.2293,-1.5228 2.4909,-3.0229 3.4941,-4.7091c0.1112,-0.1872 0.5957,-0.0029 0.4646,0.2175c-0.931,1.5637 -2.0834,2.9593 -3.2253,4.3719c-0.551,0.684 -1.1029,1.3671 -1.6425,2.0615c-0.4209,0.5434 -1.026,1.1172 -1.2056,1.7946c-0.056,0.2242 -0.5624,0.0893 -0.5035,-0.1359zM283.683,194.667c-1.4117,0.6641 -2.5925,-0.5006 -1.8306,-1.8924c1.6007,-2.9222 3.6147,-5.6601 5.4226,-8.4578c0.1178,-0.1824 0.6023,0.0038 0.4626,0.2185c-1.1438,1.7717 -2.3389,3.5102 -3.4551,5.301c-0.4332,0.6935 -0.8284,1.4041 -1.2949,2.0757c-0.1814,0.2641 -0.3543,0.532 -0.5206,0.8056c-0.2356,0.3848 -1.1153,2.5783 0.8227,1.6663c0.1891,-0.0902 0.6384,0.1682 0.3933,0.2831zM282.2476,192.3443c-0.608,-1.2189 0.1092,-2.5289 0.7096,-3.6195c0.7686,-1.3975 1.6416,-2.8918 2.6135,-4.1591c0.133,-0.1748 0.6146,0.0199 0.4617,0.2175c-0.6508,0.8493 -1.0897,1.7822 -1.6739,2.6705c-0.8189,1.2454 -2.4111,3.2727 -1.6312,4.8412c0.1273,0.2527 -0.3847,0.2403 -0.4797,0.0494z" fill="#000000" stroke="none" stroke-width="0.95"/><path d="M303.5941,162.4212c-0.646,1.3119 -0.0466,3.2537 -0.2375,4.6797c-0.134,1.0022 -1.2065,1.3186 -0.9101,2.4785c0.2489,0.9776 1.0269,1.6692 1.177,2.7104c0.02,0.133 -0.4816,0.0399 -0.4997,-0.0865c-0.1482,-1.0269 -0.8103,-1.7698 -1.177,-2.7094c-0.38,-0.9804 0.4655,-1.4221 0.8151,-2.1726c0.7058,-1.5191 -0.418,-3.5245 0.3258,-5.0369c0.0646,-0.1302 0.551,0.0465 0.5064,0.1368zM303.1561,177.1908c-0.8512,-0.4322 -1.5304,-0.9823 -1.3319,-2.014c0.2185,-1.1305 1.2236,-1.9541 1.2968,-3.1407c0.0057,-0.0988 0.5149,-0.0104 0.5063,0.1359c-0.114,1.8297 -2.7341,3.6404 -0.1786,4.9419c0.3012,0.152 -0.1691,0.1406 -0.2926,0.0769zM321.1083,127.9846c0.6403,0.7638 1.463,1.6958 2.5241,1.8107c0.1767,0.0181 0.2974,-0.0028 0.4665,0.0627c-0.1131,0.0067 -0.2252,0.0133 -0.3382,0.02c-0.3145,-0.57 -0.5045,-0.875 -0.1169,-1.4706c0.0589,-0.0903 0.2651,-0.0247 0.3411,0.0047c0.9414,0.3715 1.5665,0.9386 1.9465,1.8905c0.5795,1.4488 0.8218,3.1141 1.2721,4.6142c1.2141,4.0479 3.5302,7.7672 3.5045,12.1058c-0.0237,4.1363 -3.1796,7.0148 -4.2626,10.8025c-0.5368,1.881 -0.2423,3.8475 -0.1824,5.7655c0.0665,2.1385 0.6707,4.0556 0.3743,6.2035c-0.0143,0.1102 -0.5254,0.0029 -0.5064,-0.1358c0.2575,-1.8544 -0.2175,-3.4875 -0.3391,-5.3153c-0.1178,-1.766 -0.2603,-3.5824 -0.0903,-5.3456c0.3468,-3.5958 3.174,-6.3185 4.1629,-9.7128c1.1742,-4.0394 -0.7315,-8.1168 -2.2287,-11.7857c-0.7068,-1.7309 -1.2578,-3.5568 -1.7157,-5.3685c-0.3657,-1.4468 -0.4921,-2.9573 -2.1109,-3.5957c0.1131,0.0019 0.2271,0.0038 0.3411,0.0047c-0.3762,0.5767 -0.1748,0.9035 0.1102,1.4212c0.0608,0.1083 -0.3135,0.0295 -0.3382,0.02c0.2308,0.0912 -0.1986,0.0161 -0.2765,0.0009c-0.2375,-0.0456 -0.4598,-0.1083 -0.6897,-0.1881c-0.9424,-0.3325 -1.6824,-1.0991 -2.3066,-1.842c-0.1092,-0.1292 0.3791,-0.0618 0.4589,0.0332zM326.6677,169.5595c-0.1843,1.2806 -0.1188,2.9526 0.3277,4.1686c0.2043,0.5567 0.8702,1.007 1.1657,1.5456c0.2593,0.4779 0.3239,1.0602 0.2802,1.5922c-0.1833,2.2572 -3.5321,3.1854 -5.281,3.6746c-6.5816,1.8402 -14.7146,0.4104 -20.3376,-3.5207c-0.2119,-0.1482 0.2973,-0.0874 0.3904,-0.0228c5.7713,4.0356 13.8729,5.1557 20.5267,3.0448c2.0396,-0.647 4.8526,-1.9637 4.0346,-4.5705c-0.2052,-0.6536 -0.7172,-1.0592 -1.1286,-1.5713c-0.2945,-0.3695 -0.341,-0.8882 -0.4018,-1.3395c-0.1359,-1.0108 -0.2299,-2.1213 -0.0836,-3.1359c0.0161,-0.1112 0.5272,-0.0029 0.5073,0.1349zM322.0013,130.7719c0.7315,4.0898 -1.7708,8.5766 -4.6427,11.3012c-0.9367,0.8911 -1.9589,1.6891 -2.9288,2.5403c-1.1932,1.0498 -1.7281,2.0701 -1.445,3.6461c0.1625,0.9082 -0.1919,1.4725 -0.8987,1.9713c-1.0763,0.7609 -1.5884,1.4174 -1.538,2.7607c0.0028,0.0864 -0.4997,0.019 -0.5064,-0.1368c-0.0323,-0.9158 0.1302,-1.5941 0.7952,-2.2382c1.0051,-0.9738 1.8819,-1.1419 1.5855,-2.8054c-0.4142,-2.3066 1.977,-3.7553 3.5008,-5.0568c3.2756,-2.7968 6.3954,-7.5174 5.5812,-12.0698c-0.0266,-0.1292 0.4741,-0.0418 0.4969,0.0874zM310.5462,152.8129c-0.3601,1.2217 -0.0247,2.6343 -0.932,3.6622c-0.8018,0.9111 -1.8563,1.3566 -3.0343,1.559c-1.8012,0.3097 -3.9159,-0.1454 -5.2744,-1.4051c-0.1149,-0.1064 0.3677,-0.0532 0.4589,0.0323c1.5979,1.4811 4.141,1.5533 6.0534,0.6726c0.7951,-0.3676 1.3974,-1.0108 1.7727,-1.7917c0.4094,-0.8512 0.1824,-1.9598 0.4503,-2.8652c0.0361,-0.1225 0.5386,0.0171 0.5054,0.1359zM301.8223,136.4805c1.1001,-5.3542 3.1607,-10.3531 8.8616,-12.0071c2.3247,-0.6745 4.9961,-0.4493 7.1896,0.5681c1.007,0.4665 1.8525,1.0431 2.5574,1.9105c0.8968,1.1058 1.1049,2.5194 1.5685,3.8218c0.038,0.1036 -0.4522,0.0475 -0.4988,-0.0874c-0.3809,-1.0725 -0.6051,-2.1641 -1.139,-3.1796c-0.6498,-1.2303 -1.8297,-1.9893 -3.0723,-2.5128c-2.9374,-1.2369 -6.2814,-0.6944 -8.969,0.8683c-3.8532,2.2382 -5.1528,6.669 -5.9916,10.7521c-0.0247,0.1178 -0.5339,-0.0047 -0.5064,-0.1339zM291.8036,150.5177c0.0789,-1.197 0.7448,-1.8468 1.8231,-2.2772c0.4807,-0.1919 1.4183,-0.0874 1.5874,-0.7201c0.2641,-0.9861 0.4978,-1.9788 0.7667,-2.963c0.9737,-3.5929 2.7531,-6.232 5.9175,-8.2166c0.1254,-0.0788 0.5539,0.1273 0.476,0.1767c-2.0007,1.2559 -3.6148,2.7721 -4.7035,4.9011c-1.0535,2.0691 -1.4649,4.4308 -2.0605,6.6566c-0.0095,0.0352 -0.0627,0.0361 -0.0903,0.0399c-1.5523,0.2109 -3.0922,0.7619 -3.2091,2.5403c-0.0076,0.0988 -0.5168,0.0076 -0.5073,-0.1377zM296.0663,151.8619c-0.9747,-1.3043 -1.3785,-2.6172 -0.7239,-4.1648c0.0551,-0.1282 0.5472,0.0371 0.5044,0.1378c-0.6479,1.5266 -0.2403,2.8329 0.7163,4.1144c0.0428,0.0532 -0.4056,0.0342 -0.4968,-0.0874zM308.8409,125.2372c1.1248,-1.2274 2.642,-1.9342 3.8627,-3.0466c0.1026,-0.0941 0.4237,0.0323 0.4874,0.1311c0.684,1.0516 1.4839,1.6853 2.7198,2.0672c0.2907,0.0902 0.2499,0.2593 -0.0456,0.1691c-1.3604,-0.4199 -2.3883,-1.1096 -3.1739,-2.3209c0.1624,0.0437 0.3249,0.0874 0.4873,0.1311c-1.2207,1.1115 -2.7388,1.8183 -3.8627,3.0457c-0.0893,0.0969 -0.5614,-0.0845 -0.475,-0.1767zM326.2991,131.3438c1.1951,0.2138 2.2581,0.6337 3.2015,1.4051c1.5247,1.2454 1.8325,3.3069 2.2277,5.111c0.5738,2.6153 0.9909,5.2639 1.3528,7.9154c0.1454,1.0554 0.2755,2.0415 0.9614,2.8984c0.5377,0.6726 1.4288,0.9671 2.1974,1.2806c2.5146,1.0279 5.3855,2.2496 7.2779,4.2532c0.8417,0.8901 1.4953,2.4966 0.8265,3.6499c-0.2489,0.4275 -0.8056,0.6355 -1.2293,0.8284c-0.6944,0.3154 -1.2977,0.6678 -1.8316,1.2226c-0.094,0.0969 -0.5614,-0.0874 -0.4759,-0.1767c0.8113,-0.8426 1.8715,-1.0754 2.7787,-1.7451c1.33,-0.9814 0.0722,-3.1787 -0.7362,-4.0347c-1.9209,-2.033 -5.0246,-3.0827 -7.5421,-4.18c-0.8436,-0.3695 -1.5437,-0.8132 -2.0615,-1.5903c-0.4826,-0.7248 -0.5519,-1.6549 -0.6631,-2.4909c-0.1558,-1.1675 -0.3315,-2.3303 -0.5196,-3.4941c-0.3648,-2.2667 -0.8208,-4.5191 -1.3737,-6.7478c-0.5235,-2.1128 -2.1803,-3.5274 -4.2978,-3.9045c-0.2081,-0.039 -0.4484,-0.2632 -0.0931,-0.2005zM340.9101,162.1533c-1.8183,1.7708 -5.5357,2.393 -7.9116,1.5684c-1.3291,-0.4607 -2.5204,-1.3841 -3.6053,-2.2515c-1.2321,-0.9842 -2.4928,-2.1356 -3.2984,-3.5083c-0.0437,-0.0732 0.4237,-0.0437 0.4988,0.0864c1.2103,2.0663 3.4086,3.7639 5.4235,4.978c2.3513,1.4184 6.4277,0.8892 8.4161,-1.0488c0.0997,-0.095 0.5633,0.0922 0.4769,0.1758zM305.5017,161.4769c-3.25,1.7499 -8.2612,1.9503 -11.4903,0.0408c-1.9057,-1.1257 -2.9868,-3.818 -3.3801,-5.8757c-0.1681,-0.8712 0.1653,-1.7214 0.4456,-2.5327c0.2194,-0.6413 0.9538,-1.8706 0.7305,-2.5679c-0.0351,-0.1102 0.457,-0.0475 0.4997,0.0855c0.1235,0.3876 -0.1092,0.8693 -0.2289,1.2312c-0.2784,0.8408 -0.6109,1.6587 -0.8512,2.5128c-0.5016,1.7917 0.6146,3.895 1.5285,5.3798c2.3266,3.7839 8.7704,3.4324 12.2683,1.5514c0.133,-0.0722 0.5491,0.1358 0.4779,0.1748zM305.2974,158.0474c0.3715,1.1846 0.1378,2.2895 0.1254,3.5036c-0.0009,0.094 -0.5073,0.0161 -0.5054,-0.1359c0.0162,-1.1922 0.248,-2.2866 -0.1187,-3.4542c-0.0371,-0.1102 0.4579,-0.0475 0.4987,0.0865zM344.1676,157.8726c0.5653,0.8284 0.9966,1.6872 1.2882,2.6467c0.2907,0.9547 0,1.064 -0.6146,1.7879c-1.2151,1.4278 -2.5869,2.7151 -4.2902,3.5292c-1.1619,0.5548 -2.4396,0.7296 -3.6841,0.418c-1.2531,-0.3144 -2.0881,-1.4649 -2.9213,-2.3569c-0.1121,-0.1197 0.3743,-0.0599 0.4589,0.0323c1.3091,1.4031 2.2163,2.6353 4.5771,2.1118c1.2872,-0.2859 2.4177,-1.0668 3.4133,-1.8981c0.9215,-0.7704 1.711,-1.6957 2.4776,-2.6144c0.7534,-0.9025 -0.7011,-3.0029 -1.2055,-3.7411c-0.0409,-0.0617 0.4151,-0.0399 0.5006,0.0846z" fill="#010101" stroke="none" stroke-width="0.95"/><path d="M350.279,171.0861c-3.1094,-2.1973 -6.461,-3.9805 -10.0415,-5.2791c-0.3392,-0.1235 -0.0171,-0.1796 0.1748,-0.1112c3.6546,1.3253 7.0794,3.136 10.2543,5.378c0.2052,0.1463 -0.3021,0.0741 -0.3876,0.0123zM353.243,168.2238c-1.387,-0.7714 -2.6021,-1.7794 -3.7582,-2.8586c-1.4697,-1.3699 -3.0087,-2.641 -4.5857,-3.8836c-0.1064,-0.0845 0.3629,-0.0332 0.457,0.0399c1.329,1.0469 2.6457,2.1081 3.9026,3.2414c1.3917,1.255 2.717,2.528 4.3709,3.4476c0.2157,0.1187 -0.2964,0.0627 -0.3866,0.0133zM362.4532,169.9642c-3.0324,-0.3401 -5.9508,-1.2464 -8.949,-1.7708c-0.2004,-0.0342 -0.4522,-0.2442 -0.0959,-0.1824c2.9564,0.5168 5.8349,1.4174 8.8236,1.7537c0.1282,0.0133 0.5529,0.2375 0.2213,0.1995zM362.4342,175.9454c-2.735,-1.2607 -5.8567,-0.5159 -8.7143,-1.1685c-0.6042,-0.1378 -1.1438,-0.4028 -1.6378,-0.7714c-0.9909,-0.7401 -1.0089,-2.0872 -1.7898,-2.9612c-0.1036,-0.114 0.3771,-0.0484 0.4569,0.0409c0.5805,0.6488 0.7363,1.5209 1.179,2.261c1.0203,1.7014 3.6005,1.557 5.3399,1.5741c1.8183,0.019 3.7801,0.19 5.4559,0.9614c0.304,0.1406 -0.1729,0.1188 -0.2898,0.0637zM357.7099,172.5729c0.683,0.6384 6.9796,1.5523 5.2079,3.3962c-0.0903,0.0922 -0.5529,-0.0931 -0.4769,-0.1719c1.5893,-1.653 -4.3843,-2.5137 -5.1889,-3.2652c-0.1055,-0.0988 0.3705,-0.0408 0.4579,0.0409zM362.4342,173.1277c-0.3971,-0.1701 -1.1248,0.0978 -1.5732,0.1083c-0.8607,0.0218 -1.7052,-0.2356 -2.5659,-0.2404c-0.1045,0 -0.5767,-0.2052 -0.3306,-0.2033c1.1153,0.0048 2.1831,0.3126 3.3022,0.1739c0.5035,-0.0627 0.9851,-0.1045 1.4601,0.0988c0.304,0.1301 -0.1748,0.114 -0.2926,0.0627zM368.0003,175.1645c-2.2154,0.5738 -4.0081,-0.7382 -5.5651,-2.1679c-0.1064,-0.0979 0.3695,-0.0409 0.4569,0.0399c1.3091,1.2027 2.7674,2.4329 4.6911,1.9342c0.1169,-0.0295 0.5596,0.1567 0.4171,0.1938zM362.5463,169.7609c1.6302,2.1061 3.8456,3.6565 5.9993,5.1841c0.0342,0.0219 0.1035,0.0912 0.0152,0.1017c-0.1929,0.0218 -0.3838,0.0456 -0.5738,0.0684c-0.1188,0.0142 -0.5482,-0.1786 -0.4161,-0.1938c0.7818,-0.0941 -0.4475,-0.7068 -0.6954,-0.8864c-0.571,-0.4123 -1.1296,-0.8369 -1.6806,-1.272c-1.1609,-0.9139 -2.2401,-1.9247 -3.1464,-3.0942c-0.0323,-0.0399 0.4066,-0.0256 0.4978,0.0922z" fill="#010101" stroke="none" stroke-width="0.95"/><path d="M328.5639,105.5086c0.1368,1.0127 0.417,1.9541 0.9129,2.8481c0.0323,0.0579 -0.4284,0.0313 -0.4978,-0.0931c-0.5016,-0.9073 -0.7828,-1.8668 -0.9205,-2.8909c-0.0076,-0.0484 0.4854,-0.0104 0.5054,0.1359zM335.231,107.7515c-1.615,1.1685 -4.0195,1.1315 -5.8881,0.7239c-0.1929,-0.0427 -0.4522,-0.2517 -0.0979,-0.1748c1.7613,0.3848 3.99,0.381 5.5072,-0.7182c0.1111,-0.0788 0.5405,0.1254 0.4788,0.1691zM328.1677,105.2815c2.1119,-0.4493 4.2313,-1.33 6.3926,-1.4098c0.1007,-0.0038 0.5766,0.1881 0.3315,0.1967c-2.1261,0.0779 -4.2294,0.9604 -6.308,1.4022c-0.113,0.0237 -0.55,-0.1625 -0.4161,-0.1891zM334.9802,104.0389c0.2052,1.1913 0.3477,2.3893 0.2964,3.5996c-0.0038,0.0769 -0.5121,-0.0029 -0.5054,-0.1368c0.0503,-1.2103 -0.0931,-2.4073 -0.2974,-3.5986c-0.0076,-0.0437 0.4807,-0.0143 0.5064,0.1358z" fill="#010101" stroke="none" stroke-width="0.95"/><path d="M328.2504,105.9228c-1.4792,0.0019 -2.9545,0.0332 -4.4327,0.0218c-1.7357,-0.0114 -3.3735,-0.5519 -5.0863,-0.5804c-0.3563,-0.0067 -1.084,-0.5558 -0.4019,-0.5434c1.5837,0.0266 3.0894,0.5491 4.6807,0.5766c1.6121,0.0266 3.2262,-0.0171 4.8374,-0.0199c0.3591,0 1.0858,0.5434 0.4028,0.5453z" fill="#010101" stroke="none" stroke-width="0.95"/></g></g></svg>