<svg version="1.1" xmlns="http://www.w3.org/2000/svg" xmlns:xlink="http://www.w3.org/1999/xlink" width="158.63044" height="196.57047" viewBox="0,0,158.63044,196.57047"><g transform="translate(-240.68478,-84.99866)"><g stroke-miterlimit="10"><path d="M399.31522,267.87442c0,7.56338 -35.51064,13.69472 -79.31522,13.69472c-43.80458,0 -79.31522,-6.13134 -79.31522,-13.69472c0,-7.56338 35.51064,-13.69471 79.31522,-13.69471c43.80458,0 79.31522,6.13133 79.31522,13.69471z" fill-opacity="0.59608" fill="#000000" stroke="#000000" stroke-width="0"/><path d="M299.1623,94.0972c1.7689,-1.1419 3.515,-1.1277 5.6097,-1.1277c2.3323,0 4.7652,0.6992 6.4287,1.8383c1.1039,0.7562 2.26,1.9 2.2809,3.4219c0.0171,1.2207 -0.9538,2.5792 -1.4088,3.6793c-0.4456,1.0811 -0.97,1.9741 -1.0849,3.1569c-0.1188,1.2331 0.5586,2.83 1.14,3.2898c0.3562,-0.779 0.3781,-1.6967 0.9405,-2.4899c0.285,-0.4 0.5738,-0.7629 0.8778,-1.0821c0.3562,-0.3733 0.6384,-0.4218 1.101,-0.6925c0.6004,-0.3515 0.532,-0.3838 0.8512,-0.9709c0.2461,-0.4513 0.2907,-0.5938 0.3876,-1.1049c0.1986,-1.063 0.8949,-2.3902 0.9424,-3.5036c0.0247,-0.6469 -0.0931,-0.7894 0.0314,-1.4202c0.1472,-0.7496 0.0798,-1.4307 -0.2347,-2.1955c-0.2204,-0.5348 -0.4142,-1.2407 -0.8198,-1.6558c-0.495,-0.5045 -0.8702,-0.8417 -1.2464,-1.4773c-0.6536,-1.1048 -1.2797,-1.4373 -2.2591,-2.241c-1.0384,-0.8484 -2.1138,-1.976 -3.439,-2.3693c-2.4102,-0.7144 -5.7931,-0.153 -7.9088,1.0868c-1.805,1.0611 -3.0153,3.7363 -2.26,5.7912M315.66,85.1928c0.3391,0.1957 1.5466,-0.0693 2.0121,0c1.0801,0.1606 1.9256,0.1606 3.0077,0.3762c2.3151,0.456 4.7234,1.3633 6.8913,2.356c3.2537,1.4896 6.4856,4.1506 7.3169,7.7558c0.2109,0.9206 -0.3097,3.4495 -1.5979,3.0486c-0.0437,0.5016 0.4645,0.9414 0.7362,1.3195c0.3867,0.5396 0.5586,0.3544 0.6166,1.0099c0.0893,1.007 0.7505,3.0067 -0.1881,3.8674c-1.9998,1.8326 -4.0831,-2.4785 -5.776,-3.116c0.1586,0.7249 1.3138,1.7148 1.6444,2.4472c0.2879,0.6327 0.6479,1.0232 0.8911,1.6521c0.5197,1.3442 1.0384,2.5355 1.4231,3.9396c0.2698,0.9814 0.7154,2.9916 -0.1624,3.8238c-1.0222,0.9671 -2.1651,0.1548 -2.8025,-0.5976c0.4807,0.9453 0.2118,2.3646 0.3401,3.3355c0.1187,0.9091 -0.5311,1.6425 -1.4782,1.7043c-0.4285,0.0275 -1.0821,0.0133 -1.3956,-0.3287c-0.3401,-0.3734 -0.4978,-0.723 -0.7201,-1.1647c-0.4541,-0.8997 -0.9547,-1.7585 -1.6064,-2.47c-0.0276,1.1675 1.2492,2.0206 0.2137,3.7002c-0.7647,1.2331 -2.3474,0.5073 -3.2024,-0.4493c0.0104,1.1685 0.7163,2.5697 -0.9823,2.7759c-1.3699,0.1672 -2.6591,-0.6109 -3.2357,-1.6065c-0.6099,-1.0516 -1.4374,-2.0662 -1.6084,-3.2917c-0.1501,-1.1011 -0.3467,-2.5584 -0.3401,-3.6727c0.0038,-0.855 0.9139,-1.1514 1.4051,-1.7214c0.6564,-0.76 0.8588,-1.121 1.0887,-2.0482c0.1615,-0.6508 0.3752,-1.1932 0.0332,-1.8373c-0.4655,-0.874 -0.1007,-1.0213 -0.551,-1.5979c0.4788,-0.5691 1.045,-1.0441 1.3956,-1.7585c0.3258,-0.664 0.9804,-1.0326 1.2625,-1.7119c0.2347,-0.5614 0.5254,-1.0079 0.8104,-1.5447c0.3657,-0.6906 0.5063,-1.5371 0.7353,-2.2534c0.4066,-1.2692 0.3391,-2.8538 -0.0029,-4.18c-0.284,-1.102 -1.3015,-2.8243 -2.1242,-3.913c-1.1998,-1.5894 -2.2895,-2.7094 -3.9824,-3.7848" fill="#ffbe00" stroke="none" stroke-width="0.95"/><path d="M299.04551,94.01229c-0.7553,-2.0549 0.47225,-4.75225 2.27725,-5.81335c2.1157,-1.2398 5.53337,-1.81034 7.94357,-1.09594c1.3252,0.3933 2.41982,1.52715 3.45822,2.37555c0.9794,0.8037 1.61884,1.14725 2.27244,2.25205c0.3762,0.6356 0.75735,0.98152 1.25235,1.48602c0.4056,0.4151 0.60321,1.13019 0.82361,1.66499c0.3145,0.7648 0.38397,1.45763 0.23677,2.20723c-0.1245,0.6308 -0.00687,0.78104 -0.03157,1.42794c-0.0475,1.1134 -0.74955,2.45936 -0.94815,3.52236c-0.0969,0.5111 -0.1447,0.65875 -0.3908,1.11005c-0.3192,0.5871 -0.25508,0.62465 -0.85548,0.97615c-0.4626,0.2707 -0.74977,0.32384 -1.10597,0.69714c-0.304,0.3192 -0.5986,0.68617 -0.8836,1.08617c-0.5624,0.7932 -0.59252,1.71487 -0.94872,2.49387c-0.5814,-0.4598 -1.29437,-2.15016 -1.17557,-3.38326c0.1149,-1.1828 0.62345,-2.06593 1.06905,-3.14703c0.455,-1.1001 1.41013,-2.42767 1.39303,-3.64837c-0.0209,-1.5219 -1.16452,-2.62643 -2.26842,-3.38263c-1.6635,-1.1391 -4.03003,-1.83113 -6.36233,-1.83113c-2.0947,0 -3.82343,-0.03656 -5.59233,1.10534" fill="#ffbe00" stroke="none" stroke-width="0.475"/><path d="M308.2585,86.7508c0.2907,-0.1349 0.3183,-0.3277 0.5624,-0.4569c0.248,-0.1302 0.5672,-0.1957 0.8313,-0.2983c0.4864,-0.1872 1.0241,-0.3363 1.5238,-0.4731c0.6963,-0.1862 1.4402,-0.1625 2.1584,-0.1976c0.6175,-0.0276 1.2749,-0.0684 1.8914,-0.0029c0.5501,0.0599 0.9909,0.3658 1.4013,0.7325c0.5823,0.5187 1.2255,0.9405 1.785,1.5247c0.476,0.4997 0.9833,0.9823 1.3034,1.5865c0.3097,0.5833 0.6365,1.1438 1.0184,1.6758c0.4418,0.6137 0.8123,1.2398 0.9652,1.9941c0.1397,0.6716 0.2717,1.3803 0.3658,2.0558c0.1738,1.2606 -0.2651,2.4918 -0.6555,3.6432c-0.3686,1.0897 -0.8845,2.2601 -1.5761,3.1863c-0.3021,0.4085 -0.6431,0.7828 -0.9471,1.1989c-0.2964,0.4038 -0.7942,0.6707 -1.0298,1.1001c-0.0751,0.1368 -0.0428,0.3762 -0.2717,0.3591c-0.1368,-0.0095 -0.4085,-0.3657 -0.5311,-0.4569c-0.3961,-0.2926 -0.7115,-0.1843 -1.158,-0.3116c-0.0589,-1.1324 0.5671,-2.0292 0.7913,-3.1141c0.1093,-0.5339 0.3363,-0.9804 0.3658,-1.5609c0.0285,-0.5491 0.1396,-1.0725 0.1662,-1.6264c0.0276,-0.5348 0.1178,-1.0469 -0.075,-1.5513c-0.2052,-0.5425 -0.2565,-1.1144 -0.4551,-1.6692c-0.4455,-1.234 -1.4706,-2.0529 -2.3151,-2.9934c-0.4076,-0.4541 -0.7771,-0.8465 -1.2369,-1.2521c-0.4361,-0.3876 -0.8873,-0.7182 -1.3272,-1.0887c-0.417,-0.3477 -0.8873,-0.7211 -1.3518,-1.0108c-0.6242,-0.3905 -1.3091,-0.5349 -1.9656,-0.8522c-0.0807,-0.0456 -0.1577,-0.0902 -0.2337,-0.1406" fill="#ff1f00" stroke="none" stroke-width="0.95"/><path d="M318.6829,122.1687c-0.4009,0.2945 1.3385,0.9633 0,1.2265c-0.6954,0.1387 -1.2521,0.0674 -1.8668,-0.323c-0.341,-0.2176 -0.5643,-0.2223 -1.0193,-0.1758c-0.3857,0.039 -0.7762,0 -1.1647,0.0314c-0.7239,0.0627 -1.4678,0.2403 -2.1575,0.5082c-0.6792,0.266 -1.3138,0.6555 -1.9313,1.0194c-0.4209,0.246 -0.818,0.4845 -1.2531,0.7049c-0.3695,0.189 -0.5215,0.4056 -0.7837,0.6897c0.0057,0.0494 0.0066,0.1387 0.0199,0.1928c0,-0.3667 0,-0.7315 0,-1.0991c0,0.1786 0.0048,-0.6641 0,-0.6717c-0.0275,-0.0389 -0.0494,-0.0788 -0.0997,-0.113c-0.1207,-0.0893 0.208,-0.4389 0.1453,-0.2945c-0.0266,-0.2917 -0.2717,-0.3325 -0.3116,-0.6261c0.1976,-0.1415 -0.0836,-0.4056 -0.1586,-0.3705c-0.0409,-0.2897 -0.2394,-0.1149 -0.2651,-0.4066c-0.0076,0.0361 -0.018,0.0703 -0.0342,0.1045c-0.0104,-0.303 -0.0028,-0.6118 -0.0294,-0.9158c-0.2299,-0.0769 -0.3838,-0.0817 -0.6156,-0.1007c-0.0257,-0.2973 -0.0257,-0.5956 -0.0485,-0.893c-0.2346,-0.0161 -0.4313,-0.2033 -0.7058,-0.1833c-0.1729,0.0133 -0.5349,0.1244 -0.646,0.2185c-1.4896,0.2707 -4.903,1.747 -5.9024,-0.2565c-0.4569,-0.9158 0.1929,-2.0121 -0.5643,-2.8424c-0.4237,-0.4674 -1.1466,-0.3164 -1.6083,-0.7714c-0.3439,-0.3354 -0.5843,-1.1011 -0.1387,-1.4611c-0.3439,-0.3705 -0.9852,-0.5947 -1.0165,-1.1989c-0.0228,-0.4551 0.2812,-0.7895 0.3876,-1.1951c0.0978,-0.3639 0.342,-0.6973 0.227,-1.0574c-0.152,-0.4769 -0.7258,-0.341 -1.1694,-0.493c-0.3116,-0.1083 -0.6489,-0.4104 -0.8465,-0.7021c-0.1586,-0.2337 -0.5234,-0.5738 -0.3876,-0.8303c0.3724,-0.7058 0.8645,-0.9471 1.3082,-1.3623c0.2384,-0.2213 0.5035,-0.6194 0.7362,-0.8512c0.2375,-0.2365 0.3487,-0.6298 0.5662,-0.8949c0.476,-0.5833 0.6508,-1.0887 0.7249,-1.8392c0.0722,-0.7486 -0.2214,-1.4269 -0.3924,-2.1033c-0.1045,-0.417 -0.1073,-0.8597 -0.1976,-1.2749c-0.0475,-0.2099 -0.1662,-0.4142 -0.2346,-0.6137c-0.0608,-0.17 0.0893,-0.8607 0.0418,-1.0231c-0.2309,-0.7819 0.0608,-1.3177 0.2517,-2.09c0.1074,-0.437 -0.0199,-0.8626 0.2632,-1.1951c0.1691,-0.1948 0.3733,-0.399 0.4759,-0.6365c0.0922,-0.2138 0.0789,-0.4513 0.2147,-0.6489c0.2204,-0.3192 0.4988,-0.9775 0.8142,-1.2245c0.5272,-0.4142 0.9842,-0.5653 1.5836,-0.818c0.3078,-0.1292 0.3648,-0.1919 0.6888,-0.2375c0.3562,-0.0465 1.0184,-0.1159 1.367,-0.0988c0.9453,0.0409 2.0596,-0.037 2.9944,0.1235c0.6394,0.1093 1.1495,0.1444 1.787,0.2746c0.4037,0.0817 1.0364,0.2242 1.4107,0.4018c0.419,0.1957 1.0469,0.4674 1.4203,0.7154c0.3239,0.2147 0.4949,0.3904 0.8303,0.5994c0.2745,0.172 0.304,0.3933 0.5928,0.5539c0.1026,0.0589 0.8027,1.4487 0.7153,0.9139c0.0038,0.5595 0.3192,0.683 0.285,1.2445c0.0513,-0.0456 0.2337,0.0655 0.2841,0.1121c-0.1634,0.2546 0.1387,0.5149 0.0931,0.817c-0.0228,-0.0143 0.2698,0.7989 -0.0219,0.4018c-0.0095,0.3069 -0.0931,0.2318 -0.1368,0.5339c0.3259,0.0162 -0.0427,0.4171 -0.1301,0.5035c-0.0409,0.305 -0.2594,0.3107 -0.2974,0.6137c-0.3638,-0.0342 -0.532,0.8113 -0.7001,1.1315c-0.0713,0.1358 -0.1796,0.2489 -0.2024,0.4009c-0.1558,0.0066 0.02,0.3809 -0.1206,0.418c-0.0276,0.3144 -0.3667,0.2413 -0.3772,0.5567c-0.0133,-0.0067 -0.0228,-0.0133 -0.0342,-0.0181c-0.0228,0.304 -0.0152,0.6099 -0.0589,0.9111c-0.246,0.057 -0.094,1.159 -0.0988,1.2977c-0.0047,0.1643 -0.1111,0.3382 0.0665,0.4341c-0.0123,0.799 0.0209,2.0026 0.6603,2.6144c0.3306,-0.2954 0.2641,-0.988 0.3648,-1.4012c0.1178,-0.4741 0.4949,-0.8759 0.6906,-1.3262c0.3107,-0.7135 1.312,-1.2597 1.9656,-1.634c0.4246,-0.2442 0.8901,-0.5852 1.3955,-0.4855c0.6432,0.1321 0.8864,0.4304 1.2046,0.9481c0.3278,0.5349 0.589,0.9548 0.6878,1.6027c0.0874,0.5614 0.0133,1.1571 -0.1567,1.69c-0.1872,0.6004 -0.3221,1.122 -0.7714,1.5685c-0.3743,0.3762 -0.8256,0.7942 -1.1638,1.1903c-1.12,1.3044 -0.5092,3.5369 -0.0741,5.0331c0.2204,0.7638 0.4437,1.521 0.6622,2.2743c0.1045,0.3591 0.1672,0.7277 0.3135,1.0517c0.1529,0.3334 0.2641,0.5937 0.2945,0.9661c0.0513,0.6479 0.2337,0.8902 0.7419,1.3452c0.4503,0.4019 0.856,1.2578 1.3813,1.5419" fill="#ffe6c7" stroke="none" stroke-width="0.95"/><path d="M299.5641,103.6817c0.134,0.0323 0.2679,0.0969 0.4,0.1378c0.2175,0.0665 0.4408,0.1026 0.6574,0.1719c0.3714,0.1169 0.7543,0.2024 1.1286,0.3097c0.398,0.114 0.8027,0.2366 1.1742,0.4152c0.1092,0.0541 0.2574,0.1225 0.3287,0.2223c0.0437,0.057 0.0636,0.1349 0.1064,0.1947c0.0399,0.057 0.0864,0.0874 0.0826,0.1615c-0.0047,0.0988 -0.0997,0.1634 -0.1748,0.21c-0.2223,0.1387 -0.4541,0.2223 -0.7011,0.3087c-0.2118,0.0732 -0.4047,0.172 -0.6118,0.2375c-0.1928,0.0618 -0.3914,0.1121 -0.5899,0.1606c-0.343,0.0826 -0.6793,0.1605 -1.0346,0.1786c-0.0475,0.0019 -0.3154,0.0475 -0.2707,-0.0513c0.0199,-0.0456 0.1187,-0.0494 0.1596,-0.0694c0.0608,-0.0313 0.0912,-0.076 0.1377,-0.1254c0.076,-0.075 0.1359,-0.1444 0.1957,-0.2375c0.0684,-0.0988 0.1036,-0.1786 0.1273,-0.2926c0.0466,-0.2118 0.1416,-0.4113 0.153,-0.6308c0.0066,-0.1339 0.0361,-0.2299 -0.0105,-0.3581c-0.038,-0.1055 -0.0456,-0.2632 -0.1102,-0.3468c-0.0608,-0.0807 -0.1235,-0.1045 -0.2128,-0.1406c-0.1539,-0.0598 -0.3059,-0.1292 -0.4626,-0.1814c-0.19,-0.0656 -0.3306,-0.1482 -0.4836,-0.2689" fill="#ffffff" stroke="none" stroke-width="0.95"/><path d="M300.7393,104.1919c0.0655,0.0845 0.0893,0.1643 0.1168,0.2717c0.0931,0.36 -0.0351,0.7685 -0.1225,1.1162c-0.0238,0.0903 -0.0665,0.1796 -0.1026,0.267c-0.0342,0.0836 -0.0684,0.0912 -0.1406,0.1368c-0.1178,0.0722 -0.1872,0.19 -0.3183,0.247c-0.0864,0.0332 -0.1719,0.0589 -0.2631,0.0636c-0.2755,0.0152 -0.457,-0.0617 -0.608,-0.3011c-0.1691,-0.2632 -0.3325,-0.5244 -0.3325,-0.8436c0,-0.1321 -0.0124,-0.2689 0.0161,-0.3981c0.0276,-0.1358 0.0922,-0.2508 0.1444,-0.379c0.0675,-0.1606 0.1672,-0.286 0.2651,-0.4266c0.0627,-0.0902 0.1225,-0.114 0.227,-0.1073c0.1948,0.0123 0.4066,0.0484 0.5938,0.1026c0.0988,0.0247 0.1957,0.0579 0.284,0.1111c0.0817,0.0485 0.1587,0.1368 0.2575,0.1482" fill="#371e10" stroke="none" stroke-width="0.95"/><path d="M297.7895,164.173c0.1967,0.0532 0.2974,0.4541 0.4418,0.6232c0.2232,0.2669 0.4151,0.5168 0.6213,0.8075c0.3676,0.5101 0.9348,1.2093 1.4649,1.5865c0.5804,0.4104 1.2065,0.8046 1.8715,1.0573c0.8341,0.3192 1.7252,0.4465 2.5726,0.7657c0.0826,0.0295 0.3771,0.0703 0.4218,0.153c0.1159,0.2109 -0.057,0.1111 -0.1748,0.1824c-0.2147,0.1282 -0.5292,0.2033 -0.7714,0.2764c-1.0488,0.3192 -2.1185,0.6612 -3.1569,1.0346c-1.4516,0.5206 -2.8794,1.1067 -4.3139,1.6425c-1.3585,0.5064 -2.5926,1.2274 -3.9805,1.7385c-1.1714,0.4313 -2.2439,1.0887 -3.3801,1.5599c-0.4722,0.1948 -0.7068,0.3705 -1.008,0.7771c-0.2498,0.3354 -0.4683,0.4769 -0.798,0.6935c-0.4427,0.2964 -0.6973,0.7068 -1.0991,1.0279c-0.3819,0.3078 -0.6432,0.5073 -0.95,0.9158c-0.324,0.4323 -0.7667,0.7391 -1.1742,1.0707c-0.4009,0.3258 -0.6194,0.7942 -1.0479,1.026c-0.6127,0.3315 -1.424,0.493 -2.0938,0.7334c-0.9215,0.3306 -1.8876,0.684 -2.8291,0.9424c-0.6697,0.1814 -1.1162,0.4351 -1.4886,0.5092c-0.2926,0.0589 -0.9719,-0.8835 -1.2426,-1.0251c-0.2784,-0.1482 -0.2546,-0.3952 -0.5358,-0.5548c-0.2869,-0.1643 -0.4152,-0.4075 -0.6565,-0.5719c-0.284,-0.1919 -0.4911,-0.2517 -0.7039,-0.5491c-0.3382,-0.4655 -0.9035,-0.7267 -1.3215,-1.1808c-0.2346,-0.2565 -0.3914,-0.4161 -0.4218,-0.7695c-0.0332,-0.3895 0.1245,-0.5168 0.3582,-0.8436c0.3344,-0.4693 1.0497,-1.1286 1.0203,-1.7566c-0.5434,0.1796 -1.2341,0.1169 -1.7813,-0.1235c-0.3562,-0.1567 -0.7343,-0.3353 -0.6963,-0.7115c0.0171,-0.1729 0.3097,-0.4503 0.4294,-0.5909c0.1786,-0.21 0.6279,-0.3135 0.8711,-0.4171c0.3506,-0.151 0.8256,-0.2232 1.1837,-0.3591c0.6356,-0.2384 0.931,-0.4645 1.5219,-0.7771c0.419,-0.2204 1.065,-0.6716 1.4203,-0.9699c0.1026,-0.0874 0.1064,-0.2527 0.208,-0.304c0.0741,-0.0371 0.3525,-0.0276 0.4399,-0.0371c1.2986,-0.1273 2.6305,-0.1339 3.9311,-0.3011c1.3661,-0.1729 2.716,-0.4085 4.0964,-0.4636c0.4607,-0.019 0.7676,0.0294 1.1723,-0.1558c0.3904,-0.1805 0.8027,-0.3126 1.1818,-0.5007c2.0387,-1.0127 4.1296,-2.1622 5.9821,-3.4599c0.4009,-0.2831 0.9329,-0.6954 1.3756,-0.9262c0.4655,-0.2432 0.5985,-0.5814 1.0887,-0.7961c0.6147,-0.2651 1.4459,-0.6052 1.9504,-1.0165" fill="#ffe6c7" stroke="none" stroke-width="0.95"/><path d="M333.8496,160.0063c0.0513,-0.0352 0.1102,-0.0551 0.172,-0.0703c0.0788,-0.2375 0.3239,-0.3468 0.4427,-0.5805c1.5741,-0.5738 2.45,-2.1831 3.5064,-3.3174c0.3487,-0.3762 0.7648,-0.9614 1.273,-1.1694c0.5767,-0.2366 0.3525,0.1187 0.5339,0.7828c0.2584,0.9224 0.6593,1.8553 0.9975,2.8025c0.3325,0.9291 0.5738,1.8867 0.9804,2.7607c0.4646,0.9946 1.064,1.8677 1.6806,2.7787c0.2983,0.4456 0.4607,1.5476 0.7011,2.034c0.2783,0.5643 0.4075,0.626 0.6536,1.1675c0.1871,0.4028 0.5842,0.9519 0.8873,1.2692c0.4408,0.4551 0.8331,0.2698 1.3917,0.4161c2.1575,0.5738 2.7189,2.6258 3.3212,4.485c0.3496,1.0868 0.893,2.1584 1.3386,3.1825c0.3828,0.8816 1.0526,1.8705 1.6625,2.5336c0.3363,0.3667 0.7714,0.7952 0.3163,1.2863c-0.3581,0.3905 -0.8208,0.209 -1.2074,0.001c-0.5045,-0.2679 -0.8702,-0.6688 -1.2692,-1.0412c-0.3392,-0.3164 -0.9092,-1.255 -1.2578,-1.3813c0.1244,1.1305 1.0203,2.0377 0.7239,3.2414c0.417,0.0237 0.7153,0.0104 1.0915,0.1786c0.7942,0.3524 1.7328,1.1609 2.2363,1.8696c0.3829,0.532 1.2227,1.9104 0.9975,2.5944c-0.2812,0.8465 -1.5684,-0.7505 -2.0216,-1.0868c-0.9756,-0.7324 -2.1574,-1.1229 -3.2271,-1.6596c-0.4674,-0.2347 -0.9016,-0.5064 -1.3747,-0.7287c-0.5272,-0.2517 -0.9063,-0.3752 -1.2046,-0.8027c-0.5548,-0.7914 -0.9984,-1.7186 -1.4373,-2.5916c-0.4855,-0.9738 -1.0051,-1.8981 -1.6426,-2.7873c-0.7286,-1.0089 -1.2046,-2.2126 -1.7983,-3.3117c-0.5377,-0.9966 -1.2274,-1.9105 -1.8848,-2.832c-0.8474,-1.1799 -1.3994,-2.546 -2.2914,-3.6784c-0.8607,-1.0896 -1.8383,-2.1185 -2.5983,-3.2157c-0.3144,-0.4541 -0.5833,-1.0707 -0.8426,-1.5552c-0.3344,-0.6175 -0.7135,-1.1761 -1.0868,-1.7499" fill="#ffe6c7" stroke="none" stroke-width="0.95"/><path d="M319.3108,123.0864c0.4788,0.4997 0.7705,0.8389 1.4611,1.1771c0.6251,0.3078 1.2388,0.7562 1.6616,1.3452c0.4389,0.6127 0.6564,1.3784 1.1286,1.9921c0.4807,0.6213 0.7923,1.3519 1.2587,1.9931c1.4687,2.0159 1.8582,4.542 2.87,6.8372c0.6042,1.368 1.1153,2.7075 1.5865,4.0964c0.3562,1.0526 1.9522,2.2809 2.8253,3.0134c1.2863,1.082 2.4092,1.8743 3.7506,2.7939c0.911,0.6251 1.6919,0.9719 2.5631,1.6625c0.418,0.3306 1.0051,0.7667 1.2758,1.2303c0.5292,0.9072 -0.4626,2.0102 0.1302,2.6866c0.3439,0.3952 1.0877,0.4208 1.2663,0.9129c0.1378,0.3715 0.0133,1.1134 0.0561,1.5162c-1.5571,0.4674 -3.2956,1.6882 -4.2712,3.021c-0.95,1.2958 -3.0144,2.6382 -4.4489,2.8329c-0.6327,0.0846 -1.4288,-0.1833 -1.995,-0.5339c-0.6061,-0.3771 -0.3363,-0.2327 -0.721,0.5434c-0.4437,0.8949 -0.5206,1.407 -0.2413,2.4444c0.2631,0.9794 0.6298,2.0197 1.3965,2.735c0.4826,0.4513 0.9139,0.9861 1.4744,1.3661c0.474,0.3202 0.8274,0.3762 0.9956,0.9434c0.1662,0.5557 -0.0057,1.1628 -0.1976,1.6596c-0.2166,0.5662 -0.4969,1.2417 -0.8018,1.7214c-0.6774,1.0726 0.2147,1.4611 0.6678,2.4463c0.4,0.8702 0.8199,2.0548 -0.0817,2.8025c-0.4389,0.3657 -1.386,0.7771 -1.862,1.0801c-0.5358,0.3392 -0.6137,0.1929 -1.1191,0.5719c-1.0022,0.7524 -2.678,1.027 -4.084,1.5514c-1.3348,0.4997 -2.9175,0.6365 -4.4755,0.9642c-1.3651,0.2869 -3.0884,0.3278 -4.4707,0.2043c-0.8331,-0.0751 -1.4193,-0.1045 -2.2363,-0.2413c-0.7153,-0.1207 -1.8183,-0.3696 -2.5308,-0.5425c-2.0472,-0.4968 -5.0834,-1.8686 -5.0834,-4.6825c0,-0.7714 0.4579,-1.0013 0.93,-1.5191c0.3857,-0.4208 0.7714,-0.9101 1.0944,-1.3699c0.399,-0.57 0.6622,-0.9272 0.5862,-1.7071c-0.0665,-0.6774 -0.4038,-1.0669 -0.6641,-1.6663c-1.2046,0.4997 -2.4158,0.3876 -3.7021,0.2574c-0.6071,-0.0589 -0.9909,-0.1634 -1.5514,-0.3952c-0.6488,-0.2688 -1.462,-0.9386 -2.2211,-0.9433c-0.2698,-0.4152 -0.9158,-0.6166 -1.3395,-0.9187c-0.4541,-0.322 -0.8683,-0.6963 -1.2777,-1.0611c-0.8379,-0.7467 -1.4611,-2.2848 -1.4602,-3.4134c0.001,-1.1324 0.4874,-1.1485 0.8664,-2.1631c0.3135,-0.8379 1.0887,-1.6312 1.2778,-2.5204c0.1168,-0.5462 -0.1995,-0.9899 -0.2052,-1.5247c-0.0067,-0.5738 -0.1539,-1.5238 -0.0323,-2.0701c0.2346,-1.0507 0.8578,-1.9313 1.444,-2.8443c0.6707,-1.045 1.3528,-1.6938 1.6482,-2.9203c0.1786,-0.7324 0.21,-2.0643 -0.4569,-2.7312c-0.5273,-1.7081 -0.4085,-3.4172 -0.1245,-5.1661c0.1995,-1.2388 0.742,-2.4406 1.0583,-3.6528c0.323,-1.2407 0.8522,-2.3265 1.3091,-3.5159c0.4351,-1.1343 1.0849,-2.1964 1.6578,-3.2557c0.2964,-0.5434 0.4474,-0.9794 0.6678,-1.5238c0.209,-0.5111 0.7581,-0.8303 1.0479,-1.4088c0.3686,-0.7439 0.3847,-1.0365 1.0592,-1.5305c0.495,-0.3619 1.3262,-0.9367 1.8696,-1.2074c0.9909,-0.4969 1.4383,-0.7619 2.5137,-1.1106c0.9776,-0.3173 2.1404,-0.4303 3.2015,-0.2498c1.1609,0.1985 2.0891,0.4408 3.1863,0" fill="#ff1f00" stroke="none" stroke-width="0.95"/><path d="M308.4276,178.6567c3.0913,1.1675 7.7625,2.1717 11.819,2.1242c0.9433,-0.0114 1.6853,-0.1378 2.5488,-0.3696c1.6435,-0.4398 3.2709,-0.9709 4.9172,-1.3632c1.3091,-0.3116 1.4564,-0.6042 3.0011,-1.4507c0.7248,-0.398 1.5893,-1.0003 2.3949,-1.2103c-0.0247,1.1419 1.1277,2.2848 1.6834,3.1825c0.6603,1.065 0.7448,2.3256 1.2208,3.4751c0.9557,2.3076 1.121,4.9799 1.1903,7.4243c0.0817,2.8357 0.2603,5.0597 0.3924,7.8565c0.189,3.9795 1.0716,8.4854 1.8031,11.7762c0.6232,2.8129 1.4839,5.2544 2.5868,7.8926c0.9301,2.2239 0.8503,4.4982 2.1765,6.5816c1.1086,-0.6318 1.1048,1.4649 1.405,1.4041c0.3012,0.9471 -0.2964,1.6036 0.02,1.957c0.6536,0.7296 1.7812,1.9361 2.4738,2.6657c0.9794,1.0307 2.1223,1.9266 3.097,2.9516c0.9585,1.0127 1.8924,1.767 2.8319,2.7113c1.653,1.6511 2.6173,2.812 4.104,4.5876c1.3158,1.5665 2.8766,3.6214 3.6005,5.6221c0.1758,0.4826 0.2508,1.0564 0.2546,1.6036c0.6726,0.2175 2.7512,-0.0086 3.1464,0.6726c0.133,0.2299 0.0086,0.9433 0.0846,1.463c0.0836,0.5595 0.3106,1.3803 0.6289,1.8382c1.0326,1.4839 3.0115,3.9748 2.3398,5.8482c-1.4402,0.7325 0.2594,0.2689 -2.1261,0.9301c-3.9159,1.0839 -4.7025,2.4225 -5.5033,3.7344c-0.7277,1.1942 -1.5846,1.6948 -2.8263,2.1983c-1.519,0.6137 -5.0578,1.8782 -11.3439,0.8512c-0.741,-0.1206 -3.7791,-1.2454 -4.4688,-1.5437c-0.4551,-0.8484 -0.5425,-1.3348 -1.2768,-2.1214c-0.836,-0.8977 -1.5324,-1.6283 -1.976,-2.6638c-0.5434,-1.273 -1.1296,-1.7204 -0.6308,-2.8481c0.7676,-1.7147 -0.2964,-1.2853 -1.292,-2.3978c-1.254,-1.4069 0.1672,-4.0612 0.0028,-5.9403c-0.1843,-2.0929 -1.9513,-3.478 -3.4266,-4.8488c-1.9798,-1.8354 -3.8228,-4.9334 -5.321,-7.106c-0.2242,-0.3278 -1.2616,-1.3842 -1.5447,-1.8202c-0.3743,-0.5738 -0.8474,-0.6812 -1.2939,-1.2018c-0.7334,-0.8512 -1.7166,-1.6007 -2.355,-2.5498c-0.5311,-0.7913 -1.368,-1.8591 -1.5932,-2.7911c-0.2451,-1.0222 0.1853,-2.1346 0.1321,-3.1863c-0.0485,-0.9633 -0.172,-1.9256 -0.5634,-2.7521c-0.1852,-0.3943 -1.0991,-2.5536 -1.3053,-2.7009c-0.1843,-0.1292 -0.095,-0.094 -0.1681,-0.0579c-0.286,1.311 -0.6622,2.4985 -1.083,3.6974c-0.3116,0.8863 -0.5396,1.6786 -0.7334,2.6096c-0.5073,2.4358 -0.9405,2.1879 -1.1989,7.3027c-0.0618,1.2055 -1.0393,2.3683 -1.2778,3.5862c-0.2859,1.4516 -0.4474,2.5375 -0.8483,3.9444c-0.6831,2.3997 -1.4507,4.7947 -1.4535,7.3359c0,1.3348 0.4588,2.5422 0.5329,3.7174c0.0808,1.311 -0.8198,2.603 -1.2901,3.7496c-1.0811,2.6287 -0.208,4.9771 0.0827,7.5088c-1.2873,0.0798 -2.4159,1.5495 -3.7449,1.9979c-2.1394,0.7153 -4.5439,0.7201 -6.7621,0.8255c-1.7205,0.0836 -4.1249,0.1691 -5.6753,-0.5377c-1.198,-0.5443 -3.401,-2.9241 -3.6062,-4.2237c-1.6464,-0.5111 -3.0106,-0.2726 -4.7586,-0.3743c-0.3125,-1.1115 -1.1276,-2.3389 -0.8227,-3.9292c0.285,-1.4744 -0.4788,-2.432 -0.6365,-3.952c-0.1273,-1.2378 0.3914,-1.311 0.8674,-2.6106c0.2375,-0.6479 0.9661,-0.9139 1.4326,-1.4326c0.5329,-0.5871 1.2464,-0.8113 1.7803,-1.4354c0.6536,-0.7667 2.0843,-1.4336 2.4747,-2.3883c0.4351,-1.064 -0.0494,-2.4729 0.3135,-3.5616c0.3544,-1.0621 1.3775,-1.6302 1.901,-2.603c0.6032,-1.1267 1.8002,-3.7012 2.3978,-4.7652c1.2046,-2.1432 0.7837,-3.9995 0.7771,-6.5721c-0.0038,-1.3271 -0.8769,-6.3346 0.6403,-6.5217c0.5139,-1.7984 0.6289,-6.0449 0.741,-8.323c0.1472,-3.0001 0.7809,-5.2962 1.3889,-8.4227c0.5101,-2.6248 1.1704,-6.2339 1.7765,-8.9509c0.304,-1.3661 0.7334,-2.7692 0.8996,-4.1524c0.1786,-1.4839 0.4076,-2.3237 1.007,-3.6585c0.799,-1.7803 0.7819,-3.0457 2.0473,-4.6084c0.9804,-1.2065 1.14,-2.3969 1.9114,-3.5046" fill="#a7deff" stroke="none" stroke-width="0.95"/><path d="M316.9615,182.9203c0.2983,0.1966 0.076,1.3433 0.076,1.7052c0.0009,0.9016 0.7533,1.7252 1.12,2.5251c0.4237,0.9244 0.817,1.577 1.5419,2.3066c0.3638,0.3677 0.664,0.6916 0.9747,1.1058c0.3562,0.4769 0.7942,0.7325 1.2549,1.0678c0.6736,0.4883 1.2968,0.9158 2.0416,1.2901c0.4883,0.2451 1.0269,0.4057 1.5086,0.6432c0.6925,0.3401 1.4601,0.5424 2.1365,0.9006c0.5605,0.2954 1.1771,0.3866 1.7613,0.6194c-0.0133,0.9424 -0.8341,1.6938 -0.7942,2.6771c-0.9063,-0.1017 -1.8373,-0.0561 -2.7284,-0.3449c-0.6488,-0.2099 -1.2122,-0.2878 -1.8601,-0.5263c-0.3116,-0.1149 -0.7942,-0.2983 -1.1029,-0.4256c-0.4332,-0.1748 -1.0232,-0.5557 -1.4108,-0.817c-0.2498,-0.171 -0.4446,-0.0893 -0.684,-0.2802c-0.284,-0.2233 -0.6735,-0.4541 -0.9699,-0.6603c-0.4038,-0.284 -0.571,-0.3078 -0.8788,-0.7077c-0.2061,-0.2679 -0.7163,-0.6527 -0.9386,-0.9092c-0.5244,-0.607 -0.8578,-1.178 -1.4326,-1.7356c-0.4949,-0.4798 -0.9348,-1.3481 -1.2692,-1.9333c-0.3762,-0.6593 -0.7153,-1.3965 -1.007,-2.1061c-0.2745,-0.6641 -0.2147,-1.2151 -0.2574,-1.9304c-0.0314,-0.4931 -0.1815,-0.6394 0.265,-0.9386c0.266,-0.1815 0.5928,-0.3306 0.8712,-0.5083c0.5633,-0.36 1.1476,-0.7942 1.7803,-0.9766" fill="#ff1f00" stroke="none" stroke-width="0.95"/><path d="M279.5248,260.5818c0.3857,-0.1463 0.8911,-0.0076 1.2882,0.0447c0.5187,0.0655 1.0583,0.0399 1.5837,0.0855c1.0269,0.0921 2.0947,0.1453 3.1293,0.0427c1.5542,-0.1548 3.3145,-1.1229 4.9314,-0.5738c0.3962,0.1349 0.9947,0.2366 1.3519,0.4551c0.3828,0.2356 0.551,0.6859 0.8312,0.9908c0.2774,0.304 0.7287,0.5292 1.0042,0.8655c0.303,0.3771 0.5225,0.8151 0.8559,1.1656c0.6413,0.666 1.2474,1.2132 2.2164,1.4421c1.0146,0.2366 2.1156,0.1929 3.1549,0.1311c1.2854,-0.0741 2.471,-0.3382 3.7563,-0.2574c0.9928,0.0608 1.9437,-0.0874 2.908,-0.1767c0.2992,-0.0228 0.8426,-0.1729 1.121,-0.0751c0.4256,0.1454 0.3562,0.6441 0.4351,0.9918c0.1672,0.7543 0.4959,1.3927 0.3762,2.1974c-0.1473,0.9984 -0.2917,2.4348 -1.8991,2.2724c-0.6327,-0.0627 -1.4563,-0.3221 -2.0387,-0.5529c-0.3334,-0.1349 -0.664,-0.2404 -1.0089,-0.3458c-0.474,-0.1501 -1.2768,-0.1558 -1.6359,-0.4931c0.001,-0.0446 0.0304,-0.038 0.0314,-0.075c-0.3525,-0.3572 -0.9795,-0.3743 -1.4412,-0.4902c-0.6878,-0.171 -1.405,-0.1862 -2.1147,-0.2508c-1.3585,-0.1245 -2.7559,0.0997 -4.123,0.0389c-1.254,-0.0589 -2.4833,-0.1748 -3.7335,-0.3524c-1.4269,-0.2052 -2.6733,-0.6223 -4.0394,-1.0308c-1.652,-0.4959 -3.325,-1.044 -4.5267,-2.2999c-0.4864,-0.5092 -1.045,-1.0982 -1.4649,-1.6749c-0.1463,-0.2004 -0.2242,-0.4588 -0.3886,-0.645c-0.1691,-0.1891 -0.3325,-0.2328 -0.4455,-0.4646c-0.1007,-0.2042 -0.304,-0.683 -0.1672,-0.8806c0.0028,-0.0048 0.1843,-0.1321 0.1767,-0.1273" fill="#ff1f00" stroke="none" stroke-width="0.95"/><path d="M279.3424,260.7595c0.0789,0.0095 0.1748,0.0703 0.2546,0.0959c0.0266,0.5596 0.533,0.9367 0.7581,1.4155c0.2575,0.5472 0.286,0.8702 0.8037,1.2806c0.9747,0.7714 1.8069,1.577 2.9612,2.2021c1.9418,1.0507 4.5486,1.8962 6.7412,2.0216c0.684,0.039 1.0459,-0.0066 1.7375,0.0589c0.5605,0.0589 1.1286,0.0551 1.6872,0.0988c1.3158,0.1017 2.6733,0.0352 4.0005,0.0333c0.9053,-0.001 2.1698,-0.0922 3.0267,0.2052c0.8911,0.303 1.6435,0.8749 2.5184,1.1837c0.8968,0.3173 1.8079,0.6688 2.7351,0.8711c0.988,0.2166 0.664,0.8085 0.4018,1.5637c-0.171,0.495 -0.4123,1.5884 -0.9234,1.7338c-0.3211,0.0912 -0.759,-0.0703 -1.0849,-0.0874c-0.4674,-0.0257 -0.9006,-0.0266 -1.3623,-0.0855c-2.0102,-0.2594 -3.9187,-0.9757 -5.8482,-1.6939c-2.3322,-0.8683 -4.6369,-1.7138 -7.1288,-2.0852c-1.0896,-0.1615 -2.1185,0.0807 -3.2138,0.0446c-1.3614,-0.0446 -2.5992,-0.2916 -3.9055,-0.6992c-1.1362,-0.3553 -2.0444,-0.7229 -3.0286,-1.4231c-0.342,-0.246 -0.9604,-0.6916 -1.0982,-1.0963c-0.113,-0.3401 -0.3543,-0.6184 -0.5054,-0.9595c-0.1776,-0.4085 -0.0057,-0.8046 -0.0988,-1.2464c-0.0845,-0.4094 0.0086,-0.6735 0.0542,-1.0858c0.1016,-0.912 0.2821,-1.5571 0.6536,-2.3912" fill="#bfb3d8" stroke="none" stroke-width="0.95"/><path d="M348.8121,266.0111c1.7224,0 3.4865,0.0237 5.1756,-0.2831c1.4526,-0.2632 3.2652,-0.4503 4.5059,-1.311c0.6355,-0.4408 1.2473,-1.1077 1.7451,-1.673c0.3487,-0.3942 0.6128,-0.7752 0.9462,-1.1875c0.3382,-0.418 0.7866,-0.6317 1.1818,-0.9699c0.4047,-0.3439 0.6175,-0.6375 1.1172,-0.8693c0.4988,-0.2327 1.0412,-0.4066 1.5637,-0.6089c0.6603,-0.2565 1.9257,-0.5748 2.4482,-0.5919c0.5016,-0.0152 0.9699,0.8522 1.2416,1.2398c0.266,0.3809 0.3221,0.7638 0.2271,1.2188c-0.1786,0.8588 -0.685,1.4288 -1.1695,2.1461c-0.9937,1.4706 -2.0615,2.3218 -3.4409,3.4437c-1.6188,1.3186 -2.9896,2.5897 -4.8136,3.61c-0.7553,0.4228 -1.7699,1.0023 -2.566,1.3405c-0.7913,0.342 -1.5162,0.607 -2.3512,0.8008c-1.2911,0.305 -2.3817,0.4864 -3.687,0.8047c-0.7581,0.1814 -1.7983,0.2308 -2.5707,0.2774c-1.0013,0.057 -1.7024,0.0152 -2.679,-0.1634c-0.8569,-0.1568 -1.7052,-0.4161 -2.5526,-0.7068c-0.5786,-0.1995 -1.1362,-0.5843 -1.6597,-0.9149c-0.3249,-0.209 -1.1267,-0.7685 -1.0412,-1.2568c0.0475,-0.2926 0.456,-0.4038 0.7344,-0.5206c1.0041,-0.4228 2.1118,-0.5482 3.0827,-1.0441c0.7657,-0.3876 1.5381,-0.7733 2.2667,-1.2046c0.5738,-0.341 2.1765,-0.9101 2.1603,-1.7489" fill="#ff1f00" stroke="none" stroke-width="0.95"/><path d="M340.0864,270.6148c0.2603,0.3743 0.7628,0.4949 1.1286,0.7381c0.2641,0.1786 0.4997,0.3401 0.7771,0.4864c0.4275,0.2242 0.8284,0.532 1.2464,0.7353c1.8211,0.8987 3.9805,0.9576 5.9622,0.8512c1.2568,-0.0665 2.469,-0.4968 3.6869,-0.7628c0.8978,-0.1938 1.1676,-0.2841 1.9988,-0.4874c2.7398,-0.6697 6.0819,-2.5688 8.018,-4.5248c0.4389,-0.4456 1.0099,-0.6574 1.445,-1.0887c0.4721,-0.4684 0.9766,-0.8816 1.4763,-1.3348c0.4265,-0.3847 0.9424,-1.044 1.348,-1.4535c0.4503,-0.456 0.5092,-0.8284 0.9538,-1.2901c0.3534,-0.3695 0.4722,-0.5918 0.6603,-1.083c0.1387,-0.3657 0.2489,-0.8113 0.456,-1.1248c0.3724,-0.5652 0.6222,-0.0304 0.8673,0.4361c0.2119,0.4094 0.8474,1.2872 0.8208,1.7404c-0.0598,1.1229 -0.8911,1.5789 -1.7879,2.3645c-0.3173,0.2765 -0.6412,0.8132 -0.9785,1.0602c-0.3952,0.2869 -0.6906,0.6783 -1.0488,1.0089c-0.6659,0.6118 -1.4459,1.4459 -2.1413,1.9618c-1.1428,0.8464 -1.7983,1.5029 -2.6068,2.6951c-0.342,0.5045 -0.8056,1.0707 -1.102,1.5837c-0.3258,0.5652 -0.8151,0.7704 -1.349,1.0963c-1.4468,0.8854 -3.0333,1.1514 -4.6949,1.5152c-1.7461,0.3829 -3.6983,0.6403 -5.4824,0.7325c-1.7414,0.0902 -3.5882,0.1482 -5.3191,-0.0855c-0.9813,-0.134 -2.4652,-0.4551 -3.0286,-1.3139c-0.3733,-0.5652 -0.5177,-1.4069 -0.7913,-2.0292c-0.1815,-0.4123 -0.2793,-0.8616 -0.3487,-1.3024c-0.0456,-0.2831 -0.3078,-0.9681 -0.0855,-1.1305" fill="#bfb3d8" stroke="none" stroke-width="0.95"/><path d="M315.0472,104.1672c-0.1415,0.1073 -0.4588,0.0009 -0.2489,-0.1577c0.9529,-0.7201 2.1062,-0.7743 2.8396,0.3192c0.9538,1.4193 1.1751,3.2642 0.2071,4.7538c-1.1419,1.7575 -4.047,4.37 -5.321,1.3765c-0.0655,-0.1482 0.3164,-0.2612 0.3829,-0.1007c1.1286,2.6496 4.0194,0.001 4.7538,-1.6425c0.4075,-0.9054 0.6042,-1.9247 0.2698,-2.8956c-0.4133,-1.217 -1.3243,-2.8282 -2.8833,-1.653zM312.9952,110.4647c0.0627,0.1511 -0.3173,0.2632 -0.3847,0.1026c-0.2689,-0.6403 0.1928,-0.9785 0.8103,-1.0089c1.1904,-0.0617 2.547,0.4019 3.1103,-1.0621c0.0561,-0.1463 0.4408,-0.1662 0.3648,0.0323c-0.2935,0.76 -1.0165,1.2977 -1.8382,1.3585c-0.5377,0.0399 -2.4814,-0.4218 -2.0625,0.5776zM317.4555,106.0928c0.0161,0.1729 -0.3715,0.2641 -0.3829,0.1045c-0.0978,-1.0858 -1.5428,-1.006 -2.1375,-0.3629c-0.5728,0.6156 -0.9794,1.3595 -1.5722,1.9589c-0.1102,0.1112 -0.4845,0.0703 -0.3173,-0.0988c0.8787,-0.8911 1.3613,-2.2714 2.6942,-2.5526c0.7476,-0.1568 1.6397,0.0864 1.7157,0.9509zM299.1328,94.4392c0.096,-0.1311 0.4598,-0.0979 0.3183,0.0959c-0.8389,1.141 -1.7005,2.547 -1.8943,3.9786c-0.2052,1.4839 0.1501,2.8481 0.4778,4.2817c0.3183,1.4022 0.4285,3.0989 -0.5472,4.274c-0.1026,0.1216 -0.4721,0.0846 -0.3182,-0.0988c1.595,-1.9171 0.1396,-4.8326 -0.0713,-6.9521c-0.2023,-2.0282 0.8769,-4.0071 2.0349,-5.5793zM297.1958,106.9364c0.0693,-0.1396 0.4579,-0.1567 0.3667,0.0304c-0.3439,0.7087 -0.8313,1.2018 -1.4174,1.7195c-0.418,0.3696 -1.2673,0.951 -1.0089,1.634c0.2527,0.6631 0.7628,0.9234 1.4573,1.0346c1.0003,0.1605 0.7552,1.0868 0.6536,1.8667c-0.0209,0.1606 -0.4133,0.2195 -0.3886,0.0352c0.0865,-0.6565 0.3914,-1.5134 -0.74,-1.6948c-0.1815,-0.0266 -0.5054,-0.1444 -0.6631,-0.2575c-0.4161,-0.303 -0.6679,-0.6061 -0.7334,-1.1286c-0.0542,-0.4275 0.2935,-0.8407 0.5814,-1.1096c0.7134,-0.6697 1.4535,-1.2274 1.8924,-2.1299zM297.0856,111.1535c-0.228,-0.0741 0.075,-0.2936 0.2251,-0.2442c0.3601,0.1178 0.7296,0.3696 1.1106,0.399c0.608,0.0466 0.797,-0.4455 0.4683,-0.9053c-0.1064,-0.152 0.2603,-0.2955 0.3534,-0.1634c0.3477,0.4873 0.2337,1.083 -0.3781,1.2711c-0.6507,0.1995 -1.1818,-0.1625 -1.7793,-0.3572zM300.2937,114.468c0.1121,0.1473 -0.2574,0.2926 -0.3543,0.1615c-0.6622,-0.8806 -1.9181,-1.1637 -2.9555,-1.2616c-0.2584,-0.0247 -0.038,-0.2783 0.1387,-0.2603c1.1144,0.1083 2.4605,0.4161 3.1711,1.3604zM296.8718,113.2226c0.0798,-0.1321 0.4722,-0.1425 0.3639,0.0323c-1.5504,2.526 3.0257,2.488 4.2816,1.5143c0.1397,-0.1074 0.456,-0.0038 0.2499,0.1567c-1.425,1.1049 -6.6586,1.1714 -4.8954,-1.7033zM297.5264,115.267c0.0798,-0.1321 0.4731,-0.1425 0.3638,0.0313c-0.4132,0.684 -0.4047,1.4383 0.4532,1.7186c0.6327,0.2071 1.406,0.2194 2.0121,-0.0808c0.1871,-0.0921 0.4018,0.0884 0.1643,0.2052c-0.7191,0.3572 -1.7461,0.4047 -2.4861,0.0874c-0.9082,-0.3866 -0.9918,-1.1599 -0.5073,-1.9617zM298.8307,117.4149c-0.1824,-0.0826 0.1596,-0.2736 0.2993,-0.209c1.3176,0.5957 0.4379,2.4653 1.2312,3.4029c1.2777,1.5077 3.6575,0.5653 5.2231,0.0627c4.0508,-1.2929 8.512,-4.2512 8.8568,-8.9385c0.0124,-0.1596 0.4028,-0.2223 0.3886,-0.0352c-0.3487,4.7206 -4.864,7.8366 -8.9661,9.1485c-1.558,0.4959 -3.307,1.159 -4.9391,0.6175c-1.9807,-0.6574 -0.5529,-3.3516 -2.0938,-4.0489zM315.3465,111.4166c0.0114,-0.1596 0.4028,-0.2223 0.3885,-0.0342c-0.1453,2.1005 0.4446,4.5591 1.0707,6.5655c0.6526,2.089 1.5846,4.2028 3.4447,5.4824c0.1738,0.1197 -0.1701,0.3012 -0.2993,0.2138c-1.7765,-1.2236 -2.7911,-3.2319 -3.4209,-5.245c-0.6745,-2.1603 -1.3424,-4.7091 -1.1837,-6.9825zM308.7915,125.8519c-0.0048,0.1586 -0.3952,0.2242 -0.3867,0.0342c0.0257,-0.7648 0.1501,-1.4687 -0.1016,-2.204c-0.3971,-1.1562 -0.9937,-2.0767 -1.5875,-3.1274c-0.0931,-0.1663 0.2765,-0.3012 0.3544,-0.1644c0.6469,1.1486 1.3024,2.1005 1.6824,3.3868c0.1995,0.6792 0.0627,1.3775 0.039,2.0748zM305.4627,103.0319c0.1767,0.1178 -0.1701,0.2974 -0.3002,0.2109c-0.9576,-0.6469 -2.0767,-1.6055 -3.2756,-1.6796c-1.0593,-0.0646 -2.1071,0.1121 -3.1664,0.039c-0.2603,-0.0181 -0.0361,-0.2717 0.1387,-0.2603c1.1647,0.0807 2.4833,-0.2964 3.6205,0.0456c1.1143,0.3372 2.0263,0.9956 2.983,1.6444z" fill="#010101" stroke="none" stroke-width="0.95"/><path d="M308.1103,86.9608c-0.1149,0.0779 -0.4512,0.0446 -0.2356,-0.1017c2.3304,-1.576 4.9324,-1.7822 7.6713,-1.6824c0.2612,0.0104 -0.0143,0.2118 -0.153,0.2061c-2.5935,-0.095 -5.0635,0.0779 -7.2827,1.578zM315.9279,103.4965c-0.0523,0.1206 -0.4313,0.1662 -0.3848,0.0503c1.0194,-2.4424 2.2268,-6.174 1.1581,-8.7685c-1.2958,-3.1445 -4.2608,-5.4302 -6.9882,-7.2893c-0.0979,-0.0627 0.2498,-0.2176 0.3581,-0.1463c2.6515,1.8088 6.1902,4.3386 7.1127,7.6171c0.7657,2.7122 -0.2081,6.023 -1.2559,8.5367zM317.8127,104.4066c-0.0789,0.0864 -0.4617,0.1149 -0.3582,-0.0048c2.5584,-2.7778 5.1671,-6.6747 4.2161,-10.6561c-0.7476,-3.1341 -3.2889,-7.0528 -6.3564,-8.3781c-0.153,-0.0665 0.2004,-0.2261 0.3078,-0.1786c1.6824,0.7277 3.0343,2.243 4.0888,3.7012c1.1105,1.5352 2.1812,3.2747 2.4282,5.1956c0.5054,3.9767 -1.7357,7.5088 -4.3263,10.3208z" fill="#010101" stroke="none" stroke-width="0.95"/><path d="M299.243,94.4857c-0.114,0.1406 -0.6346,0.1653 -0.4797,-0.0256c1.1761,-1.463 3.3582,-1.6616 5.1053,-1.6445c2.2154,0.019 4.7614,0.2185 6.6918,1.4127c1.9304,1.1979 3.8161,3.4428 2.7949,5.8539c-1.2645,2.983 -3.5169,5.8453 -0.7201,8.7675c0.1491,0.1558 -0.3373,0.3496 -0.475,0.209c-1.6654,-1.7404 -1.749,-3.8465 -0.8009,-5.9964c0.5111,-1.1609 1.5219,-2.3949 1.6872,-3.6613c0.1606,-1.2264 -0.1947,-2.4092 -1.0193,-3.344c-1.6103,-1.8297 -3.7991,-2.5564 -6.1541,-2.8006c-1.9998,-0.2071 -5.2079,-0.5386 -6.6301,1.2293zM310.1348,89.2246c0.2289,0.1093 -0.2394,0.342 -0.4066,0.2613c-2.1261,-1.0184 -5.1158,-1.0412 -7.2495,-0.0333c-1.1656,0.5491 -2.6438,1.3946 -2.9602,2.7721c-0.1672,0.7344 -0.0684,1.4849 -0.2622,2.2183c-0.0503,0.1919 -0.57,0.2631 -0.5149,0.057c0.3591,-1.3452 0.0979,-2.4007 1.027,-3.5682c0.6954,-0.8683 1.8772,-1.52 2.9089,-1.882c2.3446,-0.8255 5.1794,-0.9167 7.4575,0.1748zM310.093,87.2866c0.227,0.1083 -0.2385,0.3411 -0.4047,0.2641c-2.2582,-1.0706 -5.7789,-0.608 -7.8575,0.703c-1.1362,0.7163 -2.3484,1.7566 -2.4909,3.1892c-0.1073,1.0678 0.0371,2.1346 -0.1045,3.2005c-0.0247,0.1938 -0.5443,0.2803 -0.5149,0.057c0.209,-1.577 -0.3201,-3.4276 0.7429,-4.7956c0.7382,-0.9509 1.673,-1.7261 2.7788,-2.222c2.2914,-1.027 5.5062,-1.5077 7.8508,-0.3962zM332.8056,98.4624c-0.1549,-0.1368 0.3258,-0.3372 0.4721,-0.2071c1.368,1.2008 1.3367,-2.5593 1.2664,-2.8956c-0.2508,-1.1979 -0.7752,-2.261 -1.5865,-3.1834c-1.6711,-1.9 -3.8181,-3.3222 -6.1095,-4.3719c-1.6283,-0.7429 -3.3316,-1.4003 -5.0758,-1.8174c-1.1429,-0.2726 -2.3332,-0.5377 -3.5065,-0.5956c-0.7068,-0.0342 -1.7461,-0.229 -2.4092,0.0418c-0.2422,0.0988 -0.5415,-0.1026 -0.2109,-0.2394c0.7543,-0.3087 1.7898,-0.1682 2.5783,-0.1302c1.3927,0.0665 2.8016,0.3363 4.1468,0.6954c2.6201,0.703 5.2478,1.7376 7.5259,3.2186c2.4149,1.5675 5.2639,3.9321 5.244,7.0975c-0.0057,1.2264 -0.7372,3.7924 -2.3351,2.3873zM315.8281,110.783c0.0713,-0.1701 0.5852,-0.2185 0.4817,0.0218c-0.3392,0.7999 -0.7154,1.4811 -0.5577,2.3912c0.1169,0.6754 0.2917,1.3357 0.4969,1.9902c0.3429,1.0925 0.7552,2.2468 1.4867,3.1464c0.7068,0.8683 3.7744,3.0334 3.9131,0.5349c0.0817,-1.445 -0.6289,-2.489 -1.5495,-3.5312c-0.1453,-0.1672 0.3458,-0.3553 0.4741,-0.2109c0.9215,1.045 2.3465,3.0172 1.3575,4.4774c-0.6279,0.9291 -1.8107,0.8968 -2.7588,0.456c-1.6748,-0.7771 -2.641,-2.3731 -3.2186,-4.0708c-0.3382,-0.9984 -0.6583,-2.0197 -0.7514,-3.0751c-0.0665,-0.7961 0.3296,-1.4326 0.626,-2.1299zM320.0547,115.3306c-0.1283,-0.1871 0.3676,-0.3657 0.4759,-0.2071c0.5206,0.7581 0.9956,1.5713 1.6321,2.242c0.4465,0.4712 1.387,1.4659 2.1632,0.8911c0.5966,-0.4398 0.9395,-1.0744 0.8398,-1.8268c-0.2413,-1.8164 -1.5713,-3.5967 -3.0039,-4.693c-0.2109,-0.1625 0.2584,-0.3762 0.4037,-0.2632c1.6359,1.2531 4.2836,4.4451 2.5954,6.5265c-1.9047,2.3494 -4.1705,-1.3034 -5.1062,-2.6695zM326.6505,100.4736c-0.2213,-0.1416 0.248,-0.3639 0.4028,-0.2632c1.6017,1.0384 3.1569,2.2458 4.4137,3.6879c0.3952,0.4513 0.8512,1.0137 1.4782,1.1372c1.1315,0.2242 1.6616,-0.2812 1.6739,-1.1723c0.0152,-1.1229 -0.1852,-2.2392 -0.6365,-3.2718c-1.5808,-3.6157 -5.091,-7.1716 -9.0278,-8.0541c-0.3002,-0.0675 0.1282,-0.3401 0.3068,-0.2993c2.5337,0.5662 4.5866,2.09 6.2871,3.9834c1.8649,2.0757 3.44,4.2303 3.5891,7.1259c0.0893,1.7794 -1.2806,2.4358 -2.8281,1.8706c-0.8959,-0.3278 -1.4326,-1.33 -2.0919,-1.9523c-1.0944,-1.0374 -2.3019,-1.9741 -3.5673,-2.792zM325.6359,108.54c-0.1425,-0.171 0.3506,-0.3581 0.475,-0.2071c0.5273,0.6356 1.1837,1.0887 1.6502,1.786c0.6203,0.9301 1.1618,1.9162 1.8791,2.7778c0.5681,0.685 1.9874,1.9437 2.7217,0.5938c0.1672,-0.3059 0.2784,-0.6365 0.3069,-0.9852c0.0636,-0.7904 -0.038,-1.5827 -0.2261,-2.3512c-0.8237,-3.3649 -2.5365,-7.5478 -5.5898,-9.4212c-0.2233,-0.1368 0.246,-0.36 0.4037,-0.2631c2.1252,1.3034 3.5473,3.7563 4.4926,6.0049c0.7448,1.7765 1.7242,4.0005 1.4364,5.9746c-0.1967,1.3404 -1.6492,2.6752 -3.0068,1.6435c-1.0573,-0.8018 -1.7214,-1.957 -2.4263,-3.0562c-0.626,-0.9747 -1.3955,-1.6292 -2.1166,-2.4966zM323.0899,112.5832c-0.2299,-0.094 0.2356,-0.3334 0.4019,-0.2631c1.595,0.6583 2.1574,2.3113 2.9089,3.7268c0.2584,0.4864 0.5377,1.0213 0.9348,1.4155c1.1029,1.0916 2.3854,0.1615 2.4215,-1.0193c0.0342,-1.1258 -0.1748,-2.2278 -0.626,-3.2576c-0.077,-0.1776 0.4284,-0.3325 0.513,-0.1377c0.513,1.1704 1.1029,3.2366 0.3258,4.4374c-0.3885,0.6033 -1.1533,1.2369 -1.9446,0.9396c-2.6211,-0.9909 -2.3437,-4.7728 -4.9353,-5.8416zM308.3583,92.3368c0.2992,0.0627 -0.1273,0.3373 -0.3078,0.2964c-2.946,-0.6279 -6.2178,-0.6726 -8.6374,1.3813c-0.1387,0.1188 -0.6479,0.0912 -0.4161,-0.1054c2.6248,-2.2259 6.1436,-2.261 9.3613,-1.5723zM324.2898,103.7843c0.133,0.1843 -0.362,0.3648 -0.4741,0.209c-1.0146,-1.4212 -2.375,-2.032 -4.0821,-2.2591c-0.3439,-0.0456 -0.0228,-0.3448 0.1938,-0.3163c1.8088,0.2413 3.2813,0.8512 4.3624,2.3664zM324.0969,91.7507c0.1549,0.1349 -0.3268,0.3363 -0.4731,0.209c-0.7163,-0.6175 -1.6074,-0.6413 -2.4823,-0.3838c-0.3078,0.0921 -0.381,-0.1948 -0.077,-0.286c1.0583,-0.3135 2.1651,-0.2878 3.0324,0.4608zM325.2873,99.06c0.0779,0.1776 -0.4285,0.3334 -0.513,0.1377c-0.532,-1.2074 -1.5808,-2.1194 -2.9659,-1.9028c-0.3544,0.0551 -0.1957,-0.2736 0.0617,-0.3126c1.5675,-0.2422 2.8016,0.6802 3.4172,2.0777zM317.1363,109.6411c-0.0238,-0.2119 0.4911,-0.3306 0.5139,-0.1378c0.1273,1.084 0.4551,2.2677 1.4659,2.8405c0.2251,0.1264 -0.2442,0.3544 -0.4038,0.2632c-1.0668,-0.6071 -1.4383,-1.8155 -1.576,-2.9659zM314.7613,104.0009c0.1795,-0.1121 0.6194,-0.0066 0.3239,0.1777c-1.6729,1.045 -2.7369,2.5716 -2.6001,4.597c0.0142,0.2138 -0.5007,0.3259 -0.513,0.1387c-0.1454,-2.1698 0.9994,-3.7971 2.7892,-4.9134z" fill="#000000" stroke="none" stroke-width="0.95"/><path d="M329.5556,195.0603c0.1349,0.0447 -0.2128,0.1976 -0.3116,0.1625c-3.0058,-1.0317 -6.1332,-2.0786 -8.4284,-4.3909c-2.0092,-2.0254 -4.1724,-4.7614 -4.0878,-7.7653c0.0038,-0.1292 0.3866,-0.1872 0.3847,-0.1036c-0.0855,2.9621 2.034,5.7637 4.0622,7.7292c2.3437,2.2715 5.359,3.3288 8.3809,4.3681zM313.6754,184.9267c0.0029,-0.1302 0.3867,-0.1881 0.3838,-0.1026c-0.0978,3.1578 2.3693,6.5141 4.5277,8.6127c2.7541,2.6771 6.4106,3.971 10.184,4.313c0.2033,0.018 -0.1463,0.1862 -0.2441,0.1786c-3.7497,-0.3382 -7.601,-1.6103 -10.3009,-4.3529c-2.1356,-2.1717 -4.6502,-5.4473 -4.5505,-8.6488zM316.6822,182.9545c0.0798,-0.058 0.4655,-0.0855 0.2992,0.0332c-0.9671,0.6926 -2.1964,1.0479 -3.0276,1.9219c-0.0713,0.075 -0.4503,0.114 -0.3525,0.0152c0.8522,-0.8978 2.0919,-1.2588 3.0809,-1.9703zM329.1661,195.2152c0.0551,-0.1064 0.4228,-0.1397 0.381,-0.0599c-0.3943,0.7619 -0.8227,1.6663 -0.7505,2.546c0.0104,0.1235 -0.3772,0.1976 -0.3848,0.1026c-0.0731,-0.9006 0.3506,-1.8116 0.7543,-2.5887z" fill="#000000" stroke="none" stroke-width="0.95"/><path d="M344.1277,224.3251c0.0313,0.0883 -0.475,0.2451 -0.513,0.1368c-2.5859,-7.2884 -5.2782,-14.8837 -6.0715,-22.6214c-0.4873,-4.7348 0.038,-9.5437 -0.7438,-14.2548c-0.3658,-2.1897 -0.8455,-4.4564 -1.6777,-6.5236c-0.665,-1.6511 -1.8174,-3.1531 -2.3475,-4.8374c-0.0266,-0.096 0.4807,-0.2423 0.514,-0.1387c0.5795,1.8487 1.8677,3.4276 2.5118,5.2801c0.7353,2.1194 1.2939,4.3614 1.5874,6.5892c0.5966,4.5676 0.1549,9.1817 0.6688,13.7503c0.8759,7.7491 3.4789,15.3007 6.0715,22.6195zM308.3649,178.4144c0.0789,-0.1216 0.5292,-0.1358 0.5026,-0.0969c-1.8516,2.8453 -3.3877,5.7684 -4.3634,9.0279c-1.0849,3.6252 -1.9342,7.3169 -2.603,11.0418c-1.368,7.6314 -2.7426,15.4347 -3.0029,23.1933c-0.0048,0.1387 -0.5149,0.1986 -0.5111,0.1387c0.2631,-7.9021 1.6406,-15.8963 3.0884,-23.6635c0.665,-3.5758 1.4602,-7.1326 2.5242,-10.6125c0.9975,-3.2566 2.507,-6.1769 4.3652,-9.0288zM308.3583,178.4353c0.0304,-0.1491 0.5215,-0.1729 0.512,-0.1387c-1.5437,7.98 -0.0076,15.998 2.8605,23.5021c1.425,3.7316 3.1036,7.3606 4.8488,10.9544c0.8521,1.7556 1.747,3.4951 2.5669,5.2659c0.7999,1.7242 1.4715,3.515 2.4899,5.1281c0.0314,0.0532 -0.4389,0.2574 -0.513,0.1387c-1.0222,-1.6207 -1.6615,-3.4096 -2.4899,-5.131c-0.8465,-1.7594 -1.7157,-3.5055 -2.5669,-5.2658c-1.7404,-3.5929 -3.4457,-7.2134 -4.8488,-10.9545c-2.8291,-7.5344 -4.408,-15.4878 -2.8595,-23.4992zM340.1624,228.2087c-0.2461,-0.0143 0.2375,-0.1995 0.3353,-0.1938c1.7233,0.0997 3.4447,-1.9599 3.0286,-3.6404c-0.0247,-0.1026 0.4883,-0.2366 0.513,-0.1378c0.5263,2.1138 -1.9057,4.0831 -3.8769,3.972zM343.5938,230.2759c-0.0903,0.1178 -0.5282,0.1273 -0.5092,0.0978c0.6441,-0.8588 1.4326,-1.6824 1.8781,-2.6714c0.2584,-0.5719 0.513,-1.2749 0.2964,-1.9038c-0.0836,-0.2403 -0.7267,-1.6368 -1.1371,-1.1865c-0.0998,0.114 -0.5197,0.1159 -0.5035,0.0988c0.7932,-0.8721 1.9579,-0.0713 2.1565,0.9528c0.3505,1.806 -1.1885,3.2889 -2.1812,4.6123zM317.0403,227.2672c-0.0902,0.1169 -0.5282,0.1235 -0.5063,0.0988c0.8322,-1.0934 0.4807,-2.3246 0.9804,-3.5425c0.6118,-1.4896 1.2701,-3.0609 1.4924,-4.6702c0.02,-0.1454 0.5206,-0.1805 0.513,-0.1378c-0.228,1.6511 -0.9509,3.1569 -1.5019,4.712c-0.4503,1.273 -0.133,2.4311 -0.9776,3.5397zM362.4266,248.2746c0.0256,0.1035 -0.4883,0.2365 -0.513,0.1396c-0.5206,-2.0767 -1.786,-4.1562 -2.9621,-5.927c-1.4288,-2.147 -3.1341,-4.0784 -4.9562,-5.8976c-2.9858,-2.984 -6.2738,-5.6858 -8.9822,-8.9405c-0.0219,-0.0323 0.4161,-0.2536 0.512,-0.1387c2.9963,3.5967 6.7061,6.5028 9.9161,9.8924c1.5609,1.6482 3.078,3.381 4.2655,5.3238c1.0488,1.7223 2.2249,3.5777 2.7199,5.548zM368.6899,257.2948c0.0295,0.0874 -0.474,0.2451 -0.5139,0.1359c-0.3382,-0.9472 -0.6327,-1.9238 -1.0707,-2.8301c-0.4265,-0.8835 -1.0307,-1.6036 -1.5323,-2.4386c-0.4076,-0.6774 -0.7439,-1.4013 -0.8389,-2.1964c-0.0978,-0.8246 -0.3363,-1.3291 -1.2863,-1.4839c-0.5614,-0.0922 -1.1172,-0.1359 -1.69,-0.1178c-0.2413,0.0095 0.2384,-0.1881 0.3363,-0.1929c1.063,-0.0294 2.0539,0.1435 3.0628,0.4788c0.0038,0.0057 0.0114,0.0105 0.0152,0.0162c0.0285,1.5114 0.4284,2.773 1.3452,3.9852c1.0564,1.4013 1.5874,3.0077 2.1726,4.6436zM341.8363,264.1529c-0.0257,-0.0105 0.3448,-0.2185 0.4845,-0.1644c2.5792,0.9348 4.9856,2.0872 7.808,1.9713c2.7997,-0.1159 6.8191,-0.2299 9.0146,-2.1888c1.424,-1.2711 2.4643,-3.3963 4.2902,-4.1705c0.9699,-0.4114 4.636,-1.0906 4.6768,-2.299c0.0057,-0.1387 0.5159,-0.1986 0.514,-0.1378c-0.0447,1.2816 -3.5112,1.9542 -4.3919,2.281c-2.6429,0.9842 -3.6936,4.0897 -6.2795,5.2896c-2.3218,1.0773 -5.3019,1.2967 -7.8166,1.3984c-3.0305,0.1273 -5.5147,-0.97 -8.3001,-1.9798zM339.7691,253.6943c0.0893,-0.1178 0.5253,-0.1254 0.5073,-0.0959c-0.5824,0.7628 -1.1391,1.5456 -1.6958,2.3256c-0.5386,0.7638 -0.7562,0.9652 -0.2622,1.8582c1.1723,2.1308 2.7284,4.0498 3.8209,6.2149c0.0333,0.0684 -0.455,0.2546 -0.5139,0.1387c-1.1628,-2.3038 -3.0505,-4.2427 -4.0489,-6.6377c-0.2765,-0.665 0.1026,-0.9215 0.4959,-1.4763c0.5576,-0.7828 1.1162,-1.5637 1.6967,-2.3275zM336.446,247.8072c0.0009,-0.1359 0.5139,-0.2014 0.512,-0.1349c-0.0114,1.0801 -0.075,2.1584 -0.2175,3.2357c-0.0884,0.665 -0.5833,1.9703 -0.1843,2.5925c0.6013,0.9339 1.8838,1.0555 2.3284,2.1366c0.0295,0.0798 -0.4674,0.247 -0.5139,0.1387c-0.418,-1.0251 -2.2534,-1.2616 -2.4083,-2.3503c-0.1282,-0.9054 0.2271,-1.9285 0.323,-2.8339c0.0969,-0.9291 0.1511,-1.8525 0.1606,-2.7844zM320.7463,222.673c-0.001,-0.1349 0.512,-0.2042 0.5139,-0.1339c0.0105,2.4747 -0.2802,5.3067 1.4611,7.2779c1.7452,1.9751 3.5359,3.8874 5.2174,5.9195c1.7414,2.1023 3.1626,4.4555 4.8726,6.5911c0.8597,1.0725 1.7841,2.0976 2.7122,3.1065c0.5843,0.6336 1.1771,1.4088 1.4364,2.2372c0.0295,0.0931 -0.4797,0.2413 -0.512,0.1378c-0.3848,-1.2179 -1.3785,-2.1252 -2.2297,-3.0248c-0.7856,-0.8294 -1.5143,-1.7984 -2.2182,-2.7018c-1.6825,-2.1565 -3.1113,-4.504 -4.8887,-6.5797c-1.008,-1.1742 -1.9732,-2.395 -3.0324,-3.5264c-0.7182,-0.7629 -1.5086,-1.5029 -2.1252,-2.3513c-1.444,-1.9731 -1.1989,-4.5932 -1.2074,-6.9521zM332.398,235.6386c0.0532,0.0352 -0.3714,0.2451 -0.4854,0.1663c-2.6315,-1.7357 -5.3343,-3.4048 -8.3676,-4.3377c-0.134,-0.0418 0.3144,-0.2185 0.4246,-0.1853c3.0562,0.9396 5.776,2.6068 8.4284,4.3567zM329.8511,230.1324c-0.0751,0.1216 -0.5311,0.1378 -0.5007,0.0969c0.6622,-1.063 1.1638,-2.4139 0.931,-3.6879c-0.0247,-0.1406 -0.5576,-2.4453 -1.272,-1.2692c-0.21,0.3458 -0.3914,0.7125 -0.4845,1.1096c-0.3572,1.5238 -0.1444,4.4973 -1.7195,5.4255c-0.0846,0.0503 -0.5995,0.1244 -0.3867,0c2.2563,-1.3281 0.1625,-6.3099 3.0286,-7.0053c0.7876,-0.191 1.1552,0.5586 1.2768,1.2264c0.267,1.4659 -0.0912,2.8519 -0.873,4.104zM293.5601,240.4931c-0.0817,0.1226 -0.5301,0.134 -0.5063,0.0979c2.1489,-3.1521 4.256,-6.6073 4.7329,-10.4719c0.2365,-1.9123 -0.0475,-3.4675 -0.4161,-5.3238c-0.3392,-1.7033 -0.0162,-3.2129 1.0089,-4.6141c0.0598,-0.0817 0.5367,-0.1986 0.5044,-0.0969c-0.0133,0.075 -0.0456,0.1387 -0.0988,0.1976c-0.0845,0.1197 -0.5301,0.132 -0.5044,0.0969c0.0532,-0.057 0.0855,-0.1226 0.0988,-0.1976c0.1691,-0.0342 0.3363,-0.0637 0.5044,-0.0969c-1.2321,1.6824 -1.3053,3.4171 -0.7828,5.377c0.4722,1.766 0.3819,3.59 0.0589,5.3798c-0.6412,3.5464 -2.6001,6.7175 -4.5999,9.652zM316.5311,227.3841c-0.0038,-0.133 0.5111,-0.2071 0.5111,-0.134c0.0352,1.4355 -0.1387,2.9298 -0.3999,4.3415c-0.2964,1.5941 -1.0308,3.0514 -1.4155,4.6294c-0.6308,2.5906 -1.2673,5.1965 -1.7651,7.8175c-0.4019,2.1147 -0.1872,4.2741 -0.6242,6.3679c-0.0247,0.1168 -0.5253,0.1947 -0.5044,0.0969c0.2679,-1.2778 0.1605,-2.5289 0.2479,-3.8171c0.0808,-1.1894 0.3363,-2.3551 0.5738,-3.5217c0.4361,-2.1346 0.9405,-4.2655 1.4564,-6.383c0.4436,-1.8145 1.2882,-3.5179 1.5722,-5.3599c0.2043,-1.3262 0.38,-2.6914 0.3477,-4.0375zM286.4104,251.5369c-0.0513,0.1263 -0.532,0.1653 -0.5035,0.1007c0.4237,-1.0108 0.6821,-1.957 1.4963,-2.736c0.8721,-0.8341 1.861,-1.501 2.8091,-2.242c1.0678,-0.8351 2.4111,-1.8212 2.4263,-3.3079c0.0105,-1.0251 -0.1387,-1.9969 0.4171,-2.9061c0.075,-0.1225 0.5301,-0.1387 0.5044,-0.0959c-0.684,1.1124 -0.2688,2.375 -0.512,3.591c-0.171,0.8455 -1.1115,1.6425 -1.7509,2.1641c-0.9281,0.759 -1.9513,1.4088 -2.849,2.204c-1.1096,0.9861 -1.4849,1.9095 -2.0378,3.2281zM285.9031,251.458c-0.0142,-0.1235 0.5035,-0.2185 0.513,-0.1387c0.1615,1.5685 0.5206,3.1179 0.475,4.6959c-0.0408,1.3955 -0.1254,2.9925 0.8161,4.1363c0.0228,0.0323 -0.418,0.2546 -0.513,0.1387c-0.9415,-1.1419 -0.8588,-2.7408 -0.817,-4.1373c0.0475,-1.5779 -0.3135,-3.1283 -0.4741,-4.6949zM287.4687,260.2911c-0.2983,0.0684 -0.3372,-0.0674 -0.037,-0.1349c1.3898,-0.323 3.0286,-0.57 4.3149,0.2328c1.4953,0.9357 2.1128,2.5621 3.3592,3.7316c1.1685,1.1001 2.5773,1.0117 4.0992,0.9623c1.2835,-0.0418 2.5631,-0.0247 3.8447,-0.0741c1.785,-0.0712 4.2237,0.0713 5.8197,-0.8464c0.8816,-0.5045 1.6853,-1.1239 2.5336,-1.6787c0.0836,-0.0541 0.5957,-0.1358 0.3886,-0.0009c-1.4478,0.949 -2.8405,2.166 -4.6218,2.4044c-2.7474,0.3667 -5.5347,0.3021 -8.3001,0.3867c-0.9006,0.0237 -2.2192,0.2014 -3.0761,-0.1786c-0.9329,-0.4142 -1.558,-1.1818 -2.1432,-1.9912c-1.6568,-2.2924 -3.1597,-3.5141 -6.1817,-2.813zM312.5706,250.2743c-0.0295,-0.0912 0.4769,-0.2451 0.5139,-0.1425c0.6422,1.8886 -0.6089,3.6053 -1.0488,5.3951c-0.57,2.3161 -0.5481,4.4868 0.0656,6.7858c0.0266,0.1007 -0.4864,0.2385 -0.513,0.1387c-0.5187,-1.9427 -0.6983,-3.9197 -0.2708,-5.9004c0.4285,-1.9855 1.9447,-4.2456 1.2531,-6.2767zM290.7481,247.8252c-0.0465,-0.0247 0.3591,-0.2375 0.4836,-0.1653c2.1869,1.1809 3.6603,3.5407 5.547,5.1281c0.4959,0.4199 1.1334,1.0916 1.748,1.3177c0.856,0.3192 0.894,-1.0013 0.7809,-1.4355c-0.2527,-0.9623 -0.7714,-1.7803 -1.3271,-2.5925c-0.0304,-0.0428 0.4332,-0.2565 0.513,-0.1387c0.5937,0.8702 1.7736,2.3949 1.3195,3.5321c-0.228,0.5719 -0.7372,1.0478 -1.405,0.9357c-0.7391,-0.1235 -1.5742,-0.9718 -2.1119,-1.4506c-0.6916,-0.6137 -1.3442,-1.2588 -1.994,-1.9162c-1.1125,-1.1276 -2.1432,-2.451 -3.554,-3.2148z" fill="#000000" stroke="none" stroke-width="0.95"/><path d="M300.4828,104.1026c-0.0675,-0.1121 0.1776,-0.2071 0.2346,-0.1112c0.5453,0.8911 0.1492,2.5394 -1.0887,2.4463c-0.1748,-0.0114 -0.0313,-0.19 0.0903,-0.1805c1.0279,0.0769 1.1656,-1.501 0.7638,-2.1546zM299.3998,103.6931c0.0722,-0.0845 0.3192,-0.0513 0.2137,0.0703c-0.6545,0.7648 -0.7999,1.9314 0.1615,2.5128c0.1216,0.0741 -0.1054,0.2014 -0.1985,0.1425c-1.0412,-0.628 -0.8902,-1.8972 -0.1767,-2.7256z" fill="#000000" stroke="none" stroke-width="0.95"/><path d="M303.2796,105.2844c0.0427,-0.1292 0.4265,-0.1786 0.3819,-0.0494c-0.0646,0.1909 -0.2366,0.2774 -0.3981,0.3762c-0.0598,0.037 -0.3838,0.1035 -0.2973,-0.0589c0.0959,-0.1777 0.2812,-0.2746 0.4712,-0.3202c0.0389,-0.0095 0.2166,-0.0389 0.2175,0.0418c0.001,0.038 0.0086,0.0751 0.0095,0.1131c-0.1235,0.018 -0.2479,0.0323 -0.3733,0.0494c0.0313,-0.0361 0.0712,-0.0637 0.1016,-0.0988c0.0618,-0.0713 0.1606,-0.1055 0.2537,-0.1036c0.0522,0.001 0.1662,0.038 0.1035,0.1093c-0.0304,0.0361 -0.0703,0.0636 -0.1007,0.0988c-0.0513,0.0589 -0.1263,0.0902 -0.2052,0.0997c-0.0342,0.0038 -0.1634,0.0076 -0.1653,-0.0532c-0.0009,-0.038 -0.0076,-0.075 -0.0085,-0.1121c0.0731,0.0143 0.1453,0.0276 0.2175,0.0418c-0.0836,0.02 -0.1244,0.0637 -0.1643,0.1387c-0.0988,-0.0199 -0.1976,-0.0389 -0.2964,-0.0589c0.0959,-0.056 0.2137,-0.1016 0.2527,-0.2137zM303.6662,105.4183c-0.0902,0.0817 -0.474,0.0884 -0.3078,-0.0589c0.3145,-0.2812 -0.7714,-0.6089 -0.873,-0.646c-0.6166,-0.2251 -1.2749,-0.3344 -1.9029,-0.5225c-0.7505,-0.2251 -1.3965,-0.4408 -1.9703,-0.9956c-0.0988,-0.0988 0.2613,-0.2422 0.3572,-0.1501c1.0213,0.988 2.5337,1.0488 3.8228,1.4839c0.3477,0.1188 1.4231,0.4009 0.874,0.8892zM303.3489,105.2711c0.1701,-0.0836 0.3905,0.0351 0.152,0.151c-1.2293,0.6137 -3.3506,1.6654 -4.6825,0.8113c-0.1511,-0.0978 0.2052,-0.2498 0.3068,-0.1833c1.2018,0.7723 3.0951,-0.2166 4.2237,-0.779zM303.3831,104.2156c0.077,-0.0418 0.1843,-0.0769 0.2717,-0.0361c0.0808,0.0371 0.0181,0.1188 -0.0351,0.1444c-0.4142,0.2176 -0.8303,0.3905 -1.3044,0.3857c-0.0589,0 -0.1567,-0.0351 -0.1035,-0.1092c0.0551,-0.0732 0.1681,-0.1036 0.2565,-0.1026c0.3334,0.0028 0.6232,-0.1292 0.9148,-0.2822zM302.7742,104.0475c0.1719,-0.0817 0.3923,0.038 0.152,0.1529c-0.3924,0.19 -0.9567,0.4076 -1.3994,0.3154c-0.2185,-0.0446 0.1169,-0.2299 0.2366,-0.2061c0.3097,0.0646 0.7381,-0.1292 1.0108,-0.2622zM302.9528,104.8901c-0.2176,-0.0285 0.1178,-0.2213 0.2375,-0.2042c0.4294,0.0541 0.8521,0.133 1.2815,0.1862c0.0485,0.0066 0.1026,0.057 0.0599,0.1054c-0.5206,0.6071 -1.3918,1.0089 -2.1993,0.9063c-0.2166,-0.0275 0.1178,-0.2223 0.2366,-0.2052c0.5871,0.0751 1.2293,-0.2707 1.6055,-0.7068c0.019,0.0352 0.0389,0.0703 0.0589,0.1036c-0.4294,-0.0504 -0.8531,-0.1292 -1.2806,-0.1853zM304.4547,104.854c0.2166,0.0247 -0.1178,0.2195 -0.2394,0.2128c-0.6137,-0.075 -1.1808,-0.3277 -1.7869,-0.4332c0.0788,-0.0674 0.1577,-0.1377 0.2365,-0.2061c0.5586,0.1187 1.1039,0.3268 1.6027,0.6023c0.1624,0.0883 -0.2043,0.228 -0.3069,0.1833c-0.209,-0.0921 -0.4161,-0.1757 -0.6365,-0.2375c-0.2242,-0.0674 0.1311,-0.2232 0.2366,-0.2061c0.2242,0.0313 0.4484,0.0817 0.6716,0.114c-0.0912,0.0636 -0.1795,0.1311 -0.2717,0.1938c-0.152,-0.0504 -0.2945,-0.0893 -0.4512,-0.1131c0.0902,-0.0646 0.1795,-0.132 0.2717,-0.1947c0.1596,0.0722 0.3239,0.1159 0.4949,0.1529c0.2033,0.0447 -0.0589,0.1986 -0.1434,0.2081c-0.1406,0.0123 -0.2784,0.0199 -0.419,0.0228c0.0504,-0.0713 0.0998,-0.1425 0.1501,-0.2147c0.096,0.0038 0.1919,0.0009 0.2879,-0.0067c0.2213,-0.0152 0.1824,0.1558 -0.0019,0.1986c-0.1368,0.0323 -0.2176,0.0465 -0.3582,0.057c-0.227,0.018 -0.1757,-0.1473 0.001,-0.1986c0.1225,-0.0342 0.2185,-0.0541 0.3439,-0.075c0.0541,-0.0095 0.2232,0.0133 0.152,0.1064c-0.1017,0.1292 -0.21,0.1957 -0.3601,0.2603c-0.0522,-0.0532 -0.1007,-0.1026 -0.151,-0.1539c0.1434,-0.0494 0.2907,-0.0979 0.436,-0.1473c0.1691,-0.0598 0.4,0.0361 0.1511,0.153c-0.0874,0.0408 -0.1739,0.0826 -0.2584,0.1263c-0.076,0.0409 -0.4446,0.0646 -0.2727,-0.0855c0.0732,-0.0589 0.1425,-0.1244 0.2071,-0.1919c0.0931,0.0285 0.1815,0.057 0.2727,0.0846c-0.0751,0.0503 -0.1539,0.0988 -0.2347,0.1387c-0.0769,0.0427 -0.437,0.075 -0.2726,-0.0855c0.0579,-0.057 0.0988,-0.0865 0.1662,-0.1283c0.1188,-0.0741 0.4532,-0.0418 0.2375,0.1102c-0.1064,0.0741 -0.2118,0.1359 -0.3258,0.1948c-0.115,0.0598 -0.4589,0.0427 -0.2375,-0.1102c0.1073,-0.0732 0.2109,-0.1283 0.3315,-0.171c0.0741,-0.0285 0.3838,-0.0399 0.229,0.1064c-0.1492,0.1396 -0.3278,0.2194 -0.5054,0.3192c-0.0646,-0.0456 -0.1302,-0.0903 -0.1938,-0.1349c0.1558,-0.0523 0.3059,-0.0998 0.4493,-0.1834c0.0789,0.0352 0.1587,0.0713 0.2375,0.1083c-0.2555,0.1463 -0.5272,0.2622 -0.7847,0.4085c-0.1178,0.0665 -0.455,0.0409 -0.2375,-0.1102c0.2176,-0.1482 0.4522,-0.2498 0.6878,-0.3619c0.1226,-0.0589 0.3895,-0.0067 0.1948,0.132c-0.2736,0.1948 -0.5843,0.3164 -0.8959,0.437c-0.1149,0.0447 -0.4104,-0.0171 -0.1938,-0.132c0.2261,-0.1207 0.4655,-0.2157 0.6926,-0.3363c0.1168,-0.0618 0.455,-0.0466 0.2375,0.1092c-0.2765,0.1976 -0.5843,0.3249 -0.8978,0.4551c-0.0503,-0.0532 -0.1007,-0.1017 -0.151,-0.1539c0.3372,-0.1292 0.6773,-0.2185 0.9528,-0.4627c0.1026,0.019 0.2052,0.039 0.3078,0.0589c-0.5605,0.4095 -1.2017,0.7201 -1.881,0.8731c-0.1102,0.0256 -0.3372,-0.0504 -0.1425,-0.1482c0.3601,-0.1824 0.7401,-0.3259 1.0849,-0.5368c0.0808,-0.0503 0.4313,-0.075 0.2727,0.0846c-0.2062,0.209 -0.476,0.2688 -0.7382,0.3847c-0.0503,-0.0513 -0.0988,-0.1007 -0.1491,-0.1529c0.1729,-0.0713 0.3458,-0.1283 0.5244,-0.1881c0.1691,-0.057 0.3999,0.0361 0.151,0.1539c-0.1187,0.0589 -0.2365,0.1178 -0.3553,0.1767c-0.1187,0.056 -0.399,-0.0048 -0.1938,-0.134c0.1178,-0.0703 0.2375,-0.1244 0.3639,-0.1814c0.1197,-0.0542 0.3952,-0.0019 0.1938,0.132c-0.1055,0.0713 -0.1568,0.0979 -0.2755,0.1444c-0.1159,0.0456 -0.4104,-0.0209 -0.1938,-0.1339c0.0494,-0.0228 0.0988,-0.0523 0.1434,-0.0836c0.0627,0.0437 0.1292,0.0902 0.1938,0.1339c-0.0788,0.0228 -0.1548,0.0532 -0.228,0.0903c-0.0342,-0.0589 -0.0674,-0.114 -0.1007,-0.171c0.0988,-0.0276 0.1967,-0.057 0.2964,-0.0817c-0.0009,0.0636 -0.0019,0.132 -0.0019,0.1976c-0.0541,0.0142 -0.1045,0.0256 -0.1567,0.0418c-0.0333,-0.0589 -0.0675,-0.114 -0.1007,-0.1729c0.0969,-0.0266 0.1786,-0.0456 0.2764,-0.0646c0.1777,-0.0371 0.2147,0.1187 0.0485,0.1786c-0.0722,0.0256 -0.1435,0.057 -0.2119,0.0921c-0.0503,-0.0513 -0.0988,-0.1007 -0.151,-0.152c0.0836,-0.0399 0.1662,-0.0807 0.2508,-0.1206c0.0323,0.057 0.0655,0.1121 0.0988,0.171c-0.0988,0.0342 -0.1976,0.0674 -0.2964,0.0988c-0.019,-0.0608 -0.0333,-0.1254 -0.0523,-0.1862c0.304,-0.077 0.5681,-0.2404 0.8037,-0.4437c0.0912,-0.0788 0.476,-0.0836 0.3059,0.0599c-0.3059,0.2669 -0.6621,0.4702 -1.0573,0.5709c-0.2337,0.0608 -0.2746,-0.113 -0.0523,-0.1862c0.0988,-0.0342 0.1976,-0.0665 0.2964,-0.0988c0.1777,-0.0579 0.2983,0.0732 0.0988,0.172c-0.0836,0.0399 -0.1662,0.0807 -0.2489,0.1206c-0.17,0.0836 -0.3914,-0.0361 -0.151,-0.1529c0.0693,-0.0371 0.1396,-0.0694 0.2137,-0.0941c0.0162,0.0599 0.0304,0.1216 0.0485,0.1815c-0.0589,0.0152 -0.114,0.0304 -0.1739,0.0456c-0.1729,0.0513 -0.3154,-0.0941 -0.0988,-0.171c0.1273,-0.0456 0.2271,-0.0751 0.361,-0.0988c0.228,-0.039 0.1701,0.151 -0.0019,0.1985c-0.0978,0.0266 -0.1957,0.057 -0.2935,0.0817c-0.1767,0.0485 -0.3097,-0.0788 -0.1007,-0.171c0.0731,-0.037 0.1491,-0.0684 0.228,-0.0902c0.113,-0.038 0.4056,-0.0038 0.1938,0.133c-0.0447,0.0313 -0.0941,0.0608 -0.1435,0.0826c-0.0646,-0.0437 -0.1301,-0.0883 -0.1947,-0.132c0.0636,-0.0333 0.1263,-0.0665 0.189,-0.1007c0.0646,0.0446 0.1302,0.0902 0.1948,0.1349c-0.0979,0.0399 -0.1881,0.0845 -0.2774,0.1387c-0.0646,-0.0447 -0.1292,-0.0884 -0.1938,-0.133c0.1197,-0.0589 0.2365,-0.1178 0.3553,-0.1767c0.0503,0.0532 0.0988,0.1026 0.151,0.1539c-0.1776,0.0598 -0.3524,0.1168 -0.5263,0.1871c-0.17,0.0694 -0.398,-0.0437 -0.1491,-0.1539c0.2014,-0.0893 0.418,-0.1282 0.5795,-0.2916c0.0931,0.0266 0.1814,0.057 0.2726,0.0855c-0.3477,0.2099 -0.7239,0.3534 -1.0849,0.5348c-0.0475,-0.0494 -0.0969,-0.0978 -0.1444,-0.1472c0.5824,-0.1321 1.14,-0.3933 1.6236,-0.7429c0.0864,-0.0627 0.4826,-0.0941 0.3078,0.0589c-0.324,0.2888 -0.7125,0.4075 -1.1096,0.5595c-0.1701,0.0646 -0.4019,-0.0532 -0.1511,-0.1539c0.2822,-0.1159 0.5596,-0.2318 0.8113,-0.4113c0.0789,0.0361 0.1587,0.0731 0.2375,0.1102c-0.227,0.1206 -0.4664,0.2128 -0.6925,0.3363c-0.0627,-0.0466 -0.1302,-0.0903 -0.1948,-0.1349c0.2822,-0.1083 0.5615,-0.2157 0.8113,-0.3924c0.0627,0.0437 0.1292,0.0874 0.1938,0.134c-0.2071,0.0988 -0.4132,0.1862 -0.6013,0.3182c-0.0789,-0.037 -0.1587,-0.0731 -0.2375,-0.1102c0.2574,-0.1472 0.5291,-0.2622 0.7847,-0.4066c0.1216,-0.0693 0.4636,-0.0218 0.2375,0.1083c-0.171,0.0988 -0.3477,0.1663 -0.5339,0.229c-0.1112,0.038 -0.4142,-0.0114 -0.1938,-0.1321c0.152,-0.0836 0.3059,-0.1482 0.4351,-0.2688c0.076,0.0351 0.152,0.0712 0.2289,0.1064c-0.0912,0.0266 -0.1719,0.0674 -0.2441,0.1282c-0.0789,-0.037 -0.1587,-0.0741 -0.2375,-0.1102c0.114,-0.0579 0.2194,-0.1206 0.3258,-0.1947c0.0789,0.037 0.1587,0.0731 0.2375,0.1102c-0.0332,0.0247 -0.0636,0.0503 -0.0969,0.076c-0.0912,-0.0285 -0.1795,-0.057 -0.2726,-0.0855c0.0817,-0.0399 0.1596,-0.0855 0.2346,-0.1387c0.0808,-0.0532 0.4313,-0.0694 0.2727,0.0845c-0.0646,0.0684 -0.134,0.134 -0.2071,0.1919c-0.0912,-0.0256 -0.1824,-0.057 -0.2727,-0.0845c0.1121,-0.0608 0.228,-0.114 0.3449,-0.1701c0.0503,0.0523 0.0988,0.1007 0.151,0.1539c-0.1444,0.0485 -0.2926,0.0969 -0.4351,0.1463c-0.17,0.0589 -0.4066,-0.0465 -0.151,-0.152c0.0522,-0.037 0.1007,-0.0741 0.1539,-0.1121c0.0503,0.0352 0.0988,0.0713 0.151,0.1045c-0.0817,0.02 -0.1615,0.0371 -0.2413,0.057c0.001,-0.0655 0.001,-0.132 0.0019,-0.1976c0.0865,-0.0123 0.171,-0.0237 0.2565,-0.0361c-0.0009,0.0656 -0.0019,0.1321 -0.0019,0.1986c-0.1282,0.0076 -0.2555,0.0171 -0.3838,0.0123c-0.266,-0.0104 0.0171,-0.2109 0.1501,-0.2147c0.1074,0 0.2147,-0.0066 0.3221,-0.0199c-0.0475,0.0693 -0.096,0.1396 -0.1454,0.209c-0.1985,-0.0447 -0.3809,-0.0931 -0.5671,-0.1777c-0.172,-0.0779 0.1947,-0.208 0.2717,-0.1947c0.1805,0.0323 0.3486,0.0817 0.5215,0.1387c0.1701,0.0551 -0.1909,0.2061 -0.2717,0.1947c-0.2232,-0.0332 -0.4465,-0.0826 -0.6716,-0.1149c0.0788,-0.0684 0.1577,-0.1387 0.2365,-0.2062c0.2423,0.0694 0.475,0.1596 0.7068,0.2575c-0.1007,0.0608 -0.2052,0.1225 -0.3068,0.1833c-0.4779,-0.2631 -0.9966,-0.4655 -1.5295,-0.5795c-0.2204,-0.0465 0.1216,-0.2261 0.2365,-0.2061c0.6023,0.1083 1.1695,0.36 1.7822,0.436zM303.747,105.1694c0.0883,-0.0883 0.4664,-0.0988 0.3068,0.0599c-0.6127,0.6194 -1.4041,0.9737 -2.2762,0.968c-0.247,-0.0019 -0.019,-0.1928 0.1026,-0.2137c0.153,-0.0219 0.3002,-0.0333 0.4541,-0.0428c0.2195,-0.0104 0.0589,0.1682 -0.0503,0.2014c-0.2081,0.0656 -0.4,0.0798 -0.6194,0.0618c-0.2024,-0.019 -0.0836,-0.1739 0.0522,-0.2014c0.1397,-0.0295 0.2765,-0.0627 0.4142,-0.1055c0.019,0.0618 0.0333,0.1254 0.0504,0.1872c-0.1302,0.0323 -0.2575,0.0598 -0.3876,0.0874c0,-0.0656 0.0009,-0.1321 0.0009,-0.1986c0.1796,-0.0285 0.362,-0.0456 0.5434,-0.0541c0.2356,-0.0124 0.0333,0.2004 -0.1007,0.2109c-0.1434,0.0114 -0.2859,0.0266 -0.4284,0.038c-0.2698,0.0209 -0.1264,-0.1834 0.0541,-0.209c0.191,-0.0295 0.3772,-0.0456 0.5691,-0.0532c0.2622,-0.0076 -0.0162,0.208 -0.1501,0.2166c-0.1777,0.0076 -0.3411,0.0332 -0.5159,0.0237c-0.2622,-0.0095 0.0076,-0.2194 0.1501,-0.2147c0.1729,0.0067 0.342,-0.0152 0.5159,-0.0256c-0.0523,0.0731 -0.0998,0.1444 -0.1501,0.2166c-0.1596,0.0047 -0.3126,0.0218 -0.4703,0.0456c0.0181,-0.0703 0.0361,-0.1406 0.0542,-0.209c0.1434,-0.0133 0.2878,-0.0257 0.4284,-0.0371c-0.0342,0.0722 -0.0684,0.1406 -0.1007,0.2119c-0.152,0.0076 -0.3002,0.0275 -0.4503,0.0484c-0.2223,0.0333 -0.1767,-0.1615 0.0019,-0.1976c0.133,-0.0266 0.2603,-0.056 0.3895,-0.0874c0.2328,-0.057 0.2765,0.1169 0.0504,0.1881c-0.1368,0.0428 -0.2746,0.076 -0.4142,0.1055c0.0161,-0.0665 0.0332,-0.1368 0.0503,-0.2033c0.1406,0.0247 0.2793,0.0133 0.418,-0.0333c-0.019,0.0646 -0.0332,0.1349 -0.0522,0.2014c-0.1197,0.0019 -0.2394,0.0152 -0.3572,0.0371c0.0342,-0.0722 0.0674,-0.1425 0.1016,-0.2138c0.7163,0.0067 1.3196,-0.3087 1.8155,-0.8094zM304.1669,104.9234c0.1187,-0.0846 0.4503,-0.0399 0.2365,0.1073c-0.4075,0.2869 -0.6982,0.6536 -1.1675,0.8465c-0.5881,0.2413 -1.254,0.2764 -1.863,0.4446c-0.2299,0.0627 -0.2802,-0.1245 -0.0503,-0.1872c0.5291,-0.1463 1.0877,-0.1919 1.6083,-0.3619c0.513,-0.1663 0.8123,-0.5529 1.236,-0.8493z" fill="#000000" stroke="none" stroke-width="0.95"/><path d="M297.5178,164.1559c0.1387,-0.076 0.6042,-0.0637 0.304,0.1026c-4.1239,2.2866 -7.6712,5.2326 -12.0963,6.9787c-0.2109,0.0826 -0.5263,-0.0219 -0.1881,-0.1549c4.3795,-1.7271 7.8992,-4.6635 11.9804,-6.9264zM306.0327,169.0493c0.3562,-0.0741 0.1301,0.1824 -0.0855,0.2261c-2.9327,0.6213 -5.8634,1.9646 -8.6336,3.0894c-2.6401,1.0716 -5.2678,2.1869 -7.9173,3.2405c-0.2081,0.0836 -0.5235,-0.02 -0.1853,-0.1549c2.8909,-1.1514 5.7494,-2.3826 8.6403,-3.5321c2.6429,-1.0478 5.3941,-2.2771 8.1814,-2.869zM276.4867,171.868c-0.3429,0.0085 0.0561,-0.2366 0.2157,-0.2404c3.0257,-0.0684 6.0277,-0.5054 9.0497,-0.664c0.342,-0.0162 -0.057,0.2327 -0.2128,0.2413c-3.022,0.1586 -6.024,0.5956 -9.0526,0.6631zM277.1992,183.3753c-0.2099,0.0846 -0.5234,-0.019 -0.1881,-0.1548c1.3747,-0.5577 2.7379,-1.1999 4.1696,-1.5998c0.5899,-0.1653 1.6207,-0.2337 2.0938,-0.6365c0.6032,-0.513 1.1751,-1.0488 1.7375,-1.6093c1.4991,-1.4953 2.9783,-3.5122 4.997,-4.3254c0.2081,-0.0836 0.5244,0.02 0.1881,0.1549c-1.4041,0.5643 -2.2847,1.7765 -3.3345,2.7901c-0.9357,0.9025 -1.824,1.8715 -2.8167,2.7151c-1.0013,0.8531 -1.4991,0.6964 -2.8139,1.1096c-1.3775,0.4342 -2.6961,1.0146 -4.0328,1.5561zM276.216,171.7578c0.0855,-0.1102 0.588,-0.1748 0.4702,-0.019c-1.6777,2.1916 -2.9868,4.6322 -4.4982,6.9369c-0.0751,0.1159 -0.5814,0.189 -0.4703,0.019c1.5105,-2.3047 2.8196,-4.7453 4.4983,-6.9369zM277.0567,174.9878c0.0855,-0.1074 0.5909,-0.1691 0.4703,-0.02c-1.3424,1.654 -2.5964,3.382 -3.8713,5.0873c-0.0836,0.1102 -0.588,0.1767 -0.4702,0.019c1.2749,-1.7043 2.5298,-3.4333 3.8712,-5.0863zM274.7862,181.3547c-0.0988,0.0874 -0.6108,0.1387 -0.4009,-0.0437c1.273,-1.0944 2.5907,-2.4719 3.4751,-3.9036c0.0846,-0.1387 0.5662,-0.1738 0.5092,-0.0798c-0.9167,1.483 -2.2629,2.8909 -3.5834,4.0271zM273.2919,180.2489c-0.0323,-0.1482 0.4826,-0.2765 0.5111,-0.1397c0.0988,0.4465 0.5092,0.8294 0.9338,0.97c0.114,0.0361 -0.0028,0.133 -0.056,0.1605c-0.1007,0.0532 -0.2499,0.0969 -0.3601,0.0589c-0.4617,-0.1529 -0.9224,-0.5576 -1.0288,-1.0497zM271.6959,178.7536c-0.058,-0.1026 0.4294,-0.285 0.513,-0.1387c0.3809,0.6754 0.9965,1.2331 1.5941,1.7166c0.1054,0.0846 -0.3591,0.2831 -0.4807,0.1834c-0.6156,-0.494 -1.236,-1.0678 -1.6264,-1.7613zM274.3473,181.4259c-0.1035,-0.1102 0.3762,-0.2935 0.4817,-0.1814c0.3714,0.3847 0.9433,1.2245 1.6159,0.7486c0.38,-0.2708 0.7572,-0.5415 1.1381,-0.8104c0.7135,-0.5025 1.426,-1.0013 2.1765,-1.4497c0.1358,-0.0817 0.6004,-0.0731 0.3049,0.1017c-0.9205,0.5481 -1.8354,1.1599 -2.6856,1.8069c-0.342,0.2574 -0.704,0.5671 -1.122,0.6992c-0.8626,0.2774 -1.3376,-0.3183 -1.9095,-0.9149zM277.1603,183.2062c0.0978,0.1321 -0.3971,0.2983 -0.4807,0.1843c-0.2584,-0.3534 -0.5643,-0.6897 -0.8902,-0.9832c-0.1054,-0.0931 0.3667,-0.286 0.4807,-0.1843c0.3259,0.2926 0.6318,0.6298 0.8902,0.9832zM276.1162,171.887c0.096,-0.0988 0.5985,-0.1501 0.4693,-0.0171c-1.0573,1.0839 -2.2762,1.7622 -3.6812,2.3009c-0.324,0.1244 -2.3779,0.8037 -1.5666,1.4354c0.5501,0.4275 1.3851,0.4769 2.0425,0.3363c0.3021,-0.0646 0.362,0.133 0.0532,0.1986c-0.5462,0.1178 -3.382,0.17 -2.6714,-1.0374c0.3971,-0.6774 1.5314,-0.9187 2.1917,-1.1809c1.215,-0.4873 2.2429,-1.0925 3.1625,-2.0358z" fill="#000000" stroke="none" stroke-width="0.95"/><path d="M345.8291,168.7273c0.0295,0.0522 -0.3296,0.1966 -0.3828,0.1026c-2.4653,-4.2969 -4.6569,-8.9224 -5.9024,-13.7323c-0.0228,-0.0826 0.3629,-0.1852 0.3829,-0.1016c1.2445,4.8079 3.4399,9.4344 5.9023,13.7313zM342.6694,173.3196c0.0276,0.0655 -0.3439,0.1947 -0.3819,0.1026c-1.1656,-2.6857 -3.1407,-4.8897 -4.7775,-7.2894c-1.3899,-2.032 -2.7417,-4.0916 -4.0708,-6.1664c-0.0304,-0.0428 0.3249,-0.1967 0.3848,-0.1007c1.3281,2.071 2.6752,4.1353 4.0707,6.1645c1.6397,2.395 3.611,4.6066 4.7747,7.2894zM347.4413,181.7755c0.0275,0.0608 -0.342,0.1948 -0.3838,0.1026c-1.3804,-2.9383 -3.2139,-5.6126 -4.77,-8.455c-0.0323,-0.0522 0.3316,-0.1957 0.381,-0.1026c1.557,2.8415 3.3924,5.5157 4.7728,8.455zM354.1046,179.7596c0.057,0.0589 -0.2964,0.2005 -0.3639,0.1302c-2.0007,-2.0853 -2.6011,-4.9324 -3.7629,-7.4765c-0.5491,-1.2037 -1.1885,-2.6904 -2.528,-3.1996c-1.1419,-0.4332 -2.3892,-0.1473 -3.4903,-0.6356c-0.037,-0.019 0.2603,-0.1776 0.3629,-0.132c1.102,0.4902 2.3807,0.095 3.4903,0.6365c1.0127,0.4959 1.6502,1.3319 2.1337,2.336c1.3329,2.775 1.9618,6.0487 4.1582,8.341zM348.1785,175.5958c-0.0418,-0.0219 0.265,-0.1805 0.3657,-0.1302c0.874,0.4598 1.4925,1.7632 2.0596,2.5242c0.4456,0.6004 2.3674,3.4827 3.135,1.9883c0.0466,-0.0969 0.4028,-0.1206 0.3772,-0.0693c-1.5238,2.9811 -4.8773,-3.7525 -5.9375,-4.313zM351.038,180.8122c0.0551,0.0599 -0.2993,0.1995 -0.3658,0.1292c-0.4626,-0.5016 -0.4227,-1.2996 -0.6184,-1.918c-0.3183,-1.0032 -0.932,-1.8744 -1.2721,-2.8671c-0.0285,-0.0751 0.3544,-0.191 0.3819,-0.1017c0.3401,0.9842 1.0146,1.8554 1.2721,2.8662c0.151,0.5909 0.1672,1.424 0.6023,1.8914zM355.1401,185.7627c0.0076,0.1026 -0.3791,0.1691 -0.3848,0.1035c-0.1586,-2.4405 -2.1774,-3.742 -4.1372,-4.8051c-0.0428,-0.0247 0.265,-0.1833 0.3629,-0.1292c1.9731,1.0697 3.9995,2.376 4.1591,4.8308zM346.9112,181.9057c-0.1083,-0.038 0.2318,-0.1758 0.323,-0.1454c2.9383,1.0004 5.4815,2.8462 7.98,4.6436c-0.1264,0.039 -0.2508,0.077 -0.3753,0.1159c-0.0437,-0.2185 -0.0921,-0.4351 -0.1387,-0.6536c-0.0199,-0.0864 0.3658,-0.1805 0.3838,-0.1007c0.0437,0.2176 0.0903,0.4342 0.1387,0.6517c0.019,0.0931 -0.3163,0.1587 -0.3752,0.1159c-2.4843,-1.7869 -5.0151,-3.6337 -7.9363,-4.6274z" fill="#010101" stroke="none" stroke-width="0.95"/><path d="M308.3801,136.7816c0.1112,0.0846 -0.2451,0.2385 -0.3562,0.1511c-0.7581,-0.5767 -1.7271,-0.9804 -2.1271,-1.8953c-0.1615,-0.3724 0.02,-1.1181 0.0181,-1.5494c-0.0029,-0.6432 0.0057,-1.2901 0.1244,-1.9266c0.4218,-2.2658 1.1514,-4.8289 3.0372,-6.3261c1.4592,-1.1609 3.2898,-1.8857 5.0939,-2.3237c1.8544,-0.4493 3.514,0.1444 4.9219,1.369c0.1083,0.094 -0.2517,0.246 -0.3562,0.151c-1.9713,-1.7157 -3.972,-1.6349 -6.2881,-0.7505c-1.7603,0.6707 -3.5036,1.5542 -4.483,3.2538c-0.989,1.7176 -1.6777,4.0232 -1.6692,6.0163c0.0029,0.742 -0.2071,2.1242 0.4598,2.6676c0.5187,0.4228 1.0935,0.7581 1.6245,1.1628zM330.8951,165.2085c0.1064,0.1054 -0.2574,0.2517 -0.3572,0.151c-1.0383,-1.0146 -1.2274,-2.4738 -1.1846,-3.8712c0.0541,-1.7965 0.2565,-3.5844 0.3467,-5.378c0.1121,-2.2999 0.1226,-4.6056 0.1083,-6.9084c-0.0095,-2.2163 0.0019,-4.5106 -0.4189,-6.6965c-0.7648,-3.9482 -2.5622,-7.6285 -4.1487,-11.2955c-1.3946,-3.2243 -3.1378,-5.9784 -5.985,-8.1054c-0.1111,-0.0827 0.2432,-0.2366 0.3563,-0.153c2.7417,2.0482 4.522,4.7082 5.8672,7.8176c1.5589,3.6043 3.4542,7.2798 4.2037,11.1577c0.7885,4.0765 0.6251,8.4892 0.4693,12.6217c-0.0731,1.9428 -0.2289,3.877 -0.3591,5.8159c-0.113,1.673 -0.1881,3.5815 1.102,4.8441zM332.4218,171.6048c-0.019,0.1359 -0.4066,0.2043 -0.3838,0.0437c0.1539,-1.0896 1.6083,-2.4899 1.2426,-3.5539c-0.5016,-1.4535 -2.1594,-1.7385 -3.0296,-2.8757c-0.0988,-0.1282 0.2727,-0.2622 0.3563,-0.1529c0.8987,1.177 2.849,1.5152 3.096,3.1806c0.1634,1.1229 -1.1257,2.2543 -1.2815,3.3582zM332.379,176.6826c-0.1738,0.0902 -0.3923,-0.0456 -0.1548,-0.1691c2.5821,-1.3129 -0.0703,-3.1407 -0.1853,-4.9818c-0.0114,-0.153 0.3762,-0.2347 0.3829,-0.1007c0.075,1.2027 1.0944,2.0368 1.3167,3.1834c0.2023,1.0574 -0.4893,1.6255 -1.3595,2.0682zM307.2629,127.5562c0.0722,-0.1083 0.4589,-0.1406 0.3591,0.0142c-1.9513,2.9868 -3.495,6.3365 -4.5448,9.7442c-0.8835,2.869 -1.9665,6.7858 -0.2403,9.5513c0.0874,0.1396 -0.286,0.266 -0.3563,0.152c-1.7413,-2.7873 -0.7125,-6.7707 0.2109,-9.6577c1.0954,-3.4257 2.6021,-6.7878 4.5714,-9.804zM306.4535,135.7746c0.0523,-0.1311 0.4361,-0.1786 0.3838,-0.0446c-0.892,2.317 -1.349,4.5894 -1.2008,7.0651c0.0988,1.6768 -1.6653,1.9361 -2.4291,3.3459c-0.4788,0.8864 -0.5691,1.7414 -0.722,2.7104c-0.1264,0.8046 -0.5558,1.3167 -1.0355,1.9703c-0.8161,1.1162 -1.8829,2.4082 -1.9836,3.8475c-0.1188,1.6786 1.0222,4.6911 3.2841,4.0175c0.2318,-0.0684 0.2831,0.1349 0.0542,0.2024c-2.4282,0.7229 -4.1895,-2.414 -3.6689,-4.5135c0.3714,-1.4886 1.3138,-2.6714 2.1945,-3.8912c0.6593,-0.9158 0.7096,-1.5504 0.9072,-2.6115c0.2014,-1.0887 0.6774,-2.0872 1.4773,-2.8681c0.7638,-0.7448 1.6112,-0.9832 1.538,-2.109c-0.1615,-2.4861 0.3059,-4.7927 1.2008,-7.1212zM299.4254,156.8418c-0.0304,-0.1463 0.3563,-0.2422 0.381,-0.1026c0.1786,0.855 -0.3658,1.7081 -0.7714,2.4273c-0.6783,1.2027 -1.6236,2.4044 -1.3348,3.875c0.456,2.319 2.3798,3.8874 4.4194,4.8726c2.1271,1.026 4.3482,1.8715 6.6595,0.9357c1.9447,-0.7894 4.4574,-2.4728 4.0299,-4.9001c-0.0275,-0.1472 0.3601,-0.2413 0.3848,-0.1035c0.3838,2.1878 -1.6084,3.913 -3.3887,4.7813c-2.1413,1.046 -3.8617,1.0488 -6.08,0.2803c-2.1926,-0.76 -4.8184,-2.0834 -5.9014,-4.2712c-0.5728,-1.1581 -0.7989,-2.4691 -0.1776,-3.6651c0.5937,-1.14 2.0586,-2.7788 1.7793,-4.1297zM305.6517,165.2664c-0.2175,-0.0693 0.1064,-0.2565 0.2328,-0.2166c2.0149,0.6403 4.7471,0.4427 6.5512,-0.7267c0.5196,-0.3363 1.3385,-0.9738 1.3699,-1.6673c0.0256,-0.5719 -0.247,-0.9614 -0.3316,-1.4981c-0.0285,-0.1824 0.0675,-0.4313 0.1102,-0.608c0.0447,-0.1786 -0.3002,-0.6612 -0.3125,-0.836c-0.0561,-0.7591 0.7828,-1.9086 1.0345,-2.6106c0.38,-1.0754 1.0298,-2.8491 -0.1301,-3.668c-0.1568,-0.1102 0.1985,-0.266 0.3049,-0.1909c1.2949,0.9158 0.5805,2.8794 0.1131,4.0698c-0.2689,0.684 -0.6071,1.3442 -0.855,2.0377c-0.1406,0.4009 0.0712,0.6669 0.2536,1.0422c0.1026,0.2137 -0.1957,0.6811 -0.0855,0.9623c1.5675,4.0223 -5.8406,4.6797 -8.2555,3.9102zM314.5105,153.3496c-0.0751,0.1055 -0.4627,0.1359 -0.361,-0.0142c0.4607,-0.6584 0.6308,-1.5837 0.9538,-2.3237c0.2574,-0.59 0.5187,-1.1818 0.8113,-1.7556c0.7429,-1.4564 1.5589,-2.9175 2.4301,-4.3016c1.6834,-2.679 5.2839,-4.4251 4.4906,-8.0921c-0.0313,-0.1425 0.3544,-0.2404 0.3848,-0.1007c0.8037,3.7145 -2.6087,5.1737 -4.2921,7.846c-0.9415,1.5001 -1.8744,3.0695 -2.6534,4.6626c-0.455,0.9301 -0.93,1.8782 -1.2416,2.869c-0.1359,0.4332 -0.2622,0.8341 -0.5225,1.2103zM308.9055,168.8869c-0.0333,-0.1435 0.3543,-0.2423 0.3866,-0.0998c0.267,1.1866 0.741,2.4396 -0.0123,3.5521c-0.7125,1.0497 -1.9912,2.0054 -2.0188,3.3858c-0.0541,2.4719 3.0695,3.4912 4.9999,4.0308c6.5844,1.8421 14.5578,0.589 20.2112,-3.363c0.1245,-0.0874 0.4541,-0.0266 0.2404,0.1226c-5.5813,3.9016 -13.6563,5.3599 -20.2075,3.5872c-1.7917,-0.4836 -4.6398,-1.2075 -5.4207,-3.1379c-0.4569,-1.1352 -0.0836,-2.2885 0.6831,-3.1977c0.5728,-0.6802 1.4449,-1.4715 1.5257,-2.4111c0.0731,-0.8474 -0.2043,-1.6558 -0.3876,-2.469zM329.529,159.1646c-0.1092,-0.0988 0.2537,-0.248 0.3563,-0.1511c2.6828,2.4102 5.5622,-0.019 7.3045,-2.2762c1.084,-1.4041 2.0264,-2.2895 3.877,-2.3208c0.2603,-0.0048 0.0009,0.2232 -0.1473,0.2261c-2.7968,0.0484 -3.952,3.3877 -6.1408,4.7785c-1.7917,1.14 -3.6204,1.2074 -5.2497,-0.2565zM335.6565,153.4408c-0.1605,-0.0997 0.1938,-0.2593 0.3097,-0.1928c1.9124,1.2046 4.9163,-2.2107 3.4257,-3.9805c-0.8816,-1.0479 -2.1061,-1.749 -3.2262,-2.5137c-2.5935,-1.767 -5.1879,-3.5825 -7.0661,-6.1437c-0.0959,-0.1311 0.2755,-0.2631 0.3563,-0.1529c1.5238,2.0786 3.5216,3.6869 5.623,5.1499c1.425,0.9918 3.3212,1.9095 4.4555,3.2576c1.1011,1.3034 0.7325,2.7436 -0.5795,3.7772c-0.9395,0.74 -2.1631,1.5124 -3.2984,0.7989zM341.1551,154.5732c-0.0484,0.133 -0.436,0.1796 -0.3866,0.0466c0.4123,-1.1153 -0.0371,-2.2876 -1.2113,-2.6524c-0.2213,-0.0694 0.1036,-0.2556 0.2318,-0.2166c1.2531,0.3885 1.8164,1.5969 1.3661,2.8224zM317.7604,123.6517c-0.2603,0 -0.0019,-0.2271 0.1482,-0.2261c0.5273,0.0009 1.0042,0.0047 1.312,-0.4912c0.0684,-0.1111 0.456,-0.1444 0.3591,0.0133c-0.4085,0.6584 -1.1125,0.7049 -1.8193,0.704z" fill="#000000" stroke="none" stroke-width="0.95"/><path d="M304.5155,104.0693c0.0276,-0.2014 0.5482,-0.285 0.5168,-0.0503c-0.1387,1.0459 -0.4322,2.0244 -0.9462,2.9497c-0.094,0.1729 -0.6137,0.2005 -0.4835,-0.0342c0.4978,-0.8996 0.7761,-1.8487 0.9129,-2.8652zM297.8019,106.4358c-0.2204,-0.1596 0.2432,-0.3848 0.4018,-0.2708c1.52,1.102 3.7649,1.1011 5.5338,0.7144c0.3125,-0.0693 0.399,0.2328 0.0807,0.3021c-1.9123,0.419 -4.3624,0.4522 -6.0163,-0.7457zM304.8604,103.8214c0.303,0.0636 -0.115,0.3515 -0.305,0.3106c-2.0976,-0.4455 -4.2351,-1.3357 -6.3783,-1.4136c-0.3477,-0.0133 -0.0313,-0.3401 0.1891,-0.3306c2.1992,0.0798 4.3481,0.9785 6.4942,1.4336zM298.0137,102.5797c0.0333,-0.2014 0.5548,-0.2821 0.5159,-0.0513c-0.2043,1.1913 -0.3534,2.394 -0.3031,3.6043c0.0114,0.2233 -0.5025,0.3363 -0.513,0.1387c-0.0513,-1.2435 0.0893,-2.469 0.3002,-3.6917z" fill="#000000" stroke="none" stroke-width="0.95"/><path d="M304.8556,104.6051c-0.6944,-0.0028 -0.0931,-0.7001 0.3667,-0.6982c2.0473,0.0038 4.3662,0.3325 6.3745,-0.0846c1.3899,-0.2897 2.8719,-0.8255 4.2978,-0.5025c0.6128,0.1387 -0.1947,0.7467 -0.6023,0.6536c-1.0431,-0.2356 -2.1907,0.2194 -3.1996,0.4303c-0.7429,0.1549 -1.444,0.21 -2.204,0.2185c-1.6777,0.0219 -3.3554,-0.0142 -5.0331,-0.0171z" fill="#000000" stroke="none" stroke-width="0.95"/><path d="M307.2154,270.4267c-0.2166,0.0921 -0.5253,-0.0333 -0.1928,-0.1786c1.9608,-0.8484 1.4725,-4.1534 0.4959,-5.6231c-0.1007,-0.1529 0.3961,-0.3144 0.4788,-0.19c1.1561,1.7376 1.444,5.0274 -0.7819,5.9917zM279.1781,260.7139c0.0475,-0.1539 0.5567,-0.2252 0.512,-0.0732c-0.7809,2.4805 -1.4316,5.2849 1.3063,6.7564c0.1919,0.1026 -0.2841,0.2983 -0.4133,0.229c-2.8101,-1.5086 -2.2173,-4.3254 -1.405,-6.9122zM280.11,267.3962c-0.1178,-0.0903 0.3487,-0.2917 0.476,-0.1891c1.9893,1.5229 4.5476,2.3722 7.0594,2.2078c1.9998,-0.1301 4.0204,-0.0674 5.9432,0.5463c2.2791,0.7286 4.4688,1.7119 6.7536,2.4234c1.234,0.3838 2.4966,0.7268 3.7848,0.875c0.7714,0.0921 1.71,-0.058 2.4339,0.1786c-0.1539,0.0503 -0.3078,0.0988 -0.4617,0.151c0.5833,-1.0649 0.8293,-1.9513 0.7619,-3.1834c-0.0114,-0.1777 0.5035,-0.2774 0.513,-0.1387c0.0674,1.2245 -0.1729,2.1631 -0.7648,3.2442c-0.0769,0.1378 -0.3163,0.1995 -0.4598,0.1492c-0.5101,-0.1644 -1.349,-0.039 -1.8924,-0.0998c-0.5909,-0.0684 -1.1808,-0.1463 -1.7632,-0.2717c-1.006,-0.2147 -1.9988,-0.4807 -2.9744,-0.8113c-2.2563,-0.7676 -4.4603,-1.8373 -6.7745,-2.412c-1.4326,-0.3572 -2.9051,-0.532 -4.3833,-0.4513c-1.0022,0.057 -2.0168,0.1387 -3.0153,-0.0228c-1.9009,-0.3059 -3.7031,-1.0222 -5.2364,-2.1954zM279.4792,260.5476c0.0969,-0.1102 0.6071,-0.1596 0.4731,-0.0066c-0.4626,0.5253 1.0716,2.5004 1.3842,2.8433c0.6051,0.665 1.2844,1.254 2.0539,1.7233c1.8658,1.1429 3.9776,1.8497 6.1161,2.2724c2.4586,0.4864 4.8877,0.4826 7.3824,0.494c1.7813,0.0076 3.8409,-0.2869 5.4606,0.6251c0.1881,0.1074 -0.2878,0.3002 -0.4161,0.229c-1.2397,-0.7002 -2.7502,-0.6356 -4.1306,-0.6099c-1.2853,0.0266 -2.5735,0.0446 -3.8589,0.0199c-2.1888,-0.0408 -4.3681,-0.322 -6.479,-0.9177c-1.995,-0.5624 -4.0679,-1.3442 -5.6553,-2.7198c-0.6726,-0.5814 -1.3072,-1.2388 -1.7414,-2.0245c-0.2508,-0.4493 -1.007,-1.4544 -0.589,-1.9285zM279.3985,260.6331c-0.3439,-0.0028 0.038,-0.2584 0.208,-0.2574c3.0685,0.0294 6.5056,0.7324 9.4107,-0.5339c0.2157,-0.0912 0.5244,0.0332 0.1938,0.1786c-3.0694,1.3395 -6.5768,0.6441 -9.8125,0.6127zM301.6456,268.653c-0.1929,-0.0779 0.2764,-0.2831 0.4132,-0.228c1.6749,0.6755 3.1987,1.7689 5.0749,1.711c0.3449,-0.0105 -0.0389,0.2536 -0.208,0.2584c-1.957,0.0589 -3.5293,-1.0336 -5.2801,-1.7414z" fill="#000000" stroke="none" stroke-width="0.95"/><path d="M367.0151,258.66c-0.2803,-0.0637 0.1795,-0.2841 0.3211,-0.2518c1.0041,0.2299 1.6634,1.3082 2.0729,2.1784c0.0589,0.1282 -0.4399,0.2973 -0.514,0.1387c-0.3562,-0.7619 -0.9889,-1.8582 -1.88,-2.0653zM353.7255,272.6316c-0.3049,0.0741 -0.3667,-0.1434 -0.0589,-0.2185c3.8019,-0.9348 7.3929,-3.0381 10.2353,-5.7199c1.8516,-1.7471 4.7491,-3.7772 5.0645,-6.5113c0.0161,-0.152 0.5291,-0.2537 0.5082,-0.0741c-0.3363,2.9269 -3.7031,5.433 -5.8026,7.2114c-2.8927,2.4501 -6.2443,4.4052 -9.9465,5.3124zM343.7648,276.3974c-0.2812,-0.0551 0.1786,-0.2802 0.322,-0.2555c2.9089,0.551 6.0962,0.3496 9.0165,-0.1064c2.7122,-0.4237 5.9745,-0.9776 7.8764,-3.1246c1.8031,-2.0339 3.6585,-3.9605 5.624,-5.8415c1.3139,-1.2578 2.6315,-2.5185 3.8703,-3.8494c0.8692,-0.9339 -0.8483,-2.755 -1.5637,-3.2006c-0.113,-0.0712 0.3392,-0.2793 0.4807,-0.19c0.5263,0.3268 0.9738,0.7429 1.2692,1.2968c0.1786,0.3325 0.7733,1.2948 0.6498,1.6824c-0.1909,0.5957 -1.3081,1.3975 -1.7556,1.8411c-0.6042,0.6014 -1.2093,1.1951 -1.824,1.7841c-1.519,1.4573 -3.1141,2.8671 -4.5267,4.4308c-0.9377,1.0365 -1.748,2.2971 -2.8966,3.1189c-2.0007,1.4326 -4.8896,1.9674 -7.2846,2.3009c-3.0276,0.4161 -6.2386,0.6849 -9.2577,0.113zM339.7805,270.5578c-0.0171,-0.1729 0.4987,-0.2793 0.512,-0.1368c0.2337,2.5602 0.7011,5.4416 3.7934,5.7209c0.2774,0.0275 -0.1824,0.2669 -0.3211,0.2546c-3.173,-0.2869 -3.7392,-3.1426 -3.9843,-5.8387zM339.9904,270.2937c0.0532,-0.1539 0.5615,-0.2214 0.5073,-0.0751c-0.2593,0.7733 2.3256,2.1071 2.774,2.2848c1.2018,0.4769 2.4767,0.7362 3.7687,0.7714c2.2477,0.0579 4.4574,-0.2964 6.6262,-0.8607c0.305,-0.0789 0.3629,0.1387 0.0599,0.2175c-2.5916,0.6745 -5.378,1.1666 -8.0551,0.8132c-1.3243,-0.1719 -2.5735,-0.5196 -3.7411,-1.1799c-0.4959,-0.2812 -2.1726,-1.2796 -1.9399,-1.9712zM340.131,270.3896c-0.2156,0.0884 -0.5272,-0.0389 -0.1928,-0.1776c2.8604,-1.1638 6.3042,-1.8383 8.5053,-4.1458c0.0998,-0.1083 0.6118,-0.1501 0.4722,-0.0114c-2.2971,2.4111 -5.8055,3.1207 -8.7847,4.3348z" fill="#000000" stroke="none" stroke-width="0.95"/></g></g></svg>