<svg version="1.1" xmlns="http://www.w3.org/2000/svg" xmlns:xlink="http://www.w3.org/1999/xlink" width="158.63044" height="198.44168" viewBox="0,0,158.63044,198.44168"><g transform="translate(-240.68478,-83.12745)"><g stroke-miterlimit="10"><path d="M399.31522,267.87442c0,7.56338 -35.51064,13.69472 -79.31522,13.69472c-43.80458,0 -79.31522,-6.13134 -79.31522,-13.69472c0,-7.56338 35.51064,-13.69471 79.31522,-13.69471c43.80458,0 79.31522,6.13133 79.31522,13.69471z" fill-opacity="0.59608" fill="#000000" stroke="#000000" stroke-width="0"/><path d="M301.7275,93.005c0,0 4.865,-1.354 6.218,-1.263c2.316,0.158 4.585,0.782 6.286,1.847c1.13,0.708 1.672,1.721 1.957,2.957c0.271,1.186 -0.228,2.224 -0.635,3.338c-0.399,1.093 -1.308,2.123 -1.373,3.304c-0.069,1.231 0.671,2.792 1.267,3.226c0.323,-0.791 0.309,-1.703 0.836,-2.515c0.266,-0.409 0.538,-0.781 0.827,-1.112c0.338,-0.387 0.616,-0.445 1.068,-0.735c0.688,-0.44 0.512,-0.404 0.807,-1c0.226,-0.459 0.266,-0.603 0.34,-1.114c0.155,-1.065 0.795,-2.415 0.795,-3.525c0,-0.642 -0.06,-0.775 -0.023,-1.414c0.031,-0.583 -0.024,-0.856 -0.369,-1.602c-0.243,-0.525 -0.37,-1.259 -0.789,-1.653c-0.514,-0.481 -0.949,-1.333 -1.349,-1.949c-0.696,-1.073 -1.224,-1.036 -2.23,-1.793c-1.066,-0.804 -2.073,-1.79 -3.405,-2.127c-2.425,-0.614 -5.665,-0.179 -7.719,1.141c-1.757,1.124 -3.343,3.975 -2.509,5.989M317.5405,83.5c0.348,0.181 2.013,-0.403 2.479,-0.354c1.081,0.117 1.924,0.082 3.007,0.251c2.324,0.362 4.753,1.166 6.951,2.066c3.296,1.35 6.618,3.865 7.592,7.417c0.251,0.907 -0.167,3.442 -1.463,3.096c-0.023,0.5 0.499,0.917 0.788,1.283c0.404,0.52 0.572,0.328 0.655,0.978c0.128,1.001 0.869,2.961 -0.032,3.856c-1.916,1.902 -4.161,-2.3 -5.871,-2.866c0.187,0.714 1.648,1.699 2.008,2.414c0.31,0.619 0.414,0.946 0.682,1.562c0.57,1.317 1.453,2.208 1.895,3.588c0.306,0.966 0.509,3.221 -0.331,4.084c-0.975,1.005 -2.146,0.242 -2.81,-0.48c0.519,0.921 0.55,2.237 0.714,3.196c0.156,0.899 -0.701,1.762 -1.641,1.861c-0.427,0.045 -0.679,-0.052 -1.004,-0.382c-0.353,-0.354 -0.921,-0.584 -1.162,-1.015c-0.487,-0.874 -1.021,-1.71 -1.698,-2.392c0.575,1.017 1.596,1.937 0.634,3.648c-0.708,1.259 -2.584,0.623 -3.475,-0.294c0.432,1.251 0.816,2.527 -0.864,2.801c-1.357,0.222 -2.669,-0.501 -3.284,-1.466c-0.65,-1.023 -1.516,-1.998 -1.732,-3.21c-0.196,-1.088 -0.451,-2.533 -0.49,-3.639c-0.027,-0.852 0.863,-1.184 1.331,-1.772c0.62,-0.783 0.807,-1.151 0.997,-2.081c0.135,-0.654 0.328,-1.202 -0.042,-1.829c-0.497,-0.85 -0.142,-1.009 -0.612,-1.564c0.453,-0.586 0.999,-1.081 1.318,-1.807c0.296,-0.673 0.933,-1.066 1.185,-1.752c0.21,-0.568 0.483,-1.022 0.744,-1.569c0.337,-0.703 0.442,-1.55 0.64,-2.272c0.353,-1.279 -0.069,-2.695 -0.463,-4.001c-0.329,-1.085 -1.371,-2.693 -2.236,-3.744c-1.258,-1.532 -2.395,-2.512 -4.122,-3.515" fill="#371e10" stroke="none" stroke-width="1"/><path d="M310.3535,85.411c0.279,-0.155 0.293,-0.347 0.523,-0.496c0.238,-0.146 0.549,-0.233 0.805,-0.355c0.469,-0.222 0.992,-0.41 1.477,-0.579c0.682,-0.238 1.421,-0.265 2.132,-0.351c0.61,-0.074 1.26,-0.162 1.878,-0.139c0.55,0.021 1.01,0.291 1.444,0.625c0.616,0.474 1.286,0.847 1.883,1.389c0.511,0.461 1.048,0.904 1.408,1.481c0.35,0.557 0.715,1.092 1.132,1.59c0.482,0.578 0.893,1.173 1.101,1.91c0.183,0.657 0.369,1.352 0.508,2.015c0.263,1.241 -0.083,2.495 -0.389,3.666c-0.288,1.109 -0.717,2.308 -1.335,3.276c-0.273,0.426 -0.582,0.823 -0.854,1.257c-0.264,0.422 -0.74,0.722 -0.943,1.167c-0.065,0.139 -0.016,0.377 -0.245,0.376c-0.136,0 -0.43,-0.335 -0.559,-0.417c-0.415,-0.261 -1,-0.121 -1.451,-0.214c0.258,-0.859 0.697,-2.068 0.842,-3.162c0.071,-0.536 0.266,-0.996 0.252,-1.574c-0.011,-0.547 0.061,-1.073 0.049,-1.626c-0.012,-0.535 0.042,-1.049 -0.186,-1.535c-0.244,-0.524 -0.336,-1.088 -0.574,-1.624c-0.532,-1.196 -1.609,-1.933 -2.511,-2.807c-0.436,-0.422 -0.834,-0.784 -1.319,-1.157c-0.459,-0.353 -0.933,-0.648 -1.397,-0.984c-0.436,-0.315 -0.931,-0.654 -1.412,-0.908c-0.649,-0.343 -1.337,-0.439 -2.013,-0.706c-0.088,-0.035 -0.167,-0.075 -0.246,-0.118" fill="#bd5da4" stroke="none" stroke-width="1"/><path d="M322.8265,121.018c-0.399,0.289 -0.118,0.314 -1.215,0.945c-0.436,0.251 -0.124,0.113 -0.744,0.484c-0.497,0.298 -1.475,1.005 -1.926,1.052c-0.385,0.039 -1.01,0.445 -1.396,0.479c-0.72,0.064 -0.263,0.057 -0.948,0.325c-0.677,0.264 -0.766,0.509 -1.382,0.871c-0.418,0.246 -0.305,0.5 -0.737,0.719c-0.369,0.188 -0.39,0.452 -0.651,0.735c0.006,0.047 -0.808,1.54 -1.014,1.008c0,-0.365 0.17,-2.265 0.17,-2.631c0,0.177 0.038,-2.006 0.034,-2.012c-0.028,-0.039 -0.079,-0.4 -0.131,-0.437c-0.121,-0.086 -0.086,-0.794 -0.147,-0.651c-0.025,-0.291 -0.277,-0.137 -0.317,-0.428c0.196,-0.142 0.129,-0.377 0.054,-0.342c-0.041,-0.288 -0.492,-0.469 -0.518,-0.76c-0.009,0.038 0.013,-0.45 -0.264,-0.198c-0.011,-0.305 -0.142,-0.027 -0.17,-0.331c-0.229,-0.076 0.093,-0.266 -0.139,-0.286c-0.024,-0.296 -0.463,-0.369 -0.487,-0.665c-0.347,0.075 -0.932,0.32 -1.165,0.463c-0.082,0.051 -1.276,0.554 -1.555,0.597c-0.768,0.231 -2.972,0.965 -4.104,-0.695c-0.573,-0.841 -0.204,-1.999 -0.958,-2.825c-0.426,-0.466 -1.142,0.006 -1.604,-0.447c-0.341,-0.334 -0.535,-1.187 -0.092,-1.545c-0.342,-0.369 -1.042,-0.439 -1.073,-1.041c-0.022,-0.452 0.272,-1.141 0.379,-1.545c0.098,-0.362 -0.231,-0.986 -0.544,-1.197c-0.422,-0.285 -0.473,-0.026 -0.913,-0.178c-0.312,-0.107 -0.693,-0.424 -0.891,-0.715c-0.157,-0.232 0.071,-0.888 0.2,-1.148c0.294,-0.593 0.665,-0.67 1.107,-1.083c0.237,-0.22 0.479,-0.826 0.71,-1.057c0.237,-0.235 0.197,-0.677 0.413,-0.94c0.474,-0.581 0.458,-1.134 0.532,-1.88c0.075,-0.745 -0.22,-1.42 -0.39,-2.094c-0.104,-0.414 -0.298,-0.777 -0.388,-1.188c-0.045,-0.208 0.028,-0.492 -0.042,-0.69c-0.06,-0.17 -0.167,-0.333 -0.215,-0.495c-0.23,-0.777 -0.022,-2.01 0.167,-2.779c0.107,-0.436 0.209,-0.781 0.491,-1.11c0.168,-0.194 0.239,-0.44 0.342,-0.677c0.091,-0.211 0.189,-0.536 0.326,-0.732c0.219,-0.318 0.626,-0.75 0.938,-0.997c0.525,-0.411 0.979,-0.562 1.577,-0.814c0.305,-0.127 0.584,-0.104 0.906,-0.149c0.354,-0.049 0.792,-0.203 1.14,-0.187c0.939,0.04 2.049,-0.038 2.981,0.122c0.636,0.11 1.146,0.146 1.777,0.273c0.403,0.081 1.033,0.225 1.407,0.4c0.417,0.194 1.042,0.464 1.413,0.711c0.322,0.215 0.492,0.389 0.826,0.598c0.272,0.171 0.302,0.391 0.59,0.551c0.103,0.057 0.8,1.443 0.713,0.91c0.004,0.557 0.317,0.68 0.283,1.237c0.051,-0.044 0.233,0.066 0.282,0.113c-0.161,0.253 -0.11,0.439 -0.157,0.741c-0.021,-0.015 0.244,0.767 -0.046,0.372c-0.01,0.303 -0.1,0.169 -0.143,0.471c0.325,0.017 -0.13,0.434 -0.216,0.521c-0.041,0.301 -0.193,0.294 -0.232,0.595c-0.361,-0.032 -0.23,0.969 -0.396,1.286c-0.07,0.135 -0.179,0.248 -0.201,0.398c-0.155,0.008 0.021,0.381 -0.12,0.418c-0.027,0.312 -0.367,0.24 -0.377,0.553c-0.012,-0.006 -0.022,-0.012 -0.034,-0.018c-0.021,0.303 -0.015,0.608 -0.06,0.907c-0.244,0.058 -0.094,1.153 -0.099,1.291c-0.005,0.164 -0.11,0.338 0.068,0.433c-0.012,0.794 0.209,1.415 0.844,2.021c0.331,-0.291 0.076,-0.403 0.178,-0.813c0.117,-0.472 0.491,-0.873 0.687,-1.322c0.309,-0.711 1.436,-2.071 2.089,-2.442c0.421,-0.241 1.043,-0.431 1.546,-0.33c0.639,0.128 1.058,0.981 1.375,1.497c0.327,0.532 0.285,1.033 0.384,1.675c0.085,0.56 -0.152,1.181 -0.321,1.715c-0.188,0.597 -0.321,1.116 -0.769,1.561c-0.372,0.372 -0.916,0.725 -1.158,1.185c-0.694,1.322 0.227,3.359 0.66,4.849c0.22,0.759 0.345,1.344 0.563,2.094c0.104,0.357 0.49,0.909 0.637,1.232c0.151,0.329 0.327,1.032 0.532,1.339c0.458,0.688 0.231,0.562 0.736,1.013c0.448,0.4 0.258,0.414 0.779,0.695" fill="#a16235" stroke="none" stroke-width="1"/><path d="M302.9135,102.608c0.132,0.032 0.266,0.095 0.397,0.136c0.217,0.067 0.44,0.102 0.655,0.171c0.371,0.117 0.752,0.202 1.127,0.308c0.396,0.113 0.798,0.235 1.169,0.414c0.109,0.053 0.255,0.122 0.329,0.221c0.041,0.057 0.061,0.135 0.105,0.194c0.039,0.057 0.086,0.087 0.082,0.16c-0.004,0.099 -0.1,0.162 -0.174,0.209c-0.22,0.14 -0.449,0.222 -0.697,0.307c-0.211,0.073 -0.401,0.172 -0.609,0.237c-0.191,0.06 -0.389,0.113 -0.586,0.16c-0.342,0.082 -0.676,0.159 -1.03,0.177c-0.047,0.002 -0.316,0.048 -0.271,-0.049c0.02,-0.047 0.118,-0.051 0.16,-0.072c0.061,-0.032 0.091,-0.076 0.137,-0.122c0.075,-0.076 0.133,-0.147 0.194,-0.236c0.068,-0.099 0.103,-0.178 0.127,-0.292c0.046,-0.21 0.141,-0.408 0.151,-0.627c0.007,-0.133 0.037,-0.228 -0.01,-0.356c-0.038,-0.105 -0.047,-0.262 -0.11,-0.345c-0.062,-0.08 -0.121,-0.107 -0.211,-0.141c-0.153,-0.06 -0.305,-0.127 -0.461,-0.181c-0.187,-0.065 -0.328,-0.147 -0.479,-0.268" fill="#ffffff" stroke="none" stroke-width="1"/><path d="M304.0845,103.119c0.064,0.084 0.091,0.164 0.116,0.27c0.094,0.358 -0.034,0.765 -0.122,1.112c-0.021,0.09 -0.064,0.178 -0.101,0.265c-0.034,0.083 -0.068,0.091 -0.142,0.136c-0.116,0.071 -0.186,0.188 -0.316,0.244c-0.086,0.035 -0.17,0.06 -0.261,0.064c-0.274,0.014 -0.454,-0.063 -0.606,-0.301c-0.165,-0.261 -0.329,-0.52 -0.329,-0.837c0,-0.132 -0.012,-0.268 0.017,-0.396c0.029,-0.136 0.092,-0.251 0.146,-0.378c0.065,-0.16 0.166,-0.284 0.263,-0.425c0.062,-0.091 0.121,-0.114 0.225,-0.107c0.193,0.013 0.405,0.049 0.591,0.102c0.099,0.027 0.194,0.059 0.282,0.11c0.083,0.048 0.158,0.138 0.258,0.149" fill="#371e10" stroke="none" stroke-width="1"/><path d="M317.8945,166.2c0.397,0.03 0.979,0.156 1.356,0.306c0.485,0.195 1.171,0.337 1.695,0.413c1.096,0.156 2.057,0.279 3.157,0.169c0.985,-0.097 1.831,-0.344 2.72,-0.784c0.742,-0.367 1.29,-1.142 1.995,-1.479c1.019,-0.482 0.201,1.547 0.028,2.026c-0.389,1.082 -1.033,2.025 -1.49,3.076c-1.078,2.467 -2.296,4.941 -3.594,7.319c-1.145,2.095 -2.252,4.25 -3.428,6.342c-0.565,1.003 -0.894,2.013 -1.422,3.016c-0.574,1.09 -0.344,1.622 -0.111,2.784c0.198,0.987 0.157,1.912 0.157,2.954c0,1.047 -0.271,1.959 -0.223,3.031c0.104,2.282 -0.37,4.082 -1.035,6.194c-0.239,0.764 -0.118,2.217 -1.226,2.189c-0.272,-0.008 -0.448,-0.149 -0.709,-0.175c-0.268,-0.032 -0.424,0.06 -0.651,0.06c-0.523,0 -0.838,-0.209 -1.241,-0.535c-0.739,-0.595 -1.295,-1.563 -1.641,-2.427c-0.404,-1.015 -0.998,-1.979 -1.374,-2.958c-0.449,-1.174 -1.248,0.116 -2.546,-0.943c-0.213,-0.176 0.924,-1.557 1.079,-2.189c0.234,-0.945 -0.094,-2.02 0.06,-3.004c0.138,-0.89 0.914,-1.664 1.422,-2.425c1.254,-1.879 2.522,-3.554 2.984,-5.821c0.305,-1.499 0.621,-2.908 1.066,-4.377c0.527,-1.738 0.909,-2.996 1.434,-4.717c0.429,-1.408 0.703,-3.152 1.088,-4.553c0.171,-0.619 0.191,-1.5 0.345,-2.129c0.11,-0.46 0.104,-0.922 0.104,-1.419" fill="#a16235" stroke="none" stroke-width="1"/><path d="M314.3465,181.401c-0.304,0.104 -0.812,0.095 -0.896,0.462c-0.975,0.448 -2.068,0.765 -1.941,2.021c0.105,1.064 0.78,1.793 0.837,2.889c0.794,-0.089 0.854,-1.848 0.997,-2.42c0.122,-0.494 0.258,-1.104 0.516,-1.562c0.275,-0.486 0.547,-0.721 0.49,-1.332M318.5465,188.322c1.92,0.75 3.216,2.601 5.143,3.444c0.526,0.231 1.029,0.534 1.538,0.769c0.363,0.167 1.227,0.28 1.482,0.578c0.255,0.297 -0.322,1.924 -0.535,2.363c-0.033,0.068 -0.007,0.268 -0.01,0.346c-2.12,0.106 -3.977,-0.294 -5.713,-1.487c-0.313,-0.216 -0.901,-0.425 -1.151,-0.678c-0.288,-0.29 -0.262,-0.769 -0.282,-1.198c-0.043,-0.931 -0.098,-1.854 -0.367,-2.709c-0.111,-0.348 -0.271,-1.191 -0.166,-1.489" fill="#4e3a78" stroke="none" stroke-width="1"/><path d="M312.7705,127.64c0.392,-0.532 0.937,-0.852 1.336,-1.388c0.522,-0.702 1.282,-1.476 2.097,-1.85c0.912,-0.417 2.173,-0.505 3.077,-1.057c0.979,-0.601 2.019,-0.96 2.849,-1.707c0.694,-0.625 1.092,-1.729 2.188,-0.458c0.708,0.82 2.034,0.958 2.597,2.017c0.463,0.868 0.976,1.62 1.45,2.458c0.535,0.939 1.261,1.765 1.64,2.793c0.409,1.114 0.917,2.187 1.358,3.289c0.439,1.1 0.92,2.21 1.104,3.37c0.089,0.552 0.104,1.079 0.13,1.652c0.035,0.667 0.275,1.251 0.402,1.902c0.423,2.208 0.432,4.28 0.328,6.557c-0.11,2.364 -0.109,4.79 -0.25,7.137c-0.078,1.277 -0.086,2.521 -0.216,3.78c-0.119,1.151 -0.449,2.151 -0.396,3.359c0.046,1.1 0.532,1.983 0.528,3.103c0,1.099 -0.182,2.315 0.348,3.306c0.251,0.47 0.719,0.858 0.841,1.386c0.117,0.5 -0.025,1.066 -0.214,1.503c-0.195,0.451 -0.67,2.036 -0.86,2.458c0.094,1.051 0.656,1.693 0.943,2.678c0.686,2.373 -2.605,4.792 -4.467,5.489c-2.282,0.855 -4.26,1.45 -6.96,1.143c-0.084,-1.693 0.927,-2.954 1.726,-4.334c0.528,-0.911 0.838,-1.883 1.253,-2.842c0.432,-0.999 1.087,-1.941 1.623,-2.853c0.296,-0.5 0.312,-0.889 0.532,-1.432c0.208,-0.513 0.509,-1.218 0.754,-1.729c0.244,-0.515 0.596,-0.833 0.711,-1.404c0.091,-0.444 0.506,-1.184 0.199,-1.578c-0.83,0.357 -1.417,1.247 -2.313,1.645c-0.859,0.381 -1.817,0.719 -2.707,0.862c-1.053,0.171 -2.514,0.251 -3.458,0.023c-0.974,-0.235 -1.778,-0.692 -2.813,-0.48c0.043,0.714 -0.303,1.386 -0.523,2.04c-0.24,0.717 -0.324,1.383 -0.464,2.115c-0.268,1.406 -0.6,2.656 -0.938,4.03c-0.134,0.539 -0.083,1.124 -0.279,1.652c-0.19,0.513 -0.473,0.946 -0.63,1.454c-0.338,1.093 -0.11,2.302 -1.654,1.833c-2.03,-0.614 -4.341,-1.117 -5.266,-3.203c-0.354,-0.793 -0.73,-2.16 0.063,-2.859c0.524,-0.462 0.592,-0.647 0.892,-1.322c0.218,-0.495 0.426,-0.972 0.527,-1.52c0.202,-1.1 -0.177,-2.193 -0.062,-3.305c0.113,-1.12 -0.018,-2.429 0.292,-3.537c0.354,-1.269 0.283,-2.32 0.213,-3.631c-0.058,-1.104 0.228,-2.309 -0.057,-3.325c-0.594,-2.123 -1.958,-4.031 -2.908,-6.028c-0.997,-2.094 -1.944,-3.86 -1.705,-6.278c0.213,-2.144 0.763,-3.937 1.489,-5.979c0.435,-1.223 1.221,-2.553 1.574,-3.781c0.327,-1.143 0.685,-2.174 0.973,-3.321c0.275,-1.094 0.518,-2.346 1.068,-3.358c0.187,-0.343 0.977,-1.665 1.693,-1.381c0.454,0.18 0.401,0.495 0.473,0.774" fill="#4e3a78" stroke="none" stroke-width="1"/><path d="M314.6855,179.711c-0.561,0.954 0.091,1.398 -1.056,1.916c-1.017,0.456 -1.339,1.152 -2.116,1.346c-0.269,1.485 1.119,2.565 0.897,3.85c-0.138,0.799 -1.635,2.679 -2.154,3.363c-1.205,1.592 -0.733,1.752 -0.727,3.535c0.006,1.444 -0.602,1.822 -1.22,3.059c0.664,0.668 1.564,0.67 2.389,0.396c0.819,1.982 2.516,7.341 5.33,6.527c0.864,-0.251 0.593,0.864 1.428,-0.908c0.336,-0.711 1.288,-5.563 1.457,-6.297c0.226,-0.972 -0.155,-2.075 -0.104,-3.026c1.958,1.42 4.838,2.546 7.354,2.353c0.292,-0.959 0.31,-1.73 1.065,-2.474c-1.298,-0.602 -2,-0.535 -3.209,-1.314c-0.912,-0.587 -2.838,-1.521 -3.65,-2.215c-1.136,-0.974 -2.244,-1.306 -1.768,-2.578c0.324,-0.859 0.684,-1.521 1.305,-2.249c0.38,-0.446 0.725,-1.603 0.996,-2.103c0.216,-0.397 0.331,-1.035 0.629,-1.488c0.971,-1.475 3.33,-0.527 4.788,-0.989c1.163,-0.369 3.729,-1.032 4.623,-1.676c0.217,-0.158 1.581,-1.502 1.666,-1.211c0.158,0.542 1.916,3.343 2.146,3.874c0.446,1.016 0.387,2.385 0.555,3.466c0.377,2.422 0.3,5.822 -0.167,8.194c-0.456,2.3 -1.806,4.315 -2.449,6.612c-0.366,1.302 -0.703,2.775 -1.163,4.03c-0.392,1.062 -0.584,2.508 -0.85,3.604c-0.604,2.5 -1.15,4.405 -1.145,7.007c0.006,2.605 -1.093,4.074 1.172,6.24c1.938,1.854 5.773,3.381 7.16,5.542c1.109,1.731 -0.711,3.33 0.34,4.075c0.905,0.642 4.654,1.412 5.316,2.343c0.557,0.778 0.413,2.668 0.291,3.555c-0.341,2.447 -2.289,1.973 -3.833,3.754c-0.87,1.004 -0.769,1.734 -0.975,3.063c-0.135,0.859 -0.635,1.931 -1.028,2.779c-0.676,1.465 -1.579,4.107 -3.317,4.643c1.103,1.248 2.598,2.559 3.515,3.705c0.951,1.188 1.244,3.704 0.753,4.999c-0.328,0.865 -1.266,1.82 -0.783,2.811c0.338,0.688 1.371,1.027 2.031,1.413c0.923,0.542 1.352,1.122 1.307,2.513c-0.044,1.393 -4.034,3.391 -4.749,2.8c-1.481,-1.225 -5.408,-2.812 -9.627,-3.821c-3.008,-0.719 -6.542,-0.665 -9.574,-1.082c-2.218,-0.303 -4.983,-0.889 -6.652,-2.656c-0.922,-0.974 -1.776,-3.848 -0.972,-5.189c0.55,-0.92 1.897,-1.434 2.298,-1.938c0.688,-0.868 -1.365,-1.306 -1.727,-2.02c-0.95,-1.877 0.833,-4.842 1.077,-6.53c0.321,-2.217 -0.052,-3.704 -0.047,-5.863c0.006,-2.218 -0.969,-3.971 -1.077,-6.216c-0.113,-2.367 -1.021,-4.862 -1.957,-7.036c-1.789,-4.162 -4.101,-7.202 -6.515,-11.462c-2.18,-3.846 0.839,-9.141 1.772,-12.854c0.514,-2.043 1.033,-4.365 1.439,-6.433c0.397,-2.016 1.917,-4.932 2.417,-6.934c0.467,-1.861 0.429,-2.936 0.887,-4.855c0.46,-1.929 0.932,-3.695 1.305,-5.618c1.382,0.888 3.859,1.523 5.033,1.672" fill="#a17456" stroke="none" stroke-width="1"/><path d="M339.2695,243.68c0.193,0.39 0.503,0.717 0.806,1.045c0.698,0.752 1.746,1.558 2.219,2.46c0.511,0.972 0.123,2.243 -0.263,3.169c-0.437,1.044 -1.003,1.475 -1.984,1.966c-0.771,0.386 -1.638,1.391 -2.433,0.96c-0.754,-0.41 -1.533,-1.413 -2.046,-2.064c-0.771,-0.979 0.377,-1.539 0.844,-2.449c0.488,-0.951 0.831,-1.863 1.354,-2.769c0.281,-0.488 0.96,-2.879 1.503,-2.318" fill="#4e3a78" stroke="none" stroke-width="1"/><path d="M338.1475,253.661c-0.037,-0.607 1.256,-0.903 1.722,-1.171c0.621,-0.368 1.363,-0.631 1.832,-1.223c0.639,-0.81 1.394,-3.253 0.818,-4.206c0.311,0.497 0.904,0.796 1.232,1.319c0.294,0.467 0.335,0.931 0.473,1.449c0.134,0.508 0.361,1.078 0.267,1.652c-0.095,0.56 -0.584,0.877 -1.011,1.239c-0.798,0.678 -1.634,1.209 -2.479,1.817c-0.551,0.397 -1.533,1.353 -1.863,1.259c-0.424,-0.118 -1.271,-1.975 -0.995,-2.204" fill="#bfb3d8" stroke="none" stroke-width="1"/><path d="M313.2775,262.844c0.562,-0.146 1.167,0.035 1.708,0.186c0.843,0.236 1.684,0.501 2.565,0.607c1.455,0.175 2.98,0.199 4.449,0.266c1.604,0.071 3.05,0.41 4.628,0.715c2.798,0.538 5.533,1.473 8.055,2.761c-0.219,0.806 -1.217,0.946 -1.858,1.29c-0.83,0.444 -1.755,0.536 -2.678,0.702c-1.076,0.195 -2.105,0.659 -3.138,1.005c-1.261,0.419 -2.826,0.929 -4.129,1.113c-0.938,0.132 -1.696,0.145 -2.642,0.298c-1.254,0.202 -2.733,0.028 -3.973,-0.134c-1.449,-0.189 -2.955,-0.741 -4.354,-1.179c-1.29,-0.403 -2.439,-1.114 -3.67,-1.651c-0.596,-0.261 -0.984,-0.642 -1.439,-1.093c-0.374,-0.368 -0.934,-0.676 -1.235,-1.098c-0.199,-0.281 -0.261,-0.691 -0.44,-1.013c-0.151,-0.271 -0.528,-0.754 -0.529,-1.058c-0.003,-0.754 1.372,-0.643 1.895,-0.615c0.89,0.047 1.719,0.043 2.601,-0.043c0.471,-0.049 4.531,-0.635 4.36,-1.146" fill="#4e3a78" stroke="none" stroke-width="1"/><path d="M304.5075,264.387c0.031,0.136 0.109,0.263 0.145,0.393c0.239,0.907 0.456,1.528 1.132,2.249c0.315,0.337 0.646,0.642 1.013,0.914c0.333,0.249 0.513,0.592 0.877,0.794c1.004,0.557 2.133,1.187 3.212,1.6c1.44,0.545 2.944,0.871 4.444,1.173c1.554,0.314 3.814,0.47 5.384,0.314c1.383,-0.137 2.267,-0.497 3.616,-0.843c1.328,-0.34 2.59,-0.975 3.921,-1.278c1.364,-0.314 2.757,-0.615 4.097,-0.914c0.822,-0.185 1.586,-0.704 2.071,-1.232c0.335,-0.366 0.556,-0.037 0.97,0.166c0.527,0.256 0.531,0.258 0.531,0.848c0,0.357 0.071,0.812 -0.099,1.135c-0.205,0.391 -0.772,0.519 -1.176,0.657c-1.577,0.554 -3.192,1.147 -4.805,1.565c-1.481,0.384 -3.009,0.843 -4.401,1.488c-1.592,0.737 -2.733,1.239 -4.483,1.519c-2.92,0.465 -7.5,-0.152 -10.6,-1.529c-1.461,-0.647 -3.145,-1.128 -4.47,-2.006c-0.798,-0.526 -1.67,-1.33 -2.026,-2.252c-0.262,-0.681 -0.09,-1.787 -0.056,-2.515c0.019,-0.377 0.079,-0.838 0.22,-1.191c0.11,-0.275 0.762,-1.039 0.617,-1.099" fill="#bfb3d8" stroke="none" stroke-width="1"/><path d="M318.2435,102.242c-0.081,0.067 -0.463,0.095 -0.301,-0.041c0.866,-0.726 2.006,-0.961 2.809,0.049c1.234,1.553 1.323,3.36 0.354,5.063c-1.026,1.806 -3.707,4.029 -5.029,1.368c-0.044,-0.089 0.326,-0.218 0.383,-0.102c0.207,0.415 0.471,1.007 0.964,1.152c0.68,0.203 1.382,-0.293 1.851,-0.717c0.717,-0.647 1.454,-1.399 1.804,-2.322c0.306,-0.806 0.48,-1.701 0.222,-2.551c-0.335,-1.098 -1.375,-3.309 -3.057,-1.899zM316.5495,108.68c0.045,0.092 -0.326,0.219 -0.382,0.103c-0.293,-0.593 0.126,-0.906 0.698,-0.987c1.187,-0.166 2.593,0.25 3.073,-1.252c0.036,-0.115 0.415,-0.167 0.379,-0.056c-0.251,0.784 -0.952,1.343 -1.772,1.45c-0.566,0.073 -2.5,-0.278 -1.996,0.742zM320.7285,104.076c0.018,0.124 -0.369,0.21 -0.384,0.101c-0.152,-1.071 -1.557,-0.958 -2.126,-0.269c-0.533,0.645 -0.895,1.408 -1.449,2.038c-0.071,0.081 -0.45,0.119 -0.353,0.008c0.785,-0.89 1.224,-2.401 2.517,-2.684c0.736,-0.161 1.665,-0.101 1.795,0.806zM301.6485,93.601c0.06,-0.09 0.439,-0.14 0.353,-0.008c-0.709,1.094 -1.352,2.321 -1.583,3.621c-0.266,1.492 0.07,2.827 0.498,4.246c0.448,1.489 0.87,3.334 -0.14,4.703c-0.064,0.087 -0.446,0.133 -0.353,0.008c1.45,-1.967 -0.061,-4.446 -0.387,-6.49c-0.352,-2.224 0.413,-4.23 1.612,-6.08zM300.4575,106.123c0.049,-0.113 0.424,-0.155 0.38,-0.056c-0.441,1.062 -3.768,3.68 -1.331,4.362c0.263,0.073 1.192,0.034 1.332,0.477c0.147,0.466 0.073,0.947 0.039,1.427c-0.009,0.111 -0.39,0.191 -0.38,0.057c0.036,-0.503 0.305,-1.553 -0.558,-1.648c-0.229,-0.023 -0.525,-0.04 -0.741,-0.142c-0.412,-0.196 -1.007,-0.545 -1.003,-1.085c0.009,-1.351 1.759,-2.184 2.262,-3.392zM300.5505,110.245c-0.138,-0.036 0.207,-0.196 0.311,-0.17c0.35,0.092 0.69,0.282 1.053,0.32c0.682,0.075 0.77,-0.556 0.431,-0.978c-0.081,-0.101 0.286,-0.23 0.357,-0.141c0.405,0.505 0.227,1.021 -0.365,1.241c-0.618,0.229 -1.2,-0.118 -1.787,-0.272zM303.9875,113.415c0.082,0.098 -0.283,0.229 -0.358,0.141c-0.713,-0.841 -1.972,-1.061 -3.02,-1.1c-0.256,-0.01 0.031,-0.195 0.157,-0.189c1.108,0.042 2.464,0.254 3.221,1.148zM300.4995,112.39c0.059,-0.108 0.426,-0.143 0.381,-0.056c-1.411,2.632 3.082,2.412 4.31,1.34c0.08,-0.069 0.46,-0.098 0.301,0.041c-1.314,1.148 -6.56,1.601 -4.992,-1.325zM301.2695,114.384c0.058,-0.11 0.427,-0.144 0.38,-0.057c-0.353,0.67 -0.372,1.438 0.46,1.716c0.641,0.216 1.452,0.197 2.048,-0.143c0.108,-0.062 0.455,-0.042 0.23,0.085c-1.269,0.725 -4.2,0.451 -3.118,-1.601zM302.6855,116.379c-0.142,-0.053 0.207,-0.208 0.309,-0.168c1.161,0.447 0.736,1.991 1.176,2.905c1.014,2.111 4.032,0.725 5.606,0.112c3.879,-1.512 8.036,-4.772 8.104,-9.351c0.003,-0.132 0.385,-0.196 0.384,-0.103c-0.07,4.7 -4.351,8.04 -8.345,9.58c-1.521,0.585 -3.204,1.334 -4.861,0.941c-2.089,-0.496 -0.768,-3.299 -2.373,-3.916zM318.9405,109.501c0.001,-0.132 0.384,-0.197 0.383,-0.102c-0.022,2.018 0.64,4.278 1.207,6.21c0.546,1.867 1.292,3.692 2.87,4.92c0.087,0.065 -0.26,0.215 -0.357,0.141c-1.572,-1.225 -2.38,-3.078 -2.896,-4.959c-0.54,-1.957 -1.23,-4.172 -1.207,-6.21zM312.9105,127.056c-0.018,0.113 -0.4,0.185 -0.38,0.056c0.231,-1.486 0.481,-3.074 0.152,-4.566c-0.326,-1.483 -1.149,-2.367 -1.964,-3.585c-0.076,-0.112 0.296,-0.232 0.357,-0.141c0.819,1.226 1.75,2.083 1.989,3.625c0.243,1.557 0.085,3.065 -0.154,4.611zM308.6675,101.763c0.081,0.048 -0.253,0.205 -0.359,0.141c-1.121,-0.666 -2.366,-1.583 -3.755,-1.476c-0.914,0.07 -1.803,0.233 -2.721,0.224c-0.258,-0.003 0.029,-0.192 0.156,-0.19c1.163,0.013 2.473,-0.439 3.63,-0.161c1.124,0.271 2.064,0.876 3.049,1.462z" fill="#010101" stroke="none" stroke-width="1"/><path d="M310.3815,85.536c-0.071,0.055 -0.425,0.092 -0.347,0.031c2.254,-1.724 4.866,-2.086 7.634,-2.146c0.185,-0.003 -0.173,0.152 -0.249,0.154c-2.547,0.053 -4.947,0.363 -7.038,1.961zM319.0545,101.577c-0.032,0.097 -0.4,0.138 -0.377,0.069c0.859,-2.455 1.819,-6.102 0.709,-8.626c-1.382,-3.143 -4.6,-5.306 -7.443,-7.01c-0.048,-0.028 0.267,-0.186 0.361,-0.129c2.724,1.633 6.288,3.892 7.465,7.037c0.991,2.646 0.184,6.09 -0.715,8.659zM320.9935,102.345c-0.071,0.088 -0.399,0.095 -0.377,0.068c2.374,-2.898 4.727,-6.899 3.601,-10.789c-0.905,-3.133 -3.673,-6.901 -6.832,-8.053c-0.109,-0.04 0.232,-0.176 0.315,-0.146c3.044,1.11 6.165,4.976 6.9,8.097c0.947,4.015 -1.128,7.798 -3.607,10.823z" fill="#010101" stroke="none" stroke-width="1"/><path d="M301.8735,93.648c-0.104,0.145 -0.464,0.084 -0.321,-0.115c1.159,-1.629 3.645,-1.853 5.475,-1.878c2.129,-0.031 4.448,0.075 6.334,1.174c1.896,1.103 3.725,3.196 2.874,5.551c-1.082,2.995 -3.148,6.004 -0.223,8.714c0.163,0.152 -0.168,0.34 -0.295,0.222c-1.686,-1.559 -1.998,-3.557 -1.251,-5.693c0.851,-2.438 2.632,-4.789 0.448,-7.124c-1.698,-1.818 -4.015,-2.43 -6.423,-2.538c-2.064,-0.094 -5.271,-0.204 -6.618,1.687zM317.9655,102.131c0.156,-0.109 0.468,0.028 0.256,0.179c-1.612,1.144 -2.59,2.722 -2.339,4.741c0.021,0.188 -0.362,0.281 -0.384,0.102c-0.266,-2.136 0.759,-3.81 2.467,-5.022zM312.3895,87.739c0.226,0.093 -0.056,0.329 -0.22,0.261c-2.209,-0.905 -5.214,-0.744 -7.315,0.402c-1.064,0.58 -2.341,1.39 -2.717,2.629c-0.259,0.853 -0.058,1.686 -0.23,2.544c-0.035,0.172 -0.427,0.22 -0.388,0.028c0.236,-1.167 -0.133,-2.274 0.613,-3.326c0.725,-1.022 1.788,-1.81 2.944,-2.294c2.241,-0.939 5.026,-1.179 7.313,-0.244zM312.2345,85.815c0.227,0.091 -0.057,0.328 -0.221,0.261c-2.339,-0.945 -5.867,-0.267 -7.89,1.179c-1.092,0.78 -2.249,1.894 -2.311,3.333c-0.046,1.067 0.161,2.119 0.082,3.187c-0.015,0.176 -0.404,0.23 -0.389,0.029c0.125,-1.688 -0.407,-3.24 0.456,-4.806c0.549,-0.992 1.613,-1.833 2.604,-2.347c2.188,-1.138 5.307,-1.792 7.669,-0.836zM335.6205,95.587c-0.177,-0.137 0.158,-0.329 0.296,-0.225c1.554,1.21 1.37,-2.484 1.232,-2.988c-0.319,-1.182 -0.907,-2.203 -1.767,-3.073c-1.862,-1.882 -4.221,-3.205 -6.692,-4.12c-1.639,-0.605 -3.345,-1.136 -5.073,-1.419c-1.134,-0.186 -2.295,-0.356 -3.445,-0.334c-0.668,0.014 -1.636,-0.095 -2.254,0.201c-0.197,0.094 -0.407,-0.117 -0.172,-0.229c0.764,-0.363 1.871,-0.259 2.691,-0.258c1.307,0.002 2.643,0.188 3.921,0.452c2.523,0.52 5.052,1.341 7.321,2.57c2.743,1.487 5.568,3.605 5.979,6.914c0.146,1.162 -0.446,3.749 -2.037,2.509zM319.4355,108.797c0.061,-0.162 0.444,-0.163 0.367,0.048c-0.374,1.003 -0.637,1.76 -0.319,2.831c0.152,0.516 0.319,1.028 0.511,1.532c0.407,1.066 0.886,2.185 1.668,3.039c0.776,0.85 4.037,2.799 4.033,0.243c-0.003,-1.443 -0.778,-2.443 -1.751,-3.423c-0.137,-0.137 0.225,-0.295 0.349,-0.17c0.967,0.97 2.501,2.857 1.607,4.362c-0.544,0.916 -1.648,0.945 -2.578,0.577c-1.606,-0.635 -2.641,-2.001 -3.316,-3.554c-0.396,-0.913 -0.86,-1.932 -1.006,-2.921c-0.138,-0.967 0.104,-1.67 0.435,-2.564zM323.8985,113.064c-0.122,-0.157 0.244,-0.31 0.351,-0.17c0.613,0.79 1.18,1.668 1.95,2.319c0.529,0.446 1.388,1.125 2.098,0.535c0.57,-0.476 0.893,-1.134 0.749,-1.886c-0.348,-1.794 -1.785,-3.483 -3.273,-4.491c-0.181,-0.124 0.152,-0.32 0.296,-0.223c1.513,1.025 4.526,4.133 3.077,6.155c-1.817,2.528 -4.118,-0.783 -5.248,-2.239zM329.5835,97.917c-0.188,-0.106 0.146,-0.307 0.294,-0.223c1.528,0.869 3.119,1.891 4.348,3.161c0.713,0.735 3.285,2.521 3.459,0.3c0.082,-1.061 -0.179,-2.19 -0.617,-3.158c-0.941,-2.067 -2.51,-3.739 -4.197,-5.23c-1.488,-1.317 -3.431,-2.303 -5.4,-2.627c-0.257,-0.042 -0.059,-0.312 0.133,-0.282c2.347,0.384 4.539,1.628 6.199,3.303c2.062,2.081 3.942,4.135 4.277,7.18c0.169,1.529 -1.07,2.697 -2.606,1.963c-0.998,-0.476 -1.614,-1.397 -2.468,-2.068c-1.085,-0.85 -2.223,-1.641 -3.422,-2.319zM329.0525,105.991c-0.134,-0.142 0.229,-0.299 0.346,-0.17c0.565,0.604 1.239,1.012 1.742,1.68c0.67,0.886 1.266,1.836 2.031,2.65c0.61,0.652 1.831,1.703 2.656,0.648c0.253,-0.324 0.404,-0.69 0.43,-1.104c0.057,-0.8 -0.082,-1.595 -0.309,-2.362c-0.986,-3.335 -2.984,-7.472 -6.154,-9.171c-0.189,-0.102 0.146,-0.303 0.295,-0.223c2.255,1.208 3.798,3.654 4.89,5.891c0.809,1.654 1.817,3.706 1.688,5.599c-0.094,1.347 -1.37,2.777 -2.793,1.82c-1.088,-0.732 -1.816,-1.852 -2.576,-2.897c-0.672,-0.926 -1.485,-1.548 -2.246,-2.361zM326.7835,110.176c-0.229,-0.079 0.054,-0.319 0.219,-0.261c1.627,0.562 2.283,2.148 3.116,3.519c0.25,0.411 0.504,0.844 0.841,1.191c0.65,0.669 2.082,1.11 2.476,-0.066c0.447,-1.324 0,-2.912 -0.616,-4.121c-0.094,-0.184 0.269,-0.325 0.349,-0.171c0.736,1.451 1.735,5.751 -1.199,5.412c-1.095,-0.127 -1.881,-1.505 -2.357,-2.34c-0.709,-1.244 -1.381,-2.66 -2.829,-3.163zM310.8095,90.941c0.257,0.039 0.059,0.31 -0.132,0.282c-3.005,-0.461 -6.316,-0.308 -8.631,1.908c-0.124,0.119 -0.494,0.05 -0.321,-0.117c2.439,-2.337 5.896,-2.564 9.084,-2.073zM327.3295,101.408c0.125,0.154 -0.238,0.309 -0.349,0.17c-1.102,-1.366 -2.501,-1.871 -4.223,-1.997c-0.259,-0.02 -0.058,-0.296 0.133,-0.282c1.8,0.132 3.287,0.678 4.439,2.109zM326.4115,89.434c0.177,0.135 -0.158,0.328 -0.296,0.223c-0.782,-0.598 -1.688,-0.558 -2.581,-0.238c-0.232,0.084 -0.297,-0.185 -0.07,-0.266c1,-0.361 2.072,-0.389 2.947,0.281zM328.0245,96.622c0.094,0.181 -0.271,0.324 -0.349,0.169c-0.608,-1.174 -1.695,-2.039 -3.078,-1.745c-0.237,0.05 -0.312,-0.215 -0.072,-0.267c1.533,-0.324 2.804,0.494 3.499,1.843zM320.6735,107.579c-0.033,-0.184 0.35,-0.283 0.382,-0.102c0.188,1.051 0.573,2.212 1.599,2.718c0.22,0.108 -0.059,0.341 -0.219,0.262c-1.109,-0.549 -1.558,-1.725 -1.762,-2.878z" fill="#000000" stroke="none" stroke-width="1"/><path d="M301.8265,102.271c-0.101,-0.087 0.255,-0.234 0.356,-0.147c1.085,0.935 2.65,0.901 3.976,1.274c0.367,0.104 1.316,0.313 0.822,0.808c-0.086,0.084 -0.463,0.099 -0.306,-0.059c0.294,-0.293 -0.877,-0.586 -0.961,-0.606c-0.622,-0.145 -1.253,-0.244 -1.874,-0.392c-0.768,-0.184 -1.405,-0.356 -2.013,-0.878zM302.2085,105.277c-0.153,-0.087 0.2,-0.241 0.304,-0.181c1.212,0.682 3.043,-0.4 4.108,-1.011c0.121,-0.069 0.46,-0.021 0.236,0.107c-1.205,0.692 -3.255,1.87 -4.648,1.085zM302.9925,105.457c-0.259,-0.003 0.013,-0.212 0.151,-0.211c0.968,0.015 0.922,-1.604 0.535,-2.162c-0.087,-0.124 0.284,-0.25 0.356,-0.147c0.641,0.921 0.23,2.54 -1.042,2.52zM302.5715,102.756c0.074,-0.096 0.458,-0.129 0.356,0.003c-0.606,0.794 -0.698,1.977 0.294,2.501c0.154,0.082 -0.199,0.237 -0.307,0.181c-1.063,-0.561 -1.004,-1.818 -0.343,-2.685zM305.5925,103.565c-0.059,0.003 -0.152,-0.035 -0.103,-0.108c0.056,-0.076 0.167,-0.098 0.254,-0.102c0.331,-0.016 0.616,-0.178 0.892,-0.344c0.073,-0.045 0.188,-0.075 0.271,-0.038c0.085,0.038 0.015,0.115 -0.034,0.145c-0.401,0.241 -0.809,0.424 -1.28,0.447zM304.7985,103.416c-0.081,-0.012 -0.095,-0.08 -0.034,-0.13c0.07,-0.061 0.179,-0.085 0.27,-0.072c0.292,0.041 0.7,-0.171 0.945,-0.31c0.075,-0.042 0.187,-0.076 0.271,-0.037c0.082,0.037 0.016,0.116 -0.035,0.145c-0.397,0.222 -0.952,0.469 -1.417,0.404zM305.7195,104.732c-0.259,-0.019 0.009,-0.221 0.15,-0.208c0.608,0.044 1.231,-0.337 1.592,-0.809c0.034,0.036 0.067,0.072 0.102,0.106c-0.429,-0.028 -0.854,-0.082 -1.284,-0.112c-0.258,-0.019 0.009,-0.221 0.151,-0.211c0.428,0.03 0.854,0.083 1.283,0.112c0.054,0.004 0.16,0.032 0.102,0.108c-0.467,0.614 -1.312,1.072 -2.096,1.014zM306.8845,104.047c0.088,-0.084 0.466,-0.096 0.307,0.062c-0.294,0.282 -0.636,0.496 -1.024,0.62c-0.173,0.055 -0.309,-0.082 -0.1,-0.167c0.097,-0.04 0.192,-0.077 0.29,-0.115c0.113,-0.047 0.404,0.009 0.192,0.128c-0.08,0.045 -0.161,0.09 -0.241,0.135c-0.121,0.068 -0.462,0.02 -0.235,-0.107c0.085,-0.048 0.159,-0.086 0.247,-0.125c0.034,0.056 0.065,0.111 0.099,0.167c-0.058,0.018 -0.113,0.035 -0.17,0.054c-0.168,0.062 -0.399,-0.045 -0.148,-0.151c0.111,-0.046 0.183,-0.073 0.302,-0.1c0.232,-0.055 0.273,0.112 0.05,0.184c-0.096,0.032 -0.19,0.068 -0.287,0.099c-0.118,0.038 -0.328,-0.049 -0.143,-0.145c0.092,-0.046 0.171,-0.084 0.264,-0.124c0.07,-0.029 0.396,-0.019 0.229,0.104c-0.058,0.042 -0.112,0.078 -0.174,0.115c-0.062,-0.043 -0.129,-0.087 -0.192,-0.129c0.049,-0.029 0.097,-0.059 0.145,-0.088c0.091,0.027 0.181,0.055 0.271,0.083c-0.106,0.056 -0.209,0.109 -0.309,0.179c-0.078,-0.035 -0.157,-0.071 -0.235,-0.106c0.114,-0.062 0.227,-0.131 0.342,-0.194c0.063,0.043 0.129,0.087 0.193,0.128c-0.173,0.071 -0.344,0.138 -0.511,0.218c-0.119,0.056 -0.401,-0.021 -0.192,-0.129c0.188,-0.097 0.434,-0.163 0.575,-0.323c0.1,0.019 0.197,0.037 0.297,0.056c-0.33,0.232 -0.699,0.393 -1.046,0.597c-0.049,-0.047 -0.096,-0.096 -0.144,-0.145c0.571,-0.165 1.107,-0.466 1.567,-0.841c0.086,-0.069 0.468,-0.104 0.306,0.058c-0.305,0.303 -0.69,0.44 -1.074,0.614c-0.168,0.076 -0.39,-0.035 -0.148,-0.15c0.263,-0.126 0.519,-0.249 0.747,-0.433c0.09,0.028 0.18,0.056 0.27,0.083c-0.219,0.134 -0.45,0.239 -0.669,0.373c-0.064,-0.043 -0.129,-0.086 -0.193,-0.128c0.26,-0.12 0.521,-0.237 0.745,-0.417c0.091,0.027 0.18,0.055 0.271,0.083c-0.199,0.11 -0.404,0.208 -0.584,0.351c-0.091,-0.027 -0.179,-0.056 -0.271,-0.083c0.246,-0.159 0.509,-0.29 0.756,-0.449c0.118,-0.077 0.454,-0.036 0.236,0.106c-0.165,0.109 -0.339,0.182 -0.521,0.257c-0.116,0.047 -0.4,0 -0.193,-0.13c0.146,-0.091 0.297,-0.168 0.416,-0.295c0.076,0.034 0.152,0.069 0.228,0.104c-0.065,0.04 -0.132,0.079 -0.197,0.119c-0.091,-0.027 -0.18,-0.056 -0.271,-0.082c0.099,-0.054 0.19,-0.116 0.277,-0.187c0.09,0.026 0.179,0.054 0.27,0.082c-0.021,0.019 -0.042,0.039 -0.062,0.058c-0.099,-0.019 -0.197,-0.038 -0.296,-0.057c0.062,-0.042 0.128,-0.084 0.189,-0.126c0.06,-0.043 0.453,-0.103 0.332,0.03c-0.075,0.083 -0.141,0.153 -0.22,0.23c-0.091,-0.027 -0.18,-0.056 -0.271,-0.083c0.097,-0.059 0.193,-0.11 0.293,-0.164c0.062,0.042 0.128,0.085 0.191,0.128c-0.141,0.058 -0.283,0.114 -0.424,0.172c-0.17,0.069 -0.391,-0.03 -0.149,-0.149c0.047,-0.042 0.095,-0.085 0.142,-0.128c0.065,0.032 0.134,0.064 0.202,0.096c-0.08,0.015 -0.159,0.037 -0.237,0.063c-0.017,-0.06 -0.031,-0.118 -0.048,-0.177c0.087,-0.004 0.17,-0.023 0.25,-0.054c0,0.064 -0.001,0.13 -0.002,0.194c-0.128,0.015 -0.253,0.029 -0.381,0.032c-0.236,0.004 -0.027,-0.196 0.103,-0.208c0.124,-0.01 0.245,-0.024 0.367,-0.044c-0.048,0.067 -0.096,0.136 -0.145,0.204c-0.199,-0.03 -0.384,-0.07 -0.573,-0.143c-0.176,-0.066 0.201,-0.199 0.271,-0.192c0.169,0.019 0.328,0.055 0.491,0.098c0.211,0.055 -0.095,0.215 -0.193,0.207c-0.226,-0.02 -0.449,-0.056 -0.675,-0.076c0.064,-0.069 0.129,-0.138 0.193,-0.207c0.244,0.057 0.48,0.132 0.717,0.218c-0.101,0.06 -0.204,0.122 -0.306,0.181c-0.491,-0.234 -1.019,-0.404 -1.557,-0.486c-0.218,-0.033 0.125,-0.215 0.237,-0.203c0.593,0.069 1.159,0.285 1.757,0.324c0.259,0.017 -0.01,0.22 -0.15,0.21c-0.628,-0.041 -1.221,-0.26 -1.844,-0.332c0.08,-0.066 0.158,-0.135 0.237,-0.203c0.56,0.085 1.115,0.263 1.626,0.507c0.163,0.078 -0.206,0.218 -0.306,0.181c-0.213,-0.078 -0.426,-0.146 -0.647,-0.197c-0.212,-0.049 0.096,-0.216 0.193,-0.207c0.225,0.019 0.449,0.055 0.674,0.075c-0.064,0.068 -0.129,0.137 -0.193,0.207c-0.164,-0.042 -0.323,-0.079 -0.491,-0.097c0.091,-0.064 0.18,-0.129 0.271,-0.192c0.168,0.064 0.326,0.095 0.502,0.122c0.208,0.034 -0.07,0.193 -0.144,0.204c-0.124,0.02 -0.245,0.033 -0.368,0.043c0.034,-0.069 0.067,-0.139 0.102,-0.208c0.096,-0.004 0.19,-0.012 0.285,-0.025c0.233,-0.028 0.163,0.139 -0.002,0.194c-0.117,0.038 -0.23,0.059 -0.354,0.074c-0.173,0.02 -0.216,-0.113 -0.048,-0.177c0.111,-0.044 0.22,-0.072 0.337,-0.099c0.054,-0.011 0.284,-0.026 0.202,0.094c-0.093,0.136 -0.201,0.201 -0.347,0.273c-0.051,-0.05 -0.1,-0.099 -0.149,-0.15c0.142,-0.058 0.283,-0.115 0.424,-0.173c0.115,-0.047 0.406,0.013 0.193,0.129c-0.1,0.055 -0.196,0.105 -0.293,0.165c-0.079,0.049 -0.43,0.073 -0.271,-0.083c0.057,-0.059 0.112,-0.118 0.171,-0.177c0.109,0.011 0.219,0.02 0.33,0.031c-0.089,0.065 -0.166,0.119 -0.259,0.177c-0.052,0.031 -0.413,0.072 -0.296,-0.056c0.06,-0.066 0.108,-0.108 0.183,-0.16c0.084,-0.059 0.436,-0.049 0.27,0.083c-0.11,0.088 -0.224,0.165 -0.346,0.237c-0.079,0.047 -0.441,0.05 -0.271,-0.083c0.113,-0.088 0.222,-0.156 0.354,-0.212c0.083,-0.035 0.368,-0.044 0.228,0.104c-0.141,0.149 -0.312,0.236 -0.485,0.344c-0.063,-0.043 -0.129,-0.086 -0.193,-0.129c0.152,-0.063 0.298,-0.124 0.436,-0.215c0.079,0.036 0.157,0.072 0.236,0.107c-0.246,0.159 -0.508,0.29 -0.756,0.449c-0.082,0.054 -0.439,0.052 -0.271,-0.082c0.204,-0.161 0.429,-0.275 0.654,-0.4c0.076,-0.043 0.444,-0.057 0.271,0.082c-0.272,0.218 -0.585,0.365 -0.901,0.509c-0.117,0.052 -0.397,-0.003 -0.192,-0.129c0.219,-0.134 0.452,-0.239 0.669,-0.373c0.08,-0.048 0.44,-0.054 0.271,0.083c-0.275,0.222 -0.586,0.372 -0.902,0.525c-0.05,-0.051 -0.099,-0.1 -0.149,-0.15c0.329,-0.147 0.656,-0.263 0.917,-0.521c0.102,0.019 0.205,0.039 0.305,0.059c-0.534,0.437 -1.157,0.775 -1.822,0.967c-0.119,0.034 -0.323,-0.039 -0.141,-0.145c0.346,-0.205 0.715,-0.366 1.046,-0.598c0.056,-0.038 0.409,-0.072 0.298,0.056c-0.196,0.223 -0.439,0.293 -0.696,0.426c-0.063,-0.042 -0.129,-0.086 -0.192,-0.13c0.167,-0.079 0.338,-0.146 0.51,-0.216c0.114,-0.046 0.406,0.012 0.192,0.129c-0.115,0.063 -0.228,0.131 -0.343,0.194c-0.116,0.063 -0.455,0.046 -0.236,-0.107c0.1,-0.069 0.202,-0.122 0.31,-0.179c0.075,-0.039 0.448,-0.051 0.271,0.083c-0.106,0.081 -0.18,0.125 -0.301,0.182c-0.117,0.054 -0.397,-0.006 -0.192,-0.129c0.034,-0.022 0.068,-0.045 0.103,-0.066c0.075,0.035 0.151,0.069 0.228,0.103c-0.06,0.026 -0.119,0.055 -0.179,0.081c-0.048,-0.047 -0.096,-0.096 -0.143,-0.146c0.097,-0.032 0.19,-0.067 0.287,-0.099c0.017,0.061 0.032,0.123 0.05,0.184c-0.067,0.022 -0.137,0.043 -0.204,0.065c-0.051,-0.049 -0.099,-0.099 -0.149,-0.149c0.094,-0.034 0.176,-0.062 0.27,-0.087c0.174,-0.044 0.308,0.075 0.1,0.168c-0.054,0.027 -0.108,0.055 -0.162,0.082c-0.079,-0.036 -0.158,-0.072 -0.235,-0.106c0.079,-0.045 0.159,-0.09 0.239,-0.135c0.062,0.043 0.128,0.086 0.191,0.128c-0.096,0.038 -0.19,0.076 -0.288,0.115c-0.033,-0.057 -0.065,-0.112 -0.099,-0.167c0.284,-0.097 0.538,-0.285 0.758,-0.496zM305.1275,105.027c-0.259,0.004 0.013,-0.208 0.153,-0.213c0.154,-0.003 0.307,-0.036 0.462,-0.054c-0.02,0.067 -0.037,0.137 -0.056,0.205c-0.156,0.014 -0.307,0.036 -0.46,0.067c0.001,-0.063 0.001,-0.129 0.001,-0.193c0.141,-0.019 0.282,-0.042 0.423,-0.062c-0.019,0.067 -0.036,0.137 -0.054,0.205c-0.148,0.016 -0.292,0.039 -0.439,0.068c-0.229,0.049 -0.281,-0.121 -0.049,-0.183c0.127,-0.035 0.256,-0.069 0.381,-0.108c0.173,-0.053 0.312,0.087 0.099,0.167c-0.149,0.056 -0.3,0.104 -0.456,0.146c0.017,-0.065 0.034,-0.132 0.052,-0.197c0.121,-0.017 0.241,-0.032 0.361,-0.048c0.018,0.059 0.031,0.118 0.048,0.177c-0.118,0.011 -0.233,0.028 -0.349,0.054c0.016,-0.065 0.033,-0.132 0.05,-0.198c0.692,-0.034 1.28,-0.387 1.729,-0.899c0.079,-0.089 0.465,-0.118 0.356,0.005c-0.584,0.664 -1.349,1.062 -2.236,1.105c-0.209,0.011 -0.069,-0.171 0.051,-0.197c0.152,-0.033 0.299,-0.056 0.454,-0.074c0.173,-0.018 0.218,0.113 0.048,0.179c-0.221,0.084 -0.426,0.115 -0.662,0.109c-0.212,-0.006 -0.067,-0.166 0.052,-0.198c0.121,-0.029 0.239,-0.067 0.355,-0.112c0.032,0.056 0.065,0.11 0.099,0.167c-0.126,0.039 -0.253,0.074 -0.38,0.109c-0.018,-0.062 -0.033,-0.124 -0.05,-0.185c0.179,-0.037 0.358,-0.07 0.541,-0.089c0.269,-0.03 0.126,0.18 -0.054,0.204c-0.142,0.019 -0.283,0.042 -0.424,0.062c-0.224,0.031 -0.177,-0.157 0.002,-0.195c0.188,-0.039 0.374,-0.071 0.564,-0.088c0.267,-0.024 0.128,0.184 -0.055,0.204c-0.187,0.022 -0.369,0.057 -0.557,0.06zM306.7085,104.118c0.055,-0.072 0.165,-0.104 0.251,-0.104c0.055,0.001 0.158,0.034 0.102,0.106c-0.028,0.038 -0.065,0.067 -0.095,0.104c-0.043,0.056 -0.358,0.188 -0.37,0.049c-0.002,-0.037 -0.013,-0.073 -0.016,-0.11c0.073,0.013 0.145,0.026 0.217,0.04c-0.062,0.02 -0.107,0.069 -0.136,0.129c-0.103,-0.009 -0.205,-0.019 -0.308,-0.029c0.094,-0.064 0.2,-0.115 0.232,-0.232c0.035,-0.126 0.419,-0.184 0.382,-0.05c-0.054,0.19 -0.227,0.286 -0.378,0.391c-0.037,0.025 -0.369,0.097 -0.31,-0.029c0.092,-0.199 0.264,-0.302 0.47,-0.363c0.041,-0.014 0.209,-0.038 0.216,0.04c0.003,0.038 0.013,0.074 0.016,0.111c-0.123,0.017 -0.246,0.032 -0.369,0.05c0.03,-0.035 0.067,-0.066 0.096,-0.103zM304.7995,105.209c-0.169,0.057 -0.403,-0.063 -0.148,-0.149c0.47,-0.16 0.959,-0.247 1.43,-0.403c0.598,-0.201 0.873,-0.596 1.338,-0.964c0.092,-0.073 0.476,-0.077 0.305,0.058c-0.34,0.269 -0.599,0.665 -0.998,0.856c-0.612,0.296 -1.288,0.385 -1.927,0.602z" fill="#000000" stroke="none" stroke-width="1"/><path d="M317.8725,166.213c0.02,-0.149 0.518,-0.187 0.509,-0.137c-0.893,6.556 -3.364,12.73 -4.74,19.181c-0.025,0.119 -0.523,0.195 -0.502,0.093c1.371,-6.436 3.841,-12.596 4.733,-19.137zM318.6015,187.77c-0.065,0.125 -0.533,0.154 -0.504,0.095c1.925,-3.663 3.905,-7.304 5.753,-11.004c1.234,-2.469 2.444,-4.954 3.563,-7.477c0.703,-1.583 1.857,-3.553 1.917,-5.329c0.004,-0.143 0.513,-0.204 0.511,-0.137c-0.059,1.713 -1.135,3.59 -1.811,5.118c-1.121,2.529 -2.324,5.024 -3.562,7.501c-1.888,3.777 -3.904,7.493 -5.867,11.233zM309.5615,191.989c-0.042,0.125 -0.532,0.179 -0.502,0.095c0.876,-2.605 3.255,-4.421 4.133,-7.043c0.041,-0.126 0.531,-0.181 0.501,-0.095c-0.876,2.622 -3.256,4.44 -4.132,7.043zM319.1035,195.709c0.003,0.138 -0.51,0.212 -0.512,0.138c-0.044,-2.625 0.567,-5.462 -0.497,-7.962c-0.036,-0.084 0.46,-0.254 0.51,-0.139c1.066,2.501 0.455,5.338 0.499,7.963zM309.1005,191.923c0.02,-0.149 0.518,-0.187 0.51,-0.139c-0.297,2.197 1.032,4.478 1.856,6.435c0.035,0.085 -0.462,0.254 -0.511,0.137c-0.823,-1.957 -2.154,-4.237 -1.855,-6.433zM310.6585,196.444c-0.14,-0.041 0.309,-0.224 0.422,-0.19c2.506,0.735 4.896,0.119 7.287,-0.734c0.189,-0.068 0.518,-0.02 0.175,0.102c-2.569,0.917 -5.188,1.613 -7.884,0.822zM310.8965,198.248c-0.034,-0.091 0.468,-0.253 0.511,-0.137c0.425,1.112 0.985,2.193 1.615,3.204c0.197,0.314 1.569,2.576 2.064,2.295c0.088,-0.05 0.603,-0.117 0.389,0.004c-0.898,0.512 -1.618,-0.266 -2.142,-0.959c-1.007,-1.327 -1.842,-2.849 -2.437,-4.407zM313.1635,197.911c-0.024,-0.112 0.488,-0.238 0.511,-0.138c0.456,1.952 0.667,4.485 2.086,6.029c0.071,0.076 -0.399,0.263 -0.481,0.173c-1.437,-1.563 -1.653,-4.083 -2.116,-6.064zM315.7725,203.843c-0.094,0.118 -0.529,0.125 -0.503,0.095c1.249,-1.573 0.162,-4.404 -0.113,-6.166c-0.019,-0.121 0.497,-0.231 0.51,-0.138c0.277,1.785 1.382,4.601 0.106,6.209zM308.7335,196.603c-0.061,0.126 -0.536,0.161 -0.504,0.095c0.434,-0.924 0.767,-1.828 0.916,-2.842c0.021,-0.15 0.519,-0.186 0.511,-0.137c-0.149,1.025 -0.483,1.947 -0.923,2.884zM308.0325,196.751c-0.036,-0.058 0.438,-0.257 0.511,-0.136c0.361,0.592 1.322,0.892 1.895,0.432c0.093,-0.074 0.562,-0.129 0.46,-0.047c-0.785,0.632 -2.291,0.695 -2.866,-0.249zM317.8155,202.25c-0.041,0.125 -0.532,0.181 -0.502,0.095c0.709,-2.134 1.314,-4.384 1.331,-6.663c0.002,-0.141 0.512,-0.209 0.511,-0.139c-0.016,2.311 -0.62,4.542 -1.34,6.707zM315.5455,203.549c-0.068,-0.07 0.393,-0.261 0.483,-0.168c1.378,1.38 1.175,-1.938 1.125,-2.676c-0.075,-1.079 -0.282,-2.095 -0.249,-3.187c0.003,-0.141 0.513,-0.204 0.51,-0.137c-0.055,1.867 0.771,4.049 0.106,5.855c-0.376,1.026 -1.258,1.032 -1.975,0.313z" fill="#010101" stroke="none" stroke-width="1"/><path d="M332.3385,160.127c-0.119,-0.23 0.372,-0.409 0.466,-0.218c0.804,1.563 0.313,3.735 0.709,5.427c0.205,0.876 1.291,1.447 1.035,2.445c-0.272,1.072 -1.089,1.867 -1.25,2.986c-0.032,0.217 -0.552,0.293 -0.516,0.045c0.158,-1.092 1.155,-1.935 1.25,-2.987c0.095,-1.019 -0.853,-1.429 -1.029,-2.353c-0.189,-0.996 -0.232,-2.013 -0.311,-3.022c-0.056,-0.722 -0.015,-1.661 -0.354,-2.323zM333.8975,175.9c-0.108,0.181 -0.627,0.19 -0.486,-0.047c1.025,-1.714 -0.538,-3.429 -0.629,-5.187c-0.014,-0.212 0.5,-0.303 0.516,-0.044c0.095,1.832 1.677,3.478 0.599,5.278zM312.6995,127.492c0.253,-0.122 0.536,0.127 0.221,0.278c-0.031,0.016 -0.062,0.03 -0.095,0.046c-0.102,0.048 -0.265,0.066 -0.345,-0.031c-0.34,-0.405 0.035,-1.636 -1.047,-0.419c-0.427,0.481 -0.683,1.021 -0.816,1.648c-0.356,1.664 -0.846,3.309 -1.379,4.924c-1.352,4.094 -3.977,8.232 -3.126,12.722c0.708,3.747 3.827,6.551 4.345,10.318c0.249,1.812 0.069,3.618 -0.008,5.437c-0.085,1.989 -0.644,3.751 -0.365,5.765c0.03,0.234 -0.481,0.359 -0.512,0.137c-0.281,-2.041 0.297,-3.834 0.36,-5.857c0.062,-2.056 0.407,-4.205 -0.169,-6.22c-1.052,-3.677 -4.084,-6.49 -4.279,-10.459c-0.226,-4.564 2.238,-8.444 3.509,-12.677c0.443,-1.479 0.74,-3.025 1.226,-4.485c0.345,-1.039 0.988,-1.732 2.006,-2.135c0.101,-0.039 0.267,-0.072 0.344,0.03c0.219,0.288 0.351,0.467 0.407,0.829c0.054,0.354 -0.067,0.048 -0.277,0.149zM309.5375,168.077c-0.033,-0.233 0.479,-0.357 0.51,-0.137c0.164,1.137 0.098,2.467 -0.14,3.589c-0.292,1.395 -1.931,2.212 -1.629,3.78c0.526,2.732 4.325,3.8 6.643,4.375c0.306,0.076 -0.094,0.379 -0.298,0.33c-2.183,-0.543 -5.716,-1.526 -6.65,-3.87c-0.497,-1.248 -0.082,-2.445 0.822,-3.376c0.968,-0.997 0.93,-3.39 0.742,-4.691zM315.8615,159.255c0.027,-0.218 0.548,-0.296 0.515,-0.046c-0.219,1.808 -0.416,3.952 0.412,5.644c0.582,1.189 3.085,1.713 4.266,1.893c1.337,0.205 2.73,0.268 4.054,-0.069c2.1,-0.537 3.866,-1.67 4.78,-3.688c0.701,-1.544 1.065,-3.212 1.565,-4.828c0.063,-0.208 0.584,-0.271 0.516,-0.044c-0.631,2.032 -1.024,4.203 -2.215,6.005c-1.117,1.691 -3.131,2.689 -5.091,2.993c-2.799,0.433 -5.443,-0.223 -7.978,-1.406c-0.69,-0.321 -0.894,-2.336 -0.938,-2.96c-0.086,-1.173 -0.025,-2.329 0.114,-3.494zM313.0625,127.121c0.13,-0.178 0.612,-0.125 0.423,0.137c-2.667,3.677 -1.952,9.268 -0.254,13.154c0.842,1.929 2.444,4.342 1.036,6.347c-0.999,1.42 -0.239,1.905 0.217,3.198c0.326,0.923 0.167,1.598 -0.276,2.451c-0.099,0.187 -0.615,0.201 -0.485,-0.047c0.548,-1.057 0.525,-1.869 -0.072,-2.884c-0.167,-0.282 -0.426,-0.639 -0.461,-0.971c-0.117,-1.105 0.659,-1.463 0.988,-2.421c0.54,-1.574 -0.458,-3.278 -1.082,-4.685c-0.5,-1.127 -1.023,-2.268 -1.338,-3.462c-0.894,-3.402 -0.832,-7.873 1.304,-10.817zM313.7885,152.24c0.037,-0.214 0.559,-0.288 0.516,-0.045c-0.195,1.132 -1.054,2.236 -0.814,3.409c0.181,0.89 0.621,1.699 1.302,2.312c1.441,1.295 3.546,2.103 5.464,1.518c0.311,-0.094 0.396,0.235 0.087,0.329c-1.997,0.61 -4.167,-0.107 -5.748,-1.383c-0.704,-0.568 -1.371,-1.435 -1.557,-2.344c-0.29,-1.418 0.515,-2.441 0.75,-3.796zM328.8705,141.074c-0.055,0.211 -0.576,0.278 -0.516,0.044c1.16,-4.624 1.819,-9.806 -1.705,-13.633c-1.693,-1.84 -4.014,-3.24 -6.555,-3.444c-1.461,-0.117 -2.995,-0.045 -4.224,0.862c-0.914,0.675 -1.582,1.559 -2.384,2.351c-0.151,0.149 -0.648,0.087 -0.423,-0.135c0.933,-0.923 1.697,-2.043 2.878,-2.682c0.971,-0.525 1.935,-0.762 3.033,-0.806c2.335,-0.094 4.811,0.753 6.627,2.215c2.144,1.725 3.737,4.159 4.11,6.924c0.377,2.815 -0.158,5.578 -0.841,8.304zM331.8115,158.268c-0.078,0.197 -0.59,0.218 -0.485,-0.048c0.651,-1.66 -0.544,-2.774 -1.823,-3.625c-0.039,-0.027 -0.071,-0.07 -0.06,-0.12c0.425,-2.233 1.072,-4.509 1.042,-6.799c-0.031,-2.455 -0.817,-4.545 -2.109,-6.607c-0.139,-0.215 0.353,-0.401 0.468,-0.218c1.916,3.052 2.492,6.156 1.87,9.714c-0.172,0.973 -0.378,1.938 -0.572,2.906c-0.206,1.034 0.34,1.134 0.939,1.759c0.871,0.908 1.196,1.841 0.73,3.038zM327.2275,157.718c-0.25,0.128 -0.531,-0.12 -0.222,-0.28c1.375,-0.707 2.263,-1.692 2.322,-3.285c0.008,-0.217 0.525,-0.301 0.516,-0.044c-0.067,1.751 -1.118,2.838 -2.616,3.609zM327.2155,123.146c0.145,0.208 -0.344,0.397 -0.468,0.218c-0.943,-1.351 -2.411,-1.822 -3.594,-2.882c0.158,-0.028 0.318,-0.057 0.477,-0.086c-1.165,1.711 -3.742,3.077 -5.679,3.672c-0.312,0.094 -0.396,-0.234 -0.089,-0.329c1.768,-0.543 4.22,-1.827 5.283,-3.391c0.101,-0.15 0.335,-0.214 0.477,-0.086c1.19,1.069 2.645,1.523 3.593,2.884zM322.1365,180.512c-0.293,-0.129 0.1,-0.417 0.298,-0.329c1.816,0.806 4.218,0.045 6.005,-0.545c2.141,-0.708 3.818,-1.746 4.974,-3.785c0.103,-0.183 0.623,-0.194 0.485,0.048c-1.235,2.181 -3.053,3.331 -5.367,4.066c-1.908,0.606 -4.448,1.407 -6.395,0.545zM332.8295,159.994c-0.001,0.215 -0.518,0.302 -0.516,0.044c0.03,-5.118 0.897,-10.206 0.945,-15.326c0.071,-7.387 -2.033,-15.418 -6.512,-21.349c-0.151,-0.2 0.336,-0.394 0.468,-0.218c4.432,5.868 6.572,13.778 6.562,21.09c-0.006,5.266 -0.917,10.498 -0.947,15.759z" fill="#010101" stroke="none" stroke-width="1"/><path d="M327.2275,193.151c0.125,0.044 -0.219,0.189 -0.313,0.158c-3.341,-1.162 -6.417,-2.681 -8.746,-5.425c-0.069,-0.082 0.294,-0.214 0.36,-0.136c2.317,2.729 5.37,4.247 8.699,5.403zM318.7495,193.341c-0.068,-0.048 0.266,-0.199 0.358,-0.136c0.967,0.685 1.947,1.492 3.072,1.908c1.362,0.501 2.832,0.598 4.268,0.717c0.198,0.017 -0.156,0.177 -0.247,0.169c-1.423,-0.119 -2.99,-0.179 -4.333,-0.729c-1.14,-0.467 -2.12,-1.223 -3.118,-1.929zM314.4115,181.103c0.074,-0.053 0.457,-0.092 0.296,0.023c-0.963,0.694 -2.185,1.044 -3.014,1.917c-0.066,0.071 -0.438,0.114 -0.348,0.02c0.847,-0.893 2.084,-1.253 3.066,-1.96zM326.8375,193.306c0.054,-0.101 0.415,-0.132 0.379,-0.063c-0.394,0.76 -0.819,1.66 -0.747,2.537c0.009,0.113 -0.376,0.187 -0.382,0.101c-0.072,-0.893 0.349,-1.801 0.75,-2.575zM311.3235,183.024c-0.008,-0.115 0.377,-0.186 0.383,-0.102c0.095,1.414 0.601,2.633 0.881,4.007c0.02,0.104 -0.363,0.197 -0.383,0.103c-0.28,-1.375 -0.787,-2.591 -0.881,-4.008z" fill="#000000" stroke="none" stroke-width="1"/><path d="M328.8035,220.842c0.099,-0.156 0.617,-0.188 0.482,0.029c-1.136,1.787 -4.241,1.789 -5.588,0.26c-0.145,-0.166 0.341,-0.355 0.472,-0.209c1.105,1.259 3.668,1.441 4.634,-0.08zM324.4045,224.868c-0.352,0.047 -0.198,-0.281 0.063,-0.316c0.982,-0.128 2.006,-0.142 2.958,-0.439c0.638,-0.197 1.347,-0.518 1.634,-1.173c0.126,-0.284 0.55,-1.697 -0.237,-1.617c-0.354,0.035 -0.201,-0.287 0.062,-0.313c1.551,-0.158 0.781,2.114 0.07,2.677c-1.272,1.002 -3.017,0.984 -4.55,1.181zM332.3525,199.752c0.055,-0.188 0.572,-0.26 0.512,-0.056c-1.725,6.065 -3.21,12.298 -3.321,18.635c-0.049,2.665 -0.111,5.442 0.297,8.082c0.259,1.676 0.548,3.402 0.96,5.047c0.336,1.353 1.068,2.507 0.7,3.933c-0.048,0.192 -0.566,0.265 -0.511,0.056c0.264,-1.036 -0.024,-1.818 -0.371,-2.775c-0.273,-0.757 -0.372,-1.508 -0.536,-2.287c-0.337,-1.585 -0.721,-3.173 -0.859,-4.793c-0.207,-2.476 -0.257,-4.997 -0.186,-7.48c0.18,-6.254 1.612,-12.37 3.315,-18.362zM312.5525,253.626c0.239,-0.116 0.527,0.089 0.21,0.245c-1.288,0.626 -3.505,1.949 -3.11,3.688c0.328,1.45 1.169,3.361 2.485,4.19c2.754,1.736 6.355,2.045 9.536,1.887c0.352,-0.02 0.206,0.299 -0.061,0.314c-1.992,0.098 -4.032,0 -5.984,-0.441c-1.716,-0.387 -3.741,-0.947 -4.848,-2.431c-0.847,-1.14 -2.222,-3.187 -1.48,-4.66c0.663,-1.32 1.957,-2.163 3.252,-2.792zM311.2555,239.853c-0.003,-0.186 0.51,-0.288 0.512,-0.056c0.015,1.434 0.163,2.866 0.118,4.298c-0.051,1.578 -0.392,2.915 -0.887,4.4c-0.551,1.646 -0.44,3.021 1.011,4.121c0.491,0.373 0.841,0.768 0.446,1.32c-0.105,0.15 -0.625,0.179 -0.479,-0.028c0.462,-0.647 -0.521,-1.122 -0.864,-1.403c-0.373,-0.306 -0.679,-0.709 -0.815,-1.182c-0.326,-1.119 -0.071,-2.12 0.342,-3.188c1.037,-2.687 0.644,-5.475 0.616,-8.282zM309.6205,177.908c0.055,-0.19 0.572,-0.26 0.515,-0.054c-1.67,5.818 -2.808,11.659 -2.423,17.733c0.172,2.713 0.489,5.416 0.73,8.123c0.152,1.726 0.294,3.457 0.383,5.188c0.043,0.822 -0.087,1.498 0.065,2.332c0.037,0.207 -0.474,0.335 -0.51,0.14c-0.202,-1.107 -0.045,-2.118 -0.119,-3.243c-0.11,-1.688 -0.243,-3.371 -0.401,-5.056c-0.251,-2.648 -0.568,-5.298 -0.695,-7.957c-0.279,-5.894 0.833,-11.556 2.455,-17.206zM308.3795,211.328c0.009,-0.191 0.524,-0.287 0.515,-0.054c-0.089,1.707 -0.491,3.437 -0.735,5.126c-0.154,1.064 -0.315,2.13 -0.425,3.199c-0.106,1.041 0.162,1.799 0.485,2.812c1.012,3.189 1.877,6.369 2.328,9.685c0.348,2.556 0.659,5.139 1.221,7.66c0.044,0.203 -0.467,0.336 -0.512,0.139c-0.608,-2.73 -0.938,-5.537 -1.308,-8.307c-0.45,-3.384 -1.517,-6.626 -2.51,-9.886c-0.524,-1.721 -0.051,-3.496 0.205,-5.248c0.247,-1.689 0.648,-3.417 0.736,-5.126zM331.1365,234.99c-0.002,-0.188 0.512,-0.29 0.514,-0.056c0.023,5.749 0.953,12.396 4.722,16.976c0.144,0.173 -0.348,0.359 -0.471,0.209c-3.816,-4.635 -4.74,-11.313 -4.765,-17.129zM338.3145,261.221c-0.041,0.189 -0.559,0.27 -0.511,0.056c0.382,-1.791 1.415,-3.715 0.882,-5.58c-0.456,-1.595 -1.535,-2.575 -2.785,-3.575c-0.158,-0.127 0.318,-0.333 0.471,-0.209c1.307,1.049 2.731,2.292 2.908,4.087c0.178,1.838 -0.59,3.456 -0.965,5.221zM336.4555,268.715c-0.344,0.009 -0.016,-0.313 0.188,-0.316c1.253,-0.036 2.744,-0.464 3.663,-1.357c0.763,-0.743 1.321,-2.126 0.456,-3.045c-1.007,-1.07 -2.958,-1.205 -3.088,-2.936c-0.018,-0.215 0.495,-0.328 0.511,-0.139c0.168,2.228 4.64,2.212 3.354,5.093c-0.825,1.847 -3.197,2.645 -5.084,2.7zM336.7885,268.452c0.156,0.139 -0.325,0.339 -0.473,0.208c-1.937,-1.726 -4.666,-2.429 -7.119,-3.063c-2.645,-0.684 -5.275,-1.58 -8.032,-1.625c-0.346,-0.006 -0.021,-0.322 0.19,-0.318c2.906,0.047 5.726,0.988 8.509,1.738c2.406,0.646 5.023,1.366 6.925,3.06zM332.7055,199.766c-0.099,0.157 -0.615,0.189 -0.479,-0.025c2.101,-3.298 3.479,-7.447 3.283,-11.377c-0.181,-3.737 -1.024,-7.673 -3.279,-10.73c-0.139,-0.184 0.355,-0.365 0.471,-0.209c2.352,3.188 3.214,7.321 3.334,11.223c0.12,3.824 -1.284,7.904 -3.33,11.118zM335.4995,250.346c-0.114,0.142 -0.633,0.164 -0.48,-0.025c2.223,-2.782 3.647,-5.908 4.197,-9.433c0.028,-0.195 0.545,-0.277 0.513,-0.057c-0.557,3.557 -1.986,6.704 -4.23,9.515zM338.2095,229.858c-0.021,0.192 -0.536,0.283 -0.511,0.055c0.158,-1.618 0.734,-3.42 -0.86,-4.513c-0.935,-0.641 -1.886,-1.217 -2.787,-1.91c-1.124,-0.857 -2.211,-1.751 -3.271,-2.684c-0.774,-0.682 -1.597,-1.316 -1.869,-2.35c-0.055,-0.199 0.456,-0.337 0.508,-0.138c0.355,1.34 1.866,2.346 2.885,3.196c1.209,1.013 2.45,2.087 3.803,2.907c0.706,0.429 1.689,0.901 2.072,1.688c0.565,1.185 0.151,2.514 0.03,3.749zM339.6625,240.896c-0.052,0.189 -0.57,0.261 -0.515,0.059c0.366,-1.343 1.566,-1.926 2.672,-2.605c0.773,-0.475 1.526,-0.963 1.662,-1.926c0.108,-0.77 0.104,-1.554 -0.02,-2.322c-0.294,-1.812 -1.262,-2.42 -2.998,-2.823c-0.936,-0.218 -2.148,-0.38 -2.683,-1.284c-0.118,-0.201 0.373,-0.375 0.469,-0.211c0.734,1.235 2.75,1.091 3.945,1.609c1.282,0.557 1.683,1.517 1.814,2.859c0.106,1.104 0.231,2.521 -0.63,3.354c-1.173,1.13 -3.251,1.568 -3.716,3.29zM307.5915,186.956c0.062,-0.186 0.578,-0.254 0.515,-0.056c-1.368,4.125 -2.213,8.332 -3.398,12.507c-0.828,2.918 -1.786,5.802 -2.542,8.738c-0.68,2.637 -0.91,5.048 0.425,7.529c0.088,0.163 -0.408,0.325 -0.511,0.138c-1.351,-2.508 -1.135,-4.938 -0.427,-7.611c0.776,-2.932 1.726,-5.817 2.542,-8.738c1.166,-4.179 2.028,-8.382 3.396,-12.507zM310.1685,229.359c0.074,0.183 -0.432,0.334 -0.51,0.139c-1.97,-4.906 -4.779,-9.431 -7.76,-13.779c-0.131,-0.189 0.364,-0.368 0.473,-0.21c2.995,4.374 5.816,8.916 7.797,13.85z" fill="#000000" stroke="none" stroke-width="1"/><path d="M338.9015,243.694c-0.111,-0.102 0.364,-0.294 0.48,-0.188c1.526,1.43 3.657,2.859 3.515,5.24c-0.07,1.194 -0.616,2.092 -1.48,2.895c-0.903,0.836 -2.247,1.011 -3.035,1.962c-0.089,0.109 -0.594,0.165 -0.468,0.016c0.608,-0.741 1.421,-0.93 2.216,-1.399c1.312,-0.776 2.441,-2.136 2.242,-3.759c-0.27,-2.203 -1.966,-3.359 -3.47,-4.767zM339.3755,256.182c-0.073,0.119 -0.578,0.191 -0.472,0.014c1.01,-1.658 2.883,-2.074 4.269,-3.3c2.34,-2.067 0.702,-4.571 -1.296,-6.131c-0.11,-0.086 0.352,-0.285 0.478,-0.187c1.631,1.271 3.615,3.643 1.904,5.674c-1.382,1.636 -3.745,2.057 -4.883,3.93z" fill="#010101" stroke="none" stroke-width="1"/><path d="M315.9055,271.735c-0.274,-0.048 0.188,-0.266 0.325,-0.242c4.022,0.731 7.707,-0.225 11.448,-1.66c2.31,-0.884 5.123,-0.382 6.833,-2.5c0.087,-0.109 0.594,-0.167 0.468,-0.013c-0.787,0.974 -1.851,1.555 -3.064,1.83c-1.727,0.393 -3.346,0.608 -5.014,1.235c-3.544,1.332 -7.229,2.038 -10.996,1.35zM305.4265,271.129c-0.107,-0.076 0.345,-0.281 0.478,-0.192c2.181,1.528 4.65,2.339 7.131,3.227c1.215,0.434 2.494,0.584 3.777,0.646c1.177,0.057 2.513,0.215 3.682,0.026c2.6,-0.417 4.983,-1.756 7.458,-2.606c2.56,-0.876 5.216,-1.356 7.726,-2.402c0.208,-0.088 0.522,0.023 0.186,0.162c-3.047,1.273 -6.328,1.793 -9.392,3.02c-2.078,0.832 -4.433,2.143 -6.734,2.119c-2.375,-0.022 -4.845,0.056 -7.115,-0.737c-2.505,-0.878 -5.005,-1.73 -7.197,-3.263zM304.2365,264.235c0.053,-0.146 0.555,-0.214 0.508,-0.074c-0.852,2.481 -1.546,5.229 1.159,6.779c0.104,0.058 -0.337,0.269 -0.478,0.187c-2.735,-1.565 -2.053,-4.365 -1.189,-6.892zM304.5425,264.079c0.097,-0.103 0.599,-0.152 0.469,-0.011c-0.524,0.563 1.181,2.755 1.52,3.118c0.846,0.9 1.841,1.646 2.943,2.207c2.122,1.082 4.416,1.707 6.756,2.102c0.274,0.047 -0.188,0.264 -0.322,0.242c-2.575,-0.434 -5.236,-1.109 -7.486,-2.479c-1.164,-0.707 -2.18,-1.551 -2.978,-2.661c-0.342,-0.47 -1.388,-1.994 -0.902,-2.518zM304.4615,264.152c-0.342,-0.01 0.046,-0.254 0.211,-0.248c2.975,0.075 5.906,0.041 8.688,-1.141c0.213,-0.09 0.521,0.023 0.19,0.163c-2.912,1.237 -5.97,1.306 -9.089,1.226zM336.0865,269.876c-0.019,0.147 -0.527,0.246 -0.505,0.076c0.084,-0.683 0.426,-1.448 -0.053,-2.059c-0.102,-0.13 0.386,-0.301 0.478,-0.187c0.515,0.656 0.172,1.431 0.08,2.17z" fill="#010101" stroke="none" stroke-width="1"/><path d="M307.7275,103.03c0.029,-0.225 0.551,-0.298 0.517,-0.042c-0.139,1.044 -0.428,2.02 -0.938,2.943c-0.106,0.191 -0.626,0.196 -0.488,-0.054c0.495,-0.893 0.775,-1.836 0.909,-2.847zM301.0485,105.402c-0.233,-0.171 0.217,-0.421 0.396,-0.291c1.512,1.095 3.752,1.085 5.507,0.702c0.315,-0.07 0.411,0.271 0.091,0.341c-1.909,0.419 -4.345,0.442 -5.994,-0.752zM308.0105,102.762c0.338,0.071 0.066,0.416 -0.179,0.364c-2.109,-0.447 -4.253,-1.339 -6.408,-1.417c-0.344,-0.013 -0.062,-0.374 0.18,-0.364c2.169,0.08 4.292,0.968 6.407,1.417zM301.2555,101.547c0.038,-0.224 0.56,-0.293 0.517,-0.041c-0.208,1.202 -0.351,2.41 -0.3,3.632c0.009,0.221 -0.506,0.305 -0.517,0.041c-0.051,-1.222 0.093,-2.43 0.3,-3.632z" fill="#010101" stroke="none" stroke-width="1"/><path d="M308.0535,103.512c-0.691,0 0.012,-0.583 0.396,-0.583c1.49,0.002 2.981,0.043 4.471,0.023c1.62,-0.02 3.099,-0.529 4.691,-0.625c0.706,-0.042 0.368,0.54 -0.139,0.57c-0.925,0.057 -1.789,0.385 -2.701,0.521c-0.746,0.111 -1.494,0.113 -2.248,0.118c-1.49,0.01 -2.979,-0.021 -4.47,-0.024z" fill="#010101" stroke="none" stroke-width="1"/></g></g></svg>