<svg version="1.1" xmlns="http://www.w3.org/2000/svg" xmlns:xlink="http://www.w3.org/1999/xlink" width="158.63044" height="196.57048" viewBox="0,0,158.63044,196.57048"><g transform="translate(-240.68478,-84.99865)"><g stroke-miterlimit="10"><path d="M399.31522,267.87442c0,7.56338 -35.51064,13.69472 -79.31522,13.69472c-43.80458,0 -79.31522,-6.13134 -79.31522,-13.69472c0,-7.56338 35.51064,-13.69471 79.31522,-13.69471c43.80458,0 79.31522,6.13133 79.31522,13.69471z" fill-opacity="0.59608" fill="#000000" stroke="#000000" stroke-width="0"/><path d="M342.8832,94.0307c0.7553,-2.0549 -0.455,-4.7301 -2.26,-5.7912c-2.1157,-1.2398 -5.4986,-1.8012 -7.9088,-1.0868c-1.3252,0.3933 -2.4006,1.5209 -3.439,2.3693c-0.9794,0.8037 -1.6055,1.1362 -2.2591,2.241c-0.3762,0.6356 -0.7514,0.9728 -1.2464,1.4773c-0.4056,0.4151 -0.5994,1.121 -0.8198,1.6558c-0.3145,0.7648 -0.3819,1.4459 -0.2347,2.1955c0.1245,0.6308 0.0067,0.7733 0.0314,1.4202c0.0475,1.1134 0.7438,2.4406 0.9424,3.5036c0.0969,0.5111 0.1415,0.6536 0.3876,1.1049c0.3192,0.5871 0.2508,0.6194 0.8512,0.9709c0.4626,0.2707 0.7448,0.3192 1.101,0.6925c0.304,0.3192 0.5928,0.6821 0.8778,1.0821c0.5624,0.7932 0.5843,1.7109 0.9405,2.4899c0.5814,-0.4598 1.2588,-2.0567 1.14,-3.2898c-0.1149,-1.1828 -0.6393,-2.0758 -1.0849,-3.1569c-0.455,-1.1001 -1.4259,-2.4586 -1.4088,-3.6793c0.0209,-1.5219 1.177,-2.6657 2.2809,-3.4219c1.6635,-1.1391 4.0964,-1.8383 6.4287,-1.8383c2.0947,0 3.8408,-0.0142 5.6097,1.1277M326.2478,85.2565c-1.6929,1.0754 -2.7826,2.1954 -3.9824,3.7848c-0.8227,1.0887 -1.8402,2.811 -2.1242,3.913c-0.342,1.3262 -0.4095,2.9108 -0.0029,4.18c0.229,0.7163 0.3696,1.5628 0.7353,2.2534c0.285,0.5368 0.5757,0.9833 0.8104,1.5447c0.2821,0.6793 0.9367,1.0479 1.2625,1.7119c0.3506,0.7144 0.9168,1.1894 1.3956,1.7585c-0.4503,0.5766 -0.0855,0.7239 -0.551,1.5979c-0.342,0.6441 -0.1283,1.1865 0.0332,1.8373c0.2299,0.9272 0.4323,1.2882 1.0887,2.0482c0.4912,0.57 1.4013,0.8664 1.4051,1.7214c0.0066,1.1143 -0.19,2.5716 -0.3401,3.6727c-0.171,1.2255 -0.9985,2.2401 -1.6084,3.2917c-0.5766,0.9956 -1.8658,1.7737 -3.2357,1.6065c-1.6986,-0.2062 -0.9927,-1.6074 -0.9823,-2.7759c-0.855,0.9566 -2.4377,1.6824 -3.2024,0.4493c-1.0355,-1.6796 0.2413,-2.5327 0.2137,-3.7002c-0.6517,0.7115 -1.1523,1.5703 -1.6064,2.47c-0.2223,0.4417 -0.38,0.7913 -0.7201,1.1647c-0.3135,0.342 -0.9671,0.3562 -1.3956,0.3287c-0.9471,-0.0618 -1.5969,-0.7952 -1.4782,-1.7043c0.1283,-0.9709 -0.1406,-2.3902 0.3401,-3.3355c-0.6374,0.7524 -1.7803,1.5647 -2.8025,0.5976c-0.8778,-0.8322 -0.4322,-2.8424 -0.1624,-3.8238c0.3847,-1.4041 0.9034,-2.5954 1.4231,-3.9396c0.2432,-0.6289 0.6032,-1.0194 0.8911,-1.6521c0.3306,-0.7324 1.4858,-1.7223 1.6444,-2.4472c-1.6929,0.6375 -3.7762,4.9486 -5.776,3.116c-0.9386,-0.8607 -0.2774,-2.8604 -0.1881,-3.8674c0.058,-0.6555 0.2299,-0.4703 0.6166,-1.0099c0.2717,-0.3781 0.7799,-0.8179 0.7362,-1.3195c-1.2882,0.4009 -1.8088,-2.128 -1.5979,-3.0486c0.8313,-3.6052 4.0632,-6.2662 7.3169,-7.7558c2.1679,-0.9927 4.5762,-1.9 6.8913,-2.356c1.0821,-0.2156 1.9276,-0.2156 3.0077,-0.3762c0.4655,-0.0693 1.673,0.1957 2.0121,0" fill="#ffbe00" stroke="none" stroke-width="0.95"/><path d="M333.7167,86.7508c-0.076,0.0504 -0.153,0.095 -0.2337,0.1406c-0.6565,0.3173 -1.3414,0.4617 -1.9656,0.8522c-0.4645,0.2897 -0.9348,0.6631 -1.3518,1.0108c-0.4399,0.3705 -0.8911,0.7011 -1.3272,1.0887c-0.4598,0.4056 -0.8293,0.798 -1.2369,1.2521c-0.8445,0.9405 -1.8696,1.7594 -2.3151,2.9934c-0.1986,0.5548 -0.2499,1.1267 -0.4551,1.6692c-0.1928,0.5044 -0.1026,1.0165 -0.075,1.5513c0.0266,0.5539 0.1377,1.0773 0.1662,1.6264c0.0295,0.5805 0.2565,1.027 0.3658,1.5609c0.2242,1.0849 0.8502,1.9817 0.7913,3.1141c-0.4465,0.1273 -0.7619,0.019 -1.158,0.3116c-0.1226,0.0912 -0.3943,0.4474 -0.5311,0.4569c-0.2289,0.0171 -0.1966,-0.2223 -0.2717,-0.3591c-0.2356,-0.4294 -0.7334,-0.6963 -1.0298,-1.1001c-0.304,-0.4161 -0.645,-0.7904 -0.9471,-1.1989c-0.6916,-0.9262 -1.2075,-2.0966 -1.5761,-3.1863c-0.3904,-1.1514 -0.8293,-2.3826 -0.6555,-3.6432c0.0941,-0.6755 0.2261,-1.3842 0.3658,-2.0558c0.1529,-0.7543 0.5234,-1.3804 0.9652,-1.9941c0.3819,-0.532 0.7087,-1.0925 1.0184,-1.6758c0.3201,-0.6042 0.8274,-1.0868 1.3034,-1.5865c0.5595,-0.5842 1.2027,-1.006 1.785,-1.5247c0.4104,-0.3667 0.8512,-0.6726 1.4013,-0.7325c0.6165,-0.0655 1.2739,-0.0247 1.8914,0.0029c0.7182,0.0351 1.4621,0.0114 2.1584,0.1976c0.4997,0.1368 1.0374,0.2859 1.5238,0.4731c0.2641,0.1026 0.5833,0.1681 0.8313,0.2983c0.2441,0.1292 0.2717,0.322 0.5624,0.4569" fill="#ff1f00" stroke="none" stroke-width="0.95"/><path d="M322.5276,122.8917c0.5253,-0.2841 0.931,-1.14 1.3813,-1.5419c0.5082,-0.455 0.6906,-0.6973 0.7419,-1.3452c0.0304,-0.3724 0.1416,-0.6327 0.2945,-0.9661c0.1463,-0.324 0.209,-0.6926 0.3135,-1.0517c0.2185,-0.7533 0.4418,-1.5105 0.6622,-2.2743c0.4351,-1.4962 1.0459,-3.7287 -0.0741,-5.0331c-0.3382,-0.3961 -0.7895,-0.8141 -1.1638,-1.1903c-0.4493,-0.4465 -0.5842,-0.9681 -0.7714,-1.5685c-0.17,-0.5329 -0.2441,-1.1286 -0.1567,-1.69c0.0988,-0.6479 0.36,-1.0678 0.6878,-1.6027c0.3182,-0.5177 0.5614,-0.816 1.2046,-0.9481c0.5054,-0.0997 0.9709,0.2413 1.3955,0.4855c0.6536,0.3743 1.6549,0.9205 1.9656,1.634c0.1957,0.4503 0.5728,0.8521 0.6906,1.3262c0.1007,0.4132 0.0342,1.1058 0.3648,1.4012c0.6394,-0.6118 0.6726,-1.8154 0.6603,-2.6144c0.1776,-0.0959 0.0712,-0.2698 0.0665,-0.4341c-0.0048,-0.1387 0.1472,-1.2407 -0.0988,-1.2977c-0.0437,-0.3012 -0.0361,-0.6071 -0.0589,-0.9111c-0.0114,0.0048 -0.0209,0.0114 -0.0342,0.0181c-0.0105,-0.3154 -0.3496,-0.2423 -0.3772,-0.5567c-0.1406,-0.0371 0.0352,-0.4114 -0.1206,-0.418c-0.0228,-0.152 -0.1311,-0.2651 -0.2024,-0.4009c-0.1681,-0.3202 -0.3363,-1.1657 -0.7001,-1.1315c-0.038,-0.303 -0.2565,-0.3087 -0.2974,-0.6137c-0.0874,-0.0864 -0.456,-0.4873 -0.1301,-0.5035c-0.0437,-0.3021 -0.1273,-0.227 -0.1368,-0.5339c-0.2917,0.3971 0.0009,-0.4161 -0.0219,-0.4018c-0.0456,-0.3021 0.2565,-0.5624 0.0931,-0.817c0.0504,-0.0466 0.2328,-0.1577 0.2841,-0.1121c-0.0342,-0.5615 0.2812,-0.685 0.285,-1.2445c-0.0874,0.5348 0.6127,-0.855 0.7153,-0.9139c0.2888,-0.1606 0.3183,-0.3819 0.5928,-0.5539c0.3354,-0.209 0.5064,-0.3847 0.8303,-0.5994c0.3734,-0.248 1.0013,-0.5197 1.4203,-0.7154c0.3743,-0.1776 1.007,-0.3201 1.4107,-0.4018c0.6375,-0.1302 1.1476,-0.1653 1.787,-0.2746c0.9348,-0.1605 2.0491,-0.0826 2.9944,-0.1235c0.3486,-0.0171 1.0108,0.0523 1.367,0.0988c0.324,0.0456 0.381,0.1083 0.6888,0.2375c0.5994,0.2527 1.0564,0.4038 1.5836,0.818c0.3154,0.247 0.5938,0.9053 0.8142,1.2245c0.1358,0.1976 0.1225,0.4351 0.2147,0.6489c0.1026,0.2375 0.3068,0.4417 0.4759,0.6365c0.2831,0.3325 0.1558,0.7581 0.2632,1.1951c0.1909,0.7723 0.4826,1.3081 0.2517,2.09c-0.0475,0.1624 0.1026,0.8531 0.0418,1.0231c-0.0684,0.1995 -0.1871,0.4038 -0.2346,0.6137c-0.0903,0.4152 -0.0931,0.8579 -0.1976,1.2749c-0.171,0.6764 -0.4646,1.3547 -0.3924,2.1033c0.0741,0.7505 0.2489,1.2559 0.7249,1.8392c0.2175,0.2651 0.3287,0.6584 0.5662,0.8949c0.2327,0.2318 0.4978,0.6299 0.7362,0.8512c0.4437,0.4152 0.9358,0.6565 1.3082,1.3623c0.1358,0.2565 -0.229,0.5966 -0.3876,0.8303c-0.1976,0.2917 -0.5349,0.5938 -0.8465,0.7021c-0.4436,0.152 -1.0174,0.0161 -1.1694,0.493c-0.115,0.3601 0.1292,0.6935 0.227,1.0574c0.1064,0.4056 0.4104,0.74 0.3876,1.1951c-0.0313,0.6042 -0.6726,0.8284 -1.0165,1.1989c0.4456,0.36 0.2052,1.1257 -0.1387,1.4611c-0.4617,0.455 -1.1846,0.304 -1.6083,0.7714c-0.7572,0.8303 -0.1074,1.9266 -0.5643,2.8424c-0.9994,2.0035 -4.4128,0.5272 -5.9024,0.2565c-0.1111,-0.0941 -0.4731,-0.2052 -0.646,-0.2185c-0.2745,-0.02 -0.4712,0.1672 -0.7058,0.1833c-0.0228,0.2974 -0.0228,0.5957 -0.0485,0.893c-0.2318,0.019 -0.3857,0.0238 -0.6156,0.1007c-0.0266,0.304 -0.019,0.6128 -0.0294,0.9158c-0.0162,-0.0342 -0.0266,-0.0684 -0.0342,-0.1045c-0.0257,0.2917 -0.2242,0.1169 -0.2651,0.4066c-0.075,-0.0351 -0.3562,0.229 -0.1586,0.3705c-0.0399,0.2936 -0.285,0.3344 -0.3116,0.6261c-0.0627,-0.1444 0.266,0.2052 0.1453,0.2945c-0.0503,0.0342 -0.0722,0.0741 -0.0997,0.113c-0.0048,0.0076 0,0.8503 0,0.6717c0,0.3676 0,0.7324 0,1.0991c0.0133,-0.0541 0.0142,-0.1434 0.0199,-0.1928c-0.2622,-0.2841 -0.4142,-0.5007 -0.7837,-0.6897c-0.4351,-0.2204 -0.8322,-0.4589 -1.2531,-0.7049c-0.6175,-0.3639 -1.2521,-0.7534 -1.9313,-1.0194c-0.6897,-0.2679 -1.4336,-0.4455 -2.1575,-0.5082c-0.3885,-0.0314 -0.779,0.0076 -1.1647,-0.0314c-0.455,-0.0465 -0.6783,-0.0418 -1.0193,0.1758c-0.6147,0.3904 -1.1714,0.4617 -1.8668,0.323c-1.3385,-0.2632 0.4009,-0.932 0,-1.2265" fill="#ffe6c7" stroke="none" stroke-width="0.95"/><path d="M342.4225,103.6874c-0.153,0.1207 -0.2936,0.2033 -0.4836,0.2689c-0.1567,0.0522 -0.3087,0.1216 -0.4626,0.1814c-0.0893,0.0361 -0.152,0.0599 -0.2128,0.1406c-0.0646,0.0836 -0.0722,0.2413 -0.1102,0.3468c-0.0466,0.1282 -0.0171,0.2242 -0.0105,0.3581c0.0114,0.2195 0.1064,0.419 0.153,0.6308c0.0237,0.114 0.0589,0.1938 0.1273,0.2926c0.0598,0.0931 0.1197,0.1625 0.1957,0.2375c0.0465,0.0494 0.0769,0.0941 0.1377,0.1254c0.0409,0.02 0.1397,0.0238 0.1596,0.0694c0.0447,0.0988 -0.2232,0.0532 -0.2707,0.0513c-0.3553,-0.0181 -0.6916,-0.096 -1.0346,-0.1786c-0.1985,-0.0485 -0.3971,-0.0988 -0.5899,-0.1606c-0.2071,-0.0655 -0.4,-0.1643 -0.6118,-0.2375c-0.247,-0.0864 -0.4788,-0.17 -0.7011,-0.3087c-0.0751,-0.0466 -0.1701,-0.1112 -0.1748,-0.21c-0.0038,-0.0741 0.0427,-0.1045 0.0826,-0.1615c0.0428,-0.0598 0.0627,-0.1377 0.1064,-0.1947c0.0713,-0.0998 0.2195,-0.1682 0.3287,-0.2223c0.3715,-0.1786 0.7762,-0.3012 1.1742,-0.4152c0.3743,-0.1073 0.7572,-0.1928 1.1286,-0.3097c0.2166,-0.0693 0.4399,-0.1054 0.6574,-0.1719c0.1321,-0.0409 0.266,-0.1055 0.4,-0.1378" fill="#ffffff" stroke="none" stroke-width="0.95"/><path d="M341.2188,104.2004c0.0988,-0.0114 0.1758,-0.0997 0.2575,-0.1482c0.0883,-0.0532 0.1852,-0.0864 0.284,-0.1111c0.1872,-0.0542 0.399,-0.0903 0.5938,-0.1026c0.1045,-0.0067 0.1643,0.0171 0.227,0.1073c0.0979,0.1406 0.1976,0.266 0.2651,0.4266c0.0522,0.1282 0.1168,0.2432 0.1444,0.379c0.0285,0.1292 0.0161,0.266 0.0161,0.3981c0,0.3192 -0.1634,0.5804 -0.3325,0.8436c-0.151,0.2394 -0.3325,0.3163 -0.608,0.3011c-0.0912,-0.0047 -0.1767,-0.0304 -0.2631,-0.0636c-0.1311,-0.057 -0.2005,-0.1748 -0.3183,-0.247c-0.0722,-0.0456 -0.1064,-0.0532 -0.1406,-0.1368c-0.0361,-0.0874 -0.0788,-0.1767 -0.1026,-0.267c-0.0874,-0.3477 -0.2156,-0.7562 -0.1225,-1.1162c0.0275,-0.1074 0.0513,-0.1872 0.1168,-0.2717" fill="#371e10" stroke="none" stroke-width="0.95"/><path d="M344.1866,164.135c0.5045,0.4113 1.3357,0.7514 1.9504,1.0165c0.4902,0.2147 0.6232,0.5529 1.0887,0.7961c0.4427,0.2308 0.9747,0.6431 1.3756,0.9262c1.8525,1.2977 3.9434,2.4472 5.9821,3.4599c0.3791,0.1881 0.7914,0.3202 1.1818,0.5007c0.4047,0.1852 0.7116,0.1368 1.1723,0.1558c1.3804,0.0551 2.7303,0.2907 4.0964,0.4636c1.3006,0.1672 2.6325,0.1738 3.9311,0.3011c0.0874,0.0095 0.3658,0 0.4399,0.0371c0.1016,0.0513 0.1054,0.2166 0.208,0.304c0.3553,0.2983 1.0013,0.7495 1.4203,0.9699c0.5909,0.3126 0.8863,0.5387 1.5219,0.7771c0.3581,0.1359 0.8331,0.2081 1.1837,0.3591c0.2432,0.1036 0.6925,0.2071 0.8711,0.4171c0.1197,0.1406 0.4123,0.418 0.4294,0.5909c0.038,0.3762 -0.3401,0.5548 -0.6963,0.7115c-0.5472,0.2404 -1.2379,0.3031 -1.7813,0.1235c-0.0294,0.628 0.6859,1.2873 1.0203,1.7566c0.2337,0.3268 0.3914,0.4541 0.3582,0.8436c-0.0304,0.3534 -0.1872,0.513 -0.4218,0.7695c-0.418,0.4541 -0.9833,0.7153 -1.3215,1.1808c-0.2128,0.2974 -0.4199,0.3572 -0.7039,0.5491c-0.2413,0.1644 -0.3696,0.4076 -0.6565,0.5719c-0.2812,0.1596 -0.2574,0.4066 -0.5358,0.5548c-0.2707,0.1416 -0.95,1.084 -1.2426,1.0251c-0.3724,-0.0741 -0.8189,-0.3278 -1.4886,-0.5092c-0.9415,-0.2584 -1.9076,-0.6118 -2.8291,-0.9424c-0.6698,-0.2404 -1.4811,-0.4019 -2.0938,-0.7334c-0.4285,-0.2318 -0.647,-0.7002 -1.0479,-1.026c-0.4075,-0.3316 -0.8502,-0.6384 -1.1742,-1.0707c-0.3068,-0.4085 -0.5681,-0.608 -0.95,-0.9158c-0.4018,-0.3211 -0.6564,-0.7315 -1.0991,-1.0279c-0.3297,-0.2166 -0.5482,-0.3581 -0.798,-0.6935c-0.3012,-0.4066 -0.5358,-0.5823 -1.008,-0.7771c-1.1362,-0.4712 -2.2087,-1.1286 -3.3801,-1.5599c-1.3879,-0.5111 -2.622,-1.2321 -3.9805,-1.7385c-1.4345,-0.5358 -2.8623,-1.1219 -4.3139,-1.6425c-1.0384,-0.3734 -2.1081,-0.7154 -3.1569,-1.0346c-0.2422,-0.0731 -0.5567,-0.1482 -0.7714,-0.2764c-0.1178,-0.0713 -0.2907,0.0285 -0.1748,-0.1824c0.0447,-0.0827 0.3392,-0.1235 0.4218,-0.153c0.8474,-0.3192 1.7385,-0.4465 2.5726,-0.7657c0.665,-0.2527 1.2911,-0.6469 1.8715,-1.0573c0.5301,-0.3772 1.0973,-1.0764 1.4649,-1.5865c0.2062,-0.2907 0.3981,-0.5406 0.6213,-0.8075c0.1444,-0.1691 0.2451,-0.57 0.4418,-0.6232" fill="#ffe6c7" stroke="none" stroke-width="0.95"/><path d="M308.3621,159.8305c-0.3733,0.5738 -0.7524,1.1324 -1.0868,1.7499c-0.2593,0.4845 -0.5282,1.1011 -0.8426,1.5552c-0.76,1.0972 -1.7376,2.1261 -2.5983,3.2157c-0.892,1.1324 -1.444,2.4985 -2.2914,3.6784c-0.6574,0.9215 -1.3471,1.8354 -1.8848,2.832c-0.5937,1.0991 -1.0697,2.3028 -1.7983,3.3117c-0.6375,0.8892 -1.1571,1.8135 -1.6426,2.7873c-0.4389,0.873 -0.8825,1.8002 -1.4373,2.5916c-0.2983,0.4275 -0.6774,0.551 -1.2046,0.8027c-0.4731,0.2223 -0.9073,0.494 -1.3747,0.7287c-1.0697,0.5367 -2.2515,0.9272 -3.2271,1.6596c-0.4532,0.3363 -1.7404,1.9333 -2.0216,1.0868c-0.2252,-0.684 0.6146,-2.0624 0.9975,-2.5944c0.5035,-0.7087 1.4421,-1.5172 2.2363,-1.8696c0.3762,-0.1682 0.6745,-0.1549 1.0915,-0.1786c-0.2964,-1.2037 0.5995,-2.1109 0.7239,-3.2414c-0.3486,0.1263 -0.9186,1.0649 -1.2578,1.3813c-0.399,0.3724 -0.7647,0.7733 -1.2692,1.0412c-0.3866,0.208 -0.8493,0.3895 -1.2074,-0.001c-0.4551,-0.4911 -0.02,-0.9196 0.3163,-1.2863c0.6099,-0.6631 1.2797,-1.652 1.6625,-2.5336c0.4456,-1.0241 0.989,-2.0957 1.3386,-3.1825c0.6023,-1.8592 1.1637,-3.9112 3.3212,-4.485c0.5586,-0.1463 0.9509,0.039 1.3917,-0.4161c0.3031,-0.3173 0.7002,-0.8664 0.8873,-1.2692c0.2461,-0.5415 0.3753,-0.6032 0.6536,-1.1675c0.2404,-0.4864 0.4028,-1.5884 0.7011,-2.034c0.6166,-0.911 1.216,-1.7841 1.6806,-2.7787c0.4066,-0.874 0.6479,-1.8316 0.9804,-2.7607c0.3382,-0.9472 0.7391,-1.8801 0.9975,-2.8025c0.1814,-0.6641 -0.0428,-1.0194 0.5339,-0.7828c0.5082,0.208 0.9243,0.7932 1.273,1.1694c1.0564,1.1343 1.9323,2.7436 3.5064,3.3174c0.1188,0.2337 0.3639,0.343 0.4427,0.5805c0.0618,0.0152 0.1207,0.0351 0.172,0.0703" fill="#ffe6c7" stroke="none" stroke-width="0.95"/><path d="M322.5333,123.0988c1.0972,0.4408 2.0254,0.1985 3.1863,0c1.0611,-0.1805 2.2239,-0.0675 3.2015,0.2498c1.0754,0.3487 1.5228,0.6137 2.5137,1.1106c0.5434,0.2707 1.3746,0.8455 1.8696,1.2074c0.6745,0.494 0.6906,0.7866 1.0592,1.5305c0.2898,0.5785 0.8389,0.8977 1.0479,1.4088c0.2204,0.5444 0.3714,0.9804 0.6678,1.5238c0.5729,1.0593 1.2227,2.1214 1.6578,3.2557c0.4569,1.1894 0.9861,2.2752 1.3091,3.5159c0.3163,1.2122 0.8588,2.414 1.0583,3.6528c0.284,1.7489 0.4028,3.458 -0.1245,5.1661c-0.6669,0.6669 -0.6355,1.9988 -0.4569,2.7312c0.2954,1.2265 0.9775,1.8753 1.6482,2.9203c0.5862,0.913 1.2094,1.7936 1.444,2.8443c0.1216,0.5463 -0.0256,1.4963 -0.0323,2.0701c-0.0057,0.5348 -0.322,0.9785 -0.2052,1.5247c0.1891,0.8892 0.9643,1.6825 1.2778,2.5204c0.379,1.0146 0.8654,1.0307 0.8664,2.1631c0.0009,1.1286 -0.6223,2.6667 -1.4602,3.4134c-0.4094,0.3648 -0.8236,0.7391 -1.2777,1.0611c-0.4237,0.3021 -1.0697,0.5035 -1.3395,0.9187c-0.7591,0.0047 -1.5723,0.6745 -2.2211,0.9433c-0.5605,0.2318 -0.9443,0.3363 -1.5514,0.3952c-1.2863,0.1302 -2.4975,0.2423 -3.7021,-0.2574c-0.2603,0.5994 -0.5976,0.9889 -0.6641,1.6663c-0.076,0.7799 0.1872,1.1371 0.5862,1.7071c0.323,0.4598 0.7087,0.9491 1.0944,1.3699c0.4721,0.5178 0.93,0.7477 0.93,1.5191c0,2.8139 -3.0362,4.1857 -5.0834,4.6825c-0.7125,0.1729 -1.8155,0.4218 -2.5308,0.5425c-0.817,0.1368 -1.4032,0.1662 -2.2363,0.2413c-1.3823,0.1235 -3.1056,0.0826 -4.4707,-0.2043c-1.558,-0.3277 -3.1407,-0.4645 -4.4755,-0.9642c-1.406,-0.5244 -3.0818,-0.799 -4.084,-1.5514c-0.5054,-0.379 -0.5833,-0.2327 -1.1191,-0.5719c-0.476,-0.303 -1.4231,-0.7144 -1.862,-1.0801c-0.9016,-0.7477 -0.4817,-1.9323 -0.0817,-2.8025c0.4531,-0.9852 1.3452,-1.3737 0.6678,-2.4463c-0.3049,-0.4797 -0.5852,-1.1552 -0.8018,-1.7214c-0.1919,-0.4968 -0.3638,-1.1039 -0.1976,-1.6596c0.1682,-0.5672 0.5216,-0.6232 0.9956,-0.9434c0.5605,-0.38 0.9918,-0.9148 1.4744,-1.3661c0.7667,-0.7153 1.1334,-1.7556 1.3965,-2.735c0.2793,-1.0374 0.2024,-1.5495 -0.2413,-2.4444c-0.3847,-0.7761 -0.1149,-0.9205 -0.721,-0.5434c-0.5662,0.3506 -1.3623,0.6185 -1.995,0.5339c-1.4345,-0.1947 -3.4989,-1.5371 -4.4489,-2.8329c-0.9756,-1.3328 -2.7141,-2.5536 -4.2712,-3.021c0.0428,-0.4028 -0.0817,-1.1447 0.0561,-1.5162c0.1786,-0.4921 0.9224,-0.5177 1.2663,-0.9129c0.5928,-0.6764 -0.399,-1.7794 0.1302,-2.6866c0.2707,-0.4636 0.8578,-0.8997 1.2758,-1.2303c0.8712,-0.6906 1.6521,-1.0374 2.5631,-1.6625c1.3414,-0.9196 2.4643,-1.7119 3.7506,-2.7939c0.8731,-0.7325 2.4691,-1.9608 2.8253,-3.0134c0.4712,-1.3889 0.9823,-2.7284 1.5865,-4.0964c1.0118,-2.2952 1.4013,-4.8213 2.87,-6.8372c0.4664,-0.6412 0.778,-1.3718 1.2587,-1.9931c0.4722,-0.6137 0.6897,-1.3794 1.1286,-1.9921c0.4228,-0.589 1.0365,-1.0374 1.6616,-1.3452c0.6906,-0.3382 0.9823,-0.6774 1.4611,-1.1771" fill="#ff1f00" stroke="none" stroke-width="0.95"/><path d="M333.6264,178.8324c0.7714,1.1077 0.931,2.2981 1.9114,3.5046c1.2654,1.5627 1.2483,2.8281 2.0473,4.6084c0.5994,1.3348 0.8284,2.1746 1.007,3.6585c0.1662,1.3832 0.5956,2.7863 0.8996,4.1524c0.6061,2.717 1.2664,6.3261 1.7765,8.9509c0.608,3.1265 1.2417,5.4226 1.3889,8.4227c0.1121,2.2781 0.2271,6.5246 0.741,8.323c1.5172,0.1871 0.6441,5.1946 0.6403,6.5217c-0.0066,2.5726 -0.4275,4.4289 0.7771,6.5721c0.5976,1.064 1.7946,3.6385 2.3978,4.7652c0.5235,0.9728 1.5466,1.5409 1.901,2.603c0.3629,1.0887 -0.1216,2.4976 0.3135,3.5616c0.3904,0.9547 1.8211,1.6216 2.4747,2.3883c0.5339,0.6241 1.2474,0.8483 1.7803,1.4354c0.4665,0.5187 1.1951,0.7847 1.4326,1.4326c0.476,1.2996 0.9947,1.3728 0.8674,2.6106c-0.1577,1.52 -0.9215,2.4776 -0.6365,3.952c0.3049,1.5903 -0.5102,2.8177 -0.8227,3.9292c-1.748,0.1017 -3.1122,-0.1368 -4.7586,0.3743c-0.2052,1.2996 -2.4082,3.6794 -3.6062,4.2237c-1.5504,0.7068 -3.9548,0.6213 -5.6753,0.5377c-2.2182,-0.1054 -4.6227,-0.1102 -6.7621,-0.8255c-1.329,-0.4484 -2.4576,-1.9181 -3.7449,-1.9979c0.2907,-2.5317 1.1638,-4.8801 0.0827,-7.5088c-0.4703,-1.1466 -1.3709,-2.4386 -1.2901,-3.7496c0.0741,-1.1752 0.5329,-2.3826 0.5329,-3.7174c-0.0028,-2.5412 -0.7704,-4.9362 -1.4535,-7.3359c-0.4009,-1.4069 -0.5624,-2.4928 -0.8483,-3.9444c-0.2385,-1.2179 -1.216,-2.3807 -1.2778,-3.5862c-0.2584,-5.1148 -0.6916,-4.8669 -1.1989,-7.3027c-0.1938,-0.931 -0.4218,-1.7233 -0.7334,-2.6096c-0.4208,-1.1989 -0.797,-2.3864 -1.083,-3.6974c-0.0731,-0.0361 0.0162,-0.0713 -0.1681,0.0579c-0.2062,0.1473 -1.1201,2.3066 -1.3053,2.7009c-0.3914,0.8265 -0.5149,1.7888 -0.5634,2.7521c-0.0532,1.0517 0.3772,2.1641 0.1321,3.1863c-0.2252,0.932 -1.0621,1.9998 -1.5932,2.7911c-0.6384,0.9491 -1.6216,1.6986 -2.355,2.5498c-0.4465,0.5206 -0.9196,0.628 -1.2939,1.2018c-0.2831,0.436 -1.3205,1.4924 -1.5447,1.8202c-1.4982,2.1726 -3.3412,5.2706 -5.321,7.106c-1.4753,1.3708 -3.2423,2.7559 -3.4266,4.8488c-0.1644,1.8791 1.2568,4.5334 0.0028,5.9403c-0.9956,1.1125 -2.0596,0.6831 -1.292,2.3978c0.4988,1.1277 -0.0874,1.5751 -0.6308,2.8481c-0.4436,1.0355 -1.14,1.7661 -1.976,2.6638c-0.7343,0.7866 -0.8217,1.273 -1.2768,2.1214c-0.6897,0.2983 -3.7278,1.4231 -4.4688,1.5437c-6.2861,1.027 -9.8249,-0.2375 -11.3439,-0.8512c-1.2417,-0.5035 -2.0986,-1.0041 -2.8263,-2.1983c-0.8008,-1.3119 -1.5874,-2.6505 -5.5033,-3.7344c-2.3855,-0.6612 -0.6859,-0.1976 -2.1261,-0.9301c-0.6717,-1.8734 1.3072,-4.3643 2.3398,-5.8482c0.3183,-0.4579 0.5453,-1.2787 0.6289,-1.8382c0.076,-0.5197 -0.0484,-1.2331 0.0846,-1.463c0.3952,-0.6812 2.4738,-0.4551 3.1464,-0.6726c0.0038,-0.5472 0.0788,-1.121 0.2546,-1.6036c0.7239,-2.0007 2.2847,-4.0556 3.6005,-5.6221c1.4867,-1.7756 2.451,-2.9365 4.104,-4.5876c0.9395,-0.9443 1.8734,-1.6986 2.8319,-2.7113c0.9747,-1.025 2.1176,-1.9209 3.097,-2.9516c0.6926,-0.7296 1.8202,-1.9361 2.4738,-2.6657c0.3164,-0.3534 -0.2812,-1.0099 0.02,-1.957c0.3002,0.0608 0.2964,-2.0359 1.405,-1.4041c1.3262,-2.0834 1.2464,-4.3577 2.1765,-6.5816c1.1029,-2.6382 1.9636,-5.0797 2.5868,-7.8926c0.7315,-3.2908 1.6141,-7.7967 1.8031,-11.7762c0.1321,-2.7968 0.3107,-5.0208 0.3924,-7.8565c0.0693,-2.4444 0.2346,-5.1167 1.1903,-7.4243c0.476,-1.1495 0.5605,-2.4101 1.2208,-3.4751c0.5557,-0.8977 1.7081,-2.0406 1.6834,-3.1825c0.8056,0.21 1.6701,0.8123 2.3949,1.2103c1.5447,0.8465 1.692,1.1391 3.0011,1.4507c1.6463,0.3923 3.2737,0.9234 4.9172,1.3632c0.8635,0.2318 1.6055,0.3582 2.5488,0.3696c4.0565,0.0475 8.7277,-0.9567 11.819,-2.1242" fill="#a7deff" stroke="none" stroke-width="0.95"/><path d="M325.0156,182.9611c0.6327,0.1824 1.217,0.6166 1.7803,0.9766c0.2784,0.1777 0.6052,0.3268 0.8712,0.5083c0.4465,0.2992 0.2964,0.4455 0.265,0.9386c-0.0427,0.7153 0.0171,1.2663 -0.2574,1.9304c-0.2917,0.7096 -0.6308,1.4468 -1.007,2.1061c-0.3344,0.5852 -0.7743,1.4535 -1.2692,1.9333c-0.5748,0.5576 -0.9082,1.1286 -1.4326,1.7356c-0.2223,0.2565 -0.7325,0.6413 -0.9386,0.9092c-0.3078,0.3999 -0.475,0.4237 -0.8788,0.7077c-0.2964,0.2062 -0.6859,0.437 -0.9699,0.6603c-0.2394,0.1909 -0.4342,0.1092 -0.684,0.2802c-0.3876,0.2613 -0.9776,0.6422 -1.4108,0.817c-0.3087,0.1273 -0.7913,0.3107 -1.1029,0.4256c-0.6479,0.2385 -1.2113,0.3164 -1.8601,0.5263c-0.8911,0.2888 -1.8221,0.2432 -2.7284,0.3449c0.0399,-0.9833 -0.7809,-1.7347 -0.7942,-2.6771c0.5842,-0.2328 1.2008,-0.324 1.7613,-0.6194c0.6764,-0.3582 1.444,-0.5605 2.1365,-0.9006c0.4817,-0.2375 1.0203,-0.3981 1.5086,-0.6432c0.7448,-0.3743 1.368,-0.8018 2.0416,-1.2901c0.4607,-0.3353 0.8987,-0.5909 1.2549,-1.0678c0.3107,-0.4142 0.6109,-0.7381 0.9747,-1.1058c0.7249,-0.7296 1.1182,-1.3822 1.5419,-2.3066c0.3667,-0.7999 1.1191,-1.6235 1.12,-2.5251c0,-0.3619 -0.2223,-1.5086 0.076,-1.7052" fill="#ff1f00" stroke="none" stroke-width="0.95"/><path d="M362.3259,260.5391c-0.0076,-0.0048 0.1739,0.1225 0.1767,0.1273c0.1368,0.1976 -0.0665,0.6764 -0.1672,0.8806c-0.113,0.2318 -0.2764,0.2755 -0.4455,0.4646c-0.1644,0.1862 -0.2423,0.4446 -0.3886,0.645c-0.4199,0.5767 -0.9785,1.1657 -1.4649,1.6749c-1.2017,1.2559 -2.8747,1.804 -4.5267,2.2999c-1.3661,0.4085 -2.6125,0.8256 -4.0394,1.0308c-1.2502,0.1776 -2.4795,0.2935 -3.7335,0.3524c-1.3671,0.0608 -2.7645,-0.1634 -4.123,-0.0389c-0.7097,0.0646 -1.4269,0.0798 -2.1147,0.2508c-0.4617,0.1159 -1.0887,0.133 -1.4412,0.4902c0.001,0.037 0.0304,0.0304 0.0314,0.075c-0.3591,0.3373 -1.1619,0.343 -1.6359,0.4931c-0.3449,0.1054 -0.6755,0.2109 -1.0089,0.3458c-0.5824,0.2308 -1.406,0.4902 -2.0387,0.5529c-1.6074,0.1624 -1.7518,-1.274 -1.8991,-2.2724c-0.1197,-0.8047 0.209,-1.4431 0.3762,-2.1974c0.0789,-0.3477 0.0095,-0.8464 0.4351,-0.9918c0.2784,-0.0978 0.8218,0.0523 1.121,0.0751c0.9643,0.0893 1.9152,0.2375 2.908,0.1767c1.2853,-0.0808 2.4709,0.1833 3.7563,0.2574c1.0393,0.0618 2.1403,0.1055 3.1549,-0.1311c0.969,-0.2289 1.5751,-0.7761 2.2164,-1.4421c0.3334,-0.3505 0.5529,-0.7885 0.8559,-1.1656c0.2755,-0.3363 0.7268,-0.5615 1.0042,-0.8655c0.2802,-0.3049 0.4484,-0.7552 0.8312,-0.9908c0.3572,-0.2185 0.9557,-0.3202 1.3519,-0.4551c1.6169,-0.5491 3.3772,0.419 4.9314,0.5738c1.0346,0.1026 2.1024,0.0494 3.1293,-0.0427c0.5254,-0.0456 1.065,-0.02 1.5837,-0.0855c0.3971,-0.0523 0.9025,-0.191 1.2882,-0.0447" fill="#ff1f00" stroke="none" stroke-width="0.95"/><path d="M362.4969,260.7148c0.3715,0.8341 0.552,1.4792 0.6536,2.3912c0.0456,0.4123 0.1387,0.6764 0.0542,1.0858c-0.0931,0.4418 0.0788,0.8379 -0.0988,1.2464c-0.1511,0.3411 -0.3924,0.6194 -0.5054,0.9595c-0.1378,0.4047 -0.7562,0.8503 -1.0982,1.0963c-0.9842,0.7002 -1.8924,1.0678 -3.0286,1.4231c-1.3063,0.4076 -2.5441,0.6546 -3.9055,0.6992c-1.0953,0.0361 -2.1242,-0.2061 -3.2138,-0.0446c-2.4919,0.3714 -4.7966,1.2169 -7.1288,2.0852c-1.9295,0.7182 -3.838,1.4345 -5.8482,1.6939c-0.4617,0.0589 -0.8949,0.0598 -1.3623,0.0855c-0.3259,0.0171 -0.7638,0.1786 -1.0849,0.0874c-0.5111,-0.1454 -0.7524,-1.2388 -0.9234,-1.7338c-0.2622,-0.7552 -0.5862,-1.3471 0.4018,-1.5637c0.9272,-0.2023 1.8383,-0.5538 2.7351,-0.8711c0.8749,-0.3088 1.6273,-0.8807 2.5184,-1.1837c0.8569,-0.2974 2.1214,-0.2062 3.0267,-0.2052c1.3272,0.0019 2.6847,0.0684 4.0005,-0.0333c0.5586,-0.0437 1.1267,-0.0399 1.6872,-0.0988c0.6916,-0.0655 1.0535,-0.0199 1.7375,-0.0589c2.1926,-0.1254 4.7994,-0.9709 6.7412,-2.0216c1.1543,-0.6251 1.9865,-1.4307 2.9612,-2.2021c0.5177,-0.4104 0.5462,-0.7334 0.8037,-1.2806c0.2251,-0.4788 0.7315,-0.8559 0.7581,-1.4155c0.0798,-0.0256 0.1757,-0.0864 0.2546,-0.0959" fill="#bfb3d8" stroke="none" stroke-width="0.95"/><path d="M293.298,265.8382c-0.0162,0.8388 1.5865,1.4079 2.1603,1.7489c0.7286,0.4313 1.501,0.817 2.2667,1.2046c0.9709,0.4959 2.0786,0.6213 3.0827,1.0441c0.2784,0.1168 0.6869,0.228 0.7344,0.5206c0.0855,0.4883 -0.7163,1.0478 -1.0412,1.2568c-0.5235,0.3306 -1.0811,0.7154 -1.6597,0.9149c-0.8474,0.2907 -1.6957,0.55 -2.5526,0.7068c-0.9766,0.1786 -1.6777,0.2204 -2.679,0.1634c-0.7724,-0.0466 -1.8126,-0.096 -2.5707,-0.2774c-1.3053,-0.3183 -2.3959,-0.4997 -3.687,-0.8047c-0.835,-0.1938 -1.5599,-0.4588 -2.3512,-0.8008c-0.7961,-0.3382 -1.8107,-0.9177 -2.566,-1.3405c-1.824,-1.0203 -3.1948,-2.2914 -4.8136,-3.61c-1.3794,-1.1219 -2.4472,-1.9731 -3.4409,-3.4437c-0.4845,-0.7173 -0.9909,-1.2873 -1.1695,-2.1461c-0.095,-0.455 -0.0389,-0.8379 0.2271,-1.2188c0.2717,-0.3876 0.74,-1.255 1.2416,-1.2398c0.5225,0.0171 1.7879,0.3354 2.4482,0.5919c0.5225,0.2023 1.0649,0.3762 1.5637,0.6089c0.4997,0.2318 0.7125,0.5254 1.1172,0.8693c0.3952,0.3382 0.8436,0.5519 1.1818,0.9699c0.3334,0.4123 0.5975,0.7933 0.9462,1.1875c0.4978,0.5653 1.1096,1.2322 1.7451,1.673c1.2407,0.8607 3.0533,1.0478 4.5059,1.311c1.6891,0.3068 3.4532,0.2831 5.1756,0.2831" fill="#ff1f00" stroke="none" stroke-width="0.95"/><path d="M301.80809,270.6091c0.2223,0.1624 -0.0399,0.8474 -0.0855,1.1305c-0.0694,0.4408 -0.1672,0.8901 -0.3487,1.3024c-0.2736,0.6223 -0.418,1.464 -0.7913,2.0292c-0.5634,0.8588 -2.0473,1.1799 -3.0286,1.3139c-1.7309,0.2337 -3.5777,0.1757 -5.3191,0.0855c-1.7841,-0.0922 -3.7363,-0.3496 -5.4824,-0.7325c-1.6616,-0.3638 -3.2481,-0.6298 -4.6949,-1.5152c-0.5339,-0.3259 -1.0232,-0.5311 -1.349,-1.0963c-0.2964,-0.513 -0.76,-1.0792 -1.102,-1.5837c-0.8085,-1.1922 -1.464,-1.8487 -2.6068,-2.6951c-0.6954,-0.5159 -1.4754,-1.35 -2.1413,-1.9618c-0.3582,-0.3306 -0.6536,-0.722 -1.0488,-1.0089c-0.3373,-0.247 -0.6612,-0.7837 -0.9785,-1.0602c-0.8968,-0.7856 -1.7281,-1.2416 -1.7879,-2.3645c-0.0266,-0.4532 0.6089,-1.331 0.8208,-1.7404c0.2451,-0.4665 0.4949,-1.0013 0.8673,-0.4361c0.2071,0.3135 0.3173,0.7591 0.456,1.1248c0.1881,0.4912 0.3069,0.7135 0.6603,1.083c0.4446,0.4617 0.5035,0.8341 0.9538,1.2901c0.4056,0.4095 0.9215,1.0688 1.348,1.4535c0.4997,0.4532 1.0042,0.8664 1.4763,1.3348c0.4351,0.4313 1.0061,0.6431 1.445,1.0887c1.9361,1.956 5.2782,3.8551 8.018,4.5248c0.8312,0.2033 1.101,0.2936 1.9988,0.4874c1.2179,0.266 2.4301,0.6963 3.6869,0.7628c1.9817,0.1064 4.1411,0.0475 5.9622,-0.8512c0.418,-0.2033 0.8189,-0.5111 1.2464,-0.7353c0.2774,-0.1463 0.513,-0.3078 0.7771,-0.4864c0.3658,-0.2432 0.8683,-0.3638 1.1286,-0.7381" fill="#bfb3d8" stroke="none" stroke-width="0.95"/><path d="M326.928,104.1672c-1.559,-1.1752 -2.47,0.436 -2.8833,1.653c-0.3344,0.9709 -0.1377,1.9902 0.2698,2.8956c0.7344,1.6435 3.6252,4.2921 4.7538,1.6425c0.0665,-0.1605 0.4484,-0.0475 0.3829,0.1007c-1.274,2.9935 -4.1791,0.381 -5.321,-1.3765c-0.968,-1.4896 -0.7467,-3.3345 0.2071,-4.7538c0.7334,-1.0935 1.8867,-1.0393 2.8396,-0.3192c0.2099,0.1586 -0.1074,0.265 -0.2489,0.1577zM328.97999,110.4647c0.4189,-0.9994 -1.5248,-0.5377 -2.0625,-0.5776c-0.8217,-0.0608 -1.5447,-0.5985 -1.8382,-1.3585c-0.076,-0.1985 0.3087,-0.1786 0.3648,-0.0323c0.5633,1.464 1.9199,1.0004 3.1103,1.0621c0.6175,0.0304 1.0792,0.3686 0.8103,1.0089c-0.0674,0.1606 -0.4474,0.0485 -0.3847,-0.1026zM324.5197,106.0928c0.076,-0.8645 0.9681,-1.1077 1.7157,-0.9509c1.3329,0.2812 1.8155,1.6615 2.6942,2.5526c0.1672,0.1691 -0.2071,0.21 -0.3173,0.0988c-0.5928,-0.5994 -0.9994,-1.3433 -1.5722,-1.9589c-0.5947,-0.6431 -2.0397,-0.7229 -2.1375,0.3629c-0.0114,0.1596 -0.399,0.0684 -0.3829,-0.1045zM342.8424,94.4392c1.158,1.5722 2.2372,3.5511 2.0349,5.5793c-0.2109,2.1195 -1.6663,5.035 -0.0713,6.9521c0.1539,0.1834 -0.2156,0.2204 -0.3182,0.0988c-0.9757,-1.1751 -0.8655,-2.8718 -0.5472,-4.274c0.3277,-1.4336 0.683,-2.7978 0.4778,-4.2817c-0.1938,-1.4316 -1.0554,-2.8376 -1.8943,-3.9786c-0.1415,-0.1938 0.2223,-0.227 0.3183,-0.0959zM344.7794,106.9364c0.4389,0.9025 1.179,1.4602 1.8924,2.1299c0.2879,0.2689 0.6356,0.6821 0.5814,1.1096c-0.0655,0.5225 -0.3173,0.8256 -0.7334,1.1286c-0.1577,0.1131 -0.4816,0.2309 -0.6631,0.2575c-1.1314,0.1814 -0.8265,1.0383 -0.74,1.6948c0.0247,0.1843 -0.3677,0.1254 -0.3886,-0.0352c-0.1016,-0.7799 -0.3467,-1.7062 0.6536,-1.8667c0.6945,-0.1112 1.2046,-0.3715 1.4573,-1.0346c0.2584,-0.683 -0.5909,-1.2644 -1.0089,-1.634c-0.5861,-0.5177 -1.0735,-1.0108 -1.4174,-1.7195c-0.0912,-0.1871 0.2974,-0.17 0.3667,-0.0304zM344.8896,111.1535c-0.5975,0.1947 -1.1286,0.5567 -1.7793,0.3572c-0.6118,-0.1881 -0.7258,-0.7838 -0.3781,-1.2711c0.0931,-0.1321 0.4598,0.0114 0.3534,0.1634c-0.3287,0.4598 -0.1397,0.9519 0.4683,0.9053c0.381,-0.0294 0.7505,-0.2812 1.1106,-0.399c0.1501,-0.0494 0.4531,0.1701 0.2251,0.2442zM341.6815,114.468c0.7106,-0.9443 2.0567,-1.2521 3.1711,-1.3604c0.1767,-0.018 0.3971,0.2356 0.1387,0.2603c-1.0374,0.0979 -2.2933,0.381 -2.9555,1.2616c-0.0969,0.1311 -0.4664,-0.0142 -0.3543,-0.1615zM345.1034,113.2226c1.7632,2.8747 -3.4704,2.8082 -4.8954,1.7033c-0.2061,-0.1605 0.1102,-0.2641 0.2499,-0.1567c1.2559,0.9737 5.832,1.0117 4.2816,-1.5143c-0.1083,-0.1748 0.2841,-0.1644 0.3639,-0.0323zM344.4488,115.267c0.4845,0.8018 0.4009,1.5751 -0.5073,1.9617c-0.74,0.3173 -1.767,0.2698 -2.4861,-0.0874c-0.2375,-0.1168 -0.0228,-0.2973 0.1643,-0.2052c0.6061,0.3002 1.3794,0.2879 2.0121,0.0808c0.8579,-0.2803 0.8664,-1.0346 0.4532,-1.7186c-0.1093,-0.1738 0.284,-0.1634 0.3638,-0.0313zM343.1445,117.4149c-1.5409,0.6973 -0.1131,3.3915 -2.0938,4.0489c-1.6321,0.5415 -3.3811,-0.1216 -4.9391,-0.6175c-4.1021,-1.3119 -8.6174,-4.4279 -8.9661,-9.1485c-0.0142,-0.1871 0.3762,-0.1244 0.3886,0.0352c0.3448,4.6873 4.806,7.6456 8.8568,8.9385c1.5656,0.5026 3.9454,1.445 5.2231,-0.0627c0.7933,-0.9376 -0.0864,-2.8072 1.2312,-3.4029c0.1397,-0.0646 0.4817,0.1264 0.2993,0.209zM326.6287,111.4166c0.1587,2.2734 -0.5092,4.8222 -1.1837,6.9825c-0.6298,2.0131 -1.6444,4.0214 -3.4209,5.245c-0.1292,0.0874 -0.4731,-0.0941 -0.2993,-0.2138c1.8601,-1.2796 2.7921,-3.3934 3.4447,-5.4824c0.6261,-2.0064 1.216,-4.465 1.0707,-6.5655c-0.0143,-0.1881 0.3771,-0.1254 0.3885,0.0342zM333.1837,125.8519c-0.0237,-0.6973 -0.1605,-1.3956 0.039,-2.0748c0.38,-1.2863 1.0355,-2.2382 1.6824,-3.3868c0.0779,-0.1368 0.4475,-0.0019 0.3544,0.1644c-0.5938,1.0507 -1.1904,1.9712 -1.5875,3.1274c-0.2517,0.7353 -0.1273,1.4392 -0.1016,2.204c0.0085,0.19 -0.3819,0.1244 -0.3867,-0.0342zM336.5125,103.0319c0.9567,-0.6488 1.8687,-1.3072 2.983,-1.6444c1.1372,-0.342 2.4558,0.0351 3.6205,-0.0456c0.1748,-0.0114 0.399,0.2422 0.1387,0.2603c-1.0593,0.0731 -2.1071,-0.1036 -3.1664,-0.039c-1.1989,0.0741 -2.318,1.0327 -3.2756,1.6796c-0.1301,0.0865 -0.4769,-0.0931 -0.3002,-0.2109z" fill="#010101" stroke="none" stroke-width="0.95"/><path d="M333.8649,86.9608c-2.2192,-1.5001 -4.6892,-1.673 -7.2827,-1.578c-0.1387,0.0057 -0.4142,-0.1957 -0.153,-0.2061c2.7389,-0.0998 5.3409,0.1064 7.6713,1.6824c0.2156,0.1463 -0.1207,0.1796 -0.2356,0.1017zM326.0473,103.4965c-1.0478,-2.5137 -2.0216,-5.8245 -1.2559,-8.5367c0.9225,-3.2785 4.4612,-5.8083 7.1127,-7.6171c0.1083,-0.0713 0.456,0.0836 0.3581,0.1463c-2.7274,1.8591 -5.6924,4.1448 -6.9882,7.2893c-1.0687,2.5945 0.1387,6.3261 1.1581,8.7685c0.0465,0.1159 -0.3325,0.0703 -0.3848,-0.0503zM324.16249,104.4066c-2.5906,-2.812 -4.8317,-6.3441 -4.3263,-10.3208c0.247,-1.9209 1.3177,-3.6604 2.4282,-5.1956c1.0545,-1.4582 2.4064,-2.9735 4.0888,-3.7012c0.1074,-0.0475 0.4608,0.1121 0.3078,0.1786c-3.0675,1.3253 -5.6088,5.244 -6.3564,8.3781c-0.951,3.9814 1.6577,7.8783 4.2161,10.6561c0.1035,0.1197 -0.2793,0.0912 -0.3582,0.0048z" fill="#010101" stroke="none" stroke-width="0.95"/><path d="M342.7322,94.4857c-1.4222,-1.7679 -4.6303,-1.4364 -6.6301,-1.2293c-2.355,0.2442 -4.5438,0.9709 -6.1541,2.8006c-0.8246,0.9348 -1.1799,2.1176 -1.0193,3.344c0.1653,1.2664 1.1761,2.5004 1.6872,3.6613c0.9481,2.1499 0.8645,4.256 -0.8009,5.9964c-0.1377,0.1406 -0.6241,-0.0532 -0.475,-0.209c2.7968,-2.9222 0.5444,-5.7845 -0.7201,-8.7675c-1.0212,-2.4111 0.8645,-4.656 2.7949,-5.8539c1.9304,-1.1942 4.4764,-1.3937 6.6918,-1.4127c1.7471,-0.0171 3.9292,0.1815 5.1053,1.6445c0.1549,0.1909 -0.3657,0.1662 -0.4797,0.0256zM331.8404,89.2246c2.2781,-1.0915 5.1129,-1.0003 7.4575,-0.1748c1.0317,0.362 2.2135,1.0137 2.9089,1.882c0.9291,1.1675 0.6679,2.223 1.027,3.5682c0.0551,0.2061 -0.4646,0.1349 -0.5149,-0.057c-0.1938,-0.7334 -0.095,-1.4839 -0.2622,-2.2183c-0.3164,-1.3775 -1.7946,-2.223 -2.9602,-2.7721c-2.1337,-1.0079 -5.1234,-0.9851 -7.2495,0.0333c-0.1672,0.0807 -0.6355,-0.152 -0.4066,-0.2613zM331.8822,87.2866c2.3446,-1.1115 5.5594,-0.6308 7.8508,0.3962c1.1058,0.4959 2.0406,1.2711 2.7788,2.222c1.063,1.368 0.5339,3.2186 0.7429,4.7956c0.0294,0.2233 -0.4902,0.1368 -0.5149,-0.057c-0.1416,-1.0659 0.0028,-2.1327 -0.1045,-3.2005c-0.1425,-1.4326 -1.3547,-2.4729 -2.4909,-3.1892c-2.0786,-1.311 -5.5993,-1.7736 -7.8575,-0.703c-0.1662,0.077 -0.6317,-0.1558 -0.4047,-0.2641zM309.1696,98.4624c-1.5979,1.4051 -2.3294,-1.1609 -2.3351,-2.3873c-0.0199,-3.1654 2.8291,-5.53 5.244,-7.0975c2.2781,-1.481 4.9058,-2.5156 7.5259,-3.2186c1.3452,-0.3591 2.7541,-0.6289 4.1468,-0.6954c0.7885,-0.038 1.824,-0.1785 2.5783,0.1302c0.3306,0.1368 0.0313,0.3382 -0.2109,0.2394c-0.6631,-0.2708 -1.7024,-0.076 -2.4092,-0.0418c-1.1733,0.0579 -2.3636,0.323 -3.5065,0.5956c-1.7442,0.4171 -3.4475,1.0745 -5.0758,1.8174c-2.2914,1.0497 -4.4384,2.4719 -6.1095,4.3719c-0.8113,0.9224 -1.3357,1.9855 -1.5865,3.1834c-0.0703,0.3363 -0.1016,4.0964 1.2664,2.8956c0.1463,-0.1301 0.627,0.0703 0.4721,0.2071zM326.14709,110.783c0.2964,0.6973 0.6925,1.3338 0.626,2.1299c-0.0931,1.0554 -0.4132,2.0767 -0.7514,3.0751c-0.5776,1.6977 -1.5438,3.2937 -3.2186,4.0708c-0.9481,0.4408 -2.1309,0.4731 -2.7588,-0.456c-0.989,-1.4602 0.436,-3.4324 1.3575,-4.4774c0.1283,-0.1444 0.6194,0.0437 0.4741,0.2109c-0.9206,1.0422 -1.6312,2.0862 -1.5495,3.5312c0.1387,2.4985 3.2063,0.3334 3.9131,-0.5349c0.7315,-0.8996 1.1438,-2.0539 1.4867,-3.1464c0.2052,-0.6545 0.38,-1.3148 0.4969,-1.9902c0.1577,-0.9101 -0.2185,-1.5913 -0.5577,-2.3912c-0.1035,-0.2403 0.4104,-0.1919 0.4817,-0.0218zM321.9205,115.3306c-0.9357,1.3661 -3.2015,5.0189 -5.1062,2.6695c-1.6882,-2.0814 0.9595,-5.2734 2.5954,-6.5265c0.1453,-0.113 0.6146,0.1007 0.4037,0.2632c-1.4326,1.0963 -2.7626,2.8766 -3.0039,4.693c-0.0997,0.7524 0.2432,1.387 0.8398,1.8268c0.7762,0.5748 1.7167,-0.4199 2.1632,-0.8911c0.6365,-0.6707 1.1115,-1.4839 1.6321,-2.242c0.1083,-0.1586 0.6042,0.02 0.4759,0.2071zM315.3247,100.4736c-1.2654,0.8179 -2.4729,1.7546 -3.5673,2.792c-0.6593,0.6223 -1.196,1.6245 -2.0919,1.9523c-1.5475,0.5652 -2.9174,-0.0912 -2.8281,-1.8706c0.1491,-2.8956 1.7242,-5.0502 3.5891,-7.1259c1.7005,-1.8934 3.7534,-3.4172 6.2871,-3.9834c0.1786,-0.0408 0.607,0.2318 0.3068,0.2993c-3.9368,0.8825 -7.447,4.4384 -9.0278,8.0541c-0.4513,1.0326 -0.6517,2.1489 -0.6365,3.2718c0.0123,0.8911 0.5424,1.3965 1.6739,1.1723c0.627,-0.1235 1.083,-0.6859 1.4782,-1.1372c1.2568,-1.4421 2.812,-2.6495 4.4137,-3.6879c0.1548,-0.1007 0.6241,0.1216 0.4028,0.2632zM316.3393,108.54c-0.7211,0.8674 -1.4906,1.5219 -2.1166,2.4966c-0.7049,1.0992 -1.369,2.2544 -2.4263,3.0562c-1.3576,1.0317 -2.8101,-0.3031 -3.0068,-1.6435c-0.2878,-1.9741 0.6916,-4.1981 1.4364,-5.9746c0.9453,-2.2486 2.3674,-4.7015 4.4926,-6.0049c0.1577,-0.0969 0.627,0.1263 0.4037,0.2631c-3.0533,1.8734 -4.7661,6.0563 -5.5898,9.4212c-0.1881,0.7685 -0.2897,1.5608 -0.2261,2.3512c0.0285,0.3487 0.1397,0.6793 0.3069,0.9852c0.7343,1.3499 2.1536,0.0912 2.7217,-0.5938c0.7173,-0.8616 1.2588,-1.8477 1.8791,-2.7778c0.4665,-0.6973 1.1229,-1.1504 1.6502,-1.786c0.1244,-0.151 0.6175,0.0361 0.475,0.2071zM318.8853,112.5832c-2.5916,1.0688 -2.3142,4.8507 -4.9353,5.8416c-0.7913,0.2973 -1.5561,-0.3363 -1.9446,-0.9396c-0.7771,-1.2008 -0.1872,-3.267 0.3258,-4.4374c0.0846,-0.1948 0.59,-0.0399 0.513,0.1377c-0.4512,1.0298 -0.6602,2.1318 -0.626,3.2576c0.0361,1.1808 1.3186,2.1109 2.4215,1.0193c0.3971,-0.3942 0.6764,-0.9291 0.9348,-1.4155c0.7515,-1.4155 1.3139,-3.0685 2.9089,-3.7268c0.1663,-0.0703 0.6318,0.1691 0.4019,0.2631zM333.6169,92.3368c3.2177,-0.6887 6.7365,-0.6536 9.3613,1.5723c0.2318,0.1966 -0.2774,0.2242 -0.4161,0.1054c-2.4196,-2.0539 -5.6914,-2.0092 -8.6374,-1.3813c-0.1805,0.0409 -0.607,-0.2337 -0.3078,-0.2964zM317.6854,103.7843c1.0811,-1.5152 2.5536,-2.1251 4.3624,-2.3664c0.2166,-0.0285 0.5377,0.2707 0.1938,0.3163c-1.7071,0.2271 -3.0675,0.8379 -4.0821,2.2591c-0.1121,0.1558 -0.6071,-0.0247 -0.4741,-0.209zM317.87829,91.7507c0.8673,-0.7486 1.9741,-0.7743 3.0324,-0.4608c0.304,0.0912 0.2308,0.3781 -0.077,0.286c-0.8749,-0.2575 -1.766,-0.2337 -2.4823,0.3838c-0.1463,0.1273 -0.628,-0.0741 -0.4731,-0.209zM316.6879,99.06c0.6156,-1.3975 1.8497,-2.3199 3.4172,-2.0777c0.2574,0.039 0.4161,0.3677 0.0617,0.3126c-1.3851,-0.2166 -2.4339,0.6954 -2.9659,1.9028c-0.0845,0.1957 -0.5909,0.0399 -0.513,-0.1377zM324.83889,109.6411c-0.1377,1.1504 -0.5092,2.3588 -1.576,2.9659c-0.1596,0.0912 -0.6289,-0.1368 -0.4038,-0.2632c1.0108,-0.5728 1.3386,-1.7565 1.4659,-2.8405c0.0228,-0.1928 0.5377,-0.0741 0.5139,0.1378zM327.21389,104.0009c1.7898,1.1163 2.9346,2.7436 2.7892,4.9134c-0.0123,0.1872 -0.5272,0.0751 -0.513,-0.1387c0.1368,-2.0254 -0.9272,-3.552 -2.6001,-4.597c-0.2955,-0.1843 0.1444,-0.2898 0.3239,-0.1777z" fill="#000000" stroke="none" stroke-width="0.95"/><path d="M312.4196,195.0603c3.0219,-1.0393 6.0372,-2.0966 8.3809,-4.3681c2.0282,-1.9655 4.1477,-4.7671 4.0622,-7.7292c-0.0019,-0.0836 0.3809,-0.0256 0.3847,0.1036c0.0846,3.0039 -2.0786,5.7399 -4.0878,7.7653c-2.2952,2.3123 -5.4226,3.3592 -8.4284,4.3909c-0.0988,0.0351 -0.4465,-0.1178 -0.3116,-0.1625zM328.2998,184.9267c0.0997,3.2015 -2.4149,6.4771 -4.5505,8.6488c-2.6999,2.7426 -6.5512,4.0147 -10.3009,4.3529c-0.0978,0.0076 -0.4474,-0.1606 -0.2441,-0.1786c3.7734,-0.342 7.4299,-1.6359 10.184,-4.313c2.1584,-2.0986 4.6255,-5.4549 4.5277,-8.6127c-0.0029,-0.0855 0.3809,-0.0276 0.3838,0.1026zM325.293,182.9545c0.989,0.7115 2.2287,1.0725 3.0809,1.9703c0.0978,0.0988 -0.2812,0.0598 -0.3525,-0.0152c-0.8312,-0.874 -2.0605,-1.2293 -3.0276,-1.9219c-0.1663,-0.1187 0.2194,-0.0912 0.2992,-0.0332zM312.8091,195.2152c0.4037,0.7771 0.8274,1.6881 0.7543,2.5887c-0.0076,0.095 -0.3952,0.0209 -0.3848,-0.1026c0.0722,-0.8797 -0.3562,-1.7841 -0.7505,-2.546c-0.0418,-0.0798 0.3259,-0.0465 0.381,0.0599z" fill="#000000" stroke="none" stroke-width="0.95"/><path d="M297.84749,224.3251c2.5926,-7.3188 5.1956,-14.8704 6.0715,-22.6195c0.5139,-4.5686 0.0722,-9.1827 0.6688,-13.7503c0.2935,-2.2278 0.8521,-4.4698 1.5874,-6.5892c0.6441,-1.8525 1.9323,-3.4314 2.5118,-5.2801c0.0333,-0.1036 0.5406,0.0427 0.514,0.1387c-0.5301,1.6843 -1.6825,3.1863 -2.3475,4.8374c-0.8322,2.0672 -1.3119,4.3339 -1.6777,6.5236c-0.7818,4.7111 -0.2565,9.52 -0.7438,14.2548c-0.7933,7.7377 -3.4856,15.333 -6.0715,22.6214c-0.038,0.1083 -0.5443,-0.0485 -0.513,-0.1368zM333.6103,178.4144c1.8582,2.8519 3.3677,5.7722 4.3652,9.0288c1.064,3.4799 1.8592,7.0367 2.5242,10.6125c1.4478,7.7672 2.8253,15.7614 3.0884,23.6635c0.0038,0.0599 -0.5063,0 -0.5111,-0.1387c-0.2603,-7.7586 -1.6349,-15.5619 -3.0029,-23.1933c-0.6688,-3.7249 -1.5181,-7.4166 -2.603,-11.0418c-0.9757,-3.2595 -2.5118,-6.1826 -4.3634,-9.0279c-0.0266,-0.0389 0.4237,-0.0247 0.5026,0.0969zM333.6169,178.4353c1.5485,8.0114 -0.0304,15.9648 -2.8595,23.4992c-1.4031,3.7411 -3.1084,7.3616 -4.8488,10.9545c-0.8512,1.7603 -1.7204,3.5064 -2.5669,5.2658c-0.8284,1.7214 -1.4677,3.5103 -2.4899,5.131c-0.0741,0.1187 -0.5444,-0.0855 -0.513,-0.1387c1.0184,-1.6131 1.69,-3.4039 2.4899,-5.1281c0.8199,-1.7708 1.7148,-3.5103 2.5669,-5.2659c1.7452,-3.5938 3.4238,-7.2228 4.8488,-10.9544c2.8681,-7.5041 4.4042,-15.5221 2.8605,-23.5021c-0.0095,-0.0342 0.4816,-0.0104 0.512,0.1387zM301.8128,228.2087c-1.9712,0.1111 -4.4032,-1.8582 -3.8769,-3.972c0.0247,-0.0988 0.5377,0.0352 0.513,0.1378c-0.4161,1.6805 1.3053,3.7401 3.0286,3.6404c0.0978,-0.0057 0.5814,0.1795 0.3353,0.1938zM298.3814,230.2759c-0.9927,-1.3234 -2.5317,-2.8063 -2.1812,-4.6123c0.1986,-1.0241 1.3633,-1.8249 2.1565,-0.9528c0.0162,0.0171 -0.4037,0.0152 -0.5035,-0.0988c-0.4104,-0.4503 -1.0535,0.9462 -1.1371,1.1865c-0.2166,0.6289 0.038,1.3319 0.2964,1.9038c0.4455,0.989 1.234,1.8126 1.8781,2.6714c0.019,0.0295 -0.4189,0.02 -0.5092,-0.0978zM324.9349,227.2672c-0.8446,-1.1086 -0.5273,-2.2667 -0.9776,-3.5397c-0.551,-1.5551 -1.2739,-3.0609 -1.5019,-4.712c-0.0076,-0.0427 0.493,-0.0076 0.513,0.1378c0.2223,1.6093 0.8806,3.1806 1.4924,4.6702c0.4997,1.2179 0.1482,2.4491 0.9804,3.5425c0.0219,0.0247 -0.4161,0.0181 -0.5063,-0.0988zM279.54859,248.2746c0.495,-1.9703 1.6711,-3.8257 2.7199,-5.548c1.1875,-1.9428 2.7046,-3.6756 4.2655,-5.3238c3.21,-3.3896 6.9198,-6.2957 9.9161,-9.8924c0.0959,-0.1149 0.5339,0.1064 0.512,0.1387c-2.7084,3.2547 -5.9964,5.9565 -8.9822,8.9405c-1.8221,1.8192 -3.5274,3.7506 -4.9562,5.8976c-1.1761,1.7708 -2.4415,3.8503 -2.9621,5.927c-0.0247,0.0969 -0.5386,-0.0361 -0.513,-0.1396zM273.2853,257.2948c0.5852,-1.6359 1.1162,-3.2423 2.1726,-4.6436c0.9168,-1.2122 1.3167,-2.4738 1.3452,-3.9852c0.0038,-0.0057 0.0114,-0.0105 0.0152,-0.0162c1.0089,-0.3353 1.9998,-0.5082 3.0628,-0.4788c0.0979,0.0048 0.5776,0.2024 0.3363,0.1929c-0.5728,-0.0181 -1.1286,0.0256 -1.69,0.1178c-0.95,0.1548 -1.1885,0.6593 -1.2863,1.4839c-0.095,0.7951 -0.4313,1.519 -0.8389,2.1964c-0.5016,0.835 -1.1058,1.5551 -1.5323,2.4386c-0.438,0.9063 -0.7325,1.8829 -1.0707,2.8301c-0.0399,0.1092 -0.5434,-0.0485 -0.5139,-0.1359zM300.1389,264.1529c-2.7854,1.0098 -5.2696,2.1071 -8.3001,1.9798c-2.5147,-0.1017 -5.4948,-0.3211 -7.8166,-1.3984c-2.5859,-1.1999 -3.6366,-4.3054 -6.2795,-5.2896c-0.8807,-0.3268 -4.3472,-0.9994 -4.3919,-2.281c-0.0019,-0.0608 0.5083,-0.0009 0.514,0.1378c0.0408,1.2084 3.7069,1.8876 4.6768,2.299c1.8259,0.7742 2.8662,2.8994 4.2902,4.1705c2.1955,1.9589 6.2149,2.0729 9.0146,2.1888c2.8224,0.1159 5.2288,-1.0365 7.808,-1.9713c0.1397,-0.0541 0.5102,0.1539 0.4845,0.1644zM302.2061,253.6943c0.5805,0.7638 1.1391,1.5447 1.6967,2.3275c0.3933,0.5548 0.7724,0.8113 0.4959,1.4763c-0.9984,2.395 -2.8861,4.3339 -4.0489,6.6377c-0.0589,0.1159 -0.5472,-0.0703 -0.5139,-0.1387c1.0925,-2.1651 2.6486,-4.0841 3.8209,-6.2149c0.494,-0.893 0.2764,-1.0944 -0.2622,-1.8582c-0.5567,-0.78 -1.1134,-1.5628 -1.6958,-2.3256c-0.018,-0.0295 0.418,-0.0219 0.5073,0.0959zM305.5292,247.8072c0.0095,0.9319 0.0637,1.8553 0.1606,2.7844c0.0959,0.9054 0.4512,1.9285 0.323,2.8339c-0.1549,1.0887 -1.9903,1.3252 -2.4083,2.3503c-0.0465,0.1083 -0.5434,-0.0589 -0.5139,-0.1387c0.4446,-1.0811 1.7271,-1.2027 2.3284,-2.1366c0.399,-0.6222 -0.0959,-1.9275 -0.1843,-2.5925c-0.1425,-1.0773 -0.2061,-2.1556 -0.2175,-3.2357c-0.0019,-0.0665 0.5111,-0.001 0.512,0.1349zM321.2289,222.673c-0.0085,2.3589 0.2366,4.979 -1.2074,6.9521c-0.6166,0.8484 -1.407,1.5884 -2.1252,2.3513c-1.0592,1.1314 -2.0244,2.3522 -3.0324,3.5264c-1.7774,2.0757 -3.2062,4.4232 -4.8887,6.5797c-0.7039,0.9034 -1.4326,1.8724 -2.2182,2.7018c-0.8512,0.8996 -1.8449,1.8069 -2.2297,3.0248c-0.0323,0.1035 -0.5415,-0.0447 -0.512,-0.1378c0.2593,-0.8284 0.8521,-1.6036 1.4364,-2.2372c0.9281,-1.0089 1.8525,-2.034 2.7122,-3.1065c1.71,-2.1356 3.1312,-4.4888 4.8726,-6.5911c1.6815,-2.0321 3.4722,-3.9444 5.2174,-5.9195c1.7413,-1.9712 1.4506,-4.8032 1.4611,-7.2779c0.0019,-0.0703 0.5149,-0.001 0.5139,0.1339zM309.5772,235.6386c2.6524,-1.7499 5.3722,-3.4171 8.4284,-4.3567c0.1102,-0.0332 0.5586,0.1435 0.4246,0.1853c-3.0333,0.9329 -5.7361,2.602 -8.3676,4.3377c-0.114,0.0788 -0.5386,-0.1311 -0.4854,-0.1663zM312.1241,230.1324c-0.7818,-1.2521 -1.14,-2.6381 -0.873,-4.104c0.1216,-0.6678 0.4892,-1.4174 1.2768,-1.2264c2.8661,0.6954 0.7723,5.6772 3.0286,7.0053c0.2128,0.1244 -0.3021,0.0503 -0.3867,0c-1.5751,-0.9282 -1.3623,-3.9017 -1.7195,-5.4255c-0.0931,-0.3971 -0.2745,-0.7638 -0.4845,-1.1096c-0.7144,-1.1761 -1.2473,1.1286 -1.272,1.2692c-0.2328,1.274 0.2688,2.6249 0.931,3.6879c0.0304,0.0409 -0.4256,0.0247 -0.5007,-0.0969zM348.4151,240.4931c-1.9998,-2.9345 -3.9587,-6.1056 -4.5999,-9.652c-0.323,-1.7898 -0.4133,-3.6138 0.0589,-5.3798c0.5225,-1.9599 0.4493,-3.6946 -0.7828,-5.377c0.1681,0.0332 0.3353,0.0627 0.5044,0.0969c0.0133,0.075 0.0456,0.1406 0.0988,0.1976c0.0257,0.0351 -0.4199,0.0228 -0.5044,-0.0969c-0.0532,-0.0589 -0.0855,-0.1226 -0.0988,-0.1976c-0.0323,-0.1017 0.4446,0.0152 0.5044,0.0969c1.0251,1.4012 1.3481,2.9108 1.0089,4.6141c-0.3686,1.8563 -0.6526,3.4115 -0.4161,5.3238c0.4769,3.8646 2.584,7.3198 4.7329,10.4719c0.0238,0.0361 -0.4246,0.0247 -0.5063,-0.0979zM325.4441,227.3841c-0.0323,1.3461 0.1434,2.7113 0.3477,4.0375c0.284,1.842 1.1286,3.5454 1.5722,5.3599c0.5159,2.1175 1.0203,4.2484 1.4564,6.383c0.2375,1.1666 0.493,2.3323 0.5738,3.5217c0.0874,1.2882 -0.02,2.5393 0.2479,3.8171c0.0209,0.0978 -0.4797,0.0199 -0.5044,-0.0969c-0.437,-2.0938 -0.2223,-4.2532 -0.6242,-6.3679c-0.4978,-2.621 -1.1343,-5.2269 -1.7651,-7.8175c-0.3847,-1.578 -1.1191,-3.0353 -1.4155,-4.6294c-0.2612,-1.4117 -0.4351,-2.906 -0.3999,-4.3415c0,-0.0731 0.5149,0.001 0.5111,0.134zM355.5648,251.5369c-0.5529,-1.3186 -0.9282,-2.242 -2.0378,-3.2281c-0.8977,-0.7952 -1.9209,-1.445 -2.849,-2.204c-0.6394,-0.5216 -1.5799,-1.3186 -1.7509,-2.1641c-0.2432,-1.216 0.172,-2.4786 -0.512,-3.591c-0.0257,-0.0428 0.4294,-0.0266 0.5044,0.0959c0.5558,0.9092 0.4066,1.881 0.4171,2.9061c0.0152,1.4867 1.3585,2.4728 2.4263,3.3079c0.9481,0.741 1.937,1.4079 2.8091,2.242c0.8142,0.779 1.0726,1.7252 1.4963,2.736c0.0285,0.0646 -0.4522,0.0256 -0.5035,-0.1007zM356.0721,251.458c-0.1606,1.5666 -0.5216,3.117 -0.4741,4.6949c0.0418,1.3965 0.1245,2.9954 -0.817,4.1373c-0.095,0.1159 -0.5358,-0.1064 -0.513,-0.1387c0.9415,-1.1438 0.8569,-2.7408 0.8161,-4.1363c-0.0456,-1.578 0.3135,-3.1274 0.475,-4.6959c0.0095,-0.0798 0.5272,0.0152 0.513,0.1387zM354.5065,260.2911c-3.022,-0.7011 -4.5249,0.5206 -6.1817,2.813c-0.5852,0.8094 -1.2103,1.577 -2.1432,1.9912c-0.8569,0.38 -2.1755,0.2023 -3.0761,0.1786c-2.7654,-0.0846 -5.5527,-0.02 -8.3001,-0.3867c-1.7813,-0.2384 -3.174,-1.4554 -4.6218,-2.4044c-0.2071,-0.1349 0.305,-0.0532 0.3886,0.0009c0.8483,0.5548 1.652,1.1742 2.5336,1.6787c1.596,0.9177 4.0347,0.7752 5.8197,0.8464c1.2816,0.0494 2.5612,0.0323 3.8447,0.0741c1.5219,0.0494 2.9307,0.1378 4.0992,-0.9623c1.2464,-1.1695 1.8639,-2.7959 3.3592,-3.7316c1.2863,-0.8028 2.9251,-0.5558 4.3149,-0.2328c0.3002,0.0675 0.2613,0.2033 -0.037,0.1349zM329.40459,250.2743c-0.6916,2.0311 0.8246,4.2912 1.2531,6.2767c0.4275,1.9807 0.2479,3.9577 -0.2708,5.9004c-0.0266,0.0998 -0.5396,-0.038 -0.513,-0.1387c0.6137,-2.299 0.6356,-4.4697 0.0656,-6.7858c-0.4399,-1.7898 -1.691,-3.5065 -1.0488,-5.3951c0.037,-0.1026 0.5434,0.0513 0.5139,0.1425zM351.2271,247.8252c-1.4108,0.7638 -2.4415,2.0872 -3.554,3.2148c-0.6498,0.6574 -1.3024,1.3025 -1.994,1.9162c-0.5377,0.4788 -1.3728,1.3271 -2.1119,1.4506c-0.6678,0.1121 -1.177,-0.3638 -1.405,-0.9357c-0.4541,-1.1372 0.7258,-2.6619 1.3195,-3.5321c0.0798,-0.1178 0.5434,0.0959 0.513,0.1387c-0.5557,0.8122 -1.0744,1.6302 -1.3271,2.5925c-0.1131,0.4342 -0.0751,1.7547 0.7809,1.4355c0.6146,-0.2261 1.2521,-0.8978 1.748,-1.3177c1.8867,-1.5874 3.3601,-3.9472 5.547,-5.1281c0.1245,-0.0722 0.5301,0.1406 0.4836,0.1653z" fill="#000000" stroke="none" stroke-width="0.95"/><path d="M341.4924,104.1026c-0.4018,0.6536 -0.2641,2.2315 0.7638,2.1546c0.1216,-0.0095 0.2651,0.1691 0.0903,0.1805c-1.2379,0.0931 -1.634,-1.5552 -1.0887,-2.4463c0.057,-0.0959 0.3021,-0.0009 0.2346,0.1112zM342.5754,103.6931c0.7135,0.8284 0.8645,2.0976 -0.1767,2.7256c-0.0931,0.0589 -0.3201,-0.0684 -0.1985,-0.1425c0.9614,-0.5814 0.816,-1.748 0.1615,-2.5128c-0.1055,-0.1216 0.1415,-0.1548 0.2137,-0.0703z" fill="#000000" stroke="none" stroke-width="0.95"/><path d="M338.6956,105.2844c0.039,0.1121 0.1568,0.1577 0.2527,0.2137c-0.0988,0.02 -0.1976,0.039 -0.2964,0.0589c-0.0399,-0.075 -0.0807,-0.1187 -0.1643,-0.1387c0.0722,-0.0142 0.1444,-0.0275 0.2175,-0.0418c-0.0009,0.0371 -0.0076,0.0741 -0.0085,0.1121c-0.0019,0.0608 -0.1311,0.057 -0.1653,0.0532c-0.0789,-0.0095 -0.1539,-0.0408 -0.2052,-0.0997c-0.0304,-0.0352 -0.0703,-0.0627 -0.1007,-0.0988c-0.0627,-0.0713 0.0513,-0.1083 0.1035,-0.1093c0.0931,-0.0019 0.1919,0.0323 0.2537,0.1036c0.0304,0.0351 0.0703,0.0627 0.1016,0.0988c-0.1254,-0.0171 -0.2498,-0.0314 -0.3733,-0.0494c0.0009,-0.038 0.0085,-0.0751 0.0095,-0.1131c0.0009,-0.0807 0.1786,-0.0513 0.2175,-0.0418c0.19,0.0456 0.3753,0.1425 0.4712,0.3202c0.0865,0.1624 -0.2375,0.0959 -0.2973,0.0589c-0.1615,-0.0988 -0.3335,-0.1853 -0.3981,-0.3762c-0.0446,-0.1292 0.3392,-0.0798 0.3819,0.0494zM338.309,105.4183c-0.5491,-0.4883 0.5263,-0.7704 0.874,-0.8892c1.2891,-0.4351 2.8015,-0.4959 3.8228,-1.4839c0.0959,-0.0921 0.456,0.0513 0.3572,0.1501c-0.5738,0.5548 -1.2198,0.7705 -1.9703,0.9956c-0.628,0.1881 -1.2863,0.2974 -1.9029,0.5225c-0.1016,0.0371 -1.1875,0.3648 -0.873,0.646c0.1662,0.1473 -0.2176,0.1406 -0.3078,0.0589zM338.6263,105.2711c1.1286,0.5624 3.0219,1.5513 4.2237,0.779c0.1016,-0.0665 0.4579,0.0855 0.3068,0.1833c-1.3319,0.8541 -3.4532,-0.1976 -4.6825,-0.8113c-0.2385,-0.1159 -0.0181,-0.2346 0.152,-0.151zM338.5921,104.2156c0.2916,0.153 0.5814,0.285 0.9148,0.2822c0.0884,-0.001 0.2014,0.0294 0.2565,0.1026c0.0532,0.0741 -0.0446,0.1092 -0.1035,0.1092c-0.4741,0.0048 -0.8902,-0.1681 -1.3044,-0.3857c-0.0532,-0.0256 -0.1159,-0.1073 -0.0351,-0.1444c0.0874,-0.0408 0.1947,-0.0057 0.2717,0.0361zM339.201,104.0475c0.2727,0.133 0.7011,0.3268 1.0108,0.2622c0.1197,-0.0238 0.4551,0.1615 0.2366,0.2061c-0.4427,0.0922 -1.007,-0.1254 -1.3994,-0.3154c-0.2403,-0.1149 -0.0199,-0.2346 0.152,-0.1529zM339.0224,104.8901c-0.4275,0.0561 -0.8512,0.1349 -1.2806,0.1853c0.02,-0.0333 0.0399,-0.0684 0.0589,-0.1036c0.3762,0.4361 1.0184,0.7819 1.6055,0.7068c0.1188,-0.0171 0.4532,0.1777 0.2366,0.2052c-0.8075,0.1026 -1.6787,-0.2992 -2.1993,-0.9063c-0.0427,-0.0484 0.0114,-0.0988 0.0599,-0.1054c0.4294,-0.0532 0.8521,-0.1321 1.2815,-0.1862c0.1197,-0.0171 0.4551,0.1757 0.2375,0.2042zM337.5205,104.854c0.6127,-0.076 1.1799,-0.3277 1.7822,-0.436c0.1149,-0.02 0.4569,0.1596 0.2365,0.2061c-0.5329,0.114 -1.0516,0.3164 -1.5295,0.5795c-0.1016,-0.0608 -0.2061,-0.1225 -0.3068,-0.1833c0.2318,-0.0979 0.4645,-0.1881 0.7068,-0.2575c0.0788,0.0675 0.1577,0.1378 0.2365,0.2062c-0.2251,0.0323 -0.4484,0.0817 -0.6716,0.1149c-0.0808,0.0114 -0.4418,-0.1396 -0.2717,-0.1947c0.1729,-0.057 0.341,-0.1064 0.5215,-0.1387c0.077,-0.0133 0.4437,0.1168 0.2717,0.1947c-0.1862,0.0846 -0.3686,0.133 -0.5671,0.1777c-0.0494,-0.0694 -0.0979,-0.1397 -0.1454,-0.209c0.1074,0.0133 0.2147,0.0199 0.3221,0.0199c0.133,0.0038 0.4161,0.2043 0.1501,0.2147c-0.1283,0.0048 -0.2556,-0.0047 -0.3838,-0.0123c0,-0.0665 -0.001,-0.133 -0.0019,-0.1986c0.0855,0.0124 0.17,0.0238 0.2565,0.0361c0.0009,0.0656 0.0009,0.1321 0.0019,0.1976c-0.0798,-0.0199 -0.1596,-0.037 -0.2413,-0.057c0.0522,-0.0332 0.1007,-0.0693 0.151,-0.1045c0.0532,0.038 0.1017,0.0751 0.1539,0.1121c0.2556,0.1055 0.019,0.2109 -0.151,0.152c-0.1425,-0.0494 -0.2907,-0.0978 -0.4351,-0.1463c0.0522,-0.0532 0.1007,-0.1016 0.151,-0.1539c0.1169,0.0561 0.2328,0.1093 0.3449,0.1701c-0.0903,0.0275 -0.1815,0.0589 -0.2727,0.0845c-0.0731,-0.0579 -0.1425,-0.1235 -0.2071,-0.1919c-0.1586,-0.1539 0.1919,-0.1377 0.2727,-0.0845c0.075,0.0532 0.1529,0.0988 0.2346,0.1387c-0.0931,0.0285 -0.1814,0.057 -0.2726,0.0855c-0.0333,-0.0257 -0.0637,-0.0513 -0.0969,-0.076c0.0788,-0.0371 0.1586,-0.0732 0.2375,-0.1102c0.1064,0.0741 0.2118,0.1368 0.3258,0.1947c-0.0788,0.0361 -0.1586,0.0732 -0.2375,0.1102c-0.0722,-0.0608 -0.1529,-0.1016 -0.2441,-0.1282c0.0769,-0.0352 0.1529,-0.0713 0.2289,-0.1064c0.1292,0.1206 0.2831,0.1852 0.4351,0.2688c0.2204,0.1207 -0.0826,0.1701 -0.1938,0.1321c-0.1862,-0.0627 -0.3629,-0.1302 -0.5339,-0.229c-0.2261,-0.1301 0.1159,-0.1776 0.2375,-0.1083c0.2556,0.1444 0.5273,0.2594 0.7847,0.4066c-0.0788,0.0371 -0.1586,0.0732 -0.2375,0.1102c-0.1881,-0.132 -0.3942,-0.2194 -0.6013,-0.3182c0.0646,-0.0466 0.1311,-0.0903 0.1938,-0.134c0.2498,0.1767 0.5291,0.2841 0.8113,0.3924c-0.0646,0.0446 -0.1321,0.0883 -0.1948,0.1349c-0.2261,-0.1235 -0.4655,-0.2157 -0.6925,-0.3363c0.0788,-0.0371 0.1586,-0.0741 0.2375,-0.1102c0.2517,0.1795 0.5291,0.2954 0.8113,0.4113c0.2508,0.1007 0.019,0.2185 -0.1511,0.1539c-0.3971,-0.152 -0.7856,-0.2707 -1.1096,-0.5595c-0.1748,-0.153 0.2214,-0.1216 0.3078,-0.0589c0.4836,0.3496 1.0412,0.6108 1.6236,0.7429c-0.0475,0.0494 -0.0969,0.0978 -0.1444,0.1472c-0.361,-0.1814 -0.7372,-0.3249 -1.0849,-0.5348c0.0912,-0.0285 0.1795,-0.0589 0.2726,-0.0855c0.1615,0.1634 0.3781,0.2023 0.5795,0.2916c0.2489,0.1102 0.0209,0.2233 -0.1491,0.1539c-0.1739,-0.0703 -0.3487,-0.1273 -0.5263,-0.1871c0.0522,-0.0513 0.1007,-0.1007 0.151,-0.1539c0.1188,0.0589 0.2356,0.1178 0.3553,0.1767c-0.0646,0.0446 -0.1292,0.0883 -0.1938,0.133c-0.0893,-0.0542 -0.1795,-0.0988 -0.2774,-0.1387c0.0646,-0.0447 0.1302,-0.0903 0.1948,-0.1349c0.0627,0.0342 0.1254,0.0674 0.189,0.1007c-0.0646,0.0437 -0.1301,0.0883 -0.1947,0.132c-0.0494,-0.0218 -0.0988,-0.0513 -0.1435,-0.0826c-0.2118,-0.1368 0.0808,-0.171 0.1938,-0.133c0.0789,0.0218 0.1549,0.0532 0.228,0.0902c0.209,0.0922 0.076,0.2195 -0.1007,0.171c-0.0978,-0.0247 -0.1957,-0.0551 -0.2935,-0.0817c-0.172,-0.0475 -0.2299,-0.2375 -0.0019,-0.1985c0.1339,0.0237 0.2337,0.0532 0.361,0.0988c0.2166,0.0769 0.0741,0.2223 -0.0988,0.171c-0.0599,-0.0152 -0.115,-0.0304 -0.1739,-0.0456c0.0181,-0.0599 0.0323,-0.1216 0.0485,-0.1815c0.0741,0.0247 0.1444,0.057 0.2137,0.0941c0.2404,0.1168 0.019,0.2365 -0.151,0.1529c-0.0827,-0.0399 -0.1653,-0.0807 -0.2489,-0.1206c-0.1995,-0.0988 -0.0789,-0.2299 0.0988,-0.172c0.0988,0.0323 0.1976,0.0646 0.2964,0.0988c0.2223,0.0732 0.1814,0.247 -0.0523,0.1862c-0.3952,-0.1007 -0.7514,-0.304 -1.0573,-0.5709c-0.1701,-0.1435 0.2147,-0.1387 0.3059,-0.0599c0.2356,0.2033 0.4997,0.3667 0.8037,0.4437c-0.019,0.0608 -0.0333,0.1254 -0.0523,0.1862c-0.0988,-0.0314 -0.1976,-0.0646 -0.2964,-0.0988c0.0333,-0.0589 0.0665,-0.114 0.0988,-0.171c0.0846,0.0399 0.1672,0.0807 0.2508,0.1206c-0.0522,0.0513 -0.1007,0.1007 -0.151,0.152c-0.0684,-0.0351 -0.1397,-0.0665 -0.2119,-0.0921c-0.1662,-0.0599 -0.1292,-0.2157 0.0485,-0.1786c0.0978,0.019 0.1795,0.038 0.2764,0.0646c-0.0332,0.0589 -0.0674,0.114 -0.1007,0.1729c-0.0522,-0.0162 -0.1026,-0.0276 -0.1567,-0.0418c0,-0.0656 -0.001,-0.134 -0.0019,-0.1976c0.0997,0.0247 0.1976,0.0541 0.2964,0.0817c-0.0333,0.057 -0.0665,0.1121 -0.1007,0.171c-0.0732,-0.0371 -0.1492,-0.0675 -0.228,-0.0903c0.0646,-0.0437 0.1311,-0.0902 0.1938,-0.1339c0.0446,0.0313 0.094,0.0608 0.1434,0.0836c0.2166,0.113 -0.0779,0.1795 -0.1938,0.1339c-0.1187,-0.0465 -0.17,-0.0731 -0.2755,-0.1444c-0.2014,-0.1339 0.0741,-0.1862 0.1938,-0.132c0.1264,0.057 0.2461,0.1111 0.3639,0.1814c0.2052,0.1292 -0.0751,0.19 -0.1938,0.134c-0.1188,-0.0589 -0.2366,-0.1178 -0.3553,-0.1767c-0.2489,-0.1178 -0.0181,-0.2109 0.151,-0.1539c0.1786,0.0598 0.3515,0.1168 0.5244,0.1881c-0.0503,0.0522 -0.0988,0.1016 -0.1491,0.1529c-0.2622,-0.1159 -0.532,-0.1757 -0.7382,-0.3847c-0.1586,-0.1596 0.1919,-0.1349 0.2727,-0.0846c0.3448,0.2109 0.7248,0.3544 1.0849,0.5368c0.1947,0.0978 -0.0323,0.1738 -0.1425,0.1482c-0.6793,-0.153 -1.3205,-0.4636 -1.881,-0.8731c0.1026,-0.0199 0.2052,-0.0399 0.3078,-0.0589c0.2755,0.2442 0.6156,0.3335 0.9528,0.4627c-0.0503,0.0522 -0.1007,0.1007 -0.151,0.1539c-0.3135,-0.1302 -0.6213,-0.2575 -0.8978,-0.4551c-0.2175,-0.1558 0.1207,-0.171 0.2375,-0.1092c0.2271,0.1206 0.4665,0.2156 0.6926,0.3363c0.2166,0.1149 -0.0789,0.1767 -0.1938,0.132c-0.3116,-0.1206 -0.6223,-0.2422 -0.8959,-0.437c-0.1947,-0.1387 0.0722,-0.1909 0.1948,-0.132c0.2356,0.1121 0.4702,0.2137 0.6878,0.3619c0.2175,0.1511 -0.1197,0.1767 -0.2375,0.1102c-0.2575,-0.1463 -0.5292,-0.2622 -0.7847,-0.4085c0.0788,-0.037 0.1586,-0.0731 0.2375,-0.1083c0.1434,0.0836 0.2935,0.1311 0.4493,0.1834c-0.0636,0.0446 -0.1292,0.0893 -0.1938,0.1349c-0.1776,-0.0998 -0.3562,-0.1796 -0.5054,-0.3192c-0.1548,-0.1463 0.1549,-0.1349 0.229,-0.1064c0.1206,0.0427 0.2242,0.0978 0.3315,0.171c0.2214,0.1529 -0.1225,0.17 -0.2375,0.1102c-0.114,-0.0589 -0.2194,-0.1207 -0.3258,-0.1948c-0.2157,-0.152 0.1187,-0.1843 0.2375,-0.1102c0.0674,0.0418 0.1083,0.0713 0.1662,0.1283c0.1644,0.1605 -0.1957,0.1282 -0.2726,0.0855c-0.0808,-0.0399 -0.1596,-0.0884 -0.2347,-0.1387c0.0912,-0.0276 0.1796,-0.0561 0.2727,-0.0846c0.0646,0.0675 0.1339,0.133 0.2071,0.1919c0.1719,0.1501 -0.1967,0.1264 -0.2727,0.0855c-0.0845,-0.0437 -0.171,-0.0855 -0.2584,-0.1263c-0.2489,-0.1169 -0.018,-0.2128 0.1511,-0.153c0.1453,0.0494 0.2926,0.0979 0.436,0.1473c-0.0503,0.0513 -0.0988,0.1007 -0.151,0.1539c-0.1501,-0.0646 -0.2584,-0.1311 -0.3601,-0.2603c-0.0712,-0.0931 0.0979,-0.1159 0.152,-0.1064c0.1254,0.0209 0.2214,0.0408 0.3439,0.075c0.1767,0.0513 0.228,0.2166 0.001,0.1986c-0.1406,-0.0105 -0.2214,-0.0247 -0.3582,-0.057c-0.1843,-0.0428 -0.2232,-0.2138 -0.0019,-0.1986c0.096,0.0076 0.1919,0.0105 0.2879,0.0067c0.0503,0.0722 0.0997,0.1434 0.1501,0.2147c-0.1406,-0.0029 -0.2784,-0.0105 -0.419,-0.0228c-0.0845,-0.0095 -0.3467,-0.1634 -0.1434,-0.2081c0.171,-0.037 0.3353,-0.0807 0.4949,-0.1529c0.0922,0.0627 0.1815,0.1301 0.2717,0.1947c-0.1567,0.0238 -0.2992,0.0627 -0.4512,0.1131c-0.0922,-0.0627 -0.1805,-0.1302 -0.2717,-0.1938c0.2232,-0.0323 0.4474,-0.0827 0.6716,-0.114c0.1055,-0.0171 0.4608,0.1387 0.2366,0.2061c-0.2204,0.0618 -0.4275,0.1454 -0.6365,0.2375c-0.1026,0.0447 -0.4693,-0.095 -0.3069,-0.1833c0.4988,-0.2755 1.0441,-0.4836 1.6027,-0.6023c0.0788,0.0684 0.1577,0.1387 0.2365,0.2061c-0.6061,0.1055 -1.1732,0.3582 -1.7869,0.4332c-0.1216,0.0067 -0.456,-0.1881 -0.2394,-0.2128zM338.2282,105.1694c0.4959,0.5007 1.0992,0.8161 1.8155,0.8094c0.0342,0.0713 0.0674,0.1416 0.1016,0.2138c-0.1178,-0.0219 -0.2375,-0.0352 -0.3572,-0.0371c-0.019,-0.0665 -0.0332,-0.1368 -0.0522,-0.2014c0.1387,0.0466 0.2774,0.058 0.418,0.0333c0.0171,0.0665 0.0342,0.1368 0.0503,0.2033c-0.1396,-0.0295 -0.2774,-0.0627 -0.4142,-0.1055c-0.2261,-0.0712 -0.1824,-0.2451 0.0504,-0.1881c0.1292,0.0314 0.2565,0.0608 0.3895,0.0874c0.1786,0.0361 0.2242,0.2309 0.0019,0.1976c-0.1501,-0.0209 -0.2983,-0.0408 -0.4503,-0.0484c-0.0323,-0.0713 -0.0665,-0.1397 -0.1007,-0.2119c0.1406,0.0114 0.285,0.0238 0.4284,0.0371c0.0181,0.0684 0.0361,0.1387 0.0542,0.209c-0.1577,-0.0238 -0.3107,-0.0409 -0.4703,-0.0456c-0.0503,-0.0722 -0.0978,-0.1435 -0.1501,-0.2166c0.1739,0.0104 0.343,0.0323 0.5159,0.0256c0.1425,-0.0047 0.4123,0.2052 0.1501,0.2147c-0.1748,0.0095 -0.3382,-0.0161 -0.5159,-0.0237c-0.1339,-0.0086 -0.4123,-0.2242 -0.1501,-0.2166c0.1919,0.0076 0.3781,0.0237 0.5691,0.0532c0.1805,0.0256 0.3239,0.2299 0.0541,0.209c-0.1425,-0.0114 -0.285,-0.0266 -0.4284,-0.038c-0.134,-0.0105 -0.3363,-0.2233 -0.1007,-0.2109c0.1814,0.0085 0.3638,0.0256 0.5434,0.0541c0,0.0665 0.0009,0.133 0.0009,0.1986c-0.1301,-0.0276 -0.2574,-0.0551 -0.3876,-0.0874c0.0171,-0.0618 0.0314,-0.1254 0.0504,-0.1872c0.1377,0.0428 0.2745,0.076 0.4142,0.1055c0.1358,0.0275 0.2546,0.1824 0.0522,0.2014c-0.2194,0.018 -0.4113,0.0038 -0.6194,-0.0618c-0.1092,-0.0332 -0.2698,-0.2118 -0.0503,-0.2014c0.1539,0.0095 0.3011,0.0209 0.4541,0.0428c0.1216,0.0209 0.3496,0.2118 0.1026,0.2137c-0.8721,0.0057 -1.6635,-0.3486 -2.2762,-0.968c-0.1596,-0.1587 0.2185,-0.1482 0.3068,-0.0599zM337.8083,104.9234c0.4237,0.2964 0.723,0.683 1.236,0.8493c0.5206,0.17 1.0792,0.2156 1.6083,0.3619c0.2299,0.0627 0.1796,0.2499 -0.0503,0.1872c-0.609,-0.1682 -1.2749,-0.2033 -1.863,-0.4446c-0.4693,-0.1929 -0.76,-0.5596 -1.1675,-0.8465c-0.2138,-0.1472 0.1178,-0.1919 0.2365,-0.1073z" fill="#000000" stroke="none" stroke-width="0.95"/><path d="M344.4574,164.1559c4.0812,2.2629 7.6009,5.1993 11.9804,6.9264c0.3382,0.133 0.0228,0.2375 -0.1881,0.1549c-4.4251,-1.7461 -7.9724,-4.6921 -12.0963,-6.9787c-0.3002,-0.1663 0.1653,-0.1786 0.304,-0.1026zM335.9425,169.0493c2.7873,0.5919 5.5385,1.8212 8.1814,2.869c2.8909,1.1495 5.7494,2.3807 8.6403,3.5321c0.3382,0.1349 0.0228,0.2385 -0.1853,0.1549c-2.6495,-1.0536 -5.2772,-2.1689 -7.9173,-3.2405c-2.7702,-1.1248 -5.7009,-2.4681 -8.6336,-3.0894c-0.2156,-0.0437 -0.4417,-0.3002 -0.0855,-0.2261zM365.4885,171.868c-3.0286,-0.0675 -6.0306,-0.5045 -9.0526,-0.6631c-0.1558,-0.0086 -0.5548,-0.2575 -0.2128,-0.2413c3.022,0.1586 6.024,0.5956 9.0497,0.664c0.1596,0.0038 0.5586,0.2489 0.2157,0.2404zM364.776,183.3753c-1.3367,-0.5415 -2.6553,-1.1219 -4.0328,-1.5561c-1.3148,-0.4132 -1.8126,-0.2565 -2.8139,-1.1096c-0.9927,-0.8436 -1.881,-1.8126 -2.8167,-2.7151c-1.0498,-1.0136 -1.9304,-2.2258 -3.3345,-2.7901c-0.3363,-0.1349 -0.02,-0.2385 0.1881,-0.1549c2.0187,0.8132 3.4979,2.8301 4.997,4.3254c0.5624,0.5605 1.1343,1.0963 1.7375,1.6093c0.4731,0.4028 1.5039,0.4712 2.0938,0.6365c1.4317,0.3999 2.7949,1.0421 4.1696,1.5998c0.3353,0.1358 0.0218,0.2394 -0.1881,0.1548zM365.7592,171.7578c1.6787,2.1916 2.9878,4.6322 4.4983,6.9369c0.1111,0.17 -0.3952,0.0969 -0.4703,-0.019c-1.5114,-2.3047 -2.8205,-4.7453 -4.4982,-6.9369c-0.1178,-0.1558 0.3847,-0.0912 0.4702,0.019zM364.9185,174.9878c1.3414,1.653 2.5963,3.382 3.8712,5.0863c0.1178,0.1577 -0.3866,0.0912 -0.4702,-0.019c-1.2749,-1.7053 -2.5289,-3.4333 -3.8713,-5.0873c-0.1206,-0.1491 0.3848,-0.0874 0.4703,0.02zM367.189,181.3547c-1.3205,-1.1362 -2.6667,-2.5441 -3.5834,-4.0271c-0.057,-0.094 0.4246,-0.0589 0.5092,0.0798c0.8844,1.4317 2.2021,2.8092 3.4751,3.9036c0.2099,0.1824 -0.3021,0.1311 -0.4009,0.0437zM368.6833,180.2489c-0.1064,0.4921 -0.5671,0.8968 -1.0288,1.0497c-0.1102,0.038 -0.2594,-0.0057 -0.3601,-0.0589c-0.0532,-0.0275 -0.17,-0.1244 -0.056,-0.1605c0.4246,-0.1406 0.835,-0.5235 0.9338,-0.97c0.0285,-0.1368 0.5434,-0.0085 0.5111,0.1397zM370.2793,178.7536c-0.3904,0.6935 -1.0108,1.2673 -1.6264,1.7613c-0.1216,0.0997 -0.5861,-0.0988 -0.4807,-0.1834c0.5976,-0.4835 1.2132,-1.0412 1.5941,-1.7166c0.0836,-0.1463 0.571,0.0361 0.513,0.1387zM367.6279,181.4259c-0.5719,0.5966 -1.0469,1.1923 -1.9095,0.9149c-0.418,-0.1321 -0.78,-0.4418 -1.122,-0.6992c-0.8502,-0.647 -1.7651,-1.2588 -2.6856,-1.8069c-0.2955,-0.1748 0.1691,-0.1834 0.3049,-0.1017c0.7505,0.4484 1.463,0.9472 2.1765,1.4497c0.3809,0.2689 0.7581,0.5396 1.1381,0.8104c0.6726,0.4759 1.2445,-0.3639 1.6159,-0.7486c0.1055,-0.1121 0.5852,0.0712 0.4817,0.1814zM364.8149,183.2062c0.2584,-0.3534 0.5643,-0.6906 0.8902,-0.9832c0.114,-0.1017 0.5861,0.0912 0.4807,0.1843c-0.3259,0.2935 -0.6318,0.6298 -0.8902,0.9832c-0.0836,0.114 -0.5785,-0.0522 -0.4807,-0.1843zM365.859,171.887c0.9196,0.9433 1.9475,1.5485 3.1625,2.0358c0.6603,0.2622 1.7946,0.5035 2.1917,1.1809c0.7106,1.2074 -2.1252,1.1552 -2.6714,1.0374c-0.3088,-0.0656 -0.2489,-0.2632 0.0532,-0.1986c0.6574,0.1406 1.4924,0.0912 2.0425,-0.3363c0.8113,-0.6317 -1.2426,-1.311 -1.5666,-1.4354c-1.405,-0.5387 -2.6239,-1.217 -3.6812,-2.3009c-0.1292,-0.133 0.3733,-0.0817 0.4693,0.0171z" fill="#000000" stroke="none" stroke-width="0.95"/><path d="M296.1461,168.7273c2.4624,-4.2969 4.6578,-8.9234 5.9023,-13.7313c0.02,-0.0836 0.4057,0.019 0.3829,0.1016c-1.2455,4.8099 -3.4371,9.4354 -5.9024,13.7323c-0.0532,0.094 -0.4123,-0.0504 -0.3828,-0.1026zM299.3058,173.3196c1.1637,-2.6828 3.135,-4.8944 4.7747,-7.2894c1.3955,-2.0292 2.7426,-4.0935 4.0707,-6.1645c0.0599,-0.096 0.4152,0.0579 0.3848,0.1007c-1.3291,2.0748 -2.6809,4.1344 -4.0708,6.1664c-1.6368,2.3997 -3.6119,4.6037 -4.7775,7.2894c-0.038,0.0921 -0.4095,-0.0371 -0.3819,-0.1026zM294.53389,181.7755c1.3804,-2.9393 3.2158,-5.6135 4.7728,-8.455c0.0494,-0.0931 0.4133,0.0504 0.381,0.1026c-1.5561,2.8424 -3.3896,5.5167 -4.77,8.455c-0.0418,0.0922 -0.4113,-0.0418 -0.3838,-0.1026zM287.87059,179.7596c2.1964,-2.2923 2.8253,-5.566 4.1582,-8.341c0.4835,-1.0041 1.121,-1.8401 2.1337,-2.336c1.1096,-0.5415 2.3883,-0.1463 3.4903,-0.6365c0.1026,-0.0456 0.3999,0.113 0.3629,0.132c-1.1011,0.4883 -2.3484,0.2024 -3.4903,0.6356c-1.3395,0.5092 -1.9789,1.9959 -2.528,3.1996c-1.1618,2.5441 -1.7622,5.3912 -3.7629,7.4765c-0.0675,0.0703 -0.4209,-0.0713 -0.3639,-0.1302zM293.7967,175.5958c-1.0602,0.5605 -4.4137,7.2941 -5.9375,4.313c-0.0256,-0.0513 0.3306,-0.0276 0.3772,0.0693c0.7676,1.4944 2.6894,-1.3879 3.135,-1.9883c0.5671,-0.761 1.1856,-2.0644 2.0596,-2.5242c0.1007,-0.0503 0.4075,0.1083 0.3657,0.1302zM290.93719,180.8122c0.4351,-0.4674 0.4513,-1.3005 0.6023,-1.8914c0.2575,-1.0108 0.932,-1.882 1.2721,-2.8662c0.0275,-0.0893 0.4104,0.0266 0.3819,0.1017c-0.3401,0.9927 -0.9538,1.8639 -1.2721,2.8671c-0.1957,0.6184 -0.1558,1.4164 -0.6184,1.918c-0.0665,0.0703 -0.4209,-0.0693 -0.3658,-0.1292zM286.8351,185.7627c0.1596,-2.4548 2.186,-3.7611 4.1591,-4.8308c0.0979,-0.0541 0.4057,0.1045 0.3629,0.1292c-1.9598,1.0631 -3.9786,2.3646 -4.1372,4.8051c-0.0057,0.0656 -0.3924,-0.0009 -0.3848,-0.1035zM295.06399,181.9057c-2.9212,0.9937 -5.452,2.8405 -7.9363,4.6274c-0.0589,0.0428 -0.3942,-0.0228 -0.3752,-0.1159c0.0484,-0.2175 0.095,-0.4341 0.1387,-0.6517c0.018,-0.0798 0.4037,0.0143 0.3838,0.1007c-0.0466,0.2185 -0.095,0.4351 -0.1387,0.6536c-0.1245,-0.0389 -0.2489,-0.0769 -0.3753,-0.1159c2.4985,-1.7974 5.0417,-3.6432 7.98,-4.6436c0.0912,-0.0304 0.4313,0.1074 0.323,0.1454z" fill="#010101" stroke="none" stroke-width="0.95"/><path d="M333.5951,136.7816c0.531,-0.4047 1.1058,-0.74 1.6245,-1.1628c0.6669,-0.5434 0.4569,-1.9256 0.4598,-2.6676c0.0085,-1.9931 -0.6802,-4.2987 -1.6692,-6.0163c-0.9794,-1.6996 -2.7227,-2.5831 -4.483,-3.2538c-2.3161,-0.8844 -4.3168,-0.9652 -6.2881,0.7505c-0.1045,0.095 -0.4645,-0.057 -0.3562,-0.151c1.4079,-1.2246 3.0675,-1.8183 4.9219,-1.369c1.8041,0.438 3.6347,1.1628 5.0939,2.3237c1.8858,1.4972 2.6154,4.0603 3.0372,6.3261c0.1187,0.6365 0.1273,1.2834 0.1244,1.9266c-0.0019,0.4313 0.1796,1.177 0.0181,1.5494c-0.4,0.9149 -1.369,1.3186 -2.1271,1.8953c-0.1111,0.0874 -0.4674,-0.0665 -0.3562,-0.1511zM311.08009,165.2085c1.2901,-1.2626 1.215,-3.1711 1.102,-4.8441c-0.1302,-1.9389 -0.286,-3.8731 -0.3591,-5.8159c-0.1558,-4.1325 -0.3192,-8.5452 0.4693,-12.6217c0.7495,-3.8779 2.6448,-7.5534 4.2037,-11.1577c1.3452,-3.1094 3.1255,-5.7694 5.8672,-7.8176c0.1131,-0.0836 0.4674,0.0703 0.3563,0.153c-2.8472,2.127 -4.5904,4.8811 -5.985,8.1054c-1.5865,3.667 -3.3839,7.3473 -4.1487,11.2955c-0.4208,2.1859 -0.4094,4.4802 -0.4189,6.6965c-0.0143,2.3028 -0.0038,4.6085 0.1083,6.9084c0.0902,1.7936 0.2926,3.5815 0.3467,5.378c0.0428,1.3974 -0.1463,2.8566 -1.1846,3.8712c-0.0998,0.1007 -0.4636,-0.0456 -0.3572,-0.151zM309.5534,171.6048c-0.1558,-1.1039 -1.4449,-2.2353 -1.2815,-3.3582c0.247,-1.6654 2.1973,-2.0036 3.096,-3.1806c0.0836,-0.1093 0.4551,0.0247 0.3563,0.1529c-0.8702,1.1372 -2.528,1.4222 -3.0296,2.8757c-0.3657,1.064 1.0887,2.4643 1.2426,3.5539c0.0228,0.1606 -0.3648,0.0922 -0.3838,-0.0437zM309.5962,176.6826c-0.8702,-0.4427 -1.5618,-1.0108 -1.3595,-2.0682c0.2223,-1.1466 1.2417,-1.9807 1.3167,-3.1834c0.0067,-0.134 0.3943,-0.0523 0.3829,0.1007c-0.115,1.8411 -2.7674,3.6689 -0.1853,4.9818c0.2375,0.1235 0.019,0.2593 -0.1548,0.1691zM334.7123,127.5562c1.9693,3.0162 3.476,6.3783 4.5714,9.804c0.9234,2.887 1.9522,6.8704 0.2109,9.6577c-0.0703,0.114 -0.4437,-0.0124 -0.3563,-0.152c1.7262,-2.7655 0.6432,-6.6823 -0.2403,-9.5513c-1.0498,-3.4077 -2.5935,-6.7574 -4.5448,-9.7442c-0.0998,-0.1548 0.2869,-0.1225 0.3591,-0.0142zM335.5217,135.7746c0.8949,2.3285 1.3623,4.6351 1.2008,7.1212c-0.0732,1.1258 0.7742,1.3642 1.538,2.109c0.7999,0.7809 1.2759,1.7794 1.4773,2.8681c0.1976,1.0611 0.2479,1.6957 0.9072,2.6115c0.8807,1.2198 1.8231,2.4026 2.1945,3.8912c0.5206,2.0995 -1.2407,5.2364 -3.6689,4.5135c-0.2289,-0.0675 -0.1776,-0.2708 0.0542,-0.2024c2.2619,0.6736 3.4029,-2.3389 3.2841,-4.0175c-0.1007,-1.4393 -1.1675,-2.7313 -1.9836,-3.8475c-0.4797,-0.6536 -0.9091,-1.1657 -1.0355,-1.9703c-0.1529,-0.969 -0.2432,-1.824 -0.722,-2.7104c-0.7638,-1.4098 -2.5279,-1.6691 -2.4291,-3.3459c0.1482,-2.4757 -0.3088,-4.7481 -1.2008,-7.0651c-0.0523,-0.134 0.3315,-0.0865 0.3838,0.0446zM342.5498,156.8418c-0.2793,1.3509 1.1856,2.9897 1.7793,4.1297c0.6213,1.196 0.3952,2.507 -0.1776,3.6651c-1.083,2.1878 -3.7088,3.5112 -5.9014,4.2712c-2.2183,0.7685 -3.9387,0.7657 -6.08,-0.2803c-1.7803,-0.8683 -3.7725,-2.5935 -3.3887,-4.7813c0.0247,-0.1378 0.4123,-0.0437 0.3848,0.1035c-0.4275,2.4273 2.0852,4.1107 4.0299,4.9001c2.3113,0.9358 4.5324,0.0903 6.6595,-0.9357c2.0396,-0.9852 3.9634,-2.5536 4.4194,-4.8726c0.2888,-1.4706 -0.6565,-2.6723 -1.3348,-3.875c-0.4056,-0.7192 -0.95,-1.5723 -0.7714,-2.4273c0.0247,-0.1396 0.4114,-0.0437 0.381,0.1026zM336.3235,165.2664c-2.4149,0.7695 -9.823,0.1121 -8.2555,-3.9102c0.1102,-0.2812 -0.1881,-0.7486 -0.0855,-0.9623c0.1824,-0.3753 0.3942,-0.6413 0.2536,-1.0422c-0.2479,-0.6935 -0.5861,-1.3537 -0.855,-2.0377c-0.4674,-1.1904 -1.1818,-3.154 0.1131,-4.0698c0.1064,-0.0751 0.4617,0.0807 0.3049,0.1909c-1.1599,0.8189 -0.5101,2.5926 -0.1301,3.668c0.2517,0.702 1.0906,1.8515 1.0345,2.6106c-0.0123,0.1748 -0.3572,0.6574 -0.3125,0.836c0.0427,0.1767 0.1387,0.4256 0.1102,0.608c-0.0846,0.5367 -0.3572,0.9262 -0.3316,1.4981c0.0314,0.6935 0.8503,1.331 1.3699,1.6673c1.8041,1.1694 4.5363,1.367 6.5512,0.7267c0.1264,-0.0399 0.4503,0.1473 0.2328,0.2166zM327.4647,153.3496c-0.2603,-0.3762 -0.3866,-0.7771 -0.5225,-1.2103c-0.3116,-0.9908 -0.7866,-1.9389 -1.2416,-2.869c-0.779,-1.5931 -1.7119,-3.1625 -2.6534,-4.6626c-1.6834,-2.6723 -5.0958,-4.1315 -4.2921,-7.846c0.0304,-0.1397 0.4161,-0.0418 0.3848,0.1007c-0.7933,3.667 2.8072,5.4131 4.4906,8.0921c0.8712,1.3841 1.6872,2.8452 2.4301,4.3016c0.2926,0.5738 0.5539,1.1656 0.8113,1.7556c0.323,0.74 0.4931,1.6653 0.9538,2.3237c0.1017,0.1501 -0.2859,0.1197 -0.361,0.0142zM333.0697,168.8869c-0.1833,0.8132 -0.4607,1.6216 -0.3876,2.469c0.0808,0.9396 0.9529,1.7309 1.5257,2.4111c0.7667,0.9092 1.14,2.0625 0.6831,3.1977c-0.7809,1.9304 -3.629,2.6543 -5.4207,3.1379c-6.5512,1.7727 -14.6262,0.3144 -20.2075,-3.5872c-0.2137,-0.1492 0.1159,-0.21 0.2404,-0.1226c5.6534,3.952 13.6268,5.2051 20.2112,3.363c1.9304,-0.5396 5.054,-1.5589 4.9999,-4.0308c-0.0276,-1.3804 -1.3063,-2.3361 -2.0188,-3.3858c-0.7533,-1.1125 -0.2793,-2.3655 -0.0123,-3.5521c0.0323,-0.1425 0.4199,-0.0437 0.3866,0.0998zM312.4462,159.1646c-1.6293,1.4639 -3.458,1.3965 -5.2497,0.2565c-2.1888,-1.3908 -3.344,-4.7301 -6.1408,-4.7785c-0.1482,-0.0029 -0.4076,-0.2309 -0.1473,-0.2261c1.8506,0.0313 2.793,0.9167 3.877,2.3208c1.7423,2.2572 4.6217,4.6864 7.3045,2.2762c0.1026,-0.0969 0.4655,0.0523 0.3563,0.1511zM306.3187,153.4408c-1.1353,0.7135 -2.3589,-0.0589 -3.2984,-0.7989c-1.312,-1.0336 -1.6806,-2.4738 -0.5795,-3.7772c1.1343,-1.3481 3.0305,-2.2658 4.4555,-3.2576c2.1014,-1.463 4.0992,-3.0713 5.623,-5.1499c0.0808,-0.1102 0.4522,0.0218 0.3563,0.1529c-1.8782,2.5612 -4.4726,4.3767 -7.0661,6.1437c-1.1201,0.7647 -2.3446,1.4658 -3.2262,2.5137c-1.4906,1.7698 1.5133,5.1851 3.4257,3.9805c0.1159,-0.0665 0.4702,0.0931 0.3097,0.1928zM300.82009,154.5732c-0.4503,-1.2255 0.113,-2.4339 1.3661,-2.8224c0.1282,-0.039 0.4531,0.1472 0.2318,0.2166c-1.1742,0.3648 -1.6236,1.5371 -1.2113,2.6524c0.0494,0.133 -0.3382,0.0864 -0.3866,-0.0466zM324.21479,123.6517c-0.7068,0.0009 -1.4108,-0.0456 -1.8193,-0.704c-0.0969,-0.1577 0.2907,-0.1244 0.3591,-0.0133c0.3078,0.4959 0.7847,0.4921 1.312,0.4912c0.1501,-0.001 0.4085,0.2261 0.1482,0.2261z" fill="#000000" stroke="none" stroke-width="0.95"/><path d="M337.4597,104.0693c0.1368,1.0165 0.4151,1.9656 0.9129,2.8652c0.1302,0.2347 -0.3895,0.2071 -0.4835,0.0342c-0.514,-0.9253 -0.8075,-1.9038 -0.9462,-2.9497c-0.0314,-0.2347 0.4892,-0.1511 0.5168,0.0503zM344.1733,106.4358c-1.6539,1.1979 -4.104,1.1647 -6.0163,0.7457c-0.3183,-0.0693 -0.2318,-0.3714 0.0807,-0.3021c1.7689,0.3867 4.0138,0.3876 5.5338,-0.7144c0.1586,-0.114 0.6222,0.1112 0.4018,0.2708zM337.1148,103.8214c2.1461,-0.4551 4.295,-1.3538 6.4942,-1.4336c0.2204,-0.0095 0.5368,0.3173 0.1891,0.3306c-2.1432,0.0779 -4.2807,0.9681 -6.3783,1.4136c-0.19,0.0409 -0.608,-0.247 -0.305,-0.3106zM343.9615,102.5797c0.2109,1.2227 0.3515,2.4482 0.3002,3.6917c-0.0105,0.1976 -0.5244,0.0846 -0.513,-0.1387c0.0503,-1.2103 -0.0988,-2.413 -0.3031,-3.6043c-0.0389,-0.2308 0.4826,-0.1501 0.5159,0.0513z" fill="#000000" stroke="none" stroke-width="0.95"/><path d="M337.1196,104.6051c-1.6777,0.0029 -3.3554,0.039 -5.0331,0.0171c-0.76,-0.0085 -1.4611,-0.0636 -2.204,-0.2185c-1.0089,-0.2109 -2.1565,-0.6659 -3.1996,-0.4303c-0.4076,0.0931 -1.2151,-0.5149 -0.6023,-0.6536c1.4259,-0.323 2.9079,0.2128 4.2978,0.5025c2.0083,0.4171 4.3272,0.0884 6.3745,0.0846c0.4598,-0.0019 1.0611,0.6954 0.3667,0.6982z" fill="#000000" stroke="none" stroke-width="0.95"/><path d="M334.7598,270.4267c-2.2259,-0.9643 -1.938,-4.2541 -0.7819,-5.9917c0.0827,-0.1244 0.5795,0.0371 0.4788,0.19c-0.9766,1.4697 -1.4649,4.7747 0.4959,5.6231c0.3325,0.1453 0.0238,0.2707 -0.1928,0.1786zM362.7971,260.7139c0.8123,2.5868 1.4051,5.4036 -1.405,6.9122c-0.1292,0.0693 -0.6052,-0.1264 -0.4133,-0.229c2.7379,-1.4715 2.0872,-4.2759 1.3063,-6.7564c-0.0447,-0.152 0.4645,-0.0807 0.512,0.0732zM361.8652,267.3962c-1.5333,1.1732 -3.3355,1.8895 -5.2364,2.1954c-0.9985,0.1615 -2.0131,0.0798 -3.0153,0.0228c-1.4782,-0.0807 -2.9507,0.0941 -4.3833,0.4513c-2.3142,0.5747 -4.5182,1.6444 -6.7745,2.412c-0.9756,0.3306 -1.9684,0.5966 -2.9744,0.8113c-0.5824,0.1254 -1.1723,0.2033 -1.7632,0.2717c-0.5434,0.0608 -1.3823,-0.0646 -1.8924,0.0998c-0.1435,0.0503 -0.3829,-0.0114 -0.4598,-0.1492c-0.5919,-1.0811 -0.8322,-2.0197 -0.7648,-3.2442c0.0095,-0.1387 0.5244,-0.039 0.513,0.1387c-0.0674,1.2321 0.1786,2.1185 0.7619,3.1834c-0.1539,-0.0522 -0.3078,-0.1007 -0.4617,-0.151c0.7239,-0.2366 1.6625,-0.0865 2.4339,-0.1786c1.2882,-0.1482 2.5508,-0.4912 3.7848,-0.875c2.2848,-0.7115 4.4745,-1.6948 6.7536,-2.4234c1.9228,-0.6137 3.9434,-0.6764 5.9432,-0.5463c2.5118,0.1644 5.0701,-0.6849 7.0594,-2.2078c0.1273,-0.1026 0.5938,0.0988 0.476,0.1891zM362.496,260.5476c0.418,0.4741 -0.3382,1.4792 -0.589,1.9285c-0.4342,0.7857 -1.0688,1.4431 -1.7414,2.0245c-1.5874,1.3756 -3.6603,2.1574 -5.6553,2.7198c-2.1109,0.5957 -4.2902,0.8769 -6.479,0.9177c-1.2854,0.0247 -2.5736,0.0067 -3.8589,-0.0199c-1.3804,-0.0257 -2.8909,-0.0903 -4.1306,0.6099c-0.1283,0.0712 -0.6042,-0.1216 -0.4161,-0.229c1.6197,-0.912 3.6793,-0.6175 5.4606,-0.6251c2.4947,-0.0114 4.9238,-0.0076 7.3824,-0.494c2.1385,-0.4227 4.2503,-1.1295 6.1161,-2.2724c0.7695,-0.4693 1.4488,-1.0583 2.0539,-1.7233c0.3126,-0.3429 1.8468,-2.318 1.3842,-2.8433c-0.134,-0.153 0.3762,-0.1036 0.4731,0.0066zM362.5767,260.6331c-3.2357,0.0314 -6.7431,0.7268 -9.8125,-0.6127c-0.3306,-0.1454 -0.0219,-0.2698 0.1938,-0.1786c2.9051,1.2663 6.3422,0.5633 9.4107,0.5339c0.17,-0.001 0.5519,0.2546 0.208,0.2574zM340.3296,268.653c-1.7508,0.7078 -3.3231,1.8003 -5.2801,1.7414c-0.1691,-0.0048 -0.5529,-0.2689 -0.208,-0.2584c1.8762,0.0579 3.4,-1.0355 5.0749,-1.711c0.1368,-0.0551 0.6061,0.1501 0.4132,0.228z" fill="#000000" stroke="none" stroke-width="0.95"/><path d="M274.9601,258.66c-0.8911,0.2071 -1.5238,1.3034 -1.88,2.0653c-0.0741,0.1586 -0.5729,-0.0105 -0.514,-0.1387c0.4095,-0.8702 1.0688,-1.9485 2.0729,-2.1784c0.1416,-0.0323 0.6014,0.1881 0.3211,0.2518zM288.24969,272.6316c-3.7022,-0.9072 -7.0538,-2.8623 -9.9465,-5.3124c-2.0995,-1.7784 -5.4663,-4.2845 -5.8026,-7.2114c-0.0209,-0.1796 0.4921,-0.0779 0.5082,0.0741c0.3154,2.7341 3.2129,4.7642 5.0645,6.5113c2.8424,2.6818 6.4334,4.7851 10.2353,5.7199c0.3078,0.0751 0.246,0.2926 -0.0589,0.2185zM298.2104,276.3974c-3.0191,0.5719 -6.2301,0.3031 -9.2577,-0.113c-2.395,-0.3335 -5.2839,-0.8683 -7.2846,-2.3009c-1.1486,-0.8218 -1.9589,-2.0824 -2.8966,-3.1189c-1.4126,-1.5637 -3.0077,-2.9735 -4.5267,-4.4308c-0.6147,-0.589 -1.2198,-1.1827 -1.824,-1.7841c-0.4475,-0.4436 -1.5647,-1.2454 -1.7556,-1.8411c-0.1235,-0.3876 0.4712,-1.3499 0.6498,-1.6824c0.2954,-0.5539 0.7429,-0.97 1.2692,-1.2968c0.1415,-0.0893 0.5937,0.1188 0.4807,0.19c-0.7154,0.4456 -2.4329,2.2667 -1.5637,3.2006c1.2388,1.3309 2.5564,2.5916 3.8703,3.8494c1.9655,1.881 3.8209,3.8076 5.624,5.8415c1.9019,2.147 5.1642,2.7009 7.8764,3.1246c2.9203,0.456 6.1076,0.6574 9.0165,0.1064c0.1434,-0.0247 0.6032,0.2004 0.322,0.2555zM302.1947,270.5578c-0.2451,2.6961 -0.8113,5.5518 -3.9843,5.8387c-0.1387,0.0123 -0.5985,-0.2271 -0.3211,-0.2546c3.0923,-0.2793 3.5597,-3.1607 3.7934,-5.7209c0.0133,-0.1425 0.5291,-0.0361 0.512,0.1368zM301.9848,270.2937c0.2327,0.6916 -1.444,1.69 -1.9399,1.9712c-1.1676,0.6603 -2.4168,1.008 -3.7411,1.1799c-2.6771,0.3534 -5.4635,-0.1387 -8.0551,-0.8132c-0.303,-0.0788 -0.2451,-0.2964 0.0599,-0.2175c2.1688,0.5643 4.3785,0.9186 6.6262,0.8607c1.292,-0.0352 2.5669,-0.2945 3.7687,-0.7714c0.4484,-0.1777 3.0333,-1.5115 2.774,-2.2848c-0.0542,-0.1463 0.4541,-0.0788 0.5073,0.0751zM301.8442,270.3896c-2.9792,-1.2141 -6.4876,-1.9237 -8.7847,-4.3348c-0.1396,-0.1387 0.3724,-0.0969 0.4722,0.0114c2.2011,2.3075 5.6449,2.982 8.5053,4.1458c0.3344,0.1387 0.0228,0.266 -0.1928,0.1776z" fill="#000000" stroke="none" stroke-width="0.95"/></g></g></svg>